<?xml version="1.0" encoding="utf-8"?>
<!-- Generator: Adobe Illustrator 16.0.0, SVG Export Plug-In . SVG Version: 6.00 Build 0)  -->
<!DOCTYPE svg PUBLIC "-//W3C//DTD SVG 1.1//EN" "http://www.w3.org/Graphics/SVG/1.1/DTD/svg11.dtd">
<svg version="1.1" id="Layer_1" xmlns="http://www.w3.org/2000/svg" xmlns:xlink="http://www.w3.org/1999/xlink" x="0px" y="0px"
	 width="32px" height="32px" viewBox="0 0 32 32" enable-background="new 0 0 32 32" xml:space="preserve">
<title>aerospike-sink</title>
<path fill="#64953B" d="M16,0c8.822,0,16,7.177,16,16s-7.178,16-16,16C7.176,32,0,24.822,0,16C0,7.178,7.176,0,16,0z M16,31.359
	c8.471,0,15.359-6.889,15.359-15.359c0-8.47-6.889-15.36-15.359-15.36C7.53,0.64,0.64,7.53,0.64,16
	C0.64,24.471,7.53,31.359,16,31.359z M4.48,16.004c6.393-2.893,12.778-5.783,19.184-8.682c0.006,0.068,0.013,0.114,0.013,0.159
	c0.001,0.594-0.003,1.188,0.003,1.782c0.002,0.119-0.043,0.168-0.146,0.212c-1.401,0.618-2.8,1.242-4.201,1.859
	c-0.124,0.054-0.164,0.117-0.164,0.25c0.004,2.971,0.004,5.941,0,8.913c0,0.127,0.038,0.188,0.155,0.239
	c1.404,0.625,2.805,1.256,4.21,1.88c0.11,0.049,0.147,0.108,0.147,0.229c-0.008,0.598-0.005,1.195-0.005,1.83
	c-6.405-2.895-12.788-5.777-19.198-8.675L4.48,16.004L4.48,16.004z M8.774,16.023c2.895,1.297,5.756,2.581,8.633,3.872
	c0-2.58,0-5.136,0-7.715C14.531,13.459,11.667,14.734,8.774,16.023z"/>
</svg>
