<?xml version="1.0" encoding="utf-8"?>
<!-- Generator: Adobe Illustrator 16.0.0, SVG Export Plug-In . SVG Version: 6.00 Build 0)  -->
<!DOCTYPE svg PUBLIC "-//W3C//DTD SVG 1.1//EN" "http://www.w3.org/Graphics/SVG/1.1/DTD/svg11.dtd">
<svg version="1.1" id="Layer_1" xmlns="http://www.w3.org/2000/svg" xmlns:xlink="http://www.w3.org/1999/xlink" x="0px" y="0px"
	 width="29px" height="32px" viewBox="0 0 29 32" enable-background="new 0 0 29 32" xml:space="preserve">
<title>aerospike-worker-deployment</title>
<path fill="#3272A0" d="M28.57,14.286C28.57,6.408,22.162,0,14.285,0C6.407,0-0.001,6.408-0.001,14.286
	c0,6.239,4.021,11.553,9.607,13.495C9.848,30.15,11.85,32,14.284,32c2.434,0,4.437-1.85,4.679-4.219
	C24.548,25.839,28.57,20.525,28.57,14.286L28.57,14.286z M18.982,27.171c-0.067-2.539-2.143-4.578-4.697-4.578
	c-2.555,0-4.63,2.038-4.697,4.578C4.332,25.25,0.57,20.2,0.57,14.285c0-7.562,6.152-13.714,13.714-13.714
	c7.562,0,13.714,6.152,13.714,13.714c0,5.914-3.762,10.965-9.018,12.886H18.982z M12.822,29.621l-1.041-4.102h0.56l0.487,2.074
	c0.122,0.512,0.231,1.022,0.305,1.418h0.012c0.067-0.406,0.195-0.894,0.335-1.424l0.547-2.068h0.554l0.5,2.082
	c0.114,0.487,0.226,0.974,0.286,1.405h0.012c0.084-0.45,0.202-0.907,0.327-1.418l0.542-2.069h0.541l-1.162,4.103h-0.555
	l-0.517-2.138c-0.128-0.522-0.213-0.924-0.268-1.338h-0.012c-0.073,0.408-0.165,0.809-0.317,1.338l-0.584,2.137H12.822
	L12.822,29.621z M4,13.718c5.708-2.583,11.409-5.163,17.128-7.752c0.006,0.061,0.013,0.102,0.013,0.143
	c0,0.53-0.004,1.061,0.002,1.591c0.002,0.106-0.037,0.15-0.129,0.19c-1.252,0.551-2.5,1.109-3.752,1.659
	c-0.109,0.048-0.146,0.105-0.146,0.224c0.004,2.653,0.004,5.305,0,7.958c0,0.115,0.033,0.168,0.138,0.215
	c1.254,0.558,2.505,1.121,3.759,1.679c0.1,0.044,0.131,0.097,0.131,0.205c-0.006,0.535-0.002,1.069-0.002,1.635
	C15.421,18.879,9.724,16.304,4,13.718L4,13.718z M7.833,13.735c2.585,1.158,5.139,2.303,7.707,3.457c0-2.302,0-4.585,0-6.891
	C12.973,11.445,10.415,12.583,7.833,13.735z"/>
</svg>
