<?xml version="1.0" encoding="utf-8"?>
<!-- Generator: Adobe Illustrator 16.0.0, SVG Export Plug-In . SVG Version: 6.00 Build 0)  -->
<!DOCTYPE svg PUBLIC "-//W3C//DTD SVG 1.1//EN" "http://www.w3.org/Graphics/SVG/1.1/DTD/svg11.dtd">
<svg version="1.1" id="Layer_1" xmlns="http://www.w3.org/2000/svg" xmlns:xlink="http://www.w3.org/1999/xlink" x="0px" y="0px"
	 width="29px" height="32px" viewBox="0 0 29 32" enable-background="new 0 0 29 32" xml:space="preserve">
<title>aerospike-master-deployment</title>
<path fill="#3272A0" d="M28.57,14.286C28.57,6.408,22.162,0,14.285,0C6.407,0-0.001,6.408-0.001,14.286
	c0,6.239,4.021,11.553,9.607,13.495C9.848,30.15,11.85,32,14.284,32c2.434,0,4.437-1.85,4.679-4.219
	C24.548,25.839,28.57,20.525,28.57,14.286L28.57,14.286z M18.982,27.171c-0.067-2.539-2.143-4.578-4.697-4.578
	c-2.555,0-4.63,2.038-4.697,4.578C4.332,25.25,0.57,20.2,0.57,14.285c0-7.562,6.152-13.714,13.714-13.714
	c7.562,0,13.714,6.153,13.714,13.714c0,5.914-3.762,10.965-9.018,12.886H18.982z M11.74,26.598c0-0.369-0.008-0.674-0.03-0.971h0.57
	l0.03,0.578h0.022c0.201-0.341,0.534-0.659,1.127-0.659c0.489,0,0.86,0.298,1.015,0.72h0.014c0.111-0.201,0.252-0.355,0.399-0.467
	c0.214-0.163,0.452-0.252,0.794-0.252c0.473,0,1.178,0.311,1.178,1.557v2.111h-0.637v-2.029c0-0.69-0.252-1.105-0.779-1.105
	c-0.369,0-0.658,0.273-0.77,0.594c-0.03,0.087-0.053,0.206-0.053,0.325v2.215h-0.637v-2.149c0-0.57-0.252-0.986-0.749-0.986
	c-0.408,0-0.704,0.326-0.808,0.654c-0.037,0.096-0.052,0.207-0.052,0.317v2.164h-0.637v-2.616H11.74z M4.571,13.718
	c5.708-2.583,11.41-5.163,17.128-7.752c0.006,0.061,0.012,0.102,0.012,0.143c0.001,0.53-0.003,1.061,0.003,1.591
	c0.001,0.106-0.038,0.15-0.13,0.19c-1.251,0.551-2.5,1.109-3.751,1.659c-0.11,0.048-0.147,0.105-0.147,0.224
	c0.004,2.653,0.004,5.305,0,7.958c0,0.115,0.035,0.168,0.139,0.215c1.254,0.558,2.505,1.121,3.759,1.679
	c0.099,0.044,0.131,0.097,0.131,0.205c-0.006,0.535-0.002,1.069-0.002,1.635C15.992,18.879,10.295,16.304,4.571,13.718L4.571,13.718
	z M8.405,13.735c2.585,1.158,5.139,2.303,7.707,3.457c0-2.302,0-4.585,0-6.891C13.545,11.445,10.987,12.583,8.405,13.735z"/>
</svg>
