<?xml version="1.0" encoding="utf-8"?>
<!-- Generator: Adobe Illustrator 16.0.0, SVG Export Plug-In . SVG Version: 6.00 Build 0)  -->
<!DOCTYPE svg PUBLIC "-//W3C//DTD SVG 1.1//EN" "http://www.w3.org/Graphics/SVG/1.1/DTD/svg11.dtd">
<svg version="1.1" id="Layer_1" xmlns="http://www.w3.org/2000/svg" xmlns:xlink="http://www.w3.org/1999/xlink" x="0px" y="0px"
	 width="32px" height="32px" viewBox="0 0 32 32" enable-background="new 0 0 32 32" xml:space="preserve">
<title>aggregation</title>
<path fill="#64953B" d="M16,0C7.176,0,0,7.177,0,16s7.177,16,16,16s16-7.178,16-16C32,7.177,24.822,0,16,0z M23.247,19.759
	l0.749-1.599h0.643l-1.08,6.479H7.361v-1.252l5.594-6.602l-5.594-5.593v-3.83h16.536l0.744,4.319h-0.58l-0.314-0.655
	c-0.6-1.238-1.046-1.505-2.346-1.505H10.23l5.958,5.957l-5.019,5.92h9.151c1.959,0,2.474-0.703,2.93-1.644L23.247,19.759
	L23.247,19.759z M16,31.359C7.53,31.359,0.64,24.471,0.64,16C0.64,7.53,7.53,0.64,16,0.64c8.471,0,15.359,6.89,15.359,15.36
	C31.359,24.471,24.471,31.359,16,31.359z"/>
</svg>
