<?xml version="1.0" encoding="utf-8"?>
<!-- Generator: Adobe Illustrator 16.0.0, SVG Export Plug-In . SVG Version: 6.00 Build 0)  -->
<!DOCTYPE svg PUBLIC "-//W3C//DTD SVG 1.1//EN" "http://www.w3.org/Graphics/SVG/1.1/DTD/svg11.dtd">
<svg version="1.1" id="Layer_1" xmlns="http://www.w3.org/2000/svg" xmlns:xlink="http://www.w3.org/1999/xlink" x="0px" y="0px"
	 width="32px" height="32px" viewBox="0 0 32 32" enable-background="new 0 0 32 32" xml:space="preserve">
<title>alarm</title>
<path fill="#3272A0" d="M16,4C8.268,4,2,10.268,2,18c0,7.732,6.268,14,14,14c7.732,0,14-6.268,14-14C30,10.268,23.732,4,16,4z
	 M16,29.25C9.787,29.25,4.75,24.213,4.75,18S9.787,6.75,16,6.75S27.25,11.787,27.25,18S22.213,29.25,16,29.25z M29.212,8.974
	C29.714,8.097,30,7.082,30,6c0-3.314-2.686-6-6-6c-1.932,0-3.65,0.913-4.747,2.331C23.375,3.182,26.915,5.619,29.212,8.974
	L29.212,8.974L29.212,8.974z M12.748,2.331C11.65,0.913,9.932,0,8,0C4.686,0,2,2.686,2,6c0,1.082,0.287,2.098,0.788,2.974
	C5.085,5.618,8.626,3.182,12.748,2.331z"/>
<path fill="#3272A0" d="M16,18v-8h-2v10h8v-2H16z"/>
</svg>
