<?xml version="1.0" encoding="utf-8"?>
<!-- Generator: Adobe Illustrator 16.0.0, SVG Export Plug-In . SVG Version: 6.00 Build 0)  -->
<!DOCTYPE svg PUBLIC "-//W3C//DTD SVG 1.1//EN" "http://www.w3.org/Graphics/SVG/1.1/DTD/svg11.dtd">
<svg version="1.1" id="Layer_1" xmlns="http://www.w3.org/2000/svg" xmlns:xlink="http://www.w3.org/1999/xlink" x="0px" y="0px"
	 width="32px" height="32px" viewBox="0 0 32 32" enable-background="new 0 0 32 32" xml:space="preserve">
<title>amazon-rds</title>
<path fill="#3272A0" d="M16,0c8.832,0,16,7.168,16,16s-7.168,16-16,16S0,24.832,0,16S7.168,0,16,0z M16,31.359
	c8.448,0,15.359-6.911,15.359-15.359S24.448,0.64,16,0.64S0.64,7.552,0.64,16S7.552,31.359,16,31.359z M5.376,9.664l2.56-3.072
	l4.416-2.56h7.423l4.865,2.56l2.047,2.304v14.081l-2.047,2.367l-4.865,2.688l-7.551-0.192l-3.712-2.111L5.76,22.977L5.376,9.664z
	 M19.712,28.032l4.864-2.688V6.592l-4.864-2.56V28.032z M8.384,25.729l3.712,2.111l0.192-23.808l-4.416,2.56L8.384,25.729z"/>
</svg>
