<?xml version="1.0" encoding="utf-8"?>
<!-- Generator: Adobe Illustrator 16.0.0, SVG Export Plug-In . SVG Version: 6.00 Build 0)  -->
<!DOCTYPE svg PUBLIC "-//W3C//DTD SVG 1.1//EN" "http://www.w3.org/Graphics/SVG/1.1/DTD/svg11.dtd">
<svg version="1.1" id="Layer_1" xmlns="http://www.w3.org/2000/svg" xmlns:xlink="http://www.w3.org/1999/xlink" x="0px" y="0px"
	 width="50px" height="50px" viewBox="0 0 50 50" enable-background="new 0 0 50 50" xml:space="preserve">
<path fill="#010101" d="M25,0c13.785,0,25,11.214,25,25c0,13.785-11.215,25-25,25C11.213,50,0,38.785,0,25C0,11.214,11.213,0,25,0
	 M25,49c13.234,0,24-10.766,24-24C49,11.766,38.234,1,25,1S1,11.766,1,25C1,38.234,11.766,49,25,49 M18.909,25.016
	c0-4.48,0-8.958,0-13.438c0-0.208,0-0.208-0.21-0.208c-2.161,0-4.323,0-6.484,0c-0.213,0-0.214,0-0.214,0.217
	c0,8.946,0,17.891,0,26.837c0,0.209,0,0.209,0.209,0.209c2.166,0,4.332,0,6.497,0c0.025,0,0.051-0.002,0.076,0
	c0.093,0.007,0.132-0.036,0.127-0.128c-0.004-0.046,0-0.094,0-0.14C18.909,33.914,18.909,29.465,18.909,25.016z M21.545,24.988
	c0,4.479,0,8.959,0,13.438c0,0.205,0,0.205,0.201,0.205c2.17,0,4.34,0,6.51,0c0.198,0,0.198,0,0.198-0.194
	c0-8.958,0-17.918,0-26.875c0-0.192-0.001-0.193-0.2-0.193c-1.15,0-2.302,0-3.452,0c-1.032,0-2.064,0.002-3.096-0.001
	c-0.119,0-0.176,0.034-0.162,0.158c0.005,0.042,0.001,0.084,0.001,0.126C21.545,16.098,21.545,20.543,21.545,24.988z M31.092,25.003
	c0,4.466,0,8.933,0,13.4c0,0.229,0,0.229,0.232,0.229c2.144,0,4.289,0,6.435,0c0.241,0,0.241,0,0.241-0.24
	c0-5.774,0-11.549,0-17.323c0-3.164,0-6.328,0-9.492c0-0.207,0-0.208-0.211-0.208c-0.936,0-1.869,0-2.805,0
	c-1.244,0-2.488,0.001-3.731-0.001c-0.119,0-0.176,0.034-0.162,0.157c0.005,0.042,0.001,0.084,0.001,0.127
	C31.092,16.102,31.092,20.552,31.092,25.003z M18.909,11.578c0-0.208,0-0.208-0.21-0.208c-2.161,0-4.323,0-6.484,0
	c-0.213,0-0.214,0-0.214,0.217c0,8.946,0,17.891,0,26.837c0,0.209,0,0.209,0.209,0.209c2.166,0,4.332,0,6.497,0
	c0.025,0,0.051-0.002,0.076,0c0.093,0.007,0.132-0.036,0.127-0.128c-0.004-0.046,0-0.094,0-0.14c0-4.45,0-8.899,0-13.349
	C18.909,20.536,18.909,16.057,18.909,11.578z M21.545,24.988c0-4.445,0-8.891,0-13.336c0-0.042,0.004-0.084-0.001-0.126
	c-0.014-0.124,0.043-0.158,0.162-0.158c1.031,0.003,2.063,0.001,3.096,0.001c1.15,0,2.301,0,3.452,0c0.199,0,0.2,0,0.2,0.193
	c0,8.958,0,17.917,0,26.875c0,0.194,0,0.194-0.198,0.194c-2.17,0-4.34,0-6.51,0c-0.201,0-0.201,0-0.201-0.205
	C21.545,33.947,21.545,29.467,21.545,24.988z M26.998,25.015c0-3.994,0-7.986,0-11.979c0-0.192,0-0.193-0.186-0.193
	c-1.206,0-2.412,0-3.618,0c-0.172,0-0.176,0.003-0.176,0.179c0,7.986,0,15.972,0,23.958c0,0.178,0.001,0.179,0.188,0.179
	c0.884,0,1.768,0,2.652,0c0.33,0,0.66-0.004,0.989,0.002c0.118,0.003,0.163-0.04,0.15-0.154c-0.005-0.042-0.001-0.085-0.001-0.127
	C26.998,32.924,26.998,28.969,26.998,25.015z M31.092,25.003c0-4.451,0-8.901,0-13.351c0-0.042,0.004-0.084-0.001-0.127
	c-0.014-0.124,0.043-0.158,0.162-0.157c1.243,0.003,2.487,0.001,3.731,0.001c0.936,0,1.869,0,2.805,0c0.211,0,0.211,0,0.211,0.208
	c0,3.165,0,6.328,0,9.492c0,5.774,0,11.548,0,17.323c0,0.24,0,0.24-0.241,0.24c-2.146,0-4.291,0-6.435,0
	c-0.232,0-0.232,0-0.232-0.229C31.092,33.936,31.092,29.469,31.092,25.003z M32.564,25c0,3.989,0,7.977,0,11.966
	c0,0.191,0,0.192,0.187,0.192c1.201,0,2.402,0,3.604,0c0.188,0,0.189-0.001,0.189-0.188c0-1.57,0-3.14,0-4.709
	c0-6.396,0-12.792,0-19.187c0-0.231,0-0.231-0.237-0.231c-0.994,0-1.987,0-2.982,0c-0.212,0-0.423,0.002-0.634,0
	c-0.094-0.001-0.133,0.035-0.127,0.127c0.004,0.046,0,0.094,0,0.14C32.564,17.072,32.564,21.036,32.564,25z M26.998,13.036
	c0-0.192,0-0.193-0.186-0.193c-1.206,0-2.412,0-3.618,0c-0.172,0-0.176,0.003-0.176,0.179c0,7.986,0,15.972,0,23.958
	c0,0.178,0.001,0.179,0.188,0.179c0.884,0,1.768,0,2.652,0c0.33,0,0.66-0.004,0.989,0.002c0.118,0.003,0.163-0.04,0.15-0.154
	c-0.005-0.042-0.001-0.085-0.001-0.127c0-3.955,0-7.91,0-11.864C26.998,21.021,26.998,17.029,26.998,13.036z M32.564,36.966
	c0,0.191,0,0.192,0.187,0.192c1.201,0,2.402,0,3.604,0c0.188,0,0.189-0.001,0.189-0.188c0-1.57,0-3.14,0-4.709
	c0-6.396,0-12.792,0-19.187c0-0.231,0-0.231-0.237-0.231c-0.994,0-1.987,0-2.982,0c-0.212,0-0.423,0.002-0.634,0
	c-0.094-0.001-0.133,0.035-0.127,0.127c0.004,0.046,0,0.094,0,0.14c0,3.963,0,7.927,0,11.891
	C32.564,28.988,32.564,32.977,32.564,36.966z"/>
</svg>
