<?xml version="1.0" encoding="utf-8"?>
<!-- Generator: Adobe Illustrator 16.0.0, SVG Export Plug-In . SVG Version: 6.00 Build 0)  -->
<!DOCTYPE svg PUBLIC "-//W3C//DTD SVG 1.1//EN" "http://www.w3.org/Graphics/SVG/1.1/DTD/svg11.dtd">
<svg version="1.1" id="Layer_1" xmlns="http://www.w3.org/2000/svg" xmlns:xlink="http://www.w3.org/1999/xlink" x="0px" y="0px"
	 width="37px" height="32px" viewBox="0 0 37 32" enable-background="new 0 0 37 32" xml:space="preserve">
<title>amazonS3-iot</title>
<path fill="#3272A0" d="M9.238,32L0,16L9.238,0h18.476l9.237,16l-9.237,16H9.238z M27.43,31.508l8.952-15.507L27.43,0.493H9.521
	L0.568,16.001l8.953,15.507H27.43z M15.707,15.78c0-1.935,1.735-2.289,3.376-2.289v0.495c0,0.883,0.022,1.621-0.426,2.408
	c-0.359,0.638-0.933,1.034-1.568,1.034c-0.873,0-1.381-0.666-1.381-1.646L15.707,15.78z M18.806,9.735
	c0.32,0.467,0.276,1.105,0.276,1.646v0.294c-1.315,0.149-3.037,0.248-4.268,0.787c-1.423,0.612-2.421,1.866-2.421,3.712
	c0,2.357,1.487,3.536,3.397,3.536c1.614,0,2.497-0.38,3.744-1.649c0.411,0.6,0.546,0.885,1.3,1.513
	c0.168,0.09,0.387,0.085,0.535-0.054l0.006,0.006c0.452-0.403,1.277-1.116,1.741-1.506c0.185-0.15,0.151-0.398,0.007-0.602
	c-0.414-0.577-0.855-1.042-0.855-2.104v-3.536c0-1.499,0.105-2.874-1-3.908c-0.871-0.836-2.313-1.13-3.418-1.13
	c-2.16,0-4.571,0.808-5.076,3.473c-0.053,0.287,0.153,0.435,0.34,0.475l2.2,0.239c0.206-0.011,0.355-0.213,0.395-0.418
	c0.188-0.919,0.958-1.364,1.824-1.364C17.998,9.145,18.529,9.318,18.806,9.735L18.806,9.735z M7.328,20.832
	c3.136,2.829,6.596,4.43,10.877,4.43c3.402,0,6.868-1.488,9.283-3.27c0.281-0.206,0.396-0.516,0.299-0.807
	c-0.092-0.287-0.37-0.479-0.691-0.479c-0.113,0-0.225,0.021-0.332,0.07c-2.629,1.115-5.627,1.748-8.445,1.748
	c-3.887,0-7.543-1.283-10.305-2.623c-0.115-0.055-0.23-0.096-0.345-0.096c-0.237,0-0.442,0.137-0.527,0.352
	c-0.088,0.23-0.019,0.488,0.184,0.674H7.328z M28.328,24.286c1.438-1.202,1.783-4.179,1.329-4.745
	c-0.347-0.428-1.552-0.543-1.791-0.543c-0.622,0-1.804,0.079-2.742,0.738c-0.242,0.171-0.351,0.388-0.276,0.621
	c0.063,0.205,0.256,0.254,0.574,0.254h0.02c0.435,0,1.287-0.248,1.896-0.248c0.614,0,0.817,0,0.929,0.259
	c0.11,0.26-0.103,0.826-0.843,2.677c-0.075,0.191-0.3,1.293,0.083,1.391C27.889,24.785,28.191,24.4,28.328,24.286L28.328,24.286z"/>
</svg>
