<?xml version="1.0" encoding="utf-8"?>
<!-- Generator: Adobe Illustrator 16.0.0, SVG Export Plug-In . SVG Version: 6.00 Build 0)  -->
<!DOCTYPE svg PUBLIC "-//W3C//DTD SVG 1.1//EN" "http://www.w3.org/Graphics/SVG/1.1/DTD/svg11.dtd">
<svg version="1.1" id="Layer_1" xmlns="http://www.w3.org/2000/svg" xmlns:xlink="http://www.w3.org/1999/xlink" x="0px" y="0px"
	 width="32px" height="32px" viewBox="0 0 32 32" enable-background="new 0 0 32 32" xml:space="preserve">
<title>amazonS3-deployment</title>
<path fill="#3272A0" d="M13.419,15.795c0-1.804,1.617-2.134,3.147-2.134v0.461c0,0.824,0.021,1.51-0.396,2.244
	c-0.334,0.595-0.87,0.964-1.463,0.964C13.894,17.33,13.419,16.71,13.419,15.795z M16.308,10.157
	c0.297,0.435,0.256,1.031,0.256,1.535v0.274c-1.227,0.138-2.832,0.23-3.979,0.734c-1.327,0.571-2.257,1.74-2.257,3.46
	c0,2.199,1.386,3.299,3.167,3.299c1.506,0,2.328-0.355,3.491-1.539c0.384,0.559,0.509,0.825,1.213,1.409
	c0.156,0.085,0.359,0.079,0.499-0.05l0.006,0.006c0.422-0.376,1.19-1.043,1.623-1.406c0.173-0.14,0.141-0.37,0.006-0.561
	c-0.388-0.537-0.797-0.971-0.797-1.961V12.06c0-1.398,0.098-2.681-0.933-3.644c-0.812-0.779-2.158-1.053-3.187-1.053
	c-2.014,0-4.262,0.754-4.733,3.24c-0.049,0.267,0.143,0.406,0.317,0.444l2.051,0.223c0.192-0.012,0.332-0.199,0.368-0.39
	c0.175-0.856,0.893-1.272,1.701-1.272C15.557,9.607,16.052,9.769,16.308,10.157L16.308,10.157z M5.605,20.506
	c2.924,2.639,6.15,4.131,10.143,4.131c3.173,0,6.404-1.388,8.656-3.049c0.262-0.193,0.369-0.48,0.279-0.752
	c-0.086-0.268-0.346-0.447-0.644-0.447c-0.106,0-0.211,0.021-0.31,0.066c-2.453,1.039-5.248,1.631-7.875,1.631
	c-3.625,0-7.033-1.195-9.61-2.445c-0.107-0.051-0.214-0.09-0.321-0.09c-0.221,0-0.413,0.127-0.491,0.328
	C5.35,20.094,5.416,20.334,5.605,20.506z M25.188,23.727c1.342-1.121,1.664-3.896,1.238-4.424c-0.322-0.398-1.447-0.508-1.668-0.508
	c-0.58,0-1.682,0.074-2.557,0.689c-0.227,0.158-0.327,0.361-0.26,0.578c0.061,0.191,0.24,0.237,0.537,0.237h0.018
	c0.406,0,1.199-0.231,1.768-0.231c0.573,0,0.762,0,0.866,0.242c0.104,0.241-0.095,0.769-0.784,2.494
	c-0.072,0.18-0.281,1.207,0.076,1.297c0.357,0.088,0.639-0.269,0.768-0.375H25.188z M16,0c8.822,0,16,7.177,16,16s-7.178,16-16,16
	C7.176,32,0,24.822,0,16C0,7.178,7.176,0,16,0z M16,31.359c8.471,0,15.359-6.889,15.359-15.359c0-8.47-6.889-15.36-15.359-15.36
	C7.53,0.64,0.64,7.53,0.64,16C0.64,24.471,7.53,31.359,16,31.359z"/>
</svg>
