<?xml version="1.0" encoding="utf-8"?>
<!-- Generator: Adobe Illustrator 16.0.0, SVG Export Plug-In . SVG Version: 6.00 Build 0)  -->
<!DOCTYPE svg PUBLIC "-//W3C//DTD SVG 1.1//EN" "http://www.w3.org/Graphics/SVG/1.1/DTD/svg11.dtd">
<svg version="1.1" id="Layer_1" xmlns="http://www.w3.org/2000/svg" xmlns:xlink="http://www.w3.org/1999/xlink" x="0px" y="0px"
	 width="32px" height="32px" viewBox="0 0 32 32" enable-background="new 0 0 32 32" xml:space="preserve">
<title>amqp-notification</title>
<path fill="#3272A0" d="M24.32,32H7.68C3.392,32,0,28.607,0,24.32V7.68C0,3.392,3.392,0,7.68,0h16.64C28.607,0,32,3.392,32,7.68
	v16.64C32,28.607,28.607,32,24.32,32z M31.04,23.359V8.64c0-4.288-3.392-7.68-7.681-7.68H8.64c-4.288,0-7.68,3.392-7.68,7.68v14.719
	c0,4.289,3.392,7.681,7.68,7.681h14.719C27.648,31.04,31.04,27.648,31.04,23.359z M5.056,16.768l-0.704,2.049H3.52l2.24-6.528h1.024
	l2.24,6.528H8.128l-0.704-2.049H5.056z M7.232,16.128l-0.64-1.856c-0.128-0.448-0.256-0.832-0.32-1.216l0,0
	c-0.128,0.384-0.192,0.768-0.32,1.216l-0.64,1.92h1.92V16.128z M15.424,16c-0.064-0.896-0.128-1.984-0.128-2.816l0,0
	c-0.192,0.768-0.512,1.6-0.832,2.496l-1.152,3.2h-0.64l-1.088-3.136c-0.32-0.896-0.576-1.792-0.768-2.56l0,0
	c0,0.832-0.064,1.92-0.128,2.88l-0.192,2.816H9.664l0.576-6.592h1.088l1.088,3.136c0.256,0.832,0.512,1.536,0.64,2.176l0,0
	c0.192-0.64,0.384-1.408,0.704-2.176l1.152-3.136H16l0.384,6.528h-0.832L15.424,16z M23.168,19.775
	c-0.896-0.256-1.729-0.512-2.496-0.768c-0.128-0.064-0.256-0.128-0.384-0.128c-1.536-0.063-2.88-1.216-2.88-3.328
	c0-2.112,1.279-3.456,3.072-3.456c1.791,0,2.943,1.408,2.943,3.328c0,1.664-0.768,2.752-1.855,3.137v0.063
	c0.64,0.192,1.344,0.319,1.92,0.448L23.168,19.775z M22.464,15.552c0-1.28-0.704-2.688-2.048-2.688
	c-1.408,0-2.111,1.344-2.111,2.752c0,1.407,0.768,2.624,2.047,2.624C21.695,18.24,22.464,17.023,22.464,15.552z M24.448,12.352
	c0.384-0.064,0.96-0.128,1.6-0.128c0.832,0,1.472,0.192,1.856,0.576c0.384,0.32,0.576,0.768,0.576,1.344s-0.192,1.088-0.513,1.408
	c-0.448,0.448-1.151,0.704-1.983,0.704c-0.256,0-0.512,0-0.705-0.064v2.625h-0.831V12.352z M25.279,15.552
	c0.193,0.064,0.449,0.064,0.705,0.064c1.023,0,1.664-0.512,1.664-1.408s-0.641-1.28-1.537-1.28c-0.383,0-0.639,0-0.768,0.064v2.56
	H25.279z"/>
</svg>
