<?xml version="1.0" encoding="utf-8"?>
<!-- Generator: Adobe Illustrator 16.0.0, SVG Export Plug-In . SVG Version: 6.00 Build 0)  -->
<!DOCTYPE svg PUBLIC "-//W3C//DTD SVG 1.1//EN" "http://www.w3.org/Graphics/SVG/1.1/DTD/svg11.dtd">
<svg version="1.1" id="Layer_1" xmlns="http://www.w3.org/2000/svg" xmlns:xlink="http://www.w3.org/1999/xlink" x="0px" y="0px"
	 width="32px" height="32px" viewBox="0 0 32 32" enable-background="new 0 0 32 32" xml:space="preserve">
<title>api-source</title>
<path fill="#3272A0" d="M16,0c8.822,0,16,7.177,16,16s-7.178,16-16,16C7.176,32,0,24.822,0,16C0,7.178,7.176,0,16,0z M16,31.359
	c8.471,0,15.359-6.889,15.359-15.359c0-8.47-6.889-15.36-15.359-15.36C7.53,0.64,0.64,7.53,0.64,16
	C0.64,24.471,7.53,31.359,16,31.359z M15.684,22.827c-2.928,0-5.857,0.003-8.785-0.001c-2.278-0.003-4.244-1.998-4.336-4.268
	c-0.096-2.368,1.743-4.618,4.463-4.667c0.312-0.006,0.381-0.128,0.401-0.413c0.121-1.657,1.187-2.821,2.824-3.074
	c0.765-0.118,1.483,0.07,2.125,0.495c0.25,0.166,0.348,0.136,0.482-0.132c1.199-2.399,3.144-3.816,5.796-4.109
	c3.939-0.434,7.248,2.269,7.955,5.833c0.205,1.023,0.195,2.036-0.051,3.046c-0.062,0.255-0.019,0.41,0.19,0.592
	c1.158,1.016,1.668,2.287,1.284,3.805c-0.393,1.547-1.422,2.488-2.982,2.84c-0.253,0.059-0.508,0.053-0.764,0.053
	c-1.439,0.001-2.88,0-4.319,0c-1.428-0.001-2.856-0.001-4.284-0.001V22.827z M14.138,21.052c0.171,0,0.342-0.008,0.513,0.001
	c0.245,0.014,0.303-0.09,0.22-0.31c-0.108-0.285-0.209-0.573-0.31-0.861c-0.671-1.884-1.345-3.768-2.006-5.656
	c-0.087-0.25-0.217-0.351-0.477-0.339c-0.33,0.015-0.659,0.017-0.988,0.001c-0.252-0.013-0.367,0.096-0.447,0.327
	c-0.29,0.842-0.598,1.677-0.9,2.516c-0.474,1.319-0.946,2.641-1.424,3.959c-0.087,0.237-0.071,0.377,0.23,0.365
	c0.305-0.012,0.61-0.009,0.915,0c0.188,0.004,0.295-0.074,0.348-0.254c0.097-0.326,0.211-0.648,0.305-0.977
	c0.063-0.223,0.191-0.313,0.424-0.309c0.5,0.012,1.001-0.004,1.501,0.004c1.021,0.016,0.804-0.153,1.135,0.834
	C13.41,21.051,13.404,21.053,14.138,21.052L14.138,21.052z M15.041,17.455c0,1.061,0.009,2.122-0.006,3.184
	c-0.005,0.321,0.106,0.444,0.424,0.416c0.218-0.02,0.44-0.016,0.658,0c0.288,0.021,0.388-0.1,0.383-0.384
	c-0.013-0.598,0.008-1.194-0.009-1.793c-0.008-0.308,0.114-0.41,0.409-0.396c0.365,0.016,0.732,0.023,1.098-0.002
	c1.755-0.117,2.318-0.705,2.432-2.046c0.107-1.292-0.365-2.372-1.863-2.498c-1.084-0.091-2.168-0.025-3.252-0.042
	c-0.269-0.004-0.273,0.184-0.273,0.377C15.042,15.332,15.042,16.393,15.041,17.455L15.041,17.455z M22.427,17.507
	c0-0.877,0-1.755,0-2.633c0-0.993,0-0.977-0.983-0.991c-0.377-0.005-0.476,0.127-0.473,0.489c0.016,1.877,0.008,3.754,0.008,5.631
	c0,1.073-0.002,1.063,1.059,1.056c0.307,0,0.398-0.113,0.396-0.408C22.421,19.604,22.43,18.557,22.427,17.507L22.427,17.507z
	 M11.64,15.592c-0.038-0.004-0.077-0.008-0.115-0.012c-0.275,0.852-0.551,1.703-0.822,2.557c-0.055,0.17,0.051,0.219,0.193,0.219
	c0.451,0,0.901,0,1.351-0.002c0.182-0.002,0.236-0.097,0.182-0.264C12.165,17.258,11.903,16.425,11.64,15.592z M17.475,15.123
	c-0.22,0-0.438,0.004-0.656-0.001c-0.207-0.004-0.323,0.068-0.321,0.294c0.005,0.513,0.004,1.024,0.001,1.535
	c-0.002,0.189,0.066,0.305,0.273,0.303c0.438-0.003,0.879,0.023,1.315-0.013c0.565-0.048,0.933-0.548,0.91-1.172
	c-0.024-0.617-0.334-0.922-0.974-0.946c-0.183-0.007-0.364-0.001-0.547-0.001L17.475,15.123z M11.524,15.58
	c-0.275,0.852-0.551,1.703-0.822,2.557c-0.055,0.17,0.051,0.219,0.193,0.219c0.451,0,0.901,0,1.351-0.002
	c0.182-0.002,0.236-0.097,0.182-0.264c-0.264-0.833-0.526-1.666-0.789-2.498C11.6,15.587,11.562,15.584,11.524,15.58z
	 M16.816,15.123c-0.205-0.004-0.322,0.068-0.32,0.294c0.005,0.513,0.004,1.024,0.001,1.535c-0.002,0.19,0.067,0.305,0.272,0.303
	c0.438-0.003,0.881,0.024,1.316-0.013c0.566-0.047,0.934-0.547,0.91-1.172c-0.023-0.617-0.334-0.922-0.973-0.946
	c-0.183-0.007-0.365-0.001-0.549-0.001C17.255,15.123,17.036,15.127,16.816,15.123L16.816,15.123z"/>
</svg>
