<?xml version="1.0" encoding="utf-8"?>
<!-- Generator: Adobe Illustrator 16.0.0, SVG Export Plug-In . SVG Version: 6.00 Build 0)  -->
<!DOCTYPE svg PUBLIC "-//W3C//DTD SVG 1.1//EN" "http://www.w3.org/Graphics/SVG/1.1/DTD/svg11.dtd">
<svg version="1.1" id="Layer_1" xmlns="http://www.w3.org/2000/svg" xmlns:xlink="http://www.w3.org/1999/xlink" x="0px" y="0px"
	 width="27px" height="32px" viewBox="0 0 27 32" enable-background="new 0 0 27 32" xml:space="preserve">
<title>applications</title>
<path fill="#3272A0" d="M26.518,5.354c-0.011-0.423-0.313-0.789-0.736-0.846c-1.973-0.271-3.92-0.742-5.827-1.441
	c-1.899-0.697-3.999-1.668-6.266-2.945c-0.287-0.163-0.557-0.163-0.845,0C10.591,1.4,8.505,2.369,6.592,3.067
	c-1.907,0.695-3.853,1.17-5.81,1.441C0.357,4.567,0.061,4.93,0.013,5.354c-0.187,8.035,1.573,14.61,5.264,19.722
	c2.01,2.783,4.526,5.043,7.566,6.765c0.235,0.173,0.602,0.161,0.876,0c3.016-1.75,5.528-3.993,7.535-6.765
	c3.695-5.109,5.441-11.687,5.262-19.722l0,0H26.518z M19.846,24.089c-1.746,2.409-3.934,4.417-6.58,6.03
	c-2.648-1.613-4.846-3.615-6.579-6.03C3.329,19.409,1.69,13.421,1.753,6.122c1.849-0.299,3.681-0.799,5.514-1.474
	c1.832-0.674,3.837-1.598,5.999-2.772c2.162,1.174,4.151,2.099,5.983,2.772s3.681,1.175,5.528,1.474
	c0.062,7.346-1.588,13.341-4.934,17.967l0,0H19.846z"/>
</svg>
