<?xml version="1.0" encoding="utf-8"?>
<!-- Generator: Adobe Illustrator 16.0.0, SVG Export Plug-In . SVG Version: 6.00 Build 0)  -->
<!DOCTYPE svg PUBLIC "-//W3C//DTD SVG 1.1//EN" "http://www.w3.org/Graphics/SVG/1.1/DTD/svg11.dtd">
<svg version="1.1" id="Layer_1" xmlns="http://www.w3.org/2000/svg" xmlns:xlink="http://www.w3.org/1999/xlink" x="0px" y="0px"
	 width="32px" height="32px" viewBox="0 0 32 32" enable-background="new 0 0 32 32" xml:space="preserve">
<title>application</title>
<path fill="#3272A0" d="M15.999,0C7.177,0,0,7.178,0,16c0,8.822,7.177,16,15.999,16C24.82,32,32,24.822,32,16
	C32,7.178,24.822,0,15.999,0L15.999,0z M15.999,29.9C8.334,29.9,2.098,23.665,2.098,16S8.333,2.099,15.999,2.099
	C23.666,2.099,29.9,8.335,29.9,16S23.665,29.9,15.999,29.9L15.999,29.9z M18.727,13.625c0.35,0.595,0.697,1.189,1.051,1.782
	c0.439,0.736,0.882,1.471,1.348,2.245c-0.102,0-0.173,0-0.244,0c-2.869,0.004-5.741,0.007-8.611,0.009
	c-0.273,0-0.545-0.002-0.817,0.005c-0.145,0.004-0.173-0.027-0.092-0.159c0.695-1.134,1.386-2.271,2.077-3.407
	c0.119-0.196,0.231-0.397,0.347-0.596l0,0c0.014-0.015,0.019-0.032,0.033-0.048c0.065-0.097,0.157-0.113,0.268-0.113
	c1.402,0,2.805,0.001,4.205-0.012C18.527,13.329,18.643,13.437,18.727,13.625L18.727,13.625z M14.103,11.845
	c-0.488,0.797-0.978,1.592-1.462,2.391c-1.269,2.093-2.538,4.188-3.8,6.286c-0.082,0.136-0.13,0.152-0.263,0.06
	c-0.652-0.458-1.309-0.904-1.969-1.351c-0.106-0.069-0.124-0.112-0.049-0.236c0.546-0.913,1.064-1.842,1.618-2.749
	c0.572-0.933,1.114-1.883,1.661-2.83c0.28-0.388,0.506-0.812,0.749-1.222c0.358-0.604,0.707-1.213,1.06-1.82
	c0.04-0.07,0.07-0.129,0.172-0.063c0.747,0.491,1.497,0.976,2.245,1.465c0.02,0.012,0.026,0.045,0.038,0.069V11.845z M22.023,14.086
	c0.131,0.262,0.256,0.525,0.394,0.784c0.054,0.101,0.048,0.152-0.06,0.213c-0.484,0.275-0.967,0.554-1.443,0.844
	c-0.141,0.085-0.18,0.003-0.24-0.088c-0.689-1.033-1.306-2.109-1.906-3.196c-0.123-0.225-0.252-0.449-0.377-0.674
	c0.004-0.011,0-0.018-0.011-0.022c-0.012-0.02-0.024-0.041-0.036-0.061c-0.299-0.591-0.602-1.179-0.895-1.771
	c-0.848-1.713-1.686-3.43-2.399-5.204c-0.21-0.524-0.406-1.056-0.447-1.628c-0.012-0.168-0.068-0.38,0.101-0.485
	c0.177-0.109,0.349,0.032,0.497,0.126c0.406,0.259,0.705,0.63,0.989,1.008c0.798,1.06,1.46,2.209,2.125,3.356
	c1.197,2.068,2.32,4.174,3.42,6.294C21.826,13.753,21.928,13.918,22.023,14.086z M27.198,15.635
	c-0.001,0.579-0.011,1.159,0.001,1.738c0.004,0.205-0.031,0.284-0.264,0.279c-0.789-0.014-1.578-0.006-2.367,0.004
	c-0.147,0.002-0.219-0.045-0.282-0.178c-0.613-1.276-1.235-2.547-1.853-3.82c-0.033-0.068-0.074-0.134-0.11-0.2
	c0.011-0.145,0.122-0.084,0.19-0.085c0.885-0.006,1.77-0.007,2.653-0.009c0.612-0.001,1.226-0.003,1.838-0.002
	c0.076,0,0.177-0.035,0.19,0.095c0,0.434,0.002,0.867,0.002,1.301C27.195,15.05,27.197,15.342,27.198,15.635L27.198,15.635z
	 M9.167,13.415c-0.577,0.961-1.156,1.922-1.733,2.884c-0.244,0.406-0.492,0.811-0.725,1.223c-0.072,0.127-0.156,0.168-0.298,0.166
	c-0.453-0.008-0.907-0.016-1.359,0.002c-0.195,0.008-0.229-0.063-0.229-0.235c0-1.242-0.009-2.483-0.015-3.725
	c-0.001-0.091-0.004-0.181-0.006-0.271c0.01-0.096,0.079-0.097,0.152-0.097c1.369,0.006,2.737,0.011,4.106,0.016
	c0.04-0.001,0.085-0.008,0.109,0.038H9.167z M14.223,11.446c-0.036-0.022-0.072-0.043-0.107-0.066
	c-0.698-0.462-1.395-0.927-2.097-1.385c-0.092-0.06-0.083-0.1-0.032-0.18c0.402-0.634,0.801-1.269,1.196-1.907
	c0.076-0.122,0.133-0.158,0.271-0.064c0.659,0.447,1.324,0.884,1.991,1.316c0.124,0.081,0.155,0.136,0.068,0.275
	c-0.39,0.62-0.768,1.248-1.152,1.873C14.328,11.362,14.312,11.442,14.223,11.446L14.223,11.446z M14.579,6.744
	c0.534,0.063,1.03,0.376,1.347,0.944c0.156,0.279,0.058,0.571-0.038,0.85c-0.147,0.429-0.147,0.426-0.529,0.182
	c-0.616-0.392-1.21-0.819-1.845-1.181c-0.05-0.028-0.089-0.052-0.044-0.128C13.693,7.04,14.01,6.726,14.579,6.744L14.579,6.744z
	 M25.502,24.122c-0.352,0.01-0.62-0.142-0.818-0.423c-0.377-0.536-0.672-1.116-0.927-1.717c-0.346-0.813-0.628-1.646-0.896-2.486
	c-0.047-0.145-0.018-0.209,0.109-0.28c0.354-0.196,0.704-0.397,1.047-0.61c0.131-0.082,0.203-0.08,0.308,0.047
	c0.78,0.945,1.44,1.969,2.051,3.027c0.151,0.264,0.286,0.536,0.438,0.801c0.177,0.31,0.146,0.606-0.033,0.9
	C26.488,23.863,26.059,24.104,25.502,24.122L25.502,24.122z M22.543,18.867c-0.072,0.007-0.088-0.047-0.111-0.088
	c-0.461-0.771-0.92-1.547-1.386-2.316c-0.071-0.118-0.013-0.152,0.074-0.203c0.465-0.268,0.931-0.535,1.392-0.815
	c0.129-0.079,0.17-0.044,0.227,0.075c0.348,0.71,0.701,1.417,1.053,2.125c0.173,0.348,0.173,0.347-0.167,0.557
	c-0.321,0.197-0.642,0.396-0.962,0.594C22.62,18.82,22.578,18.844,22.543,18.867z M5.299,23.789
	c0.305-1.368,0.606-2.719,0.913-4.096c0.533,0.369,1.05,0.727,1.567,1.084c0.177,0.123,0.355,0.244,0.531,0.365
	c0.077,0.055,0.12,0.1,0.015,0.186c-0.987,0.811-1.97,1.626-2.954,2.439C5.361,23.775,5.345,23.775,5.299,23.789z"/>
</svg>
