<?xml version="1.0" encoding="utf-8"?>
<!-- Generator: Adobe Illustrator 16.0.0, SVG Export Plug-In . SVG Version: 6.00 Build 0)  -->
<!DOCTYPE svg PUBLIC "-//W3C//DTD SVG 1.1//EN" "http://www.w3.org/Graphics/SVG/1.1/DTD/svg11.dtd">
<svg version="1.1" id="Layer_1" xmlns="http://www.w3.org/2000/svg" xmlns:xlink="http://www.w3.org/1999/xlink" x="0px" y="0px"
	 width="37px" height="32px" viewBox="0 0 37 32" enable-background="new 0 0 37 32" xml:space="preserve">
<title>azure-iot</title>
<path fill="#3272A0" d="M10.964,20.754v-2.688l3.307-0.482v3.169L10.964,20.754L10.964,20.754z M14.891,17.518l4.409-0.621v3.857
	h-4.409v-3.238V17.518z M19.301,21.307v3.857l-4.409-0.621v-3.238h4.409V21.307z M14.34,24.475l-3.376-0.412v-2.758h3.307v3.17
	H14.34L14.34,24.475z M27.018,12.761c0-0.069,0-0.137,0-0.275c0-3.17-2.55-5.65-5.65-5.65c-2.137,0-3.927,1.172-4.961,2.894
	c-0.276-0.069-0.482-0.069-0.758-0.069c-1.86,0-3.445,1.172-3.996,2.894c-0.069,0-0.138,0-0.276,0c-2.343,0-4.272,1.929-4.272,4.273
	c0,1.928,1.309,3.582,3.1,4.064v-1.516c-0.965-0.414-1.723-1.447-1.723-2.618c0-1.516,1.24-2.825,2.825-2.825
	c0.069,0,0.138,0,0.206,0l1.102,0.069l0.345-1.034c0.414-1.172,1.447-1.93,2.687-1.93c0.138,0,0.276,0,0.483,0.069l0.965,0.206
	l0.483-0.895c0.758-1.378,2.205-2.205,3.72-2.205c2.344,0,4.203,1.86,4.271,4.202c0,0.069,0,0.138,0,0.276L25.5,13.726l0.965,0.345
	c1.172,0.413,1.93,1.447,1.93,2.687c0,1.585-1.24,2.826-2.826,2.826h-5.58v1.445h5.58c2.343,0,4.272-1.928,4.272-4.271
	c0.067-1.86-1.172-3.445-2.825-3.996L27.018,12.761z M9.238,32.001L0,16.001L9.238,0h18.477l9.237,16.001l-9.237,16H9.238z
	 M27.432,31.508L36.384,16L27.432,0.492H9.523L0.569,16l8.954,15.508H27.432z"/>
</svg>
