<?xml version="1.0" encoding="utf-8"?>
<!-- Generator: Adobe Illustrator 16.0.0, SVG Export Plug-In . SVG Version: 6.00 Build 0)  -->
<!DOCTYPE svg PUBLIC "-//W3C//DTD SVG 1.1//EN" "http://www.w3.org/Graphics/SVG/1.1/DTD/svg11.dtd">
<svg version="1.1" id="Layer_1" xmlns="http://www.w3.org/2000/svg" xmlns:xlink="http://www.w3.org/1999/xlink" x="0px" y="0px"
	 width="32px" height="32px" viewBox="0 0 32 32" enable-background="new 0 0 32 32" xml:space="preserve">
<title>back</title>
<path fill="#3272A0" d="M17.92,7.184c0.385-0.392,1.023-0.392,1.408,0c0.384,0.392,0.384,1.045,0,1.437l-7.232,7.249l7.232,7.249
	c0.384,0.391,0.384,1.044,0,1.436c-0.191,0.196-0.448,0.262-0.705,0.262c-0.255,0-0.512-0.065-0.704-0.262l-7.935-7.967
	c-0.128-0.131-0.192-0.262-0.256-0.392c-0.128-0.392,0-0.784,0.256-1.044L17.92,7.184L17.92,7.184z M16,0c8.832,0,16,7.184,16,16
	c0,8.816-7.168,16-16,16S0,24.816,0,16C0,7.184,7.168,0,16,0z M16,29.977c7.744,0,14.016-6.27,14.016-13.977S23.744,2.025,16,2.025
	S1.984,8.294,1.984,16S8.256,29.977,16,29.977z"/>
</svg>
