<?xml version="1.0" encoding="utf-8"?>
<!-- Generator: Adobe Illustrator 16.0.0, SVG Export Plug-In . SVG Version: 6.00 Build 0)  -->
<!DOCTYPE svg PUBLIC "-//W3C//DTD SVG 1.1//EN" "http://www.w3.org/Graphics/SVG/1.1/DTD/svg11.dtd">
<svg version="1.1" id="Layer_1" xmlns="http://www.w3.org/2000/svg" xmlns:xlink="http://www.w3.org/1999/xlink" x="0px" y="0px"
	 width="50px" height="50px" viewBox="0 0 50 50" enable-background="new 0 0 50 50" xml:space="preserve">
<path fill="#3272A0" d="M25,0c13.785,0,25,11.214,25,25c0,13.785-11.215,25-25,25C11.213,50,0,38.785,0,25C0,11.214,11.213,0,25,0
	 M25,49c13.234,0,24-10.766,24-24C49,11.767,38.234,1,25,1C11.766,1,1,11.767,1,25C1,38.234,11.766,49,25,49 M25.045,40.593
	c-2.827,0-5.654-0.004-8.481,0.009c-0.266,0-0.429-0.084-0.549-0.299c-0.53-0.941-1.059-1.885-1.589-2.826
	c-0.707-1.256-1.416-2.512-2.121-3.769c-0.557-0.992-1.106-1.987-1.664-2.979c-0.679-1.207-1.365-2.41-2.045-3.615
	c-0.343-0.608-0.677-1.223-1.019-1.83c-0.118-0.21-0.093-0.384,0.032-0.596c0.474-0.806,0.922-1.626,1.382-2.439
	c0.703-1.246,1.407-2.49,2.11-3.736c0.525-0.932,1.046-1.865,1.571-2.798c0.597-1.06,1.2-2.115,1.794-3.175
	c0.468-0.836,0.927-1.676,1.392-2.513c0.071-0.129,0.16-0.248,0.214-0.383c0.083-0.205,0.23-0.243,0.434-0.241
	c1.179,0.007,2.357,0.003,3.536,0.003c4.452,0,8.903,0.003,13.354-0.007c0.332-0.001,0.502,0.107,0.66,0.4
	c0.674,1.236,1.381,2.452,2.07,3.68c0.559,0.991,1.107,1.986,1.666,2.979c0.795,1.413,1.598,2.821,2.389,4.236
	c0.588,1.052,1.164,2.11,1.748,3.165c0.125,0.227,0.233,0.468,0.391,0.67c0.246,0.314,0.224,0.594,0.029,0.929
	c-0.884,1.529-1.754,3.068-2.619,4.609c-0.68,1.207-1.338,2.427-2.016,3.634c-0.898,1.602-1.809,3.194-2.71,4.794
	c-0.344,0.607-0.687,1.217-1.014,1.833c-0.101,0.188-0.194,0.274-0.433,0.274C30.723,40.589,27.883,40.593,25.045,40.593z
	 M16.225,24.981c0,2.197-0.006,4.395,0.006,6.592c0.001,0.334,0.045,0.678,0.131,1.001c0.355,1.348,1.378,1.814,2.535,1.822
	c4.074,0.027,8.147,0.019,12.221,0c0.396,0,0.815-0.082,1.183-0.231c1.047-0.431,1.475-1.312,1.479-2.38
	c0.021-4.04,0.007-8.079,0.015-12.119c0-0.239-0.079-0.4-0.244-0.563c-1.067-1.052-2.131-2.109-3.185-3.176
	c-0.174-0.177-0.344-0.251-0.594-0.251c-3.72,0.008-7.438,0.013-11.157,0c-0.979-0.003-1.869,0.648-2.169,1.525
	c-0.132,0.388-0.207,0.813-0.21,1.223C16.214,20.609,16.225,22.796,16.225,24.981z M29.619,16.905c0,1.027,0,2.021,0,3.062
	c0.984,0,1.949,0,2.957,0c0,0.182,0,0.315,0,0.448c0,3.811-0.004,7.621,0.004,11.433c0.002,0.728-0.491,1.289-1.28,1.284
	c-4.153-0.024-8.307-0.026-12.461-0.001c-0.992,0.008-1.399-0.482-1.401-1.433c-0.004-1.683-0.001-3.365-0.001-5.048
	c0-2.792-0.002-5.583,0.003-8.376c0-0.397,0.045-0.812,0.41-1.055c0.232-0.154,0.518-0.321,0.78-0.322
	c3.593-0.021,7.187-0.015,10.779-0.014C29.465,16.884,29.52,16.895,29.619,16.905z M25.267,21.433
	c0.034,0.314,0.079,0.628,0.099,0.942c0.061,0.959,0.489,1.478,1.437,1.649c0.877,0.16,1.568-0.288,1.819-1.046
	c0.332-1.002,0.323-2.025,0.079-3.047c-0.223-0.934-1.061-1.448-1.98-1.22c-0.479,0.118-0.843,0.387-1.068,0.844
	C25.36,20.151,25.277,20.779,25.267,21.433z M24.717,28.708c0-0.376,0.025-0.653-0.008-0.924c-0.032-0.275-0.09-0.558-0.192-0.813
	c-0.264-0.662-0.693-1.063-1.832-0.994c-0.523,0.031-1.085,0.487-1.294,1.104c-0.295,0.867-0.259,1.756-0.145,2.648
	c0.131,1.025,0.566,1.476,1.569,1.606c0.582,0.077,1.279-0.295,1.547-0.819C24.667,29.913,24.758,29.271,24.717,28.708z
	 M25.7,31.236c0.956,0,1.848-0.004,2.739,0.003c0.287,0.002,0.256-0.188,0.261-0.373c0.004-0.198,0.001-0.373-0.277-0.357
	c-0.213,0.013-0.428,0.002-0.679,0.002c0-0.176,0-0.31,0-0.442c0-1.226-0.012-2.448,0.009-3.672c0.005-0.332-0.157-0.42-0.42-0.422
	c-0.142-0.002-0.3,0.025-0.42,0.096c-0.341,0.195-0.669,0.416-0.997,0.634c-0.307,0.204-0.355,0.401-0.195,0.804
	c0.325-0.171,0.646-0.342,0.98-0.518c0,1.193,0,2.344,0,3.52c-0.33,0-0.637,0-1.001,0C25.7,30.762,25.7,30.989,25.7,31.236z
	 M23.632,23.227c0-0.179,0-0.313,0-0.447c0-1.2,0.001-2.4-0.001-3.6c-0.001-0.396-0.233-0.587-0.605-0.429
	c-0.408,0.173-0.788,0.413-1.169,0.644c-0.387,0.232-0.416,0.345-0.266,0.835c0.334-0.171,0.662-0.34,0.987-0.507
	c0,1.188,0,2.336,0,3.504c-0.248,0-0.465,0.015-0.681-0.003c-0.286-0.022-0.386,0.111-0.383,0.379
	c0.003,0.251,0.095,0.363,0.367,0.358c0.777-0.016,1.555-0.016,2.331,0c0.284,0.006,0.374-0.084,0.377-0.371
	c0.003-0.296-0.105-0.389-0.382-0.365C24.04,23.239,23.868,23.227,23.632,23.227z M27.768,20.034c-0.069-0.39-0.33-0.624-0.69-0.602
	c-0.319,0.021-0.585,0.176-0.658,0.525c-0.055,0.263-0.073,0.531-0.13,0.793c-0.148,0.703-0.048,1.395,0.13,2.07
	c0.106,0.41,0.31,0.502,0.746,0.478c0.367-0.021,0.539-0.265,0.601-0.58c0.084-0.44,0.131-0.889,0.193-1.344
	C27.896,20.924,27.848,20.477,27.768,20.034z M22.086,28.615c0.03,0.383,0.04,0.769,0.098,1.146
	c0.081,0.528,0.232,0.769,0.652,0.814c0.472,0.05,0.724-0.14,0.809-0.696c0.09-0.588,0.131-1.189,0.131-1.785
	c0-0.326-0.116-0.654-0.201-0.978c-0.081-0.313-0.333-0.415-0.625-0.408c-0.287,0.006-0.555,0.108-0.629,0.411
	c-0.118,0.486-0.193,0.984-0.287,1.479C22.051,28.604,22.068,28.609,22.086,28.615z"/>
</svg>
