<?xml version="1.0" encoding="utf-8"?>
<!-- Generator: Adobe Illustrator 16.0.0, SVG Export Plug-In . SVG Version: 6.00 Build 0)  -->
<!DOCTYPE svg PUBLIC "-//W3C//DTD SVG 1.1//EN" "http://www.w3.org/Graphics/SVG/1.1/DTD/svg11.dtd">
<svg version="1.1" id="Layer_1" xmlns="http://www.w3.org/2000/svg" xmlns:xlink="http://www.w3.org/1999/xlink" x="0px" y="0px"
	 width="32px" height="32px" viewBox="0 0 32 32" enable-background="new 0 0 32 32" xml:space="preserve">
<title>bottom</title>
<path fill="#64953B" d="M16,0C7.176,0,0,7.177,0,16s7.176,16,16,16c8.822,0,16-7.178,16-16C32,7.178,24.822,0,16,0z M16,31.359
	C7.53,31.359,0.64,24.471,0.64,16C0.64,7.53,7.53,0.64,16,0.64c8.471,0,15.359,6.89,15.359,15.36
	C31.359,24.471,24.471,31.359,16,31.359z M17.844,5.402c0.336,0,0.609,0.373,0.609,0.829v9.124h4.257
	c0.336,0,0.431,0.284,0.212,0.63l-6.508,10.351c-0.217,0.348-0.574,0.35-0.792,0.001L9.077,15.982
	c-0.219-0.346-0.123-0.628,0.212-0.628h4.297V6.23c0-0.456,0.273-0.829,0.609-0.829L17.844,5.402L17.844,5.402z"/>
</svg>
