<?xml version="1.0" encoding="utf-8"?>
<!-- Generator: Adobe Illustrator 16.0.0, SVG Export Plug-In . SVG Version: 6.00 Build 0)  -->
<!DOCTYPE svg PUBLIC "-//W3C//DTD SVG 1.1//EN" "http://www.w3.org/Graphics/SVG/1.1/DTD/svg11.dtd">
<svg version="1.1" id="Layer_1" xmlns="http://www.w3.org/2000/svg" xmlns:xlink="http://www.w3.org/1999/xlink" x="0px" y="0px"
	 width="31px" height="32px" viewBox="0 0 31 32" enable-background="new 0 0 31 32" xml:space="preserve">
<title>buddy</title>
<path fill="#3272A0" d="M15.813,22.109c-4.886,0-8.863-3.977-8.863-8.862V8.911c0-4.887,3.977-8.865,8.863-8.865
	c4.889,0,8.865,3.977,8.865,8.865v4.335C24.678,18.133,20.702,22.109,15.813,22.109L15.813,22.109z M15.813,1.451
	c-4.112,0-7.458,3.346-7.458,7.46v4.335c0,4.113,3.346,7.46,7.459,7.46c4.114,0,7.459-3.349,7.459-7.46V8.911
	C23.273,4.797,19.928,1.451,15.813,1.451L15.813,1.451L15.813,1.451z"/>
<path fill="#3272A0" d="M27.673,31.954H3.827c-2.076,0-3.763-1.687-3.763-3.763v-3.305c0-1.229,0.619-2.876,3.566-3.734l3.568-0.987
	c0.375-0.103,0.761,0.117,0.864,0.489c0.103,0.375-0.117,0.762-0.489,0.865l-3.56,0.983c-2.544,0.742-2.544,1.976-2.544,2.384v3.305
	c0,1.3,1.058,2.357,2.358,2.357h23.847c1.301,0,2.359-1.058,2.359-2.357v-3.305c0-1.097-0.859-1.898-2.553-2.386l-3.395-0.949
	c-0.373-0.104-0.59-0.491-0.486-0.864c0.104-0.373,0.491-0.592,0.865-0.486l3.4,0.949c2.955,0.85,3.572,2.502,3.572,3.738v3.303
	C31.438,30.268,29.75,31.955,27.673,31.954L27.673,31.954L27.673,31.954z"/>
</svg>
