<?xml version="1.0" encoding="utf-8"?>
<!-- Generator: Adobe Illustrator 16.0.0, SVG Export Plug-In . SVG Version: 6.00 Build 0)  -->
<!DOCTYPE svg PUBLIC "-//W3C//DTD SVG 1.1//EN" "http://www.w3.org/Graphics/SVG/1.1/DTD/svg11.dtd">
<svg version="1.1" id="Layer_1" xmlns="http://www.w3.org/2000/svg" xmlns:xlink="http://www.w3.org/1999/xlink" x="0px" y="0px"
	 width="32px" height="32px" viewBox="0 0 32 32" enable-background="new 0 0 32 32" xml:space="preserve">
<title>building</title>
<path fill="#3272A0" d="M18.659,24.563c-1.813,0-3.577,0-5.373,0c0,2.481,0,4.946,0,7.437c-2.149,0-4.265,0-6.413,0
	c-0.006-0.115-0.015-0.226-0.015-0.335c-0.001-7.352,0-14.705-0.007-22.057c0-0.268,0.099-0.408,0.314-0.549
	C8.483,8.191,9.79,7.31,11.1,6.431c1.56-1.046,3.119-2.095,4.686-3.132c0.084-0.056,0.269-0.056,0.354,0
	c1.42,0.938,2.831,1.891,4.247,2.838c1.465,0.982,2.93,1.964,4.403,2.936c0.194,0.129,0.282,0.262,0.282,0.504
	c-0.006,7.373-0.006,14.747-0.006,22.12c0,0.093,0,0.186,0,0.304c-2.141,0-4.256,0-6.407,0C18.66,29.532,18.66,27.07,18.659,24.563
	L18.659,24.563z M17.587,15.498c-0.056-0.029-0.073-0.047-0.093-0.048c-0.982-0.005-1.964-0.007-2.947-0.015
	c-0.209-0.002-0.198,0.135-0.197,0.275c0,0.888,0.006,1.776-0.004,2.665c-0.002,0.217,0.064,0.29,0.285,0.287
	c0.888-0.012,1.776-0.014,2.664,0.001c0.246,0.004,0.301-0.086,0.294-0.31c-0.013-0.564-0.004-1.129-0.004-1.693
	C17.586,16.266,17.586,15.872,17.587,15.498L17.587,15.498z M20.762,15.436c-0.449,0-0.898,0.006-1.347-0.003
	c-0.185-0.003-0.259,0.054-0.258,0.25c0.008,0.908,0.007,1.816,0.001,2.724c-0.001,0.188,0.061,0.255,0.253,0.254
	c0.907-0.009,1.815-0.009,2.726-0.001c0.186,0.001,0.26-0.057,0.26-0.25c-0.006-0.908-0.008-1.816,0-2.724
	c0.002-0.193-0.068-0.256-0.256-0.253C21.682,15.443,21.221,15.437,20.762,15.436L20.762,15.436z M17.559,23.473
	c0-1.1,0-2.154,0-3.229c-1.021,0-2.013,0.003-3.002-0.001c-0.203-0.001-0.206,0.124-0.205,0.269
	c0.002,0.888,0.008,1.775-0.003,2.662c-0.003,0.231,0.069,0.31,0.304,0.306c0.772-0.014,1.544-0.006,2.317-0.006
	C17.163,23.473,17.357,23.473,17.559,23.473z M19.161,20.242c0,1.043,0.004,2.023-0.003,3.006c-0.001,0.22,0.125,0.227,0.283,0.225
	c0.889-0.002,1.777-0.007,2.666,0.004c0.218,0.004,0.291-0.066,0.289-0.287c-0.008-0.888-0.008-1.776,0-2.664
	c0.004-0.221-0.071-0.293-0.289-0.287c-0.553,0.012-1.107,0.004-1.662,0.004C20.032,20.241,19.617,20.241,19.161,20.242
	L19.161,20.242z M17.587,13.822c0-1.012-0.006-1.985,0.004-2.956c0.002-0.228-0.11-0.252-0.291-0.251
	c-0.878,0.004-1.756,0.01-2.634-0.003c-0.25-0.003-0.323,0.083-0.319,0.326c0.012,0.867,0.004,1.735,0.006,2.603
	c0,0.092,0.013,0.182,0.021,0.282c1.076,0,2.127,0,3.213,0V13.822z M22.34,13.822c0.018-0.029,0.037-0.047,0.037-0.065
	c0.006-0.982,0.016-1.964,0.003-2.945c-0.001-0.066-0.155-0.185-0.239-0.186c-0.908-0.013-1.817-0.003-2.726-0.012
	c-0.218-0.002-0.263,0.093-0.257,0.284c0.01,0.387,0.003,0.773,0.003,1.16c0,0.582,0,1.164,0,1.764
	c1.085,0.001,2.136,0.001,3.18,0.001L22.34,13.822z M12.761,15.501c-0.056-0.031-0.074-0.049-0.093-0.049
	c-0.981-0.006-1.963-0.014-2.945-0.002c-0.063,0.001-0.179,0.158-0.179,0.243c-0.013,0.898-0.004,1.797-0.012,2.696
	c-0.001,0.2,0.063,0.275,0.272,0.273c0.898-0.01,1.797-0.01,2.696,0c0.211,0.003,0.268-0.078,0.264-0.276
	c-0.01-0.596-0.003-1.19-0.003-1.786C12.762,16.226,12.762,15.853,12.761,15.501L12.761,15.501z M12.76,23.441
	c0-1.024-0.002-2.016,0.002-3.006c0.001-0.185-0.107-0.194-0.246-0.194c-0.908,0.002-1.816,0.006-2.724-0.003
	c-0.218-0.002-0.26,0.097-0.259,0.285c0.006,0.888,0.008,1.775-0.001,2.662c-0.002,0.217,0.067,0.293,0.287,0.291
	c0.898-0.011,1.796-0.004,2.693-0.004c0.071,0,0.142-0.018,0.249-0.031H12.76z M12.724,13.822c0.014-0.045,0.033-0.074,0.033-0.102
	c0.003-0.962,0-1.924,0.007-2.886c0.001-0.226-0.14-0.216-0.291-0.216c-0.879,0.001-1.757,0.006-2.636-0.004
	c-0.233-0.003-0.308,0.077-0.306,0.308c0.01,0.879,0.003,1.757,0.006,2.636c0,0.088,0.019,0.177,0.03,0.265c1.074,0,2.115,0,3.157,0
	V13.822z M3.41,8.383C3.4,8.36,3.391,8.336,3.382,8.313c0.446-0.303,0.89-0.608,1.339-0.908c1.885-1.256,3.772-2.511,5.657-3.766
	c1.764-1.174,3.532-2.343,5.285-3.533c0.254-0.173,0.417-0.113,0.629,0.029c1.83,1.226,3.662,2.448,5.496,3.668
	c1.808,1.203,3.616,2.402,5.425,3.604c0.451,0.3,0.895,0.607,1.406,0.953c-0.166,0.01-0.264,0.022-0.361,0.022
	c-0.762,0.001-1.525,0.01-2.289-0.006c-0.175-0.004-0.371-0.058-0.516-0.154c-2.696-1.791-5.385-3.59-8.075-5.389
	c-0.295-0.197-0.585-0.401-0.879-0.601C16.139,1.988,15.781,2,15.423,2.24c-1.64,1.099-3.279,2.196-4.918,3.293
	c-1.379,0.924-2.757,1.849-4.137,2.77c-0.065,0.044-0.152,0.076-0.23,0.076C5.229,8.383,4.32,8.382,3.412,8.382L3.41,8.383z"/>
</svg>
