<?xml version="1.0" encoding="utf-8"?>
<!-- Generator: Adobe Illustrator 16.0.0, SVG Export Plug-In . SVG Version: 6.00 Build 0)  -->
<!DOCTYPE svg PUBLIC "-//W3C//DTD SVG 1.1//EN" "http://www.w3.org/Graphics/SVG/1.1/DTD/svg11.dtd">
<svg version="1.1" id="Layer_1" xmlns="http://www.w3.org/2000/svg" xmlns:xlink="http://www.w3.org/1999/xlink" x="0px" y="0px"
	 width="32px" height="32px" viewBox="0 0 32 32" enable-background="new 0 0 32 32" xml:space="preserve">
<title>car</title>
<path fill="#3272A0" d="M9.395,19.414c4.582,0,9.11,0,13.632,0.001c0.16-2.164,1.068-3.261,2.686-3.353
	c1.504-0.085,3.068,0.917,3.111,3.411c0.486,0,0.975,0.016,1.463-0.005c0.928-0.038,1.456-0.5,1.635-1.399
	c0.289-1.451-0.22-2.353-1.805-2.797c-1.653-0.464-3.352-0.766-5.028-1.149c-0.813-0.186-1.766-0.184-2.403-0.628
	c-2.529-1.761-5.231-2.798-8.354-2.685c-2.729,0.099-5.477-0.052-8.061,1.123c-1.506,0.685-3.005,1.463-4.762,1.15
	c-0.104-0.019-0.218,0.013-0.326,0.031c-0.577,0.097-0.866,0.34-0.717,1.012c0.082,0.369-0.045,0.795-0.127,1.185
	c-0.094,0.452-0.386,0.911-0.333,1.334c0.081,0.643,0.202,1.483,0.636,1.834c0.826,0.666,1.949,0.523,2.973,0.523
	c0.263-1.947,1.35-2.986,2.991-2.94C8.281,16.109,9.261,17.268,9.395,19.414z M4.204,18.867c-0.005-1.247,1.031-2.276,2.294-2.278
	c1.274-0.001,2.286,1.002,2.294,2.272c0.007,1.25-1.025,2.324-2.25,2.339C5.254,21.216,4.21,20.173,4.204,18.867L4.204,18.867z
	 M23.593,18.783c0.042-1.249,1.101-2.227,2.374-2.192c1.268,0.035,2.248,1.073,2.217,2.347c-0.029,1.244-1.097,2.283-2.326,2.262
	C24.6,21.178,23.551,20.059,23.593,18.783L23.593,18.783z"/>
</svg>
