<?xml version="1.0" encoding="utf-8"?>
<!-- Generator: Adobe Illustrator 16.0.0, SVG Export Plug-In . SVG Version: 6.00 Build 0)  -->
<!DOCTYPE svg PUBLIC "-//W3C//DTD SVG 1.1//EN" "http://www.w3.org/Graphics/SVG/1.1/DTD/svg11.dtd">
<svg version="1.1" id="Layer_1" xmlns="http://www.w3.org/2000/svg" xmlns:xlink="http://www.w3.org/1999/xlink" x="0px" y="0px"
	 width="32px" height="32px" viewBox="0 0 32 32" enable-background="new 0 0 32 32" xml:space="preserve">
<title>cassandra-deployment</title>
<path fill="#3272A0" d="M16,0c8.822,0,16,7.177,16,16s-7.178,16-16,16C7.176,32,0,24.822,0,16C0,7.178,7.176,0,16,0z M16,31.359
	c8.471,0,15.359-6.889,15.359-15.359c0-8.47-6.889-15.36-15.359-15.36C7.53,0.64,0.64,7.53,0.64,16
	C0.64,24.471,7.53,31.359,16,31.359z M26.961,15.466c-0.232-0.209-5.752-5.12-10.961-5.12s-10.729,4.911-10.961,5.12
	C4.887,15.602,4.8,15.798,4.8,16c0,0.204,0.086,0.399,0.239,0.535c0.232,0.209,5.752,5.119,10.961,5.119s10.729-4.91,10.961-5.119
	C27.113,16.399,27.2,16.204,27.2,16C27.2,15.797,27.113,15.602,26.961,15.466L26.961,15.466z M16,20.07
	c-2.244,0-4.07-1.826-4.07-4.07s1.827-4.07,4.07-4.07c2.244,0,4.07,1.826,4.07,4.07S18.244,20.07,16,20.07L16,20.07z M11.391,12.988
	c-0.568,0.867-0.902,1.9-0.902,3.012c0,1.109,0.333,2.143,0.9,3.009c-2.061-0.97-3.84-2.282-4.748-3.01
	C7.548,15.273,9.328,13.957,11.391,12.988L11.391,12.988L11.391,12.988z M20.607,19.012c0.568-0.867,0.901-1.9,0.901-3.012
	c0-1.11-0.333-2.143-0.899-3.011c2.06,0.97,3.841,2.284,4.748,3.011C24.45,16.727,22.67,18.042,20.607,19.012L20.607,19.012z
	 M16,13.684c-1.28,0-2.317,1.037-2.317,2.316c0,1.279,1.037,2.316,2.317,2.316c1.279,0,2.316-1.037,2.316-2.316
	C18.316,14.72,17.279,13.684,16,13.684L16,13.684z M16,15.149c-0.469,0-0.851,0.381-0.851,0.851c0,0.199-0.161,0.36-0.36,0.36
	c-0.199,0-0.36-0.161-0.36-0.36c0-0.866,0.705-1.571,1.571-1.571c0.199,0,0.36,0.161,0.36,0.36
	C16.36,14.988,16.199,15.149,16,15.149L16,15.149z"/>
</svg>
