<?xml version="1.0" encoding="utf-8"?>
<!-- Generator: Adobe Illustrator 16.0.0, SVG Export Plug-In . SVG Version: 6.00 Build 0)  -->
<!DOCTYPE svg PUBLIC "-//W3C//DTD SVG 1.1//EN" "http://www.w3.org/Graphics/SVG/1.1/DTD/svg11.dtd">
<svg version="1.1" id="Layer_1" xmlns="http://www.w3.org/2000/svg" xmlns:xlink="http://www.w3.org/1999/xlink" x="0px" y="0px"
	 width="29px" height="32px" viewBox="0 0 29 32" enable-background="new 0 0 29 32" xml:space="preserve">
<title>cassandra-worker-deployment</title>
<path fill="#3272A0" d="M28.57,14.286C28.57,6.408,22.162,0,14.285,0C6.407,0-0.001,6.408-0.001,14.286
	c0,6.239,4.021,11.553,9.607,13.495C9.848,30.15,11.85,32,14.284,32c2.434,0,4.437-1.85,4.679-4.219
	C24.548,25.839,28.57,20.525,28.57,14.286L28.57,14.286z M18.982,27.171c-0.066-2.539-2.142-4.578-4.696-4.578
	c-2.555,0-4.63,2.038-4.697,4.578c-5.256-1.922-9.018-6.972-9.018-12.886c0-7.562,6.152-13.714,13.714-13.714
	c7.563,0,13.714,6.152,13.714,13.714C27.999,20.199,24.236,25.249,18.982,27.171L18.982,27.171z M12.822,29.621l-1.041-4.102h0.56
	l0.487,2.074c0.122,0.512,0.231,1.022,0.305,1.418h0.012c0.067-0.406,0.195-0.894,0.335-1.424l0.547-2.068h0.554l0.499,2.082
	c0.115,0.486,0.225,0.974,0.286,1.405h0.012c0.085-0.45,0.201-0.907,0.328-1.418l0.542-2.069h0.541l-1.162,4.103h-0.554
	l-0.517-2.136c-0.128-0.523-0.213-0.926-0.268-1.34h-0.012c-0.073,0.408-0.165,0.81-0.317,1.34l-0.584,2.136L12.822,29.621
	L12.822,29.621z M24.073,12.985c-0.207-0.187-5.136-4.572-9.787-4.572c-4.65,0-9.579,4.385-9.787,4.572
	c-0.136,0.122-0.213,0.295-0.213,0.478s0.077,0.355,0.213,0.477c0.208,0.187,5.137,4.571,9.787,4.571
	c4.651,0,9.58-4.385,9.787-4.571c0.135-0.122,0.213-0.296,0.213-0.477C24.286,13.281,24.209,13.107,24.073,12.985L24.073,12.985
	L24.073,12.985z M14.285,17.098c-2.003,0-3.634-1.631-3.634-3.635s1.631-3.634,3.634-3.634c2.005,0,3.635,1.63,3.635,3.634
	S16.289,17.098,14.285,17.098L14.285,17.098z M10.171,10.773c-0.507,0.774-0.806,1.696-0.806,2.69c0,0.991,0.297,1.913,0.804,2.686
	c-1.84-0.866-3.429-2.039-4.239-2.687C6.74,12.813,8.329,11.639,10.171,10.773L10.171,10.773z M18.4,16.151
	c0.507-0.774,0.805-1.696,0.805-2.689c0-0.991-0.298-1.914-0.805-2.688c1.841,0.866,3.43,2.039,4.24,2.688
	c-0.811,0.649-2.399,1.823-4.242,2.689l0,0H18.4z M14.285,11.394c-1.143,0-2.069,0.926-2.069,2.069s0.926,2.068,2.069,2.068
	c1.143,0,2.068-0.925,2.068-2.068S15.43,11.394,14.285,11.394L14.285,11.394z M14.285,12.703c-0.419,0-0.76,0.341-0.76,0.76
	c0,0.178-0.144,0.321-0.321,0.321c-0.179,0-0.322-0.143-0.322-0.321c0-0.774,0.629-1.403,1.402-1.403
	c0.178,0,0.322,0.143,0.322,0.322C14.607,12.559,14.463,12.703,14.285,12.703L14.285,12.703z"/>
</svg>
