<?xml version="1.0" encoding="utf-8"?>
<!-- Generator: Adobe Illustrator 16.0.0, SVG Export Plug-In . SVG Version: 6.00 Build 0)  -->
<!DOCTYPE svg PUBLIC "-//W3C//DTD SVG 1.1//EN" "http://www.w3.org/Graphics/SVG/1.1/DTD/svg11.dtd">
<svg version="1.1" id="Layer_1" xmlns="http://www.w3.org/2000/svg" xmlns:xlink="http://www.w3.org/1999/xlink" x="0px" y="0px"
	 width="29px" height="32px" viewBox="0 0 29 32" enable-background="new 0 0 29 32" xml:space="preserve">
<title>cassandra-master-deployment</title>
<path fill="#3272A0" d="M28.57,14.286C28.57,6.408,22.162,0,14.285,0C6.407,0-0.001,6.408-0.001,14.286
	c0,6.239,4.021,11.553,9.607,13.495C9.848,30.15,11.85,32,14.284,32c2.434,0,4.437-1.85,4.679-4.219
	C24.548,25.839,28.57,20.525,28.57,14.286L28.57,14.286z M18.982,27.171c-0.066-2.539-2.142-4.578-4.696-4.578
	c-2.555,0-4.63,2.038-4.697,4.578c-5.256-1.922-9.018-6.972-9.018-12.886c0-7.562,6.152-13.714,13.714-13.714
	c7.563,0,13.714,6.152,13.714,13.714C27.999,20.199,24.236,25.249,18.982,27.171L18.982,27.171z M24.073,13.154
	c-0.207-0.187-5.136-4.572-9.787-4.572s-9.579,4.385-9.787,4.572c-0.136,0.122-0.213,0.295-0.213,0.478
	c0,0.183,0.077,0.355,0.213,0.477c0.207,0.187,5.136,4.571,9.787,4.571s9.579-4.385,9.787-4.571
	c0.136-0.122,0.213-0.296,0.213-0.477C24.286,13.45,24.209,13.276,24.073,13.154L24.073,13.154z M14.286,17.268
	c-2.004,0-3.634-1.632-3.634-3.636s1.63-3.634,3.634-3.634s3.635,1.63,3.635,3.634S16.29,17.268,14.286,17.268L14.286,17.268z
	 M10.171,10.942c-0.507,0.774-0.806,1.697-0.806,2.69c0,0.991,0.297,1.913,0.804,2.687c-1.84-0.866-3.429-2.039-4.239-2.687
	C6.74,12.983,8.329,11.809,10.171,10.942L10.171,10.942L10.171,10.942z M18.4,16.321c0.507-0.774,0.805-1.696,0.805-2.689
	c0-0.991-0.297-1.914-0.805-2.688c1.842,0.866,3.43,2.04,4.24,2.688C21.83,14.281,20.241,15.454,18.4,16.321L18.4,16.321z
	 M14.286,11.563c-1.143,0-2.069,0.926-2.069,2.069c0,1.143,0.926,2.067,2.069,2.067c1.144,0,2.067-0.925,2.067-2.067
	C16.354,12.49,15.428,11.563,14.286,11.563L14.286,11.563z M14.286,12.872c-0.419,0-0.76,0.341-0.76,0.76
	c0,0.178-0.144,0.321-0.321,0.321c-0.178,0-0.322-0.143-0.322-0.321c0-0.773,0.629-1.402,1.402-1.402
	c0.177,0,0.322,0.143,0.322,0.321C14.607,12.729,14.463,12.872,14.286,12.872L14.286,12.872z M11.74,26.598
	c0-0.369-0.008-0.674-0.03-0.971h0.57l0.03,0.578h0.022c0.201-0.341,0.534-0.659,1.127-0.659c0.489,0,0.86,0.297,1.015,0.72h0.014
	c0.111-0.201,0.252-0.355,0.399-0.467c0.214-0.163,0.452-0.252,0.794-0.252c0.473,0,1.178,0.311,1.178,1.557v2.111h-0.637v-2.029
	c0-0.69-0.252-1.105-0.779-1.105c-0.369,0-0.658,0.273-0.77,0.594c-0.03,0.088-0.052,0.206-0.052,0.326v2.215h-0.637v-2.15
	c0-0.569-0.252-0.985-0.749-0.985c-0.408,0-0.704,0.325-0.808,0.653c-0.037,0.096-0.052,0.207-0.052,0.317v2.164h-0.637v-2.616
	H11.74z"/>
</svg>
