<?xml version="1.0" encoding="utf-8"?>
<!-- Generator: Adobe Illustrator 16.0.0, SVG Export Plug-In . SVG Version: 6.00 Build 0)  -->
<!DOCTYPE svg PUBLIC "-//W3C//DTD SVG 1.1//EN" "http://www.w3.org/Graphics/SVG/1.1/DTD/svg11.dtd">
<svg version="1.1" id="Layer_1" xmlns="http://www.w3.org/2000/svg" xmlns:xlink="http://www.w3.org/1999/xlink" x="0px" y="0px"
	 width="32px" height="32px" viewBox="0 0 32 32" enable-background="new 0 0 32 32" xml:space="preserve">
<title>caution</title>
<path fill="#3272A0" d="M0,27.852c0.083-0.541,0.388-0.983,0.653-1.443c4.504-7.803,9.009-15.603,13.51-23.407
	c0.374-0.648,0.909-1.037,1.66-1.116c0.026-0.003,0.051-0.015,0.077-0.022c0.065,0,0.13,0,0.195,0
	c0.138,0.026,0.28,0.045,0.414,0.081c0.57,0.154,0.991,0.498,1.284,1.009c0.762,1.324,1.527,2.646,2.291,3.969
	c3.833,6.638,7.664,13.276,11.502,19.91c0.234,0.404,0.417,0.809,0.413,1.284c-0.011,0.995-0.78,1.864-1.771,1.991
	c-0.043,0.006-0.084,0.02-0.125,0.028c-9.404,0-18.808,0-28.21,0c-0.036-0.01-0.072-0.024-0.108-0.028
	c-0.819-0.105-1.498-0.693-1.712-1.485c-0.029-0.104-0.05-0.21-0.074-0.313C-0.001,28.156-0.001,28.003,0,27.852L0,27.852z
	 M15.999,28.948c4.587,0,9.174,0,13.761-0.001c0.098,0,0.195-0.002,0.292-0.014c0.365-0.037,0.655-0.301,0.743-0.658
	c0.072-0.295-0.045-0.536-0.189-0.782c-3.693-6.39-7.385-12.783-11.078-19.174c-0.912-1.581-1.826-3.162-2.738-4.744
	c-0.124-0.216-0.28-0.387-0.52-0.467C15.841,2.963,15.45,3.143,15.185,3.6c-4.454,7.715-8.908,15.429-13.362,23.146
	c-0.179,0.311-0.366,0.617-0.536,0.934c-0.266,0.497-0.009,1.096,0.529,1.233c0.129,0.032,0.269,0.035,0.404,0.035
	c4.593,0.001,9.185,0.001,13.777,0.001L15.999,28.948z"/>
<path fill="#3272A0" d="M16.639,21.9c-0.595,0-1.164,0-1.761,0c-0.107-3.658-0.213-7.31-0.32-10.974c0.799,0,1.584,0,2.399,0
	C16.852,14.582,16.745,18.232,16.639,21.9z"/>
<path fill="#3272A0" d="M14.324,24.975c0.005-1.266,1.205-1.801,2.118-1.336c0.582,0.297,0.785,0.824,0.755,1.441
	c-0.028,0.6-0.29,1.077-0.872,1.3c-0.559,0.216-1.094,0.142-1.548-0.276C14.449,25.805,14.323,25.412,14.324,24.975L14.324,24.975z"
	/>
</svg>
