<?xml version="1.0" encoding="utf-8"?>
<!-- Generator: Adobe Illustrator 16.0.0, SVG Export Plug-In . SVG Version: 6.00 Build 0)  -->
<!DOCTYPE svg PUBLIC "-//W3C//DTD SVG 1.1//EN" "http://www.w3.org/Graphics/SVG/1.1/DTD/svg11.dtd">
<svg version="1.1" id="Layer_1" xmlns="http://www.w3.org/2000/svg" xmlns:xlink="http://www.w3.org/1999/xlink" x="0px" y="0px"
	 width="32px" height="32px" viewBox="0 0 32 32" enable-background="new 0 0 32 32" xml:space="preserve">
<title>chef-deployment</title>
<path fill="#3272A0" d="M16,0c8.822,0,16,7.177,16,16s-7.178,16-16,16C7.176,32,0,24.822,0,16C0,7.178,7.176,0,16,0z M16,31.359
	c8.471,0,15.359-6.889,15.359-15.359c0-8.47-6.889-15.36-15.359-15.36C7.53,0.64,0.64,7.53,0.64,16
	C0.64,24.471,7.53,31.359,16,31.359z M16.413,28.866c0.059-0.017,0.116-0.04,0.177-0.048c0.553-0.06,1.113-0.084,1.661-0.178
	c2.632-0.453,4.906-1.625,6.804-3.5c2.049-2.026,3.283-4.475,3.701-7.33c0.02-0.142-0.013-0.172-0.143-0.17
	c-0.508,0.004-1.014,0.002-1.521,0.002c-0.447,0-0.449-0.002-0.542,0.441c-0.515,2.468-1.729,4.523-3.663,6.143
	c-1.826,1.527-3.945,2.336-6.32,2.469c-0.812,0.047-1.62-0.014-2.421-0.16c-1.86-0.34-3.512-1.121-4.961-2.331
	c-0.234-0.195-0.456-0.402-0.659-0.58c-0.503,0.503-0.997,0.998-1.519,1.521c0.048,0.039,0.121,0.088,0.184,0.146
	c1.009,0.954,2.134,1.736,3.392,2.326c1.556,0.729,3.19,1.143,4.911,1.203c0.066,0.003,0.131,0.029,0.195,0.046
	c0.243,0,0.485,0,0.728,0H16.413z M15.791,3.135c-0.058,0.015-0.116,0.041-0.175,0.045c-0.339,0.027-0.678,0.04-1.015,0.073
	c-1.084,0.106-2.133,0.36-3.143,0.761C8.04,5.371,5.615,7.75,4.17,11.13c-0.026,0.061-0.043,0.125-0.067,0.197
	c0.667,0.259,1.315,0.511,1.962,0.763c1.382-3.205,3.68-5.403,7.039-6.367c3.36-0.964,6.474-0.323,9.332,1.675
	c0.426-0.569,0.842-1.126,1.263-1.689c-0.05-0.042-0.082-0.074-0.118-0.099c-2.118-1.516-4.471-2.343-7.079-2.429
	c-0.065-0.001-0.127-0.029-0.191-0.045C16.138,3.136,15.964,3.136,15.791,3.135L15.791,3.135z M15.138,8.093
	c-3.988,0.44-7.185,3.886-7.047,8.175c0.131,4.074,3.311,7.388,7.372,7.669c4.469,0.311,7.708-2.901,8.369-6.313
	c-0.061,0-0.116,0-0.172,0c-0.623,0-1.245,0.006-1.867-0.004c-0.145-0.003-0.193,0.051-0.236,0.179
	c-0.908,2.765-3.711,4.431-6.565,3.907c-3.146-0.575-5.232-3.626-4.641-6.786c0.568-3.036,3.489-5.147,6.529-4.654
	c2.334,0.379,3.891,1.741,4.688,3.968c0.041,0.118,0.093,0.161,0.217,0.16c0.628-0.006,1.257-0.003,1.885-0.003
	c0.05,0,0.1-0.006,0.166-0.011C23.102,10.707,19.59,7.603,15.138,8.093L15.138,8.093z M26.303,17.645
	c-0.015-0.006-0.031-0.016-0.047-0.016c-0.675-0.002-1.348-0.005-2.023,0.003c-0.045,0.001-0.117,0.081-0.129,0.136
	c-0.383,1.676-1.196,3.106-2.459,4.274c-1.367,1.265-2.981,1.992-4.84,2.165c-0.244,0.023-0.491,0.033-0.744,0.049
	c0,0.713,0,1.42,0,2.139C21.135,26.462,25.626,22.542,26.303,17.645L26.303,17.645z M11.402,9.198
	c1.389-0.954,2.936-1.423,4.619-1.445c0-0.725,0-1.432,0-2.158c-2.079,0.022-3.981,0.583-5.705,1.727
	c-1.827,1.213-3.138,2.849-3.965,4.899c0.678,0.264,1.34,0.521,2.015,0.784C9.008,11.424,10.012,10.153,11.402,9.198L11.402,9.198z
	 M12.236,25.461c0.214-0.534,0.423-1.07,0.643-1.604c0.061-0.146,0.047-0.205-0.109-0.279c-3.12-1.484-4.79-3.948-4.982-7.404
	c-0.006-0.12-0.045-0.159-0.163-0.159c-0.593,0.003-1.187,0.005-1.78-0.001c-0.138-0.002-0.187,0.047-0.175,0.182
	c0.037,0.44,0.052,0.883,0.108,1.322c0.142,1.101,0.48,2.145,0.982,3.131c0.94,1.853,2.309,3.306,4.107,4.348
	c0.411,0.238,0.845,0.436,1.281,0.656C12.19,25.564,12.216,25.514,12.236,25.461L12.236,25.461z M19.244,8.387
	c0.99,0.422,1.875,1.008,2.635,1.773c1.128,1.135,1.88,2.478,2.227,4.043c0.026,0.114,0.076,0.163,0.199,0.161
	c0.61-0.005,1.221-0.004,1.832-0.001c0.121,0.001,0.17-0.043,0.145-0.165c-0.038-0.18-0.067-0.362-0.113-0.54
	c-0.869-3.412-2.92-5.825-6.139-7.249c-0.061-0.027-0.125-0.043-0.198-0.067c-0.257,0.662-0.508,1.305-0.765,1.966
	c0.074,0.033,0.125,0.056,0.178,0.078V8.387z M13.009,17.129c-0.217-0.594-0.262-1.199-0.131-1.817
	c0.3-1.41,1.537-2.466,2.988-2.543c0.095-0.004,0.152-0.022,0.151-0.134c-0.003-0.662-0.002-1.325-0.001-1.988
	c0-0.097-0.041-0.138-0.135-0.132c-0.172,0.012-0.346,0.014-0.516,0.036c-1.548,0.199-2.796,0.93-3.727,2.174
	c-0.937,1.252-1.264,2.67-1.008,4.21c0.07,0.422,0.218,0.83,0.339,1.271c0.727-0.318,1.404-0.617,2.09-0.918
	C13.04,17.227,13.028,17.176,13.009,17.129L13.009,17.129z M26.956,9.2c-0.621,0.387-1.224,0.764-1.834,1.146
	c0.026,0.049,0.04,0.086,0.062,0.12c0.709,1.175,1.186,2.436,1.404,3.793c0.018,0.114,0.075,0.136,0.176,0.136
	c0.479-0.003,0.955-0.001,1.434-0.001c0.189,0,0.379,0,0.602,0c-0.242-1.884-0.854-3.597-1.843-5.192V9.2z M4.277,21.171
	c0.67-0.295,1.32-0.58,1.933-0.853c-0.212-0.721-0.461-1.41-0.611-2.119c-0.15-0.715-0.2-1.451-0.296-2.182
	c-0.676,0-1.376,0-2.104,0C3.195,17.82,3.564,19.523,4.277,21.171L4.277,21.171z M18.057,10.858
	c-0.285,0.729-0.558,1.433-0.834,2.143c0.652,0.272,1.16,0.682,1.528,1.257c0.065,0.101,0.134,0.136,0.25,0.136
	c0.715-0.004,1.429-0.002,2.144-0.003c0.051,0,0.101-0.006,0.184-0.012c-0.572-1.678-1.651-2.84-3.273-3.522L18.057,10.858z
	 M18.926,17.646c-0.052,0.002-0.119,0.063-0.154,0.113c-0.353,0.525-0.809,0.928-1.387,1.188c-0.107,0.047-0.131,0.098-0.088,0.207
	c0.236,0.596,0.471,1.189,0.694,1.789c0.055,0.146,0.114,0.162,0.252,0.1c1.126-0.505,1.997-1.292,2.6-2.365
	c0.179-0.318,0.31-0.662,0.484-1.037c-0.847,0-1.625-0.002-2.403,0.006H18.926z M12.169,19.926c1.067,1.033,2.349,1.563,3.848,1.596
	c0-0.775,0-1.531,0-2.291c-0.871-0.029-1.613-0.338-2.226-0.924C13.246,18.85,12.714,19.382,12.169,19.926L12.169,19.926z"/>
</svg>
