<?xml version="1.0" encoding="utf-8"?>
<!-- Generator: Adobe Illustrator 16.0.0, SVG Export Plug-In . SVG Version: 6.00 Build 0)  -->
<!DOCTYPE svg PUBLIC "-//W3C//DTD SVG 1.1//EN" "http://www.w3.org/Graphics/SVG/1.1/DTD/svg11.dtd">
<svg version="1.1" id="Layer_1" xmlns="http://www.w3.org/2000/svg" xmlns:xlink="http://www.w3.org/1999/xlink" x="0px" y="0px"
	 width="32px" height="32px" viewBox="0 0 32 32" enable-background="new 0 0 32 32" xml:space="preserve">
<title>classifier</title>
<path fill="#3272A0" d="M31.648,15.999L16.056,31.592L0.464,15.999L16.056,0.407L31.648,15.999z M16.056,1.03L1.087,15.999
	l14.969,14.969l14.969-14.969L16.056,1.03z M23.41,12.942L23.41,12.942c0.744,0,0.783,0.364,0.742,0.808l-0.668,7.305
	c-0.041,0.443-0.131,0.807-0.892,0.807H9.518c-0.747,0-0.851-0.363-0.892-0.807L7.958,13.75c-0.042-0.445-0.004-0.808,0.743-0.808
	H23.41L23.41,12.942z M22.871,11.159l0.165,0.649H9.307l0.237-2.112c0.049-0.443,0.458-0.806,0.907-0.806h2.64
	c0.449,0,1.078,0.257,1.395,0.572l0.483,0.476c0.318,0.315,0.946,0.573,1.396,0.573h5.525
	C22.339,10.511,22.779,10.804,22.871,11.159L22.871,11.159z"/>
</svg>
