<?xml version="1.0" encoding="utf-8"?>
<!-- Generator: Adobe Illustrator 16.0.0, SVG Export Plug-In . SVG Version: 6.00 Build 0)  -->
<!DOCTYPE svg PUBLIC "-//W3C//DTD SVG 1.1//EN" "http://www.w3.org/Graphics/SVG/1.1/DTD/svg11.dtd">
<svg version="1.1" id="Layer_1" xmlns="http://www.w3.org/2000/svg" xmlns:xlink="http://www.w3.org/1999/xlink" x="0px" y="0px"
	 width="32px" height="32px" viewBox="0 0 32 32" enable-background="new 0 0 32 32" xml:space="preserve">
<title>clean</title>
<path fill="#3272A0" d="M0,18.875c0.183-0.682,0.662-1.105,1.204-1.523c2.842-2.195,5.661-4.42,8.488-6.635
	c0.081-0.063,0.164-0.122,0.227-0.168c3.822,3.82,7.628,7.622,11.462,11.454c-0.046,0.065-0.107,0.157-0.174,0.244
	c-2.178,2.829-4.355,5.659-6.532,8.487c-0.019,0.024-0.042,0.048-0.057,0.074c-0.342,0.592-0.831,1-1.492,1.19
	c-0.188,0-0.375,0-0.563,0c-0.524-0.175-0.875-0.572-1.236-0.972c1.178-1.356,2.351-2.707,3.524-4.059
	c-0.016-0.015-0.032-0.029-0.048-0.045c-1.393,1.135-2.787,2.268-4.152,3.379c-0.33-0.326-0.631-0.625-0.943-0.933
	c1.139-1.786,2.284-3.583,3.43-5.38c-0.02-0.014-0.04-0.028-0.06-0.041c-1.439,1.5-2.879,2.999-4.28,4.458
	c-0.402-0.392-0.778-0.759-1.163-1.136c1.639-1.924,3.286-3.859,4.932-5.795c-0.019-0.019-0.038-0.039-0.057-0.058
	c-2.052,1.542-4.104,3.083-6.124,4.601c-0.243-0.234-0.472-0.457-0.715-0.69c1.05-1.507,2.104-3.019,3.158-4.531
	c-0.008-0.004-0.016-0.008-0.024-0.013c-1.293,1.275-2.587,2.55-3.867,3.813c-0.245-0.229-0.478-0.447-0.724-0.677
	c1.516-2.136,3.018-4.253,4.52-6.369c-0.018-0.017-0.036-0.034-0.054-0.05c-1.918,1.702-3.836,3.404-5.754,5.107
	c-0.321-0.332-0.631-0.652-0.957-0.988c1.38-1.635,2.779-3.292,4.178-4.948c-0.014-0.013-0.028-0.028-0.042-0.042
	c-1.704,1.355-3.409,2.71-5.113,4.064c-0.413-0.387-0.817-0.732-0.993-1.258C-0.001,19.25-0.001,19.063,0,18.875L0,18.875z"/>
<path fill="#3272A0" d="M32,5.313c-0.051,0.253-0.092,0.509-0.154,0.76c-0.216,0.847-0.652,1.569-1.265,2.189
	c-0.8,0.811-1.75,1.405-2.755,1.921c-1.527,0.786-3.061,1.558-4.432,2.61c-0.182,0.14-0.371,0.27-0.545,0.417
	c-0.615,0.514-0.752,1.202-0.361,1.898c0.132,0.233,0.301,0.452,0.486,0.645c0.526,0.548,1.072,1.079,1.606,1.619
	c0.704,0.713,0.708,1.647,0.006,2.36c-0.504,0.51-1.021,1.009-1.502,1.483c-4.099-4.096-8.198-8.192-12.22-12.211
	c0.539-0.588,1.069-1.267,1.704-1.828c0.564-0.497,1.424-0.369,1.993,0.18c0.54,0.52,1.059,1.062,1.596,1.586
	c0.17,0.166,0.354,0.326,0.55,0.458c0.808,0.539,1.565,0.411,2.165-0.355c0.954-1.217,1.746-2.535,2.441-3.913
	c0.568-1.124,1.134-2.25,1.959-3.219c0.769-0.904,1.677-1.583,2.869-1.816c0.162-0.033,0.322-0.067,0.482-0.1c0.333,0,0.667,0,1,0
	c0.068,0.021,0.135,0.052,0.205,0.061c1.965,0.273,3.566,1.723,4.025,3.647C31.908,3.927,31.952,4.151,32,4.373
	c0,0.312,0,0.625,0,0.938V5.313z M28.051,6.018c1.102-0.003,2.01-0.909,2.008-2.004c-0.002-1.098-0.91-2.014-2-2.017
	c-1.137-0.003-2.043,0.907-2.029,2.04C26.041,5.142,26.938,6.02,28.051,6.018z"/>
</svg>
