<?xml version="1.0" encoding="utf-8"?>
<!-- Generator: Adobe Illustrator 16.0.0, SVG Export Plug-In . SVG Version: 6.00 Build 0)  -->
<!DOCTYPE svg PUBLIC "-//W3C//DTD SVG 1.1//EN" "http://www.w3.org/Graphics/SVG/1.1/DTD/svg11.dtd">
<svg version="1.1" id="Layer_1" xmlns="http://www.w3.org/2000/svg" xmlns:xlink="http://www.w3.org/1999/xlink" x="0px" y="0px"
	 width="32px" height="32px" viewBox="0 0 32 32" enable-background="new 0 0 32 32" xml:space="preserve">
<title>click-select</title>
<path fill="#3272A0" d="M29.341,0h-17.16C10.763,0,9.61,1.153,9.61,2.57v6.95H2.659c-1.418,0-2.571,1.153-2.571,2.571v17.162
	c0,1.418,1.153,2.57,2.571,2.57h12.909c-0.015-0.078-0.036-0.153-0.045-0.234l-0.352-3.024H3.347V12.777h6.264v6.952
	c0,1.418,1.153,2.571,2.571,2.571h2.26l-0.38-3.258h-1.194v-6.266h6.266v1.965l3.259,1.597v-4.25c0-1.418-1.154-2.57-2.572-2.57
	h-6.953V3.255h15.785v15.786h-0.75l3.168,1.555c0.191,0.092,0.363,0.211,0.525,0.34c0.194-0.36,0.314-0.769,0.314-1.207V2.568
	c0-1.418-1.151-2.57-2.57-2.57l0,0L29.341,0z"/>
<path fill="#3272A0" d="M30.113,22.545l-13.039-6.393c-0.105-0.051-0.219-0.077-0.33-0.077c-0.152,0-0.305,0.045-0.433,0.137
	c-0.224,0.158-0.342,0.427-0.31,0.7l1.679,14.426c0.035,0.301,0.248,0.551,0.538,0.633c0.067,0.021,0.138,0.03,0.207,0.03
	c0.224,0,0.44-0.103,0.584-0.282l4.388-5.492l6.631-2.302c0.287-0.099,0.484-0.36,0.502-0.661
	C30.548,22.961,30.385,22.68,30.113,22.545L30.113,22.545L30.113,22.545z"/>
</svg>
