<?xml version="1.0" encoding="utf-8"?>
<!-- Generator: Adobe Illustrator 16.0.0, SVG Export Plug-In . SVG Version: 6.00 Build 0)  -->
<!DOCTYPE svg PUBLIC "-//W3C//DTD SVG 1.1//EN" "http://www.w3.org/Graphics/SVG/1.1/DTD/svg11.dtd">
<svg version="1.1" id="Layer_1" xmlns="http://www.w3.org/2000/svg" xmlns:xlink="http://www.w3.org/1999/xlink" x="0px" y="0px"
	 width="32px" height="32px" viewBox="0 0 32 32" enable-background="new 0 0 32 32" xml:space="preserve">
<title>clock</title>
<path fill="#3272A0" d="M16,32C7.168,32,0,24.832,0,16S7.168,0,16,0s16,7.168,16,16S24.832,32,16,32z M16,1.856
	C8.192,1.856,1.856,8.192,1.856,16c0,7.809,6.336,14.145,14.144,14.145c7.809,0,14.145-6.336,14.145-14.145
	C30.145,8.192,23.809,1.856,16,1.856z M20.48,22.912c-0.256,0-0.448-0.064-0.641-0.256l-4.928-4.928
	c-0.192-0.192-0.256-0.385-0.256-0.641V6.72c0-0.512,0.384-0.896,0.896-0.896c0.512,0,0.896,0.384,0.896,0.896v9.984l4.608,4.608
	c0.383,0.383,0.383,0.959,0,1.279C20.992,22.784,20.736,22.912,20.48,22.912z"/>
</svg>
