<?xml version="1.0" encoding="utf-8"?>
<!-- Generator: Adobe Illustrator 16.0.0, SVG Export Plug-In . SVG Version: 6.00 Build 0)  -->
<!DOCTYPE svg PUBLIC "-//W3C//DTD SVG 1.1//EN" "http://www.w3.org/Graphics/SVG/1.1/DTD/svg11.dtd">
<svg version="1.1" id="Layer_1" xmlns="http://www.w3.org/2000/svg" xmlns:xlink="http://www.w3.org/1999/xlink" x="0px" y="0px"
	 width="32px" height="32px" viewBox="0 0 32 32" enable-background="new 0 0 32 32" xml:space="preserve">
<title>cluster</title>
<path fill="#3272A0" d="M31.628,15.999L16.036,31.593L0.443,15.999L16.036,0.407L31.628,15.999L31.628,15.999z M16.036,1.031
	L1.067,16l14.969,14.971l14.968-14.972L16.036,1.031z M18.912,7.862c1.814,0,3.286,1.471,3.286,3.286s-1.472,3.286-3.286,3.286
	s-3.286-1.471-3.286-3.286S17.098,7.862,18.912,7.862z M13.871,12.873c3.111,0,5.633,2.522,5.633,5.632
	c0,3.11-2.521,5.632-5.633,5.632s-5.632-2.521-5.632-5.632C8.239,15.395,10.761,12.873,13.871,12.873z M21.484,13.811
	c1.295,0,2.347,1.051,2.347,2.348c0,1.295-1.052,2.347-2.347,2.347c-1.297,0-2.348-1.052-2.348-2.347
	C19.137,14.863,20.188,13.811,21.484,13.811z"/>
</svg>
