<?xml version="1.0" encoding="utf-8"?>
<!-- Generator: Adobe Illustrator 16.0.0, SVG Export Plug-In . SVG Version: 6.00 Build 0)  -->
<!DOCTYPE svg PUBLIC "-//W3C//DTD SVG 1.1//EN" "http://www.w3.org/Graphics/SVG/1.1/DTD/svg11.dtd">
<svg version="1.1" id="Layer_1" xmlns="http://www.w3.org/2000/svg" xmlns:xlink="http://www.w3.org/1999/xlink" x="0px" y="0px"
	 width="37px" height="32px" viewBox="0 0 37 32" enable-background="new 0 0 37 32" xml:space="preserve">
<title>coap-iot</title>
<path fill="#3272A0" d="M9.238,32L0,16L9.238,0h18.476l9.237,16l-9.237,16H9.238z M27.43,31.508l8.952-15.507L27.43,0.493H9.521
	L0.568,16.001l8.953,15.507H27.43z M22.84,24.871c-0.925-0.007-0.854,0.104-0.895-0.837c-0.033-0.772-0.113-1.542-0.168-2.313
	c-0.021-0.31-0.144-0.455-0.484-0.443c-1.568,0.049-1.145-0.252-1.348,1.257c-0.086,0.632-0.146,1.267-0.197,1.903
	c-0.027,0.347-0.193,0.475-0.531,0.437c-0.16-0.019-0.325-0.003-0.488-0.003c-0.583-0.002-0.584-0.002-0.516-0.596
	c0.455-3.99,0.912-7.98,1.364-11.97c0.175-1.537,0.348-3.074,0.502-4.613c0.04-0.403,0.19-0.599,0.612-0.552
	c0.188,0.021,0.379,0.003,0.57,0.002c0.649-0.005,0.647,0.001,0.715,0.634c0.346,3.306,0.698,6.611,1.043,9.916
	c0.234,2.24,0.451,4.482,0.699,6.72c0.043,0.387-0.08,0.493-0.43,0.46c-0.146-0.014-0.298-0.002-0.447-0.002L22.84,24.871z
	 M21.027,12.317c-0.016-0.004-0.032-0.009-0.047-0.012c-0.016,0.077-0.039,0.152-0.047,0.229c-0.201,2.054-0.379,4.108-0.604,6.161
	c-0.114,1.053-0.169,0.933,0.939,0.941c0.235,0.002,0.332-0.07,0.31-0.339c-0.192-2.325-0.37-4.654-0.554-6.981H21.027z
	 M24.625,16.156c0-2.675-0.001-5.35,0.001-8.026c0-1.116,0.002-1.116,1.095-1.116c0.633,0,1.268-0.008,1.902,0.003
	c0.908,0.015,1.674,0.571,1.986,1.428c0.164,0.445,0.234,0.907,0.234,1.379c0.004,1.531,0,3.062,0.002,4.592
	c0,0.362-0.059,0.714-0.15,1.061c-0.278,1.073-1.076,1.705-2.188,1.74c-1.144,0.036-1.144,0.036-1.144,1.205
	c0,2.014-0.008,4.027,0.01,6.041c0.003,0.41-0.118,0.555-0.541,0.547c-1.205-0.016-1.205,0.001-1.205-1.199c0-2.553,0-5.104,0-7.654
	H24.625z M26.363,12.108c0,1.006-0.002,2.012,0,3.018c0,0.178-0.018,0.383,0.221,0.429c0.846,0.163,1.531,0.066,1.514-1.01
	c-0.024-1.529-0.006-3.058-0.007-4.588c-0.001-1.118-0.177-1.276-1.305-1.264c-0.33,0.003-0.431,0.124-0.427,0.438
	c0.014,0.991,0.006,1.984,0.004,2.975V12.108z M7.108,16.001c0,2.052,0.001,4.104-0.001,6.157c0,0.671,0.175,1.29,0.556,1.844
	c0.854,1.243,2.534,1.464,3.629,0.457c0.61-0.563,0.878-1.305,0.901-2.12c0.026-0.95,0.015-1.903,0.009-2.854
	c-0.006-1.012,0.122-0.897-0.917-0.914c-0.401-0.008-0.518,0.168-0.513,0.539c0.013,1.006,0.002,2.011,0.003,3.017
	c0,0.233-0.018,0.462-0.111,0.679c-0.176,0.412-0.471,0.594-0.933,0.575c-0.426-0.017-0.748-0.263-0.874-0.67
	c-0.069-0.224-0.079-0.454-0.079-0.687c0.001-4.022,0.001-8.046,0-12.069C8.777,9.722,8.79,9.492,8.863,9.27
	c0.129-0.393,0.438-0.628,0.848-0.646c0.65-0.028,1.041,0.385,1.056,1.165c0.018,0.883,0.006,1.766,0.006,2.65
	c0,0.954-0.001,0.943,0.981,0.937c0.327-0.002,0.461-0.102,0.455-0.445c-0.017-1.087,0.001-2.174-0.015-3.261
	c-0.009-0.625-0.195-1.207-0.545-1.726C10.895,6.822,9.4,6.571,8.313,7.376C7.499,7.98,7.121,8.811,7.114,9.803
	C7.099,11.869,7.109,13.935,7.108,16.001C7.107,16,7.107,16,7.106,16L7.108,16.001z M17.4,18.967
	c-0.048,1.124,0.081,2.498-0.063,3.866c-0.049,0.464-0.191,0.901-0.446,1.298c-0.847,1.316-2.508,1.27-3.289-0.09
	c-0.337-0.586-0.433-1.23-0.436-1.884c-0.012-2.337-0.015-4.673,0.002-7.009c0.005-0.698,0.141-1.377,0.563-1.967
	c0.887-1.239,2.46-1.164,3.215,0.155c0.341,0.596,0.446,1.25,0.452,1.922C17.408,16.413,17.401,17.566,17.4,18.967L17.4,18.967z
	 M16,18.741c0-1.235-0.001-2.471,0.001-3.706c0.001-0.232-0.017-0.461-0.097-0.681c-0.105-0.285-0.31-0.451-0.608-0.463
	c-0.292-0.012-0.478,0.172-0.592,0.422c-0.103,0.225-0.13,0.47-0.13,0.716c-0.001,2.471-0.005,4.942,0.002,7.411
	c0.002,0.678,0.266,1.022,0.738,1.02c0.447-0.002,0.685-0.348,0.687-1.014C16.003,21.211,16.001,19.977,16,18.741z"/>
</svg>
