<?xml version="1.0" encoding="utf-8"?>
<!-- Generator: Adobe Illustrator 16.0.0, SVG Export Plug-In . SVG Version: 6.00 Build 0)  -->
<!DOCTYPE svg PUBLIC "-//W3C//DTD SVG 1.1//EN" "http://www.w3.org/Graphics/SVG/1.1/DTD/svg11.dtd">
<svg version="1.1" id="Layer_1" xmlns="http://www.w3.org/2000/svg" xmlns:xlink="http://www.w3.org/1999/xlink" x="0px" y="0px"
	 width="32px" height="32px" viewBox="0 0 32 32" enable-background="new 0 0 32 32" xml:space="preserve">
<title>coap-notification</title>
<path fill="#3272A0" d="M24.32,32H7.68C3.413,32,0,28.588,0,24.32V7.68C0,3.413,3.413,0,7.68,0h16.64C28.587,0,32,3.413,32,7.68
	v16.64C32,28.588,28.587,32,24.32,32z M31.041,23.361V8.64c0-4.267-3.414-7.68-7.68-7.68H8.64c-4.267,0-7.68,3.413-7.68,7.68v14.721
	c0,4.266,3.413,7.68,7.68,7.68h14.721C27.627,31.041,31.041,27.627,31.041,23.361z M8.64,20.268
	c-0.427,0.213-1.173,0.426-2.24,0.426c-2.453,0-4.267-1.493-4.267-4.374c0-2.666,1.813-4.48,4.48-4.48
	c1.067,0,1.707,0.214,2.027,0.427l-0.32,0.96c-0.427-0.214-1.066-0.32-1.707-0.32c-2.027,0-3.413,1.28-3.413,3.519
	c0,2.135,1.173,3.414,3.307,3.414c0.64,0,1.387-0.105,1.813-0.32L8.64,20.268z M15.467,17.389c0,2.238-1.6,3.305-3.093,3.305
	c-1.707,0-2.987-1.279-2.987-3.199c0-2.027,1.387-3.307,3.093-3.307C14.293,14.187,15.467,15.574,15.467,17.389z M10.56,17.494
	c0,1.386,0.747,2.346,1.92,2.346c1.067,0,1.92-0.96,1.92-2.451c0-1.069-0.533-2.349-1.813-2.349
	C11.307,15.04,10.56,16.32,10.56,17.494z M18.348,17.814l-0.854,2.666H16.32l2.88-8.641h1.387l2.987,8.641H22.4l-0.961-2.666H18.348
	z M21.227,16.96l-0.853-2.453c-0.213-0.533-0.321-1.067-0.427-1.6l0,0c-0.107,0.533-0.321,1.067-0.428,1.6l-0.853,2.453H21.227z
	 M24.747,12.054c0.532-0.107,1.28-0.214,2.133-0.214c1.067,0,1.92,0.214,2.453,0.747c0.427,0.426,0.747,1.067,0.747,1.813
	s-0.213,1.387-0.641,1.814c-0.64,0.64-1.6,0.96-2.666,0.96c-0.319,0-0.641,0-0.854-0.105v3.412h-1.066v-8.426H24.747z
	 M25.919,16.214c0.214,0.106,0.534,0.106,0.961,0.106c1.388,0,2.134-0.64,2.134-1.813c0-1.173-0.853-1.707-2.027-1.707
	c-0.532,0-0.854,0-1.067,0.107V16.214z"/>
</svg>
