<?xml version="1.0" encoding="utf-8"?>
<!-- Generator: Adobe Illustrator 16.0.0, SVG Export Plug-In . SVG Version: 6.00 Build 0)  -->
<!DOCTYPE svg PUBLIC "-//W3C//DTD SVG 1.1//EN" "http://www.w3.org/Graphics/SVG/1.1/DTD/svg11.dtd">
<svg version="1.1" id="Layer_1" xmlns="http://www.w3.org/2000/svg" xmlns:xlink="http://www.w3.org/1999/xlink" x="0px" y="0px"
	 width="32px" height="32px" viewBox="0 0 32 32" enable-background="new 0 0 32 32" xml:space="preserve">
<title>compression</title>
<path fill="#3272A0" d="M16,0C7.176,0,0,7.177,0,16s7.176,16,16,16c8.822,0,16-7.178,16-16C32,7.178,24.822,0,16,0z M16,31.359
	C7.53,31.359,0.64,24.471,0.64,16C0.64,7.53,7.53,0.64,16,0.64c8.471,0,15.359,6.89,15.359,15.36
	C31.359,24.471,24.471,31.359,16,31.359z M21.027,18.607l3.658-1.221v1.491l-3.658,1.22V18.607z M24.686,13.392l-3.658,1.22v-1.491
	l3.658-1.219V13.392z M21.027,15.864l3.658-1.219v1.49l-3.658,1.219V15.864z M24.686,21.027H25.6v2.742h-4.572L19.2,25.6h-8.228
	l-0.914-0.916V23.77h7.314l2.743-2.742h1.878l2.692-0.899V21.027L24.686,21.027z M25.6,8.228v2.743h-1.877l-2.695,0.899v-0.899
	h-0.912l-2.743-2.743h-7.315V7.314l0.914-0.915h8.228l1.828,1.828L25.6,8.228L25.6,8.228z M15.544,21.027H6.4v-4.571h9.144V21.027z
	 M15.544,15.542H6.4v-4.571h9.144V15.542z M11.886,18.285h-1.828V19.2h1.828V18.285z M11.886,12.8h-1.828v0.915h1.828V12.8z"/>
</svg>
