<?xml version="1.0" encoding="utf-8"?>
<!-- Generator: Adobe Illustrator 16.0.0, SVG Export Plug-In . SVG Version: 6.00 Build 0)  -->
<!DOCTYPE svg PUBLIC "-//W3C//DTD SVG 1.1//EN" "http://www.w3.org/Graphics/SVG/1.1/DTD/svg11.dtd">
<svg version="1.1" id="Layer_1" xmlns="http://www.w3.org/2000/svg" xmlns:xlink="http://www.w3.org/1999/xlink" x="0px" y="0px"
	 width="32px" height="32px" viewBox="0 0 32 32" enable-background="new 0 0 32 32" xml:space="preserve">
<title>config-deployment</title>
<path fill="#3272A0" d="M16,0c8.822,0,16,7.177,16,16s-7.178,16-16,16C7.176,32,0,24.822,0,16C0,7.178,7.176,0,16,0z M16,30.721
	c8.117,0,14.721-6.604,14.721-14.721S24.117,1.28,16,1.28S1.28,7.883,1.28,16S7.883,30.721,16,30.721z M25.512,17.236
	C25.564,16.83,25.6,16.42,25.6,16s-0.035-0.831-0.088-1.236l-2.535-0.635c-0.166-0.616-0.408-1.2-0.72-1.741l1.343-2.239
	c-0.506-0.656-1.093-1.244-1.748-1.75l-2.24,1.344c-0.541-0.312-1.123-0.555-1.74-0.719l-0.635-2.536
	c-0.405-0.052-0.815-0.089-1.235-0.089s-0.831,0.036-1.236,0.089l-0.634,2.536c-0.616,0.164-1.2,0.407-1.739,0.719l-2.239-1.345
	c-0.657,0.506-1.244,1.093-1.75,1.75l1.343,2.239c-0.313,0.54-0.556,1.124-0.72,1.741L6.49,14.763
	c-0.052,0.405-0.089,0.815-0.089,1.236s0.036,0.831,0.089,1.235l2.536,0.635c0.164,0.617,0.407,1.201,0.72,1.74l-1.345,2.24
	c0.506,0.655,1.093,1.243,1.75,1.75l2.239-1.345c0.541,0.312,1.124,0.554,1.741,0.72l0.634,2.535
	c0.406,0.053,0.816,0.088,1.236,0.088s0.831-0.035,1.235-0.088l0.635-2.535c0.617-0.166,1.201-0.408,1.742-0.721l2.238,1.344
	c0.655-0.506,1.242-1.094,1.748-1.75l-1.345-2.238c0.312-0.541,0.554-1.123,0.72-1.739l2.535-0.634H25.512z M16,19.357
	c-1.854,0-3.358-1.504-3.358-3.357c0-1.854,1.503-3.358,3.358-3.358c1.854,0,3.357,1.504,3.357,3.358
	C19.357,17.854,17.854,19.357,16,19.357z"/>
</svg>
