<?xml version="1.0" encoding="utf-8"?>
<!-- Generator: Adobe Illustrator 16.0.0, SVG Export Plug-In . SVG Version: 6.00 Build 0)  -->
<!DOCTYPE svg PUBLIC "-//W3C//DTD SVG 1.1//EN" "http://www.w3.org/Graphics/SVG/1.1/DTD/svg11.dtd">
<svg version="1.1" id="Layer_1" xmlns="http://www.w3.org/2000/svg" xmlns:xlink="http://www.w3.org/1999/xlink" x="0px" y="0px"
	 width="50px" height="50px" viewBox="0 0 50 50" enable-background="new 0 0 50 50" xml:space="preserve">
<path fill="#64953B" d="M25,0c13.785,0,25,11.214,25,25c0,13.785-11.215,25-25,25C11.213,50,0,38.785,0,25C0,11.214,11.213,0,25,0
	 M25,49c13.234,0,24-10.766,24-24C49,11.767,38.234,1,25,1C11.766,1,1,11.767,1,25C1,38.234,11.766,49,25,49 M24.996,37.514
	c-1.125-0.021-2.291-0.052-3.289-0.548c-1.257-0.623-2.366-0.42-3.602,0.011c-2.056,0.715-4.197,1.029-6.385,0.924
	c-3.272-0.159-4.698-2.285-3.501-5.342c0.957-2.443,2.671-4.367,4.535-6.162c0.431-0.416,0.782-0.809,0.852-1.485
	c0.797-7.729,8.37-12.467,15.63-9.775c0.718,0.266,1.303,0.264,2.013,0.015c2.364-0.829,4.772-1.515,7.319-1.321
	c3.445,0.262,4.822,2.664,3.345,5.812c-1.031,2.197-2.612,3.982-4.36,5.621c-0.578,0.542-0.854,1.107-0.926,1.914
	C36.104,33.09,30.915,37.677,24.996,37.514z M16.305,13.152c-2.169-0.294-3.386-1.543-3.708-3.694
	c-0.039-0.258-0.078-0.55-0.428-0.536c-0.272,0.011-0.352,0.25-0.381,0.476c-0.291,2.221-1.561,3.459-3.763,3.771
	c-0.263,0.037-0.559,0.075-0.522,0.429c0.026,0.25,0.261,0.337,0.495,0.367c2.214,0.278,3.491,1.506,3.786,3.73
	c0.031,0.235,0.111,0.468,0.365,0.497c0.352,0.039,0.404-0.251,0.442-0.514c0.314-2.149,1.517-3.411,3.694-3.697
	c0.269-0.035,0.52-0.087,0.588-0.41C16.819,13.247,16.57,13.188,16.305,13.152z M34.229,38.157c1.66,0.343,2.558,1.291,2.91,2.921
	c0.279-1.688,1.303-2.539,2.866-2.95c-1.628-0.278-2.51-1.137-2.864-2.765C36.79,36.943,35.909,37.895,34.229,38.157z
	 M34.216,18.752c0.47,0.622,0.83,1.324,1.269,1.971c0.453,0.67,0.336,1.146-0.264,1.713c-5.201,4.906-11.18,8.517-17.902,10.928
	c-0.691,0.247-1.083,0.116-1.503-0.462c-0.946-1.301-1.544-2.767-2.065-4.394c-1.477,1.563-2.824,3.009-3.583,4.873
	c-0.582,1.431-0.186,2.127,1.333,2.365c1.546,0.243,3.054-0.086,4.523-0.503c7.464-2.117,13.91-6.035,19.625-11.215
	c1.662-1.506,3.209-3.127,4.209-5.171c0.961-1.964,0.394-2.836-1.824-2.869c-1.813-0.027-3.54,0.382-5.396,1.006
	C33.229,17.647,33.771,18.163,34.216,18.752z"/>
</svg>
