<?xml version="1.0" encoding="utf-8"?>
<!-- Generator: Adobe Illustrator 16.0.0, SVG Export Plug-In . SVG Version: 6.00 Build 0)  -->
<!DOCTYPE svg PUBLIC "-//W3C//DTD SVG 1.1//EN" "http://www.w3.org/Graphics/SVG/1.1/DTD/svg11.dtd">
<svg version="1.1" id="Layer_1" xmlns="http://www.w3.org/2000/svg" xmlns:xlink="http://www.w3.org/1999/xlink" x="0px" y="0px"
	 width="32px" height="32px" viewBox="0 0 32 32" enable-background="new 0 0 32 32" xml:space="preserve">
<title>cpu</title>
<path fill="#3272A0" d="M22.509,28.305c-0.491,0-0.938,0-1.422,0c-0.007,0.131-0.019,0.25-0.019,0.369
	c-0.002,0.791,0.002,1.582-0.002,2.373c-0.004,0.531-0.305,0.877-0.743,0.866c-0.431-0.011-0.712-0.341-0.714-0.86
	c-0.004-0.902,0-1.806,0-2.736c-0.481,0-0.937,0-1.44,0c0,0.176,0,0.352,0,0.527c0,0.758,0.003,1.514-0.001,2.271
	c-0.003,0.476-0.314,0.807-0.736,0.797c-0.412-0.01-0.699-0.325-0.703-0.793c-0.006-0.803-0.002-1.605-0.002-2.407
	c0-0.122,0-0.245,0-0.396c-0.484,0-0.94,0-1.438,0c-0.006,0.115-0.017,0.233-0.017,0.353c-0.002,0.813,0.003,1.627-0.003,2.44
	c-0.004,0.483-0.308,0.811-0.727,0.804c-0.421-0.007-0.709-0.334-0.711-0.823c-0.004-0.915-0.001-1.829-0.001-2.773
	c-0.473,0-0.928,0-1.42,0c-0.007,0.119-0.019,0.238-0.019,0.357c-0.001,0.791,0.003,1.582-0.001,2.373
	c-0.003,0.531-0.304,0.874-0.744,0.865c-0.427-0.01-0.712-0.348-0.713-0.861c-0.003-0.902-0.001-1.806-0.001-2.736
	c-0.482,0-0.937,0-1.439,0c0,0.237,0,0.471,0,0.703c0,0.701,0.004,1.401,0,2.103c-0.003,0.459-0.298,0.782-0.709,0.793
	c-0.418,0.011-0.728-0.322-0.731-0.8c-0.005-0.813-0.002-1.627-0.003-2.44c0-0.11,0-0.222,0-0.358c-0.487,0-0.943,0-1.438,0
	c-0.006,0.108-0.016,0.217-0.016,0.326c-0.002,0.824,0.002,1.649-0.004,2.475c-0.003,0.479-0.313,0.81-0.731,0.798
	c-0.414-0.013-0.705-0.33-0.707-0.792c-0.004-0.926-0.001-1.852-0.001-2.789C4.741,28.2,4.199,28.48,3.939,28.068
	c-0.205-0.325-0.222-0.771-0.337-1.221c-0.348,0-0.773,0-1.198,0c-0.509,0-1.017,0.004-1.526,0
	c-0.461-0.006-0.781-0.297-0.792-0.709c-0.01-0.421,0.316-0.727,0.798-0.729c0.802-0.007,1.605-0.002,2.407-0.002
	c0.122,0,0.244,0,0.393,0c0-0.487,0-0.943,0-1.439c-0.119-0.006-0.238-0.016-0.358-0.017c-0.791-0.002-1.582,0.001-2.373-0.002
	c-0.538-0.002-0.875-0.29-0.867-0.731c0.008-0.432,0.34-0.707,0.859-0.708c0.903-0.001,1.807,0,2.738,0c0-0.473,0-0.928,0-1.419
	C3.578,21.084,3.47,21.07,3.362,21.07c-0.78-0.002-1.56,0-2.339-0.002c-0.591-0.002-0.945-0.281-0.938-0.74
	c0.007-0.446,0.356-0.719,0.925-0.719c0.88,0,1.761,0,2.671,0c0-0.479,0-0.935,0-1.42c-0.104-0.006-0.212-0.018-0.32-0.019
	c-0.825-0.002-1.65,0.002-2.475-0.002c-0.461-0.002-0.786-0.292-0.8-0.701c-0.014-0.42,0.315-0.735,0.791-0.739
	c0.836-0.006,1.673-0.01,2.509,0.004c0.249,0.004,0.35-0.065,0.328-0.323c-0.031-0.367-0.039-0.736-0.057-1.103
	c-0.359-0.012-0.718-0.03-1.077-0.034c-0.565-0.005-1.13,0.005-1.695-0.002c-0.481-0.006-0.809-0.315-0.797-0.733
	c0.012-0.413,0.328-0.703,0.793-0.705c0.926-0.005,1.852-0.002,2.804-0.002c0-0.475,0-0.931,0-1.423
	c-0.122-0.006-0.242-0.018-0.361-0.018c-0.791-0.001-1.582,0.004-2.373-0.002c-0.533-0.004-0.876-0.306-0.863-0.745
	c0.012-0.43,0.343-0.708,0.863-0.711c0.903-0.004,1.806-0.001,2.734-0.001c0-0.482,0-0.938,0-1.441c-0.257,0-0.513,0-0.768,0
	c-0.678,0-1.356,0.004-2.034-0.001C0.404,9.484,0.077,9.174,0.089,8.749c0.011-0.41,0.327-0.696,0.795-0.7
	c0.802-0.006,1.605-0.002,2.407-0.002c0.122,0,0.244,0,0.394,0c0-0.486,0-0.943,0-1.439C3.568,6.602,3.449,6.591,3.33,6.59
	C2.539,6.588,1.748,6.591,0.957,6.588c-0.54-0.002-0.877-0.289-0.868-0.73c0.009-0.433,0.34-0.708,0.859-0.709
	c0.903-0.002,1.807,0,2.662,0c0.108-0.43,0.094-0.943,0.343-1.202c0.238-0.248,0.75-0.232,1.201-0.348c0-0.336,0-0.75,0-1.164
	c0-0.509-0.002-1.017,0.001-1.526c0.003-0.49,0.285-0.816,0.707-0.826c0.431-0.01,0.729,0.323,0.731,0.832
	c0.004,0.791,0.001,1.582,0.001,2.373c0,0.122,0,0.244,0,0.392c0.488,0,0.945,0,1.439,0C8.039,3.559,8.05,3.44,8.05,3.32
	c0.002-0.802-0.002-1.605,0.002-2.407c0.003-0.508,0.302-0.842,0.733-0.83C9.21,0.095,9.49,0.417,9.492,0.91
	c0.003,0.915,0.001,1.829,0.001,2.77c0.474,0,0.931,0,1.422,0c0.006-0.121,0.017-0.241,0.017-0.36
	c0.002-0.791-0.002-1.582,0.002-2.373c0.003-0.532,0.304-0.875,0.743-0.864c0.429,0.011,0.709,0.341,0.712,0.862
	c0.005,0.903,0.002,1.806,0.002,2.735c0.483,0,0.939,0,1.441,0c0-0.234,0-0.467,0-0.7c0-0.701-0.004-1.401,0.002-2.102
	c0.004-0.479,0.314-0.805,0.738-0.794c0.408,0.01,0.696,0.328,0.7,0.796c0.006,0.836,0.01,1.673-0.005,2.509
	c-0.005,0.257,0.079,0.34,0.33,0.323c0.281-0.019,0.565-0.016,0.847-0.001c0.224,0.012,0.292-0.074,0.289-0.293
	c-0.008-0.87-0.01-1.74,0-2.61c0.006-0.392,0.267-0.668,0.635-0.718c0.337-0.045,0.679,0.179,0.771,0.525
	c0.032,0.117,0.03,0.245,0.03,0.369c0.002,0.892,0.001,1.784,0.001,2.7c0.479,0,0.934,0,1.439,0c0-0.186,0-0.362,0-0.539
	c0-0.735-0.002-1.469,0-2.204C19.611,0.43,19.9,0.09,20.326,0.082c0.439-0.007,0.738,0.338,0.74,0.869c0.002,0.903,0,1.806,0,2.732
	c0.485,0,0.942,0,1.442,0c0-0.409,0-0.812,0-1.214c0-0.52-0.002-1.04,0.001-1.56c0.004-0.49,0.285-0.817,0.706-0.826
	c0.433-0.009,0.729,0.324,0.732,0.832c0.004,0.791,0.002,1.582,0.002,2.373c0,0.122,0,0.244,0,0.393c0.485,0,0.942,0,1.438,0
	c0.006-0.119,0.016-0.238,0.016-0.357c0.003-0.791,0-1.582,0.003-2.373c0.002-0.54,0.288-0.877,0.729-0.867
	c0.434,0.01,0.709,0.341,0.711,0.858c0.002,0.903,0,1.807,0,2.722c0.41,0.133,0.883-0.104,1.233,0.25
	c0.344,0.347,0.137,0.799,0.241,1.235c0.285,0,0.574,0,0.865,0c0.654,0,1.311-0.005,1.965,0.002c0.449,0.005,0.771,0.326,0.76,0.739
	c-0.01,0.397-0.324,0.693-0.764,0.697c-0.824,0.007-1.649,0.003-2.475,0.004c-0.111,0-0.222,0-0.359,0c0,0.485,0,0.942,0,1.437
	c0.107,0.006,0.215,0.016,0.324,0.017c0.801,0.002,1.605,0.023,2.406-0.004c0.607-0.021,0.869,0.393,0.866,0.738
	c-0.003,0.432-0.343,0.711-0.858,0.711c-0.902,0.001-1.807,0-2.738,0c0,0.474,0,0.929,0,1.42c0.121,0.007,0.242,0.018,0.361,0.019
	c0.791,0.001,1.582-0.002,2.373,0.001c0.514,0.002,0.852,0.285,0.862,0.712c0.01,0.44-0.333,0.743-0.864,0.746
	c-0.902,0.005-1.805,0.001-2.734,0.001c0,0.484,0,0.94,0,1.44c0.297,0,0.586,0,0.875,0c0.61,0,1.221-0.002,1.832-0.001
	c0.547,0.001,0.889,0.27,0.89,0.711c0.001,0.336-0.241,0.757-0.868,0.737c-0.779-0.025-1.559-0.006-2.339-0.006
	c-0.122,0-0.244,0-0.39,0c0,0.49,0,0.946,0,1.44c0.123,0.006,0.242,0.017,0.362,0.017c0.813,0.002,1.627-0.002,2.441,0.004
	c0.479,0.004,0.807,0.313,0.794,0.733c-0.014,0.411-0.334,0.702-0.797,0.704c-0.926,0.004-1.852,0.001-2.801,0.001
	c0,0.476,0,0.933,0,1.423c0.123,0.006,0.244,0.016,0.362,0.018c0.802,0.002,1.604-0.004,2.407,0.002
	c0.492,0.005,0.816,0.291,0.828,0.712c0.011,0.428-0.328,0.739-0.831,0.743c-0.914,0.006-1.828,0.002-2.767,0.002
	c0,0.483,0,0.939,0,1.44c0.235,0,0.47,0,0.703,0c0.7,0,1.4-0.003,2.102,0.002c0.463,0.003,0.783,0.294,0.794,0.705
	c0.011,0.42-0.315,0.729-0.798,0.732c-0.801,0.006-1.604,0.002-2.406,0.002c-0.122,0-0.244,0-0.393,0c0,0.485,0,0.942,0,1.438
	c0.117,0.006,0.236,0.018,0.355,0.018c0.78,0.002,1.559,0,2.339,0.002c0.568,0.001,0.91,0.279,0.902,0.73
	c-0.009,0.441-0.345,0.711-0.892,0.711c-0.893,0-1.785,0-2.629,0c-0.108,0.43-0.096,0.941-0.345,1.199
	c-0.239,0.248-0.75,0.232-1.2,0.348c0,0.315,0,0.707,0,1.099c0,0.521,0.002,1.04,0,1.56c-0.002,0.518-0.277,0.85-0.709,0.859
	c-0.441,0.009-0.729-0.33-0.73-0.867c-0.004-0.779-0.002-1.559-0.002-2.339c0-0.122,0-0.244,0-0.392c-0.488,0-0.944,0-1.439,0
	c-0.006,0.121-0.016,0.24-0.017,0.359c-0.003,0.803,0.002,1.605-0.003,2.407c-0.002,0.509-0.301,0.843-0.731,0.831
	c-0.423-0.012-0.705-0.337-0.706-0.827c-0.003-0.914-0.001-1.829-0.001-2.78L22.509,28.305z M8.049,16.034L8.049,16.034
	c0.001,2.338,0,4.676,0.002,7.015c0,0.667,0.23,0.9,0.892,0.9c4.71,0.001,9.42,0.001,14.131,0c0.632,0,0.875-0.247,0.875-0.887
	c0.001-4.698,0.001-9.397,0-14.097c0-0.69-0.225-0.915-0.912-0.915C18.338,8.05,13.639,8.049,8.94,8.05
	c-0.659,0-0.891,0.236-0.891,0.902C8.048,11.313,8.049,13.674,8.049,16.034z"/>
<path fill="#3272A0" d="M9.505,22.486c0-4.336,0-8.648,0-12.979c4.327,0,8.638,0,12.978,0c0,4.314,0,8.633,0,12.979
	C18.172,22.486,13.852,22.486,9.505,22.486z"/>
</svg>
