<?xml version="1.0" encoding="utf-8"?>
<!-- Generator: Adobe Illustrator 16.0.0, SVG Export Plug-In . SVG Version: 6.00 Build 0)  -->
<!DOCTYPE svg PUBLIC "-//W3C//DTD SVG 1.1//EN" "http://www.w3.org/Graphics/SVG/1.1/DTD/svg11.dtd">
<svg version="1.1" id="Layer_1" xmlns="http://www.w3.org/2000/svg" xmlns:xlink="http://www.w3.org/1999/xlink" x="0px" y="0px"
	 width="32px" height="32px" viewBox="0 0 32 32" enable-background="new 0 0 32 32" xml:space="preserve">
<title>cross</title>
<path fill="#3272A0" d="M9.071,16.067c-2.647-2.643-5.176-5.16-7.697-7.686c-1.236-1.238-1.642-2.721-1.2-4.412
	c0.487-1.86,2.685-3.759,4.579-3.94C6.199-0.11,7.416,0.41,8.436,1.437c1.823,1.835,3.657,3.659,5.484,5.49
	c0.669,0.671,1.331,1.349,2.042,2.07c0.18-0.17,0.33-0.301,0.47-0.442c2.355-2.353,4.707-4.707,7.061-7.059
	c2.01-2.006,4.62-1.994,6.644-0.006c0.879,0.863,1.633,1.77,1.797,3.049c0.188,1.487-0.242,2.759-1.295,3.816
	c-2.397,2.406-4.802,4.806-7.207,7.205c-0.134,0.133-0.3,0.235-0.479,0.374c0.212,0.222,0.35,0.372,0.494,0.516
	c2.365,2.364,4.734,4.726,7.094,7.098c1.958,1.97,1.941,4.595-0.021,6.563c-0.195,0.197-0.389,0.393-0.586,0.586
	c-1.777,1.729-4.471,1.744-6.233,0.002c-2.415-2.389-4.81-4.799-7.208-7.204c-0.146-0.147-0.261-0.322-0.431-0.532
	c-0.215,0.204-0.363,0.337-0.504,0.477c-2.366,2.365-4.73,4.733-7.098,7.097c-1.973,1.969-4.62,1.94-6.611-0.028
	c-0.836-0.826-1.583-1.686-1.777-2.893c-0.252-1.559,0.193-2.893,1.308-4.006c2.39-2.389,4.779-4.781,7.172-7.167
	C8.685,16.31,8.859,16.217,9.071,16.067L9.071,16.067z"/>
</svg>
