<?xml version="1.0" encoding="utf-8"?>
<!-- Generator: Adobe Illustrator 16.0.0, SVG Export Plug-In . SVG Version: 6.00 Build 0)  -->
<!DOCTYPE svg PUBLIC "-//W3C//DTD SVG 1.1//EN" "http://www.w3.org/Graphics/SVG/1.1/DTD/svg11.dtd">
<svg version="1.1" id="Layer_1" xmlns="http://www.w3.org/2000/svg" xmlns:xlink="http://www.w3.org/1999/xlink" x="0px" y="0px"
	 width="32px" height="32px" viewBox="0 0 32 32" enable-background="new 0 0 32 32" xml:space="preserve">
<title>custom-error</title>
<path fill="#3272A0" d="M16,0C7.168,0,0,7.168,0,16s7.168,16,16,16s16-7.168,16-16S24.832,0,16,0z M16,30.016
	C8.256,30.016,1.984,23.744,1.984,16S8.256,1.984,16,1.984S30.016,8.256,30.016,16S23.744,30.016,16,30.016z M16,6.016
	c-1.088,0-1.984,0.896-1.984,1.984v9.984c0,1.088,0.896,1.983,1.984,1.983s1.984-0.896,1.984-1.983V8
	C17.984,6.912,17.088,6.016,16,6.016z M16,22.016c1.088,0,1.984,0.896,1.984,1.984S17.088,25.984,16,25.984S14.016,25.088,14.016,24
	S14.912,22.016,16,22.016z"/>
</svg>
