<?xml version="1.0" encoding="utf-8"?>
<!-- Generator: Adobe Illustrator 16.0.0, SVG Export Plug-In . SVG Version: 6.00 Build 0)  -->
<!DOCTYPE svg PUBLIC "-//W3C//DTD SVG 1.1//EN" "http://www.w3.org/Graphics/SVG/1.1/DTD/svg11.dtd">
<svg version="1.1" id="Layer_1" xmlns="http://www.w3.org/2000/svg" xmlns:xlink="http://www.w3.org/1999/xlink" x="0px" y="0px"
	 width="32px" height="32px" viewBox="0 0 32 32" enable-background="new 0 0 32 32" xml:space="preserve">
<title>custom-search</title>
<path fill="#3272A0" d="M31.299,27.816l-6.6-6.602c1.59-2.297,2.387-4.856,2.387-7.678c0-1.836-0.355-3.589-1.068-5.264
	c-0.713-1.673-1.676-3.117-2.886-4.329c-1.213-1.212-2.655-2.175-4.33-2.887c-1.674-0.712-3.428-1.068-5.264-1.068
	S9.949,0.345,8.274,1.057C6.6,1.769,5.157,2.732,3.944,3.944C2.731,5.156,1.769,6.6,1.058,8.273
	C0.346,9.948-0.01,11.701-0.01,13.537s0.356,3.587,1.068,5.263c0.711,1.675,1.674,3.117,2.886,4.329
	c1.212,1.213,2.656,2.176,4.33,2.889c1.675,0.711,3.428,1.068,5.264,1.068c2.822,0,5.382-0.796,7.679-2.388l6.6,6.581
	c0.463,0.486,1.039,0.731,1.731,0.731c0.668,0,1.246-0.243,1.731-0.731c0.488-0.487,0.732-1.065,0.732-1.731
	C32.012,28.868,31.773,28.29,31.299,27.816L31.299,27.816L31.299,27.816z M19.629,19.628c-1.689,1.688-3.718,2.531-6.092,2.531
	s-4.404-0.845-6.092-2.531c-1.687-1.687-2.53-3.717-2.53-6.09s0.843-4.405,2.53-6.091c1.688-1.686,3.718-2.53,6.092-2.53
	s4.402,0.844,6.092,2.531c1.686,1.686,2.53,3.717,2.53,6.091C22.159,15.911,21.314,17.941,19.629,19.628L19.629,19.628
	L19.629,19.628z"/>
</svg>
