<?xml version="1.0" encoding="utf-8"?>
<!-- Generator: Adobe Illustrator 16.0.0, SVG Export Plug-In . SVG Version: 6.00 Build 0)  -->
<!DOCTYPE svg PUBLIC "-//W3C//DTD SVG 1.1//EN" "http://www.w3.org/Graphics/SVG/1.1/DTD/svg11.dtd">
<svg version="1.1" id="Layer_1" xmlns="http://www.w3.org/2000/svg" xmlns:xlink="http://www.w3.org/1999/xlink" x="0px" y="0px"
	 width="32px" height="32px" viewBox="0 0 32 32" enable-background="new 0 0 32 32" xml:space="preserve">
<title>custom-share</title>
<path fill="#3272A0" d="M15.999,0C7.177,0,0,7.178,0,16c0,8.822,7.177,16,15.999,16C24.82,32,32,24.822,32,16
	C32,7.178,24.822,0,15.999,0L15.999,0z M15.999,29.9C8.334,29.9,2.098,23.665,2.098,16S8.333,2.099,15.999,2.099
	C23.666,2.099,29.9,8.335,29.9,16S23.665,29.9,15.999,29.9L15.999,29.9z M19.583,24.301c1.729,0.163,3.142-1.449,2.751-3.141
	c-0.452-1.955-2.793-2.692-4.279-1.344c-0.094,0.086-0.162,0.097-0.273,0.041c-0.614-0.313-1.232-0.618-1.849-0.926
	c-1.613-0.807-3.224-1.613-4.839-2.414c-0.14-0.071-0.183-0.146-0.159-0.299c0.022-0.144,0.022-0.297-0.002-0.44
	c-0.026-0.152,0.029-0.216,0.159-0.28c2.227-1.106,4.449-2.216,6.673-3.329c0.123-0.061,0.197-0.052,0.305,0.04
	c0.759,0.646,1.629,0.831,2.572,0.523c1.34-0.438,2.051-1.884,1.633-3.246c-0.407-1.322-1.849-2.086-3.203-1.697
	c-1.182,0.34-1.913,1.419-1.848,2.737c0.008,0.138-0.029,0.206-0.154,0.268c-2.22,1.104-4.439,2.212-6.657,3.325
	c-0.136,0.068-0.218,0.06-0.333-0.044c-0.815-0.737-2.046-0.877-2.973-0.349c-0.978,0.556-1.507,1.652-1.297,2.739
	c0.188,0.974,0.764,1.65,1.693,1.976c0.947,0.332,1.821,0.141,2.586-0.51c0.105-0.091,0.178-0.105,0.303-0.041
	c2.158,1.08,4.316,2.16,6.479,3.23c0.252,0.124,0.465,0.232,0.346,0.52c-0.015,1.435,0.98,2.531,2.37,2.66H19.583z"/>
</svg>
