<?xml version="1.0" encoding="utf-8"?>
<!-- Generator: Adobe Illustrator 16.0.0, SVG Export Plug-In . SVG Version: 6.00 Build 0)  -->
<!DOCTYPE svg PUBLIC "-//W3C//DTD SVG 1.1//EN" "http://www.w3.org/Graphics/SVG/1.1/DTD/svg11.dtd">
<svg version="1.1" id="Layer_1" xmlns="http://www.w3.org/2000/svg" xmlns:xlink="http://www.w3.org/1999/xlink" x="0px" y="0px"
	 width="32px" height="32px" viewBox="0 0 32 32" enable-background="new 0 0 32 32" xml:space="preserve">
<title>custom-eye</title>
<path fill="#3272A0" d="M15.304,24.959c-2.261-0.02-4.945-0.893-7.476-2.286c-2.875-1.585-5.363-3.655-7.539-6.108
	c-0.362-0.408-0.388-0.684-0.056-1.055c3.002-3.352,6.461-6.063,10.751-7.585c4.087-1.451,8.065-1.062,11.939,0.774
	c3.409,1.615,6.28,3.94,8.784,6.74c0.369,0.413,0.389,0.684,0.059,1.055c-2.877,3.225-6.203,5.83-10.265,7.414
	c-1.774,0.691-3.726,1.053-6.199,1.05L15.304,24.959z M23.43,16.016c-0.003-4.115-3.334-7.446-7.449-7.445
	c-4.064,0.002-7.41,3.34-7.414,7.397c-0.005,4.134,3.334,7.474,7.466,7.466C20.089,23.427,23.432,20.075,23.43,16.016z M9.807,9.802
	c-3.198,1.487-5.9,3.628-8.291,6.182c1.769,2.184,6.539,5.729,8.308,6.189C6.491,18.829,6.399,13.266,9.807,9.802z M22.154,9.83
	c1.681,1.779,2.548,3.804,2.551,6.163c0.003,2.368-0.868,4.403-2.523,6.149c1.649-0.322,7.33-4.584,8.27-6.169
	C28.557,13.729,24.104,10.405,22.154,9.83z"/>
<path fill="#3272A0" d="M19.907,16.041c-0.028,2.157-1.812,3.896-3.967,3.869c-2.143-0.028-3.888-1.836-3.85-3.987
	c0.038-2.111,1.821-3.848,3.928-3.829C18.177,12.114,19.936,13.899,19.907,16.041L19.907,16.041z M15.994,18.63
	c1.427,0.006,2.628-1.187,2.632-2.614c0.004-1.436-1.168-2.624-2.604-2.64c-1.432-0.016-2.632,1.157-2.65,2.591
	C13.353,17.415,14.542,18.622,15.994,18.63L15.994,18.63z"/>
</svg>
