<?xml version="1.0" encoding="utf-8"?>
<!-- Generator: Adobe Illustrator 16.0.0, SVG Export Plug-In . SVG Version: 6.00 Build 0)  -->
<!DOCTYPE svg PUBLIC "-//W3C//DTD SVG 1.1//EN" "http://www.w3.org/Graphics/SVG/1.1/DTD/svg11.dtd">
<svg version="1.1" id="Layer_1" xmlns="http://www.w3.org/2000/svg" xmlns:xlink="http://www.w3.org/1999/xlink" x="0px" y="0px"
	 width="32px" height="32px" viewBox="0 0 32 32" enable-background="new 0 0 32 32" xml:space="preserve">
<title>custom-refresh-circle</title>
<path fill="#3272A0" d="M16,0c8.822,0,16,7.177,16,16s-7.178,16-16,16C7.176,32,0,24.822,0,16C0,7.178,7.176,0,16,0z M16,30.721
	c8.117,0,14.721-6.604,14.721-14.721S24.117,1.28,16,1.28S1.28,7.883,1.28,16S7.883,30.721,16,30.721z M9.846,18.063l-2.045,0.035
	c-0.6-2.355-0.201-4.947,1.33-7.064c2.653-3.67,7.704-4.602,11.498-2.122l0.042,0.028l1.044-1.444
	c0.114-0.158,0.256-0.135,0.313,0.05l1.359,4.385c0.059,0.186-0.054,0.34-0.248,0.344l-4.59,0.079
	c-0.195,0.003-0.26-0.123-0.146-0.279l1.022-1.414c-2.839-1.825-6.599-1.122-8.577,1.615c-1.251,1.73-1.498,3.881-0.863,5.765
	L9.846,18.063L9.846,18.063z M24.21,13.953l-2.188,0.038c0.623,1.876,0.373,4.013-0.871,5.735c-1.979,2.736-5.738,3.44-8.577,1.614
	l1.023-1.414c0.113-0.155,0.048-0.284-0.147-0.278l-4.59,0.078c-0.194,0.004-0.306,0.158-0.248,0.344l1.361,4.386
	c0.058,0.185,0.199,0.209,0.312,0.051l1.044-1.444l0.042,0.028c3.794,2.479,8.845,1.548,11.497-2.122
	C24.389,18.865,24.792,16.294,24.21,13.953L24.21,13.953z"/>
</svg>
