<?xml version="1.0" encoding="utf-8"?>
<!-- Generator: Adobe Illustrator 16.0.0, SVG Export Plug-In . SVG Version: 6.00 Build 0)  -->
<!DOCTYPE svg PUBLIC "-//W3C//DTD SVG 1.1//EN" "http://www.w3.org/Graphics/SVG/1.1/DTD/svg11.dtd">
<svg version="1.1" id="Layer_1" xmlns="http://www.w3.org/2000/svg" xmlns:xlink="http://www.w3.org/1999/xlink" x="0px" y="0px"
	 width="32px" height="32px" viewBox="0 0 32 32" enable-background="new 0 0 32 32" xml:space="preserve">
<title>custom-operation</title>
<path fill="#64953B" d="M16,0c8.822,0,16,7.177,16,16s-7.178,16-16,16C7.176,32,0,24.822,0,16C0,7.178,7.176,0,16,0z M16,31.359
	c8.471,0,15.359-6.889,15.359-15.359c0-8.47-6.889-15.36-15.359-15.36C7.53,0.64,0.64,7.53,0.64,16
	C0.64,24.471,7.53,31.359,16,31.359z M23.305,6.982H7.891v18.561h15.414v-8.23l-2.307,2.571c0,1.837,0,3.687,0,3.687h-2.575v-2.102
	L16.887,22.1v1.471h-2.576v-2.573h2.12l0.846-2.938l0.354-0.396l0.791-0.885v-0.166h0.148l4.732-5.275V6.982H23.305z M12.773,23.572
	h-2.575v-2.575h2.575V23.572z M12.773,19.188h-2.575v-2.573h2.575V19.188z M16.887,19.188h-2.576v-2.573h2.576V19.188z M21,13.081
	H10.195V9.116h10.804L21,13.081L21,13.081z M22.064,13.579l-4.102,4.571l2.096,1.879l0.295-0.327l4.147-4.625l-2.094-1.879
	L22.064,13.579L22.064,13.579z M21.882,15.495l-2.495,2.782c-0.031,0.035-0.076,0.057-0.121,0.06
	c-0.048,0.003-0.094-0.013-0.127-0.045l-0.125-0.11c-0.072-0.065-0.078-0.178-0.013-0.25l2.496-2.784
	c0.03-0.035,0.075-0.056,0.122-0.059c0.046-0.003,0.092,0.013,0.127,0.045l0.122,0.111C21.941,15.31,21.947,15.422,21.882,15.495
	L21.882,15.495z M22.609,14.173l0.123,0.111c0.072,0.065,0.078,0.177,0.014,0.249l-0.031,0.036l-0.179,0.198l-0.009,0.008
	c-0.03,0.035-0.074,0.056-0.121,0.058c-0.047,0.003-0.094-0.013-0.127-0.045l-0.125-0.111c-0.034-0.031-0.055-0.076-0.059-0.122
	c-0.004-0.046,0.014-0.093,0.047-0.127l0.215-0.242C22.425,14.112,22.537,14.106,22.609,14.173L22.609,14.173z M22.768,12.795
	l-0.156,0.176l2.096,1.879l0.156-0.177l0.355-0.397l-2.095-1.879L22.768,12.795L22.768,12.795z M26.264,12.845
	c-0.01-0.161-0.08-0.313-0.201-0.421l-1.188-1.065c-0.12-0.108-0.279-0.164-0.439-0.155c-0.16,0.009-0.313,0.081-0.422,0.202
	l-0.699,0.78l2.096,1.878l0.699-0.78c0.107-0.119,0.164-0.277,0.156-0.439H26.264z M25.366,13.283l-1.269-1.139l0.364-0.408
	l1.269,1.138L25.366,13.283z M17.082,21.241c0.086,0.077,0.21,0.098,0.316,0.054l2.408-0.986l-2.095-1.879l-0.72,2.502
	C16.96,21.044,16.994,21.164,17.082,21.241L17.082,21.241z M17.904,19.098l1.218,1.092l-0.946,0.389l-0.554-0.497L17.904,19.098
	L17.904,19.098z"/>
</svg>
