<?xml version="1.0" encoding="utf-8"?>
<!-- Generator: Adobe Illustrator 16.0.0, SVG Export Plug-In . SVG Version: 6.00 Build 0)  -->
<!DOCTYPE svg PUBLIC "-//W3C//DTD SVG 1.1//EN" "http://www.w3.org/Graphics/SVG/1.1/DTD/svg11.dtd">
<svg version="1.1" id="Layer_1" xmlns="http://www.w3.org/2000/svg" xmlns:xlink="http://www.w3.org/1999/xlink" x="0px" y="0px"
	 width="33px" height="32px" viewBox="0 0 33 32" enable-background="new 0 0 33 32" xml:space="preserve">
<title>custom-edit</title>
<path fill="#3272A0" d="M26.268,11.663c-0.455,0-0.822,0.369-0.822,0.823V27.51c0,1.588-1.293,2.879-2.879,2.879H4.525
	c-1.588,0-2.88-1.291-2.88-2.879V9.469c0-1.588,1.292-2.88,2.88-2.88h18.042c0.453,0,0.822-0.368,0.822-0.823
	s-0.369-0.823-0.822-0.823H4.525C2.03,4.943,0,6.973,0,9.468v18.041c0,2.495,2.03,4.525,4.525,4.525h18.042
	c2.494,0,4.524-2.03,4.524-4.525V12.485C27.091,12.03,26.723,11.662,26.268,11.663L26.268,11.663L26.268,11.663z"/>
<path fill="#3272A0" d="M32.604,0.743c-0.992-0.991-2.604-0.991-3.597,0L14.914,14.836c-0.019,0.019-0.231,0.239-0.287,0.363
	l-1.951,4.384c-0.139,0.312-0.072,0.676,0.169,0.917c0.157,0.157,0.368,0.241,0.582,0.241c0.113,0,0.227-0.023,0.335-0.07
	l4.384-1.952c0.123-0.055,0.345-0.268,0.365-0.287L32.604,4.34c0.481-0.481,0.746-1.119,0.746-1.798
	C33.35,1.862,33.085,1.223,32.604,0.743L32.604,0.743z M31.439,3.177L17.348,17.27c-0.004,0.002-0.004,0.006-0.008,0.008
	l-2.29,1.019l1.02-2.29c0.002-0.003,0.005-0.004,0.007-0.007L30.17,1.906c0.34-0.339,0.932-0.339,1.27,0.001
	c0.17,0.169,0.264,0.395,0.264,0.635S31.609,3.007,31.439,3.177L31.439,3.177L31.439,3.177z"/>
</svg>
