<?xml version="1.0" encoding="utf-8"?>
<!-- Generator: Adobe Illustrator 16.0.0, SVG Export Plug-In . SVG Version: 6.00 Build 0)  -->
<!DOCTYPE svg PUBLIC "-//W3C//DTD SVG 1.1//EN" "http://www.w3.org/Graphics/SVG/1.1/DTD/svg11.dtd">
<svg version="1.1" id="Layer_1" xmlns="http://www.w3.org/2000/svg" xmlns:xlink="http://www.w3.org/1999/xlink" x="0px" y="0px"
	 width="32px" height="32px" viewBox="0 0 32 32" enable-background="new 0 0 32 32" xml:space="preserve">
<title>custom-refresh</title>
<path fill="#3272A0" d="M3.661,13.38c1.027,0,1.953-0.616,2.351-1.564C7.652,7.91,11.506,5.158,16,5.158
	c2.477,0,4.748,0.849,6.57,2.257l-1.428,0.221c-0.488,0.076-0.867,0.463-0.933,0.951c-0.067,0.488,0.196,0.963,0.646,1.165
	l7.849,3.53c0.345,0.155,0.743,0.125,1.06-0.079c0.317-0.204,0.51-0.554,0.512-0.931l0.039-8.646
	c0.004-0.492-0.316-0.927-0.787-1.071c-0.471-0.143-0.979,0.039-1.252,0.449L27.193,4.63C24.309,1.791,20.357,0.037,16,0.037
	c-6.606,0-12.286,4.034-14.708,9.768C0.955,10.6,1.04,11.51,1.517,12.229s1.281,1.153,2.145,1.153l0,0L3.661,13.38z M30.484,19.773
	c-0.477-0.721-1.282-1.153-2.146-1.153c-1.026,0-1.954,0.616-2.351,1.563c-1.639,3.907-5.494,6.658-9.988,6.658
	c-2.477,0-4.748-0.849-6.569-2.257l1.427-0.221c0.487-0.075,0.867-0.464,0.933-0.95c0.066-0.49-0.198-0.963-0.647-1.165l-7.847-3.53
	c-0.344-0.154-0.742-0.126-1.06,0.079c-0.316,0.204-0.508,0.554-0.511,0.931l-0.04,8.646c-0.003,0.492,0.318,0.927,0.788,1.07
	c0.471,0.144,0.979-0.037,1.252-0.447l1.082-1.626c2.884,2.839,6.835,4.594,11.192,4.594c6.605,0,12.286-4.034,14.708-9.768
	C31.045,21.402,30.961,20.492,30.484,19.773L30.484,19.773L30.484,19.773z"/>
</svg>
