<?xml version="1.0" encoding="utf-8"?>
<!-- Generator: Adobe Illustrator 16.0.0, SVG Export Plug-In . SVG Version: 6.00 Build 0)  -->
<!DOCTYPE svg PUBLIC "-//W3C//DTD SVG 1.1//EN" "http://www.w3.org/Graphics/SVG/1.1/DTD/svg11.dtd">
<svg version="1.1" id="Layer_1" xmlns="http://www.w3.org/2000/svg" xmlns:xlink="http://www.w3.org/1999/xlink" x="0px" y="0px"
	 width="32px" height="32px" viewBox="0 0 32 32" enable-background="new 0 0 32 32" xml:space="preserve">
<title>custom-close</title>
<path fill="#3272A0" d="M15.999,0C7.177,0,0,7.178,0,16c0,8.822,7.177,16,15.999,16C24.82,32,32,24.822,32,16
	C32,7.178,24.822,0,15.999,0L15.999,0z M15.999,29.902C8.334,29.902,2.098,23.665,2.098,16S8.334,2.099,15.999,2.099
	C23.666,2.099,29.9,8.335,29.9,16S23.665,29.902,15.999,29.902L15.999,29.902z"/>
<path fill="#3272A0" d="M21.238,10.762c-0.41-0.41-1.074-0.41-1.483,0L16,14.516l-3.754-3.754c-0.41-0.41-1.074-0.41-1.484,0
	c-0.41,0.41-0.41,1.074,0,1.484L14.516,16l-3.754,3.754c-0.41,0.41-0.41,1.075,0,1.484c0.205,0.203,0.474,0.307,0.742,0.307
	s0.537-0.104,0.741-0.307L16,17.484l3.754,3.754c0.204,0.205,0.473,0.307,0.741,0.307s0.537-0.102,0.741-0.307
	c0.412-0.41,0.412-1.074,0-1.484L17.482,16l3.754-3.754C21.648,11.836,21.648,11.173,21.238,10.762L21.238,10.762z"/>
</svg>
