<?xml version="1.0" encoding="utf-8"?>
<!-- Generator: Adobe Illustrator 16.0.0, SVG Export Plug-In . SVG Version: 6.00 Build 0)  -->
<!DOCTYPE svg PUBLIC "-//W3C//DTD SVG 1.1//EN" "http://www.w3.org/Graphics/SVG/1.1/DTD/svg11.dtd">
<svg version="1.1" id="Layer_1" xmlns="http://www.w3.org/2000/svg" xmlns:xlink="http://www.w3.org/1999/xlink" x="0px" y="0px"
	 width="32px" height="32px" viewBox="0 0 32 32" enable-background="new 0 0 32 32" xml:space="preserve">
<title>custom-close-deployment</title>
<path fill="#3272A0" d="M15.999,0C7.177,0,0,7.178,0,16c0,8.822,7.177,16,15.999,16C24.82,32,32,24.822,32,16
	C32,7.178,24.822,0,15.999,0L15.999,0z M15.999,30.721C7.883,30.721,1.28,24.117,1.28,16S7.882,1.28,15.999,1.28
	c8.118,0,14.722,6.604,14.722,14.72S24.117,30.721,15.999,30.721L15.999,30.721z M21.238,10.762c-0.41-0.41-1.074-0.41-1.483,0
	L16,14.516l-3.754-3.754c-0.41-0.41-1.074-0.41-1.484,0c-0.41,0.41-0.41,1.074,0,1.484L14.516,16l-3.754,3.754
	c-0.41,0.41-0.41,1.075,0,1.484c0.205,0.203,0.474,0.307,0.742,0.307s0.537-0.104,0.741-0.307L16,17.484l3.754,3.754
	c0.204,0.205,0.473,0.307,0.741,0.307s0.537-0.102,0.741-0.307c0.412-0.41,0.412-1.074,0-1.484L17.482,16l3.754-3.754
	C21.648,11.836,21.648,11.173,21.238,10.762L21.238,10.762z"/>
</svg>
