<?xml version="1.0" encoding="utf-8"?>
<!-- Generator: Adobe Illustrator 16.0.0, SVG Export Plug-In . SVG Version: 6.00 Build 0)  -->
<!DOCTYPE svg PUBLIC "-//W3C//DTD SVG 1.1//EN" "http://www.w3.org/Graphics/SVG/1.1/DTD/svg11.dtd">
<svg version="1.1" id="Layer_1" xmlns="http://www.w3.org/2000/svg" xmlns:xlink="http://www.w3.org/1999/xlink" x="0px" y="0px"
	 width="32px" height="32px" viewBox="0 0 32 32" enable-background="new 0 0 32 32" xml:space="preserve">
<title>custom-cogwheel</title>
<path fill="#3272A0" d="M18.756,16c0,1.525-1.234,2.76-2.756,2.76c-1.521,0-2.76-1.234-2.76-2.76c0-1.522,1.238-2.757,2.76-2.757
	C17.521,13.243,18.756,14.478,18.756,16L18.756,16z"/>
<path fill="#3272A0" d="M31.35,13.267l-3.854-0.721c-0.236-0.78-0.543-1.529-0.921-2.233l2.23-3.261
	c0.207-0.3,0.16-0.756-0.098-1.012l-2.751-2.753c-0.258-0.258-0.71-0.301-1.011-0.093l-3.264,2.233
	c-0.725-0.391-1.494-0.705-2.299-0.94l-0.717-3.836c-0.068-0.359-0.42-0.65-0.786-0.65h-3.891c-0.365,0-0.714,0.291-0.782,0.65
	l-0.728,3.874c-0.769,0.236-1.509,0.543-2.207,0.921L7.053,3.242C6.75,3.035,6.297,3.078,6.039,3.337L3.29,6.086
	C3.031,6.345,2.989,6.8,3.196,7.1l2.218,3.241c-0.375,0.695-0.675,1.435-0.909,2.204L0.65,13.266C0.291,13.337,0,13.686,0,14.051
	v3.891c0,0.365,0.291,0.715,0.65,0.783l3.852,0.724c0.237,0.784,0.547,1.541,0.927,2.25l-2.191,3.204
	c-0.207,0.302-0.165,0.754,0.093,1.013l2.751,2.753c0.258,0.259,0.71,0.298,1.014,0.093l3.203-2.194
	c0.688,0.375,1.419,0.676,2.184,0.91l0.724,3.873c0.067,0.358,0.419,0.649,0.784,0.649h3.887c0.369,0,0.718-0.291,0.786-0.649
	l0.721-3.836c0.795-0.232,1.559-0.543,2.275-0.928l3.244,2.221c0.301,0.207,0.756,0.164,1.011-0.094l2.751-2.751
	c0.258-0.259,0.3-0.71,0.098-1.011l-2.207-3.229c0.387-0.718,0.7-1.48,0.94-2.275l3.853-0.725c0.357-0.068,0.649-0.416,0.649-0.781
	v-3.891C31.999,13.686,31.708,13.337,31.35,13.267L31.35,13.267L31.35,13.267z M16,22.677c-3.684,0-6.674-2.989-6.674-6.677
	c0-3.684,2.989-6.673,6.674-6.673c3.688,0,6.673,2.989,6.673,6.673C22.673,19.688,19.684,22.677,16,22.677L16,22.677z"/>
</svg>
