<?xml version="1.0" encoding="utf-8"?>
<!-- Generator: Adobe Illustrator 16.0.0, SVG Export Plug-In . SVG Version: 6.00 Build 0)  -->
<!DOCTYPE svg PUBLIC "-//W3C//DTD SVG 1.1//EN" "http://www.w3.org/Graphics/SVG/1.1/DTD/svg11.dtd">
<svg version="1.1" id="Layer_1" xmlns="http://www.w3.org/2000/svg" xmlns:xlink="http://www.w3.org/1999/xlink" x="0px" y="0px"
	 width="34px" height="32px" viewBox="0 0 34 32" enable-background="new 0 0 34 32" xml:space="preserve">
<title>custom-dashboard</title>
<path fill="#3272A0" d="M32.673,0.01H1.383c-0.763,0-1.381,0.618-1.381,1.38v22.73c0,0.763,0.618,1.38,1.381,1.38h11.013
	l-1.178,4.005H9.791c-0.362,0-0.656,0.294-0.656,0.657v1.078c0,0.363,0.294,0.656,0.656,0.656h14.477
	c0.361,0,0.655-0.293,0.655-0.656v-1.078c0-0.363-0.294-0.657-0.655-0.657h-1.429L21.662,25.5h11.012
	c0.764,0,1.381-0.617,1.381-1.38V1.391C34.055,0.628,33.438,0.01,32.673,0.01L32.673,0.01L32.673,0.01z M31.293,20.439H2.764V2.77
	h28.529V20.439z"/>
</svg>
