<?xml version="1.0" encoding="utf-8"?>
<!-- Generator: Adobe Illustrator 16.0.0, SVG Export Plug-In . SVG Version: 6.00 Build 0)  -->
<!DOCTYPE svg PUBLIC "-//W3C//DTD SVG 1.1//EN" "http://www.w3.org/Graphics/SVG/1.1/DTD/svg11.dtd">
<svg version="1.1" id="Layer_1" xmlns="http://www.w3.org/2000/svg" xmlns:xlink="http://www.w3.org/1999/xlink" x="0px" y="0px"
	 width="32px" height="32px" viewBox="0 0 32 32" enable-background="new 0 0 32 32" xml:space="preserve">
<title>custom-delete</title>
<path fill="#3272A0" d="M6.835,30.52c0.036,0.867,0.749,1.551,1.616,1.551h15.1c0.867,0,1.579-0.685,1.615-1.551l1.08-22.764H5.757
	L6.835,30.52z M19.416,13.411c0-0.362,0.294-0.657,0.656-0.657h1.052c0.362,0,0.655,0.294,0.655,0.657v13.005
	c0,0.363-0.293,0.657-0.655,0.657h-1.052c-0.362,0-0.656-0.294-0.656-0.657V13.411z M14.818,13.411c0-0.362,0.294-0.657,0.656-0.657
	h1.051c0.363,0,0.658,0.294,0.658,0.657v13.005c0,0.363-0.295,0.657-0.658,0.657h-1.051c-0.362,0-0.656-0.294-0.656-0.657V13.411z
	 M10.22,13.411c0-0.362,0.294-0.657,0.657-0.657h1.051c0.362,0,0.657,0.294,0.657,0.657v13.005c0,0.363-0.295,0.657-0.657,0.657
	h-1.051c-0.363,0-0.657-0.294-0.657-0.657V13.411z M26.963,1.587h-6.965V0.27c0-0.187-0.152-0.339-0.34-0.339h-7.315
	c-0.188,0-0.339,0.152-0.339,0.339v1.316H5.038c-0.56,0-1.015,0.454-1.015,1.015v3.188h23.956V2.601
	C27.979,2.04,27.523,1.587,26.963,1.587L26.963,1.587z"/>
</svg>
