<?xml version="1.0" encoding="utf-8"?>
<!-- Generator: Adobe Illustrator 16.0.0, SVG Export Plug-In . SVG Version: 6.00 Build 0)  -->
<!DOCTYPE svg PUBLIC "-//W3C//DTD SVG 1.1//EN" "http://www.w3.org/Graphics/SVG/1.1/DTD/svg11.dtd">
<svg version="1.1" id="Layer_1" xmlns="http://www.w3.org/2000/svg" xmlns:xlink="http://www.w3.org/1999/xlink" x="0px" y="0px"
	 width="32px" height="32px" viewBox="0 0 32 32" enable-background="new 0 0 32 32" xml:space="preserve">
<title>custom-refresh-2</title>
<path fill="#3272A0" d="M5.248,7.936c2.368-3.328,6.208-5.44,10.368-5.44c6.976,0,12.672,5.696,12.672,12.672h2.496
	C30.784,6.784,24,0,15.616,0c-2.944,0-5.76,0.832-8.192,2.432c-1.536,0.96-2.88,2.24-3.968,3.712L0.192,2.88v9.472h9.472
	L5.248,7.936z M31.809,19.648h-9.473l4.416,4.416c-2.368,3.328-6.208,5.439-10.368,5.439c-6.976,0-12.672-5.695-12.672-12.672H1.216
	C1.216,25.216,8,32,16.384,32c2.944,0,5.761-0.832,8.192-2.432c1.535-1.024,2.88-2.24,3.968-3.713l3.265,3.265V19.648z"/>
</svg>
