<?xml version="1.0" encoding="utf-8"?>
<!-- Generator: Adobe Illustrator 16.0.0, SVG Export Plug-In . SVG Version: 6.00 Build 0)  -->
<!DOCTYPE svg PUBLIC "-//W3C//DTD SVG 1.1//EN" "http://www.w3.org/Graphics/SVG/1.1/DTD/svg11.dtd">
<svg version="1.1" id="Layer_1" xmlns="http://www.w3.org/2000/svg" xmlns:xlink="http://www.w3.org/1999/xlink" x="0px" y="0px"
	 width="32px" height="32px" viewBox="0 0 32 32" enable-background="new 0 0 32 32" xml:space="preserve">
<title>custom-query</title>
<path fill="#64953B" d="M16,0c8.822,0,16,7.177,16,16s-7.178,16-16,16C7.176,32,0,24.822,0,16C0,7.178,7.176,0,16,0z M16,31.359
	c8.471,0,15.359-6.889,15.359-15.359c0-8.47-6.889-15.36-15.359-15.36C7.53,0.64,0.64,7.53,0.64,16
	C0.64,24.471,7.53,31.359,16,31.359z M20.216,23.729H8.621V8.27h11.596v2.635l1.545-1.723V8.298c0-0.869-0.705-1.574-1.574-1.574
	H8.649c-0.869,0-1.574,0.704-1.574,1.574v15.403c0,0.869,0.705,1.574,1.574,1.574h11.541c0.867,0,1.574-0.705,1.574-1.574v-5.073
	l-1.547,1.724L20.216,23.729z M18.904,11.105c0-0.427-0.346-0.772-0.771-0.772h-7.436c-0.426-0.001-0.772,0.346-0.772,0.772
	c0,0.426,0.346,0.772,0.772,0.772h7.435C18.561,11.877,18.904,11.531,18.904,11.105z M17.841,13.571h-7.144
	c-0.427,0-0.772,0.346-0.772,0.772c0,0.426,0.346,0.773,0.772,0.773h5.756L17.841,13.571L17.841,13.571z M14.951,16.771h-4.254
	c-0.427,0-0.772,0.348-0.772,0.773s0.346,0.771,0.772,0.771h3.379L14.951,16.771L14.951,16.771z M9.924,20.785
	c0,0.426,0.346,0.771,0.772,0.771h2.474c0.01-0.111,0.026-0.173,0.05-0.255l0.372-1.292h-2.896
	C10.27,20.012,9.924,20.357,9.924,20.785z M21.527,11.179l-5.815,6.483l2.972,2.665l0.418-0.466l5.885-6.562l-2.971-2.665
	L21.527,11.179L21.527,11.179z M21.27,13.896l-3.539,3.945c-0.043,0.05-0.105,0.08-0.172,0.083c-0.066,0.004-0.132-0.02-0.182-0.063
	l-0.175-0.157c-0.103-0.093-0.111-0.252-0.019-0.354l3.539-3.946c0.043-0.05,0.104-0.08,0.172-0.083
	c0.066-0.003,0.131,0.019,0.182,0.064l0.174,0.158C21.354,13.636,21.361,13.794,21.27,13.896L21.27,13.896z M22.299,12.022
	l0.176,0.157c0.103,0.092,0.11,0.25,0.019,0.353l-0.044,0.051l-0.254,0.282l-0.012,0.012c-0.043,0.05-0.104,0.079-0.172,0.083
	c-0.068,0.004-0.132-0.019-0.182-0.064l-0.176-0.157c-0.049-0.044-0.078-0.107-0.082-0.173s0.019-0.132,0.064-0.181l0.307-0.343
	C22.039,11.94,22.197,11.931,22.299,12.022L22.299,12.022z M22.525,10.067L22.3,10.316l2.974,2.665l0.729-0.813l-2.971-2.664
	L22.525,10.067L22.525,10.067z M27.482,10.138c-0.015-0.228-0.115-0.444-0.285-0.597l-1.684-1.51
	c-0.174-0.154-0.396-0.232-0.625-0.22s-0.445,0.115-0.599,0.286l-0.994,1.107l2.974,2.664l0.992-1.107
	C27.416,10.592,27.495,10.368,27.482,10.138z M26.209,10.758l-1.8-1.615l0.521-0.579l1.799,1.614L26.209,10.758z M14.461,22.045
	c0.123,0.109,0.298,0.141,0.451,0.077l3.416-1.399l-2.971-2.664l-1.021,3.547C14.289,21.764,14.339,21.936,14.461,22.045z
	 M15.629,19.006l1.725,1.549l-1.34,0.551L15.227,20.4L15.629,19.006z"/>
</svg>
