<?xml version="1.0" encoding="utf-8"?>
<!-- Generator: Adobe Illustrator 16.0.0, SVG Export Plug-In . SVG Version: 6.00 Build 0)  -->
<!DOCTYPE svg PUBLIC "-//W3C//DTD SVG 1.1//EN" "http://www.w3.org/Graphics/SVG/1.1/DTD/svg11.dtd">
<svg version="1.1" id="Layer_1" xmlns="http://www.w3.org/2000/svg" xmlns:xlink="http://www.w3.org/1999/xlink" x="0px" y="0px"
	 width="42px" height="32px" viewBox="0 0 42 32" enable-background="new 0 0 42 32" xml:space="preserve">
<title>custom-logout</title>
<path fill="#3272A0" d="M7.309,23.296c0.419,0,0.815-0.163,1.118-0.461c0.611-0.614,0.611-1.612,0-2.231l-3.048-3.037h20.867
	c0.871,0,1.579-0.709,1.579-1.581c0-0.871-0.708-1.579-1.579-1.579H5.384l3.043-3.043c0.615-0.615,0.615-1.617-0.005-2.237
	c-0.298-0.3-0.694-0.462-1.113-0.462S6.494,8.828,6.191,9.126l-5.727,5.736c-0.149,0.145-0.265,0.322-0.354,0.531
	c-0.074,0.191-0.116,0.391-0.116,0.592c0,0.205,0.037,0.405,0.121,0.601c0.079,0.2,0.2,0.372,0.34,0.512l5.736,5.737
	C6.488,23.132,6.884,23.295,7.309,23.296L7.309,23.296L7.309,23.296z"/>
<path fill="#3272A0" d="M40.934,0.273h-29.1c-0.643,0-1.165,0.522-1.165,1.165V12.92h2.913V3.186h25.609v25.611H13.582v-9.74h-2.913
	v11.481c0,0.644,0.522,1.166,1.165,1.166h29.1c0.644,0,1.166-0.522,1.166-1.166v-29.1C42.098,0.795,41.576,0.273,40.934,0.273
	L40.934,0.273z"/>
</svg>
