<?xml version="1.0" encoding="utf-8"?>
<!-- Generator: Adobe Illustrator 16.0.0, SVG Export Plug-In . SVG Version: 6.00 Build 0)  -->
<!DOCTYPE svg PUBLIC "-//W3C//DTD SVG 1.1//EN" "http://www.w3.org/Graphics/SVG/1.1/DTD/svg11.dtd">
<svg version="1.1" id="Layer_1" xmlns="http://www.w3.org/2000/svg" xmlns:xlink="http://www.w3.org/1999/xlink" x="0px" y="0px"
	 width="32px" height="32px" viewBox="0 0 32 32" enable-background="new 0 0 32 32" xml:space="preserve">
<title>custom-copy</title>
<path fill="#3272A0" d="M26.917,18.555c-0.013-0.014-0.019-0.027-0.028-0.037c-2.285-2.233-4.57-4.467-6.854-6.701
	c-0.001-0.001-0.006,0.001-0.012,0.003c-0.002,0.006-0.006,0.013-0.006,0.021c0,0.029,0,0.059,0,0.088c0,1.32,0,2.637,0,3.956
	c0,0.033,0.002,0.065-0.002,0.097c-0.01,0.076-0.047,0.115-0.123,0.125c-0.025,0.004-0.052,0.005-0.078,0.005
	c-0.932,0-1.865,0-2.799,0c-0.017,0-0.035,0-0.052-0.001c-0.052-0.004-0.096-0.02-0.133-0.058c-0.093-0.092-0.185-0.179-0.276-0.269
	c-0.459-0.451-0.918-0.9-1.378-1.35c-0.56-0.548-1.12-1.097-1.68-1.644c-0.132-0.129-0.262-0.259-0.396-0.386
	c-0.053-0.05-0.079-0.107-0.076-0.178c0-0.017,0-0.035,0-0.052c0-2.31,0-4.62-0.001-6.929c0-0.118,0.01-0.234,0.045-0.346
	c0.106-0.343,0.329-0.573,0.668-0.687c0.114-0.039,0.233-0.054,0.355-0.053c0.69,0.001,1.379,0,2.07,0.001
	c0.038,0,0.076,0.004,0.113,0.012c0.055,0.011,0.085,0.049,0.093,0.104c0.004,0.034,0.004,0.069,0.004,0.104
	c0,0.886,0,1.772,0.001,2.657c0,0.056,0.001,0.112,0.008,0.166c0.033,0.278,0.176,0.486,0.406,0.635
	c0.15,0.097,0.316,0.148,0.497,0.147c0.026-0.001,0.053,0,0.079,0c3.436,0,6.871,0,10.307,0c0.092,0,0.182,0.001,0.271-0.02
	c0.365-0.086,0.627-0.352,0.697-0.687c0.014-0.068,0.016-0.14,0.016-0.209c0-0.46,0-0.918,0-1.377c0-0.438,0-0.877,0.002-1.316
	c0-0.035,0.002-0.07,0.008-0.104c0.009-0.06,0.045-0.094,0.104-0.104c0.03-0.006,0.063-0.008,0.094-0.008
	c0.291-0.001,0.58-0.001,0.869-0.001c0.412,0,0.824-0.001,1.236,0.001c0.251,0.002,0.477,0.079,0.67,0.243
	c0.182,0.154,0.299,0.349,0.346,0.585c0.013,0.067,0.021,0.132,0.02,0.2c-0.001,0.02,0,0.04,0,0.061c0,6.356,0,12.712,0.001,19.067
	c0,0.106-0.008,0.211-0.035,0.313c-0.04,0.152-0.118,0.28-0.229,0.387c-0.116,0.111-0.252,0.188-0.409,0.229
	c-0.127,0.033-0.257,0.051-0.39,0.051c-3.5-0.001-7-0.001-10.498-0.001c-0.033,0-0.066,0-0.096-0.006
	c-0.117-0.022-0.13-0.146-0.078-0.211c0.019-0.022,0.041-0.044,0.062-0.063c0.308-0.302,0.614-0.601,0.92-0.902
	c0.606-0.594,1.212-1.187,1.817-1.779c0.42-0.412,0.841-0.822,1.261-1.232c0.637-0.625,1.274-1.248,1.911-1.873
	c0.209-0.205,0.418-0.41,0.627-0.613c0.017-0.018,0.035-0.038,0.056-0.059H26.917z M19.268,15.378
	c0.014-0.046,0.008-0.084,0.008-0.121c0-1.573,0-3.146,0-4.719c0-0.05,0-0.1,0-0.149c0-0.02,0.002-0.04,0.004-0.061
	c0.018-0.093,0.117-0.136,0.197-0.087c0.021,0.013,0.041,0.033,0.061,0.051c0.093,0.092,0.188,0.184,0.281,0.277
	c0.531,0.52,1.062,1.038,1.593,1.558c0.307,0.3,0.614,0.602,0.92,0.902c0.528,0.518,1.058,1.035,1.587,1.552
	c0.309,0.303,0.618,0.606,0.928,0.909c0.582,0.57,1.166,1.141,1.748,1.711c0.41,0.4,0.819,0.802,1.229,1.203
	c0.019,0.019,0.037,0.037,0.056,0.057c0.042,0.042,0.05,0.132,0.001,0.184c-0.014,0.016-0.029,0.029-0.043,0.045
	c-0.182,0.178-0.363,0.355-0.545,0.535c-0.55,0.539-1.104,1.08-1.654,1.619c-0.295,0.288-0.589,0.577-0.884,0.865
	c-0.545,0.534-1.091,1.068-1.636,1.602c-0.24,0.235-0.48,0.471-0.721,0.705c-0.166,0.162-0.33,0.323-0.494,0.485
	c-0.014,0.015-0.037,0.026-0.035,0.062c0.031,0,0.06,0,0.088,0c2.99,0,5.982,0,8.973,0c0.041,0,0.082-0.002,0.123-0.004
	c0.047-0.002,0.092-0.02,0.133-0.043c0.047-0.025,0.071-0.066,0.073-0.119c0.001-0.032,0.001-0.065,0.001-0.097
	c0-6.345,0-12.689,0-19.034c0-0.026-0.001-0.052,0-0.079c0.008-0.145-0.132-0.297-0.296-0.296c-0.5,0.006-1,0.002-1.5,0.003
	c-0.019,0-0.039,0.003-0.065,0.006c0,0.039-0.002,0.073-0.002,0.108c0,0.684,0,1.368,0,2.052c0,0.173-0.023,0.344-0.074,0.51
	c-0.135,0.429-0.407,0.744-0.803,0.954c-0.258,0.137-0.535,0.196-0.828,0.195c-3.453,0-6.905,0-10.359,0.001
	c-0.153,0.001-0.305-0.017-0.451-0.055c-0.474-0.12-0.832-0.39-1.066-0.819c-0.127-0.232-0.185-0.485-0.186-0.75
	c-0.001-0.69,0-1.379,0-2.069c0-0.027,0.001-0.053-0.001-0.079c-0.001-0.016-0.007-0.033-0.011-0.052c-0.036,0-0.068,0-0.1,0
	c-0.47,0-0.941,0-1.412,0c-0.02,0-0.041,0.001-0.061,0c-0.137-0.008-0.28,0.14-0.277,0.275c0.001,0.026-0.001,0.052-0.001,0.079
	c0,2.228,0,4.456,0,6.684c0,0.033,0,0.065,0,0.097c1.145,1.12,2.287,2.239,3.425,3.354c0.697-0.003,1.384-0.003,2.078-0.003V15.378z
	 M0,21.74c0-2.956,0-5.911,0-8.867c0-0.097,0.011-0.192,0.03-0.287c0.073-0.346,0.369-0.652,0.724-0.738
	c0.102-0.027,0.206-0.041,0.312-0.041c2.859,0,5.718,0,8.578,0c0.027,0,0.053-0.001,0.079,0.003
	c0.088,0.011,0.129,0.054,0.136,0.143c0.001,0.026,0.001,0.052,0.001,0.079c0,0.421,0,0.842,0,1.263c0,1.505,0,3.011,0,4.516
	c0,0.033-0.001,0.065,0.001,0.098c0.003,0.15,0.113,0.266,0.262,0.277c0.038,0.002,0.077,0,0.115,0c1.967,0,3.935,0,5.902,0
	c0.036,0,0.07,0,0.106,0.002c0.075,0.008,0.116,0.049,0.124,0.125c0.002,0.014,0.002,0.028,0.002,0.043c0,0.021,0,0.041,0,0.062
	c0,4.062,0,8.121,0.001,12.183c0,0.108-0.006,0.215-0.036,0.32c-0.103,0.359-0.339,0.594-0.694,0.703
	c-0.107,0.033-0.216,0.043-0.329,0.043c-4.751-0.001-9.501-0.001-14.253,0c-0.106,0-0.209-0.014-0.312-0.039
	c-0.333-0.084-0.636-0.373-0.714-0.729c-0.022-0.097-0.033-0.194-0.033-0.293c0-2.957,0-5.912,0-8.867L0,21.74z M15.624,18.927
	c-0.042-0.018-0.083-0.01-0.124-0.01c-1.769-0.001-3.538-0.001-5.306,0c-0.118,0-0.233-0.013-0.347-0.045
	c-0.344-0.093-0.619-0.388-0.693-0.705c-0.024-0.101-0.036-0.2-0.036-0.304c0.001-1.728,0.001-3.455,0.001-5.183
	c0-0.029,0.001-0.059-0.001-0.088c0-0.013-0.003-0.028-0.005-0.044c-0.04-0.013-0.079-0.008-0.116-0.008c-2.634,0-5.268,0-7.903,0
	c-0.029,0-0.058-0.001-0.088,0c-0.14,0.007-0.253,0.116-0.265,0.257c-0.003,0.036-0.001,0.07-0.001,0.105c0,5.891,0,11.782,0,17.674
	c0,0.025,0.001,0.052,0,0.078c-0.003,0.169,0.141,0.285,0.285,0.283c0.032,0,0.065,0.002,0.097,0.002c4.71,0,9.42,0,14.13,0
	c0.027,0,0.053,0,0.079-0.002c0.015,0,0.029,0,0.044-0.002c0.146-0.015,0.251-0.129,0.253-0.275
	c0.001-0.039,0.001-0.076,0.001-0.115c0-3.83,0-7.66,0-11.488c0-0.029,0-0.06-0.001-0.089C15.63,18.956,15.627,18.941,15.624,18.927
	L15.624,18.927z M19.527,2.873c0.018-0.026,0.011-0.056,0.012-0.085c0-0.228-0.002-0.456,0.001-0.684
	c0.006-0.538,0.212-0.988,0.608-1.349c0.271-0.249,0.596-0.386,0.963-0.419c0.043-0.004,0.088-0.004,0.132-0.004
	c0.845,0,1.69,0,2.534,0c0.436,0,0.813,0.151,1.13,0.447c0.346,0.323,0.536,0.725,0.579,1.195c0.005,0.044,0.004,0.088,0.004,0.132
	c0.001,0.228,0,0.456,0.001,0.684c0,0.026,0.001,0.052,0.002,0.075c0.024,0.024,0.052,0.017,0.077,0.017
	c0.221,0.001,0.439,0,0.658,0.001c0.088,0,0.174-0.001,0.262,0.006c0.521,0.04,0.941,0.273,1.263,0.685
	c0.185,0.236,0.288,0.507,0.328,0.802c0.01,0.072,0.012,0.146,0.012,0.219c0.001,0.397-0.002,0.795,0.001,1.192
	c0.006,0.815-0.562,1.393-1.189,1.577c-0.174,0.051-0.354,0.077-0.536,0.077c-2.57-0.001-5.14-0.001-7.709-0.001
	c-0.447,0-0.845-0.14-1.181-0.436c-0.27-0.237-0.443-0.533-0.513-0.888c-0.021-0.106-0.032-0.213-0.032-0.322
	c0-0.401-0.004-0.801,0-1.202c0.008-0.555,0.234-1.004,0.67-1.348c0.244-0.194,0.523-0.304,0.83-0.346
	c0.082-0.011,0.164-0.013,0.246-0.013c0.252-0.002,0.504-0.001,0.756-0.001c0.029,0.001,0.063,0.008,0.094-0.008L19.527,2.873z
	 M22.507,6.709c1.263,0,2.525,0,3.789,0c0.035,0,0.07-0.001,0.106-0.001c0.199-0.001,0.382-0.055,0.545-0.167
	c0.257-0.176,0.406-0.415,0.404-0.735c-0.002-0.216,0-0.433,0-0.649c0-0.199-0.002-0.397,0-0.596c0-0.086-0.012-0.17-0.037-0.252
	c-0.129-0.406-0.524-0.705-0.951-0.698c-0.465,0.007-0.928,0.001-1.395,0.001c-0.029,0-0.058,0.001-0.087-0.001
	c-0.08-0.008-0.122-0.049-0.131-0.127c-0.004-0.029-0.003-0.058-0.003-0.088c-0.001-0.427,0-0.854-0.001-1.281
	c0-0.097-0.006-0.193-0.035-0.286c-0.063-0.212-0.173-0.396-0.34-0.541s-0.356-0.233-0.583-0.224c-0.023,0.001-0.046,0-0.068,0
	c-0.703,0-1.404,0-2.107,0c-0.133,0-0.268-0.001-0.403,0.001c-0.049,0.001-0.099,0.003-0.147,0.013
	c-0.138,0.026-0.261,0.086-0.367,0.175c-0.27,0.223-0.418,0.506-0.418,0.861c0.002,0.43,0.002,0.86,0.002,1.29
	c0,0.029,0,0.06-0.004,0.088c-0.012,0.076-0.051,0.113-0.127,0.12c-0.029,0.003-0.059,0.002-0.088,0.002c-0.468,0-0.936,0-1.403,0
	c-0.101,0-0.198,0.011-0.294,0.041c-0.379,0.122-0.702,0.5-0.69,0.956c0.013,0.386,0.003,0.772,0.003,1.158
	c0,0.05,0.001,0.1,0.006,0.149c0.006,0.049,0.014,0.098,0.029,0.145c0.113,0.348,0.441,0.607,0.807,0.638
	c0.063,0.006,0.127,0.008,0.192,0.008C19.975,6.71,21.241,6.71,22.507,6.709L22.507,6.709z M20.84,20.193
	c-0.045,0-0.08-0.002-0.115-0.002c-1.188,0-2.379,0-3.568,0c-0.03,0-0.061,0-0.088-0.002c-0.077-0.006-0.117-0.041-0.131-0.117
	c-0.006-0.031-0.006-0.064-0.006-0.096c0-0.824,0-1.648,0-2.473c0-0.134-0.002-0.27,0-0.402c0-0.029,0.004-0.059,0.01-0.088
	c0.011-0.055,0.047-0.086,0.1-0.097c0.018-0.004,0.034-0.006,0.052-0.006c0.026-0.001,0.052,0,0.079,0c1.186,0,2.367,0,3.553,0
	c0.034,0,0.068-0.001,0.107-0.002c0.003-0.021,0.008-0.039,0.008-0.056c0.001-0.078,0-0.156,0-0.235c0-0.623,0-1.245,0-1.868
	c0-0.029-0.001-0.059,0.002-0.088c0.006-0.055,0.026-0.101,0.083-0.124c0.056-0.021,0.104-0.006,0.146,0.033
	c0.056,0.052,0.109,0.106,0.164,0.159c0.537,0.525,1.074,1.052,1.611,1.577c0.559,0.548,1.119,1.095,1.68,1.645
	c0.158,0.155,0.316,0.31,0.477,0.465c0.016,0.017,0.033,0.033,0.047,0.051c0.04,0.052,0.04,0.12-0.001,0.171
	c-0.017,0.022-0.04,0.043-0.06,0.063c-0.381,0.372-0.76,0.743-1.141,1.116c-0.242,0.236-0.484,0.475-0.727,0.711
	c-0.543,0.533-1.086,1.064-1.629,1.597c-0.121,0.119-0.242,0.237-0.363,0.356c-0.023,0.021-0.045,0.045-0.07,0.064
	c-0.09,0.064-0.195,0.021-0.213-0.086c-0.006-0.031-0.004-0.064-0.004-0.095c-0.001-0.685-0.001-1.368-0.001-2.052
	c-0.001-0.035-0.001-0.07-0.001-0.119V20.193z M21.58,16.122c0,0.04,0,0.072,0,0.104c0,0.404,0,0.807-0.001,1.209
	c0,0.029,0.001,0.06-0.003,0.088c-0.008,0.06-0.04,0.099-0.098,0.11c-0.037,0.007-0.074,0.011-0.113,0.011c-0.936,0-1.871,0-2.807,0
	c-0.26,0-0.521,0-0.781,0c-0.031,0-0.064-0.004-0.096,0.008c-0.014,0.035-0.009,0.07-0.009,0.104
	c-0.001,0.529-0.001,1.06-0.001,1.589c0,0.02-0.001,0.039,0.001,0.061c0.001,0.016,0.007,0.033,0.011,0.054
	c0.041,0.001,0.078,0.002,0.117,0.002c1.176,0,2.352,0,3.526,0c0.026,0,0.052-0.001,0.079,0c0.142,0.001,0.176,0.071,0.173,0.177
	c-0.002,0.116,0,0.234,0,0.352c0,0.31-0.001,0.619,0,0.929c0.001,0.021-0.011,0.047,0.013,0.063
	c0.061-0.043,2.447-2.379,2.481-2.432c-0.007-0.008-0.013-0.019-0.021-0.025c-0.814-0.797-1.63-1.594-2.445-2.392
	c-0.004-0.004-0.012-0.004-0.03-0.011L21.58,16.122z M13.971,17.643c-0.827,0-1.654,0-2.481,0.002c-0.097,0-0.192-0.014-0.286-0.033
	c-0.339-0.07-0.689-0.36-0.765-0.801c-0.011-0.063-0.018-0.127-0.018-0.191c-0.001-1.645-0.001-3.292,0-4.937
	c0-0.032-0.001-0.065,0.007-0.095c0.021-0.093,0.117-0.132,0.199-0.081c0.019,0.012,0.036,0.029,0.053,0.045
	c0.203,0.198,0.405,0.396,0.607,0.595c0.613,0.599,1.224,1.197,1.837,1.797c0.29,0.284,0.58,0.569,0.87,0.853
	c0.552,0.54,1.103,1.08,1.654,1.619c0.325,0.319,0.651,0.638,0.977,0.957c0.018,0.017,0.034,0.032,0.049,0.051
	c0.057,0.063,0.04,0.192-0.072,0.212c-0.035,0.006-0.069,0.01-0.104,0.01c-0.543,0-1.087,0-1.631,0c-0.3,0-0.598,0-0.896,0
	L13.971,17.643z M15.092,16.91c-0.026-0.029-0.036-0.043-0.048-0.055c-0.153-0.149-0.306-0.299-0.458-0.447
	c-0.564-0.552-1.128-1.104-1.692-1.656c-0.466-0.457-0.931-0.913-1.396-1.37c-0.099-0.096-0.197-0.192-0.296-0.287
	c-0.01-0.01-0.02-0.022-0.042-0.008c0,0.026,0,0.055,0,0.084c0,1.131,0,2.262,0,3.394c0,0.025-0.001,0.053,0,0.078
	c0.006,0.109,0.06,0.188,0.155,0.239c0.052,0.028,0.106,0.029,0.162,0.029c1.172,0,2.344,0,3.517,0
	C15.02,16.911,15.045,16.911,15.092,16.91L15.092,16.91z M20.018,23.145c0,0.643,0,1.285,0,1.929c0,0.028,0.002,0.058-0.002,0.088
	c-0.009,0.078-0.051,0.121-0.129,0.131c-0.02,0.003-0.039,0.002-0.061,0.002c-0.9,0-1.801,0-2.701,0
	c-0.032,0-0.064-0.003-0.096-0.01c-0.047-0.011-0.076-0.04-0.088-0.089c-0.004-0.021-0.01-0.045-0.012-0.067
	c0-0.021,0-0.041,0-0.062c0-1.283,0-2.566,0-3.851c0-0.04,0.004-0.081,0.01-0.12c0.012-0.061,0.052-0.092,0.109-0.1
	c0.026-0.003,0.053-0.004,0.079-0.004c0.897,0,1.795,0,2.692,0c0.025,0,0.052,0,0.078,0.003c0.063,0.009,0.101,0.043,0.113,0.106
	c0.004,0.025,0.004,0.051,0.004,0.078c0.002,0.137,0.002,0.274,0.002,0.412C20.018,22.109,20.018,22.626,20.018,23.145z
	 M17.675,24.548c0.093,0.017,1.005,0.022,1.534,0.013c0.02-0.002,0.039-0.004,0.053-0.006c0.008-0.009,0.01-0.011,0.012-0.014
	c0-0.014,0.002-0.029,0.002-0.043c0-0.918,0-1.835-0.002-2.753c0-0.003,0-0.006-0.002-0.009c-0.002-0.002-0.004-0.004-0.006-0.006
	c-0.07-0.014-0.899-0.02-1.514-0.01c-0.023,0-0.045,0.004-0.068,0.006c-0.004,0.019-0.009,0.032-0.009,0.047
	C17.675,22.697,17.675,23.62,17.675,24.548L17.675,24.548z M8.174,21.469c-1.777,0-3.555,0-5.332,0
	c-0.032,0-0.065,0.002-0.097-0.001c-0.088-0.009-0.131-0.052-0.137-0.141c-0.003-0.024-0.001-0.048-0.001-0.07
	c0-0.528,0-1.058,0-1.587c0-0.027-0.001-0.053,0.002-0.079c0.008-0.077,0.044-0.114,0.122-0.126
	c0.018-0.003,0.035-0.004,0.052-0.004c0.02-0.001,0.041,0,0.062,0c3.56,0,7.121,0,10.681,0c0.038,0,0.076-0.001,0.114,0.005
	c0.078,0.011,0.112,0.045,0.125,0.124c0.003,0.02,0.003,0.04,0.003,0.061c0,0.543,0,1.088,0,1.632c0,0.014,0.001,0.028-0.001,0.044
	c-0.01,0.092-0.054,0.136-0.147,0.145c-0.029,0.002-0.059,0-0.088,0c-1.786,0-3.572,0-5.358,0V21.469z M13.016,20.2
	c-0.04-0.013-0.078-0.009-0.116-0.009c-3.141,0-6.284,0-9.425,0c-0.024,0-0.047,0-0.07,0c-0.017,0.002-0.033,0.007-0.054,0.01
	C3.35,20.264,3.35,20.32,3.35,20.379s-0.001,0.117,0,0.176c0.001,0.057-0.004,0.114,0.005,0.178c0.042,0,0.079,0.002,0.117,0.002
	c3.142,0,6.284,0,9.427,0c0.023,0,0.047,0.002,0.07,0c0.017-0.002,0.034-0.004,0.049-0.008c0.009-0.063,0.014-0.371,0.008-0.485
	c-0.001-0.013-0.006-0.027-0.008-0.042L13.016,20.2z M8.182,24.561c1.78,0,3.56,0,5.341,0c0.032,0,0.065,0,0.096,0.002
	c0.098,0.008,0.14,0.053,0.148,0.149c0.001,0.013,0.001,0.024,0.001,0.035c0,0.547,0,1.094,0,1.64c0,0.141-0.062,0.18-0.18,0.182
	c-0.02,0-0.041,0-0.061,0c-3.561,0-7.121,0-10.682,0c-0.043,0-0.088-0.002-0.131-0.01c-0.064-0.013-0.095-0.048-0.104-0.113
	c-0.003-0.025-0.003-0.053-0.003-0.078c0-0.535,0-1.069,0-1.604c0-0.031,0.001-0.06,0.004-0.089
	c0.007-0.055,0.038-0.091,0.092-0.104c0.022-0.006,0.045-0.01,0.068-0.012c0.029-0.002,0.059,0,0.088,0c1.774,0,3.549,0,5.324,0
	L8.182,24.561z M3.355,25.836c3.214,0,6.42,0,9.626,0c0.011,0,0.022-0.004,0.035-0.006c0.003-0.014,0.008-0.023,0.008-0.035
	c0-0.154,0-0.311-0.001-0.465c0-0.01-0.007-0.021-0.012-0.036c-3.209,0-6.414,0-9.62,0c-0.012,0-0.022,0.004-0.03,0.005
	c-0.004,0.01-0.01,0.014-0.01,0.02c-0.001,0.156-0.002,0.315-0.003,0.473C3.347,25.803,3.351,25.814,3.355,25.836L3.355,25.836z
	 M8.174,24.018c-1.777,0-3.555,0-5.333,0c-0.031,0-0.065,0.002-0.096-0.002c-0.089-0.006-0.131-0.049-0.138-0.138
	c-0.002-0.021-0.001-0.041-0.001-0.062c0-0.535,0-1.07,0-1.605c0-0.029,0-0.059,0.004-0.087c0.009-0.06,0.043-0.095,0.101-0.106
	c0.017-0.004,0.035-0.004,0.052-0.006c0.026-0.001,0.053,0,0.08,0c3.564,0,7.127,0,10.691,0c0.035,0,0.07-0.001,0.105,0.002
	c0.069,0.008,0.106,0.041,0.12,0.108c0.006,0.024,0.008,0.052,0.008,0.078c0,0.543,0,1.087-0.001,1.631
	c0,0.028-0.004,0.058-0.01,0.087c-0.011,0.055-0.048,0.086-0.101,0.094c-0.031,0.006-0.065,0.006-0.097,0.006
	c-0.451,0-0.9,0-1.351,0C10.862,24.018,9.518,24.018,8.174,24.018L8.174,24.018z M3.348,23.281c0.026,0.003,0.04,0.006,0.054,0.006
	c3.196-0.001,6.391-0.001,9.587-0.003c0.008,0,0.016-0.005,0.024-0.009c0.015-0.07,0.014-0.449-0.001-0.526
	c-0.038-0.013-0.078-0.006-0.118-0.006c-3.14,0-6.28,0-9.42,0c-0.024,0-0.047-0.001-0.07,0c-0.017,0.001-0.033,0.006-0.054,0.009
	c0,0.178,0,0.348,0,0.527L3.348,23.281z M8.182,29.119c-1.783,0-3.566,0-5.349,0c-0.032,0-0.065,0.001-0.096-0.003
	c-0.07-0.009-0.122-0.042-0.129-0.13c-0.001-0.027-0.001-0.053-0.001-0.079c0-0.53,0-1.06,0-1.589c0-0.034,0.001-0.069,0.007-0.104
	c0.009-0.054,0.044-0.088,0.099-0.097c0.02-0.004,0.041-0.005,0.061-0.007c0.027,0,0.053,0,0.079,0c3.558,0,7.116,0,10.673,0
	c0.041,0,0.081,0,0.123,0.005c0.058,0.006,0.097,0.038,0.109,0.096c0.007,0.035,0.01,0.069,0.01,0.104
	c0.001,0.465,0.001,0.929,0.001,1.395c0,0.073,0.001,0.146,0,0.221c-0.001,0.025-0.004,0.051-0.008,0.076
	c-0.01,0.061-0.048,0.092-0.105,0.104c-0.017,0.004-0.035,0.005-0.052,0.005c-0.029,0.001-0.058,0.001-0.088,0.001
	c-1.777-0.001-3.554-0.001-5.332-0.001L8.182,29.119z M13.013,27.852c-0.036-0.016-0.074-0.009-0.111-0.009
	c-3.146-0.001-6.292-0.001-9.439-0.001c-0.02,0-0.041-0.001-0.061,0.001c-0.017,0.001-0.033,0.007-0.054,0.011
	c0,0.062,0,0.119,0,0.178s-0.001,0.117,0,0.175s-0.008,0.116,0.008,0.171c0.08,0.012,9.368,0.018,9.617,0.008
	c0.013-0.001,0.028-0.004,0.043-0.006c0.003-0.014,0.007-0.025,0.007-0.036c0-0.155,0-0.31-0.001-0.465
	c0-0.008-0.005-0.015-0.009-0.024V27.852z M5.582,14.361c0.917,0,1.836,0,2.754,0c0.031,0,0.065-0.001,0.096,0.003
	c0.069,0.008,0.104,0.04,0.119,0.108c0.006,0.022,0.007,0.047,0.007,0.07c0,0.549,0,1.1,0,1.649c0,0.006,0,0.012,0,0.017
	c-0.006,0.108-0.051,0.154-0.157,0.159c-0.024,0.001-0.047,0.001-0.07,0.001c-1.832,0-3.666,0-5.499-0.001
	c-0.029,0-0.058,0.001-0.088-0.001c-0.083-0.007-0.127-0.049-0.136-0.132c-0.001-0.02-0.001-0.04-0.001-0.061
	c0-0.541,0-1.081,0-1.622c0-0.026,0.001-0.052,0.005-0.078c0.01-0.058,0.045-0.095,0.103-0.105c0.037-0.005,0.076-0.005,0.113-0.005
	c0.917,0.001,1.836,0.001,2.753,0.001L5.582,14.361z M7.805,15.629c0.006-0.015,0.008-0.021,0.008-0.027
	c0.001-0.157,0.001-0.315,0.001-0.472c0-0.012-0.007-0.021-0.013-0.038c-0.036-0.001-0.07-0.001-0.106-0.001
	c-1.411,0-2.823,0-4.234,0c-0.02,0-0.041-0.001-0.061,0.001c-0.017,0.002-0.033,0.006-0.053,0.012c0,0.062,0,0.12,0,0.178
	c0,0.058-0.001,0.116,0,0.175c0.003,0.057-0.01,0.115,0.011,0.177c1.462,0,2.924,0,4.385,0C7.763,15.635,7.783,15.631,7.805,15.629
	L7.805,15.629z M5.577,18.917c-0.914,0-1.83,0-2.745,0c-0.038,0-0.076-0.001-0.113-0.006C2.653,18.9,2.62,18.866,2.611,18.802
	c-0.004-0.026-0.004-0.052-0.004-0.079c0-0.541,0-1.08,0-1.621c0-0.029,0.001-0.059,0.007-0.088
	c0.008-0.048,0.037-0.078,0.083-0.092c0.02-0.006,0.04-0.01,0.06-0.012c0.023-0.002,0.047-0.001,0.07-0.001c1.836,0,3.671,0,5.507,0
	c0.026,0,0.052-0.001,0.079,0.001c0.092,0.007,0.136,0.053,0.145,0.146c0.001,0.017,0,0.034,0,0.051c0,0.539,0,1.076,0,1.613
	c0,0.032-0.003,0.065-0.011,0.096C8.535,18.87,8.5,18.902,8.444,18.909c-0.037,0.004-0.076,0.006-0.113,0.006
	c-0.705,0-1.409,0-2.114,0C6.006,18.916,5.792,18.916,5.577,18.917L5.577,18.917z M3.351,18.178
	c0.018,0.004,0.026,0.008,0.035,0.008c1.464,0.002,2.929,0.002,4.392,0c0.009,0,0.017-0.004,0.035-0.008
	c0.007-0.056,0.003-0.113,0.003-0.172c0.001-0.061,0.002-0.122,0-0.184c-0.002-0.059,0.01-0.116-0.012-0.178
	c-0.038,0-0.076,0-0.114,0c-1.404,0-2.806,0-4.209,0c-0.026,0-0.053-0.002-0.079,0c-0.017,0.002-0.033,0.006-0.052,0.01
	c0.001,0.176,0.001,0.349,0.001,0.525V18.178z"/>
</svg>
