<?xml version="1.0" encoding="utf-8"?>
<!-- Generator: Adobe Illustrator 16.0.0, SVG Export Plug-In . SVG Version: 6.00 Build 0)  -->
<!DOCTYPE svg PUBLIC "-//W3C//DTD SVG 1.1//EN" "http://www.w3.org/Graphics/SVG/1.1/DTD/svg11.dtd">
<svg version="1.1" id="Layer_1" xmlns="http://www.w3.org/2000/svg" xmlns:xlink="http://www.w3.org/1999/xlink" x="0px" y="0px"
	 width="32px" height="32px" viewBox="0 0 32 32" enable-background="new 0 0 32 32" xml:space="preserve">
<title>custom-close-1</title>
<path fill="#3272A0" d="M0.276,31.734c0.188,0.188,0.436,0.283,0.683,0.283s0.495-0.094,0.684-0.283l14.362-14.362l14.364,14.362
	c0.188,0.189,0.436,0.283,0.682,0.283c0.248,0,0.495-0.094,0.684-0.283c0.377-0.377,0.377-0.988,0-1.365L17.373,16.005L31.736,1.642
	c0.375-0.377,0.375-0.988,0-1.366c-0.379-0.378-0.99-0.378-1.366,0L16.006,14.639L1.642,0.276c-0.377-0.378-0.988-0.378-1.366,0
	s-0.378,0.989,0,1.366l14.363,14.362L0.277,30.368C-0.101,30.745-0.101,31.357,0.276,31.734L0.276,31.734L0.276,31.734z"/>
</svg>
