<?xml version="1.0" encoding="utf-8"?>
<!-- Generator: Adobe Illustrator 16.0.0, SVG Export Plug-In . SVG Version: 6.00 Build 0)  -->
<!DOCTYPE svg PUBLIC "-//W3C//DTD SVG 1.1//EN" "http://www.w3.org/Graphics/SVG/1.1/DTD/svg11.dtd">
<svg version="1.1" id="Layer_1" xmlns="http://www.w3.org/2000/svg" xmlns:xlink="http://www.w3.org/1999/xlink" x="0px" y="0px"
	 width="32px" height="32px" viewBox="0 0 32 32" enable-background="new 0 0 32 32" xml:space="preserve">
<title>custom-plus</title>
<path fill="#3272A0" d="M16,0C7.161,0,0,7.162,0,16c0,8.837,7.161,16,16,16c8.838,0,16-7.167,16-16C32,7.162,24.838,0,16,0L16,0z
	 M16,29.999C8.265,29.999,2.002,23.729,2.002,16C2.002,8.266,8.265,2.001,16,2.001c7.729,0,13.999,6.264,13.999,13.999
	C29.998,23.729,23.729,29.999,16,29.999L16,29.999z M22.001,14.999L22.001,14.999c0.552,0,0.996,0.448,0.996,1.001
	c0,0.551-0.445,1.001-0.996,1.001h-5v5c0,0.552-0.45,0.995-1.002,0.995c-0.552,0-1-0.444-1-0.995v-5h-5
	c-0.55,0-1.001-0.45-1.001-1.001c0-0.553,0.451-1.001,1.001-1.001h5v-5c0-0.551,0.448-1.001,1-1.001c0.552,0,1.002,0.45,1.002,1.001
	v5H22.001z"/>
</svg>
