<?xml version="1.0" encoding="utf-8"?>
<!-- Generator: Adobe Illustrator 16.0.0, SVG Export Plug-In . SVG Version: 6.00 Build 0)  -->
<!DOCTYPE svg PUBLIC "-//W3C//DTD SVG 1.1//EN" "http://www.w3.org/Graphics/SVG/1.1/DTD/svg11.dtd">
<svg version="1.1" id="Layer_1" xmlns="http://www.w3.org/2000/svg" xmlns:xlink="http://www.w3.org/1999/xlink" x="0px" y="0px"
	 width="32px" height="32px" viewBox="0 0 32 32" enable-background="new 0 0 32 32" xml:space="preserve">
<title>custom-file</title>
<path fill="#3272A0" d="M20.07,0.051H7.26c-1.873,0-3.395,1.523-3.395,3.395v25.111c0,1.87,1.522,3.395,3.395,3.395h17.48
	c1.871,0,3.395-1.523,3.395-3.395V8.087L20.07,0.051L20.07,0.051z M24.74,29.869H7.26c-0.725,0-1.315-0.59-1.315-1.314V3.445
	c0-0.724,0.59-1.314,1.315-1.314l12.034-0.013v4.447c0,1.3,1.056,2.356,2.354,2.356l4.358-0.013l0.048,19.645
	C26.055,29.279,25.467,29.868,24.74,29.869L24.74,29.869L24.74,29.869z"/>
</svg>
