<?xml version="1.0" encoding="utf-8"?>
<!-- Generator: Adobe Illustrator 16.0.0, SVG Export Plug-In . SVG Version: 6.00 Build 0)  -->
<!DOCTYPE svg PUBLIC "-//W3C//DTD SVG 1.1//EN" "http://www.w3.org/Graphics/SVG/1.1/DTD/svg11.dtd">
<svg version="1.1" id="Layer_1" xmlns="http://www.w3.org/2000/svg" xmlns:xlink="http://www.w3.org/1999/xlink" x="0px" y="0px"
	 width="32px" height="32px" viewBox="0 0 32 32" enable-background="new 0 0 32 32" xml:space="preserve">
<title>custom-back-button</title>
<path fill="#3272A0" d="M16,0C7.176,0,0,7.177,0,16s7.176,16,16,16c8.822,0,16-7.178,16-16C32,7.178,24.822,0,16,0z M16,31.359
	C7.53,31.359,0.64,24.471,0.64,16C0.64,7.53,7.53,0.64,16,0.64c8.471,0,15.359,6.89,15.359,15.36
	C31.359,24.471,24.471,31.359,16,31.359z M26.6,17.805c0,0.336-0.373,0.609-0.83,0.609h-9.123v4.297c0,0.335-0.283,0.43-0.628,0.211
	L5.662,16.377c-0.347-0.218-0.346-0.575,0.001-0.792l10.353-6.508c0.346-0.218,0.63-0.123,0.63,0.212v4.258h9.123
	c0.457,0,0.83,0.273,0.83,0.609v3.65V17.805z"/>
</svg>
