<?xml version="1.0" encoding="utf-8"?>
<!-- Generator: Adobe Illustrator 16.0.0, SVG Export Plug-In . SVG Version: 6.00 Build 0)  -->
<!DOCTYPE svg PUBLIC "-//W3C//DTD SVG 1.1//EN" "http://www.w3.org/Graphics/SVG/1.1/DTD/svg11.dtd">
<svg version="1.1" id="Layer_1" xmlns="http://www.w3.org/2000/svg" xmlns:xlink="http://www.w3.org/1999/xlink" x="0px" y="0px"
	 width="50px" height="50px" viewBox="0 0 50 50" enable-background="new 0 0 50 50" xml:space="preserve">
<path fill="#3272A0" d="M26.48,19.654c-1.688,0-3.056-1.371-3.056-3.054v-3.993l6.103,7.047H26.48z"/>
<path fill="#3272A0" d="M25,0c13.785,0,25,11.213,25,25c0,13.785-11.215,25-25,25C11.213,50,0,38.785,0,25C0,11.213,11.213,0,25,0
	 M25,49c13.234,0,24-10.766,24-24C49,11.766,38.234,1,25,1C11.766,1,1,11.766,1,25C1,38.234,11.766,49,25,49 M30.811,19.806
	l-7.492-8.654C23.237,11.055,23.114,11,22.988,11H12.441c-2.164,0-3.927,1.761-3.927,3.927v20.147c0,2.16,1.763,3.926,3.927,3.926
	h14.55c2.165,0,3.928-1.766,3.928-3.926V20.092C30.919,19.987,30.88,19.886,30.811,19.806z M16.968,29.587
	c-0.084,0.089-0.196,0.132-0.307,0.132c-0.112,0-0.224-0.043-0.31-0.132l-3.158-3.153c-0.173-0.173-0.173-0.449,0-0.619l3.158-3.16
	c0.17-0.168,0.446-0.168,0.616,0c0.174,0.172,0.174,0.448,0.001,0.618l-2.848,2.848l2.848,2.854
	C17.141,29.143,17.141,29.42,16.968,29.587z M26.238,26.432l-3.16,3.154c-0.086,0.089-0.196,0.132-0.31,0.132
	c-0.112,0-0.223-0.043-0.307-0.132c-0.173-0.167-0.173-0.445,0-0.613l2.848-2.853l-2.848-2.848c-0.173-0.17-0.173-0.446,0-0.619
	c0.17-0.168,0.446-0.168,0.616,0l3.161,3.16C26.411,25.984,26.411,26.26,26.238,26.432z M33.027,33.38v-6.29l1.824-0.918
	c0.135-0.066,0.291-0.066,0.422,0.001l6.957,3.535c0.153,0.079,0.254,0.235,0.256,0.411c0.002,0.175-0.094,0.336-0.247,0.419
	l-7.027,3.789c-0.069,0.038-0.146,0.057-0.221,0.057c-0.078,0-0.156-0.019-0.226-0.057L33.027,33.38z M33.027,36.197V35.8
	l1.884,1.026l6.017-3.244l-1.173-0.596l1.005-0.541l1.391,0.705c0.154,0.08,0.252,0.238,0.257,0.414
	c0.002,0.175-0.095,0.334-0.247,0.418l-7.027,3.789c-0.068,0.037-0.146,0.057-0.223,0.057s-0.153-0.02-0.225-0.059l-1.723-0.938
	C32.997,36.624,33.027,36.414,33.027,36.197z"/>
</svg>
