<?xml version="1.0" encoding="utf-8"?>
<!-- Generator: Adobe Illustrator 16.0.0, SVG Export Plug-In . SVG Version: 6.00 Build 0)  -->
<!DOCTYPE svg PUBLIC "-//W3C//DTD SVG 1.1//EN" "http://www.w3.org/Graphics/SVG/1.1/DTD/svg11.dtd">
<svg version="1.1" id="Layer_1" xmlns="http://www.w3.org/2000/svg" xmlns:xlink="http://www.w3.org/1999/xlink" x="0px" y="0px"
	 width="37px" height="32px" viewBox="0 0 37 32" enable-background="new 0 0 37 32" xml:space="preserve">
<title>dds-iot</title>
<path fill="#3272A0" d="M9.238,32L0,16L9.238,0h18.476l9.237,16l-9.237,16H9.238z M27.43,31.508l8.952-15.507L27.43,0.493H9.521
	L0.568,16.001l8.953,15.507H27.43z M7.106,18.389c0.489,1.145,0.974,2.291,1.471,3.432c0.235,0.539,0.281,0.554,0.637,0.063
	c0.258-0.356,0.457-0.356,0.77-0.071c0.249,0.228,0.565,0.381,0.847,0.571c2.734,1.845,5.683,2.862,9.045,2.56
	c2.089-0.189,4.011-0.735,5.735-1.943c1.479-1.034,2.675-2.341,3.736-3.784c0.092-0.127,0.321-0.218,0.209-0.414
	c-0.093-0.163-0.302-0.132-0.47-0.135c-1.062-0.015-2.123-0.013-3.185-0.041c-0.361-0.01-0.555,0.188-0.736,0.442
	c-0.546,0.761-1.218,1.397-1.943,1.982c-2.347,1.891-5.063,2.401-7.977,2.096c-1.68-0.178-3.255-0.707-4.686-1.625
	c-0.23-0.148-0.474-0.295-0.007-0.465c0.201-0.072,0.207-0.197,0.031-0.326c-1.115-0.812-2.23-1.623-3.345-2.436
	C7.195,18.325,7.151,18.355,7.106,18.389L7.106,18.389z M29.846,13.645c-0.482-1.127-0.961-2.255-1.445-3.381
	c-0.279-0.649-0.309-0.665-0.703-0.109c-0.25,0.352-0.428,0.296-0.727,0.07c-2.873-2.172-6.045-3.439-9.717-3.19
	c-2.084,0.141-4.035,0.687-5.779,1.857c-1.579,1.059-2.788,2.498-3.958,3.97c-0.071,0.089-0.16,0.188-0.105,0.305
	c0.082,0.172,0.261,0.123,0.405,0.128c1.041,0.038,2.085-0.066,3.122,0.102c0.327,0.053,0.567-0.105,0.771-0.375
	c1.87-2.474,4.328-3.94,7.437-4.207c2.584-0.223,5.019,0.289,7.24,1.678c0.209,0.131,0.444,0.25,0.047,0.447
	c-0.304,0.151-0.139,0.29,0.026,0.411c1.083,0.795,2.168,1.587,3.253,2.38C29.757,13.702,29.801,13.674,29.846,13.645L29.846,13.645
	z M16.435,28.464c0,0.373-0.048,0.699-0.143,0.978c-0.095,0.279-0.235,0.51-0.418,0.693s-0.408,0.32-0.675,0.412
	c-0.267,0.092-0.584,0.137-0.953,0.137h-0.912c-0.051,0-0.099-0.018-0.145-0.053s-0.068-0.095-0.068-0.181v-3.845
	c0-0.086,0.023-0.146,0.068-0.181s0.094-0.052,0.145-0.052h0.976c0.373,0,0.688,0.048,0.946,0.145
	c0.258,0.098,0.474,0.235,0.648,0.416c0.174,0.182,0.306,0.4,0.396,0.658C16.39,27.85,16.435,28.141,16.435,28.464L16.435,28.464z
	 M15.833,28.486c0-0.232-0.029-0.449-0.086-0.65s-0.148-0.375-0.272-0.521c-0.124-0.146-0.279-0.26-0.468-0.342
	s-0.432-0.123-0.729-0.123h-0.583v3.354h0.589c0.275,0,0.508-0.035,0.696-0.104c0.188-0.067,0.346-0.175,0.473-0.316
	c0.127-0.143,0.222-0.32,0.285-0.534s0.094-0.467,0.094-0.76L15.833,28.486z M20.632,28.464c0,0.373-0.048,0.699-0.144,0.978
	c-0.094,0.279-0.234,0.51-0.418,0.693c-0.182,0.184-0.407,0.32-0.674,0.412c-0.268,0.092-0.584,0.137-0.954,0.137h-0.912
	c-0.051,0-0.099-0.018-0.145-0.053c-0.046-0.035-0.068-0.095-0.068-0.181v-3.845c0-0.086,0.023-0.146,0.068-0.181
	c0.045-0.034,0.094-0.052,0.145-0.052h0.976c0.373,0,0.688,0.048,0.946,0.145c0.258,0.098,0.474,0.235,0.648,0.416
	c0.174,0.182,0.306,0.4,0.396,0.658S20.632,28.141,20.632,28.464L20.632,28.464z M20.029,28.486c0-0.232-0.029-0.449-0.086-0.65
	s-0.148-0.375-0.272-0.521c-0.124-0.146-0.278-0.26-0.468-0.342s-0.432-0.123-0.729-0.123h-0.583v3.354h0.59
	c0.275,0,0.508-0.035,0.696-0.104c0.188-0.067,0.347-0.175,0.474-0.316c0.127-0.143,0.222-0.32,0.285-0.534
	c0.063-0.214,0.094-0.467,0.094-0.76V28.486z M23.83,29.475c0,0.201-0.037,0.381-0.111,0.539c-0.074,0.156-0.178,0.291-0.31,0.4
	s-0.288,0.193-0.466,0.248s-0.371,0.083-0.578,0.083c-0.145,0-0.278-0.013-0.401-0.036s-0.233-0.055-0.33-0.09
	s-0.178-0.072-0.243-0.11c-0.064-0.038-0.111-0.069-0.136-0.097s-0.044-0.061-0.057-0.102c-0.013-0.043-0.019-0.097-0.019-0.166
	c0-0.049,0.002-0.088,0.008-0.121c0.004-0.033,0.011-0.06,0.02-0.078c0.009-0.02,0.02-0.034,0.034-0.041
	c0.014-0.008,0.028-0.012,0.047-0.012c0.03,0,0.075,0.019,0.131,0.057c0.056,0.037,0.13,0.078,0.218,0.123
	c0.088,0.044,0.196,0.086,0.321,0.125s0.271,0.059,0.435,0.059c0.125,0,0.238-0.017,0.342-0.05c0.104-0.033,0.192-0.081,0.268-0.142
	c0.075-0.062,0.131-0.137,0.172-0.226s0.061-0.19,0.061-0.303c0-0.122-0.028-0.226-0.084-0.313
	c-0.055-0.087-0.129-0.162-0.219-0.228c-0.092-0.065-0.195-0.126-0.313-0.181c-0.117-0.054-0.236-0.109-0.357-0.166
	c-0.123-0.058-0.242-0.119-0.357-0.188c-0.114-0.069-0.219-0.149-0.309-0.243c-0.092-0.093-0.166-0.201-0.223-0.328
	c-0.057-0.125-0.085-0.275-0.085-0.451c0-0.18,0.032-0.34,0.099-0.481c0.064-0.142,0.155-0.259,0.272-0.354
	c0.116-0.097,0.255-0.168,0.416-0.219c0.161-0.05,0.335-0.074,0.521-0.074c0.096,0,0.192,0.008,0.288,0.024
	c0.097,0.017,0.188,0.039,0.273,0.067c0.085,0.027,0.161,0.059,0.228,0.093c0.067,0.034,0.11,0.062,0.131,0.083
	c0.021,0.021,0.035,0.038,0.041,0.05c0.006,0.013,0.012,0.028,0.018,0.047c0.005,0.019,0.008,0.041,0.01,0.068
	c0.002,0.026,0.003,0.061,0.003,0.103c0,0.04-0.002,0.076-0.005,0.107s-0.009,0.057-0.016,0.078
	c-0.006,0.021-0.016,0.035-0.027,0.047c-0.012,0.011-0.025,0.015-0.041,0.015c-0.023,0-0.063-0.015-0.115-0.047
	c-0.052-0.032-0.115-0.065-0.191-0.104s-0.166-0.074-0.269-0.107s-0.219-0.048-0.348-0.048c-0.12,0-0.226,0.016-0.313,0.048
	s-0.162,0.075-0.22,0.128c-0.058,0.054-0.101,0.117-0.13,0.19c-0.029,0.072-0.043,0.15-0.043,0.232c0,0.12,0.027,0.223,0.083,0.311
	c0.055,0.086,0.13,0.162,0.222,0.229s0.197,0.128,0.315,0.183c0.118,0.056,0.237,0.111,0.36,0.168
	c0.121,0.058,0.241,0.119,0.359,0.187s0.223,0.147,0.314,0.24c0.093,0.092,0.168,0.2,0.224,0.325s0.085,0.274,0.085,0.445
	L23.83,29.475z"/>
</svg>
