<?xml version="1.0" encoding="utf-8"?>
<!-- Generator: Adobe Illustrator 16.0.0, SVG Export Plug-In . SVG Version: 6.00 Build 0)  -->
<!DOCTYPE svg PUBLIC "-//W3C//DTD SVG 1.1//EN" "http://www.w3.org/Graphics/SVG/1.1/DTD/svg11.dtd">
<svg version="1.1" id="Layer_1" xmlns="http://www.w3.org/2000/svg" xmlns:xlink="http://www.w3.org/1999/xlink" x="0px" y="0px"
	 width="32px" height="32px" viewBox="0 0 32 32" enable-background="new 0 0 32 32" xml:space="preserve">
<title>decision-tree</title>
<path fill="#3272A0" d="M31.628,16L16.036,31.593L0.443,16L16.036,0.408L31.628,16L31.628,16z M16.036,1.031L1.067,16l14.969,14.969
	L31.004,16L16.036,1.031z M11.325,17.852L11.325,17.852c-0.004-0.362-0.23-0.672-0.549-0.802v-1.056
	c0-0.716,0.583-1.299,1.299-1.299h3.41v-1.652h1.027v1.652h3.409c0.716,0,1.3,0.583,1.3,1.299v1.857h-0.465
	c-0.004-0.367-0.236-0.68-0.561-0.806v-1.053c0-0.151-0.122-0.273-0.273-0.273h-7.845c-0.151,0-0.273,0.122-0.273,0.273v1.856
	h-0.477L11.325,17.852z M23.156,18.364L23.156,18.364c0.199,0,0.363,0.163,0.363,0.362v2.713c0,0.201-0.162,0.363-0.363,0.363
	h-4.813c-0.201,0-0.363-0.162-0.363-0.363v-3.578c0-0.2,0.162-0.363,0.363-0.363h1.535c0.2,0,0.363,0.163,0.363,0.363v0.451
	c0,0.028,0.023,0.052,0.052,0.052H23.156z M13.726,18.364L13.726,18.364c0.201,0,0.364,0.163,0.364,0.362v2.713
	c0,0.201-0.162,0.363-0.363,0.363H8.915c-0.201,0-0.364-0.162-0.364-0.363v-3.578c0-0.2,0.163-0.363,0.364-0.363h1.534
	c0.201,0,0.364,0.163,0.364,0.363v0.451c0,0.028,0.023,0.052,0.052,0.052H13.726z M12.602,12.531L12.602,12.531
	c-0.284,0-0.513-0.23-0.513-0.513V6.967c0-0.283,0.23-0.513,0.513-0.513h2.166c0.284,0,0.513,0.23,0.513,0.513v0.636
	c0,0.04,0.033,0.073,0.073,0.073h4.041c0.283,0,0.513,0.23,0.513,0.513v3.829c0,0.283-0.23,0.513-0.513,0.513H12.602L12.602,12.531z
	"/>
</svg>
