<?xml version="1.0" encoding="utf-8"?>
<!-- Generator: Adobe Illustrator 16.0.0, SVG Export Plug-In . SVG Version: 6.00 Build 0)  -->
<!DOCTYPE svg PUBLIC "-//W3C//DTD SVG 1.1//EN" "http://www.w3.org/Graphics/SVG/1.1/DTD/svg11.dtd">
<svg version="1.1" id="Layer_1" xmlns="http://www.w3.org/2000/svg" xmlns:xlink="http://www.w3.org/1999/xlink" x="0px" y="0px"
	 width="32px" height="32px" viewBox="0 0 32 32" enable-background="new 0 0 32 32" xml:space="preserve">
<title>delete-circle</title>
<path fill="#3272A0" d="M15.685,32.011C7.036,32.011,0,24.975,0,16.325S7.036,0.64,15.685,0.64S31.37,7.676,31.37,16.325
	C31.371,24.975,24.334,32.011,15.685,32.011L15.685,32.011z M15.685,2.432c-7.661,0-13.893,6.233-13.893,13.893
	c0,7.659,6.232,13.892,13.893,13.892c7.661,0,13.892-6.232,13.892-13.892C29.577,8.665,23.346,2.432,15.685,2.432L15.685,2.432z"/>
<path fill="#3272A0" d="M21.379,9.368h-2.893c-0.144-1.203-1.209-2.14-2.498-2.14s-2.353,0.937-2.498,2.14h-2.892
	c-1.17,0-2.123,0.916-2.123,2.041v0.105c0,0.86,0.557,1.596,1.341,1.896v9.64c0,1.125,0.952,2.041,2.123,2.041h8.097
	c1.17,0,2.123-0.916,2.123-2.041v-9.64c0.783-0.3,1.341-1.036,1.341-1.896v-0.105C23.501,10.284,22.549,9.368,21.379,9.368
	L21.379,9.368L21.379,9.368z M15.989,8.196c0.734,0,1.345,0.505,1.482,1.172h-2.962C14.644,8.701,15.256,8.196,15.989,8.196
	L15.989,8.196z M21.152,23.049c0,0.592-0.5,1.073-1.115,1.073H11.94c-0.615,0-1.116-0.481-1.116-1.073v-9.495h10.328V23.049z
	 M22.495,11.513c0,0.592-0.501,1.073-1.116,1.073h-10.78c-0.615,0-1.116-0.481-1.116-1.073v-0.105c0-0.592,0.501-1.073,1.116-1.073
	h10.78c0.615,0,1.116,0.481,1.116,1.073V11.513L22.495,11.513z"/>
<path fill="#3272A0" d="M13.29,22.884c0.278,0,0.503-0.217,0.503-0.483v-5.448c0-0.267-0.225-0.484-0.503-0.484
	s-0.503,0.218-0.503,0.484V22.4C12.787,22.667,13.012,22.884,13.29,22.884L13.29,22.884z"/>
<path fill="#3272A0" d="M15.989,22.884c0.278,0,0.503-0.217,0.503-0.483v-5.448c0-0.267-0.225-0.484-0.503-0.484
	c-0.278,0-0.503,0.218-0.503,0.484V22.4C15.486,22.667,15.711,22.884,15.989,22.884L15.989,22.884z"/>
<path fill="#3272A0" d="M18.688,22.884c0.278,0,0.504-0.217,0.504-0.483v-5.448c0-0.267-0.226-0.484-0.504-0.484
	c-0.277,0-0.502,0.218-0.502,0.484V22.4C18.186,22.667,18.41,22.884,18.688,22.884L18.688,22.884z"/>
</svg>
