<?xml version="1.0" encoding="utf-8"?>
<!-- Generator: Adobe Illustrator 16.0.0, SVG Export Plug-In . SVG Version: 6.00 Build 0)  -->
<!DOCTYPE svg PUBLIC "-//W3C//DTD SVG 1.1//EN" "http://www.w3.org/Graphics/SVG/1.1/DTD/svg11.dtd">
<svg version="1.1" id="Layer_1" xmlns="http://www.w3.org/2000/svg" xmlns:xlink="http://www.w3.org/1999/xlink" x="0px" y="0px"
	 width="32px" height="32px" viewBox="0 0 32 32" enable-background="new 0 0 32 32" xml:space="preserve">
<title>deployment-clean</title>
<path fill="#3272A0" d="M16,0c8.822,0,16,7.177,16,16s-7.178,16-16,16C7.176,32,0,24.822,0,16C0,7.178,7.176,0,16,0z M16,31.359
	c8.471,0,15.359-6.889,15.359-15.359c0-8.47-6.889-15.36-15.359-15.36C7.53,0.64,0.64,7.53,0.64,16
	C0.64,24.471,7.53,31.359,16,31.359z M5.76,18.703c0-0.113,0-0.225,0-0.338c0.109-0.408,0.397-0.662,0.721-0.913
	c1.706-1.316,3.397-2.652,5.093-3.981c0.049-0.038,0.099-0.073,0.136-0.1c2.293,2.291,4.577,4.572,6.877,6.872
	c-0.028,0.039-0.063,0.095-0.104,0.147c-1.306,1.696-2.612,3.395-3.918,5.092c-0.012,0.015-0.025,0.028-0.035,0.045
	c-0.205,0.354-0.498,0.599-0.895,0.714c-0.112,0-0.225,0-0.337,0c-0.315-0.106-0.525-0.343-0.742-0.583
	c0.707-0.814,1.41-1.624,2.114-2.436c-0.01-0.009-0.019-0.018-0.029-0.027c-0.836,0.681-1.672,1.361-2.492,2.027
	c-0.198-0.195-0.379-0.375-0.566-0.56c0.683-1.071,1.37-2.149,2.058-3.228c-0.012-0.009-0.024-0.017-0.036-0.025
	c-0.863,0.9-1.727,1.8-2.568,2.675c-0.241-0.235-0.467-0.454-0.698-0.681c0.984-1.154,1.972-2.316,2.96-3.477
	c-0.012-0.012-0.023-0.023-0.035-0.035c-1.231,0.926-2.462,1.851-3.674,2.76c-0.145-0.139-0.283-0.272-0.429-0.413
	c0.63-0.904,1.263-1.812,1.895-2.72c-0.004-0.002-0.01-0.004-0.014-0.008c-0.776,0.766-1.553,1.53-2.32,2.287
	c-0.147-0.138-0.287-0.268-0.435-0.406c0.91-1.281,1.811-2.552,2.712-3.822c-0.011-0.01-0.021-0.02-0.032-0.029
	c-1.151,1.021-2.301,2.042-3.453,3.064c-0.193-0.199-0.378-0.392-0.574-0.594c0.828-0.98,1.667-1.975,2.507-2.969
	c-0.008-0.009-0.017-0.018-0.025-0.025c-1.023,0.813-2.045,1.627-3.068,2.438c-0.248-0.231-0.49-0.44-0.595-0.755L5.76,18.703z
	 M24.96,10.227c-0.03,0.152-0.056,0.306-0.093,0.456c-0.129,0.508-0.391,0.941-0.76,1.314c-0.479,0.486-1.051,0.843-1.651,1.153
	c-0.916,0.472-1.836,0.935-2.659,1.566c-0.109,0.083-0.223,0.162-0.328,0.25c-0.369,0.308-0.451,0.721-0.216,1.139
	c0.079,0.14,0.181,0.271,0.292,0.387c0.316,0.328,0.643,0.646,0.963,0.972c0.422,0.429,0.426,0.989,0.004,1.416
	c-0.304,0.308-0.613,0.604-0.9,0.892c-2.461-2.459-4.919-4.916-7.333-7.327c0.323-0.353,0.641-0.76,1.023-1.096
	c0.339-0.299,0.854-0.221,1.196,0.108c0.324,0.312,0.636,0.637,0.957,0.952c0.102,0.1,0.212,0.196,0.331,0.275
	c0.484,0.323,0.938,0.246,1.299-0.213c0.573-0.73,1.048-1.521,1.465-2.348c0.341-0.675,0.681-1.35,1.175-1.932
	c0.463-0.542,1.006-0.95,1.723-1.09c0.097-0.019,0.193-0.04,0.289-0.06c0.199,0,0.4,0,0.6,0c0.04,0.013,0.081,0.031,0.123,0.037
	c1.18,0.164,2.141,1.034,2.415,2.188c0.032,0.133,0.058,0.267,0.087,0.4c0.001,0.188,0.001,0.376,0.001,0.563L24.96,10.227z
	 M22.591,10.651c0.66-0.001,1.205-0.545,1.204-1.202c-0.001-0.659-0.546-1.208-1.199-1.21c-0.682-0.002-1.226,0.544-1.217,1.224
	C21.387,10.125,21.924,10.653,22.591,10.651L22.591,10.651z"/>
</svg>
