<?xml version="1.0" encoding="utf-8"?>
<!-- Generator: Adobe Illustrator 16.0.0, SVG Export Plug-In . SVG Version: 6.00 Build 0)  -->
<!DOCTYPE svg PUBLIC "-//W3C//DTD SVG 1.1//EN" "http://www.w3.org/Graphics/SVG/1.1/DTD/svg11.dtd">
<svg version="1.1" id="Layer_1" xmlns="http://www.w3.org/2000/svg" xmlns:xlink="http://www.w3.org/1999/xlink" x="0px" y="0px"
	 width="32px" height="32px" viewBox="0 0 32 32" enable-background="new 0 0 32 32" xml:space="preserve">
<title>deploy</title>
<path fill="#3272A0" d="M18.576,21.718c0.15,0.015,0.252,0.032,0.354,0.033c1.481,0.001,2.965,0.013,4.447-0.006
	c1.439-0.021,2.646-0.603,3.609-1.658c1.511-1.653,1.57-3.985,0.135-5.702c-1.057-1.263-2.434-1.874-4.085-1.817
	c-0.31,0.011-0.447-0.078-0.574-0.371c-0.196-0.452-0.435-0.905-0.744-1.286c-1.041-1.283-2.407-1.912-4.065-1.821
	c-0.484,0.026-0.866-0.061-1.26-0.366c-1.062-0.82-2.301-1.185-3.635-1.175C9.883,7.571,7.41,9.373,6.545,12.123
	c-0.233,0.739-0.469,1.399-1.167,1.836c-0.287,0.179-0.498,0.501-0.704,0.787c-0.672,0.932-0.98,1.972-0.766,3.115
	c0.442,2.359,2.28,3.878,4.681,3.891c1.351,0.007,2.702,0.002,4.054,0.001c0.138,0,0.276-0.017,0.454-0.026c0-0.363,0-0.688,0-1.015
	c0-0.541-0.001-0.538-0.531-0.543c-1.482-0.013-2.966,0.017-4.445-0.054c-1.4-0.067-2.618-1.403-2.652-2.805
	c-0.031-1.3,0.72-2.119,1.75-2.729c0.337-0.199,0.6-0.365,0.578-0.81c-0.011-0.228,0.068-0.464,0.123-0.693
	c0.849-3.578,4.98-5.126,7.765-2.861c0.579,0.471,1.074,0.596,1.779,0.484c1.812-0.287,3.513,1.08,3.72,2.911
	c0.034,0.292,0.086,0.581,0.133,0.895c0.227-0.061,0.404-0.104,0.576-0.154c0.731-0.209,1.469-0.271,2.211-0.082
	c1.27,0.323,2.347,1.485,2.426,2.607c0.094,1.312-0.662,2.486-2.021,3.002c-0.479,0.183-1.017,0.259-1.531,0.274
	c-1.285,0.039-2.57,0.013-3.856,0.014c-0.546,0.001-0.546,0.002-0.546,0.563c-0.001,0.314,0,0.629,0,0.987H18.576z M16.816,18.809
	c0,0.838,0,1.678-0.002,2.516c0,0.892-0.013,1.783,0.008,2.676c0.008,0.352-0.131,0.465-0.46,0.452
	c-0.367-0.015-0.734-0.001-1.101-0.004c-0.476-0.005-0.519-0.044-0.52-0.517c-0.003-1.508,0.004-3.016-0.004-4.523
	c-0.002-0.387,0.096-0.898-0.106-1.122c-0.178-0.196-0.713-0.073-1.09-0.083c-0.34-0.008-0.682,0.008-1.023-0.004
	c-0.319-0.014-0.404-0.17-0.216-0.43c1.073-1.487,2.155-2.97,3.235-4.454c0.212-0.291,0.381-0.179,0.548,0.052
	c1.062,1.464,2.128,2.925,3.187,4.392c0.06,0.083,0.112,0.236,0.076,0.305c-0.041,0.076-0.189,0.129-0.293,0.133
	c-0.55,0.013-1.101,0.006-1.652,0.007c-0.586,0-0.588,0-0.588,0.604H16.816z M16,0c8.822,0,16,7.177,16,16s-7.178,16-16,16
	C7.176,32,0,24.822,0,16C0,7.178,7.176,0,16,0z M16,31.359c8.471,0,15.359-6.889,15.359-15.359c0-8.47-6.889-15.36-15.359-15.36
	C7.53,0.64,0.64,7.53,0.64,16C0.64,24.471,7.53,31.359,16,31.359z"/>
</svg>
