<?xml version="1.0" encoding="utf-8"?>
<!-- Generator: Adobe Illustrator 16.0.0, SVG Export Plug-In . SVG Version: 6.00 Build 0)  -->
<!DOCTYPE svg PUBLIC "-//W3C//DTD SVG 1.1//EN" "http://www.w3.org/Graphics/SVG/1.1/DTD/svg11.dtd">
<svg version="1.1" id="Layer_1" xmlns="http://www.w3.org/2000/svg" xmlns:xlink="http://www.w3.org/1999/xlink" x="0px" y="0px"
	 width="32px" height="32px" viewBox="0 0 32 32" enable-background="new 0 0 32 32" xml:space="preserve">
<title>digital-ocean</title>
<path fill="#3272A0" d="M16,0c8.822,0,16,7.177,16,16s-7.178,16-16,16C7.176,32,0,24.822,0,16C0,7.178,7.176,0,16,0z M16,31.359
	c8.471,0,15.359-6.889,15.359-15.359c0-8.47-6.889-15.36-15.359-15.36C7.53,0.64,0.64,7.53,0.64,16
	C0.64,24.471,7.53,31.359,16,31.359z M20.5,9.935c-2.023-2.729-4.075-4.937-4.096-4.959C16.3,4.864,16.153,4.8,16,4.8
	s-0.3,0.064-0.404,0.176c-0.02,0.022-2.073,2.23-4.096,4.959c-2.764,3.727-4.165,6.622-4.165,8.6c0,4.777,3.887,8.665,8.666,8.665
	c4.778,0,8.664-3.888,8.664-8.665C24.665,16.557,23.266,13.663,20.5,9.935L20.5,9.935L20.5,9.935z M16.866,24.396
	c-0.454,0.107-0.922,0.162-1.391,0.162c-3.334,0-6.047-2.713-6.047-6.048c0-0.46,0.142-1.292,0.815-2.65
	c0.068-0.136,0.224-0.204,0.37-0.161s0.239,0.186,0.221,0.337c-0.015,0.131-0.023,0.253-0.023,0.365
	c0,3.575,2.543,6.679,6.044,7.382c0.145,0.028,0.25,0.155,0.252,0.302S17.009,24.361,16.866,24.396L16.866,24.396z"/>
</svg>
