<?xml version="1.0" encoding="utf-8"?>
<!-- Generator: Adobe Illustrator 16.0.0, SVG Export Plug-In . SVG Version: 6.00 Build 0)  -->
<!DOCTYPE svg PUBLIC "-//W3C//DTD SVG 1.1//EN" "http://www.w3.org/Graphics/SVG/1.1/DTD/svg11.dtd">
<svg version="1.1" id="Layer_1" xmlns="http://www.w3.org/2000/svg" xmlns:xlink="http://www.w3.org/1999/xlink" x="0px" y="0px"
	 width="32px" height="32px" viewBox="0 0 32 32" enable-background="new 0 0 32 32" xml:space="preserve">
<title>docker-deployment</title>
<path fill="#3272A0" d="M16,0c8.822,0,16,7.177,16,16s-7.178,16-16,16C7.176,32,0,24.822,0,16C0,7.178,7.176,0,16,0z M16,31.359
	c8.471,0,15.359-6.889,15.359-15.359c0-8.47-6.889-15.36-15.359-15.36C7.53,0.64,0.64,7.53,0.64,16
	C0.64,24.471,7.53,31.359,16,31.359z M29.439,14.103c-0.013,0.01-0.033,0.015-0.039,0.029c-0.605,1.273-1.672,1.798-3.022,1.831
	c-0.444,0.011-0.72,0.163-0.849,0.609c-0.074,0.255-0.223,0.492-0.355,0.726c-0.102,0.181-0.131,0.261,0.139,0.269
	c0.949,0.025,1.4-0.104,2.41-0.752c0.016,0.476,0.344,0.656,0.723,0.785c0.26,0.09,0.523,0.168,0.81,0.258
	c-0.114,0.06-0.208,0.035-0.298,0.035c-1.268,0-2.536-0.002-3.805-0.011c-0.199-0.001-0.338,0.052-0.454,0.233
	c-1.72,2.71-4.187,4.365-7.281,5.119c-1.888,0.459-3.796,0.605-5.717,0.264c-2.356-0.419-4.163-1.633-5.275-3.795
	c-0.249-0.484-0.412-1-0.502-1.536c-0.037-0.216-0.135-0.29-0.351-0.286c-0.778,0.012-1.556,0.012-2.334,0.012
	c-0.226,0-0.452-0.006-0.678-0.01c0-0.017,0-0.035,0-0.052c0.469-0.062,0.911-0.204,1.311-0.456c0.203-0.127,0.255-0.342,0.28-0.598
	c0.401,0.39,0.87,0.601,1.392,0.715c0.207,0.045,0.291,0.017,0.254-0.221c-0.073-0.478,0-0.958,0.018-1.438
	c0.006-0.161,0.091-0.204,0.238-0.203c0.508,0.005,1.015-0.012,1.522,0.008c0.259,0.009,0.355-0.054,0.346-0.332
	C7.9,14.694,7.924,14.081,7.909,13.47c-0.006-0.237,0.054-0.326,0.305-0.32c0.621,0.017,1.242-0.001,1.863,0.009
	c0.195,0.003,0.259-0.061,0.256-0.257c-0.01-0.612,0.007-1.224-0.009-1.837c-0.006-0.248,0.062-0.333,0.321-0.331
	c1.4,0.012,2.8,0,4.199,0.011c0.258,0.002,0.335-0.084,0.328-0.333c-0.017-0.603-0.004-1.206-0.015-1.809
	c-0.004-0.209,0.052-0.295,0.28-0.291c0.796,0.013,1.592,0.012,2.388,0c0.223-0.003,0.28,0.074,0.278,0.287
	c-0.006,1.408-0.004,2.816-0.004,4.225c0,0.332,0.002,0.332,0.344,0.332c0.596,0,1.19,0.007,1.785-0.003
	c0.215-0.004,0.293,0.063,0.289,0.284c-0.011,0.647-0.002,1.295-0.004,1.942c0,0.129-0.006,0.25,0.178,0.253
	c1.096,0.018,2.187,0.019,3.205-0.482c0.295-0.145,0.299-0.135,0.144-0.427c-0.577-1.085-0.536-2.186-0.04-3.277
	c0.318-0.703,0.499-0.728,1.055-0.214c0.615,0.568,1.1,1.217,1.26,2.064c0.019,0.095,0.037,0.177,0.187,0.141
	c1.041-0.252,2.022-0.095,2.94,0.455c0,0.071,0,0.141,0,0.211H29.439z M7.74,20.926c0.022,0.053,0.026,0.079,0.042,0.096
	c1.101,1.08,2.392,1.81,3.924,2.059c2.276,0.37,4.51,0.141,6.694-0.575c2.385-0.78,4.303-2.2,5.727-4.274
	c0.063-0.092,0.193-0.193,0.146-0.291c-0.059-0.125-0.221-0.051-0.334-0.053c-0.778-0.006-1.558-0.003-2.336-0.003
	c-4.47,0-8.939,0-13.41,0.001c-0.516,0-1.032,0.01-1.547,0.006c-0.359-0.002-0.367,0-0.291,0.336c0.17,0.737,0.468,1.42,0.882,2.056
	c0.113,0.175,0.246,0.245,0.446,0.253c1.348,0.054,2.691,0.072,4.002-0.33c0.108-0.033,0.233-0.059,0.283,0.097
	c0.05,0.155-0.04,0.22-0.172,0.267c-0.373,0.134-0.76,0.195-1.148,0.257c-0.955,0.153-1.917,0.112-2.91,0.101H7.74z M14.295,16.046
	c0,0.003,0,0.006,0,0.008c-1.767,0-3.533,0-5.301,0c-0.838,0-1.678,0.003-2.516-0.003c-0.181-0.001-0.269,0.04-0.273,0.246
	c-0.006,0.35-0.021,0.698,0.016,1.047c0.017,0.17,0.079,0.227,0.245,0.217c0.625-0.033,1.234-0.123,1.782-0.451
	c0.112-0.067,0.196-0.088,0.298,0.016c0.184,0.186,0.424,0.273,0.67,0.335c0.995,0.253,1.994,0.214,2.99,0.024
	c0.46-0.086,0.93-0.17,1.288-0.525c0.127-0.125,0.265-0.057,0.373,0.043c0.449,0.415,1.009,0.557,1.587,0.6
	c0.968,0.075,1.911,0.006,2.69-0.681c0.082-0.071,0.131-0.05,0.192,0.019c0.212,0.242,0.504,0.332,0.8,0.42
	c0.805,0.236,1.631,0.305,2.463,0.262c0.639-0.033,1.274-0.102,1.793-0.543c0.075-0.064,0.144-0.032,0.211,0.016
	c0.227,0.157,0.488,0.227,0.744,0.317c0.199,0.069,0.301,0.006,0.391-0.175c0.238-0.465,0.479-0.929,0.66-1.421
	c0.062-0.171,0.142-0.303,0.354-0.266c0.358,0.061,0.714,0.022,1.067-0.036c0.779-0.127,1.453-0.437,1.929-1.094
	c0.214-0.296,0.196-0.346-0.146-0.473c-0.814-0.301-1.623-0.282-2.428,0.043c-0.076,0.031-0.226,0.174-0.225-0.072
	c0.004-1.005-0.492-1.756-1.21-2.397c-0.132-0.119-0.212-0.146-0.318,0.033c-0.569,0.954-0.493,2.632,0.278,3.361
	c0.121,0.115,0.109,0.18-0.031,0.273c-0.828,0.56-1.752,0.842-2.736,0.849c-2.545,0.024-5.092,0.009-7.637,0.009L14.295,16.046z
	 M8.335,14.604c0,0.288,0.006,0.577-0.003,0.865c-0.004,0.159,0.054,0.214,0.214,0.212c0.559-0.006,1.119-0.003,1.677,0.003
	c0.147,0.001,0.205-0.063,0.204-0.204c-0.002-0.568-0.003-1.135,0.001-1.703c0.001-0.159-0.065-0.212-0.221-0.211
	c-0.559,0.006-1.118,0.005-1.677,0.001c-0.145-0.001-0.202,0.049-0.198,0.199C8.342,14.045,8.335,14.325,8.335,14.604z
	 M18.003,14.627c-0.003,0-0.005,0-0.007,0c0,0.271,0.008,0.542-0.003,0.813c-0.007,0.18,0.055,0.246,0.241,0.243
	c0.55-0.01,1.101-0.01,1.65,0c0.172,0.003,0.239-0.057,0.239-0.223c-0.003-0.559-0.002-1.119-0.001-1.678
	c0.001-0.147-0.051-0.219-0.215-0.216c-0.568,0.007-1.137,0.007-1.704,0c-0.169-0.002-0.209,0.072-0.205,0.223
	C18.007,14.067,18.002,14.348,18.003,14.627L18.003,14.627z M16.632,13.263c0.28,0,0.56-0.005,0.841,0.003
	c0.152,0.004,0.238-0.054,0.232-0.209c-0.021-0.568-0.016-1.135,0-1.704c0.003-0.136-0.061-0.202-0.208-0.201
	c-0.569,0.005-1.137,0.006-1.706-0.001c-0.161-0.002-0.214,0.06-0.212,0.216c0.006,0.56,0.006,1.12,0,1.68
	c-0.001,0.157,0.053,0.222,0.214,0.217C16.073,13.256,16.353,13.262,16.632,13.263L16.632,13.263z M17.689,9.793
	c0-0.271-0.008-0.542,0.004-0.812c0.008-0.177-0.045-0.248-0.234-0.244c-0.55,0.011-1.101,0.008-1.651,0.001
	c-0.17-0.002-0.232,0.053-0.23,0.226c0.008,0.55,0.007,1.1,0.001,1.651c-0.002,0.164,0.048,0.239,0.223,0.237
	c0.559-0.006,1.117-0.004,1.677,0c0.158,0.001,0.217-0.062,0.213-0.219C17.684,10.353,17.689,10.074,17.689,9.793L17.689,9.793z
	 M11.774,13.263c0.289,0,0.577-0.004,0.865,0.002c0.145,0.003,0.205-0.049,0.204-0.198c-0.004-0.577-0.004-1.154-0.001-1.73
	c0.001-0.135-0.052-0.186-0.186-0.185c-0.577,0.004-1.154,0.004-1.731,0c-0.14-0.001-0.179,0.065-0.178,0.193
	c0.004,0.568,0.005,1.136-0.001,1.704c-0.001,0.156,0.053,0.22,0.214,0.215c0.271-0.009,0.542-0.002,0.812-0.002L11.774,13.263z
	 M12.842,14.636c0-0.28-0.007-0.56,0.003-0.839c0.006-0.167-0.046-0.233-0.223-0.23c-0.55,0.01-1.101,0.008-1.651,0.001
	c-0.175-0.003-0.225,0.065-0.223,0.231c0.008,0.55,0.007,1.101,0.001,1.652c-0.003,0.167,0.05,0.234,0.225,0.232
	c0.55-0.008,1.101-0.009,1.652,0.001c0.181,0.003,0.224-0.072,0.219-0.234c-0.008-0.27-0.002-0.541-0.002-0.812L12.842,14.636z
	 M15.581,14.602c0,0.279,0.007,0.559-0.003,0.838c-0.006,0.173,0.04,0.25,0.234,0.245c0.548-0.013,1.098-0.01,1.648-0.001
	c0.17,0.003,0.233-0.051,0.231-0.223c-0.008-0.559-0.008-1.117,0-1.675c0.002-0.154-0.043-0.221-0.207-0.218
	c-0.566,0.006-1.133,0.006-1.7,0c-0.168-0.002-0.209,0.074-0.205,0.223C15.585,14.062,15.581,14.332,15.581,14.602L15.581,14.602z
	 M13.165,14.607c0,0.288,0.006,0.576-0.003,0.863c-0.004,0.161,0.054,0.213,0.213,0.211c0.558-0.008,1.116-0.008,1.675,0
	c0.165,0.003,0.21-0.064,0.208-0.217c-0.005-0.567-0.005-1.133,0.001-1.701c0.001-0.149-0.056-0.197-0.202-0.196
	c-0.559,0.005-1.117,0.008-1.675-0.001c-0.177-0.003-0.227,0.064-0.22,0.23C13.173,14.067,13.165,14.337,13.165,14.607
	L13.165,14.607z M15.257,12.2C15.258,12.2,15.258,12.2,15.257,12.2c0.001-0.27-0.007-0.541,0.004-0.812
	c0.007-0.166-0.041-0.239-0.218-0.237c-0.559,0.007-1.117,0.005-1.676,0.001c-0.143-0.001-0.207,0.045-0.205,0.195
	c0.004,0.567,0.005,1.135-0.001,1.702c-0.001,0.16,0.062,0.217,0.217,0.216c0.55-0.004,1.099-0.006,1.649,0.001
	c0.188,0.002,0.24-0.077,0.232-0.254C15.247,12.741,15.256,12.471,15.257,12.2L15.257,12.2z M12.121,19.628
	c0.015-0.337,0.288-0.585,0.625-0.567c0.322,0.017,0.579,0.289,0.57,0.601c-0.011,0.34-0.306,0.608-0.643,0.586
	C12.358,20.227,12.107,19.943,12.121,19.628L12.121,19.628z M12.724,20.059c0.162-0.011,0.301-0.082,0.358-0.242
	c0.041-0.112,0.14-0.295-0.14-0.246c-0.093,0.015-0.139-0.043-0.154-0.135c-0.031-0.196-0.138-0.24-0.303-0.121
	c-0.157,0.115-0.213,0.272-0.157,0.457c0.056,0.188,0.195,0.277,0.396,0.289V20.059z M9.947,13.907
	c-0.001-0.062-0.006-0.132-0.092-0.13c-0.084,0.003-0.086,0.074-0.086,0.134c-0.001,0.472-0.001,0.943,0,1.414
	c0.001,0.059-0.005,0.136,0.077,0.143c0.104,0.008,0.099-0.08,0.1-0.147c0.003-0.236,0.001-0.472,0.001-0.707
	C9.947,14.379,9.948,14.142,9.947,13.907L9.947,13.907z M10.262,13.923c0-0.06,0.007-0.136-0.075-0.142
	c-0.099-0.006-0.102,0.079-0.102,0.147c-0.002,0.47-0.002,0.941,0.001,1.411c0,0.058,0.003,0.134,0.09,0.131
	c0.084-0.003,0.084-0.076,0.085-0.136c0.002-0.235,0.001-0.47,0.001-0.705C10.262,14.394,10.263,14.158,10.262,13.923L10.262,13.923
	z M9.455,15.32c0.001,0.066-0.012,0.156,0.095,0.148c0.08-0.006,0.081-0.081,0.081-0.141c0.001-0.47,0.001-0.941,0-1.412
	c-0.001-0.06-0.005-0.134-0.088-0.135c-0.107-0.001-0.088,0.088-0.089,0.154c-0.003,0.218-0.001,0.436-0.001,0.653
	C9.454,14.831,9.452,15.076,9.455,15.32z M8.66,13.897c-0.001-0.051,0.001-0.113-0.073-0.113c-0.065-0.001-0.086,0.047-0.086,0.106
	c0,0.487,0,0.974,0.001,1.462c0,0.055,0.015,0.11,0.08,0.112c0.095,0.003,0.077-0.077,0.078-0.132
	c0.003-0.235,0.001-0.47,0.001-0.705C8.661,14.384,8.662,14.141,8.66,13.897L8.66,13.897z M8.815,15.307
	c0.001,0.067-0.014,0.156,0.088,0.156c0.093,0.001,0.07-0.084,0.07-0.138c0.002-0.47,0.002-0.94,0-1.411
	c0-0.056,0.016-0.137-0.079-0.131c-0.083,0.005-0.08,0.077-0.08,0.138c-0.001,0.236,0,0.47,0,0.706
	C8.813,14.854,8.813,15.08,8.815,15.307L8.815,15.307z M9.29,13.898c0-0.05,0.004-0.113-0.07-0.113c-0.064,0-0.089,0.05-0.089,0.107
	c-0.001,0.486-0.001,0.973-0.001,1.46c0,0.055,0.018,0.111,0.082,0.113c0.095,0.003,0.076-0.077,0.076-0.132
	c0.003-0.235,0.001-0.469,0.001-0.704C9.29,14.386,9.29,14.143,9.29,13.898L9.29,13.898z M19.309,13.922
	c0-0.077,0.014-0.175-0.102-0.173c-0.096,0.003-0.086,0.093-0.086,0.16c-0.001,0.471-0.001,0.943,0.001,1.414
	c0.001,0.074-0.019,0.18,0.099,0.172c0.111-0.008,0.088-0.11,0.088-0.186c0.002-0.227,0.002-0.453,0.002-0.68
	C19.311,14.393,19.311,14.157,19.309,13.922z M19.436,15.333c0,0.068-0.012,0.152,0.09,0.157c0.098,0.005,0.101-0.072,0.101-0.145
	c0.001-0.479,0.002-0.957,0.001-1.436c0-0.068,0.007-0.157-0.088-0.16c-0.118-0.004-0.102,0.099-0.102,0.173
	c-0.004,0.235-0.002,0.47-0.002,0.705s0,0.471,0.002,0.705L19.436,15.333z M18.482,14.585c0,0.252,0.004,0.504-0.002,0.755
	c0,0.077-0.002,0.146,0.093,0.151c0.095,0.005,0.106-0.064,0.106-0.141c-0.002-0.486-0.002-0.973-0.002-1.46
	c0.002-0.078-0.019-0.148-0.109-0.138c-0.09,0.01-0.09,0.081-0.088,0.158C18.486,14.135,18.482,14.361,18.482,14.585L18.482,14.585
	L18.482,14.585z M18.995,13.923c0-0.079,0.003-0.173-0.104-0.173c-0.099,0.001-0.084,0.095-0.084,0.161
	c-0.002,0.471-0.002,0.942,0,1.413c0,0.075-0.021,0.179,0.098,0.171c0.107-0.007,0.09-0.108,0.091-0.185c0.001-0.227,0-0.453,0-0.68
	C18.995,14.394,18.995,14.159,18.995,13.923z M18.363,13.939c0-0.077,0.013-0.179-0.092-0.183c-0.103-0.004-0.109,0.095-0.109,0.175
	c-0.002,0.462-0.002,0.923-0.001,1.386c0.001,0.079,0.005,0.177,0.112,0.168c0.11-0.008,0.088-0.111,0.088-0.186
	c0.002-0.218,0.002-0.436,0.002-0.653C18.363,14.41,18.363,14.176,18.363,13.939L18.363,13.939z M19.943,13.931
	c0-0.076,0.014-0.179-0.1-0.176c-0.105,0.003-0.068,0.104-0.068,0.164c-0.004,0.463-0.004,0.927,0,1.389
	c0,0.067-0.045,0.183,0.086,0.173c0.113-0.008,0.082-0.116,0.084-0.188c0.003-0.218,0-0.436,0-0.655
	C19.945,14.402,19.945,14.166,19.943,13.931L19.943,13.931z M16.58,11.508c0-0.077,0.013-0.175-0.094-0.183
	c-0.125-0.009-0.095,0.102-0.096,0.172c-0.003,0.47-0.002,0.941-0.001,1.412c0,0.076-0.019,0.177,0.101,0.169
	c0.111-0.008,0.09-0.108,0.09-0.184c0.001-0.227,0.001-0.453,0.001-0.68C16.581,11.978,16.581,11.743,16.58,11.508L16.58,11.508z
	 M16.895,11.491c0-0.079,0.008-0.173-0.108-0.165c-0.099,0.007-0.082,0.098-0.082,0.163c-0.002,0.479-0.001,0.959-0.001,1.438
	c0,0.07-0.008,0.152,0.093,0.152c0.097,0,0.099-0.076,0.099-0.15c-0.002-0.244,0-0.488,0-0.732
	C16.895,11.961,16.895,11.726,16.895,11.491L16.895,11.491z M17.02,12.92c0,0.068-0.011,0.152,0.088,0.159
	c0.097,0.006,0.104-0.067,0.104-0.143c-0.001-0.488,0-0.975-0.001-1.464c0-0.07,0.002-0.152-0.099-0.147
	c-0.098,0.004-0.092,0.089-0.092,0.157c-0.002,0.236-0.002,0.47-0.002,0.707c0,0.243,0,0.487,0,0.732L17.02,12.92z M16.263,11.495
	c-0.001-0.078-0.001-0.173-0.112-0.169c-0.093,0.003-0.092,0.088-0.092,0.158c-0.001,0.479,0,0.958-0.001,1.437
	c0,0.072-0.001,0.153,0.095,0.154c0.111,0.001,0.109-0.09,0.109-0.169c0.001-0.227,0-0.453,0-0.68
	c0.001-0.243,0.002-0.487-0.001-0.732L16.263,11.495z M15.908,11.45c0-0.051,0.004-0.114-0.065-0.12
	c-0.069-0.006-0.084,0.056-0.084,0.107c-0.002,0.503-0.002,1.007,0,1.51c0,0.051,0.01,0.111,0.083,0.106
	c0.075-0.004,0.067-0.067,0.067-0.117c0.001-0.243,0.001-0.486,0.001-0.73C15.91,11.954,15.911,11.702,15.908,11.45L15.908,11.45z
	 M17.501,11.458c-0.001-0.058,0.007-0.136-0.086-0.127c-0.069,0.007-0.062,0.075-0.062,0.124c0,0.489,0,0.979,0,1.468
	c0.002,0.048-0.015,0.116,0.059,0.125c0.092,0.012,0.089-0.066,0.09-0.124c0.003-0.236,0.001-0.471,0.001-0.707
	C17.503,11.964,17.505,11.711,17.501,11.458L17.501,11.458z M16.388,10.529c-0.001,0.065,0.004,0.13,0.085,0.134
	c0.075,0.004,0.106-0.051,0.106-0.119c0.001-0.505,0.001-1.01,0-1.515c-0.001-0.067-0.027-0.124-0.105-0.122
	C16.387,8.909,16.39,8.981,16.39,9.04c-0.002,0.244-0.001,0.488-0.001,0.732C16.388,10.024,16.389,10.277,16.388,10.529z
	 M16.257,9.09c0-0.077,0.014-0.175-0.097-0.18c-0.116-0.004-0.102,0.097-0.102,0.173c-0.001,0.472-0.001,0.943-0.001,1.415
	c0,0.08-0.005,0.172,0.109,0.165c0.092-0.006,0.091-0.086,0.091-0.158c-0.001-0.227-0.001-0.454-0.001-0.681
	C16.257,9.58,16.257,9.334,16.257,9.09L16.257,9.09z M16.704,10.503c0.001,0.068-0.011,0.154,0.087,0.16
	c0.096,0.006,0.105-0.069,0.105-0.145c-0.002-0.488,0-0.975-0.002-1.463c0-0.072-0.006-0.15-0.103-0.147
	c-0.103,0.004-0.086,0.093-0.088,0.158c-0.003,0.235-0.001,0.47-0.001,0.705C16.703,10.015,16.702,10.259,16.704,10.503
	L16.704,10.503z M17.21,9.07c0-0.068,0.013-0.152-0.086-0.161c-0.101-0.01-0.104,0.073-0.104,0.143
	c-0.002,0.488-0.002,0.975-0.002,1.463c0,0.072,0.004,0.15,0.103,0.147c0.101-0.004,0.09-0.086,0.09-0.155c0-0.235,0-0.47,0-0.705
	C17.21,9.558,17.21,9.314,17.21,9.07L17.21,9.07z M15.748,10.501c-0.001,0.063-0.006,0.13,0.078,0.138
	c0.088,0.008,0.095-0.063,0.095-0.124c0.001-0.495-0.001-0.992-0.003-1.488c-0.001-0.052-0.01-0.112-0.078-0.114
	c-0.083-0.002-0.092,0.061-0.092,0.127c0,0.244,0,0.488,0,0.731S15.749,10.257,15.748,10.501L15.748,10.501z M17.355,10.532
	c0,0.051-0.002,0.112,0.076,0.106c0.053-0.004,0.064-0.049,0.067-0.093c0.034-0.513,0.019-1.025,0.008-1.538
	c-0.001-0.045-0.022-0.09-0.071-0.094c-0.076-0.007-0.078,0.056-0.078,0.106c-0.002,0.253-0.002,0.505-0.002,0.757
	c0,0.251,0,0.504,0.002,0.756H17.355z M11.228,12.92c0,0.07-0.01,0.152,0.088,0.158c0.09,0.006,0.112-0.058,0.112-0.138
	c-0.001-0.489-0.001-0.979-0.001-1.468c0-0.073-0.006-0.151-0.104-0.148c-0.098,0.003-0.095,0.084-0.095,0.154
	c0,0.244,0,0.49,0,0.734C11.228,12.449,11.229,12.684,11.228,12.92z M10.913,12.913c0,0.078-0.013,0.173,0.106,0.165
	c0.091-0.005,0.095-0.083,0.094-0.157c-0.001-0.471,0-0.943-0.001-1.414c0-0.078,0.006-0.176-0.099-0.182
	c-0.117-0.006-0.1,0.098-0.1,0.173c-0.002,0.236-0.001,0.471-0.001,0.707C10.912,12.441,10.913,12.677,10.913,12.913L10.913,12.913z
	 M11.868,12.889c0.001,0.065-0.018,0.156,0.08,0.164c0.102,0.008,0.099-0.082,0.099-0.149c0.003-0.479,0.001-0.957,0.001-1.436
	c0-0.063-0.009-0.135-0.084-0.14c-0.102-0.006-0.094,0.083-0.095,0.15c-0.003,0.243-0.001,0.488-0.001,0.731
	C11.868,12.436,11.867,12.662,11.868,12.889L11.868,12.889z M12.362,11.507c-0.001-0.074,0.02-0.179-0.095-0.177
	c-0.093,0.001-0.084,0.095-0.084,0.162c-0.001,0.47-0.001,0.94,0.001,1.41c0.001,0.067-0.007,0.157,0.095,0.151
	c0.097-0.006,0.083-0.096,0.084-0.162c0.003-0.227,0.001-0.452,0.001-0.678C12.364,11.978,12.365,11.743,12.362,11.507
	L12.362,11.507z M12.678,11.49c-0.001-0.068,0.005-0.158-0.086-0.162c-0.097-0.004-0.092,0.091-0.093,0.156
	c-0.003,0.47-0.003,0.94-0.001,1.41c0,0.066-0.009,0.156,0.088,0.16c0.102,0.004,0.091-0.089,0.092-0.154
	c0.003-0.234,0.001-0.469,0.001-0.704C12.678,11.96,12.679,11.726,12.678,11.49L12.678,11.49z M11.542,12.893
	c0.001,0.067-0.011,0.154,0.088,0.158c0.112,0.005,0.084-0.097,0.086-0.154c0.006-0.469,0.007-0.938,0.006-1.406
	c-0.001-0.063,0.017-0.162-0.083-0.161c-0.112,0.001-0.095,0.104-0.095,0.179c-0.003,0.226-0.001,0.452-0.001,0.678
	C11.543,12.421,11.542,12.656,11.542,12.893L11.542,12.893z M10.912,15.359c-0.001,0.067,0.008,0.129,0.085,0.134
	c0.089,0.006,0.115-0.056,0.115-0.135c-0.001-0.488,0-0.974-0.001-1.461c0-0.073-0.013-0.15-0.104-0.151
	c-0.099-0.001-0.095,0.081-0.095,0.152c0,0.235,0,0.47,0,0.705C10.912,14.855,10.913,15.107,10.912,15.359L10.912,15.359z
	 M11.428,13.924c-0.001-0.078,0.005-0.176-0.102-0.175c-0.109,0-0.098,0.099-0.098,0.177c0,0.47,0,0.939,0,1.409
	c0,0.069-0.011,0.153,0.086,0.159c0.109,0.007,0.116-0.077,0.115-0.161c-0.001-0.234-0.001-0.469-0.001-0.704
	C11.428,14.394,11.429,14.159,11.428,13.924L11.428,13.924z M12.363,13.921c0-0.071,0.003-0.151-0.1-0.145
	c-0.084,0.005-0.08,0.077-0.08,0.138c-0.001,0.471-0.001,0.942,0.001,1.413c0.001,0.067-0.008,0.155,0.098,0.147
	c0.08-0.006,0.081-0.08,0.081-0.141c0.001-0.236,0.001-0.471,0.001-0.706S12.365,14.156,12.363,13.921L12.363,13.921z
	 M12.498,15.307c0.001,0.067-0.01,0.156,0.083,0.166c0.103,0.01,0.096-0.082,0.097-0.148c0.002-0.47,0.001-0.94,0.001-1.41
	c0-0.061,0.004-0.133-0.081-0.137c-0.102-0.005-0.099,0.077-0.1,0.147c-0.001,0.235-0.001,0.469-0.001,0.704
	C12.497,14.855,12.496,15.081,12.498,15.307z M11.869,15.299c0.001,0.07-0.033,0.179,0.093,0.173
	c0.093-0.004,0.086-0.095,0.086-0.163c0.002-0.462,0.001-0.924,0.001-1.386c-0.001-0.07,0.002-0.155-0.099-0.148
	c-0.101,0.007-0.081,0.097-0.081,0.163c-0.002,0.227-0.001,0.453-0.001,0.68S11.865,15.072,11.869,15.299L11.869,15.299z
	 M11.542,15.31c0.001,0.067-0.013,0.156,0.086,0.161c0.115,0.006,0.083-0.099,0.086-0.155c0.024-0.463,0.026-0.925,0.001-1.389
	c-0.003-0.067,0.015-0.157-0.092-0.147c-0.098,0.009-0.081,0.097-0.081,0.165c-0.001,0.227-0.001,0.454,0,0.682
	S11.541,15.083,11.542,15.31L11.542,15.31z M16.58,13.947c-0.001-0.084,0.018-0.2-0.106-0.198c-0.111,0.001-0.084,0.112-0.085,0.185
	c-0.002,0.463-0.001,0.926-0.001,1.389c0.001,0.076-0.019,0.177,0.101,0.17c0.113-0.007,0.092-0.108,0.092-0.184
	c0.001-0.227,0.001-0.454,0.001-0.681S16.583,14.174,16.58,13.947L16.58,13.947z M16.704,15.309
	c0.001,0.073-0.031,0.177,0.086,0.184c0.114,0.007,0.106-0.09,0.106-0.17c0-0.472,0-0.945,0-1.416c0-0.071,0.002-0.156-0.092-0.161
	c-0.121-0.005-0.1,0.098-0.101,0.172c-0.003,0.236-0.001,0.472-0.001,0.708C16.703,14.853,16.7,15.081,16.704,15.309L16.704,15.309z
	 M17.02,15.338c0,0.069-0.008,0.152,0.092,0.156c0.098,0.003,0.101-0.072,0.101-0.147c-0.001-0.48-0.001-0.959-0.001-1.439
	c0-0.07,0.007-0.154-0.09-0.159c-0.1-0.005-0.1,0.084-0.102,0.151c-0.004,0.235,0,0.47,0,0.706
	C17.018,14.851,17.018,15.095,17.02,15.338L17.02,15.338z M15.943,13.934c0-0.077,0.016-0.179-0.09-0.184
	c-0.102-0.004-0.109,0.097-0.109,0.175c-0.002,0.47-0.001,0.941-0.001,1.412c0,0.073,0.011,0.154,0.1,0.155
	c0.113,0.001,0.1-0.095,0.1-0.173c0.001-0.235,0-0.47,0-0.705C15.943,14.387,15.943,14.16,15.943,13.934L15.943,13.934z
	 M16.258,13.884c0.001-0.08-0.025-0.145-0.114-0.137c-0.072,0.007-0.086,0.072-0.086,0.138c0.001,0.487,0.001,0.974,0,1.461
	c0,0.074,0.004,0.149,0.1,0.148c0.092-0.002,0.102-0.074,0.101-0.149c-0.001-0.243-0.001-0.487-0.001-0.731
	C16.258,14.37,16.257,14.127,16.258,13.884L16.258,13.884z M17.501,13.992c-0.009-0.075,0.052-0.207-0.083-0.204
	c-0.113,0.002-0.063,0.124-0.063,0.191c-0.006,0.438-0.006,0.875,0,1.313c0,0.064-0.055,0.182,0.08,0.176
	c0.1-0.005,0.067-0.1,0.067-0.168c-0.001-0.218,0-0.436,0-0.726C17.521,14.428,17.525,14.209,17.501,13.992z M14.603,15.35
	c0,0.075,0.004,0.148,0.104,0.144c0.081-0.003,0.093-0.065,0.093-0.131c0-0.49,0-0.98-0.001-1.47
	c-0.001-0.073-0.01-0.152-0.106-0.146c-0.098,0.005-0.09,0.09-0.09,0.159c-0.001,0.236,0,0.472,0,0.708
	C14.604,14.86,14.604,15.105,14.603,15.35L14.603,15.35z M14.289,15.326c0,0.077-0.016,0.175,0.105,0.167
	c0.097-0.006,0.087-0.091,0.087-0.161c0-0.472,0-0.944-0.001-1.414c0-0.078,0.012-0.175-0.106-0.169
	c-0.096,0.006-0.085,0.093-0.086,0.163c-0.001,0.236,0,0.472,0,0.707C14.288,14.854,14.287,15.091,14.289,15.326L14.289,15.326z
	 M14.166,13.928c0-0.079,0.006-0.175-0.098-0.18c-0.116-0.003-0.095,0.099-0.095,0.175c-0.001,0.469,0.001,0.938-0.004,1.408
	c-0.001,0.075-0.01,0.15,0.079,0.161c0.11,0.013,0.12-0.072,0.119-0.156c-0.001-0.235-0.001-0.469-0.001-0.704
	C14.166,14.397,14.165,14.163,14.166,13.928z M13.848,13.9c0-0.074-0.018-0.151-0.106-0.15c-0.093,0.001-0.097,0.082-0.097,0.154
	c-0.001,0.481,0,0.961-0.001,1.442c0,0.074,0.002,0.15,0.1,0.147c0.092-0.003,0.104-0.076,0.104-0.151
	c-0.001-0.236-0.001-0.472,0-0.707C13.848,14.39,13.849,14.145,13.848,13.9L13.848,13.9z M13.327,15.348
	c0,0.074,0.003,0.147,0.1,0.146c0.074-0.001,0.1-0.054,0.1-0.124c-0.001-0.496,0-0.991,0-1.487c0-0.078-0.027-0.145-0.117-0.135
	c-0.075,0.007-0.083,0.075-0.083,0.14c0.001,0.243,0,0.487,0,0.73C13.327,14.861,13.328,15.106,13.327,15.348L13.327,15.348z
	 M15.092,13.909c-0.001-0.06,0-0.132-0.088-0.131c-0.083,0.002-0.09,0.072-0.091,0.133c-0.002,0.471-0.002,0.942,0,1.413
	c0.001,0.068,0.004,0.154,0.105,0.143c0.081-0.009,0.073-0.087,0.074-0.146c0.002-0.236,0.001-0.471,0.001-0.707
	c0-0.236,0.001-0.47,0-0.707L15.092,13.909z M13.973,12.175c0,0.253,0.001,0.506,0,0.758c0,0.072-0.001,0.152,0.099,0.145
	c0.073-0.004,0.093-0.067,0.093-0.134c-0.001-0.497,0-0.993-0.001-1.489c0-0.066-0.02-0.128-0.095-0.132
	c-0.104-0.004-0.097,0.075-0.097,0.147C13.973,11.705,13.972,11.939,13.973,12.175L13.973,12.175L13.973,12.175z M14.289,12.918
	c0,0.069-0.013,0.153,0.085,0.16c0.095,0.006,0.107-0.066,0.107-0.142c-0.001-0.488,0-0.976-0.001-1.464
	c0-0.073-0.009-0.151-0.103-0.148c-0.102,0.002-0.088,0.092-0.088,0.157c-0.003,0.235-0.001,0.47-0.001,0.706
	C14.289,12.431,14.288,12.675,14.289,12.918L14.289,12.918z M14.795,11.47c0-0.072-0.001-0.149-0.101-0.148
	c-0.085,0.001-0.09,0.072-0.09,0.132c-0.002,0.497-0.001,0.994-0.001,1.491c0,0.063,0.006,0.131,0.088,0.133
	c0.096,0.003,0.104-0.07,0.104-0.145c-0.001-0.236,0-0.47,0-0.707c0-0.252,0-0.504-0.001-0.757L14.795,11.47z M13.527,11.507
	c0-0.077,0.01-0.175-0.099-0.182c-0.12-0.008-0.1,0.097-0.1,0.172c-0.001,0.472-0.001,0.943-0.001,1.415
	c0,0.077-0.013,0.175,0.104,0.166c0.109-0.008,0.095-0.104,0.095-0.182c0-0.227,0-0.454,0-0.682
	C13.527,11.978,13.527,11.742,13.527,11.507L13.527,11.507z M13.842,11.508c0-0.076,0.017-0.176-0.093-0.182
	c-0.114-0.006-0.105,0.093-0.105,0.17c-0.001,0.471-0.001,0.942-0.001,1.413c0,0.079-0.004,0.175,0.108,0.168
	c0.111-0.007,0.092-0.107,0.093-0.182c0.001-0.227,0-0.453,0-0.68C13.843,11.979,13.844,11.744,13.842,11.508L13.842,11.508z
	 M15.096,11.493c0.003-0.071,0.018-0.155-0.079-0.163c-0.099-0.008-0.102,0.077-0.102,0.148c-0.001,0.481-0.001,0.962,0.001,1.444
	c0,0.06,0.001,0.132,0.086,0.133c0.103,0.001,0.095-0.073,0.095-0.147c-0.003-0.236-0.001-0.471-0.001-0.764
	C15.134,11.964,15.088,11.729,15.096,11.493L15.096,11.493z"/>
</svg>
