<?xml version="1.0" encoding="utf-8"?>
<!-- Generator: Adobe Illustrator 16.0.0, SVG Export Plug-In . SVG Version: 6.00 Build 0)  -->
<!DOCTYPE svg PUBLIC "-//W3C//DTD SVG 1.1//EN" "http://www.w3.org/Graphics/SVG/1.1/DTD/svg11.dtd">
<svg version="1.1" id="Layer_1" xmlns="http://www.w3.org/2000/svg" xmlns:xlink="http://www.w3.org/1999/xlink" x="0px" y="0px"
	 width="32px" height="32px" viewBox="0 0 32 32" enable-background="new 0 0 32 32" xml:space="preserve">
<title>drill-deployment</title>
<path fill="#3272A0" d="M16,0c8.822,0,16,7.177,16,16s-7.178,16-16,16C7.176,32,0,24.822,0,16C0,7.178,7.176,0,16,0z M16,31.359
	c8.471,0,15.359-6.889,15.359-15.359c0-8.47-6.889-15.36-15.359-15.36C7.53,0.64,0.64,7.53,0.64,16
	C0.64,24.471,7.53,31.359,16,31.359z M10.55,17.364c0.05-0.05,0.09-0.109,0.118-0.179l3.297-8.231
	c0.001-0.002,0.001-0.003,0.002-0.005l0.775-1.935c0.109-0.272-0.024-0.58-0.296-0.689c-0.271-0.109-0.58,0.023-0.689,0.295
	L13.28,7.81l-2.087-2.089c-0.207-0.207-0.543-0.208-0.75,0l-4.527,4.528c-0.207,0.207-0.207,0.543,0,0.749l4.347,4.347L9.684,16.79
	c-0.109,0.272,0.022,0.58,0.294,0.688C10.182,17.561,10.406,17.508,10.55,17.364L10.55,17.364L10.55,17.364z M7.04,10.624
	l3.778-3.778l2.035,2.035l-2.16,5.395L7.04,10.624L7.04,10.624z M17.575,10.438l-0.476,1.19L15.421,9.95
	c-0.207-0.207-0.543-0.207-0.749,0c-0.208,0.207-0.208,0.543,0,0.749l1.999,1.999l-2.162,5.395l-1.949-1.949
	c-0.207-0.207-0.542-0.207-0.751,0c-0.206,0.207-0.206,0.543,0,0.75l2.271,2.27l-0.579,1.445c-0.109,0.272,0.024,0.58,0.295,0.689
	c0.203,0.081,0.426,0.028,0.572-0.117c0.05-0.05,0.09-0.109,0.117-0.178l0.707-1.766c0.001-0.002,0.002-0.004,0.003-0.006
	l2.588-6.46c0.001-0.001,0.002-0.004,0.002-0.006l0.775-1.935c0.109-0.271-0.023-0.58-0.295-0.689
	C17.995,10.033,17.686,10.164,17.575,10.438L17.575,10.438L17.575,10.438z M21.393,14.255l-0.477,1.19l-1.785-1.786
	c-0.207-0.207-0.543-0.207-0.749,0c-0.208,0.208-0.208,0.543-0.001,0.75l2.105,2.106l-2.16,5.396l-1.95-1.95
	c-0.207-0.207-0.543-0.207-0.75,0s-0.207,0.542,0,0.749l2.271,2.271l-0.578,1.446c-0.109,0.272,0.022,0.58,0.295,0.689
	c0.201,0.082,0.427,0.028,0.572-0.117c0.049-0.05,0.09-0.108,0.117-0.177l0.592-1.48l5.4,1.407c0.182,0.047,0.376-0.005,0.51-0.138
	c0.133-0.133,0.186-0.326,0.137-0.51l-1.594-6.121c-0.023-0.092-0.07-0.174-0.138-0.242l-1.479-1.478l0.646-1.611
	c0.109-0.273-0.023-0.58-0.295-0.689S21.501,13.985,21.393,14.255L21.393,14.255L21.393,14.255z M22.359,18.387l1.33,5.108
	l-4.396-1.146l2.011-5.02L22.359,18.387L22.359,18.387z"/>
</svg>
