<?xml version="1.0" encoding="utf-8"?>
<!-- Generator: Adobe Illustrator 16.0.0, SVG Export Plug-In . SVG Version: 6.00 Build 0)  -->
<!DOCTYPE svg PUBLIC "-//W3C//DTD SVG 1.1//EN" "http://www.w3.org/Graphics/SVG/1.1/DTD/svg11.dtd">
<svg version="1.1" id="Layer_1" xmlns="http://www.w3.org/2000/svg" xmlns:xlink="http://www.w3.org/1999/xlink" x="0px" y="0px"
	 width="29px" height="32px" viewBox="0 0 29 32" enable-background="new 0 0 29 32" xml:space="preserve">
<title>elastic-search-master-deployment</title>
<path fill="#3272A0" d="M28.57,14.286C28.57,6.408,22.162,0,14.285,0C6.407,0-0.001,6.408-0.001,14.286
	c0,6.239,4.021,11.553,9.607,13.495C9.848,30.15,11.85,32,14.284,32c2.434,0,4.437-1.85,4.679-4.219
	C24.548,25.839,28.57,20.525,28.57,14.286L28.57,14.286z M18.982,27.171c-0.066-2.539-2.142-4.578-4.696-4.578
	c-2.555,0-4.63,2.038-4.697,4.578c-5.256-1.922-9.018-6.972-9.018-12.886c0-7.562,6.152-13.714,13.714-13.714
	c7.563,0,13.714,6.152,13.714,13.714C27.999,20.199,24.236,25.249,18.982,27.171L18.982,27.171z M11.74,26.598
	c0-0.369-0.008-0.674-0.03-0.971h0.57l0.03,0.578h0.022c0.201-0.341,0.534-0.659,1.127-0.659c0.489,0,0.86,0.297,1.015,0.72h0.014
	c0.111-0.201,0.252-0.355,0.399-0.467c0.214-0.163,0.452-0.252,0.794-0.252c0.473,0,1.178,0.311,1.178,1.557v2.111h-0.637v-2.029
	c0-0.69-0.252-1.105-0.779-1.105c-0.369,0-0.658,0.273-0.77,0.594c-0.03,0.088-0.052,0.206-0.052,0.326v2.215h-0.637v-2.15
	c0-0.569-0.252-0.985-0.749-0.985c-0.408,0-0.704,0.325-0.808,0.653c-0.037,0.096-0.052,0.207-0.052,0.317v2.164h-0.637v-2.616
	H11.74z M20.717,8.558c-0.359-0.259-0.617-0.667-0.572-1.067c0.16-1.412-0.705-2.618-2.104-2.838
	c-0.249-0.038-0.495-0.145-0.721-0.265c-0.422-0.226-0.861-0.31-1.315-0.183c-0.246,0.069-0.397,0.038-0.592-0.139
	c-1.113-1.008-2.857-0.647-3.403,0.72c-0.157,0.393-0.389,0.623-0.751,0.772c-0.081,0.034-0.17,0.071-0.228,0.133
	c-0.181,0.194-0.353,0.146-0.574,0.052C9.04,5.14,7.515,6.133,7.455,7.669C7.446,7.888,7.356,8.126,7.238,8.315
	c-0.421,0.678-0.495,1.358-0.213,2.062c-0.203,0.509-0.026,1.142,0.475,1.511c0.55,0.404,1.185,0.193,1.671-0.198
	c0.138-0.013,0.278-0.041,0.421-0.085c0.286-0.087,0.544-0.193,0.785-0.076c0.038,0.029,0.078,0.054,0.118,0.078
	c0.01,0.009,0.021,0.016,0.031,0.027c0.001-0.002,0.002-0.004,0.004-0.006c0.079,0.042,0.162,0.075,0.246,0.099
	c0.467,1.654,1.473,3.101,2.854,4.128c-0.084,1.011-0.354,2.002-0.855,2.974c-0.559,0.342-1.242,0.094-1.829-0.067
	c-0.518-0.143-1.023-0.197-1.54-0.031c-0.107,0.035-0.157,0.119-0.162,0.207c-0.001,0.002-0.002,0.004-0.002,0.006
	c-0.039,0.17-0.078,0.338-0.117,0.506c-0.037,0.158,0.077,0.266,0.2,0.287c0.019,0.005,0.039,0.009,0.062,0.009h9.574
	c0.084,0,0.145-0.037,0.182-0.089c0.053-0.042,0.09-0.109,0.09-0.184v-0.35c0-0.104-0.07-0.191-0.166-0.223
	c-0.035-0.03-0.084-0.049-0.145-0.049h-2.893c-0.145-0.166-0.291-0.334-0.442-0.5c-0.42-0.461-0.605-0.975-0.417-1.597
	c0.064-0.216,0.113-0.439,0.141-0.664c0.082-0.663,0.156-1.331,0.232-2.009c0.971-0.093,1.85-0.506,2.53-1.209
	c0.282,0,0.536-0.085,0.749-0.227l0.085-0.026c0.462,0.372,1.173,0.411,1.71,0.212c0.498-0.183,0.929-0.682,0.943-1.229
	c0.002-0.052-0.002-0.103-0.006-0.154c0.389-0.998,0.034-2.258-0.841-2.891H20.717z M12.272,11.566
	c0.006-0.002,0.01-0.004,0.016-0.006c0.1-0.038,0.275,0.005,0.366,0.075c0.127,0.099,0.247,0.206,0.365,0.317
	c0.002,0.009,0.003,0.017,0.006,0.027c0.179,0.601,0.359,1.202,0.538,1.801c0.044,0.303,0.07,0.604,0.085,0.903
	C12.718,13.918,12.209,12.784,12.272,11.566L12.272,11.566z M15.76,13.302c0.041-0.101,0.084-0.201,0.129-0.301
	c0.014,0,0.029,0,0.043,0c0-0.035,0.002-0.07,0.002-0.105c0.121-0.269,0.252-0.532,0.398-0.783c0.188,0.165,0.383,0.314,0.591,0.434
	c-0.347,0.309-0.737,0.561-1.161,0.755H15.76z"/>
</svg>
