<?xml version="1.0" encoding="utf-8"?>
<!-- Generator: Adobe Illustrator 16.0.0, SVG Export Plug-In . SVG Version: 6.00 Build 0)  -->
<!DOCTYPE svg PUBLIC "-//W3C//DTD SVG 1.1//EN" "http://www.w3.org/Graphics/SVG/1.1/DTD/svg11.dtd">
<svg version="1.1" id="Layer_1" xmlns="http://www.w3.org/2000/svg" xmlns:xlink="http://www.w3.org/1999/xlink" x="0px" y="0px"
	 width="32px" height="32px" viewBox="0 0 32 32" enable-background="new 0 0 32 32" xml:space="preserve">
<title>elastic-search-deployment</title>
<path fill="#3272A0" d="M16,0c8.822,0,16,7.177,16,16s-7.178,16-16,16C7.176,32,0,24.822,0,16C0,7.178,7.176,0,16,0z M16,31.359
	c8.471,0,15.359-6.889,15.359-15.359c0-8.47-6.889-15.36-15.359-15.36C7.53,0.64,0.64,7.53,0.64,16
	C0.64,24.471,7.53,31.359,16,31.359z M24.311,12.046c-0.465-0.335-0.799-0.863-0.74-1.379C23.775,8.842,22.659,7.284,20.852,7
	c-0.32-0.049-0.641-0.187-0.93-0.342c-0.545-0.292-1.113-0.4-1.699-0.236c-0.318,0.088-0.514,0.049-0.766-0.179
	c-1.439-1.302-3.693-0.837-4.397,0.931c-0.203,0.507-0.502,0.804-0.972,0.998c-0.104,0.043-0.219,0.092-0.294,0.172
	c-0.234,0.251-0.457,0.189-0.741,0.068C9.222,7.632,7.25,8.916,7.174,10.9c-0.012,0.284-0.129,0.591-0.281,0.836
	c-0.545,0.876-0.64,1.755-0.275,2.666c-0.264,0.657-0.034,1.476,0.614,1.953c0.711,0.522,1.532,0.25,2.16-0.255
	c0.178-0.017,0.36-0.053,0.544-0.11c0.369-0.114,0.703-0.248,1.014-0.098c0.049,0.037,0.1,0.069,0.152,0.1
	c0.013,0.012,0.027,0.022,0.04,0.035c0.002-0.003,0.003-0.005,0.006-0.008c0.102,0.055,0.209,0.097,0.317,0.129
	c0.604,2.137,1.904,4.008,3.688,5.334c-0.108,1.307-0.457,2.588-1.105,3.843c-0.723,0.442-1.606,0.122-2.364-0.089
	c-0.669-0.185-1.322-0.252-1.99-0.039c-0.138,0.044-0.202,0.154-0.209,0.266c-0.001,0.004-0.003,0.006-0.003,0.01
	c-0.051,0.219-0.101,0.437-0.152,0.653c-0.047,0.204,0.1,0.345,0.259,0.371c0.026,0.007,0.051,0.012,0.081,0.012h12.373
	c0.109,0,0.186-0.047,0.234-0.114c0.07-0.057,0.117-0.143,0.117-0.237v-0.452c0-0.133-0.092-0.249-0.215-0.287
	c-0.046-0.04-0.109-0.064-0.188-0.064h-3.738c-0.186-0.217-0.376-0.433-0.572-0.646c-0.543-0.598-0.781-1.262-0.537-2.064
	c0.084-0.279,0.146-0.568,0.18-0.859c0.105-0.858,0.201-1.721,0.301-2.596c1.254-0.119,2.389-0.653,3.27-1.561
	c0.365-0.001,0.693-0.109,0.967-0.294l0.111-0.034c0.596,0.48,1.516,0.531,2.211,0.274c0.643-0.237,1.2-0.882,1.219-1.588
	c0.002-0.067-0.002-0.132-0.008-0.198c0.502-1.291,0.043-2.919-1.088-3.737L24.311,12.046z M13.397,15.934
	c0.008-0.003,0.013-0.005,0.021-0.008c0.129-0.049,0.355,0.007,0.472,0.098c0.164,0.128,0.32,0.267,0.471,0.41
	c0.003,0.012,0.004,0.023,0.008,0.035c0.232,0.776,0.463,1.553,0.696,2.328c0.057,0.391,0.091,0.78,0.11,1.166
	C13.974,18.975,13.316,17.508,13.397,15.934z M17.904,18.177c0.055-0.13,0.109-0.26,0.166-0.389c0.02,0,0.039,0,0.058,0
	c0-0.045,0.001-0.09,0.002-0.136c0.156-0.348,0.324-0.687,0.515-1.012c0.244,0.213,0.494,0.406,0.763,0.562
	C18.958,17.6,18.452,17.927,17.904,18.177z"/>
</svg>
