<?xml version="1.0" encoding="utf-8"?>
<!-- Generator: Adobe Illustrator 16.0.0, SVG Export Plug-In . SVG Version: 6.00 Build 0)  -->
<!DOCTYPE svg PUBLIC "-//W3C//DTD SVG 1.1//EN" "http://www.w3.org/Graphics/SVG/1.1/DTD/svg11.dtd">
<svg version="1.1" id="Layer_1" xmlns="http://www.w3.org/2000/svg" xmlns:xlink="http://www.w3.org/1999/xlink" x="0px" y="0px"
	 width="32px" height="32px" viewBox="0 0 32 32" enable-background="new 0 0 32 32" xml:space="preserve">
<title>email-notification</title>
<path fill="#3272A0" d="M24.32,32H7.68C3.413,32,0,28.588,0,24.32V7.68C0,3.413,3.413,0,7.68,0h16.64C28.587,0,32,3.413,32,7.68
	v16.64C32,28.588,28.587,32,24.32,32z M31.041,23.361V8.64c0-4.267-3.414-7.68-7.68-7.68H8.64c-4.267,0-7.68,3.413-7.68,7.68v14.721
	c0,4.266,3.413,7.68,7.68,7.68h14.721C27.627,31.041,31.041,27.627,31.041,23.361z M27.093,21.548c0,0.532-0.106,0.959-0.426,1.386
	l-7.041-7.894l7.041-6.08c0.213,0.427,0.426,0.96,0.426,1.494V21.548z M16,16.426L25.706,8c-0.427-0.213-0.853-0.32-1.386-0.32H7.68
	C7.147,7.68,6.72,7.787,6.293,8L16,16.426z M18.667,15.894l-2.241,2.026c-0.107,0.105-0.32,0.214-0.426,0.214
	c-0.213,0-0.32-0.108-0.427-0.214l-2.24-2.026l-7.147,8C6.613,24.105,7.04,24.32,7.68,24.32h16.64c0.533,0,1.066-0.215,1.492-0.426
	L18.667,15.894z M5.333,8.96c-0.32,0.427-0.427,0.96-0.427,1.494v11.094c0,0.532,0.107,0.959,0.427,1.386l7.04-7.894L5.333,8.96z"/>
</svg>
