<?xml version="1.0" encoding="utf-8"?>
<!-- Generator: Adobe Illustrator 16.0.0, SVG Export Plug-In . SVG Version: 6.00 Build 0)  -->
<!DOCTYPE svg PUBLIC "-//W3C//DTD SVG 1.1//EN" "http://www.w3.org/Graphics/SVG/1.1/DTD/svg11.dtd">
<svg version="1.1" id="Layer_1" xmlns="http://www.w3.org/2000/svg" xmlns:xlink="http://www.w3.org/1999/xlink" x="0px" y="0px"
	 width="32px" height="32px" viewBox="0 0 32 32" enable-background="new 0 0 32 32" xml:space="preserve">
<title>encryption</title>
<path fill="#64953B" d="M16,0C7.176,0,0,7.177,0,16s7.176,16,16,16c8.822,0,16-7.178,16-16C32,7.178,24.822,0,16,0z M16,31.359
	C7.53,31.359,0.64,24.471,0.64,16C0.64,7.53,7.53,0.64,16,0.64c8.471,0,15.359,6.89,15.359,15.36
	C31.359,24.471,24.471,31.359,16,31.359z M23.57,14.316h-1.256v-3.661c0-2.38-2.01-4.759-4.369-4.759h-3.938
	c-2.359,0-4.324,2.379-4.324,4.759v3.661h-1.3c-0.28,0-0.382,0.403-0.382,0.652v10.673c0,0.252,0.101,0.465,0.382,0.465H23.57
	c0.281,0,0.43-0.213,0.43-0.465V14.967C24,14.718,23.852,14.315,23.57,14.316L23.57,14.316z M19.789,14.316h-7.58v-3.661
	c0-1.081,0.778-1.391,1.837-1.391h3.858c1.059,0,1.884,0.309,1.884,1.391L19.789,14.316L19.789,14.316z"/>
</svg>
