<?xml version="1.0" encoding="utf-8"?>
<!-- Generator: Adobe Illustrator 16.0.0, SVG Export Plug-In . SVG Version: 6.00 Build 0)  -->
<!DOCTYPE svg PUBLIC "-//W3C//DTD SVG 1.1//EN" "http://www.w3.org/Graphics/SVG/1.1/DTD/svg11.dtd">
<svg version="1.1" id="Layer_1" xmlns="http://www.w3.org/2000/svg" xmlns:xlink="http://www.w3.org/1999/xlink" x="0px" y="0px"
	 width="32px" height="32px" viewBox="0 0 32 32" enable-background="new 0 0 32 32" xml:space="preserve">
<title>external-predictor</title>
<path fill="#3272A0" d="M32,16L16,32L0,16L16,0L32,16z M16,0.64L0.64,16L16,31.359L31.359,16L16,0.64z M17.216,20.288l-0.64-0.576
	v-0.448c1.6-0.063,3.136-0.768,4.352-1.984c2.688-2.751,2.624-7.104-0.128-9.792s-7.104-2.624-9.792,0.128s-2.624,7.104,0.128,9.792
	c1.216,1.216,2.816,1.855,4.416,1.92v0.447l-0.576,0.641l0.064,7.552h2.239L17.216,20.288z M12.608,15.808
	c-1.92-1.856-1.92-4.864-0.064-6.784s4.864-1.92,6.784-0.064s1.92,4.864,0.064,6.784C17.536,17.664,14.528,17.664,12.608,15.808z
	 M19.008,10.304l-0.128,0.064l-0.575,0.064l-0.193,0.256l-0.127-0.064l-0.448-0.448l-0.063-0.192l-0.064-0.256l-0.32-0.256
	l-0.32-0.064v0.128l0.512,0.512l-0.191,0.128l-0.128-0.064l-0.256-0.064V9.856l-0.32-0.128l-0.128,0.448l-0.192,0.064v0.256
	l0.384,0.064l0.063-0.384l0.32,0.064l0.128,0.064h0.256l0.192,0.32l0.447,0.448v0.192L17.536,11.2l-0.704,0.32l-0.448,0.512
	l-0.064,0.256h-0.128l-0.32-0.128l-0.256,0.128l0.064,0.32l0.128-0.128H16v0.256l0.192,0.064l0.192,0.192l0.32-0.064l0.319,0.064
	l0.385,0.128H17.6l0.32,0.32l0.641,0.384l-0.385,0.768l-0.447,0.192l-0.192,0.448l-0.64,0.448l-0.064,0.256
	c1.6-0.384,2.816-1.856,2.816-3.584C19.648,11.584,19.393,10.88,19.008,10.304z M16.384,14.272l-0.256-0.512l0.256-0.512
	l-0.256-0.064l-0.256-0.256l-0.64-0.128l-0.192-0.448v0.256h-0.064l-0.512-0.704v-0.576l-0.384-0.64l-0.64,0.128h-0.384L12.8,10.624
	l0.256-0.192L12.8,10.496c-0.32,0.512-0.512,1.152-0.512,1.856c0,2.048,1.664,3.648,3.648,3.648c0.128,0,0.32,0,0.448,0
	l-0.064-0.448c0,0,0.192-0.64,0.192-0.704C16.576,14.848,16.384,14.272,16.384,14.272z M13.696,9.856l0.64-0.064l0.32-0.192
	l0.32,0.128h0.512l0.192-0.32l0.256,0.064l0.64-0.064l0.191-0.192l0.256-0.192l0.385,0.064h0.128
	C17.088,8.896,16.512,8.704,16,8.704c-1.152,0-2.176,0.512-2.816,1.344l0,0L13.696,9.856z M16.128,9.024l0.384-0.192l0.256,0.128
	l-0.319,0.256l-0.32,0.064L16,9.152L16.128,9.024z M15.04,9.088l0.192,0.064l0.192-0.064l0.128,0.192L15.04,9.408L14.784,9.28
	L15.04,9.088L15.04,9.088z"/>
</svg>
