<?xml version="1.0" encoding="utf-8"?>
<!-- Generator: Adobe Illustrator 16.0.0, SVG Export Plug-In . SVG Version: 6.00 Build 0)  -->
<!DOCTYPE svg PUBLIC "-//W3C//DTD SVG 1.1//EN" "http://www.w3.org/Graphics/SVG/1.1/DTD/svg11.dtd">
<svg version="1.1" id="Layer_1" xmlns="http://www.w3.org/2000/svg" xmlns:xlink="http://www.w3.org/1999/xlink" x="0px" y="0px"
	 width="32px" height="32px" viewBox="0 0 32 32" enable-background="new 0 0 32 32" xml:space="preserve">
<title>file-source</title>
<path fill="#3272A0" d="M23.6,12v13.2c0,0.221-0.18,0.399-0.399,0.399H8.8c-0.22,0-0.4-0.179-0.4-0.399V6.8c0-0.22,0.18-0.4,0.4-0.4
	H18v5.2c0,0.221,0.18,0.4,0.4,0.4H23.6z M18.8,6.4v4.4c0,0.221,0.181,0.4,0.4,0.4H23.6L18.8,6.4z M16,0C7.176,0,0,7.177,0,16
	s7.176,16,16,16c8.822,0,16-7.178,16-16C32,7.178,24.822,0,16,0z M16,31.359C7.53,31.359,0.64,24.471,0.64,16
	C0.64,7.53,7.53,0.64,16,0.64c8.471,0,15.359,6.89,15.359,15.36C31.359,24.471,24.471,31.359,16,31.359z"/>
</svg>
