<?xml version="1.0" encoding="utf-8"?>
<!-- Generator: Adobe Illustrator 16.0.0, SVG Export Plug-In . SVG Version: 6.00 Build 0)  -->
<!DOCTYPE svg PUBLIC "-//W3C//DTD SVG 1.1//EN" "http://www.w3.org/Graphics/SVG/1.1/DTD/svg11.dtd">
<svg version="1.1" id="Layer_1" xmlns="http://www.w3.org/2000/svg" xmlns:xlink="http://www.w3.org/1999/xlink" x="0px" y="0px"
	 width="32px" height="32px" viewBox="0 0 32 32" enable-background="new 0 0 32 32" xml:space="preserve">
<title>filling</title>
<path fill="#64953B" d="M16,0C7.176,0,0,7.177,0,16s7.176,16,16,16c8.822,0,16-7.178,16-16C32,7.178,24.822,0,16,0z M16,31.359
	C7.53,31.359,0.64,24.471,0.64,16C0.64,7.53,7.53,0.64,16,0.64c8.471,0,15.359,6.89,15.359,15.36
	C31.359,24.471,24.471,31.359,16,31.359z M24.688,11.813c0.013,0.238,0.03,0.476,0.031,0.714c0.002,3.974,0.002,7.948,0,11.922
	c-0.001,1.102-0.131,1.23-1.26,1.23c-5.266,0.002-10.531,0.002-15.796,0c-1.133,0-1.261-0.123-1.262-1.228
	c-0.002-5.29-0.003-10.58,0.001-15.87c0-1.06,0.14-1.192,1.218-1.192c4.297-0.001,8.594,0,12.892,0c0.196,0,0.393,0,0.602,0
	c-0.331,1.196-0.768,1.537-1.93,1.537c-3.353,0-6.707-0.002-10.06,0.001C8.133,8.929,7.96,9.105,7.96,10.104
	c-0.001,4.297-0.002,8.593,0,12.89c0,0.97,0.159,1.131,1.119,1.132c4.321,0.003,8.644,0.003,12.965,0
	c0.961-0.001,1.113-0.157,1.114-1.135c0.002-2.583,0.037-5.167-0.018-7.748c-0.021-0.966,0.149-1.799,0.772-2.542
	c0.235-0.282,0.418-0.61,0.626-0.916c0.049,0.009,0.1,0.019,0.146,0.03v-0.002H24.688z M16.269,19.518
	c0.301-1.889,0.316-3.622,1.479-5.177c1.734-2.318,3.229-4.815,4.835-7.229c0.64-0.962,0.903-1.003,1.862-0.372
	c0.186,0.122,0.373,0.243,0.559,0.367c0.676,0.46,0.77,0.852,0.313,1.553c-1.043,1.598-2.103,3.185-3.153,4.777
	c-0.615,0.931-1.32,1.816-1.821,2.804C19.482,17.934,17.805,18.493,16.269,19.518L16.269,19.518z M23.956,7.371
	c-0.328-0.077-0.585-0.2-0.819-0.169c-0.148,0.02-0.281,0.263-0.389,0.426c-1.712,2.582-3.42,5.167-5.124,7.754
	c-0.095,0.143-0.22,0.303-0.228,0.46c-0.006,0.163,0.069,0.401,0.192,0.479c0.118,0.076,0.37,0.042,0.509-0.038
	c0.16-0.093,0.275-0.28,0.385-0.444c1.685-2.541,3.365-5.084,5.041-7.631C23.658,8.003,23.751,7.772,23.956,7.371L23.956,7.371z
	 M18.896,17.404c0.34-0.394,0.571-0.61,0.744-0.868c1.647-2.476,3.295-4.953,4.92-7.446c0.211-0.326,0.738-0.751,0.174-1.131
	c-0.577-0.389-0.752,0.281-0.967,0.6c-1.66,2.468-3.291,4.956-4.93,7.44c-0.122,0.185-0.303,0.391-0.298,0.583
	c0.006,0.229,0.185,0.451,0.354,0.822H18.896z M13.922,10.198c1.267,0,2.534,0.014,3.801-0.005c0.633-0.01,0.909,0.305,0.937,0.895
	c0.026,0.614-0.238,1.049-0.882,1.054c-2.607,0.022-5.215,0.021-7.824,0.001c-0.634-0.005-0.934-0.423-0.909-1.038
	c0.026-0.62,0.339-0.931,1.003-0.916C11.338,10.217,12.63,10.198,13.922,10.198L13.922,10.198z M12.83,15.198
	c-0.968,0-1.937-0.022-2.904,0.007c-0.686,0.021-0.867-0.398-0.875-0.94c-0.008-0.573,0.172-1.019,0.89-1.014
	c1.936,0.015,3.873,0.015,5.809,0c0.7-0.006,0.904,0.382,0.906,0.99c0.001,0.618-0.221,0.984-0.92,0.963
	c-0.968-0.028-1.937-0.007-2.905-0.007L12.83,15.198z M12.246,21.316c-0.793,0-1.587-0.021-2.378,0.007
	c-0.723,0.026-0.816-0.47-0.814-0.978c0.002-0.503,0.081-1,0.804-0.992c1.635,0.019,3.27,0.012,4.905,0.004
	c0.725-0.004,0.769,0.502,0.765,1.017c-0.004,0.492-0.074,0.959-0.756,0.946C13.93,21.305,13.088,21.316,12.246,21.316
	L12.246,21.316z M12.27,18.191c-0.819-0.002-1.638-0.022-2.455,0.006c-0.698,0.023-0.758-0.467-0.762-0.938
	c-0.004-0.476,0.069-0.979,0.741-0.979c1.662-0.001,3.324-0.002,4.985,0c0.719,0.001,0.753,0.515,0.751,1.035
	c-0.001,0.525-0.14,0.914-0.806,0.886C13.908,18.163,13.088,18.191,12.27,18.191z"/>
</svg>
