<?xml version="1.0" encoding="utf-8"?>
<!-- Generator: Adobe Illustrator 16.0.0, SVG Export Plug-In . SVG Version: 6.00 Build 0)  -->
<!DOCTYPE svg PUBLIC "-//W3C//DTD SVG 1.1//EN" "http://www.w3.org/Graphics/SVG/1.1/DTD/svg11.dtd">
<svg version="1.1" id="Layer_1" xmlns="http://www.w3.org/2000/svg" xmlns:xlink="http://www.w3.org/1999/xlink" x="0px" y="0px"
	 width="32px" height="32px" viewBox="0 0 32 32" enable-background="new 0 0 32 32" xml:space="preserve">
<title>findreplace</title>
<path fill="#64953B" d="M16,0C7.176,0,0,7.176,0,16s7.176,16,16,16c8.822,0,16-7.178,16-16C32,7.176,24.822,0,16,0z M16,31.359
	C7.53,31.359,0.64,24.471,0.64,16C0.64,7.53,7.53,0.64,16,0.64c8.471,0,15.359,6.89,15.359,15.36
	C31.359,24.471,24.471,31.359,16,31.359z M12.137,16.001c-1.454,1.345-2.769,2.569-4.097,3.778c-0.82,0.748-1.835,0.797-2.47,0.15
	c-0.662-0.679-0.591-1.599,0.2-2.453c1.196-1.291,2.399-2.577,3.734-4.011C8.787,11.925,8.422,9.968,9.48,8.174
	c0.65-1.101,1.635-2.157,2.723-2.813c2.307-1.394,5.474-0.618,7.256,1.511c1.71,2.042,1.787,5.211,0.178,7.359
	C17.844,16.622,14.954,17.247,12.137,16.001z M14.932,14.26c2.005-0.015,3.558-1.571,3.567-3.578
	c0.013-2.051-1.583-3.633-3.642-3.618c-1.986,0.014-3.573,1.599-3.583,3.578C11.265,12.668,12.887,14.275,14.932,14.26L14.932,14.26
	z M26.88,17.959c-0.299,0.445-0.493,0.864-0.8,1.174c-2.125,2.156-4.115,4.493-6.479,6.354c-1.322,1.039-3.25,1.39-4.959,1.824
	c-0.856,0.219-1.53-0.826-1.197-1.737c0.664-1.821,1.245-3.652,2.81-5.039c1.949-1.726,3.705-3.667,5.56-5.501
	c1-0.992,1.617-0.982,2.629,0.008c0.576,0.562,1.166,1.115,1.697,1.716C26.43,17.082,26.607,17.504,26.88,17.959L26.88,17.959z
	 M18.212,24.652c0.009-1.038-0.854-1.971-1.601-1.937c-1.11,0.056-0.92,1.152-1.252,1.793c-0.062,0.121,0.728,0.974,0.973,0.909
	C17.01,25.242,17.984,25.386,18.212,24.652L18.212,24.652z"/>
</svg>
