<?xml version="1.0" encoding="utf-8"?>
<!-- Generator: Adobe Illustrator 16.0.0, SVG Export Plug-In . SVG Version: 6.00 Build 0)  -->
<!DOCTYPE svg PUBLIC "-//W3C//DTD SVG 1.1//EN" "http://www.w3.org/Graphics/SVG/1.1/DTD/svg11.dtd">
<svg version="1.1" id="Layer_1" xmlns="http://www.w3.org/2000/svg" xmlns:xlink="http://www.w3.org/1999/xlink" x="0px" y="0px"
	 width="32px" height="32px" viewBox="0 0 32 32" enable-background="new 0 0 32 32" xml:space="preserve">
<title>fire-sensor</title>
<path fill="#3272A0" d="M9.972,32.096c-2.111-4.416-1.024-6.976,0.64-9.408c1.793-2.625,2.24-5.248,2.24-5.248
	s1.409,1.856,0.833,4.674c2.496-2.754,2.944-7.169,2.56-8.897c5.633,3.968,8.063,12.479,4.8,18.751
	c17.28-9.791,4.287-24.383,2.047-26.047c0.77,1.664,0.896,4.416-0.64,5.76c-2.56-9.728-8.96-11.776-8.96-11.776
	c0.769,5.056-2.751,10.56-6.08,14.656c-0.127-1.984-0.255-3.392-1.28-5.312c-0.255,3.648-3.007,6.592-3.775,10.238
	C1.397,24.672,3.188,28.32,9.972,32.096z"/>
</svg>
