<?xml version="1.0" encoding="utf-8"?>
<!-- Generator: Adobe Illustrator 16.0.0, SVG Export Plug-In . SVG Version: 6.00 Build 0)  -->
<!DOCTYPE svg PUBLIC "-//W3C//DTD SVG 1.1//EN" "http://www.w3.org/Graphics/SVG/1.1/DTD/svg11.dtd">
<svg version="1.1" id="Layer_1" xmlns="http://www.w3.org/2000/svg" xmlns:xlink="http://www.w3.org/1999/xlink" x="0px" y="0px"
	 width="32px" height="32px" viewBox="0 0 32 32" enable-background="new 0 0 32 32" xml:space="preserve">
<title>flume-source</title>
<path fill="#3272A0" d="M16,0c8.822,0,16,7.177,16,16s-7.178,16-16,16C7.176,32,0,24.822,0,16C0,7.178,7.176,0,16,0z M16,31.359
	c8.471,0,15.359-6.889,15.359-15.359c0-8.47-6.889-15.36-15.359-15.36C7.53,0.64,0.64,7.53,0.64,16
	C0.64,24.471,7.53,31.359,16,31.359z M17.438,17.793c-1.435,0.607-2.89,0.691-4.376,0.329c-0.259-0.063-0.509-0.157-0.764-0.233
	c-0.036-0.012-0.084-0.022-0.113-0.007c-0.417,0.224-0.87,0.308-1.334,0.321c-0.678,0.021-1.359,0.063-2.035-0.04
	c-0.351-0.054-0.705-0.114-0.999-0.353c-0.197-0.158-0.326-0.357-0.431-0.594c-0.195,0.038-0.396,0.098-0.6,0.113
	c-0.501,0.037-0.595,0.044-0.97,0.527c-0.164,0.211-0.424,0.379-0.675,0.484c-0.575,0.243-1.183,0.385-1.815,0.282
	c-0.412-0.065-0.821-0.147-1.155-0.433c-0.243-0.209-0.419-0.452-0.506-0.77c-0.089-0.324-0.089-0.638,0.001-0.962
	c0.092-0.335,0.158-0.678,0.239-1.016c0.229-0.966,0.862-1.546,1.789-1.82c0.905-0.267,1.836-0.323,2.772-0.253
	c0.518,0.038,1.034,0.115,1.548,0.188c0.376,0.053,0.637,0.28,0.822,0.616c0.207-0.044,0.417-0.108,0.63-0.129
	c0.612-0.061,1.293,0.155,1.615,0.769c0.138,0.262,0.193,0.554,0.193,0.852c0,0.045-0.004,0.09-0.006,0.145
	c0.052,0.012,0.103,0.024,0.164,0.038c0.195-0.88,0.685-1.484,1.574-1.72c0.881-0.234,1.616-0.04,2.153,0.71
	c0.158-0.141,0.31-0.308,0.491-0.434c0.508-0.355,1.08-0.449,1.683-0.341c0.277,0.049,0.555,0.113,0.766,0.319
	c0.112,0.109,0.211,0.232,0.318,0.353c0.126-0.09,0.255-0.198,0.4-0.28c0.513-0.295,1.072-0.447,1.66-0.425
	c0.467,0.017,0.905,0.171,1.267,0.493c0.032,0.029,0.069,0.055,0.112,0.088c0.541-0.438,1.172-0.631,1.849-0.593
	c0.665,0.038,1.293,0.232,1.771,0.758c0.061-0.054,0.119-0.108,0.18-0.16c0.477-0.424,1.07-0.527,1.674-0.585
	c0.828-0.079,1.646-0.022,2.439,0.25c0.291,0.1,0.494,0.292,0.58,0.595c0.125,0.427,0.021,0.79-0.297,1.098
	c-0.017,0.017-0.029,0.043-0.033,0.067c-0.026,0.132-0.027,0.274-0.08,0.395c-0.054,0.125-0.039,0.235-0.004,0.352
	c0.162,0.563-0.261,1.159-0.779,1.261c-1.168,0.231-2.336,0.279-3.5-0.025c-0.146-0.039-0.283-0.111-0.432-0.17
	c-0.638,0.444-1.339,0.434-2.06,0.196c-0.097-0.03-0.19-0.089-0.269-0.155c-0.102-0.09-0.174-0.088-0.287-0.006
	c-0.361,0.267-0.785,0.377-1.219,0.316c-0.431-0.059-0.871-0.133-1.234-0.419c-0.027-0.022-0.108-0.007-0.147,0.017
	c-0.506,0.313-1.057,0.445-1.647,0.387c-0.348-0.037-0.682-0.14-0.924-0.399L17.438,17.793z M6.54,15.488
	c-0.002,0.009-0.003,0.018-0.004,0.028c-0.095,0-0.191,0.006-0.285-0.002c-0.104-0.009-0.222-0.052-0.221-0.161
	c0-0.115,0.124-0.121,0.221-0.128c0.352-0.025,0.707-0.034,1.055-0.082c0.216-0.03,0.428-0.11,0.634-0.189
	c0.142-0.054,0.191-0.184,0.178-0.335c-0.013-0.14-0.099-0.22-0.223-0.264c-0.072-0.026-0.147-0.046-0.223-0.054
	c-0.446-0.044-0.892-0.097-1.34-0.121c-0.767-0.042-1.533-0.013-2.281,0.177c-0.727,0.186-1.229,0.616-1.399,1.377
	c-0.068,0.304-0.134,0.609-0.207,0.911c-0.137,0.563,0.085,0.953,0.643,1.109c0.411,0.115,0.824,0.1,1.237,0.01
	c0.438-0.096,0.817-0.277,1.072-0.675c0.154-0.239,0.391-0.392,0.665-0.468c0.173-0.047,0.355-0.07,0.534-0.088
	c0.337-0.033,0.667-0.081,0.947-0.292c0.196-0.148,0.189-0.397-0.017-0.531c-0.056-0.036-0.121-0.065-0.186-0.079
	c-0.265-0.052-0.532-0.098-0.798-0.145L6.54,15.488z M25.055,16.067c-0.008-0.001-0.014-0.002-0.021-0.003
	c0-0.086,0.003-0.172-0.001-0.258c-0.012-0.276-0.129-0.494-0.356-0.653c-0.735-0.51-1.823-0.413-2.452,0.223
	c-0.088,0.09-0.168,0.189-0.257,0.28c-0.122,0.127-0.216,0.12-0.327-0.017c-0.102-0.127-0.195-0.261-0.307-0.38
	c-0.225-0.24-0.497-0.401-0.83-0.413c-0.74-0.025-1.383,0.213-1.831,0.819c-0.253,0.343-0.45,0.731-0.655,1.106
	c-0.164,0.302-0.043,0.547,0.297,0.597c0.487,0.073,0.955,0.003,1.346-0.319c0.165-0.136,0.287-0.322,0.436-0.479
	c0.043-0.045,0.112-0.095,0.161-0.088c0.05,0.007,0.093,0.081,0.13,0.131c0.016,0.022,0.014,0.061,0.018,0.092
	c0.041,0.253,0.174,0.438,0.414,0.531c0.154,0.061,0.316,0.106,0.479,0.145c0.354,0.081,0.68,0.012,0.954-0.227
	c0.153-0.133,0.284-0.291,0.425-0.438c0.051-0.052,0.096-0.109,0.153-0.152c0.099-0.074,0.18-0.054,0.228,0.06
	c0.031,0.074,0.047,0.155,0.065,0.235c0.06,0.259,0.216,0.438,0.474,0.482c0.225,0.04,0.459,0.051,0.688,0.038
	c0.359-0.019,0.588-0.228,0.665-0.575C25.002,16.563,25.02,16.313,25.055,16.067z M14.796,17.514
	c0.815,0.004,1.408-0.099,2.046-0.355c0.202-0.082,0.379-0.202,0.492-0.391c0.251-0.419,0.381-0.879,0.409-1.365
	c0.014-0.267-0.12-0.446-0.384-0.504c-0.199-0.044-0.412-0.059-0.618-0.049c-0.372,0.018-0.689,0.175-0.897,0.49
	c-0.133,0.202-0.227,0.43-0.333,0.649c-0.061,0.126-0.097,0.266-0.169,0.384c-0.185,0.307-0.504,0.391-0.824,0.232
	c-0.164-0.08-0.225-0.199-0.181-0.377c0.039-0.163,0.097-0.321,0.132-0.484c0.093-0.438-0.078-0.718-0.508-0.849
	c-0.494-0.15-1.101,0.04-1.436,0.449c-0.342,0.419-0.427,1.079-0.195,1.522c0.067,0.129,0.159,0.22,0.299,0.278
	C13.323,17.436,14.054,17.511,14.796,17.514L14.796,17.514z M28.211,15.727c0.074-0.145,0.188-0.173,0.314-0.187
	c0.267-0.029,0.531-0.056,0.795-0.096c0.072-0.011,0.15-0.048,0.205-0.097c0.129-0.116,0.09-0.269-0.076-0.318
	c-0.121-0.036-0.242-0.076-0.365-0.102c-0.691-0.148-1.387-0.12-2.082-0.035c-0.35,0.043-0.673,0.164-0.909,0.44
	c-0.335,0.393-0.511,0.862-0.584,1.367c-0.038,0.268,0.091,0.459,0.347,0.545c0.154,0.051,0.316,0.08,0.477,0.104
	c0.732,0.109,1.464,0.08,2.195-0.006c0.164-0.019,0.332-0.046,0.486-0.105c0.067-0.026,0.127-0.137,0.146-0.219
	c0.023-0.104-0.067-0.17-0.157-0.188c-0.192-0.042-0.387-0.081-0.583-0.099c-0.175-0.017-0.354,0-0.529-0.006
	c-0.037-0.002-0.095-0.033-0.104-0.063c-0.014-0.04-0.003-0.106,0.025-0.136c0.037-0.041,0.098-0.073,0.15-0.077
	c0.148-0.013,0.299-0.016,0.447-0.01c0.266,0.013,0.5-0.07,0.712-0.22c0.11-0.078,0.116-0.168,0.013-0.258
	c-0.045-0.04-0.107-0.068-0.164-0.081c-0.246-0.054-0.496-0.1-0.758-0.152H28.211z M10.523,17.421c0-0.014,0.001-0.028,0.001-0.044
	c0.163,0,0.326,0.006,0.488-0.001c0.255-0.011,0.506-0.058,0.728-0.188c0.067-0.041,0.131-0.129,0.147-0.205
	c0.022-0.104-0.051-0.188-0.15-0.233c-0.058-0.024-0.12-0.042-0.18-0.056c-0.221-0.047-0.445-0.079-0.663-0.139
	c-0.367-0.1-0.511-0.342-0.455-0.717c0.017-0.111,0.022-0.226,0.015-0.338c-0.017-0.316-0.224-0.554-0.53-0.625
	c-0.6-0.14-1.27,0.161-1.524,0.722c-0.124,0.276-0.205,0.58-0.259,0.879c-0.093,0.525,0.087,0.756,0.609,0.86
	c0.031,0.006,0.063,0.012,0.093,0.014c0.559,0.022,1.119,0.047,1.679,0.069L10.523,17.421z"/>
</svg>
