<?xml version="1.0" encoding="utf-8"?>
<!-- Generator: Adobe Illustrator 16.0.0, SVG Export Plug-In . SVG Version: 6.00 Build 0)  -->
<!DOCTYPE svg PUBLIC "-//W3C//DTD SVG 1.1//EN" "http://www.w3.org/Graphics/SVG/1.1/DTD/svg11.dtd">
<svg version="1.1" id="Layer_1" xmlns="http://www.w3.org/2000/svg" xmlns:xlink="http://www.w3.org/1999/xlink" x="0px" y="0px"
	 width="32px" height="32px" viewBox="0 0 32 32" enable-background="new 0 0 32 32" xml:space="preserve">
<title>formula</title>
<path fill="#64953B" d="M16,0C7.176,0,0,7.177,0,16s7.176,16,16,16c8.822,0,16-7.178,16-16C32,7.178,24.822,0,16,0z M16,31.359
	C7.53,31.359,0.64,24.471,0.64,16C0.64,7.53,7.53,0.64,16,0.64c8.471,0,15.359,6.89,15.359,15.36
	C31.359,24.471,24.471,31.359,16,31.359z M10.71,13.878l-0.799,3.164c-0.374,1.497-0.739,2.579-1.094,3.248
	c-0.354,0.669-0.77,1.165-1.249,1.487c-0.479,0.324-1.025,0.486-1.637,0.486c-0.391,0-0.678-0.076-0.859-0.227
	C4.891,21.889,4.8,21.714,4.8,21.516c0-0.188,0.075-0.35,0.225-0.486c0.15-0.135,0.351-0.203,0.6-0.203
	c0.204,0,0.36,0.052,0.467,0.156c0.108,0.104,0.161,0.238,0.161,0.396c0,0.146-0.034,0.257-0.101,0.329
	C6.084,21.777,6.05,21.824,6.05,21.85l0.034,0.041c0.029,0.022,0.063,0.033,0.102,0.033c0.136,0,0.253-0.042,0.349-0.128
	c0.237-0.215,0.416-0.478,0.536-0.782c0.085-0.209,0.244-0.763,0.476-1.658l1.395-5.477H7.99l0.23-0.799
	c0.34,0.006,0.588-0.037,0.744-0.127c0.156-0.09,0.319-0.295,0.49-0.612c0.504-0.93,1.034-1.596,1.59-1.999
	c0.556-0.403,1.177-0.604,1.862-0.604c0.437,0,0.754,0.085,0.953,0.255c0.198,0.17,0.298,0.391,0.298,0.663
	c0,0.232-0.066,0.419-0.196,0.557c-0.13,0.138-0.294,0.208-0.493,0.208c-0.181,0-0.332-0.057-0.451-0.17
	c-0.119-0.113-0.179-0.25-0.179-0.408c0-0.113,0.039-0.234,0.115-0.361c0.076-0.128,0.115-0.214,0.115-0.259
	c0-0.051-0.017-0.092-0.051-0.124c-0.034-0.032-0.079-0.047-0.136-0.047c-0.272,0-0.55,0.164-0.833,0.493
	c-0.465,0.539-0.84,1.384-1.123,2.534h0.995l-0.237,0.799h-0.971H10.71z M17.803,9.736l-0.119,0.383
	c-0.651,0.465-1.192,1.007-1.625,1.625c-0.658,0.947-1.192,2.102-1.604,3.466c-0.412,1.364-0.616,2.64-0.616,3.83
	c0,0.765,0.179,1.587,0.536,2.467l-0.12,0.4c-1.224-1.644-1.836-3.283-1.836-4.915c0-0.942,0.204-1.871,0.612-2.79
	c0.488-1.077,1.204-2.035,2.151-2.874C15.908,10.692,16.781,10.163,17.803,9.736L17.803,9.736z M17.021,13.3l2.389-0.408
	c0.431,0.68,0.736,1.428,0.919,2.245c0.446-0.664,0.784-1.128,1.011-1.395c0.307-0.351,0.559-0.58,0.758-0.689
	c0.199-0.108,0.408-0.161,0.629-0.161c0.254,0,0.449,0.068,0.582,0.204c0.133,0.136,0.199,0.32,0.199,0.553
	c0,0.221-0.066,0.401-0.199,0.54c-0.133,0.138-0.303,0.208-0.507,0.208c-0.147,0-0.313-0.027-0.501-0.081
	c-0.188-0.053-0.318-0.08-0.391-0.08c-0.193,0-0.378,0.068-0.553,0.204c-0.237,0.193-0.53,0.593-0.875,1.199
	c0.39,1.372,0.703,2.208,0.935,2.507c0.136,0.177,0.274,0.265,0.416,0.265c0.119,0,0.222-0.028,0.308-0.086
	c0.131-0.097,0.334-0.336,0.611-0.722l0.246,0.145c-0.402,0.652-0.797,1.107-1.184,1.37c-0.289,0.21-0.574,0.315-0.857,0.315
	c-0.295,0-0.539-0.066-0.732-0.197c-0.191-0.131-0.365-0.342-0.515-0.637s-0.331-0.769-0.541-1.42
	c-0.532,0.68-0.952,1.178-1.254,1.49c-0.304,0.314-0.556,0.521-0.757,0.617s-0.414,0.146-0.643,0.146
	c-0.239,0-0.428-0.07-0.565-0.209c-0.139-0.141-0.208-0.316-0.208-0.531c0-0.233,0.074-0.426,0.225-0.579
	c0.15-0.153,0.342-0.229,0.575-0.229c0.124,0,0.263,0.037,0.415,0.11c0.232,0.112,0.396,0.17,0.494,0.17
	c0.135,0,0.253-0.028,0.355-0.084c0.137-0.067,0.309-0.216,0.52-0.442c0.131-0.143,0.365-0.445,0.706-0.91
	c-0.437-1.622-0.776-2.595-1.021-2.917c-0.158-0.204-0.357-0.306-0.597-0.306c-0.119,0-0.271,0.02-0.451,0.06l0.054-0.265
	L17.021,13.3L17.021,13.3z M21.809,21.907l0.127-0.374c0.521-0.374,0.963-0.787,1.326-1.234s0.735-1.068,1.117-1.857
	c0.383-0.791,0.696-1.641,0.941-2.546c0.31-1.174,0.467-2.271,0.467-3.292c0-0.76-0.182-1.585-0.545-2.475l0.111-0.391
	c1.229,1.644,1.845,3.283,1.845,4.915c0,0.941-0.207,1.875-0.621,2.798c-0.476,1.071-1.193,2.022-2.151,2.856
	c-0.725,0.642-1.599,1.174-2.619,1.601H21.809z"/>
</svg>
