<?xml version="1.0" encoding="utf-8"?>
<!-- Generator: Adobe Illustrator 16.0.0, SVG Export Plug-In . SVG Version: 6.00 Build 0)  -->
<!DOCTYPE svg PUBLIC "-//W3C//DTD SVG 1.1//EN" "http://www.w3.org/Graphics/SVG/1.1/DTD/svg11.dtd">
<svg version="1.1" id="Layer_1" xmlns="http://www.w3.org/2000/svg" xmlns:xlink="http://www.w3.org/1999/xlink" x="0px" y="0px"
	 width="32px" height="32px" viewBox="0 0 32 32" enable-background="new 0 0 32 32" xml:space="preserve">
<title>frontend-deployment</title>
<path fill="#3272A0" d="M16,0c8.822,0,16,7.177,16,16s-7.178,16-16,16C7.176,32,0,24.822,0,16C0,7.178,7.176,0,16,0z M16,31.359
	c8.471,0,15.359-6.889,15.359-15.359c0-8.47-6.889-15.36-15.359-15.36C7.53,0.64,0.64,7.53,0.64,16
	C0.64,24.471,7.53,31.359,16,31.359z M5.921,24.882v-1.6c0-0.115,0.042-0.226,0.119-0.31l3.912-4.336
	c0.165-0.183,0.158-0.463-0.017-0.637l-3.769-3.769c-0.087-0.087-0.136-0.204-0.136-0.327v-1.522c0-0.255,0.207-0.463,0.463-0.463
	h8.212c0.255,0,0.463,0.207,0.463,0.463v1.407c0,0.255-0.207,0.463-0.463,0.463h-3.56c-0.312,0-1.007-0.033-2.084-0.101l3.855,3.83
	c0.176,0.174,0.183,0.455,0.016,0.639l-4.081,4.484c1.469-0.074,2.342-0.11,2.617-0.11h3.789c0.255,0,0.463,0.207,0.463,0.463v1.425
	c0,0.255-0.207,0.463-0.463,0.463H6.384C6.129,25.344,5.922,25.137,5.921,24.882L5.921,24.882z M26.079,19.618v-1.601
	c0-0.115-0.042-0.225-0.119-0.31l-3.912-4.335c-0.165-0.183-0.157-0.463,0.017-0.637l3.77-3.769
	c0.087-0.087,0.137-0.204,0.137-0.327V7.118c0-0.255-0.207-0.463-0.464-0.463h-8.212c-0.255,0-0.463,0.207-0.463,0.463v1.407
	c0,0.255,0.207,0.463,0.463,0.463h3.561c0.312,0,1.006-0.033,2.084-0.101l-3.855,3.829c-0.176,0.175-0.184,0.456-0.016,0.639
	l4.082,4.484c-1.469-0.073-2.342-0.11-2.617-0.11h-3.789c-0.255,0-0.463,0.207-0.463,0.463v1.426c0,0.255,0.207,0.463,0.463,0.463
	h8.873C25.872,20.08,26.078,19.873,26.079,19.618L26.079,19.618z"/>
</svg>
