<?xml version="1.0" encoding="utf-8"?>
<!-- Generator: Adobe Illustrator 16.0.0, SVG Export Plug-In . SVG Version: 6.00 Build 0)  -->
<!DOCTYPE svg PUBLIC "-//W3C//DTD SVG 1.1//EN" "http://www.w3.org/Graphics/SVG/1.1/DTD/svg11.dtd">
<svg version="1.1" id="Layer_1" xmlns="http://www.w3.org/2000/svg" xmlns:xlink="http://www.w3.org/1999/xlink" x="0px" y="0px"
	 width="32px" height="32px" viewBox="0 0 32 32" enable-background="new 0 0 32 32" xml:space="preserve">
<title>ftp-source</title>
<path fill="#3272A0" d="M16,0c8.822,0,16,7.177,16,16s-7.178,16-16,16C7.176,32,0,24.822,0,16C0,7.178,7.176,0,16,0z M16,31.359
	c8.471,0,15.359-6.889,15.359-15.359c0-8.47-6.889-15.36-15.359-15.36C7.53,0.64,0.64,7.53,0.64,16
	C0.64,24.471,7.53,31.359,16,31.359z M18.46,17.091c-0.153,0-0.259,0.011-0.313,0.025v0.989c0.064,0.015,0.144,0.02,0.252,0.02
	c0.403,0,0.652-0.204,0.652-0.541C19.051,17.275,18.842,17.092,18.46,17.091L18.46,17.091L18.46,17.091z M16.771,12.593
	c-0.426-0.426-1.115-0.426-1.542,0l-4.839,4.841c-0.426,0.426-0.426,1.114,0,1.541l4.839,4.838c0.426,0.426,1.115,0.426,1.542,0
	l4.838-4.838c0.205-0.205,0.32-0.483,0.32-0.771s-0.115-0.566-0.32-0.77L16.771,12.593z M14.241,17.161h-1.288v0.766h1.203v0.615
	h-1.203v1.347h-0.754v-3.35h2.041L14.241,17.161L14.241,17.161z M17.135,17.176H16.22v2.715h-0.755v-2.715h-0.904v-0.637h2.573
	L17.135,17.176L17.135,17.176z M19.499,18.354c-0.259,0.239-0.646,0.354-1.095,0.354c-0.098,0-0.188-0.005-0.258-0.021v1.203h-0.75
	v-3.306c0.233-0.04,0.563-0.069,1.023-0.069c0.467,0,0.805,0.09,1.03,0.273c0.214,0.164,0.351,0.441,0.351,0.77
	C19.8,17.893,19.697,18.171,19.499,18.354L19.499,18.354L19.499,18.354z M21.691,10.795c-0.105-0.008-0.205-0.063-0.266-0.148
	C20.648,9.568,19.381,8.9,18.032,8.9c-0.097,0-0.195,0.004-0.292,0.011c-0.09,0.007-0.176-0.02-0.244-0.073
	c-0.816-0.628-1.812-0.969-2.855-0.969c-1.862,0-3.515,1.092-4.268,2.74c-0.052,0.115-0.159,0.192-0.282,0.207
	c-2.06,0.257-3.659,2.02-3.659,4.148c0,1.888,1.256,3.483,2.976,4.001c-0.104-0.236-0.16-0.496-0.16-0.764
	c0-0.344,0.092-0.674,0.261-0.961c-0.845-0.412-1.431-1.276-1.431-2.276c0-1.398,1.137-2.534,2.535-2.534
	c0.07,0,0.14,0.006,0.209,0.012c0.401,0.031,0.766-0.23,0.864-0.621c0.341-1.357,1.556-2.305,2.955-2.305
	c0.799,0,1.554,0.307,2.126,0.867c0.198,0.192,0.476,0.273,0.744,0.217c0.172-0.035,0.346-0.053,0.521-0.053
	c0.979,0,1.853,0.55,2.28,1.435c0.149,0.312,0.479,0.497,0.824,0.462c0.084-0.01,0.17-0.013,0.252-0.013
	c1.398,0,2.534,1.137,2.534,2.534c0,1-0.585,1.867-1.43,2.278c0.169,0.289,0.26,0.618,0.26,0.96c0,0.268-0.055,0.525-0.159,0.765
	c1.719-0.519,2.975-2.116,2.975-4.003C25.57,12.761,23.855,10.95,21.691,10.795L21.691,10.795L21.691,10.795z"/>
</svg>
