<?xml version="1.0" encoding="utf-8"?>
<!-- Generator: Adobe Illustrator 16.0.0, SVG Export Plug-In . SVG Version: 6.00 Build 0)  -->
<!DOCTYPE svg PUBLIC "-//W3C//DTD SVG 1.1//EN" "http://www.w3.org/Graphics/SVG/1.1/DTD/svg11.dtd">
<svg version="1.1" id="Layer_1" xmlns="http://www.w3.org/2000/svg" xmlns:xlink="http://www.w3.org/1999/xlink" x="0px" y="0px"
	 width="32px" height="32px" viewBox="0 0 32 32" enable-background="new 0 0 32 32" xml:space="preserve">
<title>gbd</title>
<path fill="#3272A0" d="M32,15.999L16,32L0,15.999l16-16L32,15.999z M16,0.639L0.64,15.999L16,31.359l15.359-15.36L16,0.639z
	 M20.412,9.375c1.156,0,2.094,0.938,2.095,2.095c0.001,1.157-0.938,2.094-2.094,2.094c-1.156,0-2.095-0.938-2.095-2.094
	c0-0.676,0.326-1.272,0.824-1.654l-2.039-2.66c-0.268,0.125-0.563,0.199-0.877,0.199c-0.246,0-0.478-0.051-0.697-0.128l-1.985,2.589
	c0.497,0.383,0.824,0.978,0.824,1.654c0,1.156-0.938,2.094-2.094,2.094c-1.156,0-2.094-0.938-2.094-2.094
	c0-1.156,0.938-2.094,2.094-2.094c0.163,0,0.321,0.023,0.473,0.058l2.038-2.66c-0.401-0.381-0.654-0.917-0.654-1.514
	c0-1.156,0.938-2.094,2.094-2.094c1.156,0,2.093,0.938,2.093,2.094c0,0.529-0.201,1.005-0.524,1.374l2.146,2.799
	C20.093,9.398,20.25,9.375,20.412,9.375L20.412,9.375z M20.512,20.968c1.156,0,2.094,0.938,2.096,2.095
	c0,1.158-0.938,2.095-2.094,2.095c-1.156,0-2.095-0.938-2.095-2.095c0-0.676,0.326-1.271,0.824-1.653l-2.039-2.66
	c-0.269,0.125-0.563,0.199-0.878,0.199c-0.246,0-0.478-0.052-0.697-0.128l-1.985,2.589c0.497,0.383,0.824,0.978,0.824,1.653
	c0,1.156-0.938,2.095-2.094,2.095c-1.156,0-2.094-0.938-2.094-2.095c0-1.155,0.938-2.094,2.094-2.094
	c0.163,0,0.321,0.023,0.473,0.059l2.038-2.66c-0.401-0.381-0.654-0.917-0.654-1.514c0-1.157,0.938-2.095,2.094-2.095
	c1.155,0,2.094,0.938,2.094,2.095c0,0.528-0.202,1.004-0.524,1.373l2.146,2.799c0.153-0.034,0.31-0.058,0.474-0.058H20.512z"/>
</svg>
