<?xml version="1.0" encoding="utf-8"?>
<!-- Generator: Adobe Illustrator 16.0.0, SVG Export Plug-In . SVG Version: 6.00 Build 0)  -->
<!DOCTYPE svg PUBLIC "-//W3C//DTD SVG 1.1//EN" "http://www.w3.org/Graphics/SVG/1.1/DTD/svg11.dtd">
<svg version="1.1" id="Layer_1" xmlns="http://www.w3.org/2000/svg" xmlns:xlink="http://www.w3.org/1999/xlink" x="0px" y="0px"
	 width="32px" height="32px" viewBox="0 0 32 32" enable-background="new 0 0 32 32" xml:space="preserve">
<title>gis-map-source</title>
<path fill="#3272A0" d="M15.995,6.401c-3.743,0-7.224,2.251-8.761,5.664c-1.557,3.457-0.886,7.621,1.67,10.417
	c2.554,2.795,6.627,3.84,10.211,2.607c3.52-1.208,6.086-4.455,6.439-8.16C26.086,11.365,21.588,6.4,15.995,6.401L15.995,6.401z
	 M12.52,10.566c0.264-0.771,1.69,0.449,0.926,1.119c-0.184,0.161-1.177,0.134-0.966-0.097c0.085-0.092,0.214-0.093,0.298-0.209
	C12.996,11.077,12.656,10.803,12.52,10.566z M19.293,21.281c-0.025,0.307-0.24,1.066-0.656,1.066c-0.303,0-0.3-0.427-0.269-0.634
	c0.11-0.739,0.426-0.879,0.829-1.437C19.475,20.514,19.318,20.971,19.293,21.281z M20.243,15.999
	c-0.364,0.388-0.908,1.004-1.505,1.002c-0.404-0.002-0.444-1.254-0.934-1.487c-0.25-0.118-0.596,0.163-0.396,0.406
	c0.219,0.265,0.218,0.623,0.495,0.852c0.484,0.396,0.918,0.852,1.549,0.365c-0.064,0.74-0.625,1.161-1.061,1.695
	c-0.244,0.301-0.439,0.639-0.361,1.041c0.066,0.338,0.311,0.797,0.037,1.105c-0.18,0.205-0.584,0.319-0.6,0.644
	c0.047,0.12,0.064,0.244,0.055,0.372c-0.086,0.178-0.272,0.296-0.366,0.479c-0.183,0.35-0.56,1.03-0.966,1.161
	c-0.199,0.065-0.71,0.234-0.867,0.038c-0.413-0.521-0.269-1.732-0.512-2.341c-0.16-0.403,0.141-0.601,0.147-0.976
	c0.004-0.287-0.194-0.527-0.328-0.764c-0.173-0.303-0.136-0.506-0.125-0.835c0.012-0.312-0.29-0.157-0.46-0.255
	c-0.189-0.109-0.211-0.357-0.48-0.189c-0.232,0.144-0.947,0.264-1.213,0.217c-0.385-0.066-0.852-0.895-0.95-1.239
	c-0.091-0.323,0.155-0.632,0.065-0.902c-0.095-0.284-0.013-0.546,0.175-0.769c0.286-0.339,0.628-0.907,0.997-1.128
	c0.262-0.157,0.604-0.005,0.915-0.09c0.278-0.076,0.691-0.175,0.986-0.108c0.307,0.07-0.04,0.374,0.164,0.487
	c0.238,0.131,0.41,0.248,0.634,0.39c0.23,0.146,0.316-0.265,0.482-0.305c0.202-0.049,0.477-0.078,0.683-0.036
	c0.396,0.084,1.208-0.189,0.811-0.78c-0.141-0.207-0.517-0.267-0.729-0.356c-0.264-0.109-0.106-0.556-0.46-0.539
	c-0.264,0.066,0.099,0.342,0.009,0.495c-0.164,0.281-0.472-0.312-0.514-0.388c-0.049-0.089-0.628-0.888-0.812-0.715
	c-0.062,0.06,0.973,1.238,0.186,1.007c-0.003-0.311-0.323-0.342-0.493-0.549c-0.235-0.287-0.424-0.16-0.686,0.07
	c-0.256,0.224-0.628,0.537-0.938,0.685c-0.675,0.324-0.57-0.372-0.55-0.776c0.013-0.271,0.413-0.145,0.557-0.207
	c0.439-0.193,0.009-0.399-0.104-0.583c0.129-0.193,0.907-0.422,1.127-0.479c0.493-0.131,0.906-0.536,1.509-0.237
	c0.079,0.037,0.835-0.435,0.295-0.569c-0.599-0.356-0.626,0.161-1.079,0.3c-0.004-0.5-1.229-0.546-0.769-1.216
	c0.376-0.547,0.68-0.623,1.742-0.701c0.776-0.052,1.151-0.026,1.32,0.116c0.169,0.142,0.22,0.655-0.184,0.707
	c0.075,0.669,0.774,0.051,1.043-0.12c0.442-0.283,1.373-0.109,1.5-0.21c0.125-0.101-0.085-0.388,0.026-0.57
	c0.104-0.172,0.365-0.084,0.4,0.091c0.475,0.076,0.7-0.277,1.205,0.059c1.525,1.016,2.708,2.479,3.311,4.847
	c0.271,1.062,0.321,2.25,0.012,2.163c-0.209-0.058-0.107-0.521-0.245-0.654c-0.359,0.084-0.966,0.682-1.121,1.012
	c-0.099,0.205,0.096,1.006-0.333,1.006c-0.173,0-0.26-0.639-0.285-0.747c-0.074-0.315-0.131-0.649-0.27-0.944
	c-0.155-0.337-0.299-0.125-0.545-0.173c-0.318-0.063-0.244-0.49-0.694-0.528c-0.413-0.034-0.558,0.294-0.504,0.652L20.243,15.999z
	 M16,0.001c-8.824,0-16,7.177-16,16C0,24.823,7.176,32,16,32c8.822,0,16-7.178,16-15.999C32,7.178,24.822,0.001,16,0.001z
	 M16,31.359c-8.47,0-15.36-6.889-15.36-15.358c0-8.469,6.89-15.36,15.36-15.36c8.471,0,15.359,6.89,15.359,15.36
	S24.471,31.359,16,31.359z"/>
</svg>
