<?xml version="1.0" encoding="utf-8"?>
<!-- Generator: Adobe Illustrator 16.0.0, SVG Export Plug-In . SVG Version: 6.00 Build 0)  -->
<!DOCTYPE svg PUBLIC "-//W3C//DTD SVG 1.1//EN" "http://www.w3.org/Graphics/SVG/1.1/DTD/svg11.dtd">
<svg version="1.1" id="Layer_1" xmlns="http://www.w3.org/2000/svg" xmlns:xlink="http://www.w3.org/1999/xlink" x="0px" y="0px"
	 width="32px" height="32px" viewBox="0 0 32 32" enable-background="new 0 0 32 32" xml:space="preserve">
<title>gis-join</title>
<path fill="#3272A0" d="M25.143,12.343c-1.506,0-2.797,0.911-3.357,2.21h-11.57c-0.561-1.299-1.853-2.21-3.359-2.21
	C4.837,12.343,3.2,13.981,3.2,16c0,2.02,1.637,3.656,3.656,3.656c1.507,0,2.798-0.909,3.359-2.209h11.57
	c0.561,1.3,1.854,2.209,3.357,2.209C27.162,19.657,28.8,18.02,28.8,16C28.8,13.981,27.162,12.343,25.143,12.343z M6.856,18.109
	c-1.165,0-2.108-0.943-2.108-2.108s0.943-2.11,2.108-2.11s2.11,0.945,2.11,2.11S8.022,18.109,6.856,18.109z M25.143,18.109
	c-1.164,0-2.108-0.943-2.108-2.108s0.944-2.11,2.108-2.11s2.11,0.945,2.11,2.11S26.309,18.109,25.143,18.109z M32,3.333v25.333
	C32,30.509,30.508,32,28.667,32H3.334C1.493,32,0,30.509,0,28.666V3.333C0,1.492,1.492,0,3.334,0h25.333C30.508,0,32,1.492,32,3.333
	z M28.16,0.64H3.84c-1.767,0-3.2,1.432-3.2,3.2v24.32c0,1.77,1.432,3.199,3.2,3.199h24.32c1.768,0,3.199-1.43,3.199-3.199V3.84
	C31.359,2.072,29.928,0.64,28.16,0.64z"/>
</svg>
