<?xml version="1.0" encoding="utf-8"?>
<!-- Generator: Adobe Illustrator 16.0.0, SVG Export Plug-In . SVG Version: 6.00 Build 0)  -->
<!DOCTYPE svg PUBLIC "-//W3C//DTD SVG 1.1//EN" "http://www.w3.org/Graphics/SVG/1.1/DTD/svg11.dtd">
<svg version="1.1" id="Layer_1" xmlns="http://www.w3.org/2000/svg" xmlns:xlink="http://www.w3.org/1999/xlink" x="0px" y="0px"
	 width="32px" height="32px" viewBox="0 0 32 32" enable-background="new 0 0 32 32" xml:space="preserve">
<title>gis-explode</title>
<path fill="#3272A0" d="M32,3.333v25.333C32,30.509,30.508,32,28.666,32H3.334C1.493,32,0,30.509,0,28.666V3.333
	C0,1.492,1.492,0,3.334,0h25.332C30.507,0,32,1.492,32,3.333z M28.16,0.64H3.84c-1.768,0-3.2,1.432-3.2,3.2v24.32
	c0,1.77,1.432,3.199,3.2,3.199h24.32c1.768,0,3.199-1.43,3.199-3.199V3.84C31.359,2.072,29.928,0.64,28.16,0.64z M19.157,2.977
	c-0.839,4.413-1.677,8.828-2.513,13.241c-0.021-0.001-0.041-0.003-0.062-0.004c-0.581-1.606-1.162-3.212-1.744-4.817
	c-0.017,0.005-0.034,0.01-0.051,0.014c-0.09,1.787-0.179,3.573-0.268,5.36c-0.023,0.002-0.045,0.004-0.068,0.006
	C12.026,12.247,9.6,7.716,7.174,3.185c-0.027,0.009-0.053,0.017-0.08,0.026C7.918,8.435,8.742,13.66,9.566,18.883
	c-0.021,0.01-0.042,0.02-0.064,0.028c-1.634-1.744-3.267-3.489-4.902-5.233c-0.024,0.016-0.047,0.033-0.07,0.049
	c1.204,3.183,2.407,6.364,3.645,9.638c-1.706-1.208-3.327-2.356-4.954-3.508c-0.013,0.031-0.024,0.047-0.021,0.052
	c1.926,2.995,3.853,5.989,5.786,8.981c0.044,0.067,0.145,0.15,0.211,0.145c0.621-0.059,1.241-0.135,1.885-0.207
	c-0.434-2.064-0.856-4.076-1.299-6.184c1.036,0.963,1.999,1.855,3.02,2.804c-0.066-2.244-0.129-4.415-0.193-6.587
	c0.027-0.004,0.053-0.008,0.079-0.01c0.94,1.654,1.88,3.31,2.868,5.047c0.17-1.172,0.324-2.248,0.479-3.321
	c0.02-0.001,0.04-0.003,0.061-0.003c0.282,0.755,0.564,1.511,0.874,2.336c0.398-1.26,0.777-2.454,1.155-3.649
	c0.019,0.007,0.039,0.013,0.058,0.017c0.113,1.707,0.228,3.412,0.344,5.19c1.379-1.161,2.685-2.264,3.99-3.364
	c0.019,0.013,0.037,0.024,0.058,0.039c-0.591,1.885-1.181,3.772-1.788,5.721c0.938-0.305,1.807-0.59,2.777-0.905
	c-0.56,0.61-1.045,1.14-1.565,1.708c1.583,0.204,3.104,0.4,4.737,0.609c-0.771-0.627-1.459-1.184-2.16-1.752
	c1.061-1.178,2.104-2.332,3.146-3.486c-0.01-0.016-0.018-0.029-0.027-0.042c-1.416,0.604-2.83,1.212-4.32,1.848
	c1.826-4.895,3.624-9.718,5.423-14.54c-0.019-0.008-0.039-0.017-0.058-0.026c-2.352,2.717-4.704,5.433-7.127,8.23
	c0.166-1.655,0.322-3.192,0.476-4.73c-0.019-0.004-0.038-0.006-0.058-0.009c-0.801,1.221-1.6,2.441-2.461,3.751
	c-0.117-4.929-0.231-9.743-0.346-14.556c-0.022,0.004-0.047,0.009-0.07,0.013H19.157z"/>
</svg>
