<?xml version="1.0" encoding="utf-8"?>
<!-- Generator: Adobe Illustrator 16.0.0, SVG Export Plug-In . SVG Version: 6.00 Build 0)  -->
<!DOCTYPE svg PUBLIC "-//W3C//DTD SVG 1.1//EN" "http://www.w3.org/Graphics/SVG/1.1/DTD/svg11.dtd">
<svg version="1.1" id="Layer_1" xmlns="http://www.w3.org/2000/svg" xmlns:xlink="http://www.w3.org/1999/xlink" x="0px" y="0px"
	 width="32px" height="32px" viewBox="0 0 32 32" enable-background="new 0 0 32 32" xml:space="preserve">
<title>gis-buffer</title>
<path fill="#3272A0" d="M32,3.333v25.333c0,1.842-1.492,3.333-3.334,3.333H3.333C1.492,31.999,0,30.508,0,28.666V3.333
	C0,1.492,1.492,0,3.333,0h25.333C30.507,0,32,1.492,32,3.333z M28.16,0.639H3.84c-1.768,0-3.2,1.432-3.2,3.2v24.32
	c0,1.769,1.432,3.2,3.2,3.2h24.32c1.768,0,3.199-1.432,3.199-3.2V3.839C31.359,2.071,29.928,0.639,28.16,0.639z M22.352,18.859
	l-0.398-0.396c-0.971,2.335-3.271,3.982-5.953,3.982c-2.06,0-5.127-1.424-6.111-4.454h0.543c0.314,0,0.596-0.189,0.718-0.48
	c0.12-0.29,0.054-0.624-0.17-0.846l-2.426-2.427c-0.15-0.151-0.349-0.227-0.548-0.227c-0.199,0-0.398,0.076-0.549,0.227
	l-2.428,2.427c-0.223,0.224-0.289,0.556-0.169,0.846c0.12,0.29,0.403,0.48,0.718,0.48h1.105c0.488,2.241,2.838,7.556,9.318,7.556
	c4.088,0,7.572-2.587,8.931-6.204c-0.291,0.128-0.606,0.199-0.934,0.199c-0.622-0.001-1.207-0.243-1.645-0.683l0,0H22.352z
	 M18.115,16c0-1.168-0.947-2.115-2.115-2.115S13.885,14.832,13.885,16c0,1.167,0.947,2.115,2.115,2.115S18.115,17.167,18.115,16
	L18.115,16z M27.141,14.49c-0.121-0.291-0.404-0.479-0.718-0.479h-1.097c-0.114-0.536-0.568-2.269-1.774-3.825
	C21.799,7.927,19.075,6.454,16,6.454c-4.088,0-7.574,2.587-8.932,6.206c0.292-0.129,0.609-0.2,0.937-0.2
	c0.623,0,1.208,0.243,1.645,0.682l0.397,0.396c0.97-2.334,3.272-3.981,5.953-3.981c4.415,0,5.934,3.907,6.111,4.456h-0.543
	c-0.315,0-0.598,0.189-0.717,0.479c-0.121,0.289-0.056,0.623,0.17,0.846l2.428,2.426c0.15,0.152,0.35,0.228,0.549,0.228
	s0.396-0.076,0.548-0.228l2.429-2.426c0.223-0.223,0.289-0.557,0.168-0.846l0,0L27.141,14.49z"/>
</svg>
