<?xml version="1.0" encoding="utf-8"?>
<!-- Generator: Adobe Illustrator 16.0.0, SVG Export Plug-In . SVG Version: 6.00 Build 0)  -->
<!DOCTYPE svg PUBLIC "-//W3C//DTD SVG 1.1//EN" "http://www.w3.org/Graphics/SVG/1.1/DTD/svg11.dtd">
<svg version="1.1" id="Layer_1" xmlns="http://www.w3.org/2000/svg" xmlns:xlink="http://www.w3.org/1999/xlink" x="0px" y="0px"
	 width="32px" height="32px" viewBox="0 0 32 32" enable-background="new 0 0 32 32" xml:space="preserve">
<title>gis-filter</title>
<path fill="#3272A0" d="M32,3.333v25.333C32,30.509,30.508,32,28.667,32H3.334C1.493,32,0,30.509,0,28.666V3.333
	C0,1.492,1.492,0,3.334,0h25.333C30.508,0,32,1.492,32,3.333z M28.16,0.64H3.84c-1.767,0-3.2,1.433-3.2,3.2v24.32
	c0,1.77,1.432,3.199,3.2,3.199h24.32c1.768,0,3.199-1.43,3.199-3.199V3.84C31.359,2.073,29.928,0.64,28.16,0.64z M24.641,5.633
	v1.176c0,0.476-0.388,0.864-0.863,0.864H8.224c-0.475,0-0.864-0.388-0.864-0.864V5.633H24.641z M8.224,8.224h15.553l-6.051,9.502
	v5.185l-3.455,3.456v-8.641L8.224,8.224L8.224,8.224z"/>
</svg>
