<?xml version="1.0" encoding="utf-8"?>
<!-- Generator: Adobe Illustrator 16.0.0, SVG Export Plug-In . SVG Version: 6.00 Build 0)  -->
<!DOCTYPE svg PUBLIC "-//W3C//DTD SVG 1.1//EN" "http://www.w3.org/Graphics/SVG/1.1/DTD/svg11.dtd">
<svg version="1.1" id="Layer_1" xmlns="http://www.w3.org/2000/svg" xmlns:xlink="http://www.w3.org/1999/xlink" x="0px" y="0px"
	 width="32px" height="32px" viewBox="0 0 32 32" enable-background="new 0 0 32 32" xml:space="preserve">
<title>google-cloud-platform</title>
<path fill="#3272A0" d="M16,0c8.822,0,16,7.177,16,16s-7.178,16-16,16C7.176,32,0,24.822,0,16C0,7.178,7.176,0,16,0z M16,31.359
	c8.471,0,15.359-6.889,15.359-15.359c0-8.47-6.889-15.36-15.359-15.36C7.53,0.64,0.64,7.53,0.64,16
	C0.64,24.471,7.53,31.359,16,31.359z M23.125,14.475h-0.012c-0.18-2.849-2.551-5.105-5.443-5.105c-2.672,0-4.893,1.921-5.364,4.453
	c-0.061-0.002-0.124-0.004-0.185-0.004c-1.99,0-3.668,1.318-4.217,3.128c-0.084-0.008-0.171-0.012-0.257-0.012
	c-1.571,0-2.847,1.273-2.847,2.847s1.274,2.847,2.845,2.847h15.479c2.253,0,4.077-1.826,4.077-4.076
	C27.201,16.305,25.378,14.476,23.125,14.475L23.125,14.475L23.125,14.475z"/>
</svg>
