<?xml version="1.0" encoding="utf-8"?>
<!-- Generator: Adobe Illustrator 16.0.0, SVG Export Plug-In . SVG Version: 6.00 Build 0)  -->
<!DOCTYPE svg PUBLIC "-//W3C//DTD SVG 1.1//EN" "http://www.w3.org/Graphics/SVG/1.1/DTD/svg11.dtd">
<svg version="1.1" id="Layer_1" xmlns="http://www.w3.org/2000/svg" xmlns:xlink="http://www.w3.org/1999/xlink" x="0px" y="0px"
	 width="32px" height="32px" viewBox="0 0 32 32" enable-background="new 0 0 32 32" xml:space="preserve">
<title>hana-sink</title>
<path fill="#64953B" d="M16,0C7.176,0,0,7.177,0,16s7.176,16,16,16c8.822,0,16-7.178,16-16C32,7.178,24.822,0,16,0z M16,31.359
	C7.53,31.359,0.64,24.471,0.64,16C0.64,7.53,7.53,0.64,16,0.64c8.471,0,15.359,6.89,15.359,15.36
	C31.359,24.471,24.471,31.359,16,31.359z M20.225,12.392c0.049-0.175,0.195-0.289,0.277-0.444c0.671-1.286,0.26-2.941-1.498-3.251
	c-0.896-0.158-1.805-0.05-2.708-0.072c-0.164-0.004-0.184,0.105-0.184,0.236c0.002,0.435,0,0.87,0,1.306
	c0,0.896,0.001,1.793-0.001,2.689c-0.001,0.086,0.031,0.18-0.059,0.292c-0.095-0.252-0.183-0.482-0.267-0.714
	c-0.432-1.188-0.865-2.375-1.29-3.565c-0.065-0.182-0.167-0.245-0.352-0.241c-0.411,0.008-0.82,0.008-1.231-0.007
	c-0.204-0.007-0.302,0.077-0.367,0.26c-0.38,1.065-0.764,2.127-1.149,3.188c-0.05,0.14-0.108,0.275-0.185,0.468
	c-0.28-0.945-1.044-1.201-1.796-1.469c-0.362-0.129-0.736-0.222-1.086-0.388c-0.194-0.092-0.349-0.213-0.319-0.455
	c0.032-0.252,0.222-0.337,0.44-0.382C8.659,9.8,8.866,9.821,9.072,9.872c0.373,0.093,0.748,0.181,1.118,0.284
	c0.17,0.048,0.278,0.019,0.373-0.141c0.165-0.281,0.349-0.552,0.531-0.823c0.079-0.118,0.074-0.2-0.067-0.25
	c-0.631-0.223-1.262-0.468-1.936-0.503c-1.216-0.062-2.143,0.416-2.689,1.54c0-0.989,0-1.978,0-2.966C6.51,7.009,6.619,7,6.727,7
	c6.188-0.001,12.375-0.001,18.563,0.001c0.104,0,0.258-0.056,0.303,0.042c0.05,0.106-0.099,0.172-0.173,0.244
	c-1.661,1.643-3.324,3.284-4.986,4.925C20.368,12.276,20.295,12.333,20.225,12.392L20.225,12.392z M6.4,14.354
	c0.413,0.109,0.771,0.364,1.188,0.465c1.007,0.244,1.972,0.22,2.838-0.448c0.019-0.015,0.043-0.024,0.065-0.034
	c0.007-0.003,0.017,0.001,0.045,0.005c0.026,0.125-0.044,0.234-0.081,0.346c-0.038,0.112-0.013,0.156,0.106,0.154
	c0.461-0.002,0.921-0.003,1.381-0.001c0.127,0,0.175-0.079,0.207-0.182c0.053-0.176,0.108-0.351,0.161-0.527
	c0.036-0.122,0.083-0.179,0.234-0.122c0.634,0.245,1.275,0.257,1.91,0.001c0.152-0.061,0.217-0.014,0.252,0.128
	c0.006,0.024,0.013,0.049,0.02,0.072c0.193,0.631,0.193,0.636,0.844,0.63c0.627-0.005,1.254-0.028,1.881-0.031
	c0.199-0.001,0.263-0.082,0.26-0.271c-0.008-0.435,0-0.87-0.004-1.306c0-0.157,0.042-0.253,0.229-0.249
	c0.656,0.015,1.306-0.025,1.906-0.333c0.027-0.014,0.066-0.004,0.1-0.006c-0.053,0.065-0.101,0.133-0.159,0.192
	c-1.245,1.229-2.491,2.458-3.735,3.687c-0.092,0.093-0.185,0.158-0.326,0.158c-3.089-0.004-6.179-0.004-9.269-0.006
	c-0.016,0-0.033-0.006-0.049-0.007c0-0.772,0-1.542,0-2.314L6.4,14.354z M6.4,10.935c0.371,0.872,1.191,1.135,1.974,1.441
	c0.256,0.1,0.528,0.156,0.77,0.293c0.183,0.104,0.344,0.225,0.314,0.463c-0.029,0.236-0.274,0.447-0.519,0.475
	c-0.606,0.067-1.167-0.056-1.667-0.408c-0.2-0.142-0.294-0.09-0.399,0.109c-0.143,0.271-0.316,0.53-0.474,0.793
	C6.4,13.046,6.4,11.99,6.4,10.935z M17.747,10.801c0-0.2,0.005-0.401-0.001-0.6c-0.004-0.145,0.054-0.214,0.203-0.221
	c0.26-0.012,0.518,0.004,0.769,0.064c0.232,0.055,0.374,0.207,0.415,0.448c0.028,0.166,0.034,0.328,0.008,0.497
	c-0.065,0.409-0.246,0.581-0.66,0.612c-0.147,0.012-0.299,0.016-0.447,0.032c-0.195,0.022-0.305-0.033-0.288-0.255
	C17.757,11.187,17.747,10.994,17.747,10.801z M13.557,12.768c-0.675-0.013-0.724-0.077-0.532-0.682
	c0.129-0.406,0.255-0.812,0.385-1.217c0.02-0.069,0.026-0.161,0.125-0.164c0.102-0.003,0.109,0.087,0.13,0.157
	c0.164,0.526,0.322,1.053,0.492,1.577c0.053,0.163-0.013,0.23-0.152,0.278c-0.154,0.052-0.314,0.037-0.446,0.051H13.557z
	 M16.001,25.014c0-1.451,0.001-2.904,0.002-4.356c0.002-0.447,0.02-0.466,0.477-0.468c0.396-0.002,0.792,0.017,1.185-0.004
	c0.274-0.017,0.426,0.092,0.538,0.334c0.355,0.769,0.727,1.528,1.096,2.293c0.042,0.086,0.064,0.199,0.18,0.237
	c0.113-0.112,0.069-0.247,0.07-0.366c0.006-0.709,0.01-1.418,0-2.125c-0.003-0.269,0.1-0.377,0.37-0.371
	c1.22,0.023,1.022-0.164,1.031,0.992c0.012,1.277,0,2.557-0.001,3.834c-0.674,0-1.348,0-2.022,0
	c-0.424-0.947-0.924-1.853-1.464-2.753c0,0.919,0,1.837,0,2.753c-0.488,0.002-0.976,0.002-1.464,0.002L16.001,25.014z M5.12,25.014
	c0-1.451,0-2.904,0.001-4.354c0-0.451,0.017-0.466,0.476-0.47c0.221,0,0.441,0.011,0.662,0c0.241-0.01,0.333,0.106,0.329,0.338
	c-0.005,0.384,0.008,0.768-0.001,1.149c-0.006,0.238,0.094,0.337,0.333,0.33c0.324-0.011,0.65-0.01,0.975-0.001
	c0.255,0.006,0.356-0.124,0.356-0.361c0.002-0.359,0.011-0.722,0.002-1.08c-0.008-0.263,0.089-0.393,0.364-0.375
	c0.208,0.014,0.419,0.002,0.627,0.002c0.46,0.004,0.477,0.02,0.477,0.469c0.001,1.451,0.001,2.904,0.001,4.355
	c-0.489,0-0.977,0-1.464,0c-0.003-0.545-0.005-1.092-0.005-1.636c0-0.254-0.104-0.388-0.377-0.379
	c-0.311,0.011-0.625,0.011-0.938-0.002c-0.253-0.01-0.356,0.092-0.354,0.347c0.008,0.557,0,1.112-0.001,1.67
	c-0.489,0-0.975,0-1.464,0L5.12,25.014z M15.561,24.877c-0.572-1.482-1.145-2.962-1.716-4.443c-0.067-0.174-0.191-0.248-0.376-0.244
	c-0.337,0.006-0.676,0.021-1.011-0.004c-0.339-0.025-0.527,0.092-0.653,0.42c-0.442,1.156-0.922,2.299-1.362,3.457
	c-0.117,0.309-0.332,0.592-0.302,0.951c0.511,0,1.023,0,1.533,0c0.004-0.254,0.136-0.466,0.215-0.695
	c0.055-0.166,0.191-0.217,0.36-0.215c0.405,0.002,0.812,0.006,1.219-0.002c0.207-0.004,0.331,0.092,0.389,0.279
	c0.067,0.209,0.127,0.422,0.188,0.633c0.512,0,1.025,0,1.535,0C15.575,24.969,15.578,24.919,15.561,24.877z M13.215,23.096
	c-0.252,0.031-0.509,0.069-0.754-0.025c-0.102-0.036-0.09-0.157-0.052-0.244c0.159-0.372,0.224-0.78,0.449-1.194
	c0.236,0.423,0.305,0.851,0.463,1.243c0.004,0.01,0.005,0.021,0.005,0.034C13.331,22.996,13.311,23.085,13.215,23.096z
	 M26.867,24.91c-0.573-1.492-1.149-2.984-1.723-4.477c-0.067-0.174-0.19-0.246-0.377-0.244c-0.359,0.006-0.723,0.02-1.08-0.004
	c-0.311-0.022-0.463,0.113-0.568,0.388c-0.46,1.175-0.941,2.342-1.389,3.522c-0.113,0.297-0.307,0.575-0.293,0.92
	c0.513,0,1.021,0,1.535,0c0-0.238,0.127-0.44,0.188-0.66c0.047-0.174,0.188-0.252,0.369-0.25c0.416,0.004,0.83,0.004,1.246,0
	c0.186-0.002,0.312,0.076,0.369,0.252c0.068,0.218,0.131,0.438,0.198,0.658c0.513,0,1.022,0,1.534,0
	c-0.003-0.035,0-0.072-0.012-0.104L26.867,24.91z M24.516,23.096c-0.252,0.032-0.51,0.067-0.754-0.022
	c-0.103-0.038-0.089-0.159-0.051-0.246c0.156-0.373,0.223-0.779,0.446-1.195c0.235,0.423,0.306,0.851,0.465,1.241
	c0.004,0.012,0.004,0.023,0.006,0.036c0.004,0.088-0.017,0.175-0.114,0.188h0.002V23.096z"/>
</svg>
