<?xml version="1.0" encoding="utf-8"?>
<!-- Generator: Adobe Illustrator 16.0.0, SVG Export Plug-In . SVG Version: 6.00 Build 0)  -->
<!DOCTYPE svg PUBLIC "-//W3C//DTD SVG 1.1//EN" "http://www.w3.org/Graphics/SVG/1.1/DTD/svg11.dtd">
<svg version="1.1" id="Layer_1" xmlns="http://www.w3.org/2000/svg" xmlns:xlink="http://www.w3.org/1999/xlink" x="0px" y="0px"
	 width="32px" height="32px" viewBox="0 0 32 32" enable-background="new 0 0 32 32" xml:space="preserve">
<title>hbase-source</title>
<path fill="#3272A0" d="M23.701,18.221c0.05-0.082,0.16-0.178,0.145-0.242c-0.55-2.326-2.962-3.788-5.275-3.208
	c-0.113,0.028-0.232,0.049-0.336,0.099c-1.039,0.493-2.063,0.68-3.183,0.156c-0.532-0.25-1.092,0.029-1.599,0.346
	c-0.507,0.317-1.066,0.549-1.59,0.84c-0.159,0.088-0.373,0.234-0.392,0.376c-0.018,0.132,0.172,0.315,0.306,0.438
	c0.156,0.142,0.35,0.24,0.681,0.459c-0.71,0.244-1.293,0.494-1.902,0.636c-1.157,0.272-2.324,0.509-3.496,0.707
	c-1.088,0.183-1.588-0.162-1.55-1.036c0.041-0.959,0.242-1.966,0.89-2.748c0.807-0.975,1.605-1.98,2.543-2.82
	c0.967-0.87,2.073-1.597,3.168-2.31c0.538-0.351,0.816-0.783,0.972-1.377c0.202-0.772,0.44-1.538,0.715-2.287
	c0.103-0.28,0.313-0.554,0.546-0.746c0.236-0.194,0.558-0.282,0.999-0.49c-0.056,0.375-0.091,0.555-0.108,0.736
	c-0.063,0.659-0.177,1.319-0.164,1.976c0.015,0.79,0.311,1.034,1.071,1.235c1.055,0.279,2.125,0.532,3.142,0.923
	c1.739,0.669,3.073,1.853,3.924,3.526c0.381,0.747,0.719,1.52,1.002,2.308c0.276,0.765,0.485,1.5,1.16,2.09
	c0.778,0.68,0.794,1.848,0.221,2.787c-0.292-0.753-0.796-1.215-1.573-1.404c-0.22-0.055-0.387-0.328-0.547-0.473
	c-0.675,0.081-1.381,0.166-2.152,0.26c-0.228-0.434-0.062-0.974,0.559-1.341c0.402-0.237,0.818-0.448,1.307-0.713
	c0.172,0.425,0.351,0.867,0.526,1.306c-0.2-0.324-0.399-0.648-0.599-0.972c-1.508,0.841-1.555,0.884-1.491,1.339
	c0.685-0.074,1.372-0.15,2.058-0.226c-0.148,0.456,0.219,0.502,0.493,0.623c0.457,0.202,0.914,0.405,1.354,0.6
	c0.188-0.991-0.553-2.128-1.719-2.409c0.096,0.307,0.187,0.573,0.26,0.846c0.104,0.383-0.01,0.533-0.406,0.356
	c0.013-0.053,0.027-0.108,0.044-0.163L23.701,18.221z M16.181,15.077c0.018,0.054,0.036,0.109,0.054,0.163
	c0.252-0.062,0.524-0.081,0.751-0.193c1.771-0.877,3.505-1.053,5.188,0.204c0.022,0.016,0.067,0.002,0.15,0.002
	c-0.36-0.736-1.146-0.861-1.704-1.288c0.938-0.095,1.6,0.433,2.348,1.057c-0.068-0.205-0.085-0.295-0.127-0.372
	c-0.854-1.592-3.265-2.203-4.74-1.164C17.425,13.963,16.818,14.543,16.181,15.077L16.181,15.077z M6.236,18.542
	c0.015,0.067,0.031,0.134,0.047,0.202c1.834-0.411,3.707-0.628,5.635-1.219c-0.275-0.219-0.455-0.313-0.566-0.459
	c-0.338-0.443-0.642-0.332-1.027-0.039c-0.32,0.24-0.696,0.433-1.076,0.563C8.254,17.932,7.241,18.229,6.236,18.542L6.236,18.542z
	 M11.816,14.93c-0.696-0.501-2.072-0.055-2.443,0.919c-0.104,0.274-0.145,0.605,0.307,0.527C10.586,16.22,11.49,16.024,11.816,14.93
	z M18.428,16.32c-0.32,0.331-0.512,0.597-0.764,0.776c-1.586,1.121-4.495,0.902-5.983-0.455c0.074-0.08,0.133-0.183,0.223-0.23
	c0.63-0.333,1.278-0.635,1.9-0.984c0.489-0.274,0.963-0.367,1.506-0.171C16.292,15.61,17.287,15.933,18.428,16.32z M7.592,13.179
	c-0.004-1.171,0.595-2.109,1.466-2.384c0.286,0.476,0.363,0.869-0.211,1.247C8.403,12.335,8.046,12.76,7.592,13.179L7.592,13.179z
	 M16,0c8.822,0,16,7.177,16,16s-7.178,16-16,16C7.176,32,0,24.822,0,16C0,7.178,7.176,0,16,0z M16,31.359
	c8.471,0,15.359-6.889,15.359-15.359c0-8.47-6.889-15.36-15.359-15.36C7.53,0.64,0.64,7.53,0.64,16
	C0.64,24.471,7.53,31.359,16,31.359z"/>
</svg>
