<?xml version="1.0" encoding="utf-8"?>
<!-- Generator: Adobe Illustrator 16.0.0, SVG Export Plug-In . SVG Version: 6.00 Build 0)  -->
<!DOCTYPE svg PUBLIC "-//W3C//DTD SVG 1.1//EN" "http://www.w3.org/Graphics/SVG/1.1/DTD/svg11.dtd">
<svg version="1.1" id="Layer_1" xmlns="http://www.w3.org/2000/svg" xmlns:xlink="http://www.w3.org/1999/xlink" x="0px" y="0px"
	 width="32px" height="32px" viewBox="0 0 32 32" enable-background="new 0 0 32 32" xml:space="preserve">
<title>hbase-deployment</title>
<path fill="#3272A0" d="M16,0c8.822,0,16,7.177,16,16s-7.178,16-16,16C7.176,32,0,24.822,0,16C0,7.178,7.176,0,16,0z M16,31.359
	c8.471,0,15.359-6.889,15.359-15.359c0-8.47-6.889-15.36-15.359-15.36C7.53,0.64,0.64,7.53,0.64,16
	C0.64,24.471,7.53,31.359,16,31.359z M28.863,11.345c-0.625,0-2.055,0.359-2.055,0.359s-0.758-1.695-1.428-2.187
	c-0.671-0.492-0.667,0.14-0.667,1.034c0,0.894-0.932,3.989-3.837,3.989c-2.904,0-11.428-3.425-13.663-3.464
	c-5.116-0.09-4.938,4.023-4.938,4.023v2.66h3.686c0,0,1.292-0.061,1.567,0.786c0.09,0.1,0.235,0.202,0.438,0.301
	c0.791,0.379,2.235,0.635,4.026,0.709c-0.03-0.035-0.068-0.072-0.094-0.109c-0.237-0.327-0.309-0.639-0.214-0.932l0.047-0.141
	c0.107-0.189,0.682-0.223,2.414-0.223c0.693,0,1.278,0.068,1.738,0.203l0.062,0.027l1.434,0.893
	c2.284-0.314,4.653-0.893,6.755-1.801c0.829-1.471,3.301-3.579,3.301-3.579c0.803-0.804,2.412-1.519,2.412-1.964
	C29.848,11.486,29.49,11.345,28.863,11.345L28.863,11.345z M7.267,16.764c-0.504,0-0.913-0.292-0.913-0.654
	c0-0.361,0.408-0.654,0.913-0.654c0.503,0,0.911,0.292,0.911,0.654C8.178,16.472,7.77,16.764,7.267,16.764L7.267,16.764z
	 M16.707,22.092c-0.484-0.158-0.98-0.344-1.467-0.547c-0.705,0.066-1.394,0.1-2.054,0.1c-3.82,0-6.825-0.992-8.365-1.877
	c-0.515-0.295-0.97-0.629-1.181-1.141H3.118c-0.671,0-1.206-0.036-0.849,0.316C6.272,22.816,12.05,23.25,16.707,22.092
	L16.707,22.092L16.707,22.092z M23.661,18.198c-1.79,0.698-3.74,1.172-5.654,1.468l1.089,0.68c1.287-0.354,2.617-0.836,3.973-1.476
	C23.29,18.65,23.486,18.425,23.661,18.198L23.661,18.198L23.661,18.198z M21.617,20.023c-0.662,0.256-1.318,0.479-1.963,0.67
	l0.365,0.228C20.598,20.646,21.131,20.343,21.617,20.023L21.617,20.023L21.617,20.023z M6.984,18.627H4.229
	c0.083,0.141,0.332,0.449,1.066,0.839c1.748,0.925,4.985,1.87,9.007,1.66c-0.701-0.341-1.331-0.711-1.8-1.081
	c-2.12-0.042-3.849-0.32-4.753-0.754C7.336,19.091,7.085,18.891,6.984,18.627L6.984,18.627L6.984,18.627z M16.6,19.37l-0.888-0.552
	c-0.41-0.115-0.938-0.174-1.567-0.174c-0.845,0-1.656,0.108-2.004,0.16c0.01,0.103,0.063,0.221,0.156,0.35
	c0.099,0.137,0.243,0.275,0.41,0.418c0.187,0.156,0.41,0.316,0.664,0.477c0.557,0.35,1.246,0.691,1.973,0.998
	c0.315,0.133,0.634,0.258,0.952,0.374c0.449,0.163,0.894,0.308,1.31,0.425c0.738,0.207,1.394,0.336,1.824,0.336
	c0.145,0,0.229-0.016,0.275-0.029c0.605-0.166,0.65-0.336,0.652-0.342c0.01-0.045-0.055-0.125-0.094-0.156L16.6,19.37z"/>
</svg>
