<?xml version="1.0" encoding="utf-8"?>
<!-- Generator: Adobe Illustrator 16.0.0, SVG Export Plug-In . SVG Version: 6.00 Build 0)  -->
<!DOCTYPE svg PUBLIC "-//W3C//DTD SVG 1.1//EN" "http://www.w3.org/Graphics/SVG/1.1/DTD/svg11.dtd">
<svg version="1.1" id="Layer_1" xmlns="http://www.w3.org/2000/svg" xmlns:xlink="http://www.w3.org/1999/xlink" x="0px" y="0px"
	 width="29px" height="32px" viewBox="0 0 29 32" enable-background="new 0 0 29 32" xml:space="preserve">
<title>hbase-worker-deployment</title>
<path fill="#3272A0" d="M28.57,14.286C28.57,6.408,22.162,0,14.285,0C6.407,0-0.001,6.408-0.001,14.286
	c0,6.239,4.021,11.553,9.607,13.495C9.848,30.15,11.85,32,14.284,32c2.434,0,4.437-1.85,4.679-4.219
	C24.548,25.839,28.57,20.525,28.57,14.286L28.57,14.286z M18.982,27.171c-0.066-2.539-2.142-4.578-4.696-4.578
	c-2.555,0-4.63,2.038-4.697,4.578c-5.256-1.922-9.018-6.972-9.018-12.886c0-7.562,6.152-13.714,13.714-13.714
	c7.563,0,13.714,6.152,13.714,13.714C27.999,20.199,24.236,25.249,18.982,27.171L18.982,27.171z M12.822,29.621l-1.041-4.102h0.56
	l0.487,2.074c0.122,0.512,0.231,1.022,0.305,1.418h0.012c0.067-0.406,0.195-0.894,0.335-1.424l0.547-2.068h0.554l0.499,2.082
	c0.115,0.486,0.225,0.974,0.286,1.405h0.012c0.085-0.45,0.201-0.907,0.328-1.418l0.542-2.069h0.541l-1.162,4.103h-0.554
	l-0.517-2.136c-0.128-0.523-0.213-0.926-0.268-1.34h-0.012c-0.073,0.408-0.165,0.81-0.317,1.34l-0.584,2.136L12.822,29.621
	L12.822,29.621z M24.904,10.03c-0.516,0-1.697,0.297-1.697,0.297s-0.626-1.399-1.18-1.805c-0.553-0.406-0.549,0.115-0.549,0.853
	c0,0.739-0.77,3.293-3.168,3.293c-2.397,0-9.433-2.826-11.277-2.859c-4.222-0.075-4.075,3.32-4.075,3.32v2.196H6
	c0,0,1.066-0.051,1.293,0.649c0.074,0.083,0.194,0.167,0.361,0.248c0.653,0.313,1.845,0.524,3.322,0.584
	c-0.025-0.029-0.057-0.061-0.078-0.09c-0.196-0.27-0.255-0.529-0.177-0.769l0.038-0.117c0.088-0.157,0.563-0.183,1.993-0.183
	c0.572,0,1.055,0.057,1.435,0.167l0.051,0.023l1.183,0.738c1.886-0.26,3.843-0.738,5.575-1.488c0.686-1.213,2.725-2.953,2.725-2.953
	c0.666-0.665,1.992-1.255,1.992-1.622c0-0.367-0.294-0.482-0.811-0.482l0,0L24.904,10.03z M7.078,14.502
	c-0.416,0-0.753-0.241-0.753-0.539s0.338-0.539,0.753-0.539s0.752,0.241,0.752,0.539S7.493,14.502,7.078,14.502L7.078,14.502z
	 M14.869,18.898c-0.399-0.131-0.809-0.282-1.211-0.45c-0.582,0.054-1.15,0.083-1.694,0.083c-3.154,0-5.633-0.821-6.906-1.551
	c-0.425-0.244-0.8-0.521-0.975-0.941h-0.43c-0.554,0-0.996-0.031-0.702,0.26C6.256,19.497,11.025,19.854,14.869,18.898
	L14.869,18.898L14.869,18.898z M20.609,15.685c-1.479,0.577-3.086,0.967-4.666,1.211l0.897,0.56c1.062-0.291,2.16-0.688,3.279-1.218
	C20.305,16.057,20.466,15.872,20.609,15.685L20.609,15.685L20.609,15.685z M18.923,17.191c-0.547,0.213-1.087,0.396-1.62,0.555
	l0.301,0.188C18.081,17.705,18.521,17.456,18.923,17.191L18.923,17.191L18.923,17.191z M6.845,16.039H4.571
	c0.069,0.116,0.274,0.37,0.88,0.693c1.442,0.763,4.114,1.543,7.435,1.369c-0.578-0.281-1.098-0.586-1.485-0.893
	c-1.75-0.035-3.177-0.266-3.923-0.622C7.136,16.424,6.93,16.258,6.845,16.039L6.845,16.039L6.845,16.039z M14.781,16.652
	l-0.733-0.456c-0.338-0.095-0.774-0.143-1.294-0.143c-0.698,0-1.367,0.088-1.654,0.131c0.008,0.085,0.052,0.181,0.129,0.289
	c0.082,0.113,0.202,0.227,0.339,0.344c0.154,0.132,0.339,0.263,0.549,0.395c0.46,0.288,1.029,0.571,1.629,0.823
	c0.261,0.11,0.523,0.213,0.786,0.31c0.371,0.133,0.735,0.252,1.081,0.35c0.609,0.172,1.15,0.277,1.506,0.277
	c0.117,0,0.189-0.013,0.227-0.022c0.5-0.138,0.536-0.277,0.537-0.283c0.008-0.037-0.045-0.103-0.076-0.129l-3.025-1.884V16.652z"/>
</svg>
