<?xml version="1.0" encoding="utf-8"?>
<!-- Generator: Adobe Illustrator 16.0.0, SVG Export Plug-In . SVG Version: 6.00 Build 0)  -->
<!DOCTYPE svg PUBLIC "-//W3C//DTD SVG 1.1//EN" "http://www.w3.org/Graphics/SVG/1.1/DTD/svg11.dtd">
<svg version="1.1" id="Layer_1" xmlns="http://www.w3.org/2000/svg" xmlns:xlink="http://www.w3.org/1999/xlink" x="0px" y="0px"
	 width="29px" height="32px" viewBox="0 0 29 32" enable-background="new 0 0 29 32" xml:space="preserve">
<title>hbase-master-deployment</title>
<path fill="#3272A0" d="M28.57,14.286C28.57,6.408,22.162,0,14.285,0C6.407,0-0.001,6.408-0.001,14.286
	c0,6.239,4.021,11.553,9.607,13.495C9.848,30.15,11.85,32,14.284,32c2.434,0,4.437-1.85,4.679-4.219
	C24.548,25.839,28.57,20.525,28.57,14.286L28.57,14.286z M18.982,27.171c-0.066-2.539-2.142-4.578-4.696-4.578
	c-2.555,0-4.63,2.038-4.697,4.578c-5.256-1.922-9.018-6.972-9.018-12.886c0-7.562,6.152-13.714,13.714-13.714
	c7.563,0,13.714,6.152,13.714,13.714C27.999,20.199,24.236,25.249,18.982,27.171L18.982,27.171z M11.74,26.598
	c0-0.369-0.008-0.674-0.03-0.971h0.57l0.03,0.578h0.022c0.201-0.341,0.534-0.659,1.127-0.659c0.489,0,0.86,0.297,1.015,0.72h0.014
	c0.111-0.201,0.252-0.355,0.399-0.467c0.214-0.163,0.452-0.252,0.794-0.252c0.473,0,1.178,0.311,1.178,1.557v2.111h-0.637v-2.029
	c0-0.69-0.252-1.105-0.779-1.105c-0.369,0-0.658,0.273-0.77,0.594c-0.03,0.088-0.052,0.206-0.052,0.326v2.215h-0.637v-2.15
	c0-0.569-0.252-0.985-0.749-0.985c-0.408,0-0.704,0.325-0.808,0.653c-0.037,0.096-0.052,0.207-0.052,0.317v2.164h-0.637v-2.616
	H11.74z M24.839,10.03c-0.515,0-1.696,0.296-1.696,0.296s-0.625-1.399-1.179-1.805s-0.55,0.115-0.55,0.853
	c0,0.738-0.77,3.293-3.167,3.293S8.814,9.841,6.97,9.808c-4.222-0.074-4.075,3.32-4.075,3.32v2.195h3.042
	c0,0,1.066-0.05,1.294,0.649c0.074,0.083,0.193,0.167,0.361,0.247c0.654,0.313,1.845,0.524,3.323,0.586
	c-0.025-0.029-0.057-0.06-0.078-0.09c-0.195-0.27-0.255-0.529-0.177-0.769l0.038-0.117c0.089-0.157,0.563-0.183,1.993-0.183
	c0.572,0,1.054,0.057,1.434,0.167l0.051,0.023l1.184,0.738c1.886-0.26,3.841-0.738,5.574-1.488c0.686-1.214,2.726-2.953,2.726-2.953
	c0.664-0.664,1.993-1.254,1.993-1.621c0-0.367-0.295-0.482-0.812-0.482l0,0H24.839z M7.014,14.502c-0.417,0-0.753-0.242-0.753-0.539
	c0-0.299,0.337-0.539,0.753-0.539c0.415,0,0.753,0.241,0.753,0.539S7.43,14.502,7.014,14.502L7.014,14.502z M14.805,18.898
	c-0.399-0.131-0.809-0.282-1.211-0.45c-0.582,0.054-1.15,0.083-1.695,0.083c-3.153,0-5.633-0.821-6.905-1.551
	c-0.425-0.242-0.801-0.52-0.975-0.94H3.588c-0.553,0-0.996-0.031-0.701,0.26C6.191,19.498,10.96,19.855,14.805,18.898L14.805,18.898
	z M20.545,15.685c-1.479,0.576-3.086,0.967-4.666,1.211l0.898,0.56c1.062-0.291,2.16-0.688,3.279-1.217
	C20.238,16.058,20.402,15.873,20.545,15.685L20.545,15.685L20.545,15.685z M18.857,17.191c-0.547,0.213-1.086,0.396-1.619,0.555
	l0.301,0.186C18.018,17.705,18.457,17.455,18.857,17.191L18.857,17.191L18.857,17.191z M6.781,16.039H4.507
	c0.069,0.117,0.274,0.37,0.879,0.691c1.443,0.766,4.115,1.543,7.435,1.371c-0.579-0.283-1.098-0.588-1.485-0.894
	c-1.749-0.035-3.177-0.265-3.923-0.622C7.073,16.423,6.866,16.257,6.781,16.039L6.781,16.039L6.781,16.039z M14.715,16.652
	l-0.732-0.454c-0.338-0.095-0.774-0.144-1.294-0.144c-0.697,0-1.367,0.089-1.654,0.132c0.008,0.085,0.051,0.182,0.129,0.289
	c0.082,0.112,0.201,0.227,0.339,0.345c0.154,0.13,0.339,0.262,0.549,0.393c0.46,0.289,1.028,0.571,1.629,0.823
	c0.259,0.11,0.523,0.214,0.786,0.31c0.37,0.133,0.736,0.252,1.081,0.35c0.609,0.171,1.15,0.277,1.505,0.277
	c0.119,0,0.189-0.013,0.227-0.023c0.502-0.137,0.537-0.277,0.537-0.282c0.01-0.037-0.045-0.103-0.078-0.129L14.715,16.652z"/>
</svg>
