<?xml version="1.0" encoding="utf-8"?>
<!-- Generator: Adobe Illustrator 16.0.0, SVG Export Plug-In . SVG Version: 6.00 Build 0)  -->
<!DOCTYPE svg PUBLIC "-//W3C//DTD SVG 1.1//EN" "http://www.w3.org/Graphics/SVG/1.1/DTD/svg11.dtd">
<svg version="1.1" id="Layer_1" xmlns="http://www.w3.org/2000/svg" xmlns:xlink="http://www.w3.org/1999/xlink" x="0px" y="0px"
	 width="29px" height="32px" viewBox="0 0 29 32" enable-background="new 0 0 29 32" xml:space="preserve">
<title>hdfs-worker-deployment</title>
<path fill="#3272A0" d="M28.57,14.286C28.57,6.408,22.162,0,14.285,0C6.407,0-0.001,6.408-0.001,14.286
	c0,6.239,4.021,11.553,9.607,13.495C9.848,30.15,11.85,32,14.284,32c2.434,0,4.437-1.85,4.679-4.219
	C24.548,25.839,28.57,20.525,28.57,14.286L28.57,14.286z M18.982,27.171c-0.066-2.539-2.142-4.578-4.696-4.578
	c-2.555,0-4.63,2.038-4.697,4.578c-5.256-1.922-9.018-6.972-9.018-12.886c0-7.562,6.152-13.714,13.714-13.714
	c7.563,0,13.714,6.152,13.714,13.714C27.999,20.199,24.236,25.249,18.982,27.171L18.982,27.171z M12.822,29.621l-1.041-4.102h0.56
	l0.487,2.074c0.122,0.512,0.231,1.022,0.305,1.418h0.012c0.067-0.406,0.195-0.894,0.335-1.424l0.547-2.068h0.554l0.499,2.082
	c0.115,0.486,0.225,0.974,0.286,1.405h0.012c0.085-0.45,0.201-0.907,0.328-1.418l0.542-2.069h0.541l-1.162,4.103h-0.554
	l-0.517-2.136c-0.128-0.523-0.213-0.926-0.268-1.34h-0.012c-0.073,0.408-0.165,0.81-0.317,1.34l-0.584,2.136L12.822,29.621
	L12.822,29.621z M24.99,8.674c-0.131-0.318-0.657-0.795-0.992-0.47c-0.335,0.328-0.589,0.79-0.957,1.081
	c-0.501,0.393-1.361,0.257-1.206,1.093c0.116,0.611,0.146,1.291,0.021,1.86c-0.125,0.546-0.256,1.317-0.541,1.683
	c0.084-0.309,0.224-1.117,0.264-1.661c0.023-0.297-0.01-0.657-0.066-1.019c-0.062,0.001-0.125,0.001-0.187,0.003
	c-0.229,0.008-0.607,0.336-0.706,0.539c-0.279,0.573-0.299,1.105-0.613,1.65c0.256-0.609,0.109-1.156,0.342-1.81
	c0.082-0.23,0.289-0.43,0.524-0.549c-0.132-0.022-0.265,0.037-0.463,0.084c-0.837,0.196-0.802,0.858-1.315,1.487
	c0.496-0.913,0.242-1.516,1.321-1.763c0.354-0.082,0.614-0.111,0.849,0.074c0.006,0,0.012,0,0.018-0.001
	c0.061-0.006,0.119-0.012,0.18-0.013c-0.027-0.168-0.063-0.333-0.095-0.489c-0.494-0.064-0.947-0.051-1.453,0.025
	c0.112-0.047,0.217-0.091,0.317-0.128c-0.029-0.033-0.059-0.078-0.08-0.125c0-0.001,0-0.001,0-0.001
	c-0.063-0.127-0.098-0.271-0.082-0.421c0.011-0.112,0.045-0.218,0.099-0.311c-0.015,0.004-0.03,0.009-0.046,0.017
	c-0.122,0.047-0.378,0.031-0.494-0.008c0.23-0.035,0.568-0.158,0.786-0.265c0.005-0.002,0.01-0.005,0.017-0.007
	c0.137-0.085,0.301-0.126,0.471-0.11c0.086,0.007,0.164,0.03,0.24,0.065c0.103,0.03,0.219,0.071,0.353,0.118
	c-0.204-0.433-0.442-0.825-0.724-1.217c-0.271-0.374-0.492-0.501-0.889-0.734c-0.086-0.049-0.173-0.103-0.251-0.155
	c-0.294-0.055-0.618-0.107-0.899-0.054c0.234-0.091,0.406-0.129,0.61-0.145c-0.562-0.401-1.044-0.85-1.593-1.314
	c-2.131-1.791-3.852-1.663-6.565-0.487c-1.098,0.48-1.494,0.962-2.169,1.827c0.003,0,0.013-0.002,0.022-0.002
	c0.687-0.017,1.37-0.041,2.077-0.108c-0.733,0.173-1.431,0.31-2.148,0.418C8.171,7.45,7.929,7.432,7.328,8.013
	c-1.102,1.071-2.024,2.283-3.034,3.371c-0.582,0.63-0.873,1.259-1.217,1.978c-0.34,0.714-0.292,0.987,0.162,1.601
	c0.467,0.633,0.75,0.919,0.947,1.48c0.514-0.797,1.135-1.456,1.79-2.246c-0.535,0.856-1.02,1.665-1.461,2.536
	c-0.275,0.543,0.437,2.33,0.917,2.463c0.516,0.145,1.001,0.119,1.469-0.125c1.162-0.604,2.267-1.385,3.554-1.483
	c0.667-1.188,0.481-2.678,0.24-4.028c-0.196-1.121-0.147-2.11,0.122-3.236c0.065,1.094,0.154,2.106,0.37,3.179
	c0.315,1.568,0.382,2.925-0.278,4.542l4.062,0.705c0.298,0.26,0.597,0.524,0.907,0.8c0.451,0.404,0.866,0.813,1.519,0.825
	c0.707,0.015,1.511-0.526,1.715-1.199c0.078-0.259,0.158-0.519,0.238-0.774c-0.143-0.035-0.279-0.069-0.414-0.111
	c-0.145,0.352-0.134,0.486-0.205,0.747c-0.115,0.442-0.727,0.75-1.367,0.598c-0.225-0.054-0.355-0.087-0.441-0.147
	c0.066,0.177,0.189,0.326,0.422,0.369c0.26,0.047,0.449,0.067,0.822-0.015c-0.461,0.234-0.613,0.247-0.939,0.177
	c-0.861-0.192-0.558-1.23-0.373-1.867c0.119-0.401,0.082-0.824-0.01-1.227c0.327,0.204,0.59,0.387,0.959,0.516
	c1.742,0.586,3.813,1.186,5.565,0.205c1.375-0.77,2.131-2.472,2.3-4.031c0.15-1.39-0.111-3.562-0.682-4.941L24.99,8.674z
	 M9.337,8.635c-0.471,0.619-0.756,0.939-0.864,1.767C8.344,9.585,8.319,9.436,8.68,8.827C8.577,8.88,8.477,8.952,8.338,9.074
	c-0.509,0.433-1.169,2.138-1.434,2.746c0.167-0.732,0.695-2.566,1.233-3.1c0.357-0.352,0.437-0.345,0.938-0.391
	c0.597-0.058,1.194-0.119,1.791-0.186C10.334,8.349,9.854,8.505,9.337,8.635L9.337,8.635z M13.672,10.003
	c-0.189-0.953,0.089-1.571,1.561-1.941C14.122,8.596,13.835,9.287,13.672,10.003z M16.699,16.59c-0.236,0.128-0.297,0.153-0.413,0.4
	c-0.106,0.234-0.218,0.518-0.308,0.758c0.035-0.213,0.082-0.482,0.115-0.697c0.074-0.462,0.129-0.572,0.592-0.651
	c0.176-0.029,0.488-0.095,0.66-0.123C17.178,16.372,16.868,16.498,16.699,16.59L16.699,16.59z M15.425,12.651
	c0.078-0.218-0.017-0.838-0.114-1.04c-0.064-0.133-0.096-0.276-0.098-0.418c-0.238,0.19-0.493,0.37-0.761,0.473
	c0.369-0.33,0.868-1.107,1.233-1.353c0.414-0.278,0.973-0.224,1.453-0.446c-0.164,0.15-0.375,0.267-0.59,0.383
	c0.235,0.086,0.441,0.261,0.559,0.505c0.049,0.105,0.076,0.21,0.088,0.319c0.322-0.107,0.641-0.157,0.91-0.151
	C17.146,11.189,16.128,11.818,15.425,12.651L15.425,12.651z M23.055,10.053c-0.43,0.153-0.703-0.004-1.142-0.131
	c0.429,0.041,0.674,0.108,1.06-0.083c0.717-0.355,1.241-0.934,1.582-1.627c-0.207,0.828-0.628,1.53-1.502,1.842L23.055,10.053z"/>
</svg>
