<?xml version="1.0" encoding="utf-8"?>
<!-- Generator: Adobe Illustrator 16.0.0, SVG Export Plug-In . SVG Version: 6.00 Build 0)  -->
<!DOCTYPE svg PUBLIC "-//W3C//DTD SVG 1.1//EN" "http://www.w3.org/Graphics/SVG/1.1/DTD/svg11.dtd">
<svg version="1.1" id="Layer_1" xmlns="http://www.w3.org/2000/svg" xmlns:xlink="http://www.w3.org/1999/xlink" x="0px" y="0px"
	 width="32px" height="32px" viewBox="0 0 32 32" enable-background="new 0 0 32 32" xml:space="preserve">
<title>hdfs-sink</title>
<path fill="#64953B" d="M20.004,16.788c0.122,0.378,0.02,0.716-0.093,1.053c-0.024,0.077-0.031,0.158-0.039,0.238
	c-0.021,0.196-0.001,0.385,0.207,0.511c0.194,0.118,0.479,0.118,0.743-0.004c-0.268-0.011-0.539,0.03-0.735-0.195
	c0.214,0.021,0.397,0.053,0.582,0.051c0.379,0,0.618-0.184,0.699-0.504c0.028-0.106,0.065-0.211,0.103-0.328
	c0.104,0.023,0.184,0.041,0.26,0.063c-0.084,0.633-0.476,1.055-1.076,1.18c-0.334,0.068-0.639,0.008-0.899-0.174
	c-0.312-0.212-0.601-0.449-0.905-0.669c-0.101-0.071-0.223-0.125-0.343-0.175c-0.418-0.172-0.842-0.339-1.243-0.501
	c0.215,0.24,0.493,0.456,0.846,0.59c0.145,0.058,0.185,0.124,0.154,0.254c-0.265,1.117-0.713,2.163-1.539,3.066
	c-0.082,0.09-0.193,0.159-0.299,0.233c-0.404,0.279-0.814,0.553-1.216,0.838c-0.09,0.063-0.15,0.16-0.22,0.244
	c-0.355,0.438-0.851,0.494-1.238,0.082c-0.318-0.338-0.577-0.727-0.806-1.119c-0.172-0.295-0.087-0.412,0.252-0.576
	c0.13-0.063,0.256-0.129,0.383-0.197c0.125-0.066,0.25-0.141,0.385-0.214c0.068,0.063,0.132,0.118,0.197,0.179
	c0-0.367,0-0.729,0-1.146c-0.085,0.195-0.141,0.349-0.22,0.492c-0.033,0.062-0.107,0.137-0.175,0.146
	c-0.722,0.119-1.447,0.127-2.176,0.04c-0.166-0.021-0.225-0.085-0.243-0.222c-0.019-0.143-0.063-0.281-0.142-0.42
	c0,0.332-0.011,0.662,0.003,0.994c0.013,0.295-0.071,0.557-0.274,0.795c-0.054,0.064-0.1,0.135-0.148,0.201
	c-0.117,0.164-0.187,0.329-0.184,0.533c0.009,0.48-0.146,0.609-0.691,0.536c-0.515-0.069-1.021-0.194-1.526-0.306
	c-0.112-0.025-0.218-0.09-0.314-0.15c-0.156-0.102-0.161-0.236-0.11-0.396c0.124-0.39,0.237-0.785,0.334-1.182
	c0.022-0.088-0.015-0.207-0.073-0.283c-0.643-0.875-1.133-1.799-1.351-2.83c-0.506-2.398,1.386-4.646,3.947-5.199
	c0.34-0.073,0.685-0.129,1.048-0.156c-0.26,0.266-0.513,0.538-0.783,0.796c-0.505,0.478-0.863,1.034-1.179,1.614
	c-0.213,0.389-0.185,0.742,0.114,1.09c0.253,0.296,0.485,0.605,0.716,0.915c0.108,0.145,0.126,0.293,0.04,0.468
	c-0.176,0.354-0.152,0.649,0.222,0.958c0.692,0.573,1.54,0.705,2.341,0.294c0.474-0.243,0.974-0.452,1.48-0.642
	c0.268-0.103,0.572-0.137,0.863-0.178c0.127-0.02,0.18-0.061,0.222-0.156c0.303-0.704,0.35-1.425,0.228-2.163
	c-0.118-0.706-0.223-1.413-0.333-2.12c-0.009-0.054-0.02-0.108-0.044-0.162c-0.155,0.495-0.193,0.998-0.124,1.505
	c0.062,0.464,0.15,0.927,0.198,1.391c0.045,0.434-0.024,0.86-0.227,1.264c-0.051,0.102-0.118,0.145-0.25,0.158
	c-0.595,0.068-1.116,0.31-1.632,0.556c-0.212,0.101-0.42,0.205-0.634,0.301c-0.839,0.378-1.512,0.054-1.992-0.506
	c-0.028-0.034-0.038-0.095-0.027-0.14c0.052-0.189,0.08-0.391,0.179-0.563c0.25-0.435,0.534-0.854,0.805-1.28
	c0.049-0.077,0.105-0.154,0.156-0.23c-0.015-0.009-0.031-0.017-0.047-0.027c-0.348,0.375-0.696,0.75-1.027,1.106
	c-0.255-0.312-0.511-0.634-0.776-0.951c-0.198-0.237-0.221-0.479-0.084-0.747c0.277-0.536,0.598-1.042,1.067-1.477
	c0.61-0.566,1.197-1.149,1.78-1.738c0.37-0.373,0.825-0.553,1.383-0.598c0.404-0.033,0.802-0.12,1.197-0.202
	c-0.379,0-0.757,0-1.161,0c0.232-0.285,0.467-0.564,0.801-0.749c0.93-0.512,1.934-0.847,3.049-0.87
	c0.538-0.011,1.055,0.102,1.489,0.365c0.63,0.38,1.228,0.804,1.872,1.235c-0.125,0.035-0.188,0.051-0.252,0.068
	c0.953,0.076,1.363,0.676,1.734,1.345c-0.441-0.24-0.787,0.031-1.164,0.154c0.074,0.004,0.146,0.008,0.225,0.013
	c-0.006,0.088-0.014,0.178-0.021,0.288c0.066-0.051,0.106-0.097,0.162-0.119c0.121-0.049,0.223-0.013,0.28,0.092
	c0.062,0.113-0.014,0.151-0.13,0.175c-0.102,0.02-0.199,0.058-0.333,0.097c0.25,0,0.46-0.006,0.668,0.002
	c0.294,0.01,0.3,0.02,0.3,0.33c-0.414-0.147-0.836-0.122-1.14,0.14c-0.204,0.177-0.287,0.462-0.392,0.718
	c0.252-0.368,0.461-0.765,1.074-0.767c-0.479,0.31-0.359,0.772-0.406,1.191c0.067-0.191,0.14-0.382,0.207-0.573
	c0.072-0.194,0.186-0.364,0.396-0.463c0.09-0.041,0.194-0.058,0.308-0.092c0.161,0.551,0,1.06-0.062,1.579
	c0.03-0.054,0.067-0.106,0.09-0.163c0.229-0.614,0.386-1.235,0.233-1.886c-0.063-0.285,0.009-0.417,0.318-0.497
	c0.409-0.107,0.707-0.323,0.944-0.621c0.021-0.025,0.042-0.049,0.065-0.073c0.313-0.336,0.676-0.305,0.862,0.108
	c0.154,0.341,0.272,0.701,0.354,1.06c0.183,0.827,0.26,1.66,0.027,2.492c-0.151,0.54-0.41,1.035-0.838,1.457
	c-0.503,0.492-1.144,0.75-1.887,0.775c-1.148,0.041-2.229-0.207-3.243-0.676c-0.032-0.012-0.063-0.021-0.126-0.045L20.004,16.788
	L20.004,16.788z M20.32,13.164c-0.168-0.187-0.305-0.34-0.448-0.5c0.026-0.015,0.073-0.04,0.12-0.067
	c0.037-0.024,0.072-0.051,0.094-0.067c-0.831-0.039-1.26,0.462-1.709,1.013c0.182-0.095,0.321-0.168,0.454-0.237
	c0.056,0.116,0.104,0.218,0.153,0.321c0.05-0.161,0.104-0.29,0.297-0.317c0.152-0.02,0.253,0.042,0.298,0.135
	c-0.197,0.214-0.374,0.406-0.55,0.6c0.017,0.013,0.035,0.026,0.053,0.04c0.451-0.429,1.002-0.732,1.605-0.977
	c-0.139,0.02-0.272,0.04-0.364,0.054L20.32,13.164z M15.66,11.46c-0.007-0.013-0.013-0.027-0.019-0.04
	c-0.401,0.036-0.8,0.081-1.202,0.103c-0.272,0.015-0.476,0.12-0.625,0.303c-0.39,0.481-0.548,1.043-0.718,1.599
	c0.166-0.271,0.305-0.552,0.462-0.826c0.156-0.272,0.305-0.553,0.64-0.717c-0.157,0.256-0.184,0.517-0.108,0.739
	c0.169-0.252,0.343-0.529,0.54-0.794c0.054-0.073,0.169-0.124,0.269-0.156C15.149,11.592,15.405,11.53,15.66,11.46L15.66,11.46z
	 M23.744,12.52c0.552,0.316,1.484-0.26,1.611-0.935C24.948,12.066,24.532,12.523,23.744,12.52z M17.766,12.431
	c0.121-0.193,0.215-0.41,0.371-0.583c0.159-0.175,0.383-0.307,0.563-0.445c-0.729,0.145-1.096,0.547-0.932,1.028H17.766z
	 M19.453,17.118c0.093-0.354,0.365-0.566,0.747-0.69C19.561,16.454,19.508,16.504,19.453,17.118z M16.675,21.676
	c0.837-0.777,1.263-1.72,1.595-2.728c0.287,0.515,0.432,1.02,0.412,1.563c-0.009,0.21,0.076,0.419,0.094,0.63
	c0.014,0.147,0.004,0.309-0.041,0.45c-0.023,0.073-0.156,0.173-0.238,0.173c-0.578-0.006-1.156-0.029-1.732-0.051
	C16.743,21.713,16.727,21.699,16.675,21.676L16.675,21.676z M6.889,18.511c0.047,0.114,0.095,0.282,0.181,0.435
	c0.282,0.504,0.566,1.006,0.875,1.492c0.089,0.145,0.081,0.252,0.006,0.377c-0.077,0.129-0.194,0.211-0.371,0.205
	c-0.049,0-0.1,0-0.147-0.01c-0.628-0.103-1.37-0.74-1.51-1.285c-0.043-0.166-0.018-0.301,0.14-0.412
	c0.077-0.055,0.145-0.121,0.209-0.185C6.483,18.92,6.691,18.709,6.889,18.511L6.889,18.511z M6.574,12.924
	c-0.042,0.288-0.072,0.573-0.131,0.852c-0.029,0.134-0.077,0.289-0.18,0.382c-0.166,0.15-0.024,0.243,0.027,0.356
	c0.057,0.125,0.175,0.189,0.322,0.144c0.211-0.063,0.413-0.148,0.609-0.221c-0.026,0.364-0.145,0.484-0.547,0.528
	C6.36,15,6.205,14.918,6.081,14.66c-0.09-0.186-0.182-0.369-0.272-0.555c-0.093-0.191-0.053-0.374,0.058-0.548
	C6.04,13.289,6.296,13.09,6.574,12.924L6.574,12.924z M16,0c8.822,0,16,7.177,16,16s-7.178,16-16,16C7.176,32,0,24.822,0,16
	C0,7.178,7.176,0,16,0z M16,31.359c8.471,0,15.359-6.889,15.359-15.359c0-8.47-6.889-15.36-15.359-15.36
	C7.53,0.64,0.64,7.53,0.64,16C0.64,24.471,7.53,31.359,16,31.359z"/>
</svg>
