<?xml version="1.0" encoding="utf-8"?>
<!-- Generator: Adobe Illustrator 16.0.0, SVG Export Plug-In . SVG Version: 6.00 Build 0)  -->
<!DOCTYPE svg PUBLIC "-//W3C//DTD SVG 1.1//EN" "http://www.w3.org/Graphics/SVG/1.1/DTD/svg11.dtd">
<svg version="1.1" id="Layer_1" xmlns="http://www.w3.org/2000/svg" xmlns:xlink="http://www.w3.org/1999/xlink" x="0px" y="0px"
	 width="32px" height="32px" viewBox="0 0 32 32" enable-background="new 0 0 32 32" xml:space="preserve">
<title>hdfs-deployment</title>
<path fill="#3272A0" d="M16,0c8.822,0,16,7.177,16,16s-7.178,16-16,16C7.176,32,0,24.822,0,16C0,7.178,7.176,0,16,0z M16,31.359
	c8.471,0,15.359-6.889,15.359-15.359c0-8.47-6.889-15.36-15.359-15.36C7.53,0.64,0.64,7.53,0.64,16
	C0.64,24.471,7.53,31.359,16,31.359z M26.479,12.401c-0.127-0.31-0.643-0.778-0.971-0.46c-0.328,0.321-0.576,0.773-0.938,1.058
	c-0.491,0.385-1.332,0.252-1.18,1.069c0.112,0.599,0.143,1.265,0.02,1.821c-0.124,0.534-0.251,1.291-0.529,1.649
	c0.082-0.304,0.219-1.094,0.26-1.627c0.021-0.29-0.011-0.643-0.067-0.998c-0.06,0.001-0.122,0.001-0.183,0.003
	c-0.225,0.007-0.594,0.328-0.69,0.528c-0.275,0.561-0.291,1.082-0.601,1.615c0.25-0.597,0.107-1.133,0.334-1.771
	c0.08-0.225,0.281-0.421,0.514-0.538c-0.129-0.022-0.26,0.036-0.453,0.082c-0.819,0.193-0.785,0.84-1.287,1.456
	c0.486-0.893,0.236-1.485,1.293-1.727c0.348-0.08,0.602-0.109,0.831,0.072c0.005,0,0.012,0,0.017-0.001
	c0.06-0.006,0.117-0.011,0.176-0.013c-0.027-0.164-0.061-0.325-0.092-0.479c-0.484-0.063-0.929-0.05-1.424,0.025
	c0.11-0.046,0.213-0.089,0.313-0.125c-0.029-0.031-0.059-0.076-0.079-0.122c0-0.001,0-0.001,0-0.001
	c-0.062-0.124-0.095-0.265-0.08-0.412c0.012-0.11,0.045-0.214,0.097-0.305c-0.015,0.004-0.029,0.008-0.045,0.016
	c-0.12,0.046-0.371,0.031-0.484-0.008c0.227-0.035,0.557-0.155,0.77-0.259c0.005-0.001,0.01-0.005,0.018-0.007
	c0.133-0.083,0.293-0.124,0.461-0.108c0.084,0.008,0.16,0.03,0.234,0.065c0.1,0.028,0.213,0.07,0.346,0.115
	c-0.201-0.424-0.435-0.808-0.709-1.192c-0.266-0.366-0.482-0.491-0.869-0.719c-0.084-0.049-0.17-0.1-0.246-0.152
	c-0.289-0.053-0.605-0.104-0.883-0.052c0.23-0.089,0.399-0.125,0.6-0.141c-0.549-0.392-1.021-0.833-1.559-1.286
	c-2.088-1.754-3.772-1.628-6.427-0.477c-1.075,0.47-1.464,0.941-2.124,1.789c0.004,0,0.013-0.001,0.022-0.001
	c0.673-0.016,1.343-0.04,2.033-0.106c-0.717,0.168-1.401,0.303-2.103,0.41c-0.776,0.117-1.014,0.098-1.601,0.668
	c-1.079,1.048-1.982,2.236-2.97,3.3c-0.57,0.616-0.854,1.233-1.192,1.937c-0.333,0.698-0.285,0.965,0.159,1.567
	c0.458,0.619,0.734,0.899,0.927,1.447c0.503-0.779,1.112-1.425,1.752-2.197c-0.524,0.838-0.999,1.629-1.431,2.482
	c-0.269,0.531,0.428,2.281,0.898,2.412c0.505,0.141,0.98,0.117,1.438-0.121c1.137-0.591,2.219-1.355,3.48-1.453
	c0.652-1.162,0.471-2.621,0.236-3.943c-0.193-1.097-0.145-2.064,0.119-3.167c0.064,1.071,0.151,2.062,0.362,3.112
	c0.308,1.534,0.374,2.863-0.271,4.446l3.976,0.691c0.291,0.252,0.584,0.514,0.889,0.782c0.441,0.396,0.847,0.796,1.486,0.808
	c0.692,0.015,1.479-0.515,1.68-1.174c0.076-0.252,0.153-0.508,0.233-0.759c-0.14-0.034-0.272-0.067-0.403-0.108
	c-0.144,0.345-0.133,0.477-0.201,0.73c-0.114,0.436-0.711,0.734-1.338,0.586c-0.223-0.054-0.35-0.086-0.434-0.145
	c0.064,0.173,0.186,0.318,0.414,0.359c0.253,0.047,0.438,0.066,0.805-0.015c-0.451,0.229-0.601,0.242-0.921,0.173
	c-0.844-0.189-0.546-1.205-0.364-1.826c0.117-0.395,0.078-0.809-0.011-1.203c0.321,0.2,0.577,0.381,0.94,0.506
	c1.705,0.574,3.732,1.16,5.447,0.199c1.348-0.752,2.086-2.418,2.252-3.945c0.148-1.362-0.107-3.488-0.666-4.838L26.479,12.401z
	 M11.156,12.362c-0.462,0.606-0.74,0.919-0.847,1.731c-0.125-0.799-0.151-0.945,0.203-1.542c-0.102,0.052-0.198,0.123-0.335,0.242
	c-0.498,0.424-1.144,2.093-1.403,2.689c0.164-0.717,0.68-2.512,1.207-3.036c0.349-0.344,0.428-0.337,0.918-0.383
	c0.584-0.056,1.169-0.116,1.752-0.182C12.131,12.083,11.662,12.236,11.156,12.362z M15.399,13.701
	c-0.186-0.932,0.087-1.538,1.528-1.9C15.84,12.325,15.559,13,15.399,13.701z M18.363,20.15c-0.23,0.125-0.291,0.147-0.404,0.391
	c-0.105,0.229-0.212,0.507-0.3,0.742c0.032-0.209,0.079-0.473,0.112-0.682c0.071-0.451,0.125-0.56,0.58-0.637
	c0.172-0.027,0.477-0.093,0.646-0.119c-0.164,0.092-0.468,0.215-0.636,0.305H18.363z M17.116,16.294
	c0.075-0.213-0.017-0.82-0.112-1.018c-0.063-0.131-0.093-0.27-0.095-0.411c-0.232,0.187-0.483,0.363-0.744,0.463
	c0.36-0.323,0.851-1.083,1.206-1.324c0.406-0.272,0.952-0.219,1.423-0.437c-0.16,0.146-0.366,0.262-0.577,0.374
	c0.231,0.084,0.434,0.255,0.547,0.494c0.047,0.102,0.075,0.206,0.086,0.312c0.314-0.104,0.629-0.153,0.892-0.148
	C18.801,14.863,17.805,15.478,17.116,16.294z M24.584,13.751c-0.42,0.149-0.688-0.004-1.116-0.129
	c0.419,0.04,0.659,0.106,1.036-0.081c0.702-0.348,1.215-0.914,1.551-1.592C25.854,12.759,25.441,13.446,24.584,13.751z"/>
</svg>
