<?xml version="1.0" encoding="utf-8"?>
<!-- Generator: Adobe Illustrator 16.0.0, SVG Export Plug-In . SVG Version: 6.00 Build 0)  -->
<!DOCTYPE svg PUBLIC "-//W3C//DTD SVG 1.1//EN" "http://www.w3.org/Graphics/SVG/1.1/DTD/svg11.dtd">
<svg version="1.1" id="Layer_1" xmlns="http://www.w3.org/2000/svg" xmlns:xlink="http://www.w3.org/1999/xlink" x="0px" y="0px"
	 width="32px" height="32px" viewBox="0 0 32 32" enable-background="new 0 0 32 32" xml:space="preserve">
<title>hdfs-source</title>
<path fill="#3272A0" d="M20.004,16.788c0.122,0.377,0.02,0.715-0.093,1.053c-0.024,0.077-0.031,0.158-0.04,0.238
	c-0.02,0.196-0.001,0.385,0.207,0.511c0.193,0.118,0.479,0.118,0.744-0.003c-0.27-0.011-0.54,0.029-0.735-0.196
	c0.214,0.021,0.397,0.053,0.582,0.053c0.379-0.002,0.618-0.185,0.699-0.506c0.028-0.107,0.067-0.209,0.103-0.328
	c0.104,0.024,0.184,0.043,0.26,0.063c-0.084,0.633-0.476,1.055-1.076,1.178c-0.332,0.069-0.639,0.01-0.9-0.17
	c-0.311-0.214-0.6-0.451-0.906-0.671c-0.1-0.073-0.221-0.126-0.342-0.175c-0.418-0.172-0.842-0.339-1.244-0.502
	c0.215,0.238,0.494,0.456,0.846,0.591c0.145,0.056,0.185,0.124,0.154,0.253c-0.264,1.118-0.712,2.164-1.539,3.066
	c-0.082,0.09-0.193,0.16-0.298,0.234c-0.404,0.279-0.814,0.553-1.215,0.836c-0.09,0.064-0.151,0.162-0.22,0.246
	c-0.355,0.438-0.851,0.496-1.238,0.082c-0.318-0.338-0.577-0.726-0.806-1.119c-0.172-0.295-0.088-0.412,0.252-0.576
	c0.129-0.063,0.256-0.129,0.382-0.198c0.125-0.067,0.249-0.14,0.385-0.214c0.068,0.063,0.132,0.119,0.196,0.179
	c0-0.369,0-0.729,0-1.147c-0.085,0.195-0.141,0.349-0.22,0.492c-0.033,0.062-0.107,0.137-0.175,0.147
	c-0.722,0.118-1.448,0.127-2.176,0.04c-0.166-0.02-0.225-0.086-0.243-0.221c-0.019-0.144-0.063-0.283-0.142-0.42
	c0,0.33-0.011,0.66,0.003,0.992c0.013,0.297-0.071,0.559-0.274,0.795c-0.054,0.065-0.1,0.135-0.148,0.202
	c-0.117,0.164-0.187,0.329-0.184,0.532c0.009,0.48-0.146,0.609-0.691,0.536c-0.515-0.07-1.02-0.194-1.526-0.306
	c-0.112-0.025-0.218-0.09-0.314-0.151c-0.156-0.101-0.161-0.236-0.11-0.397c0.124-0.389,0.238-0.785,0.334-1.18
	c0.022-0.088-0.015-0.207-0.073-0.284c-0.643-0.875-1.133-1.799-1.352-2.829c-0.506-2.401,1.386-4.646,3.947-5.2
	c0.34-0.073,0.685-0.129,1.048-0.156c-0.26,0.266-0.513,0.539-0.783,0.796c-0.505,0.479-0.863,1.034-1.179,1.614
	c-0.213,0.389-0.185,0.742,0.114,1.09c0.253,0.296,0.485,0.605,0.716,0.915c0.109,0.143,0.126,0.293,0.04,0.468
	c-0.175,0.355-0.152,0.648,0.222,0.958c0.692,0.573,1.54,0.705,2.341,0.294c0.474-0.243,0.974-0.452,1.48-0.643
	c0.267-0.101,0.572-0.135,0.863-0.176c0.126-0.02,0.18-0.061,0.222-0.158c0.303-0.705,0.35-1.425,0.228-2.164
	c-0.118-0.706-0.223-1.413-0.333-2.12c-0.009-0.054-0.02-0.108-0.044-0.162c-0.155,0.495-0.193,0.998-0.125,1.506
	c0.062,0.464,0.151,0.926,0.198,1.391c0.045,0.434-0.025,0.86-0.227,1.264c-0.051,0.1-0.119,0.145-0.25,0.159
	c-0.595,0.067-1.116,0.309-1.632,0.555c-0.212,0.1-0.42,0.205-0.634,0.302c-0.84,0.376-1.512,0.054-1.992-0.507
	c-0.028-0.033-0.038-0.096-0.027-0.139c0.052-0.189,0.08-0.391,0.179-0.563c0.25-0.435,0.534-0.854,0.805-1.28
	c0.049-0.077,0.105-0.154,0.156-0.23c-0.015-0.009-0.03-0.017-0.047-0.027c-0.348,0.375-0.696,0.75-1.027,1.106
	c-0.255-0.312-0.511-0.634-0.776-0.951c-0.198-0.237-0.222-0.479-0.084-0.747c0.277-0.536,0.597-1.041,1.067-1.477
	c0.61-0.566,1.197-1.149,1.78-1.738c0.37-0.373,0.824-0.554,1.383-0.598c0.404-0.033,0.803-0.12,1.197-0.202
	c-0.379,0-0.757,0-1.161,0c0.233-0.285,0.467-0.565,0.802-0.749c0.929-0.511,1.933-0.847,3.046-0.869
	c0.54-0.011,1.055,0.102,1.492,0.365c0.629,0.38,1.225,0.804,1.871,1.235c-0.124,0.035-0.189,0.051-0.251,0.068
	c0.952,0.075,1.362,0.676,1.735,1.345c-0.442-0.24-0.787,0.032-1.164,0.155c0.074,0.004,0.146,0.008,0.223,0.013
	c-0.006,0.089-0.014,0.178-0.021,0.288c0.066-0.051,0.107-0.097,0.16-0.119c0.122-0.049,0.223-0.013,0.282,0.092
	c0.062,0.113-0.015,0.151-0.13,0.175c-0.102,0.021-0.198,0.058-0.333,0.097c0.25,0,0.46-0.006,0.669,0.002
	c0.294,0.01,0.299,0.02,0.3,0.33c-0.415-0.147-0.836-0.122-1.14,0.14c-0.204,0.177-0.287,0.462-0.391,0.718
	c0.252-0.368,0.459-0.765,1.072-0.766c-0.479,0.309-0.357,0.772-0.406,1.191c0.068-0.191,0.14-0.382,0.209-0.573
	c0.071-0.193,0.184-0.364,0.395-0.463c0.09-0.041,0.193-0.058,0.307-0.092c0.162,0.551,0,1.06-0.061,1.579
	c0.029-0.054,0.068-0.106,0.09-0.163c0.23-0.613,0.385-1.235,0.234-1.886c-0.064-0.285,0.008-0.417,0.317-0.498
	c0.41-0.107,0.708-0.323,0.945-0.621c0.021-0.025,0.042-0.049,0.065-0.073c0.313-0.336,0.676-0.305,0.863,0.108
	c0.154,0.341,0.271,0.701,0.354,1.06c0.183,0.827,0.26,1.66,0.027,2.492c-0.15,0.54-0.412,1.035-0.838,1.456
	c-0.501,0.492-1.142,0.75-1.886,0.776c-1.149,0.041-2.229-0.207-3.243-0.676c-0.033-0.013-0.064-0.024-0.128-0.049L20.004,16.788z
	 M20.32,13.164c-0.168-0.187-0.305-0.341-0.448-0.5c0.028-0.015,0.075-0.04,0.12-0.067c0.037-0.025,0.072-0.051,0.094-0.067
	c-0.831-0.039-1.26,0.461-1.709,1.012c0.182-0.095,0.321-0.168,0.454-0.237c0.056,0.116,0.104,0.218,0.153,0.322
	c0.051-0.161,0.104-0.291,0.295-0.317c0.152-0.02,0.253,0.043,0.298,0.135c-0.196,0.214-0.373,0.406-0.55,0.6
	c0.018,0.013,0.035,0.026,0.053,0.04c0.451-0.43,1.003-0.732,1.605-0.977C20.548,13.129,20.412,13.149,20.32,13.164L20.32,13.164z
	 M15.66,11.46c-0.007-0.013-0.013-0.027-0.019-0.04c-0.401,0.035-0.8,0.081-1.202,0.102c-0.272,0.015-0.476,0.12-0.625,0.303
	c-0.39,0.481-0.548,1.043-0.718,1.599c0.166-0.271,0.305-0.552,0.461-0.826c0.157-0.272,0.305-0.553,0.64-0.717
	c-0.157,0.256-0.183,0.517-0.108,0.739c0.169-0.252,0.343-0.529,0.54-0.794c0.054-0.072,0.169-0.124,0.269-0.156
	C15.148,11.591,15.404,11.529,15.66,11.46L15.66,11.46z M23.744,12.52c0.552,0.316,1.484-0.26,1.613-0.935
	C24.949,12.066,24.531,12.523,23.744,12.52z M17.766,12.431c0.119-0.193,0.213-0.41,0.371-0.583
	c0.158-0.175,0.383-0.307,0.561-0.445C17.969,11.548,17.604,11.95,17.766,12.431z M19.454,17.117
	c0.093-0.354,0.364-0.566,0.746-0.689C19.561,16.455,19.508,16.504,19.454,17.117z M16.675,21.677
	c0.837-0.778,1.263-1.721,1.595-2.729c0.287,0.515,0.431,1.02,0.412,1.563c-0.009,0.209,0.076,0.42,0.094,0.629
	c0.013,0.149,0.004,0.309-0.041,0.451c-0.025,0.073-0.157,0.172-0.24,0.172c-0.578-0.004-1.156-0.029-1.732-0.051
	C16.742,21.713,16.725,21.699,16.675,21.677L16.675,21.677z M6.889,18.511c0.047,0.113,0.095,0.282,0.181,0.435
	c0.282,0.503,0.566,1.005,0.875,1.492c0.089,0.144,0.081,0.252,0.006,0.377c-0.077,0.129-0.194,0.209-0.371,0.205
	c-0.049,0-0.1,0-0.147-0.01c-0.629-0.103-1.371-0.74-1.511-1.285c-0.043-0.166-0.018-0.302,0.14-0.414
	c0.077-0.053,0.145-0.119,0.209-0.184c0.211-0.208,0.419-0.419,0.618-0.618V18.511z M6.574,12.924
	c-0.042,0.288-0.072,0.572-0.13,0.852c-0.029,0.134-0.077,0.289-0.18,0.382c-0.166,0.15-0.024,0.243,0.027,0.356
	c0.056,0.124,0.175,0.189,0.322,0.144c0.211-0.063,0.413-0.148,0.608-0.22c-0.026,0.364-0.145,0.484-0.546,0.528
	c-0.314,0.035-0.469-0.047-0.593-0.305c-0.09-0.186-0.182-0.369-0.272-0.555c-0.093-0.191-0.053-0.374,0.058-0.548
	C6.041,13.289,6.297,13.091,6.574,12.924L6.574,12.924z M16,0c8.822,0,16,7.177,16,16s-7.178,16-16,16C7.176,32,0,24.822,0,16
	C0,7.178,7.176,0,16,0z M16,31.359c8.471,0,15.359-6.889,15.359-15.359c0-8.47-6.889-15.36-15.359-15.36
	C7.53,0.64,0.64,7.53,0.64,16C0.64,24.471,7.53,31.359,16,31.359z"/>
</svg>
