<?xml version="1.0" encoding="utf-8"?>
<!-- Generator: Adobe Illustrator 16.0.0, SVG Export Plug-In . SVG Version: 6.00 Build 0)  -->
<!DOCTYPE svg PUBLIC "-//W3C//DTD SVG 1.1//EN" "http://www.w3.org/Graphics/SVG/1.1/DTD/svg11.dtd">
<svg version="1.1" id="Layer_1" xmlns="http://www.w3.org/2000/svg" xmlns:xlink="http://www.w3.org/1999/xlink" x="0px" y="0px"
	 width="32px" height="32px" viewBox="0 0 32 32" enable-background="new 0 0 32 32" xml:space="preserve">
<title>hive-sink</title>
<path fill="#3272A0" d="M16,0c8.822,0,16,7.177,16,16s-7.178,16-16,16C7.176,32,0,24.822,0,16C0,7.178,7.176,0,16,0z M16,31.359
	c8.471,0,15.359-6.889,15.359-15.359c0-8.47-6.889-15.36-15.359-15.36C7.53,0.64,0.64,7.53,0.64,16
	C0.64,24.471,7.53,31.359,16,31.359z M18.258,24.1c0.049,0.297,0.158,0.494,0.469,0.492c0.041,0,0.082,0.021,0.125,0.032
	c0.321,0.083,0.381,0.226,0.198,0.538c0.175,0.023,0.341,0.063,0.507,0.066c0.528,0.008,1.057,0.008,1.584,0
	c0.252-0.002,0.504-0.027,0.756-0.039c0.151-0.008,0.276,0.037,0.308,0.207c0.028,0.16-0.047,0.267-0.196,0.317
	c-0.6,0.208-1.201,0.417-1.804,0.619c-0.562,0.187-1.117,0.408-1.692,0.536c-0.646,0.143-1.304,0.086-1.947-0.1
	c-1.108-0.32-2.13-0.814-3.039-1.526c-0.506-0.396-0.958-0.845-1.34-1.373c-0.748-1.034-1.129-2.198-1.27-3.447
	c-0.063-0.55-0.106-1.108-0.08-1.661c0.042-0.889,0.272-1.736,0.765-2.494c0.019-0.029,0.027-0.063,0.043-0.101
	c-0.297,0.059-0.582,0.146-0.872,0.166c-0.486,0.035-0.975,0.04-1.462,0.033c-0.293-0.004-0.586-0.063-0.88-0.083
	c-0.202-0.013-0.316-0.118-0.383-0.297c-0.244-0.664-0.468-1.343-0.903-1.912c-0.249-0.326-0.557-0.605-0.822-0.92
	c-0.361-0.429-0.735-0.852-1.052-1.313c-0.528-0.769-0.612-1.613-0.248-2.474c0.198-0.469,0.445-0.92,0.696-1.364
	c0.275-0.484,0.73-0.577,1.238-0.486c0.475,0.086,0.886-0.013,1.228-0.365c0.544-0.561,1.114-1.098,1.627-1.686
	c0.353-0.404,0.774-0.45,1.236-0.389c0.852,0.112,1.698,0.284,2.491,0.615c0.879,0.367,1.736,0.787,2.588,1.212
	c0.509,0.254,0.987,0.572,1.489,0.84c0.061,0.033,0.203-0.042,0.283-0.101c0.306-0.228,0.58-0.506,0.902-0.701
	c0.592-0.356,1.246-0.385,1.926-0.324c0.627,0.056,1.16,0.283,1.623,0.688c0.471,0.413,0.844,0.913,1.15,1.455
	c0.279,0.496,0.525,1.012,0.787,1.519c0.117,0.228,0.105,0.446,0.012,0.687c-0.253,0.651-0.55,1.288-0.637,1.993
	c-0.035,0.285-0.084,0.538,0.188,0.775c0.197,0.172,0.313,0.446,0.44,0.687c0.172,0.324,0.317,0.663,0.479,0.993
	c0.222,0.447,0.473,0.885,0.379,1.46c0.194-0.094,0.349-0.168,0.5-0.243c0.936-0.467,1.617-0.079,1.545,0.96
	c-0.088,1.268-0.375,2.504-1.102,3.579c-0.488,0.724-1.144,1.276-2.023,1.462c-0.607,0.129-1.205-0.002-1.78-0.22
	c-0.236-0.09-0.466-0.198-0.705-0.278c-0.067-0.021-0.196-0.001-0.237,0.051c-0.563,0.68-1.598,0.674-2.252,0.225
	c-0.188-0.129-0.324-0.365-0.426-0.579c-0.093-0.196-0.164-0.339-0.415-0.298c-0.118,0.019-0.245-0.016-0.429-0.03
	c0.339,0.565,0.707,0.994,1.3,1.158c0.175,0.048,0.28,0.122,0.256,0.308c-0.024,0.197-0.173,0.235-0.339,0.221
	c-0.508-0.049-1.02-0.088-1.482-0.424c0.049,0.317,0.225,0.486,0.473,0.545c0.271,0.062,0.554,0.069,0.83,0.098
	c0.179,0.017,0.397-0.064,0.471,0.195c0.051,0.179-0.089,0.359-0.355,0.444c-0.115,0.036-0.238,0.044-0.359,0.054
	c-0.114,0.008-0.229,0-0.358,0L18.258,24.1z M17.555,21.496c0.262-0.193,0.262-0.166,0.756-0.186
	c0.305-0.014,0.438,0.11,0.541,0.363c0.256,0.639,0.924,0.953,1.592,0.793c0.349-0.083,0.603-0.281,0.83-0.535
	c0.076-0.086,0.137-0.125,0.266-0.063c0.268,0.128,0.552,0.22,0.828,0.33c0.506,0.199,1.037,0.332,1.568,0.238
	c0.77-0.136,1.354-0.609,1.838-1.205c0.463-0.567,0.705-1.24,0.884-1.938c0.159-0.619,0.336-1.235,0.335-1.882
	c-0.001-0.604-0.52-0.933-1.053-0.669c-0.242,0.12-0.479,0.25-0.728,0.358c-0.221,0.094-0.276,0.059-0.259-0.181
	c0.033-0.445-0.09-0.844-0.299-1.228c-0.148-0.273-0.285-0.555-0.414-0.838c-0.196-0.428-0.391-0.853-0.742-1.187
	c-0.07-0.067-0.116-0.207-0.105-0.307c0.03-0.317,0.06-0.641,0.149-0.945c0.156-0.52,0.349-1.031,0.547-1.537
	c0.071-0.181,0.073-0.328-0.004-0.504c-0.343-0.783-0.746-1.532-1.265-2.214c-0.428-0.566-0.916-1.06-1.637-1.234
	c-0.18-0.043-0.365-0.051-0.547-0.083c-0.537-0.095-1.07-0.045-1.539,0.207c-0.39,0.21-0.722,0.527-1.08,0.796
	C17.883,7.949,17.766,8.118,17.561,8c-0.521-0.301-1.028-0.631-1.564-0.904c-0.803-0.408-1.614-0.801-2.442-1.155
	c-0.817-0.349-1.69-0.524-2.567-0.648c-0.357-0.051-0.694-0.026-0.98,0.295c-0.544,0.608-1.132,1.176-1.702,1.76
	C7.913,7.749,7.43,7.825,6.903,7.735c-0.369-0.063-0.719-0.034-0.938,0.31C5.741,8.396,5.531,8.761,5.356,9.139
	C5.22,9.431,5.105,9.746,5.054,10.063c-0.111,0.685,0.139,1.289,0.513,1.851c0.373,0.56,0.867,1.012,1.317,1.504
	c0.3,0.328,0.57,0.697,0.78,1.087c0.241,0.446,0.397,0.938,0.602,1.404c0.029,0.067,0.124,0.138,0.198,0.149
	c0.296,0.044,0.598,0.049,0.893,0.097c0.62,0.102,1.226,0.01,1.827-0.122c0.352-0.077,0.698-0.185,1.11-0.296
	c-0.833,0.916-1.176,1.96-1.246,3.101c-0.053,0.861,0.053,1.717,0.261,2.551c0.226,0.908,0.58,1.766,1.162,2.506
	c0.467,0.596,1.03,1.096,1.663,1.513c0.785,0.52,1.632,0.911,2.54,1.159c0.7,0.193,1.41,0.236,2.111,0.009
	c0.929-0.302,1.854-0.618,2.777-0.931c0.148-0.051,0.293-0.111,0.438-0.168c-0.004-0.019-0.008-0.037-0.013-0.056
	c-0.053-0.005-0.105-0.017-0.157-0.014c-0.244,0.013-0.487,0.036-0.731,0.04c-0.428,0.007-0.856,0.013-1.285-0.002
	c-0.342-0.012-0.685-0.041-1.023-0.092c-0.158-0.024-0.348-0.066-0.379-0.277c0.178-0.049,0.355-0.096,0.531-0.143
	c-0.127-0.08-0.252-0.098-0.371-0.141c-0.122-0.042-0.287-0.077-0.346-0.17c-0.142-0.225-0.231-0.482-0.345-0.732
	c1.132-0.062,1.132-0.062,1.229-0.236c-0.309-0.025-0.623-0.039-0.935-0.079c-0.472-0.062-0.733-0.296-0.831-0.728
	c-0.051-0.226-0.084-0.453-0.125-0.681c0.508,0.625,1.186,0.789,1.939,0.763c-0.777-0.212-1.232-0.773-1.604-1.434H17.555z
	 M16.661,14.086c-0.615,0.145-1.228,0.273-1.831,0.434c-0.566,0.152-1.124,0.33-1.681,0.512c-0.539,0.176-1.067,0.384-1.608,0.556
	c-0.433,0.138-0.868,0.284-1.335,0.255c-0.502-0.03-1.005-0.059-1.508-0.087c-0.138-0.008-0.184-0.093-0.228-0.212
	c-0.16-0.43-0.308-0.868-0.513-1.278c-0.151-0.302-0.364-0.581-0.585-0.84c-0.366-0.427-0.776-0.817-1.139-1.245
	c-0.313-0.369-0.524-0.792-0.648-1.276c-0.194-0.756-0.041-1.423,0.371-2.054c0.082-0.125,0.185-0.237,0.282-0.352
	C6.431,8.272,6.665,8.194,6.965,8.25c0.301,0.056,0.611,0.074,0.917,0.104c0.627,0.061,1.22,0.241,1.796,0.488
	c0.449,0.193,0.892,0.402,1.338,0.602c0.055,0.025,0.115,0.04,0.181,0.038C10.27,8.923,9.361,8.334,8.289,8.008
	C8.48,7.849,8.667,7.732,8.805,7.572c0.376-0.43,0.733-0.877,1.096-1.319c0.232-0.282,0.521-0.451,0.888-0.497
	c0.586-0.074,1.128,0.12,1.668,0.282c0.602,0.181,1.198,0.394,1.772,0.649c0.566,0.252,1.101,0.572,1.651,0.861
	c0.542,0.286,1.088,0.566,1.627,0.859c0.612,0.333,1.244,0.641,1.741,1.149c0.311,0.317,0.525,0.696,0.665,1.117
	c0.248,0.746,0.495,1.492,0.741,2.239c0.047,0.139,0.091,0.278,0.174,0.41c-0.029-0.198-0.059-0.396-0.09-0.608
	c0.22,0.054,0.424,0.106,0.627,0.157c0.01-0.012,0.02-0.024,0.031-0.036c-0.078-0.076-0.142-0.182-0.234-0.223
	c-0.473-0.214-0.598-0.637-0.691-1.087c-0.113-0.544-0.228-1.087-0.357-1.627c-0.03-0.126-0.098-0.264-0.191-0.35
	c-0.523-0.49-1.082-0.939-1.734-1.254c-0.025-0.012-0.056-0.015-0.097-0.027c0.435-0.516,0.915-0.961,1.591-1.106
	c0.375-0.08,0.738,0.028,1.092,0.158c0.119,0.044,0.244,0.095,0.349-0.052c0.022-0.031,0.133-0.036,0.173-0.009
	c0.212,0.141,0.441,0.27,0.615,0.452c0.359,0.381,0.713,0.774,1.021,1.197c0.25,0.342,0.459,0.722,0.635,1.108
	c0.199,0.438,0.098,0.892-0.045,1.331c-0.174,0.533-0.367,1.061-0.517,1.601c-0.047,0.172,0,0.377,0.035,0.561
	c0.045,0.243,0.121,0.481,0.192,0.751c0.069-0.038,0.121-0.067,0.183-0.1c0.09,0.214,0.203,0.431,0.265,0.661
	c0.032,0.124,0.211,0.246,0.055,0.403c-0.004,0.004,0.041,0.066,0.07,0.088c0.254,0.189,0.436,0.422,0.508,0.742
	c0.06,0.259,0.152,0.509,0.227,0.748c-0.328-0.042-0.621-0.078-0.941-0.119c0.028,0.137,0.045,0.226,0.059,0.291
	c0.127,0.064,0.236,0.119,0.347,0.176c0.001,0.023,0.003,0.047,0.004,0.072c-0.1,0.045-0.2,0.092-0.334,0.151
	c0.052,0.039,0.101,0.086,0.157,0.117c0.088,0.047,0.191,0.071,0.268,0.131c0.045,0.036,0.051,0.12,0.045,0.204
	c-0.248-0.221-0.541-0.315-0.824-0.25c-0.285,0.066-0.516,0.275-0.643,0.572c0.223-0.205,0.465-0.354,0.803-0.291
	c-0.223,0.338-0.439,0.668-0.658,0.998c0.017,0.015,0.035,0.031,0.052,0.047c0.142-0.151,0.296-0.293,0.42-0.457
	c0.183-0.238,0.397-0.371,0.72-0.322c0.023,0.497-0.336,0.824-0.552,1.275c0.454-0.316,0.752-0.684,0.924-1.148
	c0.048-0.126,0.089-0.255,0.132-0.383c0.123-0.381,0.248-0.422,0.642-0.428c0.276-0.004,0.551-0.131,0.825-0.207
	c0.131-0.035,0.301-0.144,0.381-0.097c0.103,0.06,0.18,0.241,0.188,0.374c0.038,0.721-0.177,1.398-0.441,2.055
	c-0.26,0.642-0.635,1.213-1.123,1.713c-0.606,0.623-1.334,0.772-2.148,0.596c-0.605-0.133-1.128-0.447-1.592-0.85
	c-0.333-0.287-0.646-0.598-0.984-0.912c-0.078,0.115-0.168,0.232-0.246,0.355c-0.146,0.227-0.287,0.456-0.43,0.684
	c-0.225,0.357-0.146,0.584,0.249,0.732c0.403,0.15,0.802,0.018,1.058-0.346c0.041-0.059,0.111-0.096,0.168-0.143
	c0.027,0.027,0.055,0.056,0.082,0.084c-0.145,0.147-0.268,0.328-0.437,0.438c-0.353,0.23-0.754,0.258-1.095,0.006
	c-0.202-0.15-0.373-0.393-0.467-0.63c-0.182-0.456-0.422-0.853-0.781-1.19c-0.538-0.508-0.581-1.369-0.109-1.961
	c0.1-0.125-0.009-0.17-0.086-0.205c-0.204-0.094-0.416-0.17-0.62-0.264c-0.194-0.09-0.383-0.188-0.569-0.293
	c-0.26-0.148-0.365-0.388-0.373-0.682c-0.013-0.359-0.049-0.72-0.039-1.079c0.014-0.499,0.061-0.993,0.096-1.532L16.661,14.086z
	 M19.078,13.06c0-0.104,0.013-0.15-0.002-0.186c-0.229-0.532-0.48-1.055-0.689-1.594c-0.258-0.665-0.783-0.886-1.428-0.906
	c-0.6-0.018-1.202-0.003-1.803-0.002c-0.05,0-0.1,0.013-0.15,0.019c0.056,0.065,0.114,0.089,0.174,0.097
	c0.63,0.09,1.263,0.168,1.89,0.271c0.195,0.032,0.408,0.081,0.533,0.292c-0.388,0.035-0.74,0.116-1.027,0.335
	c0.408,0.065,0.803,0.12,1.193,0.194c0.099,0.019,0.207,0.076,0.274,0.149c0.218,0.239,0.424,0.489,0.625,0.744
	C18.803,12.646,18.92,12.832,19.078,13.06L19.078,13.06z M22.24,17.096c-0.006-0.009-0.012-0.037-0.026-0.041
	c-0.342-0.132-0.429-0.373-0.317-0.708c0.008-0.022-0.056-0.09-0.096-0.102c-0.367-0.102-0.725-0.058-1.066,0.105
	c-0.152,0.073-0.297,0.163-0.446,0.245c0.009,0.02,0.017,0.038,0.026,0.057c0.103,0.01,0.205,0.018,0.303,0.026
	c0.031,0.126,0.058,0.235,0.084,0.345c0.021,0.004,0.045,0.01,0.066,0.015c-0.067-0.253,0.075-0.302,0.25-0.295
	c0.168,0.005,0.213,0.116,0.185,0.291c-0.16,0.024-0.319,0.048-0.501,0.075c-0.01,0.043-0.025,0.121-0.033,0.16
	c0.527-0.058,1.044-0.113,1.573-0.17L22.24,17.096z M22.396,11.027c0.125-0.935-0.67-2.67-1.274-2.841
	C21.598,9.145,22.198,9.998,22.396,11.027z M24.813,17.572c0.125,0.23,0.273,0.318,0.541,0.311c0.449-0.012,0.824-0.171,1.06-0.593
	C25.914,17.55,25.383,17.634,24.813,17.572z M21.428,14.868c-0.006-0.027-0.012-0.053-0.017-0.08
	c-0.259,0.032-0.519,0.049-0.772,0.099c-0.309,0.06-0.462,0.317-0.4,0.604c0.177-0.13,0.348-0.288,0.547-0.392
	s0.429-0.156,0.645-0.23L21.428,14.868z M20.57,19.843c-0.532-0.239-0.815-0.188-0.957,0.433
	C19.877,20.029,20.143,19.82,20.57,19.843z M12.552,15.786c-0.107,0.093-0.172,0.182-0.127,0.349
	c0.106,0.398,0.161,0.811,0.273,1.206c0.23,0.806,0.669,1.484,1.335,1.999c0.361,0.28,0.742,0.534,1.119,0.792
	c0.613,0.42,1.231,0.834,1.866,1.261c0.061-0.153,0.102-0.257,0.146-0.371c-0.457-0.185-0.744-0.554-1.009-0.92
	c-0.243-0.336-0.416-0.722-0.614-1.088c-0.252-0.466-0.531-0.92-0.74-1.404c-0.334-0.773-0.621-1.567-0.934-2.372
	c-0.316,0.024-1.076,0.339-1.314,0.546L12.552,15.786z M11.336,18.078c-0.183,0.669-0.179,1.275-0.062,1.876
	c0.03,0.155,0.141,0.312,0.255,0.429c0.165,0.168,0.382,0.285,0.55,0.451c0.399,0.395,0.865,0.697,1.357,0.945
	c0.46,0.231,0.95,0.408,1.439,0.572c0.565,0.191,1.143,0.342,1.747,0.52c0.063-0.342,0.121-0.648,0.183-0.975
	C14.452,21.372,12.493,20.333,11.336,18.078L11.336,18.078z M17.044,23.979c-0.022-0.033-0.081-0.047-0.125-0.055
	c-0.447-0.059-0.896-0.104-1.341-0.173c-1.147-0.181-2.218-0.58-3.229-1.147c-0.18-0.1-0.362-0.195-0.589-0.317
	c0.095,0.253,0.161,0.446,0.241,0.636c0.232,0.546,0.552,1.01,1.14,1.227c0.801,0.295,1.588,0.621,2.454,0.703
	c0.656,0.063,1.299,0.004,1.99-0.056c-0.194-0.296-0.364-0.56-0.541-0.819V23.979z M15.119,25.834
	c0.407,0.193,0.811,0.389,1.236,0.505c0.567,0.155,1.144,0.295,1.745,0.159c0.268-0.061,0.389-0.198,0.287-0.446
	c-0.084-0.204-0.229-0.387-0.351-0.584C17.085,25.934,16.094,25.766,15.119,25.834L15.119,25.834z"/>
</svg>
