<?xml version="1.0" encoding="utf-8"?>
<!-- Generator: Adobe Illustrator 16.0.0, SVG Export Plug-In . SVG Version: 6.00 Build 0)  -->
<!DOCTYPE svg PUBLIC "-//W3C//DTD SVG 1.1//EN" "http://www.w3.org/Graphics/SVG/1.1/DTD/svg11.dtd">
<svg version="1.1" id="Layer_1" xmlns="http://www.w3.org/2000/svg" xmlns:xlink="http://www.w3.org/1999/xlink" x="0px" y="0px"
	 width="32px" height="32px" viewBox="0 0 32 32" enable-background="new 0 0 32 32" xml:space="preserve">
<title>ibm-iot</title>
<path fill="#3272A0" d="M8,29.889L0,16L8,2.112h16L32,16l-8,13.889H8z M23.744,29.439L31.488,16L23.744,2.56H8.256L0.512,16
	l7.744,13.439H23.744z M4.288,11.328v0.64h4.544v-0.64H4.288z M9.472,11.328v0.64H16c0,0-0.64-0.64-1.536-0.64H9.472z
	 M17.279,11.328v0.64h3.969l-0.256-0.64H17.279z M24.064,11.328l-0.256,0.64h3.903v-0.64H24.064z M4.288,12.544v0.64h4.544v-0.64
	H4.288z M9.472,12.544v0.64h7.295c0,0-0.063-0.512-0.256-0.64H9.472z M17.279,12.544v0.64h4.353l-0.192-0.64H17.279z M23.552,12.544
	l-0.192,0.64h4.353v-0.64H23.552z M5.568,13.824v0.64h1.984v-0.64H5.568z M10.816,13.824v0.64H12.8v-0.64H10.816z M14.72,13.824
	v0.64h1.984c0,0,0.128-0.32,0.128-0.64H14.72z M18.561,13.824v0.64h3.52l-0.256-0.64H18.561z M23.168,13.824l-0.256,0.64h3.52v-0.64
	H23.168z M5.568,15.04v0.64h1.984v-0.64H5.568z M10.816,15.04v0.64h5.056c0,0,0.448-0.32,0.576-0.64H10.816z M18.561,15.04v0.64
	h1.983v-0.32l0.128,0.384h3.648l0.128-0.384v0.384h1.983v-0.64h-3.711l-0.193,0.576l-0.191-0.576h-3.775V15.04z M5.568,16.32v0.64
	h1.984v-0.64H5.568z M10.816,16.32v0.64h5.632c-0.128-0.319-0.576-0.64-0.576-0.64H10.816z M18.561,16.32v0.64h1.983v-0.64H18.561z
	 M20.928,16.32l0.256,0.64h2.688l0.256-0.64H20.928z M24.448,16.32v0.64h1.983v-0.64H24.448z M5.568,17.536v0.64h1.984v-0.64H5.568z
	 M10.816,17.536v0.64H12.8v-0.64H10.816z M14.72,17.536v0.64h2.112c0-0.32-0.128-0.64-0.128-0.64H14.72z M18.561,17.536v0.64h1.983
	v-0.64H18.561z M21.376,17.536l0.256,0.64h1.792l0.256-0.64H21.376z M24.448,17.536v0.64h1.983v-0.64H24.448z M4.288,18.816v0.64
	h4.544v-0.64H4.288z M9.472,18.816v0.64h7.04c0.129-0.128,0.256-0.64,0.256-0.64H9.472z M17.279,18.816v0.64h3.265v-0.64H17.279z
	 M21.824,18.816l0.256,0.64h0.896l0.191-0.64H21.824z M24.448,18.816v0.64h3.264v-0.64H24.448z M4.288,20.032v0.64h4.544v-0.64
	H4.288z M9.472,20.032v0.64h4.992c0.896,0,1.536-0.64,1.536-0.64H9.472z M17.279,20.032v0.64h3.265v-0.64H17.279z M22.271,20.032
	l0.256,0.64h0.064l0.256-0.64H22.271z M24.448,20.032v0.64h3.264v-0.64H24.448z"/>
</svg>
