<?xml version="1.0" encoding="utf-8"?>
<!-- Generator: Adobe Illustrator 16.0.0, SVG Export Plug-In . SVG Version: 6.00 Build 0)  -->
<!DOCTYPE svg PUBLIC "-//W3C//DTD SVG 1.1//EN" "http://www.w3.org/Graphics/SVG/1.1/DTD/svg11.dtd">
<svg version="1.1" id="Layer_1" xmlns="http://www.w3.org/2000/svg" xmlns:xlink="http://www.w3.org/1999/xlink" x="0px" y="0px"
	 width="32px" height="32px" viewBox="0 0 32 32" enable-background="new 0 0 32 32" xml:space="preserve">
<title>ic</title>
<path fill="#3272A0" d="M3.519,21.311c-0.362-0.455-0.92-0.748-1.546-0.748C0.883,20.563,0,21.445,0,22.535
	c0,1.089,0.883,1.974,1.973,1.974c0.627,0,1.185-0.292,1.546-0.747h2.669v-2.451H3.519L3.519,21.311z"/>
<path fill="#3272A0" d="M3.519,14.774c-0.362-0.455-0.92-0.748-1.546-0.748C0.883,14.026,0,14.909,0,15.999s0.883,1.974,1.973,1.974
	c0.627,0,1.185-0.291,1.546-0.748h2.669v-2.452L3.519,14.774L3.519,14.774z"/>
<path fill="#3272A0" d="M3.519,8.238C3.157,7.783,2.599,7.49,1.973,7.49C0.883,7.49,0,8.373,0,9.463c0,1.09,0.883,1.973,1.973,1.973
	c0.627,0,1.185-0.292,1.546-0.748h2.669V8.237L3.519,8.238L3.519,8.238z"/>
<path fill="#3272A0" d="M28.48,23.764c0.361,0.454,0.92,0.747,1.547,0.747c1.09,0,1.973-0.884,1.973-1.974s-0.884-1.973-1.973-1.973
	c-0.627,0-1.186,0.293-1.547,0.748h-2.67v2.451H28.48L28.48,23.764z"/>
<path fill="#3272A0" d="M28.48,17.225c0.361,0.457,0.92,0.75,1.547,0.75C31.117,17.975,32,17.09,32,16s-0.884-1.973-1.973-1.973
	c-0.627,0-1.186,0.292-1.547,0.748h-2.67v2.452h2.67V17.225z"/>
<path fill="#3272A0" d="M28.48,10.689c0.361,0.455,0.92,0.748,1.547,0.748c1.09,0,1.973-0.884,1.973-1.973
	c0-1.089-0.884-1.973-1.973-1.973c-0.627,0-1.186,0.292-1.547,0.748h-2.67v2.451L28.48,10.689L28.48,10.689z"/>
<path fill="#3272A0" d="M22.438,2.854H9.562c-0.677,0-1.226,0.548-1.226,1.226v23.84c0,0.676,0.548,1.225,1.226,1.225h12.875
	c0.678,0,1.227-0.547,1.227-1.225V4.08C23.664,3.404,23.115,2.854,22.438,2.854z M20.331,7.002c-0.521,0-0.94-0.42-0.94-0.94
	s0.42-0.94,0.94-0.94c0.519,0,0.94,0.421,0.94,0.94S20.85,7.002,20.331,7.002z"/>
</svg>
