<?xml version="1.0" encoding="utf-8"?>
<!-- Generator: Adobe Illustrator 16.0.0, SVG Export Plug-In . SVG Version: 6.00 Build 0)  -->
<!DOCTYPE svg PUBLIC "-//W3C//DTD SVG 1.1//EN" "http://www.w3.org/Graphics/SVG/1.1/DTD/svg11.dtd">
<svg version="1.1" id="Layer_1" xmlns="http://www.w3.org/2000/svg" xmlns:xlink="http://www.w3.org/1999/xlink" x="0px" y="0px"
	 width="32px" height="32px" viewBox="0 0 32 32" enable-background="new 0 0 32 32" xml:space="preserve">
<title>ic_original_transformed</title>
<path fill="#3272A0" d="M23.496,5.095c2.748,0,4.986,2.215,4.986,4.942v2.238c0,0.366-0.301,0.666-0.672,0.666
	c-0.369,0-0.672-0.3-0.672-0.666v-2.238c0-1.988-1.629-3.609-3.638-3.609h-3.09l0.761,0.755c0.264,0.261,0.264,0.683,0,0.944
	c-0.134,0.128-0.302,0.194-0.477,0.194c-0.174,0-0.346-0.067-0.475-0.194l-1.91-1.893c-0.123-0.128-0.195-0.294-0.195-0.472
	c0-0.178,0.066-0.344,0.195-0.472l1.903-1.893c0.263-0.261,0.688-0.261,0.952,0s0.264,0.683,0,0.944l-0.762,0.755L23.496,5.095
	L23.496,5.095z M27.762,16.023H16.73c-0.37,0-0.672,0.3-0.672,0.667v10.943c0,0.366,0.302,0.666,0.672,0.666h11.031
	c0.369,0,0.672-0.3,0.672-0.666V16.689C28.434,16.317,28.132,16.023,27.762,16.023z M27.09,26.967H17.4v-9.611h9.689V26.967z
	 M11.479,23.374l1.909,1.894c0.263,0.26,0.263,0.683,0,0.943l-1.909,1.893c-0.134,0.129-0.302,0.194-0.476,0.194
	s-0.347-0.067-0.476-0.194c-0.263-0.261-0.263-0.683,0-0.943l0.761-0.756h-3.09c-2.748,0-4.982-2.215-4.982-4.941v-2.238
	c0-0.365,0.302-0.666,0.672-0.666c0.37,0,0.672,0.301,0.672,0.666v2.238c0,1.988,1.629,3.609,3.638,3.609h3.09l-0.761-0.756
	c-0.263-0.26-0.263-0.683,0-0.943C10.79,23.111,11.215,23.111,11.479,23.374L11.479,23.374z M3.939,4.534
	c-0.179,0-0.347-0.072-0.476-0.194C3.34,4.218,3.267,4.046,3.267,3.868c0-0.178,0.073-0.35,0.196-0.472S3.76,3.202,3.939,3.202
	s0.353,0.072,0.476,0.194s0.196,0.3,0.196,0.472c0,0.178-0.073,0.35-0.196,0.472S4.118,4.534,3.939,4.534z M9.458,4.534
	c-0.375,0-0.672-0.3-0.672-0.666c0-0.366,0.302-0.666,0.672-0.666c0.369,0,0.672,0.3,0.672,0.666
	C10.13,4.234,9.828,4.534,9.458,4.534z M6.699,4.534c-0.369,0-0.672-0.3-0.672-0.666c0-0.366,0.302-0.666,0.672-0.666
	c0.369,0,0.672,0.3,0.672,0.666C7.371,4.234,7.069,4.534,6.699,4.534z M12.212,4.534c-0.369,0-0.672-0.3-0.672-0.666
	c0-0.366,0.302-0.666,0.672-0.666c0.369,0,0.672,0.3,0.672,0.666C12.884,4.234,12.582,4.534,12.212,4.534z M14.972,3.201
	c0.179,0,0.353,0.072,0.476,0.194c0.123,0.122,0.196,0.294,0.196,0.472c0,0.178-0.073,0.35-0.196,0.472
	c-0.123,0.122-0.297,0.194-0.476,0.194c-0.179,0-0.353-0.072-0.476-0.194S14.3,4.045,14.3,3.867c0-0.178,0.073-0.35,0.196-0.472
	S14.798,3.201,14.972,3.201z M14.972,11.414c0.375,0,0.672,0.294,0.672,0.666c0,0.366-0.302,0.666-0.672,0.666
	c-0.37,0-0.672-0.3-0.672-0.666C14.3,11.714,14.602,11.414,14.972,11.414z M14.972,8.676c0.375,0,0.672,0.294,0.672,0.666
	c0,0.366-0.302,0.666-0.672,0.666c-0.37,0-0.672-0.3-0.672-0.666C14.3,8.976,14.602,8.676,14.972,8.676z M14.972,5.939
	c0.375,0,0.672,0.3,0.672,0.666c0,0.366-0.302,0.666-0.672,0.666c-0.369,0-0.672-0.3-0.672-0.666
	C14.3,6.239,14.602,5.939,14.972,5.939z M14.972,14.146c0.179,0,0.353,0.072,0.476,0.194c0.123,0.122,0.196,0.294,0.196,0.472
	s-0.073,0.35-0.196,0.472c-0.123,0.122-0.297,0.194-0.476,0.194c-0.179,0-0.353-0.072-0.476-0.194s-0.196-0.3-0.196-0.472
	c0-0.178,0.073-0.35,0.196-0.472S14.793,14.146,14.972,14.146z M12.212,15.478c-0.369,0-0.672-0.294-0.672-0.666
	c0-0.366,0.302-0.666,0.672-0.666s0.672,0.3,0.672,0.666S12.582,15.478,12.212,15.478z M9.458,15.478
	c-0.375,0-0.672-0.294-0.672-0.666c0-0.366,0.302-0.666,0.672-0.666s0.672,0.3,0.672,0.666S9.828,15.478,9.458,15.478z
	 M6.699,15.478c-0.369,0-0.672-0.294-0.672-0.666c0-0.366,0.302-0.666,0.672-0.666c0.37,0,0.672,0.3,0.672,0.666
	S7.069,15.478,6.699,15.478z M3.939,15.478c-0.179,0-0.347-0.072-0.476-0.194c-0.123-0.122-0.196-0.3-0.196-0.472
	c0-0.178,0.073-0.35,0.196-0.472s0.297-0.194,0.476-0.194s0.353,0.072,0.476,0.194s0.196,0.294,0.196,0.472s-0.073,0.35-0.196,0.472
	S4.118,15.478,3.939,15.478z M3.939,12.746c-0.369,0-0.672-0.3-0.672-0.666c0-0.366,0.302-0.666,0.672-0.666
	c0.369,0,0.672,0.3,0.672,0.666C4.611,12.446,4.309,12.746,3.939,12.746z M3.939,10.009c-0.369,0-0.672-0.3-0.672-0.666
	c0-0.366,0.302-0.666,0.672-0.666c0.369,0,0.672,0.3,0.672,0.666C4.611,9.709,4.309,10.009,3.939,10.009z M3.939,7.271
	c-0.369,0-0.672-0.3-0.672-0.666c0-0.366,0.302-0.666,0.672-0.666c0.369,0,0.672,0.3,0.672,0.666
	C4.611,6.971,4.309,7.271,3.939,7.271z"/>
</svg>
