<?xml version="1.0" encoding="utf-8"?>
<!-- Generator: Adobe Illustrator 16.0.0, SVG Export Plug-In . SVG Version: 6.00 Build 0)  -->
<!DOCTYPE svg PUBLIC "-//W3C//DTD SVG 1.1//EN" "http://www.w3.org/Graphics/SVG/1.1/DTD/svg11.dtd">
<svg version="1.1" id="Layer_1" xmlns="http://www.w3.org/2000/svg" xmlns:xlink="http://www.w3.org/1999/xlink" x="0px" y="0px"
	 width="32px" height="32px" viewBox="0 0 32 32" enable-background="new 0 0 32 32" xml:space="preserve">
<title>ic_statics</title>
<path fill="#3272A0" d="M25.093,25.746c0.802,0,1.454,0.65,1.454,1.454c0,0.803-0.65,1.454-1.455,1.454H6.909
	c-0.803,0-1.454-0.651-1.454-1.454c0-0.804,0.651-1.454,1.454-1.454H25.093z M5.091,14.836c0-0.602,0.488-1.09,1.091-1.091
	s1.091,0.488,1.091,1.091v3.637c0,0.603-0.489,1.09-1.091,1.09s-1.091-0.488-1.091-1.09V14.836z M8.727,13.382
	c0-0.603,0.489-1.091,1.091-1.091s1.091,0.489,1.091,1.091v5.091c0,0.604-0.489,1.092-1.091,1.092s-1.091-0.489-1.091-1.092V13.382z
	 M12.364,11.927c0-0.603,0.489-1.091,1.091-1.091s1.091,0.489,1.091,1.091v6.546c0,0.603-0.489,1.09-1.091,1.09
	s-1.091-0.488-1.091-1.09V11.927z M30.546,3.2c0.804,0,1.455,0.652,1.454,1.454v16.489l-1.951-1.951
	c0.655-1.16,1.006-2.475,1.006-3.821c0-1.924-0.699-3.735-1.964-5.162v-4.1H2.908v15.276h15.365c1.398,1.16,3.138,1.793,4.975,1.793
	c1.348,0,2.662-0.351,3.822-1.006l2.014,2.015c0.04,0.039,0.088,0.069,0.13,0.107H1.453c-0.803,0-1.455-0.652-1.455-1.455V4.655
	c0-0.803,0.652-1.455,1.455-1.455h29.091H30.546z M28.85,20.05c-0.146-0.146-0.341-0.204-0.529-0.184l-0.307-0.306
	c1.021-1.16,1.586-2.629,1.586-4.188c0-1.695-0.66-3.29-1.858-4.489c-1.2-1.202-2.794-1.861-4.492-1.861
	c-1.694,0-3.289,0.66-4.487,1.861c-1.201,1.199-1.861,2.794-1.861,4.489c0,1.694,0.662,3.291,1.861,4.489
	c1.199,1.201,2.793,1.859,4.487,1.859c1.562,0,3.028-0.563,4.188-1.586l0.307,0.305c-0.02,0.191,0.038,0.384,0.184,0.531
	l2.188,2.188c0.127,0.127,0.293,0.189,0.461,0.189c0.165,0,0.333-0.063,0.461-0.189c0.253-0.256,0.253-0.667,0-0.92l-2.19-2.188
	H28.85z M26.82,18.939c-0.953,0.953-2.223,1.48-3.57,1.48s-2.615-0.525-3.568-1.48c-0.953-0.953-1.479-2.221-1.479-3.568
	c0-1.348,0.525-2.615,1.479-3.568c0.953-0.954,2.223-1.48,3.568-1.48c1.35,0,2.617,0.525,3.57,1.48
	c0.951,0.953,1.477,2.221,1.477,3.568C28.297,16.718,27.771,17.986,26.82,18.939z"/>
</svg>
