<?xml version="1.0" encoding="utf-8"?>
<!-- Generator: Adobe Illustrator 16.0.0, SVG Export Plug-In . SVG Version: 6.00 Build 0)  -->
<!DOCTYPE svg PUBLIC "-//W3C//DTD SVG 1.1//EN" "http://www.w3.org/Graphics/SVG/1.1/DTD/svg11.dtd">
<svg version="1.1" id="Layer_1" xmlns="http://www.w3.org/2000/svg" xmlns:xlink="http://www.w3.org/1999/xlink" x="0px" y="0px"
	 width="32px" height="32px" viewBox="0 0 32 32" enable-background="new 0 0 32 32" xml:space="preserve">
<title>interceptor</title>
<path fill="#64953B" d="M16,31.359c8.471,0,15.359-6.889,15.359-15.359c0-8.47-6.889-15.36-15.359-15.36
	C7.53,0.64,0.64,7.53,0.64,16C0.64,24.471,7.53,31.359,16,31.359z M16,0c8.822,0,16,7.177,16,16s-7.178,16-16,16
	C7.176,32,0,24.822,0,16C0,7.178,7.176,0,16,0z M13.505,27.656H12.78c-0.532,0-0.967-0.436-0.967-0.967V6.702
	c0-0.532,0.435-0.967,0.967-0.967h0.725c0.532,0,0.967,0.435,0.967,0.967v19.987C14.471,27.223,14.037,27.656,13.505,27.656z
	 M11.638,11.63L6.872,8.077C6.314,7.66,5.514,7.73,5.042,8.291h0.022C4.592,8.852,4.673,9.455,5.231,9.872l6.248,4.695
	c0.076,0.056,0.159,0.065,0.159,0.104V11.63L11.638,11.63z M18.402,27.609L18.402,27.609c0.75,0.026,1.365-0.422,1.365-0.998
	l0.008-19.93c0-0.495-0.527-0.92-1.174-0.943l0,0c-0.75-0.028-1.365,0.421-1.365,0.997l-0.008,19.931
	C17.227,27.161,17.756,27.586,18.402,27.609z M19.938,18.749c0,0.039,0.08,0.05,0.152,0.108l5.969,4.906
	c0.532,0.437,0.61,1.041,0.158,1.584h0.02c-0.449,0.543-1.215,0.586-1.748,0.147l-4.551-3.716V18.749L19.938,18.749z"/>
</svg>
