<?xml version="1.0" encoding="utf-8"?>
<!-- Generator: Adobe Illustrator 16.0.0, SVG Export Plug-In . SVG Version: 6.00 Build 0)  -->
<!DOCTYPE svg PUBLIC "-//W3C//DTD SVG 1.1//EN" "http://www.w3.org/Graphics/SVG/1.1/DTD/svg11.dtd">
<svg version="1.1" id="Layer_1" xmlns="http://www.w3.org/2000/svg" xmlns:xlink="http://www.w3.org/1999/xlink" x="0px" y="0px"
	 width="32px" height="32px" viewBox="0 0 32 32" enable-background="new 0 0 32 32" xml:space="preserve">
<title>internal-predictor</title>
<path fill="#3272A0" d="M32,16L16,32L0,16L16,0L32,16z M16,0.64L0.64,16L16,31.359L31.359,16L16,0.64z M17.216,20.288l-0.64-0.576
	v-0.448c1.6-0.063,3.136-0.768,4.352-1.984c2.688-2.751,2.624-7.104-0.128-9.792s-7.104-2.624-9.792,0.128s-2.624,7.104,0.128,9.792
	c1.216,1.216,2.816,1.855,4.416,1.92v0.447l-0.576,0.641l0.064,7.552h2.239L17.216,20.288z M12.608,15.808
	c-1.92-1.856-1.92-4.864-0.064-6.784s4.864-1.92,6.784-0.064s1.92,4.864,0.064,6.784C17.536,17.664,14.528,17.664,12.608,15.808z
	 M13.312,15.744h2.56c0.064,0,0.128-0.064,0.128-0.128v-0.384c0-0.064-0.064-0.128-0.128-0.128h-1.088c-0.064,0-0.32,0-0.768,0
	l1.152-1.28c0.064-0.064,0.064-0.128,0-0.192l-1.088-1.088c0.32,0,0.512,0,0.576,0h1.024c0.064,0,0.128-0.064,0.128-0.128v-0.384
	c0-0.064-0.064-0.128-0.128-0.128h-2.368c-0.064,0-0.128,0.064-0.128,0.128v0.448c0,0.064,0,0.064,0.064,0.064l1.088,1.088
	c0.064,0.064,0.064,0.128,0,0.192l-1.152,1.28l-0.064,0.064v0.448C13.184,15.68,13.248,15.744,13.312,15.744z M18.816,13.696v-0.448
	c0-0.064,0-0.064-0.064-0.064l-1.152-1.28c-0.063-0.064-0.063-0.128,0-0.192l1.088-1.088l0.064-0.064v-0.448
	c0-0.064-0.064-0.128-0.128-0.128h-2.368c-0.064,0-0.128,0.064-0.128,0.128v0.384c0,0.064,0.064,0.128,0.128,0.128h1.023
	c0.064,0,0.32,0,0.576,0l-1.088,1.088c-0.063,0.064-0.063,0.128,0,0.192l1.152,1.28c-0.447,0-0.704,0-0.768,0h-1.088
	c-0.064,0-0.128,0.064-0.128,0.128v0.384c0,0.064,0.064,0.128,0.128,0.128h2.56C18.752,13.824,18.816,13.76,18.816,13.696z"/>
</svg>
