<?xml version="1.0" encoding="utf-8"?>
<!-- Generator: Adobe Illustrator 16.0.0, SVG Export Plug-In . SVG Version: 6.00 Build 0)  -->
<!DOCTYPE svg PUBLIC "-//W3C//DTD SVG 1.1//EN" "http://www.w3.org/Graphics/SVG/1.1/DTD/svg11.dtd">
<svg version="1.1" id="Layer_1" xmlns="http://www.w3.org/2000/svg" xmlns:xlink="http://www.w3.org/1999/xlink" x="0px" y="0px"
	 width="32px" height="32px" viewBox="0 0 32 32" enable-background="new 0 0 32 32" xml:space="preserve">
<title>iot-app-delete</title>
<path fill="#3272A0" d="M23.339,2.745h-6.103V0H8.95v2.745H2.848v4.334h20.491V2.745z M11.146,2.167h3.896v0.578h-3.896V2.167z
	 M21.389,15.48l0.413-6.235H4.383l1.391,20.948h8.355c-1.087-1.521-1.727-3.377-1.727-5.377
	C12.402,19.824,16.39,15.731,21.389,15.48L21.389,15.48z M21.875,17.636c-4.012,0-7.276,3.222-7.276,7.183
	c0,3.959,3.264,7.182,7.276,7.182s7.277-3.223,7.277-7.184C29.152,20.857,25.887,17.636,21.875,17.636z M25.839,27.199l-1.552,1.533
	l-2.413-2.381l-2.412,2.381l-1.553-1.533l2.413-2.381l-2.413-2.381l1.553-1.533l2.412,2.382l2.413-2.382l1.552,1.533l-2.412,2.381
	L25.839,27.199z"/>
</svg>
