<?xml version="1.0" encoding="utf-8"?>
<!-- Generator: Adobe Illustrator 16.0.0, SVG Export Plug-In . SVG Version: 6.00 Build 0)  -->
<!DOCTYPE svg PUBLIC "-//W3C//DTD SVG 1.1//EN" "http://www.w3.org/Graphics/SVG/1.1/DTD/svg11.dtd">
<svg version="1.1" id="Layer_1" xmlns="http://www.w3.org/2000/svg" xmlns:xlink="http://www.w3.org/1999/xlink" x="0px" y="0px"
	 width="32px" height="32px" viewBox="0 0 32 32" enable-background="new 0 0 32 32" xml:space="preserve">
<title>iot-app-controls</title>
<path fill="#3272A0" d="M7.68,0v32h16.908V0H7.68z M14.725,11.826v2.783h-2.818v-2.783H14.725z M11.907,9.043V6.26h2.818v2.783
	H11.907z M16.134,17.391c2.334,0,4.228,1.869,4.228,4.174c0,2.306-1.893,4.175-4.228,4.175c-2.334,0-4.227-1.869-4.227-4.175
	C11.907,19.26,13.799,17.391,16.134,17.391L16.134,17.391z M20.361,11.826v2.783h-2.818v-2.783H20.361z M17.543,9.043V6.26h2.818
	v2.783H17.543z"/>
</svg>
