<?xml version="1.0" encoding="utf-8"?>
<!-- Generator: Adobe Illustrator 16.0.0, SVG Export Plug-In . SVG Version: 6.00 Build 0)  -->
<!DOCTYPE svg PUBLIC "-//W3C//DTD SVG 1.1//EN" "http://www.w3.org/Graphics/SVG/1.1/DTD/svg11.dtd">
<svg version="1.1" id="Layer_1" xmlns="http://www.w3.org/2000/svg" xmlns:xlink="http://www.w3.org/1999/xlink" x="0px" y="0px"
	 width="32px" height="32px" viewBox="0 0 32 32" enable-background="new 0 0 32 32" xml:space="preserve">
<title>iot-app-pc</title>
<path fill="#3272A0" d="M22.938,24.302H8.276c-1.338,0-2.426-1.077-2.426-2.399V9.592c0-1.324,1.088-2.4,2.426-2.4h14.662
	c1.338,0,2.426,1.077,2.426,2.4v12.311C25.363,23.225,24.275,24.302,22.938,24.302L22.938,24.302z M8.276,8.792
	c-0.446,0-0.809,0.359-0.809,0.8v12.311c0,0.44,0.363,0.8,0.809,0.8h14.662c0.446,0,0.81-0.359,0.81-0.8V9.592
	c0-0.441-0.363-0.8-0.81-0.8H8.276z"/>
<path fill="#3272A0" d="M9.567,7.422c-0.447,0-0.809-0.358-0.809-0.8V2.125c0-0.442,0.362-0.8,0.809-0.8
	c0.447,0,0.809,0.358,0.809,0.8v4.497C10.376,7.064,10.014,7.422,9.567,7.422L9.567,7.422z"/>
<path fill="#3272A0" d="M13.593,7.422c-0.447,0-0.809-0.358-0.809-0.8V2.125c0-0.442,0.362-0.8,0.809-0.8
	c0.447,0,0.809,0.358,0.809,0.8v4.497C14.402,7.064,14.04,7.422,13.593,7.422L13.593,7.422z"/>
<path fill="#3272A0" d="M17.62,7.422c-0.447,0-0.81-0.358-0.81-0.8V2.125c0-0.442,0.362-0.8,0.81-0.8c0.446,0,0.81,0.358,0.81,0.8
	v4.497C18.43,7.064,18.066,7.422,17.62,7.422L17.62,7.422z"/>
<path fill="#3272A0" d="M21.646,7.422c-0.447,0-0.81-0.358-0.81-0.8V2.125c0-0.442,0.362-0.8,0.81-0.8
	c0.446,0,0.809,0.358,0.809,0.8v4.497C22.455,7.064,22.093,7.422,21.646,7.422L21.646,7.422z"/>
<path fill="#3272A0" d="M30.38,10.571h-4.546c-0.447,0-0.809-0.358-0.809-0.8s0.361-0.8,0.809-0.8h4.546
	c0.447,0,0.81,0.358,0.81,0.8S30.827,10.571,30.38,10.571L30.38,10.571z"/>
<path fill="#3272A0" d="M30.38,14.555h-4.546c-0.447,0-0.809-0.358-0.809-0.8s0.361-0.8,0.809-0.8h4.546
	c0.447,0,0.81,0.358,0.81,0.8S30.827,14.555,30.38,14.555L30.38,14.555z"/>
<path fill="#3272A0" d="M30.38,18.539h-4.546c-0.447,0-0.809-0.357-0.809-0.8s0.361-0.8,0.809-0.8h4.546
	c0.447,0,0.81,0.357,0.81,0.8S30.827,18.539,30.38,18.539L30.38,18.539z"/>
<path fill="#3272A0" d="M30.38,22.523h-4.546c-0.447,0-0.809-0.358-0.809-0.801c0-0.441,0.361-0.8,0.809-0.8h4.546
	c0.447,0,0.81,0.358,0.81,0.8C31.189,22.165,30.827,22.523,30.38,22.523L30.38,22.523z"/>
<path fill="#3272A0" d="M5.354,10.571H0.808c-0.447,0-0.809-0.358-0.809-0.8s0.362-0.8,0.809-0.8h4.546
	c0.447,0,0.809,0.358,0.809,0.8S5.801,10.571,5.354,10.571L5.354,10.571z"/>
<path fill="#3272A0" d="M5.354,14.555H0.808c-0.447,0-0.809-0.358-0.809-0.8s0.362-0.8,0.809-0.8h4.546
	c0.447,0,0.809,0.358,0.809,0.8S5.801,14.555,5.354,14.555L5.354,14.555z"/>
<path fill="#3272A0" d="M5.354,18.539H0.808c-0.447,0-0.809-0.357-0.809-0.8s0.362-0.8,0.809-0.8h4.546
	c0.447,0,0.809,0.357,0.809,0.8S5.801,18.539,5.354,18.539L5.354,18.539z"/>
<path fill="#3272A0" d="M5.354,22.523H0.808c-0.447,0-0.809-0.358-0.809-0.801c0-0.441,0.362-0.8,0.809-0.8h4.546
	c0.447,0,0.809,0.358,0.809,0.8C6.163,22.165,5.801,22.523,5.354,22.523L5.354,22.523z"/>
<path fill="#3272A0" d="M9.567,30.201c-0.447,0-0.809-0.358-0.809-0.801v-4.496c0-0.442,0.362-0.801,0.809-0.801
	c0.447,0,0.809,0.358,0.809,0.801V29.4C10.376,29.843,10.014,30.201,9.567,30.201L9.567,30.201z"/>
<path fill="#3272A0" d="M13.593,30.201c-0.447,0-0.809-0.358-0.809-0.801v-4.496c0-0.442,0.362-0.801,0.809-0.801
	c0.447,0,0.809,0.358,0.809,0.801V29.4C14.402,29.843,14.04,30.201,13.593,30.201L13.593,30.201z"/>
<path fill="#3272A0" d="M17.62,30.201c-0.447,0-0.81-0.358-0.81-0.801v-4.496c0-0.442,0.362-0.801,0.81-0.801
	c0.446,0,0.81,0.358,0.81,0.801V29.4C18.43,29.843,18.066,30.201,17.62,30.201L17.62,30.201z"/>
<path fill="#3272A0" d="M21.646,30.201c-0.447,0-0.81-0.358-0.81-0.801v-4.496c0-0.442,0.362-0.801,0.81-0.801
	c0.446,0,0.809,0.358,0.809,0.801V29.4C22.455,29.843,22.093,30.201,21.646,30.201L21.646,30.201z"/>
</svg>
