<?xml version="1.0" encoding="utf-8"?>
<!-- Generator: Adobe Illustrator 16.0.0, SVG Export Plug-In . SVG Version: 6.00 Build 0)  -->
<!DOCTYPE svg PUBLIC "-//W3C//DTD SVG 1.1//EN" "http://www.w3.org/Graphics/SVG/1.1/DTD/svg11.dtd">
<svg version="1.1" id="Layer_1" xmlns="http://www.w3.org/2000/svg" xmlns:xlink="http://www.w3.org/1999/xlink" x="0px" y="0px"
	 width="32px" height="32px" viewBox="0 0 32 32" enable-background="new 0 0 32 32" xml:space="preserve">
<title>iot-app-deploy</title>
<path fill="#3272A0" d="M26.714,17.872c7.661-9.594,3.925-16.178,3.737-16.367s-0.188-0.376-0.374-0.376
	c0,0-1.683-1.129-4.671-1.129C22.79,0,18.68,0.752,13.821,4.703c-0.187,0-0.374,0.188-0.747,0.564
	C11.018,3.574,8.402,3.95,5.973,6.396c-5.793,5.832-3.363,9.97-3.177,10.159c0.186,0.189,0.187,0.377,0.374,0.377
	c0,0,1.121,0.563,2.803,0.563c0.187,1.881,1.121,3.573,2.803,5.267c1.682,1.506,3.363,2.635,5.232,2.822
	c-0.187,1.693,0.561,2.634,0.561,2.822c0.187,0.188,0.187,0.376,0.374,0.376s1.121,0.563,2.616,0.563
	c1.683,0,4.299-0.754,7.475-3.574c2.429-2.444,2.803-4.891,1.121-7.148C26.341,18.247,26.527,18.059,26.714,17.872L26.714,17.872
	L26.714,17.872L26.714,17.872z M24.285,19c0.934,0.941,1.869,2.634-0.561,5.079c-2.617,2.634-4.858,3.198-6.166,3.198
	c-0.748,0-1.309,0-1.496-0.188c-0.187-0.378-0.374-1.129,0.187-2.069c0-0.188,0-0.563-0.187-0.752
	c-0.187-0.188-0.561-0.375-0.747-0.375c-1.682,0-3.363-0.941-4.858-2.445c-1.682-1.506-2.429-3.198-2.429-4.891
	c0-0.376-0.187-0.564-0.374-0.752s-0.561-0.188-0.747-0.188c-1.121,0.188-2.055,0-2.429-0.188c-0.374-0.752-0.934-3.574,2.99-7.525
	c1.869-1.881,3.55-2.069,5.045-0.564c0.187,0,0.561,0.188,0.747,0.188c0.374,0,0.561-0.188,1.308-0.752
	c0-0.188,0.187-0.376,0.374-0.376c0-0.188,0.187-0.188,0.187-0.188c4.485-3.762,8.222-4.515,10.464-4.515
	c1.869,0,3.178,0.564,3.551,0.752c0.561,1.129,2.429,6.396-3.737,14.108c-0.187,0-0.187,0.188-0.187,0.188s-0.188,0.188-0.375,0.376
	c-0.748,0.564-1.121,1.316-0.561,1.881l0,0l0,0V19z"/>
<path fill="#3272A0" d="M7.326,24.816c-0.374-0.377-0.934-0.377-1.308,0L1.347,29.52c-0.374,0.375-0.374,0.94,0,1.316
	c0.187,0.188,0.561,0.188,0.747,0.188c0.374,0,0.561-0.189,0.561-0.188l4.671-4.703C7.7,25.757,7.7,25.191,7.326,24.816
	L7.326,24.816L7.326,24.816z"/>
<path fill="#3272A0" d="M1.588,24.311l2.429-2.444c0.374-0.376,0.374-0.941,0-1.317s-0.934-0.376-1.308,0L0.28,22.994
	c-0.374,0.376-0.374,0.941,0,1.316c0.187,0.188,0.561,0.188,0.747,0.188S1.588,24.499,1.588,24.311L1.588,24.311L1.588,24.311z"/>
<path fill="#3272A0" d="M9.109,28.016L6.68,30.46c-0.374,0.376-0.374,0.94,0,1.317c0.187,0.188,0.561,0.188,0.747,0.188
	c0.186,0,0.374,0,0.561-0.188l2.429-2.445c0.374-0.376,0.374-0.941,0-1.316C10.043,27.639,9.483,27.639,9.109,28.016L9.109,28.016
	L9.109,28.016z"/>
<path fill="#3272A0" d="M16.195,8.736c-1.682,1.693-1.682,4.327,0,6.02c0.747,0.941,1.87,1.317,2.991,1.317s2.241-0.564,2.989-1.317
	c0.935-0.752,1.308-1.881,1.308-3.01s-0.561-2.258-1.308-3.01C20.68,7.043,17.877,7.043,16.195,8.736L16.195,8.736L16.195,8.736
	L16.195,8.736z M20.866,13.438c-0.935,0.941-2.429,0.941-3.363,0s-0.935-2.445,0-3.386C17.877,9.488,18.624,9.3,19.186,9.3
	c0.746,0,1.121,0.376,1.682,0.752c0.561,0.376,0.746,1.129,0.746,1.693S21.24,13.062,20.866,13.438L20.866,13.438L20.866,13.438
	L20.866,13.438z"/>
</svg>
