<?xml version="1.0" encoding="utf-8"?>
<!-- Generator: Adobe Illustrator 16.0.0, SVG Export Plug-In . SVG Version: 6.00 Build 0)  -->
<!DOCTYPE svg PUBLIC "-//W3C//DTD SVG 1.1//EN" "http://www.w3.org/Graphics/SVG/1.1/DTD/svg11.dtd">
<svg version="1.1" id="Layer_1" xmlns="http://www.w3.org/2000/svg" xmlns:xlink="http://www.w3.org/1999/xlink" x="0px" y="0px"
	 width="32px" height="32px" viewBox="0 0 32 32" enable-background="new 0 0 32 32" xml:space="preserve">
<title>iot-app-stats</title>
<path fill="#3272A0" d="M2.531,26.746h4.473c0.341,0,0.611-0.278,0.611-0.616V7.998c0-0.344-0.276-0.616-0.611-0.616H2.531
	C2.19,7.382,1.92,7.66,1.92,7.998V26.13C1.92,26.475,2.196,26.746,2.531,26.746L2.531,26.746L2.531,26.746z M3.148,8.614h3.244
	v16.894H3.148V8.614z"/>
<path fill="#3272A0" d="M10.237,26.746h4.473c0.341,0,0.611-0.278,0.611-0.616V13.525c0-0.344-0.276-0.616-0.611-0.616h-4.473
	c-0.341,0-0.611,0.278-0.611,0.616V26.13C9.62,26.475,9.896,26.746,10.237,26.746L10.237,26.746L10.237,26.746z M10.848,14.147
	h3.244v11.367h-3.244V14.147z"/>
<path fill="#3272A0" d="M17.936,26.746h4.474c0.341,0,0.61-0.278,0.61-0.616V3.87c0-0.344-0.275-0.616-0.61-0.616h-4.474
	c-0.34,0-0.61,0.278-0.61,0.616v22.26C17.325,26.475,17.596,26.746,17.936,26.746L17.936,26.746L17.936,26.746z M18.548,4.485h3.244
	v21.029h-3.244V4.485z"/>
<path fill="#3272A0" d="M30.109,10.172h-4.473c-0.342,0-0.611,0.278-0.611,0.616V26.13c0,0.345,0.275,0.616,0.611,0.616h4.473
	c0.341,0,0.611-0.278,0.611-0.616V10.788C30.721,10.45,30.443,10.172,30.109,10.172L30.109,10.172L30.109,10.172z M29.492,25.514
	h-3.244V11.41h3.244V25.514z"/>
<path fill="#3272A0" d="M30.109,28.096H2.532c-0.341,0-0.611,0.278-0.611,0.616s0.276,0.616,0.611,0.616h27.571
	c0.342,0,0.611-0.278,0.611-0.616S30.445,28.096,30.109,28.096L30.109,28.096L30.109,28.096L30.109,28.096z"/>
</svg>
