<?xml version="1.0" encoding="utf-8"?>
<!-- Generator: Adobe Illustrator 16.0.0, SVG Export Plug-In . SVG Version: 6.00 Build 0)  -->
<!DOCTYPE svg PUBLIC "-//W3C//DTD SVG 1.1//EN" "http://www.w3.org/Graphics/SVG/1.1/DTD/svg11.dtd">
<svg version="1.1" id="Layer_1" xmlns="http://www.w3.org/2000/svg" xmlns:xlink="http://www.w3.org/1999/xlink" x="0px" y="0px"
	 width="32px" height="32px" viewBox="0 0 32 32" enable-background="new 0 0 32 32" xml:space="preserve">
<title>iot-app-deploy-circle</title>
<path fill="#3272A0" d="M16.169,31.699c-8.563,0-15.529-6.967-15.529-15.53C0.64,7.606,7.606,0.64,16.169,0.64
	c8.563,0,15.529,6.966,15.529,15.529C31.699,24.732,24.732,31.699,16.169,31.699L16.169,31.699z M16.169,2.414
	c-7.585,0-13.755,6.171-13.755,13.755s6.17,13.754,13.755,13.754c7.584,0,13.754-6.17,13.754-13.754S23.753,2.414,16.169,2.414
	L16.169,2.414z"/>
<path fill="#3272A0" d="M22.084,17.189c4.07-5.098,2.085-8.596,1.984-8.695c-0.1-0.1-0.098-0.2-0.198-0.2c0,0-0.894-0.6-2.481-0.6
	c-1.391,0-3.574,0.4-6.156,2.498c-0.099,0-0.199,0.1-0.397,0.3c-1.092-0.899-2.482-0.7-3.772,0.6
	c-3.077,3.098-1.787,5.297-1.688,5.397c0.099,0.1,0.099,0.2,0.199,0.2c0,0,0.596,0.3,1.489,0.3c0.099,0.999,0.596,1.899,1.489,2.798
	c0.893,0.8,1.787,1.398,2.78,1.499c-0.099,0.899,0.298,1.399,0.298,1.499c0.099,0.1,0.099,0.199,0.199,0.199
	s0.596,0.301,1.391,0.301c0.893,0,2.282-0.401,3.971-1.899c1.289-1.299,1.488-2.598,0.596-3.798c0.1-0.199,0.199-0.3,0.298-0.4l0,0
	L22.084,17.189z M20.495,20.486c-1.39,1.399-2.581,1.699-3.276,1.699c-0.396,0-0.695,0-0.794-0.1c-0.099-0.201-0.199-0.6,0.099-1.1
	c0-0.1,0-0.299-0.099-0.399s-0.298-0.2-0.397-0.2c-0.893,0-1.787-0.5-2.581-1.299c-0.893-0.8-1.29-1.699-1.29-2.598
	c0-0.2-0.099-0.3-0.199-0.4c-0.1-0.1-0.298-0.1-0.397-0.1c-0.596,0.1-1.092,0-1.29-0.1c-0.199-0.4-0.496-1.899,1.588-3.998
	c0.993-0.999,1.886-1.099,2.68-0.3c0.099,0,0.298,0.1,0.397,0.1c0.199,0,0.298-0.1,0.695-0.4c0-0.1,0.099-0.2,0.199-0.2
	c0-0.1,0.099-0.1,0.099-0.1c2.381-1.999,4.368-2.399,5.559-2.399c0.992,0,1.688,0.3,1.886,0.4c0.298,0.6,1.29,3.398-1.985,7.495
	c-0.099,0-0.099,0.1-0.099,0.1l-0.199,0.2c-0.397,0.3-0.596,0.698-0.298,0.999c0.496,0.5,0.993,1.398-0.298,2.697V20.486z"/>
<path fill="#3272A0" d="M11.561,20.688c-0.199-0.201-0.496-0.201-0.695,0l-2.482,2.498c-0.199,0.199-0.199,0.5,0,0.699
	c0.099,0.1,0.298,0.1,0.397,0.1c0.199,0,0.298-0.101,0.298-0.1l2.482-2.498C11.76,21.188,11.76,20.887,11.561,20.688L11.561,20.688z
	"/>
<path fill="#3272A0" d="M8.484,20.688l1.29-1.299c0.199-0.201,0.199-0.5,0-0.701c-0.199-0.199-0.496-0.199-0.695,0l-1.29,1.299
	c-0.199,0.201-0.199,0.5,0,0.701c0.099,0.1,0.298,0.1,0.397,0.1S8.484,20.787,8.484,20.688L8.484,20.688L8.484,20.688z"/>
<path fill="#3272A0" d="M12.852,22.486l-1.29,1.299c-0.199,0.199-0.199,0.5,0,0.699c0.099,0.101,0.298,0.101,0.397,0.101
	s0.199,0,0.298-0.101l1.29-1.299c0.199-0.199,0.199-0.5,0-0.699C13.348,22.286,13.051,22.286,12.852,22.486L12.852,22.486z"/>
<path fill="#3272A0" d="M16.624,12.392c-0.893,0.899-0.893,2.299,0,3.198c0.397,0.5,0.993,0.7,1.588,0.7s1.19-0.3,1.588-0.7
	c0.496-0.4,0.695-0.999,0.695-1.599c0-0.6-0.298-1.199-0.695-1.599C19.006,11.493,17.518,11.493,16.624,12.392L16.624,12.392
	L16.624,12.392z M19.105,14.89c-0.496,0.5-1.289,0.5-1.787,0c-0.496-0.5-0.495-1.299,0-1.799c0.199-0.3,0.597-0.4,0.894-0.4
	c0.397,0,0.597,0.2,0.894,0.4c0.297,0.2,0.396,0.6,0.396,0.899C19.502,14.29,19.303,14.69,19.105,14.89L19.105,14.89L19.105,14.89z"
	/>
</svg>
