<?xml version="1.0" encoding="utf-8"?>
<!-- Generator: Adobe Illustrator 16.0.0, SVG Export Plug-In . SVG Version: 6.00 Build 0)  -->
<!DOCTYPE svg PUBLIC "-//W3C//DTD SVG 1.1//EN" "http://www.w3.org/Graphics/SVG/1.1/DTD/svg11.dtd">
<svg version="1.1" id="Layer_1" xmlns="http://www.w3.org/2000/svg" xmlns:xlink="http://www.w3.org/1999/xlink" x="0px" y="0px"
	 width="32px" height="32px" viewBox="0 0 32 32" enable-background="new 0 0 32 32" xml:space="preserve">
<title>iot-app-magnifying-glass</title>
<path fill="#3272A0" d="M30.436,29.423l-7.307-7.292c1.96-2.249,3.146-5.183,3.146-8.389c0-7.059-5.752-12.794-12.819-12.794
	c-7.073,0-12.82,5.742-12.82,12.794c0,7.052,5.753,12.794,12.82,12.794c3.213,0,6.153-1.185,8.405-3.14l7.307,7.291
	c0.173,0.174,0.407,0.267,0.633,0.267c0.227,0,0.461-0.087,0.633-0.267c0.348-0.346,0.348-0.918,0-1.264l0,0L30.436,29.423z
	 M2.429,13.742c0-6.068,4.947-10.997,11.02-10.997c6.08,0,11.02,4.936,11.02,10.997c0,6.061-4.939,11.004-11.02,11.004
	C7.376,24.746,2.429,19.811,2.429,13.742L2.429,13.742z"/>
</svg>
