<?xml version="1.0" encoding="utf-8"?>
<!-- Generator: Adobe Illustrator 16.0.0, SVG Export Plug-In . SVG Version: 6.00 Build 0)  -->
<!DOCTYPE svg PUBLIC "-//W3C//DTD SVG 1.1//EN" "http://www.w3.org/Graphics/SVG/1.1/DTD/svg11.dtd">
<svg version="1.1" id="Layer_1" xmlns="http://www.w3.org/2000/svg" xmlns:xlink="http://www.w3.org/1999/xlink" x="0px" y="0px"
	 width="32px" height="32px" viewBox="0 0 32 32" enable-background="new 0 0 32 32" xml:space="preserve">
<title>iot-app-details</title>
<path fill="#3272A0" d="M12.864,16.32c0,0.884-0.745,1.6-1.664,1.6s-1.664-0.716-1.664-1.6c0-0.884,0.745-1.6,1.664-1.6
	S12.864,15.436,12.864,16.32z"/>
<path fill="#3272A0" d="M17.792,16.32c0,0.884-0.745,1.6-1.664,1.6s-1.664-0.716-1.664-1.6c0-0.884,0.745-1.6,1.664-1.6
	S17.792,15.436,17.792,16.32z"/>
<path fill="#3272A0" d="M4.8,16.32l5.44-5.376c0.128-0.128,0.128-0.384,0-0.576c-0.128-0.128-0.448-0.128-0.576,0l-5.76,5.696
	c-0.128,0.128-0.128,0.384,0,0.577l5.76,5.695c0.064,0.064,0.192,0.128,0.32,0.128s0.192-0.063,0.32-0.128
	c0.128-0.128,0.128-0.384,0-0.576L4.8,16.32z"/>
<path fill="#3272A0" d="M22.721,16.32c0,0.884-0.746,1.6-1.664,1.6c-0.92,0-1.664-0.716-1.664-1.6c0-0.884,0.744-1.6,1.664-1.6
	C21.975,14.72,22.721,15.436,22.721,16.32z"/>
<path fill="#3272A0" d="M28.288,16.064l-5.761-5.696c-0.127-0.128-0.447-0.128-0.575,0s-0.128,0.384,0,0.576l5.44,5.376l-5.44,5.375
	c-0.128,0.129-0.128,0.385,0,0.576c0.063,0.064,0.192,0.129,0.319,0.129c0.129,0,0.192-0.064,0.32-0.129l5.76-5.695
	C28.416,16.448,28.416,16.192,28.288,16.064z"/>
<path fill="#3272A0" d="M16,0.96c-8.512,0-15.36,6.848-15.36,15.36c0,8.512,6.848,15.36,15.36,15.36
	c8.512,0,15.359-6.848,15.359-15.36C31.359,7.808,24.512,0.96,16,0.96z M16,30.4c-7.808,0-14.08-6.272-14.08-14.081
	C1.92,8.512,8.192,2.24,16,2.24c7.809,0,14.08,6.272,14.08,14.08C30.08,24.128,23.809,30.4,16,30.4z"/>
</svg>
