<?xml version="1.0" encoding="utf-8"?>
<!-- Generator: Adobe Illustrator 16.0.0, SVG Export Plug-In . SVG Version: 6.00 Build 0)  -->
<!DOCTYPE svg PUBLIC "-//W3C//DTD SVG 1.1//EN" "http://www.w3.org/Graphics/SVG/1.1/DTD/svg11.dtd">
<svg version="1.1" id="Layer_1" xmlns="http://www.w3.org/2000/svg" xmlns:xlink="http://www.w3.org/1999/xlink" x="0px" y="0px"
	 width="32px" height="32px" viewBox="0 0 32 32" enable-background="new 0 0 32 32" xml:space="preserve">
<title>iot-app-hub</title>
<path fill="#3272A0" d="M25.165,7.723c1.045,0,1.915,0.709,2.179,1.672h4.655V6.449L23.852,0H0v5.652h12.309v3.775
	c0.844,0.311,1.45,1.115,1.45,2.066c0,1.22-0.989,2.21-2.21,2.21c-1.22,0-2.209-0.99-2.209-2.21c0-1.012,0.686-1.856,1.615-2.118
	V6.926H0v2.456h5.726l0.007,1.811c0.95,0.222,1.659,1.07,1.659,2.088c0,1.188-0.963,2.152-2.151,2.152s-2.152-0.963-2.152-2.152
	c0-0.928,0.593-1.714,1.419-2.012V10.47h-4.509v10.426h14.514l1.796-2.117c-0.192-0.326-0.31-0.701-0.31-1.109
	c0-1.22,0.987-2.209,2.209-2.209c1.22,0,2.209,0.988,2.209,2.209s-0.989,2.209-2.209,2.209c-0.334,0-0.647-0.079-0.929-0.21
	l-2.215,2.608l-0.079-0.069H-0.001V32h32v-5.673H27.54c-0.261,0.928-1.106,1.612-2.117,1.612c-1.22,0-2.208-0.989-2.208-2.209
	c0-1.221,0.988-2.211,2.208-2.211c1.056,0,1.937,0.742,2.154,1.733h4.422V10.666h-4.683c-0.289,0.921-1.137,1.592-2.153,1.592
	c-1.252,0-2.269-1.016-2.269-2.269c0-1.253,1.017-2.267,2.269-2.267l0,0L25.165,7.723z"/>
</svg>
