<?xml version="1.0" encoding="utf-8"?>
<!-- Generator: Adobe Illustrator 16.0.0, SVG Export Plug-In . SVG Version: 6.00 Build 0)  -->
<!DOCTYPE svg PUBLIC "-//W3C//DTD SVG 1.1//EN" "http://www.w3.org/Graphics/SVG/1.1/DTD/svg11.dtd">
<svg version="1.1" id="Layer_1" xmlns="http://www.w3.org/2000/svg" xmlns:xlink="http://www.w3.org/1999/xlink" x="0px" y="0px"
	 width="32px" height="32px" viewBox="0 0 32 32" enable-background="new 0 0 32 32" xml:space="preserve">
<title>iot-app-arduino</title>
<path fill="#3272A0" d="M7.808,14.336v1.792h1.728v0.513H7.808v1.791H7.296v-1.791H5.568v-0.449h1.728V14.4h0.512V14.336z
	 M26.111,15.616v0.768h-3.008v-0.768H26.111z M7.04,9.216C3.136,9.216,0,12.224,0,16c0,3.775,3.136,6.784,7.04,6.784
	c4.736,0.256,6.784-3.328,8.96-6.912C13.952,12.544,11.776,9.216,7.04,9.216z M7.552,21.695c-3.648,0-6.592-2.56-6.592-5.695
	s2.944-5.696,6.592-5.696c3.648,0,6.528,2.56,6.528,5.696S11.136,21.695,7.552,21.695z M24.96,9.216
	c-4.672,0-6.912,3.328-8.96,6.656c2.176,3.521,4.225,7.168,8.96,6.912c3.903,0,7.04-3.009,7.04-6.784
	C32,12.224,28.863,9.216,24.96,9.216z M24.576,21.695c-3.648,0-6.592-2.56-6.592-5.695s2.943-5.696,6.592-5.696
	s6.592,2.56,6.592,5.696S28.225,21.695,24.576,21.695z"/>
</svg>
