<?xml version="1.0" encoding="utf-8"?>
<!-- Generator: Adobe Illustrator 16.0.0, SVG Export Plug-In . SVG Version: 6.00 Build 0)  -->
<!DOCTYPE svg PUBLIC "-//W3C//DTD SVG 1.1//EN" "http://www.w3.org/Graphics/SVG/1.1/DTD/svg11.dtd">
<svg version="1.1" id="Layer_1" xmlns="http://www.w3.org/2000/svg" xmlns:xlink="http://www.w3.org/1999/xlink" x="0px" y="0px"
	 width="32px" height="32px" viewBox="0 0 32 32" enable-background="new 0 0 32 32" xml:space="preserve">
<title>iot-app-storage</title>
<path fill="#3272A0" d="M31.622,4.384c0.297,0.344,0.429,0.795,0.358,1.226l-2.808,17.38V11.722c0-1.974-1.606-3.58-3.582-3.58
	h-14.64l-0.325-0.991c-0.484-1.474-1.852-2.464-3.404-2.464H5.12c0.205-0.508,0.696-0.849,1.275-0.849h24.059
	c0.442,0,0.872,0.2,1.169,0.544L31.622,4.384z M25.591,10.265c0.806,0,1.459,0.653,1.459,1.458V26.35
	c0,0.805-0.653,1.459-1.459,1.459H1.459C0.653,27.809,0,27.154,0,26.35V8.268C0,7.463,0.653,6.81,1.459,6.81h5.763
	c0.631,0,1.19,0.405,1.386,1.004l0.805,2.451H25.591z"/>
</svg>
