<?xml version="1.0" encoding="utf-8"?>
<!-- Generator: Adobe Illustrator 16.0.0, SVG Export Plug-In . SVG Version: 6.00 Build 0)  -->
<!DOCTYPE svg PUBLIC "-//W3C//DTD SVG 1.1//EN" "http://www.w3.org/Graphics/SVG/1.1/DTD/svg11.dtd">
<svg version="1.1" id="Layer_1" xmlns="http://www.w3.org/2000/svg" xmlns:xlink="http://www.w3.org/1999/xlink" x="0px" y="0px"
	 width="32px" height="32px" viewBox="0 0 32 32" enable-background="new 0 0 32 32" xml:space="preserve">
<title>iot-app-processor</title>
<path fill="#3272A0" d="M2.406,23.244h27.187c0.388,0,0.757-0.152,1.031-0.42c0.272-0.27,0.426-0.635,0.426-1.014V2.712
	c0-0.791-0.651-1.433-1.457-1.433H2.405c-0.386,0-0.757,0.152-1.03,0.42C1.102,1.967,0.949,2.332,0.949,2.712v19.099
	c0,0.396,0.162,0.754,0.426,1.013s0.628,0.42,1.03,0.42l0,0L2.406,23.244z M3.863,4.146h24.276V20.38H3.863V4.146z M30.533,26.756
	H20.08v-0.631c0-0.598-0.492-1.082-1.1-1.082h-5.959c-0.608,0-1.1,0.484-1.1,1.082v0.631H1.468c-0.81,0-1.467,0.646-1.467,1.442
	s0.657,1.442,1.467,1.442h10.453v0.631c0,0.598,0.492,1.082,1.1,1.082h5.959c0.607,0,1.1-0.483,1.1-1.082v-0.631h10.454
	c0.81,0,1.467-0.646,1.467-1.442C32.001,27.4,31.344,26.756,30.533,26.756L30.533,26.756L30.533,26.756z M17.879,29.191H14.12
	v-1.985h3.759V29.191z M4.977,11.44h22.044V5.872H4.977V11.44z M6.147,7.022h19.707v3.268H6.147V7.022z M4.977,18.652h22.044v-5.567
	H4.977V18.652z M6.147,14.235h19.707v3.268H6.147V14.235z M7.06,7.934v1.442h1.467V7.934H7.06z M9.26,7.934v1.442h1.467V7.934H9.26z
	 M11.461,7.934v1.442h1.467V7.934H11.461z M7.06,15.147v1.442h1.467v-1.442H7.06z M9.26,15.147v1.442h1.467v-1.442H9.26z
	 M11.461,15.147v1.442h1.467v-1.442H11.461z"/>
</svg>
