<?xml version="1.0" encoding="utf-8"?>
<!-- Generator: Adobe Illustrator 16.0.0, SVG Export Plug-In . SVG Version: 6.00 Build 0)  -->
<!DOCTYPE svg PUBLIC "-//W3C//DTD SVG 1.1//EN" "http://www.w3.org/Graphics/SVG/1.1/DTD/svg11.dtd">
<svg version="1.1" id="Layer_1" xmlns="http://www.w3.org/2000/svg" xmlns:xlink="http://www.w3.org/1999/xlink" x="0px" y="0px"
	 width="32px" height="32px" viewBox="0 0 32 32" enable-background="new 0 0 32 32" xml:space="preserve">
<title>iot-setting</title>
<path fill="#3272A0" d="M31.9,14.294c-0.049-0.432-0.574-0.756-1.027-0.756c-1.466,0-2.768-0.827-3.313-2.105
	c-0.558-1.309-0.199-2.836,0.893-3.798c0.344-0.302,0.387-0.807,0.097-1.158c-0.75-0.915-1.604-1.741-2.534-2.458
	C25.65,3.738,25.116,3.777,24.8,4.113c-0.954,1.014-2.667,1.391-3.989,0.861c-1.377-0.556-2.246-1.896-2.162-3.335
	c0.028-0.452-0.315-0.845-0.785-0.897c-1.195-0.132-2.4-0.137-3.599-0.009c-0.464,0.049-0.808,0.433-0.792,0.879
	c0.052,1.425-0.827,2.741-2.191,3.277C9.973,5.402,8.272,5.028,7.32,4.023C7.006,3.691,6.479,3.651,6.112,3.926
	c-0.959,0.723-1.83,1.55-2.588,2.458C3.229,6.737,3.272,7.248,3.619,7.551c1.114,0.968,1.473,2.508,0.895,3.832
	c-0.552,1.263-1.918,2.077-3.482,2.077c-0.507-0.016-0.868,0.311-0.924,0.754c-0.141,1.154-0.143,2.331-0.007,3.493
	c0.05,0.434,0.591,0.756,1.049,0.756c1.393-0.035,2.731,0.793,3.292,2.104c0.559,1.31,0.2,2.836-0.895,3.799
	c-0.342,0.303-0.386,0.807-0.097,1.158c0.744,0.908,1.597,1.735,2.531,2.459c0.367,0.283,0.9,0.244,1.218-0.092
	c0.957-1.018,2.67-1.394,3.988-0.863c1.381,0.555,2.25,1.895,2.164,3.334c-0.028,0.451,0.318,0.846,0.785,0.897
	c0.611,0.068,1.227,0.103,1.843,0.103c0.585,0,1.171-0.031,1.757-0.094c0.464-0.05,0.808-0.433,0.791-0.879
	c-0.053-1.426,0.828-2.74,2.189-3.275c1.316-0.518,3.01-0.139,3.963,0.865c0.315,0.33,0.838,0.369,1.207,0.097
	c0.957-0.722,1.827-1.548,2.59-2.457c0.295-0.353,0.252-0.865-0.097-1.167c-1.114-0.969-1.476-2.508-0.896-3.831
	c0.545-1.246,1.858-2.083,3.273-2.083l0.198,0.005c0.459,0.036,0.881-0.304,0.937-0.753c0.141-1.155,0.142-2.33,0.006-3.494l0,0
	L31.9,14.294z M16.026,21.156c-2.943,0-5.337-2.299-5.337-5.123c0-2.825,2.394-5.123,5.337-5.123s5.337,2.298,5.337,5.123
	C21.363,18.857,18.969,21.156,16.026,21.156L16.026,21.156z"/>
</svg>
