<?xml version="1.0" encoding="utf-8"?>
<!-- Generator: Adobe Illustrator 16.0.0, SVG Export Plug-In . SVG Version: 6.00 Build 0)  -->
<!DOCTYPE svg PUBLIC "-//W3C//DTD SVG 1.1//EN" "http://www.w3.org/Graphics/SVG/1.1/DTD/svg11.dtd">
<svg version="1.1" id="Layer_1" xmlns="http://www.w3.org/2000/svg" xmlns:xlink="http://www.w3.org/1999/xlink" x="0px" y="0px"
	 width="32px" height="32px" viewBox="0 0 32 32" enable-background="new 0 0 32 32" xml:space="preserve">
<title>iot-app-monitoring</title>
<path fill="#3272A0" d="M7.559,13.731l5.97,5.97c-0.311,0.468-0.492,1.029-0.492,1.633c0,1.634,1.329,2.963,2.963,2.963
	s2.963-1.329,2.963-2.963c0-0.604-0.181-1.165-0.492-1.633l8.196-8.196v3.903c0,0.328,0.265,0.593,0.593,0.593
	s0.594-0.265,0.594-0.593V9.482h-5.927c-0.327,0-0.593,0.265-0.593,0.593c0,0.328,0.266,0.593,0.593,0.593h3.903l-8.196,8.196
	c-0.469-0.312-1.03-0.492-1.633-0.492c-0.603,0-1.165,0.181-1.633,0.492l-5.97-5.97c0.311-0.469,0.492-1.03,0.492-1.633
	c0-1.634-1.329-2.963-2.963-2.963c-1.634,0-2.963,1.329-2.963,2.963c0,0.604,0.181,1.165,0.492,1.633l-3.455,3.455v1.676
	l4.293-4.293c0.469,0.311,1.03,0.492,1.633,0.492C6.53,14.224,7.092,14.043,7.559,13.731L7.559,13.731z M27.576,32H4.425
	c-2.443,0-4.424-1.98-4.424-4.424V4.425c0-2.443,1.981-4.424,4.424-4.424h23.151c2.443,0,4.425,1.981,4.425,4.424v23.151
	C32.001,30.02,30.02,32.001,27.576,32L27.576,32z"/>
</svg>
