<?xml version="1.0" encoding="utf-8"?>
<!-- Generator: Adobe Illustrator 16.0.0, SVG Export Plug-In . SVG Version: 6.00 Build 0)  -->
<!DOCTYPE svg PUBLIC "-//W3C//DTD SVG 1.1//EN" "http://www.w3.org/Graphics/SVG/1.1/DTD/svg11.dtd">
<svg version="1.1" id="Layer_1" xmlns="http://www.w3.org/2000/svg" xmlns:xlink="http://www.w3.org/1999/xlink" x="0px" y="0px"
	 width="26px" height="32px" viewBox="0 0 26 32" enable-background="new 0 0 26 32" xml:space="preserve">
<title>iot-app-delet</title>
<path fill="#3272A0" d="M22.887,3.764h-4.23V0.99c0-0.558-0.446-0.991-0.999-0.991c-0.054,0-0.089,0.018-0.107,0.036
	c-0.018-0.018-0.054-0.036-0.071-0.036H7.394c-0.553,0-0.982,0.432-0.982,0.991v2.774H2.164c-1.214,0-2.16,0.954-2.16,2.179v3.566
	h1.874v20.298c0,1.226,0.928,2.161,2.142,2.161h17.009c1.214,0,2.16-0.936,2.16-2.161V9.509h1.855V5.943
	c0-1.225-0.945-2.179-2.16-2.179l0,0l0,0H22.887z M8.376,1.981h8.299v1.783H8.376V1.981z M21.208,29.809
	c0,0.125-0.054,0.18-0.179,0.18H4.02c-0.125,0-0.179-0.055-0.179-0.18V9.51h17.366L21.208,29.809L21.208,29.809z M23.064,7.529
	H1.987V5.944c0-0.126,0.054-0.198,0.179-0.198h20.721c0.125,0,0.18,0.072,0.18,0.198v1.585H23.064z"/>
<path fill="#3272A0" d="M16.122,11.834h1.981v16.391h-1.981V11.834L16.122,11.834z"/>
<path fill="#3272A0" d="M11.553,11.834h1.981v16.391h-1.981V11.834z"/>
<path fill="#3272A0" d="M6.984,11.834h1.981v16.391H6.984V11.834z"/>
</svg>
