<?xml version="1.0" encoding="utf-8"?>
<!-- Generator: Adobe Illustrator 16.0.0, SVG Export Plug-In . SVG Version: 6.00 Build 0)  -->
<!DOCTYPE svg PUBLIC "-//W3C//DTD SVG 1.1//EN" "http://www.w3.org/Graphics/SVG/1.1/DTD/svg11.dtd">
<svg version="1.1" id="Layer_1" xmlns="http://www.w3.org/2000/svg" xmlns:xlink="http://www.w3.org/1999/xlink" x="0px" y="0px"
	 width="32px" height="32px" viewBox="0 0 32 32" enable-background="new 0 0 32 32" xml:space="preserve">
<title>iot-app-pc-circle</title>
<path fill="#3272A0" d="M24.448,12.736c0.256,0,0.512-0.192,0.512-0.512c0-0.32-0.256-0.512-0.512-0.512H22.08
	c-0.191-0.64-0.768-1.088-1.473-1.088h-0.319V8.256c0-0.256-0.256-0.512-0.513-0.512c-0.256,0-0.512,0.192-0.512,0.512v2.368h-1.535
	V8.256c0-0.256-0.256-0.512-0.513-0.512c-0.256,0-0.512,0.192-0.512,0.512v2.368h-1.536V8.256c0-0.256-0.256-0.512-0.512-0.512
	c-0.256,0-0.512,0.192-0.512,0.512v2.368h-1.536V8.256c0-0.256-0.256-0.512-0.512-0.512c-0.256,0-0.512,0.192-0.512,0.512v2.368
	h-0.32c-0.704,0-1.28,0.448-1.472,1.088H7.36c-0.256,0-0.512,0.192-0.512,0.512c0,0.32,0.256,0.512,0.512,0.512h2.368v1.472H7.36
	c-0.256,0-0.512,0.192-0.512,0.512c0,0.256,0.256,0.512,0.512,0.512h2.368v1.472H7.36c-0.256,0-0.512,0.192-0.512,0.512
	c0,0.32,0.256,0.513,0.512,0.513h2.368V19.2H7.36c-0.256,0-0.512,0.192-0.512,0.512c0,0.32,0.256,0.513,0.512,0.513h2.432
	c0.192,0.639,0.768,1.088,1.472,1.088h0.32v2.367c0,0.256,0.256,0.512,0.512,0.512c0.256,0,0.512-0.191,0.512-0.512v-2.367h1.536
	v2.367c0,0.256,0.256,0.512,0.512,0.512c0.256,0,0.512-0.191,0.512-0.512v-2.367h1.536v2.367c0,0.256,0.256,0.512,0.512,0.512
	c0.257,0,0.513-0.191,0.513-0.512v-2.367h1.535v2.367c0,0.256,0.256,0.512,0.512,0.512c0.257,0,0.513-0.191,0.513-0.512v-2.367
	h0.319c0.705,0,1.281-0.449,1.473-1.088h2.368c0.256,0,0.512-0.192,0.512-0.513c0-0.319-0.256-0.512-0.512-0.512h-2.304v-1.472
	h2.304c0.256,0,0.512-0.192,0.512-0.513c0-0.319-0.256-0.512-0.512-0.512h-2.304v-1.472h2.304c0.256,0,0.512-0.192,0.512-0.512
	c0-0.256-0.256-0.512-0.512-0.512h-2.304v-1.472H24.448z M21.12,19.84c0,0.256-0.257,0.512-0.513,0.512h-9.151
	c-0.256,0-0.512-0.256-0.512-0.512v-7.68c0-0.256,0.256-0.512,0.512-0.512h9.151c0.256,0,0.513,0.256,0.513,0.512V19.84z"/>
<path fill="#3272A0" d="M16,0.64C7.488,0.64,0.64,7.488,0.64,16c0,8.512,6.848,15.359,15.36,15.359
	c8.512,0,15.359-6.848,15.359-15.359C31.359,7.488,24.512,0.64,16,0.64z M16,30.08C8.192,30.08,1.92,23.809,1.92,16
	C1.92,8.192,8.192,1.92,16,1.92c7.809,0,14.08,6.272,14.08,14.08C30.08,23.809,23.809,30.08,16,30.08z"/>
</svg>
