<?xml version="1.0" encoding="utf-8"?>
<!-- Generator: Adobe Illustrator 16.0.0, SVG Export Plug-In . SVG Version: 6.00 Build 0)  -->
<!DOCTYPE svg PUBLIC "-//W3C//DTD SVG 1.1//EN" "http://www.w3.org/Graphics/SVG/1.1/DTD/svg11.dtd">
<svg version="1.1" id="Layer_1" xmlns="http://www.w3.org/2000/svg" xmlns:xlink="http://www.w3.org/1999/xlink" x="0px" y="0px"
	 width="32px" height="32px" viewBox="0 0 32 32" enable-background="new 0 0 32 32" xml:space="preserve">
<title>iot-sensors</title>
<path fill="#3272A0" d="M16,0C7.133,0,0,7.133,0,16s7.133,16,16,16s16-7.133,16-16S24.867,0,16,0z M16,30.667
	C7.867,30.667,1.333,24.134,1.333,16S7.867,1.333,16,1.333c8.134,0,14.667,6.533,14.667,14.667S24.134,30.667,16,30.667z
	 M27.133,14.867c-0.467,0-0.867,0.267-1,0.667h-8v-0.933h3.533c0.133,0,0.2-0.067,0.268-0.133l0.799-0.8
	c0.133,0.067,0.332,0.133,0.467,0.133c0.6,0,1.066-0.467,1.066-1.067s-0.467-1.067-1.066-1.067s-1.066,0.467-1.066,1.067
	c0,0.133,0,0.267,0.067,0.333L21.467,13.8h-3.4v-1.133l0.733-0.733c0.134,0.067,0.267,0.067,0.468,0.067
	c0.6,0,1.065-0.467,1.065-1.067s-0.467-1.067-1.065-1.067c-0.601,0-1.067,0.467-1.067,1.067c0,0.134,0,0.267,0.067,0.4L17.4,12.201
	c-0.067,0.067-0.133,0.2-0.133,0.267v1.267h-0.935V5.869C16.732,5.736,17,5.336,17,4.869c0-0.6-0.467-1.067-1.067-1.067
	s-1.067,0.467-1.067,1.067c0,0.467,0.267,0.867,0.667,1v7.933H14.6v-3.467c0-0.133-0.067-0.2-0.133-0.267l-0.8-0.8
	C13.734,9.135,13.8,8.935,13.8,8.801c0-0.6-0.467-1.067-1.067-1.067s-1.067,0.467-1.067,1.067c0,0.6,0.467,1.067,1.067,1.067
	c0.133,0,0.267,0,0.333-0.067l0.733,0.733v3.267h-3.267l-0.733-0.733c0.067-0.134,0.067-0.2,0.067-0.333
	c0-0.6-0.467-1.067-1.067-1.067c-0.6,0-1.067,0.467-1.067,1.067s0.467,1.067,1.067,1.067c0.2,0,0.333-0.067,0.467-0.133l0.8,0.8
	c0.067,0.067,0.2,0.133,0.267,0.133H13.8v0.933H5.868c-0.133-0.4-0.533-0.667-1-0.667c-0.6,0-1.067,0.467-1.067,1.067
	s0.467,1.067,1.067,1.067c0.467,0,0.867-0.268,1-0.667h7.933v0.935h-1.267c-0.133,0-0.2,0.066-0.267,0.133l-0.933,0.867
	c-0.133-0.067-0.267-0.067-0.4-0.067c-0.6,0-1.067,0.467-1.067,1.067c0,0.6,0.467,1.065,1.067,1.065s1.067-0.467,1.067-1.065
	c0-0.134-0.067-0.334-0.067-0.468l0.733-0.733H13.8v3.4l-0.733,0.733c-0.134-0.067-0.2-0.067-0.333-0.067
	c-0.6,0-1.067,0.467-1.067,1.066c0,0.599,0.467,1.066,1.067,1.066s1.067-0.467,1.067-1.066c0-0.2-0.067-0.333-0.133-0.467l0.8-0.799
	c0.067-0.067,0.133-0.201,0.133-0.268v-3.533h0.933v8c-0.4,0.133-0.667,0.533-0.667,1c0,0.6,0.467,1.066,1.067,1.066
	s1.067-0.467,1.067-1.066c0-0.467-0.267-0.867-0.667-1v-8h0.934v1.4c0,0.134,0.067,0.199,0.133,0.267l0.867,0.867
	c-0.066,0.133-0.066,0.267-0.066,0.399c0,0.6,0.467,1.067,1.066,1.067c0.601,0,1.066-0.467,1.066-1.067s-0.467-1.066-1.066-1.066
	c-0.133,0-0.332,0.066-0.467,0.066l-0.666-0.732v-1.199h1.199l0.732,0.733C20,19.004,20,19.139,20,19.271
	c0,0.6,0.467,1.065,1.066,1.065c0.599,0,1.067-0.467,1.067-1.065c0-0.601-0.467-1.067-1.067-1.067c-0.133,0-0.267,0-0.399,0.067
	L19.8,17.404c-0.067-0.067-0.2-0.133-0.267-0.133h-1.4v-0.935h8c0.133,0.399,0.533,0.667,1,0.667c0.6,0,1.066-0.467,1.066-1.067
	c-0.001-0.601-0.469-1.068-1.068-1.068l0,0L27.133,14.867z M23.2,12.467c0.133,0,0.267,0.133,0.267,0.267
	c0,0.134-0.134,0.267-0.267,0.267c-0.134,0-0.267-0.133-0.267-0.267C22.934,12.534,23.066,12.467,23.2,12.467z M19.268,10.667
	c0.133,0,0.266,0.133,0.266,0.267c0,0.134-0.133,0.267-0.266,0.267c-0.134,0-0.268-0.133-0.268-0.267
	C19.001,10.8,19.134,10.667,19.268,10.667z M15.933,4.6c0.134,0,0.267,0.133,0.267,0.267c0,0.134-0.133,0.267-0.267,0.267
	c-0.133,0-0.267-0.133-0.267-0.267C15.666,4.733,15.8,4.6,15.933,4.6z M12.467,8.8c0-0.133,0.133-0.267,0.267-0.267
	c0.134,0,0.267,0.133,0.267,0.267c0,0.133-0.133,0.267-0.267,0.267C12.6,9.067,12.467,8.933,12.467,8.8z M8.8,13
	c-0.133,0-0.267-0.133-0.267-0.267c0-0.134,0.133-0.267,0.267-0.267c0.133,0,0.267,0.133,0.267,0.267C9.067,12.867,8.933,13,8.8,13z
	 M4.867,16.2c-0.133,0-0.267-0.133-0.267-0.267c0-0.134,0.133-0.267,0.267-0.267c0.133,0,0.267,0.133,0.267,0.267
	C5.134,16.133,5.001,16.2,4.867,16.2z M10.933,19.533c-0.133,0-0.267-0.133-0.267-0.266c0-0.134,0.133-0.268,0.267-0.268
	c0.134,0,0.267,0.134,0.267,0.268C11.2,19.4,11.133,19.533,10.933,19.533z M12.733,23.533c-0.133,0-0.267-0.133-0.267-0.266
	c0-0.134,0.133-0.268,0.267-0.268C12.866,23,13,23.134,13,23.268C13,23.4,12.866,23.533,12.733,23.533z M15.933,27.4
	c-0.133,0-0.267-0.133-0.267-0.267c0-0.133,0.133-0.268,0.267-0.268c0.134,0,0.267,0.134,0.267,0.268
	C16.2,27.266,16.133,27.4,15.933,27.4z M19.533,21.066c0,0.134-0.133,0.267-0.266,0.267C19.134,21.333,19,21.2,19,21.066
	c0-0.133,0.134-0.267,0.268-0.267C19.4,20.8,19.533,20.867,19.533,21.066z M21.333,19.268c0,0.133-0.133,0.266-0.267,0.266
	c-0.133,0-0.267-0.133-0.267-0.266c0-0.134,0.134-0.268,0.267-0.268C21.2,19.001,21.333,19.134,21.333,19.268z M17.268,14.6v0.933
	h-0.935V14.6H17.268z M14.6,14.6h0.933v0.933H14.6V14.6z M14.6,17.268v-0.935h0.933v0.935H14.6z M17.268,17.268h-0.935v-0.935h0.935
	V17.268z M27.133,16.2c-0.134,0-0.268-0.133-0.268-0.267c0-0.134,0.134-0.267,0.268-0.267c0.133,0,0.266,0.133,0.266,0.267
	C27.398,16.067,27.266,16.2,27.133,16.2z"/>
</svg>
