<?xml version="1.0" encoding="utf-8"?>
<!-- Generator: Adobe Illustrator 16.0.0, SVG Export Plug-In . SVG Version: 6.00 Build 0)  -->
<!DOCTYPE svg PUBLIC "-//W3C//DTD SVG 1.1//EN" "http://www.w3.org/Graphics/SVG/1.1/DTD/svg11.dtd">
<svg version="1.1" id="Layer_1" xmlns="http://www.w3.org/2000/svg" xmlns:xlink="http://www.w3.org/1999/xlink" x="0px" y="0px"
	 width="32px" height="32px" viewBox="0 0 32 32" enable-background="new 0 0 32 32" xml:space="preserve">
<title>iot-app-devices</title>
<path fill="#3272A0" d="M13.76,20.864H2.56c-0.256,0-0.448-0.192-0.448-0.448V2.368c0-0.256,0.192-0.448,0.448-0.448h26.752
	c0.256,0,0.447,0.192,0.447,0.448v3.968c0.768,0.064,1.536,0.32,2.112,0.768V2.368c0-1.408-1.151-2.624-2.624-2.624H2.56
	c-1.472,0-2.624,1.152-2.624,2.624v18.048c0,1.408,1.152,2.624,2.624,2.624h8.96v3.456h-1.344c-0.896,0-1.6,0.704-1.6,1.6
	c0,0.896,0.704,1.6,1.6,1.6h4.544c-0.576-0.768-0.896-1.728-0.896-2.815L13.76,20.864z"/>
<path fill="#3272A0" d="M22.721,28.096v-2.304h-4.736v-14.72c0-0.32,0.256-0.576,0.576-0.576h10.688c0.32,0,0.576,0.256,0.576,0.576
	v4.544h0.832c0.512,0,0.96,0.128,1.344,0.384v-4.928c0-1.472-1.216-2.688-2.688-2.688H18.624c-1.472,0-2.688,1.216-2.688,2.688
	v15.872c0,1.473,1.216,2.688,2.688,2.688h4.608C22.912,29.184,22.721,28.607,22.721,28.096L22.721,28.096z"/>
<path fill="#3272A0" d="M30.656,16.96h-5.184c-0.769,0-1.345,0.576-1.345,1.345v9.791c0,0.769,0.576,1.344,1.345,1.344h5.184
	c0.768,0,1.344-0.575,1.344-1.344v-9.791C32,17.536,31.359,16.96,30.656,16.96L30.656,16.96z M25.729,18.561H30.4v8.447h-4.672
	V18.561z M28.032,28.8c-0.128,0-0.257-0.063-0.384-0.128c-0.129-0.128-0.192-0.256-0.192-0.384c0-0.32,0.256-0.576,0.576-0.576
	c0.319,0,0.575,0.256,0.575,0.576c0,0.192-0.063,0.319-0.191,0.384S28.16,28.8,28.032,28.8L28.032,28.8z"/>
</svg>
