<?xml version="1.0" encoding="utf-8"?>
<!-- Generator: Adobe Illustrator 16.0.0, SVG Export Plug-In . SVG Version: 6.00 Build 0)  -->
<!DOCTYPE svg PUBLIC "-//W3C//DTD SVG 1.1//EN" "http://www.w3.org/Graphics/SVG/1.1/DTD/svg11.dtd">
<svg version="1.1" id="Layer_1" xmlns="http://www.w3.org/2000/svg" xmlns:xlink="http://www.w3.org/1999/xlink" x="0px" y="0px"
	 width="32px" height="32px" viewBox="0 0 32 32" enable-background="new 0 0 32 32" xml:space="preserve">
<title>iot-app-memory</title>
<path fill="#3272A0" d="M4.48,0v32h23.042V0H4.48z M15.532,29.141H6.974v-9.012L9.965,22.9c-0.987,0.433-1.679,1.416-1.679,2.562
	c0,1.541,1.252,2.795,2.797,2.795s2.796-1.252,2.796-2.795c0-0.077-0.017-0.147-0.023-0.226c0.003-0.002,0.005-0.004,0.008-0.006
	l1.668,0.028V29.141L15.532,29.141z M12.64,25.245c0.005,0.073,0.04,0.141,0.04,0.217c0,0.882-0.715,1.597-1.597,1.597
	c-0.884,0-1.6-0.716-1.6-1.597c0-0.887,0.715-1.601,1.6-1.601c0.143,0,0.269,0.048,0.402,0.082c2.531-1.937,7.307-5.508,7.402-5.405
	C18.968,18.631,14.848,22.964,12.64,25.245L12.64,25.245z M17.372,21.602c3.042-3.324,2.715-3.718,2.498-3.957
	c-0.541-0.599-0.541-0.599-5.48,3.092l-0.849,0.648c-4.054-1.082-7.049-4.769-7.049-9.166c0-5.247,4.254-9.501,9.496-9.501
	c5.25,0,9.5,4.256,9.5,9.501C25.488,16.991,21.964,20.932,17.372,21.602z M15.988,9.393c1.561,0.001,2.825,1.269,2.827,2.826
	c0,1.559-1.262,2.821-2.827,2.821c-1.556,0-2.822-1.261-2.822-2.821C13.166,10.66,14.431,9.393,15.988,9.393z"/>
</svg>
