<?xml version="1.0" encoding="utf-8"?>
<!-- Generator: Adobe Illustrator 16.0.0, SVG Export Plug-In . SVG Version: 6.00 Build 0)  -->
<!DOCTYPE svg PUBLIC "-//W3C//DTD SVG 1.1//EN" "http://www.w3.org/Graphics/SVG/1.1/DTD/svg11.dtd">
<svg version="1.1" id="Layer_1" xmlns="http://www.w3.org/2000/svg" xmlns:xlink="http://www.w3.org/1999/xlink" x="0px" y="0px"
	 width="32px" height="32px" viewBox="0 0 32 32" enable-background="new 0 0 32 32" xml:space="preserve">
<title>iot-app-panel</title>
<path fill="#3272A0" d="M12.416,11.2l0.64,2.112l0.64-2.112l2.176-0.64l-2.176-0.704l-0.64-2.112l-0.64,2.112L10.24,10.56
	L12.416,11.2z"/>
<path fill="#3272A0" d="M9.536,9.856l0.32-1.088l1.088-0.32l-1.088-0.32L9.536,7.04l-0.32,1.088l-1.088,0.32l1.088,0.32L9.536,9.856
	z"/>
<path fill="#3272A0" d="M23.552,14.016l-0.319,1.088l-1.088,0.32l1.088,0.32l0.319,1.088l0.32-1.088l1.088-0.32l-1.088-0.32
	L23.552,14.016z"/>
<path fill="#3272A0" d="M16.512,9.856l0.385-1.088l1.023-0.32l-1.023-0.32L16.512,7.04l-0.32,1.088l-1.024,0.32l1.024,0.32
	L16.512,9.856z"/>
<path fill="#3272A0" d="M24.641,10.176c0-0.192-0.064-0.384-0.192-0.512l-2.177-2.176c-0.127-0.128-0.319-0.192-0.512-0.192
	c-0.191,0-0.384,0.064-0.512,0.192L7.168,21.568c-0.128,0.127-0.192,0.32-0.192,0.512s0.064,0.384,0.192,0.512l2.176,2.176
	c0.128,0.129,0.32,0.192,0.512,0.192s0.384-0.063,0.512-0.192l14.08-14.08C24.576,10.56,24.641,10.368,24.641,10.176z
	 M19.775,13.376l-1.215-1.152l3.199-3.2l1.152,1.152L19.775,13.376z"/>
<path fill="#3272A0" d="M16,0.64C7.488,0.64,0.64,7.488,0.64,16c0,8.512,6.848,15.359,15.36,15.359
	c8.512,0,15.359-6.848,15.359-15.359C31.359,7.488,24.512,0.64,16,0.64z M16,30.08C8.192,30.08,1.92,23.809,1.92,16
	C1.92,8.192,8.192,1.92,16,1.92c7.809,0,14.08,6.272,14.08,14.08C30.08,23.809,23.809,30.08,16,30.08z"/>
</svg>
