<?xml version="1.0" encoding="utf-8"?>
<!-- Generator: Adobe Illustrator 16.0.0, SVG Export Plug-In . SVG Version: 6.00 Build 0)  -->
<!DOCTYPE svg PUBLIC "-//W3C//DTD SVG 1.1//EN" "http://www.w3.org/Graphics/SVG/1.1/DTD/svg11.dtd">
<svg version="1.1" id="Layer_1" xmlns="http://www.w3.org/2000/svg" xmlns:xlink="http://www.w3.org/1999/xlink" x="0px" y="0px"
	 width="32px" height="32px" viewBox="0 0 32 32" enable-background="new 0 0 32 32" xml:space="preserve">
<title>iot-app-raspberrypi</title>
<path fill="#3272A0" d="M8.356,9.302C8.047,9.185,7.823,8.984,7.696,8.68C7.681,8.645,7.629,8.622,7.591,8.601
	c-0.161-0.09-0.33-0.169-0.486-0.268c-0.237-0.15-0.38-0.37-0.458-0.64C6.626,7.622,6.57,7.553,6.513,7.501
	C6.386,7.386,6.245,7.288,6.117,7.173c-0.196-0.177-0.316-0.4-0.332-0.667C5.779,6.391,5.737,6.31,5.653,6.233
	C5.366,5.972,5.215,5.654,5.258,5.256c0.006-0.054-0.029-0.124-0.065-0.171C5.03,4.88,4.883,4.668,4.861,4.396
	C4.855,4.327,4.84,4.252,4.859,4.189c0.052-0.164-0.003-0.298-0.078-0.441C4.593,3.395,4.602,3.04,4.795,2.686
	C4.819,2.641,4.81,2.565,4.791,2.513c-0.22-0.592,0.102-1.237,0.71-1.387c0.158-0.039,0.344,0.017,0.492-0.039
	c0.147-0.055,0.25-0.216,0.393-0.294c0.297-0.162,0.629-0.17,0.96-0.177C7.418,0.615,7.5,0.59,7.557,0.548
	c0.247-0.186,0.525-0.237,0.826-0.23c0.084,0.002,0.183-0.024,0.252-0.07c0.304-0.206,0.63-0.221,0.972-0.143
	C9.625,0.109,9.642,0.116,9.66,0.12c0.158,0.044,0.3,0.047,0.461-0.034c0.255-0.127,0.532-0.099,0.798-0.004
	c0.04,0.013,0.08,0.027,0.116,0.045c0.173,0.087,0.339,0.115,0.54,0.065c0.302-0.075,0.582,0.047,0.845,0.197
	c0.051,0.029,0.124,0.049,0.179,0.038c0.364-0.079,0.677,0.023,0.96,0.249c0.022,0.017,0.044,0.035,0.064,0.054
	c0.175,0.163,0.346,0.311,0.617,0.307c0.201-0.003,0.373,0.124,0.524,0.26c0.574,0.516,1.002,1.137,1.316,1.839
	c0.026,0.058,0.053,0.116,0.083,0.18c0.139-0.267,0.263-0.527,0.405-0.778c0.27-0.47,0.608-0.884,1.012-1.247
	c0.209-0.188,0.451-0.281,0.732-0.286c0.057-0.001,0.121-0.034,0.164-0.072c0.254-0.216,0.489-0.461,0.84-0.515
	c0.113-0.017,0.232-0.021,0.345-0.002c0.11,0.019,0.2,0.014,0.3-0.045c0.311-0.187,0.639-0.261,0.997-0.14
	c0.04,0.013,0.097-0.011,0.144-0.024c0.222-0.065,0.438-0.164,0.662-0.187c0.174-0.017,0.362,0.047,0.535,0.102
	c0.092,0.029,0.169,0.048,0.264,0.024c0.297-0.077,0.597-0.142,0.899-0.022c0.047,0.019,0.101,0.031,0.138,0.064
	c0.147,0.13,0.317,0.143,0.502,0.135c0.26-0.012,0.489,0.08,0.696,0.237c0.046,0.035,0.115,0.051,0.175,0.058
	c0.225,0.026,0.451,0.033,0.674,0.067c0.23,0.035,0.436,0.139,0.588,0.317c0.074,0.085,0.147,0.102,0.252,0.093
	c0.629-0.06,1.166,0.454,1.131,1.084c-0.008,0.122-0.057,0.242-0.079,0.364c-0.009,0.045-0.017,0.104,0.003,0.139
	c0.232,0.404,0.186,0.797-0.036,1.187c-0.028,0.049-0.055,0.115-0.044,0.165c0.087,0.392-0.036,0.722-0.287,1.015
	c-0.072,0.086-0.1,0.166-0.09,0.284c0.031,0.363-0.127,0.657-0.389,0.897c-0.086,0.079-0.131,0.159-0.139,0.282
	c-0.013,0.244-0.121,0.454-0.295,0.627c-0.061,0.062-0.129,0.12-0.197,0.175c-0.188,0.149-0.371,0.28-0.44,0.55
	c-0.082,0.314-0.365,0.493-0.651,0.627c-0.188,0.088-0.345,0.18-0.438,0.385c-0.084,0.183-0.257,0.302-0.445,0.381
	c-0.123,0.052-0.25,0.096-0.387,0.149c0.136,0.104,0.274,0.202,0.403,0.31c1.002,0.836,1.627,1.893,1.847,3.183
	c0.042,0.25,0.067,0.505,0.077,0.758c0.008,0.17,0.018,0.332,0.123,0.472c0.048,0.065,0.097,0.135,0.16,0.182
	c0.894,0.648,1.537,1.482,1.875,2.537c0.506,1.575,0.285,3.06-0.636,4.422c-0.227,0.334-0.395,0.664-0.476,1.055
	c-0.057,0.271-0.165,0.529-0.23,0.799c-0.037,0.15-0.035,0.311-0.046,0.467c-0.12,1.773-0.897,3.182-2.342,4.219
	c-0.442,0.317-0.931,0.551-1.448,0.724c-0.068,0.022-0.136,0.059-0.195,0.101c-0.775,0.57-1.607,1.041-2.498,1.408
	c-0.069,0.029-0.141,0.074-0.19,0.13c-0.696,0.78-1.544,1.325-2.547,1.613c-1.192,0.341-2.372,0.278-3.524-0.19
	c-0.749-0.304-1.396-0.758-1.946-1.352c-0.038-0.042-0.097-0.071-0.151-0.092c-1.071-0.41-2.062-0.963-2.968-1.668
	c-0.043-0.033-0.092-0.063-0.142-0.084c-1.668-0.726-2.756-1.967-3.203-3.723c-0.161-0.635-0.408-1.234-0.589-1.859
	c-0.074-0.252-0.135-0.508-0.212-0.76c-0.03-0.099-0.071-0.201-0.134-0.281c-0.516-0.637-0.876-1.353-1.046-2.152
	c-0.419-1.973,0.335-3.957,1.956-5.159c0.17-0.126,0.274-0.325,0.272-0.537C5.879,12.3,6.469,10.939,7.667,9.843
	C7.878,9.649,8.117,9.487,8.356,9.302L8.356,9.302z M5.923,4.31C6.202,4.707,6.57,5.003,6.948,5.356
	C6.82,5.387,6.727,5.423,6.632,5.431C6.535,5.44,6.436,5.422,6.317,5.414c0.34,0.379,0.751,0.636,1.161,0.913
	c-0.203,0.14-0.403,0.125-0.635,0.095c0.436,0.389,0.931,0.625,1.439,0.861C8.116,7.46,7.913,7.45,7.693,7.474
	c0.474,0.29,0.988,0.38,1.48,0.548C9.067,8.218,8.884,8.246,8.697,8.311c0.458,0.177,0.908,0.216,1.362,0.24
	c0.093,0.005,0.184,0.036,0.283,0.056c-0.049,0.233-0.244,0.275-0.416,0.386c0.152,0.012,0.271,0.027,0.39,0.028
	c0.741,0.01,1.452-0.149,2.141-0.408c0.646-0.241,1.094-0.676,1.311-1.339c0.032-0.097,0.031-0.172-0.051-0.247
	c-0.356-0.33-0.692-0.685-1.066-0.995C11.333,4.94,9.889,4.04,8.373,3.251C8.348,3.238,8.322,3.228,8.298,3.215
	C8.275,3.202,8.253,3.187,8.217,3.163c0.029,0,0.039-0.003,0.047,0c2.189,0.754,4.26,1.732,6.062,3.216
	c0.034,0.028,0.104,0.046,0.141,0.031c0.74-0.307,1.142-1.053,0.984-1.839c-0.143-0.709-0.436-1.356-0.871-1.933
	c-0.152-0.203-0.334-0.384-0.506-0.578c-0.068,0.175-0.124,0.32-0.186,0.481c-0.337-0.392-0.623-0.787-1.034-1.089
	c0.01,0.091,0.032,0.161,0.022,0.227c-0.012,0.091-0.034,0.184-0.078,0.26c-0.051,0.087-0.12,0.112-0.204,0.007
	c-0.122-0.151-0.255-0.295-0.398-0.426c-0.118-0.107-0.258-0.191-0.388-0.285c0.063,0.181,0.07,0.285,0.006,0.422
	c-0.069,0.147-0.088,0.144-0.218,0.048c-0.25-0.183-0.504-0.359-0.762-0.529c-0.079-0.052-0.175-0.076-0.263-0.113
	c0.039,0.086,0.101,0.141,0.131,0.211c0.031,0.072,0.051,0.161,0.038,0.236c-0.02,0.124-0.081,0.142-0.186,0.076
	c-0.307-0.195-0.639-0.332-0.992-0.421c-0.04-0.01-0.081-0.02-0.122-0.028c-0.041-0.008-0.082-0.01-0.1-0.012
	C9.433,1.24,9.535,1.352,9.617,1.476c0.027,0.04,0.023,0.133-0.006,0.167c-0.025,0.028-0.112,0.015-0.165,0
	c-0.204-0.06-0.403-0.137-0.609-0.189C8.659,1.409,8.475,1.387,8.278,1.352C8.375,1.463,8.463,1.54,8.517,1.635
	C8.548,1.689,8.546,1.787,8.516,1.84C8.5,1.869,8.387,1.864,8.328,1.846C7.981,1.738,7.631,1.655,7.266,1.661
	C7.142,1.663,7.018,1.687,6.862,1.705c0.15,0.142,0.269,0.255,0.412,0.39C6.762,2.179,6.282,2.167,5.778,2.137
	c0.284,0.349,0.459,0.726,0.579,1.162c-0.228-0.013-0.435-0.026-0.664-0.04C5.745,3.34,5.779,3.422,5.839,3.481
	C6.052,3.692,6.275,3.894,6.49,4.103c0.054,0.053,0.093,0.123,0.143,0.191C6.432,4.382,6.393,4.382,5.923,4.31L5.923,4.31z
	 M24.092,3.13c0.008,0.014,0.018,0.028,0.025,0.042c-0.02,0.012-0.039,0.025-0.059,0.035c-1.379,0.699-2.685,1.515-3.914,2.453
	c-0.531,0.406-1.035,0.842-1.49,1.332c-0.059,0.065-0.135,0.12-0.098,0.237c0.182,0.577,0.528,1.013,1.078,1.276
	c0.51,0.243,1.053,0.378,1.607,0.463c0.38,0.058,0.76,0.083,1.167,0.017c-0.173-0.1-0.367-0.148-0.414-0.376
	c0.091-0.022,0.169-0.05,0.25-0.058c0.233-0.024,0.472-0.026,0.705-0.062c0.226-0.035,0.444-0.1,0.668-0.153
	c-0.001-0.013-0.003-0.026-0.005-0.038c-0.168-0.052-0.352-0.083-0.448-0.28c0.5-0.162,1.012-0.257,1.489-0.55
	c-0.232-0.014-0.432-0.008-0.596-0.187c0.508-0.236,1.002-0.471,1.438-0.861c-0.233,0.032-0.431,0.045-0.636-0.093
	c0.41-0.28,0.822-0.533,1.162-0.917c-0.223,0.019-0.426,0.07-0.609-0.079c0.359-0.326,0.725-0.63,1.02-1.043
	c-0.252,0.084-0.476,0.115-0.732,0.01c0.051-0.072,0.086-0.14,0.138-0.189c0.081-0.077,0.175-0.137,0.259-0.211
	c0.213-0.187,0.42-0.379,0.539-0.64c-0.213,0.012-0.421,0.024-0.672,0.039c0.094-0.235,0.16-0.432,0.252-0.616
	c0.094-0.188,0.215-0.364,0.322-0.545c-0.479,0.032-0.96,0.043-1.473-0.04c0.141-0.143,0.256-0.26,0.379-0.387
	c-0.045-0.01-0.092-0.021-0.141-0.028c-0.451-0.067-0.882,0.04-1.31,0.169c-0.052,0.015-0.142,0.024-0.165-0.004
	c-0.033-0.04-0.043-0.129-0.02-0.176c0.039-0.083,0.11-0.153,0.172-0.225c0.021-0.024,0.052-0.038,0.101-0.074
	c-0.056,0-0.079-0.004-0.101,0.001c-0.354,0.086-0.707,0.176-1.06,0.259c-0.067,0.014-0.139,0.006-0.209,0.008
	c0.011-0.075,0.001-0.159,0.034-0.223c0.038-0.075,0.111-0.133,0.172-0.196c0.029-0.03,0.066-0.053,0.1-0.079
	c-0.054-0.016-0.094-0.011-0.133-0.002c-0.389,0.082-0.752,0.228-1.09,0.436c-0.123,0.076-0.209,0.038-0.206-0.106
	c0.002-0.09,0.052-0.181,0.091-0.267c0.021-0.045,0.065-0.079,0.098-0.118c-0.008-0.01-0.014-0.02-0.022-0.03
	c-0.151,0.076-0.312,0.136-0.452,0.229c-0.203,0.135-0.394,0.291-0.586,0.442c-0.074,0.059-0.119,0.067-0.172-0.028
	c-0.08-0.148-0.098-0.293,0.023-0.466c-0.064,0.031-0.1,0.04-0.125,0.063c-0.232,0.21-0.467,0.419-0.691,0.636
	c-0.1,0.097-0.152,0.113-0.221-0.006c-0.045-0.079-0.057-0.18-0.069-0.274c-0.008-0.056,0.011-0.115,0.019-0.198
	c-0.414,0.307-0.697,0.7-1.037,1.09c-0.063-0.172-0.115-0.316-0.172-0.469c-0.032,0.03-0.071,0.061-0.106,0.095
	c-0.64,0.633-1.041,1.401-1.249,2.269s0.123,1.554,0.919,1.96c0.072,0.037,0.12,0.034,0.185-0.02c0.164-0.142,0.332-0.28,0.508-0.41
	c1.125-0.842,2.349-1.512,3.638-2.067c0.636-0.273,1.284-0.517,1.927-0.774L24.092,3.13z M12.416,13.16
	c-0.575,0.005-1.169,0.157-1.636,0.422c-1.253,0.71-1.996,1.778-2.223,3.199c-0.093,0.58-0.047,1.158,0.154,1.712
	c0.331,0.909,0.958,1.522,1.887,1.815c0.567,0.178,1.142,0.178,1.711,0.027c0.719-0.191,1.327-0.575,1.834-1.123
	c0.598-0.646,1.014-1.376,1.152-2.263c0.109-0.708,0.07-1.387-0.216-2.051C14.617,13.83,13.583,13.149,12.416,13.16z M23.65,17.1
	c-0.022-0.146-0.045-0.443-0.111-0.729c-0.232-1.02-0.76-1.861-1.581-2.509c-0.688-0.544-1.466-0.852-2.358-0.823
	c-0.576,0.019-1.095,0.212-1.541,0.558c-0.526,0.407-0.838,0.965-1.004,1.606c-0.117,0.451-0.123,0.909-0.061,1.364
	c0.042,0.305,0.093,0.617,0.206,0.899c0.257,0.648,0.606,1.238,1.118,1.734c0.42,0.405,0.899,0.714,1.435,0.901
	c0.595,0.207,1.22,0.295,1.853,0.097c0.5-0.157,0.944-0.397,1.291-0.798c0.537-0.618,0.742-1.352,0.756-2.301H23.65z M16.182,19.855
	c-0.184,0.015-0.346,0.021-0.506,0.041c-0.668,0.088-1.277,0.328-1.826,0.722c-0.419,0.301-0.719,0.694-0.972,1.14
	c-0.312,0.553-0.408,1.145-0.349,1.756c0.078,0.81,0.444,1.498,1.059,2.031c0.826,0.717,1.796,1.007,2.883,0.889
	c0.892-0.098,1.669-0.445,2.288-1.104c0.798-0.847,1.091-1.851,0.808-2.983c-0.191-0.769-0.662-1.361-1.305-1.82
	c-0.63-0.45-1.347-0.607-2.078-0.67H16.182z M25.563,23.343c0.021-0.532-0.084-1.044-0.265-1.538c-0.11-0.3-0.296-0.55-0.614-0.677
	c-0.436-0.173-0.865-0.101-1.272,0.058c-0.724,0.28-1.293,0.789-1.789,1.371c-0.294,0.342-0.554,0.719-0.792,1.102
	c-0.538,0.861-0.863,1.783-0.723,2.826c0.086,0.639,0.502,1.074,1.145,1.08c1.005,0.012,1.917-0.305,2.701-0.933
	C25.001,25.792,25.521,24.68,25.563,23.343L25.563,23.343z M6.705,23.318c0.007,0.099,0.017,0.246,0.028,0.394
	c0.067,0.847,0.378,1.597,0.901,2.261c0.506,0.642,1.151,1.094,1.919,1.369C10,27.501,10.46,27.6,10.94,27.566
	c0.467-0.031,0.761-0.322,0.948-0.698c0.164-0.329,0.172-0.714,0.12-1.076c-0.092-0.642-0.324-1.237-0.653-1.799
	c-0.409-0.695-0.935-1.286-1.565-1.783c-0.524-0.413-1.099-0.698-1.793-0.717c-0.5-0.013-0.959,0.301-1.117,0.712
	c-0.13,0.343-0.163,0.699-0.174,1.111L6.705,23.318z M16.025,12.871c0.102,0,0.204,0.004,0.305-0.001
	c0.716-0.038,1.411-0.147,2.061-0.486c0.403-0.211,0.707-0.496,0.881-0.917c0.021-0.054,0.03-0.116,0.033-0.175
	c0.012-0.316-0.095-0.589-0.302-0.826c-0.565-0.648-1.267-1.084-2.103-1.27c-1.333-0.298-2.521,0.027-3.557,0.912
	c-0.201,0.172-0.386,0.364-0.483,0.617c-0.179,0.464,0.004,0.845,0.308,1.177c0.261,0.284,0.609,0.449,0.962,0.593
	C14.737,12.742,15.365,12.884,16.025,12.871L16.025,12.871z M16.138,27.412c-0.392,0.047-0.992,0.099-1.583,0.197
	c-0.607,0.102-1.181,0.306-1.652,0.727c-0.28,0.251-0.301,0.549-0.085,0.82c0.691,0.863,1.583,1.388,2.671,1.551
	c0.839,0.125,1.652,0.003,2.417-0.38c0.643-0.32,1.172-0.774,1.585-1.361c0.122-0.174,0.155-0.387,0.045-0.563
	c-0.122-0.2-0.302-0.362-0.524-0.463C18.163,27.561,17.262,27.46,16.138,27.412z M7.5,17.21c0-0.074,0.002-0.147,0-0.222
	c-0.015-0.459-0.01-0.926-0.198-1.351c-0.194-0.438-0.356-0.568-0.744-0.306c-1.046,0.707-1.651,1.677-1.747,2.944
	c-0.084,1.108,0.281,2.065,1.018,2.885c0.198,0.22,0.365,0.216,0.592-0.014c0.165-0.166,0.289-0.383,0.399-0.592
	c0.098-0.187,0.166-0.392,0.224-0.596c0.106-0.378,0.2-0.758,0.29-1.139c0.125-0.529,0.169-1.068,0.164-1.611L7.5,17.21z
	 M24.495,16.732c0,0.152-0.017,0.308,0.003,0.457c0.084,0.609,0.179,1.217,0.271,1.824c0.076,0.512,0.24,0.998,0.457,1.463
	c0.115,0.244,0.228,0.508,0.475,0.67c0.169,0.11,0.254,0.117,0.381-0.037c0.225-0.275,0.475-0.543,0.637-0.853
	c0.682-1.297,0.655-2.593-0.109-3.853c-0.354-0.582-0.851-1.021-1.453-1.338c-0.163-0.086-0.327-0.039-0.403,0.111
	c-0.041,0.082-0.08,0.168-0.104,0.255c-0.121,0.426-0.185,0.858-0.153,1.302V16.732z M24.783,13.779c0.003,0,0.006,0,0.009,0
	c-0.011-0.152-0.019-0.305-0.033-0.457c-0.006-0.069-0.021-0.137-0.032-0.205c-0.164-0.97-0.625-1.773-1.373-2.406
	c-0.66-0.557-1.431-0.86-2.291-0.923c-0.422-0.031-0.84,0.014-1.254,0.107c-0.092,0.02-0.15,0.068-0.113,0.164
	c0.059,0.143,0.103,0.307,0.203,0.417c0.472,0.52,0.947,1.041,1.451,1.527c0.365,0.351,0.797,0.633,1.174,0.973
	c0.395,0.357,0.845,0.629,1.287,0.914c0.197,0.127,0.416,0.22,0.633,0.311c0.238,0.1,0.334,0.029,0.339-0.227
	C24.784,13.909,24.783,13.844,24.783,13.779z M11.3,9.765c-1.11,0.019-1.976,0.305-2.71,0.927c-0.993,0.841-1.469,1.926-1.448,3.227
	c0.003,0.212,0.109,0.285,0.312,0.216c0.174-0.06,0.354-0.12,0.51-0.214c0.407-0.246,0.815-0.494,1.2-0.773
	c0.785-0.568,1.517-1.202,2.202-1.887c0.335-0.335,0.662-0.687,0.846-1.139c0.054-0.132,0.024-0.208-0.116-0.232
	C11.782,9.836,11.466,9.792,11.3,9.765L11.3,9.765z"/>
</svg>
