<?xml version="1.0" encoding="utf-8"?>
<!-- Generator: Adobe Illustrator 16.0.0, SVG Export Plug-In . SVG Version: 6.00 Build 0)  -->
<!DOCTYPE svg PUBLIC "-//W3C//DTD SVG 1.1//EN" "http://www.w3.org/Graphics/SVG/1.1/DTD/svg11.dtd">
<svg version="1.1" id="Layer_1" xmlns="http://www.w3.org/2000/svg" xmlns:xlink="http://www.w3.org/1999/xlink" x="0px" y="0px"
	 width="32px" height="32px" viewBox="0 0 32 32" enable-background="new 0 0 32 32" xml:space="preserve">
<title>iot-app-actuator</title>
<path fill="#3272A0" d="M16,0.64C7.488,0.64,0.64,7.488,0.64,16c0,8.512,6.848,15.359,15.36,15.359
	c8.512,0,15.359-6.848,15.359-15.359C31.359,7.488,24.512,0.64,16,0.64z M16,30.08C8.192,30.08,1.92,23.809,1.92,16
	C1.92,8.192,8.192,1.92,16,1.92c7.809,0,14.08,6.272,14.08,14.08C30.08,23.809,23.809,30.08,16,30.08z"/>
<path fill="#3272A0" d="M11.712,13.12h8.64v5.76h-8.64V13.12z M9.088,10.496h13.824c0.128,0,0.256,0.128,0.256,0.256v10.561
	c0,0.127-0.128,0.256-0.256,0.256H9.088c-0.128,0-0.256-0.129-0.256-0.256V10.752C8.832,10.56,8.96,10.496,9.088,10.496z
	 M10.688,19.84h10.625v-7.68H10.688V19.84z M12.096,10.176V8c0.192-0.128,0.32-0.384,0.32-0.64c0-0.448-0.384-0.832-0.832-0.832
	c-0.448,0-0.832,0.384-0.832,0.832c0,0.256,0.128,0.512,0.32,0.64v2.176H12.096z M15.04,10.176V8c0.192-0.128,0.32-0.384,0.32-0.64
	c0-0.448-0.384-0.832-0.832-0.832c-0.448,0-0.832,0.384-0.832,0.832c0,0.256,0.128,0.512,0.32,0.64v2.176H15.04z M18.048,10.176V8
	c0.192-0.128,0.32-0.384,0.32-0.64c0-0.448-0.384-0.832-0.832-0.832s-0.832,0.384-0.832,0.832c0,0.256,0.128,0.512,0.319,0.64v2.176
	H18.048z M20.992,10.176V8c0.191-0.128,0.32-0.384,0.32-0.64c0-0.448-0.385-0.832-0.832-0.832c-0.448,0-0.832,0.384-0.832,0.832
	c0,0.256,0.127,0.512,0.319,0.64v2.176H20.992z M19.904,21.824V24c-0.192,0.128-0.32,0.384-0.32,0.641
	c0,0.447,0.384,0.832,0.832,0.832c0.447,0,0.832-0.385,0.832-0.832c0-0.257-0.128-0.513-0.32-0.641v-2.176H19.904L19.904,21.824z
	 M16.96,21.824V24c-0.192,0.128-0.319,0.384-0.319,0.641c0,0.447,0.383,0.832,0.832,0.832c0.447,0,0.832-0.385,0.832-0.832
	c0-0.257-0.129-0.513-0.32-0.641v-2.176H16.96L16.96,21.824z M13.952,21.824V24c-0.192,0.128-0.32,0.384-0.32,0.641
	c0,0.447,0.384,0.832,0.832,0.832c0.448,0,0.832-0.385,0.832-0.832c0-0.257-0.128-0.513-0.32-0.641v-2.176H13.952z M11.008,21.824
	V24c-0.192,0.128-0.32,0.384-0.32,0.641c0,0.447,0.384,0.832,0.832,0.832c0.448,0,0.832-0.385,0.832-0.832
	c0-0.257-0.128-0.513-0.32-0.641v-2.176H11.008z"/>
</svg>
