<?xml version="1.0" encoding="utf-8"?>
<!-- Generator: Adobe Illustrator 16.0.0, SVG Export Plug-In . SVG Version: 6.00 Build 0)  -->
<!DOCTYPE svg PUBLIC "-//W3C//DTD SVG 1.1//EN" "http://www.w3.org/Graphics/SVG/1.1/DTD/svg11.dtd">
<svg version="1.1" id="Layer_1" xmlns="http://www.w3.org/2000/svg" xmlns:xlink="http://www.w3.org/1999/xlink" x="0px" y="0px"
	 width="32px" height="32px" viewBox="0 0 32 32" enable-background="new 0 0 32 32" xml:space="preserve">
<title>iot-app-intel</title>
<path fill="#3272A0" d="M15.168,24.256c-6.315,0.598-12.885-0.341-13.824-5.291c-0.427-2.475,0.683-5.035,2.133-6.656v-0.853
	c-2.645,2.304-4.096,5.291-3.243,8.704c1.024,4.438,6.741,6.997,15.36,6.145c3.413-0.342,7.852-1.451,11.008-3.158v-2.389
	C23.701,22.55,19.093,23.915,15.168,24.256L15.168,24.256z M31.809,11.456C30.271,4.117,16.107,3.691,6.891,9.237v0.597
	c9.216-4.693,22.187-4.608,23.38,2.133c0.428,2.219-0.853,4.523-3.071,5.889v1.791C29.846,18.623,32.661,15.38,31.809,11.456
	L31.809,11.456z M26.005,10.432h-1.621v7.423c0,0.854,0.427,1.621,1.621,1.707V10.432z M6.293,13.077H4.672v4.864
	c0,0.853,0.427,1.621,1.621,1.707V13.077z M4.672,12.224h1.621v-1.536H4.672V12.224z M16.192,19.563
	c-1.365,0-1.877-0.938-1.877-1.877v-6.399h1.621v1.792h1.28v1.365h-1.28v3.243c0,0.342,0.171,0.598,0.597,0.598h0.683v1.365h-1.024
	V19.563z M19.264,16.832c0,0.854,0.512,1.451,1.451,1.451c0.768,0,1.109-0.172,1.536-0.598l1.024,0.939
	c-0.684,0.684-1.365,1.023-2.561,1.023c-1.535,0-3.072-0.853-3.072-3.328c0-2.133,1.28-3.328,3.072-3.328s2.73,1.451,2.73,3.243
	v0.597h-4.18L19.264,16.832z M20.629,14.357c-0.597,0-1.023,0.256-1.195,0.683c-0.084,0.256-0.17,0.427-0.17,0.683h2.56
	C21.738,15.04,21.396,14.358,20.629,14.357L20.629,14.357z M10.731,14.443c0.512,0,0.683,0.256,0.683,0.597v4.522h1.621V15.04
	c0-0.939-0.512-1.963-1.963-1.963H7.659v6.485H9.28v-5.206h1.451V14.443z M27.797,11.712c-0.341,0-0.684-0.256-0.684-0.683
	c0-0.341,0.257-0.683,0.684-0.683c0.342,0,0.684,0.256,0.684,0.683C28.48,11.456,28.225,11.712,27.797,11.712z M27.797,10.517
	c-0.341,0-0.512,0.256-0.512,0.512c0,0.341,0.256,0.512,0.512,0.512c0.342,0,0.512-0.256,0.512-0.512
	C28.395,10.773,28.139,10.517,27.797,10.517z M28.139,11.456h-0.084l0,0l-0.257-0.341l0,0c0,0,0,0-0.085,0l0,0v0.256l0,0h-0.085l0,0
	v-0.683c0,0,0-0.085,0.085-0.085h0.171c0.171,0,0.341,0.085,0.341,0.256l0,0c0,0.085-0.084,0.171-0.17,0.171L28.139,11.456
	C28.139,11.372,28.139,11.457,28.139,11.456L28.139,11.456L28.139,11.456z M27.968,10.859c0-0.085-0.085-0.085-0.171-0.085h-0.085
	l0,0v0.256h0.085C27.882,11.03,27.968,10.945,27.968,10.859L27.968,10.859z"/>
</svg>
