<?xml version="1.0" encoding="utf-8"?>
<!-- Generator: Adobe Illustrator 16.0.0, SVG Export Plug-In . SVG Version: 6.00 Build 0)  -->
<!DOCTYPE svg PUBLIC "-//W3C//DTD SVG 1.1//EN" "http://www.w3.org/Graphics/SVG/1.1/DTD/svg11.dtd">
<svg version="1.1" id="Layer_1" xmlns="http://www.w3.org/2000/svg" xmlns:xlink="http://www.w3.org/1999/xlink" x="0px" y="0px"
	 width="32px" height="32px" viewBox="0 0 32 32" enable-background="new 0 0 32 32" xml:space="preserve">
<title>ivrs-rules</title>
<path fill="#3272A0" d="M16,0C7.176,0,0,7.177,0,16s7.177,16,16,16s16-7.178,16-16C32,7.177,24.822,0,16,0z M16,31.359
	C7.53,31.359,0.64,24.471,0.64,16C0.64,7.53,7.53,0.64,16,0.64c8.471,0,15.359,6.89,15.359,15.36
	C31.359,24.471,24.471,31.359,16,31.359z M16.499,3.2c0.353,0.121,0.705,0.239,1.056,0.365c0.174,0.063,0.348,0.135,0.52,0.209
	c0.227,0.097,0.359,0.29,0.333,0.535c-0.032,0.293-0.097,0.583-0.144,0.874c-0.021,0.138-0.043,0.275-0.054,0.413
	c-0.015,0.187,0.037,0.352,0.177,0.484c0.279,0.263,0.562,0.522,0.829,0.795c0.179,0.182,0.386,0.227,0.621,0.175
	c0.378-0.083,0.753-0.174,1.132-0.256c0.299-0.065,0.502,0.027,0.635,0.302c0.215,0.451,0.422,0.906,0.623,1.363
	c0.143,0.33,0.094,0.521-0.187,0.746c-0.197,0.157-0.411,0.293-0.613,0.444c-0.143,0.106-0.282,0.217-0.417,0.333
	c-0.117,0.101-0.179,0.235-0.175,0.392c0.009,0.396,0.015,0.792,0.034,1.187c0.01,0.221,0.113,0.401,0.307,0.518
	c0.221,0.133,0.442,0.259,0.661,0.392c0.134,0.081,0.267,0.166,0.39,0.262c0.187,0.146,0.258,0.338,0.174,0.567
	c-0.174,0.477-0.353,0.952-0.532,1.427c-0.028,0.072-0.074,0.138-0.118,0.203c-0.105,0.158-0.25,0.24-0.443,0.208
	c-0.34-0.055-0.679-0.114-1.017-0.168c-0.103-0.016-0.207-0.025-0.312-0.035c-0.15-0.015-0.285,0.025-0.394,0.134
	c-0.276,0.283-0.552,0.567-0.825,0.854c-0.191,0.202-0.223,0.442-0.156,0.705c0.082,0.333,0.166,0.667,0.233,1.003
	c0.072,0.355,0.003,0.51-0.323,0.666c-0.466,0.225-0.938,0.434-1.414,0.637c-0.259,0.11-0.449,0.058-0.626-0.164
	c-0.183-0.232-0.351-0.477-0.523-0.717c-0.369-0.518-0.463-0.564-1.098-0.531c-0.248,0.013-0.495,0.028-0.742,0.041
	c-0.253,0.014-0.45,0.121-0.582,0.34c-0.151,0.25-0.295,0.502-0.452,0.748c-0.08,0.123-0.175,0.24-0.276,0.347
	c-0.112,0.117-0.252,0.168-0.415,0.106c-0.488-0.182-0.977-0.361-1.464-0.547c-0.076-0.029-0.147-0.076-0.215-0.121
	c-0.16-0.104-0.243-0.248-0.211-0.441c0.054-0.34,0.113-0.678,0.165-1.018c0.016-0.103,0.026-0.207,0.031-0.311
	c0.01-0.177-0.034-0.333-0.172-0.46c-0.273-0.25-0.543-0.503-0.812-0.756c-0.172-0.16-0.365-0.2-0.592-0.145
	c-0.329,0.081-0.66,0.154-0.991,0.228c-0.067,0.015-0.137,0.026-0.205,0.035c-0.268,0.038-0.44-0.038-0.555-0.285
	c-0.227-0.493-0.445-0.99-0.653-1.492c-0.109-0.266-0.058-0.429,0.174-0.606c0.269-0.205,0.545-0.404,0.83-0.588
	c0.293-0.189,0.425-0.442,0.401-0.79c-0.024-0.356-0.034-0.712-0.052-1.069c-0.008-0.157-0.073-0.286-0.208-0.372
	c-0.278-0.178-0.557-0.355-0.836-0.532C6.95,9.79,6.882,9.744,6.814,9.696C6.673,9.597,6.553,9.48,6.497,9.311
	c0-0.044,0-0.087,0-0.131c0.009-0.019,0.02-0.037,0.027-0.056c0.185-0.52,0.371-1.039,0.552-1.56c0.065-0.184,0.2-0.289,0.375-0.328
	c0.119-0.027,0.252-0.018,0.374,0C8.121,7.28,8.418,7.329,8.71,7.396c0.316,0.072,0.566-0.003,0.781-0.25
	c0.214-0.245,0.449-0.474,0.678-0.707c0.158-0.161,0.224-0.348,0.178-0.572c-0.026-0.127-0.051-0.255-0.077-0.383
	c-0.067-0.323-0.14-0.645-0.195-0.97c-0.031-0.186,0.053-0.331,0.224-0.418c0.267-0.137,0.529-0.285,0.803-0.406
	c0.269-0.119,0.547-0.221,0.827-0.312c0.208-0.068,0.382,0.002,0.514,0.182c0.255,0.347,0.516,0.69,0.772,1.036
	c0.102,0.138,0.237,0.198,0.405,0.196c0.365-0.006,0.731-0.023,1.096-0.02c0.307,0.003,0.517-0.131,0.67-0.39
	c0.161-0.273,0.337-0.538,0.507-0.806c0.106-0.166,0.223-0.321,0.426-0.378C16.379,3.2,16.44,3.2,16.501,3.2H16.499z M17.832,11.171
	c0.001-1.886-1.506-3.377-3.409-3.386c-1.56-0.008-3.332,1.36-3.331,3.391c0.001,1.843,1.516,3.364,3.355,3.367
	C16.622,14.547,17.927,12.664,17.832,11.171z M14.227,28.8c-0.236-0.03-0.321-0.188-0.353-0.401c-0.029-0.188-0.062-0.379-0.12-0.56
	c-0.029-0.09-0.104-0.19-0.186-0.231c-0.236-0.117-0.484-0.213-0.732-0.303c-0.06-0.021-0.15-0.006-0.207,0.026
	c-0.177,0.101-0.346,0.219-0.518,0.328c-0.282,0.18-0.408,0.177-0.645-0.058c-0.198-0.194-0.374-0.412-0.565-0.615
	c-0.093-0.1-0.092-0.199-0.025-0.307c0.096-0.156,0.186-0.316,0.296-0.462c0.177-0.235,0.201-0.467,0.077-0.739
	c-0.308-0.678-0.207-0.597-0.906-0.729c-0.417-0.079-0.472-0.12-0.491-0.543c-0.01-0.256,0-0.514,0.013-0.77
	c0.009-0.178,0.081-0.264,0.253-0.304c0.186-0.044,0.375-0.075,0.563-0.108c0.21-0.035,0.36-0.146,0.444-0.342
	c0.066-0.15,0.132-0.303,0.193-0.455c0.067-0.166,0.049-0.321-0.047-0.474c-0.126-0.202-0.243-0.409-0.368-0.614
	c-0.069-0.115-0.054-0.221,0.035-0.309c0.254-0.25,0.51-0.497,0.777-0.732c0.044-0.041,0.154-0.045,0.214-0.02
	c0.122,0.052,0.233,0.132,0.346,0.205c0.095,0.061,0.187,0.127,0.282,0.188c0.136,0.088,0.289,0.11,0.438,0.057
	c0.22-0.08,0.435-0.176,0.648-0.272c0.129-0.058,0.191-0.167,0.219-0.305c0.045-0.226,0.1-0.449,0.152-0.673
	c0.025-0.109,0.1-0.165,0.205-0.168c0.351-0.008,0.703-0.008,1.054-0.012c0.152-0.002,0.227,0.088,0.258,0.227
	c0.045,0.203,0.096,0.406,0.131,0.611c0.031,0.188,0.118,0.318,0.298,0.39c0.214,0.085,0.422,0.185,0.638,0.264
	c0.061,0.022,0.149,0.011,0.205-0.021c0.207-0.118,0.404-0.254,0.61-0.377c0.243-0.145,0.282-0.146,0.493,0.045
	c0.197,0.177,0.386,0.365,0.563,0.563c0.166,0.186,0.17,0.319,0.04,0.534c-0.12,0.196-0.245,0.388-0.372,0.582
	c-0.054,0.083-0.066,0.168-0.027,0.259c0.1,0.231,0.199,0.463,0.297,0.694c0.042,0.101,0.119,0.155,0.225,0.176
	c0.18,0.036,0.357,0.074,0.537,0.108c0.328,0.064,0.432,0.179,0.441,0.511c0.007,0.229,0.004,0.461-0.002,0.692
	c-0.008,0.271-0.09,0.365-0.353,0.42c-0.174,0.037-0.351,0.068-0.524,0.1c-0.186,0.033-0.326,0.127-0.399,0.301
	c-0.093,0.221-0.187,0.44-0.263,0.665c-0.021,0.063-0.004,0.157,0.029,0.218c0.112,0.196,0.246,0.381,0.36,0.576
	c0.138,0.234,0.136,0.293-0.048,0.495c-0.18,0.2-0.371,0.39-0.572,0.57c-0.195,0.175-0.252,0.175-0.475,0.042
	c-0.172-0.102-0.34-0.212-0.504-0.326c-0.156-0.109-0.316-0.131-0.491-0.052c-0.158,0.071-0.317,0.14-0.476,0.212
	c-0.175,0.081-0.274,0.222-0.307,0.41c-0.02,0.111-0.037,0.224-0.056,0.335c-0.042,0.241-0.087,0.481-0.414,0.473
	c-0.298,0.002-0.595,0.002-0.89,0.002L14.227,28.8z M14.736,25.904c0.998,0.15,2.058-0.963,1.995-2.07
	c-0.061-1.023-0.961-1.938-2.036-1.93c-1.033,0.009-2.049,0.919-1.957,2.044C12.609,24.914,13.66,26.044,14.736,25.904z
	 M19.238,21.633c0.015-0.043,0.021-0.088,0.045-0.123c0.042-0.064,0.089-0.129,0.143-0.186c0.258-0.27,0.301-0.514,0.147-0.858
	c-0.06-0.133-0.171-0.205-0.296-0.26c-0.125-0.054-0.254-0.097-0.367-0.166c-0.053-0.031-0.109-0.116-0.104-0.172
	c0.02-0.232,0.055-0.466,0.102-0.694c0.009-0.047,0.078-0.102,0.132-0.115c0.091-0.025,0.188-0.029,0.284-0.029
	c0.253,0,0.426-0.111,0.568-0.324c0.162-0.241,0.2-0.441,0.045-0.715c-0.201-0.35-0.172-0.381,0.148-0.633
	c0.113-0.088,0.232-0.166,0.35-0.252c0.062-0.045,0.115-0.043,0.174,0.006c0.123,0.105,0.25,0.205,0.371,0.31
	c0.108,0.093,0.228,0.122,0.365,0.093c0.075-0.016,0.151-0.037,0.228-0.053c0.231-0.047,0.366-0.182,0.433-0.413
	c0.119-0.417,0.166-0.44,0.59-0.368c0.137,0.023,0.274,0.047,0.405,0.092c0.054,0.018,0.116,0.084,0.125,0.139
	c0.033,0.179,0.048,0.361,0.063,0.543c0.006,0.081,0.035,0.132,0.105,0.177c0.545,0.347,0.482,0.347,1.027,0.089
	c0.176-0.084,0.236-0.07,0.363,0.079c0.116,0.136,0.217,0.283,0.328,0.423c0.088,0.109,0.076,0.209-0.013,0.313
	c-0.114,0.136-0.222,0.28-0.34,0.411c-0.054,0.061-0.067,0.111-0.041,0.187c0.04,0.124,0.071,0.25,0.104,0.377
	c0.039,0.163,0.137,0.261,0.301,0.308c0.123,0.037,0.242,0.095,0.361,0.147c0.084,0.037,0.125,0.108,0.117,0.2
	c-0.021,0.207-0.04,0.415-0.074,0.621c-0.027,0.154-0.093,0.197-0.254,0.209c-0.021,0.001-0.043,0.004-0.064,0.003
	c-0.387-0.029-0.629,0.163-0.795,0.493c-0.066,0.134-0.084,0.262-0.023,0.398c0.057,0.127,0.111,0.254,0.163,0.385
	c0.037,0.093,0.026,0.177-0.062,0.242c-0.174,0.129-0.346,0.262-0.52,0.393c-0.077,0.059-0.15,0.053-0.225-0.012
	c-0.114-0.101-0.233-0.195-0.346-0.299c-0.094-0.086-0.201-0.119-0.324-0.093c-0.135,0.03-0.274,0.054-0.401,0.106
	c-0.073,0.031-0.146,0.1-0.183,0.171c-0.059,0.104-0.09,0.225-0.121,0.342c-0.045,0.161-0.154,0.26-0.32,0.243
	c-0.207-0.023-0.411-0.068-0.616-0.102c-0.106-0.018-0.155-0.086-0.164-0.188c-0.01-0.122-0.019-0.243-0.022-0.365
	c-0.004-0.142-0.06-0.253-0.172-0.335c-0.056-0.041-0.114-0.079-0.17-0.12c-0.227-0.166-0.447-0.169-0.689-0.019
	c-0.313,0.193-0.348,0.181-0.579-0.104c-0.087-0.108-0.162-0.227-0.237-0.343c-0.027-0.048-0.041-0.104-0.064-0.159L19.238,21.633z
	 M22.191,21.383c0.74,0.003,1.354-0.622,1.353-1.372c-0.002-0.769-0.614-1.384-1.384-1.393c-0.693-0.009-1.393,0.606-1.377,1.411
	C20.796,20.79,21.398,21.38,22.191,21.383L22.191,21.383z"/>
</svg>
