<?xml version="1.0" encoding="utf-8"?>
<!-- Generator: Adobe Illustrator 16.0.0, SVG Export Plug-In . SVG Version: 6.00 Build 0)  -->
<!DOCTYPE svg PUBLIC "-//W3C//DTD SVG 1.1//EN" "http://www.w3.org/Graphics/SVG/1.1/DTD/svg11.dtd">
<svg version="1.1" id="Layer_1" xmlns="http://www.w3.org/2000/svg" xmlns:xlink="http://www.w3.org/1999/xlink" x="0px" y="0px"
	 width="32px" height="32px" viewBox="0 0 32 32" enable-background="new 0 0 32 32" xml:space="preserve">
<title>join-2</title>
<path fill="#3272A0" d="M15.936,0c8.832,0,16,7.168,16,16s-7.168,16-16,16c-8.832,0-16-7.168-16-16S7.104,0,15.936,0z
	 M15.936,31.359c8.448,0,15.36-6.911,15.36-15.359S24.384,0.64,15.936,0.64C7.488,0.64,0.576,7.552,0.576,16
	S7.488,31.359,15.936,31.359z M23.744,9.408h-2.24c-0.191,0-0.32,0.064-0.447,0.192l0,0c-0.127,0.128-0.193,0.256-0.193,0.448v1.792
	c0,0.192,0.066,0.32,0.193,0.448c0.129,0.128,0.256,0.192,0.447,0.192h2.24c1.855,0,3.328,1.472,3.328,3.328v0.064
	c0,1.856-1.473,3.328-3.328,3.328h-8.448v-4.928c0-0.192-0.064-0.32-0.192-0.448l0,0c-0.128-0.128-0.256-0.192-0.448-0.192h-1.792
	c-0.192,0-0.32,0.064-0.448,0.192l0,0c-0.128,0.128-0.192,0.256-0.192,0.448v7.167c0,0.385,0.32,0.641,0.64,0.641H23.68
	c1.664,0,3.264-0.641,4.48-1.855c1.216-1.217,1.855-2.752,1.855-4.48v-0.128c0-1.664-0.64-3.264-1.855-4.48
	C27.008,9.984,25.408,9.408,23.744,9.408z M10.56,19.136H8.32c-1.856,0-3.328-1.473-3.328-3.328V15.68
	c0-1.856,1.472-3.328,3.328-3.328h8.448v4.927c0,0.193,0.064,0.32,0.192,0.449l0,0c0.128,0.127,0.256,0.191,0.448,0.191H19.2
	c0.192,0,0.319-0.064,0.448-0.191l0,0c0.127-0.129,0.191-0.256,0.191-0.449v-7.231c0-0.384-0.32-0.64-0.64-0.64H8.32
	c-1.664,0-3.264,0.64-4.48,1.856c-1.216,1.216-1.856,2.752-1.856,4.416v0.128c0,1.665,0.64,3.264,1.856,4.48
	c1.216,1.216,2.752,1.856,4.48,1.856h2.24c0.192,0,0.32-0.064,0.448-0.192l0,0c0.128-0.128,0.192-0.255,0.192-0.448v-1.792
	c0-0.192-0.064-0.319-0.192-0.448C10.88,19.2,10.688,19.136,10.56,19.136z"/>
</svg>
