<?xml version="1.0" encoding="utf-8"?>
<!-- Generator: Adobe Illustrator 16.0.0, SVG Export Plug-In . SVG Version: 6.00 Build 0)  -->
<!DOCTYPE svg PUBLIC "-//W3C//DTD SVG 1.1//EN" "http://www.w3.org/Graphics/SVG/1.1/DTD/svg11.dtd">
<svg version="1.1" id="Layer_1" xmlns="http://www.w3.org/2000/svg" xmlns:xlink="http://www.w3.org/1999/xlink" x="0px" y="0px"
	 width="32px" height="32px" viewBox="0 0 32 32" enable-background="new 0 0 32 32" xml:space="preserve">
<title>join-1</title>
<path fill="#64953B" d="M15.936,0c8.832,0,16,7.168,16,16s-7.168,16-16,16c-8.832,0-16-7.168-16-16S7.104,0,15.936,0z
	 M15.936,31.359c8.448,0,15.36-6.911,15.36-15.359S24.384,0.64,15.936,0.64C7.488,0.64,0.576,7.552,0.576,16
	S7.488,31.359,15.936,31.359z M9.344,22.271h5.184c0.32,0,0.576-0.254,0.576-0.574v-3.266h-2.88v0.896h-2.88
	c-1.856,0-3.328-1.474-3.328-3.328v-0.064c0-1.856,1.472-3.328,3.328-3.328h2.88v0.896h2.88V10.24c0-0.32-0.256-0.576-0.576-0.576
	H9.344c-1.664,0-3.2,0.64-4.416,1.856c-1.216,1.216-1.856,2.752-1.856,4.416v0.128c0,1.665,0.64,3.2,1.856,4.417
	C6.144,21.632,7.68,22.271,9.344,22.271z M23.104,9.664h-5.312c-0.319,0-0.575,0.256-0.575,0.576v3.264h3.008v-0.896h2.879
	c1.856,0,3.328,1.472,3.328,3.328v0.128c0,1.856-1.472,3.329-3.328,3.329h-2.879v-0.896h-3.009v3.264
	c0,0.32,0.255,0.576,0.575,0.576h5.313c1.664,0,3.199-0.642,4.416-1.854c1.215-1.217,1.855-2.752,1.855-4.417v-0.128
	c0-1.664-0.641-3.2-1.855-4.416C26.368,10.304,24.768,9.664,23.104,9.664z M12.224,14.592h-0.896c-0.768,0-1.344,0.576-1.344,1.344
	s0.576,1.343,1.344,1.343h9.729c0.768,0,1.344-0.575,1.344-1.343s-0.575-1.344-1.344-1.344H12.224z"/>
</svg>
