<?xml version="1.0" encoding="utf-8"?>
<!-- Generator: Adobe Illustrator 16.0.0, SVG Export Plug-In . SVG Version: 6.00 Build 0)  -->
<!DOCTYPE svg PUBLIC "-//W3C//DTD SVG 1.1//EN" "http://www.w3.org/Graphics/SVG/1.1/DTD/svg11.dtd">
<svg version="1.1" id="Layer_1" xmlns="http://www.w3.org/2000/svg" xmlns:xlink="http://www.w3.org/1999/xlink" x="0px" y="0px"
	 width="50px" height="50px" viewBox="0 0 50 50" enable-background="new 0 0 50 50" xml:space="preserve">
<path fill="#3272A0" d="M25,0c13.785,0,25,11.214,25,25c0,13.785-11.215,25-25,25C11.213,50,0,38.785,0,25C0,11.214,11.213,0,25,0
	 M25,49c13.234,0,24-10.766,24-24C49,11.766,38.234,1,25,1C11.766,1,1,11.766,1,25C1,38.234,11.766,49,25,49 M32.811,7.244L32.322,7
	L18.41,42.757l0.488,0.121L32.811,7.244z M33.299,11.149c-1.099,0-2.074,0.976-2.074,2.074c0,1.099,0.977,2.197,2.074,2.197
	s2.074-0.977,2.074-2.075C35.373,12.247,34.52,11.149,33.299,11.149z M16.702,37.266c-1.099,0-2.075,0.976-2.075,2.074
	c0,1.098,0.977,2.074,2.075,2.074c1.098,0,2.074-0.977,2.074-2.074C18.776,38.24,17.922,37.266,16.702,37.266z M28.173,22.864
	c-1.098,0-2.073,0.977-2.073,2.074c0,1.099,0.977,2.076,2.073,2.076c1.099,0,2.075-0.978,2.075-2.076
	C30.369,23.963,29.393,22.864,28.173,22.864z M28.173,7C27.075,7,26.1,7.977,26.1,9.075c0,1.098,0.977,2.075,2.073,2.075
	c1.099,0,2.075-0.977,2.075-2.075C30.248,7.977,29.393,7,28.173,7z M29.148,16.641c-1.099,0-2.073,0.977-2.073,2.074
	c0,1.099,0.976,2.075,2.073,2.075c1.099,0,2.074-0.977,2.074-2.075C31.346,17.739,30.369,16.641,29.148,16.641z M20.851,32.384
	c-1.098,0-2.074,0.976-2.074,2.074s0.977,2.074,2.074,2.074c1.099,0,2.075-0.978,2.075-2.074
	C22.926,33.359,22.071,32.384,20.851,32.384z M25.367,27.502c-1.099,0-2.075,0.977-2.075,2.074s0.977,2.195,2.075,2.195
	c1.098,0,2.074-0.976,2.074-2.074C27.439,28.6,26.586,27.502,25.367,27.502z M25,35.189c-1.099,0-2.074,0.977-2.074,2.074
	s0.976,2.075,2.074,2.075c1.098,0,2.075-0.978,2.075-2.075S26.221,35.189,25,35.189z M30.248,27.502c-1.1,0-2.075,0.977-2.075,2.074
	s0.978,2.074,2.075,2.074s2.074-0.977,2.074-2.074S31.468,27.502,30.248,27.502z M23.536,18.715c-1.099,0-2.075,0.977-2.075,2.075
	s0.977,2.196,2.075,2.196c1.098,0,2.075-0.976,2.075-2.074C25.609,19.813,24.756,18.715,23.536,18.715z M21.46,25.305
	c-1.098,0-2.074,0.976-2.074,2.074c0,1.1,0.977,2.197,2.074,2.197c1.099,0,2.075-0.977,2.075-2.074
	C23.536,26.402,22.682,25.305,21.46,25.305z M27.075,12.37c-1.099,0-2.075,0.976-2.075,2.074c0,1.098,0.977,2.197,2.075,2.197
	c1.098,0,2.073-0.977,2.073-2.075S28.295,12.37,27.075,12.37z M21.46,38.729c-1.098,0-2.074,0.978-2.074,2.074
	c0,1.1,0.977,2.197,2.074,2.197c1.099,0,2.075-0.977,2.075-2.074C23.536,39.827,22.682,38.729,21.46,38.729z M32.811,20.057
	c-1.099,0-2.074,0.977-2.074,2.075c0,1.098,0.977,2.196,2.074,2.196c1.099,0,2.073-0.976,2.073-2.074
	C34.884,21.156,34.031,20.057,32.811,20.057z M22.194,12.37c-1.099,0-2.075,0.976-2.075,2.074c0,1.098,0.977,2.197,2.075,2.197
	c1.098,0,2.074-0.977,2.074-2.075S23.414,12.37,22.194,12.37z M16.702,28.111c-1.099,0-2.075,0.977-2.075,2.074
	c0,1.099,0.977,2.197,2.075,2.197c1.098,0,2.074-0.979,2.074-2.074C18.776,29.21,17.922,28.111,16.702,28.111z M19.386,20.057
	c-1.099,0-2.074,0.977-2.074,2.075c0,1.098,0.976,2.196,2.074,2.196c1.098,0,2.074-0.976,2.074-2.074
	C21.46,21.156,20.607,20.057,19.386,20.057z M28.173,31.041c-1.098,0-2.073,0.977-2.073,2.074c0,1.099,0.977,2.195,2.073,2.195
	c1.099,0,2.075-0.976,2.075-2.074C30.248,32.139,29.393,31.041,28.173,31.041z"/>
</svg>
