<?xml version="1.0" encoding="utf-8"?>
<!-- Generator: Adobe Illustrator 16.0.0, SVG Export Plug-In . SVG Version: 6.00 Build 0)  -->
<!DOCTYPE svg PUBLIC "-//W3C//DTD SVG 1.1//EN" "http://www.w3.org/Graphics/SVG/1.1/DTD/svg11.dtd">
<svg version="1.1" id="Layer_1" xmlns="http://www.w3.org/2000/svg" xmlns:xlink="http://www.w3.org/1999/xlink" x="0px" y="0px"
	 width="32px" height="32px" viewBox="0 0 32 32" enable-background="new 0 0 32 32" xml:space="preserve">
<title>kafka-deployment</title>
<path fill="#3272A0" d="M16,0c8.822,0,16,7.177,16,16s-7.178,16-16,16C7.176,32,0,24.822,0,16C0,7.178,7.176,0,16,0z M16,31.359
	c8.471,0,15.359-6.889,15.359-15.359c0-8.47-6.889-15.36-15.359-15.36C7.53,0.64,0.64,7.53,0.64,16
	C0.64,24.471,7.53,31.359,16,31.359z M13.517,20.463c0,0.159-0.001,0.316,0,0.475c0.001,0.295-0.006,0.33,0.269,0.383
	c0.795,0.152,1.248,0.736,1.692,1.32c0.14,0.186,0.161,0.459,0.253,0.683c0.098,0.235,0.084,0.477,0.073,0.719
	c-0.012,0.228,0.073,0.467-0.076,0.679c0.063,0.209-0.118,0.346-0.166,0.524c-0.043,0.161-0.132,0.317-0.233,0.454
	c-0.277,0.375-0.602,0.715-1.021,0.921c-0.374,0.183-0.767,0.358-1.208,0.323c-0.04-0.002-0.08-0.006-0.119,0.002
	c-0.454,0.064-0.868-0.103-1.282-0.244c-0.17-0.059-0.339-0.159-0.476-0.277c-0.479-0.421-0.893-0.896-1.06-1.533
	c-0.058-0.216-0.113-0.439-0.115-0.66c-0.001-0.211-0.088-0.441,0.067-0.64c-0.018-0.364,0.147-0.671,0.32-0.974
	c0.356-0.627,0.881-1.051,1.562-1.282c0.08-0.028,0.164-0.047,0.243-0.082c0.036-0.015,0.087-0.058,0.089-0.086
	c0.005-0.461-0.001-0.922,0.006-1.384c0.001-0.182-0.194-0.083-0.241-0.186c-0.17,0.028-0.314-0.068-0.466-0.115
	c-0.619-0.195-1.128-0.578-1.526-1.067c-0.386-0.476-0.653-1.026-0.786-1.647c-0.095-0.456-0.08-0.908-0.048-1.351
	c0.022-0.303,0.148-0.613,0.282-0.904c0.131-0.283,0.289-0.541,0.475-0.792c0.376-0.508,0.879-0.835,1.43-1.113
	c0.214-0.108,0.44-0.16,0.668-0.196c0.14-0.022,0.211-0.074,0.209-0.221c-0.003-0.447,0.001-0.895-0.004-1.343
	c0-0.033-0.047-0.092-0.079-0.096c-0.509-0.063-0.899-0.333-1.265-0.672c-0.388-0.36-0.669-0.776-0.806-1.288
	c-0.147-0.115-0.012-0.289-0.1-0.435c-0.07-0.118-0.044-0.302-0.035-0.455c0.007-0.148-0.068-0.316,0.076-0.442
	c0.02-0.34,0.15-0.64,0.309-0.939c0.404-0.758,1.037-1.113,1.707-1.382c0.184,0.035,0.348-0.061,0.521-0.075
	c0.223-0.017,0.456-0.043,0.669,0.003c0.558,0.122,1.073,0.337,1.52,0.72c0.501,0.428,0.734,0.996,0.941,1.588
	c0.029,0.082,0.017,0.179,0.02,0.269c0.001,0.145-0.001,0.29,0,0.435c0.004,0.638-0.211,1.194-0.626,1.677
	c-0.115,0.134-0.2,0.307-0.34,0.406c-0.239,0.169-0.468,0.365-0.758,0.455c-0.127,0.04-0.251,0.097-0.381,0.129
	c-0.132,0.033-0.191,0.098-0.189,0.239c0.006,0.408,0.003,0.817,0,1.225c0,0.077,0.063,0.088,0.094,0.126
	c0.113,0.139,0.267,0.067,0.394,0.109c0.682,0.228,1.261,0.602,1.745,1.13c0.077,0.084,0.109,0.071,0.2,0.005
	c0.199-0.144,0.417-0.259,0.631-0.381c0.084-0.049,0.18-0.077,0.262-0.129c0.105-0.067,0.203-0.147,0.305-0.221
	c-0.11-0.102-0.052-0.24-0.076-0.36c-0.168-0.788-0.098-0.829,0.104-1.474c0.291-0.933,0.976-1.511,1.888-1.821
	c0.57-0.193,1.457-0.118,1.992,0.129c0.573,0.265,1.008,0.685,1.348,1.199c0.137,0.207,0.197,0.47,0.277,0.712
	c0.118,0.36,0.082,0.932,0.01,1.396c-0.09,0.587-0.385,1.06-0.787,1.446c-0.362,0.348-0.803,0.595-1.32,0.714
	c-0.391,0.091-0.771,0.055-1.156,0.054c-0.156-0.001-0.33-0.083-0.492-0.131c-0.455-0.132-0.81-0.394-1.117-0.737
	c-0.056-0.061-0.078-0.043-0.145-0.004c-0.209,0.125-0.457,0.198-0.641,0.35c-0.148,0.124-0.319,0.198-0.48,0.284
	c-0.086,0.047-0.124,0.073-0.108,0.155c0.015,0.083,0.057,0.161,0.075,0.244c0.032,0.159,0.068,0.319,0.076,0.48
	c0.008,0.154,0.07,0.301,0.071,0.442c0.003,0.273-0.058,0.548-0.106,0.82c-0.023,0.132-0.093,0.254-0.115,0.386
	c-0.018,0.118-0.026,0.221,0.145,0.295c0.302,0.137,0.572,0.338,0.856,0.508c0.094,0.058,0.205,0.155,0.289,0.139
	c0.096-0.018,0.168-0.148,0.254-0.225c0.363-0.31,0.777-0.508,1.24-0.634c0.349-0.093,0.703-0.112,1.032-0.052
	c0.353,0.064,0.742,0.092,1.028,0.369c0.513,0.205,0.82,0.644,1.126,1.064c0.146,0.197,0.188,0.471,0.264,0.715
	c0.115,0.369,0.076,0.924,0.013,1.357c-0.07,0.48-0.324,0.84-0.588,1.225c-0.189,0.277-0.461,0.412-0.703,0.598
	c-0.248,0.191-0.539,0.271-0.84,0.355c-0.404,0.111-0.811,0.096-1.193,0.045c-0.348-0.047-0.707-0.185-1.016-0.396
	c-0.476-0.331-0.854-0.748-1.113-1.27c-0.065-0.137-0.078-0.285-0.111-0.429c-0.036-0.155-0.111-0.303-0.128-0.459
	c-0.022-0.207-0.022-0.422,0.001-0.631c0.014-0.132,0.036-0.291,0.095-0.39c0.11-0.186,0.009-0.213-0.11-0.276
	c-0.304-0.164-0.607-0.327-0.885-0.533c-0.214-0.157-0.292-0.143-0.485,0.06c-0.324,0.344-0.695,0.623-1.128,0.806
	c-0.28,0.119-0.573,0.209-0.864,0.296c-0.079,0.023-0.107,0.041-0.106,0.121C13.519,20.014,13.516,20.238,13.517,20.463
	L13.517,20.463z M12.902,17.936c1.03,0.125,2.019-0.951,1.958-1.795c0.18-1.117-0.962-2.096-1.868-2.081
	c-0.559,0.01-1.024,0.187-1.423,0.57c-0.391,0.377-0.577,0.842-0.576,1.375c0.001,0.533,0.192,0.995,0.58,1.375
	c0.376,0.369,0.796,0.618,1.328,0.555L12.902,17.936z M11.622,7.926c-0.028,0.9,0.63,1.375,1.314,1.386
	c0.367,0.006,0.726-0.138,0.997-0.437c0.247-0.274,0.366-0.607,0.363-0.949c-0.004-0.701-0.684-1.336-1.347-1.299
	c-0.379,0.021-0.684,0.111-0.952,0.381C11.733,7.276,11.569,7.57,11.622,7.926z M18.573,20.012c0,0.444,0.09,0.627,0.313,0.893
	c0.262,0.308,0.584,0.5,0.973,0.498c0.332,0,0.652-0.111,0.92-0.336c0.322-0.269,0.47-0.641,0.468-1.022
	c-0.005-0.669-0.494-1.341-1.313-1.326c-0.392,0.007-0.711,0.097-0.988,0.382c-0.262,0.27-0.426,0.563-0.371,0.91L18.573,20.012z
	 M19.88,10.675c-0.388-0.053-0.673,0.106-0.927,0.362c-0.241,0.243-0.391,0.508-0.387,0.868c0.002,0.271,0.021,0.529,0.168,0.76
	c0.14,0.219,0.332,0.39,0.55,0.531c0.044,0.028,0.556,0.166,0.603,0.157c0.368-0.068,0.727-0.148,0.998-0.448
	c0.248-0.273,0.354-0.606,0.364-0.949c0.01-0.334-0.116-0.679-0.368-0.899C20.604,10.816,20.283,10.589,19.88,10.675L19.88,10.675z
	 M12.964,22.745c-0.154,0.013-0.314,0.001-0.46,0.041c-0.309,0.084-0.528,0.317-0.704,0.56c-0.116,0.157-0.233,0.358-0.183,0.592
	c0.019,0.088,0.003,0.184,0.003,0.274c-0.001,0.511,0.355,0.797,0.705,1.062c0.146,0.11,0.375,0.09,0.56,0.16
	c0.062,0.024,0.165-0.078,0.239-0.064c0.284,0.049,0.48-0.133,0.678-0.266c0.207-0.142,0.34-0.375,0.412-0.61
	c0.034-0.112,0.078-0.232,0.094-0.356c0.018-0.146-0.05-0.268-0.078-0.4c-0.062-0.291-0.264-0.56-0.493-0.75
	C13.503,22.792,13.258,22.715,12.964,22.745L12.964,22.745z"/>
</svg>
