<?xml version="1.0" encoding="utf-8"?>
<!-- Generator: Adobe Illustrator 16.0.0, SVG Export Plug-In . SVG Version: 6.00 Build 0)  -->
<!DOCTYPE svg PUBLIC "-//W3C//DTD SVG 1.1//EN" "http://www.w3.org/Graphics/SVG/1.1/DTD/svg11.dtd">
<svg version="1.1" id="Layer_1" xmlns="http://www.w3.org/2000/svg" xmlns:xlink="http://www.w3.org/1999/xlink" x="0px" y="0px"
	 width="32px" height="32px" viewBox="0 0 32 32" enable-background="new 0 0 32 32" xml:space="preserve">
<title>kafka-sink</title>
<path fill="#64953B" d="M13.58,19.711c0,0.458,0,0.934,0,1.407c1.801,0.792,2.553,2.003,2.193,3.522
	c-0.317,1.34-1.549,2.289-2.9,2.235c-1.457-0.06-2.584-1.076-2.806-2.539c-0.211-1.388,0.646-2.623,2.233-3.194
	c0-0.481,0-0.972,0-1.484c-1.016-0.221-1.843-0.733-2.43-1.6c-0.426-0.627-0.635-1.328-0.623-2.087
	c0.031-1.791,1.054-3.018,3.051-3.651c0-0.481,0-0.969,0-1.453c-1.671-0.66-2.483-1.898-2.202-3.345
	c0.279-1.434,1.461-2.422,2.876-2.403c1.382,0.018,2.58,1.02,2.824,2.334c0.252,1.356-0.449,2.895-2.231,3.416
	c0,0.417-0.008,0.844,0.006,1.27c0.003,0.08,0.079,0.213,0.142,0.227c0.84,0.183,1.521,0.631,2.098,1.264
	c0.12-0.065,0.216-0.131,0.321-0.173c0.653-0.268,0.947-0.623,0.882-1.452c-0.129-1.641,1.295-2.934,2.965-2.893
	c1.614,0.04,2.85,1.412,2.771,3.08c-0.074,1.581-1.459,2.799-3.066,2.696c-0.697-0.045-1.013-0.189-1.979-0.907
	c-0.086,0.045-0.179,0.089-0.269,0.14c-0.324,0.187-0.647,0.376-1.002,0.584c0.292,0.86,0.299,1.722-0.002,2.592
	c0.434,0.25,0.848,0.489,1.284,0.74c0.531-0.532,1.155-0.87,1.912-0.923c1.584-0.111,2.966,1.011,3.107,2.52
	c0.15,1.649-0.92,3.035-2.506,3.238c-1.565,0.2-3.027-0.927-3.229-2.521c-0.042-0.328,0.045-0.668,0.04-1.002
	c-0.003-0.125-0.068-0.295-0.163-0.358c-0.332-0.226-0.687-0.411-1.016-0.601c-0.361,0.278-0.684,0.588-1.059,0.805
	C14.437,19.408,14.021,19.529,13.58,19.711L13.58,19.711z M11.045,15.978c-0.004,1.079,0.839,1.934,1.904,1.935
	c1.036,0.003,1.907-0.858,1.919-1.893c0.012-1.051-0.86-1.932-1.916-1.936C11.908,14.08,11.048,14.935,11.045,15.978z M14.255,8.035
	c0.008-0.732-0.556-1.324-1.275-1.34c-0.726-0.016-1.347,0.588-1.356,1.316c-0.007,0.697,0.605,1.318,1.312,1.328
	C13.65,9.349,14.247,8.759,14.255,8.035L14.255,8.035z M14.255,24.007c0.004-0.749-0.588-1.356-1.315-1.351
	c-0.7,0.008-1.319,0.629-1.317,1.324c0.002,0.709,0.602,1.314,1.312,1.324C13.654,25.313,14.251,24.725,14.255,24.007z
	 M21.18,11.994c0-0.716-0.592-1.302-1.313-1.306c-0.707-0.003-1.313,0.598-1.319,1.309c-0.006,0.723,0.612,1.332,1.345,1.324
	C20.607,13.313,21.182,12.723,21.18,11.994z M21.182,20.027c0.01-0.732-0.553-1.329-1.269-1.348
	c-0.731-0.021-1.353,0.573-1.364,1.303c-0.011,0.707,0.588,1.317,1.299,1.33c0.723,0.012,1.323-0.565,1.334-1.283V20.027
	L21.182,20.027z M16,0c8.822,0,16,7.177,16,16s-7.178,16-16,16C7.176,32,0,24.822,0,16C0,7.178,7.176,0,16,0z M16,31.359
	c8.471,0,15.359-6.889,15.359-15.359c0-8.47-6.889-15.36-15.359-15.36C7.53,0.64,0.64,7.53,0.64,16
	C0.64,24.471,7.53,31.359,16,31.359z"/>
</svg>
