<?xml version="1.0" encoding="utf-8"?>
<!-- Generator: Adobe Illustrator 16.0.0, SVG Export Plug-In . SVG Version: 6.00 Build 0)  -->
<!DOCTYPE svg PUBLIC "-//W3C//DTD SVG 1.1//EN" "http://www.w3.org/Graphics/SVG/1.1/DTD/svg11.dtd">
<svg version="1.1" id="Layer_1" xmlns="http://www.w3.org/2000/svg" xmlns:xlink="http://www.w3.org/1999/xlink" x="0px" y="0px"
	 width="32px" height="32px" viewBox="0 0 32 32" enable-background="new 0 0 32 32" xml:space="preserve">
<title>kinesis-sink</title>
<path fill="#64953B" d="M8.939,15.116c0.699-0.411,1.341-0.311,1.696,0.238c0.355,0.55,0.191,1.185-0.522,1.621
	c-1.739,1.06-1.725,2.811-1.219,3.942c0.584,1.308,2.036,2.038,3.411,1.756c1.428-0.292,2.479-1.446,2.488-2.901
	c0.015-2.142,0.934-3.692,2.756-4.792c1.217-0.732,1.706-2.092,1.348-3.429c-0.345-1.274-1.5-2.212-2.792-2.266
	c-1.416-0.06-2.625,0.718-3.107,1.999c-0.479,1.272-0.081,2.664,1.03,3.549c0.231,0.185,0.461,0.363,0.541,0.661
	c0.125,0.472,0.04,0.902-0.366,1.199c-0.463,0.341-0.936,0.289-1.402-0.033c-1.821-1.26-2.64-3.727-1.951-5.896
	c0.649-2.041,2.565-3.557,4.649-3.677c2.274-0.132,4.299,1.06,5.233,3.082c0.899,1.946,0.514,4.276-0.974,5.843
	c-0.308,0.326-0.655,0.599-1.061,0.806c-1.19,0.608-1.825,1.621-1.755,2.923c0.127,2.315-1.868,4.946-4.783,5.165
	c-2.851,0.212-5.238-1.697-5.704-4.54c-0.042-0.269-0.039-0.541-0.056-0.812C6.478,17.633,7.247,16.109,8.939,15.116L8.939,15.116z
	 M16.988,22.693c0.228-0.517,0.705-0.717,1.375-0.547c0.279,0.069,0.546,0.193,0.813,0.307c1.465,0.602,3.028,0.074,3.813-1.284
	c0.787-1.369,0.46-3.075-0.772-4.026c-0.214-0.164-0.452-0.307-0.646-0.492c-0.461-0.441-0.541-0.979-0.239-1.407
	c0.319-0.455,0.892-0.595,1.452-0.307c1.941,1,2.838,2.664,2.816,4.787c-0.029,2.92-2.423,5.209-5.324,5.199
	c-0.991-0.01-1.916-0.256-2.754-0.794c-0.578-0.37-0.769-0.897-0.533-1.437V22.693z M16,0c8.822,0,16,7.177,16,16s-7.178,16-16,16
	C7.176,32,0,24.822,0,16C0,7.178,7.176,0,16,0z M16,31.359c8.471,0,15.359-6.889,15.359-15.359c0-8.47-6.889-15.36-15.359-15.36
	C7.53,0.64,0.64,7.53,0.64,16C0.64,24.471,7.53,31.359,16,31.359z"/>
</svg>
