<?xml version="1.0" encoding="utf-8"?>
<!-- Generator: Adobe Illustrator 16.0.0, SVG Export Plug-In . SVG Version: 6.00 Build 0)  -->
<!DOCTYPE svg PUBLIC "-//W3C//DTD SVG 1.1//EN" "http://www.w3.org/Graphics/SVG/1.1/DTD/svg11.dtd">
<svg version="1.1" id="Layer_1" xmlns="http://www.w3.org/2000/svg" xmlns:xlink="http://www.w3.org/1999/xlink" x="0px" y="0px"
	 width="32px" height="32px" viewBox="0 0 32 32" enable-background="new 0 0 32 32" xml:space="preserve">
<title>kinesis-source</title>
<path fill="#3272A0" d="M8.938,15.116c0.7-0.411,1.343-0.311,1.697,0.238c0.355,0.55,0.191,1.185-0.523,1.621
	c-1.739,1.059-1.724,2.81-1.218,3.943c0.583,1.307,2.036,2.038,3.411,1.756c1.428-0.292,2.478-1.445,2.487-2.902
	c0.015-2.141,0.934-3.693,2.756-4.792c1.216-0.732,1.708-2.092,1.347-3.429c-0.344-1.274-1.498-2.212-2.792-2.266
	c-1.416-0.06-2.624,0.718-3.107,1.999c-0.479,1.272-0.08,2.664,1.03,3.549c0.231,0.185,0.461,0.363,0.541,0.661
	c0.125,0.472,0.04,0.902-0.366,1.199c-0.463,0.341-0.936,0.289-1.402-0.033c-1.821-1.26-2.641-3.727-1.951-5.896
	c0.65-2.041,2.564-3.557,4.65-3.677c2.273-0.132,4.298,1.06,5.232,3.082c0.9,1.946,0.514,4.276-0.973,5.843
	c-0.308,0.326-0.656,0.599-1.06,0.806c-1.191,0.609-1.827,1.621-1.755,2.924c0.127,2.314-1.869,4.947-4.783,5.164
	c-2.851,0.214-5.238-1.696-5.703-4.54c-0.044-0.267-0.04-0.541-0.058-0.812C6.478,17.633,7.246,16.109,8.938,15.116L8.938,15.116z
	 M16.988,22.693c0.228-0.514,0.705-0.717,1.375-0.547c0.279,0.07,0.548,0.195,0.813,0.308c1.464,0.601,3.03,0.075,3.812-1.284
	c0.787-1.369,0.46-3.074-0.772-4.025c-0.214-0.166-0.45-0.308-0.646-0.494c-0.461-0.441-0.541-0.979-0.239-1.407
	c0.319-0.455,0.892-0.595,1.452-0.307c1.943,1,2.838,2.664,2.816,4.785c-0.029,2.92-2.422,5.209-5.324,5.201
	c-0.991-0.01-1.916-0.256-2.754-0.794C16.943,23.758,16.754,23.229,16.988,22.693L16.988,22.693z M16,0C7.176,0,0,7.177,0,16
	s7.176,16,16,16c8.822,0,16-7.178,16-16C32,7.178,24.822,0,16,0z M16,31.359C7.53,31.359,0.64,24.471,0.64,16
	C0.64,7.53,7.53,0.64,16,0.64c8.471,0,15.359,6.89,15.359,15.36C31.359,24.471,24.471,31.359,16,31.359z"/>
</svg>
