<?xml version="1.0" encoding="utf-8"?>
<!-- Generator: Adobe Illustrator 16.0.0, SVG Export Plug-In . SVG Version: 6.00 Build 0)  -->
<!DOCTYPE svg PUBLIC "-//W3C//DTD SVG 1.1//EN" "http://www.w3.org/Graphics/SVG/1.1/DTD/svg11.dtd">
<svg version="1.1" id="Layer_1" xmlns="http://www.w3.org/2000/svg" xmlns:xlink="http://www.w3.org/1999/xlink" x="0px" y="0px"
	 width="50px" height="50px" viewBox="0 0 50 50" enable-background="new 0 0 50 50" xml:space="preserve">
<path fill="#3272A0" d="M25,0c13.785,0,25,11.214,25,25c0,13.785-11.215,25-25,25C11.213,50,0,38.785,0,25C0,11.214,11.213,0,25,0
	 M25,49c13.234,0,24-10.766,24-24C49,11.766,38.234,1,25,1C11.766,1,1,11.766,1,25C1,38.234,11.766,49,25,49 M24.997,9.048
	C15.608,9.048,8,16.43,8,25.534V32.6c0,1.301,1.087,2.354,2.425,2.354c1.339,0,2.433-1.053,2.433-2.354v-7.064
	c0-1.301,1.083-2.356,2.427-2.356c1.339,0,2.428,1.055,2.428,2.356V32.6c0,1.301,1.086,2.354,2.427,2.354
	c1.341,0,2.43-1.053,2.43-2.354v-7.064c0-1.301,1.088-2.356,2.427-2.356c1.345,0,2.435,1.055,2.435,2.356V32.6
	c0,1.301,1.086,2.354,2.424,2.354c1.34,0,2.428-1.053,2.428-2.354v-7.064c0-1.301,1.088-2.356,2.433-2.356
	c1.341,0,2.429,1.055,2.429,2.356V32.6c0,1.301,1.086,2.354,2.431,2.354c1.339,0,2.427-1.053,2.427-2.354v-7.064
	C42,16.43,34.389,9.048,24.997,9.048"/>
</svg>
