<?xml version="1.0" encoding="utf-8"?>
<!-- Generator: Adobe Illustrator 16.0.0, SVG Export Plug-In . SVG Version: 6.00 Build 0)  -->
<!DOCTYPE svg PUBLIC "-//W3C//DTD SVG 1.1//EN" "http://www.w3.org/Graphics/SVG/1.1/DTD/svg11.dtd">
<svg version="1.1" id="Layer_1" xmlns="http://www.w3.org/2000/svg" xmlns:xlink="http://www.w3.org/1999/xlink" x="0px" y="0px"
	 width="32px" height="32px" viewBox="0 0 32 32" enable-background="new 0 0 32 32" xml:space="preserve">
<title>lda</title>
<path fill="#3272A0" d="M32,16L16,32L0,16L16,0L32,16z M16,0.576L0.64,15.936L16,31.296l15.359-15.36L16,0.576z M9.728,13.376h0.704
	v4.608h2.24v0.576h-2.88v-5.185H9.728z M13.376,13.44c0.384-0.064,0.896-0.128,1.408-0.128c0.96,0,1.664,0.256,2.112,0.64
	c0.446,0.448,0.767,1.024,0.767,1.856c0,0.833-0.255,1.536-0.767,1.985c-0.513,0.512-1.28,0.768-2.305,0.768
	c-0.512,0-0.896,0-1.216-0.064V13.44z M14.016,18.047c0.192,0,0.384,0,0.704,0c1.408,0,2.176-0.768,2.176-2.175
	c0-1.216-0.706-1.984-2.112-1.984c-0.32,0-0.576,0-0.768,0.064V18.047z M19.2,16.896l-0.513,1.6h-0.703l1.791-5.184h0.769
	l1.793,5.184h-0.705l-0.575-1.6H19.2z M20.865,16.384l-0.514-1.472c-0.127-0.32-0.191-0.64-0.254-0.96l0,0
	c-0.065,0.32-0.129,0.64-0.257,0.96l-0.512,1.472H20.865z"/>
</svg>
