<?xml version="1.0" encoding="utf-8"?>
<!-- Generator: Adobe Illustrator 16.0.0, SVG Export Plug-In . SVG Version: 6.00 Build 0)  -->
<!DOCTYPE svg PUBLIC "-//W3C//DTD SVG 1.1//EN" "http://www.w3.org/Graphics/SVG/1.1/DTD/svg11.dtd">
<svg version="1.1" id="Layer_1" xmlns="http://www.w3.org/2000/svg" xmlns:xlink="http://www.w3.org/1999/xlink" x="0px" y="0px"
	 width="32px" height="32px" viewBox="0 0 32 32" enable-background="new 0 0 32 32" xml:space="preserve">
<title>linear-regression</title>
<path fill="#3272A0" d="M32,16L16,32L0,16L16,0L32,16z M16,0.64L0.64,16L16,31.359L31.359,16L16,0.64z M19.52,6.528L19.264,6.4
	l-7.296,18.752l0.256,0.063L19.52,6.528z M19.775,8.576c-0.575,0-1.088,0.512-1.088,1.088s0.513,1.152,1.088,1.152
	c0.576,0,1.088-0.512,1.088-1.088S20.416,8.576,19.775,8.576z M11.072,22.271c-0.576,0-1.088,0.513-1.088,1.088
	c0,0.576,0.512,1.089,1.088,1.089c0.576,0,1.088-0.513,1.088-1.089C12.16,22.784,11.712,22.271,11.072,22.271z M17.088,14.72
	c-0.576,0-1.088,0.512-1.088,1.088c0,0.576,0.512,1.088,1.088,1.088s1.088-0.513,1.088-1.088
	C18.24,15.296,17.729,14.72,17.088,14.72z M17.088,6.4C16.512,6.4,16,6.912,16,7.488c0,0.576,0.512,1.088,1.088,1.088
	s1.088-0.512,1.088-1.088C18.176,6.912,17.729,6.4,17.088,6.4z M17.6,11.456c-0.576,0-1.088,0.512-1.088,1.088
	s0.512,1.088,1.088,1.088s1.088-0.512,1.088-1.088C18.752,12.032,18.24,11.456,17.6,11.456z M13.248,19.712
	c-0.576,0-1.088,0.513-1.088,1.088c0,0.576,0.512,1.089,1.088,1.089s1.088-0.513,1.088-1.089
	C14.336,20.225,13.888,19.712,13.248,19.712z M15.616,17.152c-0.576,0-1.088,0.512-1.088,1.088s0.512,1.152,1.088,1.152
	c0.576,0,1.088-0.513,1.088-1.088C16.704,17.729,16.256,17.152,15.616,17.152z M15.424,21.184c-0.576,0-1.088,0.512-1.088,1.088
	s0.512,1.088,1.088,1.088c0.576,0,1.088-0.512,1.088-1.088S16.064,21.184,15.424,21.184z M18.176,17.152
	c-0.576,0-1.088,0.512-1.088,1.088s0.512,1.088,1.088,1.088s1.088-0.512,1.088-1.088S18.816,17.152,18.176,17.152z M14.656,12.544
	c-0.576,0-1.088,0.512-1.088,1.088c0,0.576,0.512,1.152,1.088,1.152c0.576,0,1.088-0.512,1.088-1.088
	C15.744,13.12,15.296,12.544,14.656,12.544z M13.568,16c-0.576,0-1.088,0.512-1.088,1.088s0.512,1.152,1.088,1.152
	c0.576,0,1.088-0.512,1.088-1.088S14.208,16,13.568,16z M16.512,9.216c-0.576,0-1.088,0.512-1.088,1.088
	c0,0.576,0.512,1.152,1.088,1.152c0.576,0,1.088-0.512,1.088-1.088C17.6,9.792,17.152,9.216,16.512,9.216z M13.568,23.04
	c-0.576,0-1.088,0.512-1.088,1.088s0.512,1.151,1.088,1.151c0.576,0,1.088-0.512,1.088-1.088
	C14.656,23.616,14.208,23.04,13.568,23.04z M19.52,13.248c-0.576,0-1.088,0.512-1.088,1.088s0.512,1.152,1.088,1.152
	s1.088-0.512,1.088-1.088C20.607,13.824,20.16,13.248,19.52,13.248z M13.952,9.216c-0.576,0-1.088,0.512-1.088,1.088
	c0,0.576,0.512,1.152,1.088,1.152c0.576,0,1.088-0.512,1.088-1.088C15.04,9.792,14.592,9.216,13.952,9.216z M11.072,17.473
	c-0.576,0-1.088,0.512-1.088,1.088c0,0.575,0.512,1.151,1.088,1.151c0.576,0,1.088-0.512,1.088-1.088S11.712,17.473,11.072,17.473z
	 M12.48,13.248c-0.576,0-1.088,0.512-1.088,1.088s0.512,1.152,1.088,1.152s1.088-0.512,1.088-1.088
	C13.568,13.824,13.12,13.248,12.48,13.248z M17.088,19.008c-0.576,0-1.088,0.512-1.088,1.088s0.512,1.152,1.088,1.152
	s1.088-0.512,1.088-1.088S17.729,19.008,17.088,19.008z"/>
</svg>
