<?xml version="1.0" encoding="utf-8"?>
<!-- Generator: Adobe Illustrator 16.0.0, SVG Export Plug-In . SVG Version: 6.00 Build 0)  -->
<!DOCTYPE svg PUBLIC "-//W3C//DTD SVG 1.1//EN" "http://www.w3.org/Graphics/SVG/1.1/DTD/svg11.dtd">
<svg version="1.1" id="Layer_1" xmlns="http://www.w3.org/2000/svg" xmlns:xlink="http://www.w3.org/1999/xlink" x="0px" y="0px"
	 width="32px" height="32px" viewBox="0 0 32 32" enable-background="new 0 0 32 32" xml:space="preserve">
<title>log-file</title>
<path fill="#3272A0" d="M3.898,16.005c0-3.787-0.001-7.573,0.001-11.36c0.001-1.999,1.14-3.699,2.968-4.35
	c0.481-0.172,1.012-0.278,1.521-0.281c3.88-0.023,7.761-0.013,11.641-0.006c0.119,0,0.266,0.058,0.357,0.138
	c2.527,2.223,5.051,4.452,7.57,6.686c0.076,0.067,0.136,0.197,0.136,0.298c0.007,6.823,0.015,13.646,0.001,20.468
	c-0.005,2.396-2.057,4.399-4.455,4.4C18.588,32.001,13.539,32,8.491,32c-2.476-0.001-4.406-1.805-4.576-4.277
	c-0.011-0.162-0.016-0.322-0.016-0.486C3.897,23.494,3.897,19.75,3.898,16.005L3.898,16.005z M19.561,1.308
	c-0.123,0-0.207,0-0.291,0c-3.591,0-7.184-0.001-10.774,0.002c-0.203,0-0.411,0.012-0.61,0.049c-1.61,0.307-2.672,1.604-2.672,3.268
	c-0.002,7.592-0.001,15.184-0.001,22.775c0,0.061,0.001,0.119,0.003,0.18c0.07,1.759,1.487,3.121,3.248,3.121
	c5.025,0.001,10.049,0.001,15.073,0c1.815,0,3.255-1.426,3.256-3.241c0.004-6.56,0.001-13.119,0.006-19.679
	c0.001-0.226-0.062-0.288-0.286-0.287c-1.63,0.009-3.26,0.008-4.889,0.001c-0.253-0.001-0.514-0.025-0.76-0.082
	c-0.836-0.193-1.329-0.84-1.313-1.647c0.03-1.381,0.008-2.764,0.008-4.145c0-0.092,0-0.184,0-0.314L19.561,1.308z M7.668,9.46
	c5.556,0,11.102,0,16.662,0c0,0.428,0,0.842,0,1.278c-5.548,0-11.092,0-16.662,0C7.668,10.32,7.668,9.893,7.668,9.46z
	 M24.337,14.234c-5.562,0-11.111,0-16.675,0c0-0.42,0-0.835,0-1.27c5.558,0,11.113,0,16.675,0
	C24.337,13.393,24.337,13.807,24.337,14.234z M8.878,24.771h3.165v1.584H7.295v-7.914h1.583V24.771z M18.374,26.355h-4.748v-7.914
	h4.748V26.355z M16.791,20.023h-1.583v4.748h1.583V20.023z M19.957,18.441h4.748v1.582H21.54v4.748h1.583v-3.164h1.583v4.748h-4.748
	L19.957,18.441L19.957,18.441z"/>
</svg>
