<?xml version="1.0" encoding="utf-8"?>
<!-- Generator: Adobe Illustrator 16.0.0, SVG Export Plug-In . SVG Version: 6.00 Build 0)  -->
<!DOCTYPE svg PUBLIC "-//W3C//DTD SVG 1.1//EN" "http://www.w3.org/Graphics/SVG/1.1/DTD/svg11.dtd">
<svg version="1.1" id="Layer_1" xmlns="http://www.w3.org/2000/svg" xmlns:xlink="http://www.w3.org/1999/xlink" x="0px" y="0px"
	 width="32px" height="32px" viewBox="0 0 32 32" enable-background="new 0 0 32 32" xml:space="preserve">
<title>logistic-regression</title>
<path fill="#3272A0" d="M32,16L16,32L0,16L16,0L32,16z M16,0.64L0.64,16L16,31.359L31.359,16L16,0.64z M21.824,9.472l0.064,0.704
	c-5.248-5.184-5.313,15.104-11.841,12.288l-0.192-0.64C16.192,24.641,16.32,4.288,21.824,9.472L21.824,9.472z M13.952,13.568
	c0.576,0,0.96,0.448,0.96,0.96c0,0.512-0.448,0.96-0.96,0.96c-0.512,0-0.96-0.448-0.96-0.96
	C12.992,14.016,13.44,13.568,13.952,13.568z M16.512,18.688c0.576,0,0.961,0.448,0.961,0.961c0,0.512-0.449,0.959-0.961,0.959
	s-0.96-0.447-0.96-0.959C15.552,19.136,16,18.688,16.512,18.688z M17.152,8.448c0.576,0,1.023,0.384,0.959,0.96
	c0,0.512-0.447,0.96-0.959,0.96s-0.96-0.448-0.96-0.96C16.192,8.896,16.641,8.448,17.152,8.448z M19.072,13.568
	c0.576,0,0.96,0.448,0.96,0.96c0,0.512-0.448,0.96-0.96,0.96s-0.961-0.448-0.961-0.96C18.111,14.016,18.561,13.568,19.072,13.568z
	 M15.872,11.648c0.576,0,0.96,0.448,0.96,0.96c0,0.512-0.448,0.96-0.96,0.96c-0.512,0-0.96-0.448-0.96-0.96
	C14.912,12.096,15.36,11.648,15.872,11.648z M10.752,16.128c0.576,0,0.96,0.448,0.96,0.96s-0.448,0.96-0.96,0.96
	c-0.512,0-0.96-0.448-0.96-0.96S10.24,16.128,10.752,16.128z M13.312,17.408c0.576,0,0.96,0.447,0.96,0.96
	c0,0.512-0.448,0.96-0.96,0.96s-0.96-0.448-0.96-0.96C12.352,17.855,12.8,17.408,13.312,17.408z M17.152,14.848
	c0.576,0,0.959,0.448,0.959,0.96c0,0.512-0.447,0.959-0.959,0.959s-0.96-0.448-0.96-0.959
	C16.192,15.296,16.641,14.848,17.152,14.848z M19.072,17.408c0.576,0,0.96,0.447,0.96,0.96c0,0.512-0.448,0.96-0.96,0.96
	s-0.961-0.448-0.961-0.96C18.111,17.855,18.561,17.408,19.072,17.408z M14.592,21.248c0.576,0,1.024,0.384,0.96,0.96
	c0,0.513-0.448,0.96-0.96,0.96c-0.512,0-0.96-0.447-0.96-0.96S14.08,21.248,14.592,21.248z M20.352,10.368
	c0.576,0,0.961,0.448,0.961,0.96c0,0.512-0.449,0.96-0.961,0.96s-0.959-0.448-0.959-0.96C19.393,10.816,19.84,10.368,20.352,10.368z
	 M10.752,19.968c0.576,0,1.024,0.384,0.96,0.96c0,0.512-0.448,0.961-0.96,0.961c-0.512,0-0.96-0.449-0.96-0.961
	S10.24,19.968,10.752,19.968z"/>
</svg>
