<?xml version="1.0" encoding="utf-8"?>
<!-- Generator: Adobe Illustrator 16.0.0, SVG Export Plug-In . SVG Version: 6.00 Build 0)  -->
<!DOCTYPE svg PUBLIC "-//W3C//DTD SVG 1.1//EN" "http://www.w3.org/Graphics/SVG/1.1/DTD/svg11.dtd">
<svg version="1.1" id="Layer_1" xmlns="http://www.w3.org/2000/svg" xmlns:xlink="http://www.w3.org/1999/xlink" x="0px" y="0px"
	 width="32px" height="32px" viewBox="0 0 32 32" enable-background="new 0 0 32 32" xml:space="preserve">
<title>map-marker-train</title>
<path fill="#3272A0" d="M14.279,12.251c-0.004,0.514-0.42,0.936-0.919,0.932c-0.484-0.003-0.87-0.415-0.87-0.929
	c0-0.499,0.401-0.901,0.898-0.9C13.901,11.355,14.283,11.739,14.279,12.251L14.279,12.251z M19.438,7.373
	c0-0.536,0.002-1.071-0.002-1.606c-0.004-0.519-0.388-0.948-0.895-0.952c-1.693-0.012-3.387-0.008-5.079-0.001
	c-0.411,0.002-0.885,0.427-0.895,0.809c-0.017,0.634-0.017,1.27,0.005,1.905c0.015,0.43,0.366,0.733,0.787,0.733
	c0.871-0.001,1.743,0,2.614,0c0-0.004,0-0.008,0-0.012c0.859,0,1.718,0.004,2.577-0.001C19.178,8.244,19.436,7.984,19.438,7.373
	L19.438,7.373z M14.581,4.434c0.474,0.01,0.947,0.002,1.42,0.002s0.947,0.008,1.42-0.003c0.376-0.008,0.483-0.149,0.483-0.591
	c0-0.413-0.108-0.564-0.467-0.568c-0.959-0.01-1.918-0.01-2.877,0c-0.358,0.004-0.467,0.157-0.466,0.571
	C14.094,4.286,14.202,4.426,14.581,4.434L14.581,4.434z M19.51,12.254c0.004-0.497-0.402-0.902-0.9-0.901
	c-0.517,0.001-0.92,0.383-0.922,0.877c-0.004,0.522,0.396,0.946,0.896,0.953C19.084,13.19,19.507,12.766,19.51,12.254z
	 M25.68,12.037c-0.271,1.18-0.813,2.234-1.354,3.304c-2.466,4.882-4.894,9.779-7.335,14.673c-0.328,0.657-0.641,1.324-0.961,1.987
	c-0.02,0-0.042,0-0.063,0c-0.241-0.505-0.474-1.012-0.723-1.511C12.73,25.445,10.225,20.4,7.69,15.369
	c-0.502-0.995-1.025-1.969-1.306-3.057C5.011,6.994,8.413,1.438,13.78,0.256c0.475-0.106,0.957-0.171,1.437-0.255
	c0.52,0,1.041,0,1.563,0c0.479,0.084,0.963,0.148,1.437,0.253c5.261,1.158,8.664,6.544,7.462,11.784L25.68,12.037z M21.232,17.6
	c-0.467-0.731-0.931-1.462-1.399-2.195c-0.239-0.373-0.483-0.744-0.72-1.107c0.044-0.047,0.057-0.07,0.076-0.083
	c0.043-0.026,0.088-0.051,0.133-0.068c0.937-0.359,1.3-1.041,1.285-2.036c-0.034-2.427-0.049-4.854,0.006-7.28
	c0.023-0.995-0.924-1.988-1.959-1.95c-1.565,0.058-3.135,0.013-4.703,0.017c-0.348,0.001-0.7-0.011-1.043,0.035
	c-0.811,0.109-1.5,0.886-1.503,1.7c-0.008,2.639-0.009,5.277,0.007,7.915c0.001,0.244,0.111,0.505,0.228,0.728
	c0.262,0.499,0.702,0.812,1.252,1c-0.423,0.649-0.828,1.258-1.223,1.875c-0.307,0.481-0.602,0.966-0.902,1.451
	c0.449,0,0.897,0,1.345,0c0.467-0.629,0.927-1.264,1.407-1.879c0.077-0.099,0.244-0.177,0.37-0.177c1.406-0.012,2.813-0.012,4.218,0
	c0.127,0.001,0.295,0.079,0.371,0.177c0.479,0.616,0.939,1.25,1.405,1.879C20.334,17.6,20.783,17.6,21.232,17.6L21.232,17.6z"/>
</svg>
