<?xml version="1.0" encoding="utf-8"?>
<!-- Generator: Adobe Illustrator 16.0.0, SVG Export Plug-In . SVG Version: 6.00 Build 0)  -->
<!DOCTYPE svg PUBLIC "-//W3C//DTD SVG 1.1//EN" "http://www.w3.org/Graphics/SVG/1.1/DTD/svg11.dtd">
<svg version="1.1" id="Layer_1" xmlns="http://www.w3.org/2000/svg" xmlns:xlink="http://www.w3.org/1999/xlink" x="0px" y="0px"
	 width="32px" height="32px" viewBox="0 0 32 32" enable-background="new 0 0 32 32" xml:space="preserve">
<title>map-marker-train-station</title>
<path fill="#3272A0" d="M15.967,32c-0.241-0.505-0.474-1.012-0.723-1.511c-2.513-5.044-5.018-10.091-7.553-15.121
	c-0.502-0.995-1.025-1.969-1.306-3.057C5.012,6.993,8.414,1.437,13.781,0.255c0.475-0.106,0.957-0.17,1.437-0.254
	c0.52,0,1.041,0,1.562,0c0.479,0.084,0.964,0.148,1.438,0.253c5.262,1.158,8.664,6.544,7.463,11.784
	c-0.271,1.18-0.813,2.234-1.354,3.304c-2.466,4.881-4.894,9.779-7.334,14.674c-0.328,0.656-0.641,1.323-0.961,1.986
	C16.01,32.001,15.988,32.001,15.967,32L15.967,32z M22.448,7.151c-0.757-3.59-3.649-5.406-7.299-4.997
	c-3.181,0.358-5.166,2.383-5.62,5.244C9.485,7.677,9.437,7.955,9.391,8.233c0,0.774,0,1.548,0,2.322
	c0.012,0.149,0.031,0.298,0.033,0.447c0.017,1.505,0.032,3.009,0.044,4.515c0.001,0.102-0.013,0.204-0.02,0.307
	c0.547,0,0.454,0,1.002,0c0.01-0.111,0.028-0.223,0.028-0.333c0.008-2.387-0.02-4.776,0.029-7.161c0.057-2.7,2.433-5.31,5.578-5.267
	c3.028,0.042,5.374,2.602,5.416,5.351c0.034,2.358,0.017,4.717,0.022,7.076c0,0.111,0.019,0.223,0.028,0.333c0.566,0,0.492,0,1.06,0
	c0-2.586,0-5.172,0-7.759C22.557,7.761,22.512,7.454,22.448,7.151L22.448,7.151z M18.359,13.32c0.033-0.036,0.045-0.052,0.06-0.062
	c0.031-0.019,0.065-0.038,0.101-0.052c0.709-0.272,0.983-0.788,0.973-1.543c-0.026-1.839-0.038-3.678,0.005-5.517
	c0.017-0.754-0.701-1.507-1.485-1.478c-1.187,0.044-2.377,0.01-3.565,0.013c-0.264,0.001-0.531-0.009-0.79,0.027
	c-0.614,0.083-1.136,0.671-1.138,1.289c-0.006,1.999-0.007,3.998,0.006,5.997c0.001,0.186,0.084,0.383,0.173,0.551
	c0.199,0.38,0.532,0.616,0.948,0.759c-0.321,0.492-0.627,0.954-0.927,1.421c-0.232,0.362-0.456,0.732-0.684,1.098
	c0.34,0,0.68,0,1.02,0c0.354-0.476,0.703-0.956,1.066-1.424c0.058-0.075,0.185-0.133,0.28-0.134c1.066-0.01,2.132-0.01,3.197,0
	c0.096,0.001,0.223,0.06,0.28,0.134c0.364,0.467,0.713,0.948,1.065,1.424c0.341,0,0.681,0,1.021,0
	c-0.353-0.554-0.705-1.109-1.06-1.663c-0.182-0.282-0.368-0.563-0.547-0.839L18.359,13.32z M14.909,4.966
	c0.727-0.008,1.453-0.008,2.18,0c0.272,0.003,0.356,0.118,0.354,0.431c0,0.335-0.082,0.442-0.366,0.448
	c-0.358,0.008-0.717,0.003-1.075,0.003c-0.36,0-0.717,0.005-1.076-0.002c-0.287-0.006-0.369-0.113-0.369-0.447
	C14.556,5.085,14.639,4.97,14.909,4.966L14.909,4.966z M13.999,12.475c-0.367-0.003-0.66-0.314-0.66-0.704
	c0-0.379,0.305-0.683,0.68-0.683c0.388,0.001,0.679,0.293,0.676,0.68C14.692,12.158,14.377,12.478,13.999,12.475z M15.98,8.745
	c-0.66,0-1.32,0-1.981,0c-0.319,0-0.586-0.229-0.597-0.556c-0.016-0.481-0.016-0.963-0.004-1.443
	c0.008-0.289,0.367-0.612,0.678-0.612c1.283-0.006,2.566-0.008,3.849,0.001c0.386,0.003,0.677,0.328,0.681,0.721
	c0.002,0.406,0.002,0.812,0,1.217c0,0.464-0.196,0.66-0.672,0.664c-0.652,0.004-1.303,0.001-1.954,0.001
	C15.98,8.741,15.98,8.744,15.98,8.745L15.98,8.745z M17.279,11.752c0.003-0.373,0.307-0.663,0.699-0.664
	c0.379-0.001,0.685,0.307,0.682,0.684c-0.001,0.387-0.322,0.708-0.7,0.703C17.579,12.47,17.275,12.149,17.279,11.752z"/>
</svg>
