<?xml version="1.0" encoding="utf-8"?>
<!-- Generator: Adobe Illustrator 16.0.0, SVG Export Plug-In . SVG Version: 6.00 Build 0)  -->
<!DOCTYPE svg PUBLIC "-//W3C//DTD SVG 1.1//EN" "http://www.w3.org/Graphics/SVG/1.1/DTD/svg11.dtd">
<svg version="1.1" id="Layer_1" xmlns="http://www.w3.org/2000/svg" xmlns:xlink="http://www.w3.org/1999/xlink" x="0px" y="0px"
	 width="32px" height="32px" viewBox="0 0 32 32" enable-background="new 0 0 32 32" xml:space="preserve">
<title>map-marker</title>
<path fill="#3272A0" d="M15.967,32c-0.241-0.504-0.474-1.012-0.723-1.511c-2.513-5.044-5.018-10.091-7.553-15.121
	c-0.502-0.995-1.025-1.969-1.306-3.057C5.012,6.993,8.414,1.437,13.781,0.255c0.475-0.105,0.957-0.17,1.437-0.254
	c0.52,0,1.042,0,1.562,0c0.479,0.084,0.964,0.149,1.438,0.253c5.262,1.158,8.664,6.544,7.463,11.784
	c-0.271,1.18-0.813,2.234-1.354,3.304c-2.466,4.881-4.894,9.779-7.334,14.674c-0.328,0.657-0.641,1.323-0.961,1.986
	C16.01,32.001,15.988,32.001,15.967,32L15.967,32z M15.985,15.01c2.742-0.001,4.917-2.176,4.919-4.918
	c0.003-2.682-2.215-4.902-4.891-4.895c-2.733,0.007-4.917,2.195-4.921,4.929C11.086,12.813,13.29,15.011,15.985,15.01L15.985,15.01z
	"/>
</svg>
