<?xml version="1.0" encoding="utf-8"?>
<!-- Generator: Adobe Illustrator 16.0.0, SVG Export Plug-In . SVG Version: 6.00 Build 0)  -->
<!DOCTYPE svg PUBLIC "-//W3C//DTD SVG 1.1//EN" "http://www.w3.org/Graphics/SVG/1.1/DTD/svg11.dtd">
<svg version="1.1" id="Layer_1" xmlns="http://www.w3.org/2000/svg" xmlns:xlink="http://www.w3.org/1999/xlink" x="0px" y="0px"
	 width="32px" height="32px" viewBox="0 0 32 32" enable-background="new 0 0 32 32" xml:space="preserve">
<title>map-reduce-deployment</title>
<path fill="#3272A0" d="M16,0c8.822,0,16,7.177,16,16s-7.178,16-16,16C7.176,32,0,24.822,0,16C0,7.178,7.176,0,16,0z M16,31.359
	c8.471,0,15.359-6.889,15.359-15.359c0-8.47-6.889-15.36-15.359-15.36C7.53,0.64,0.64,7.53,0.64,16
	C0.64,24.471,7.53,31.359,16,31.359z M14.235,17.535l0.446,1.113C14.25,18.82,13.82,18.952,13.4,19.04l-0.245-1.175
	C13.506,17.792,13.87,17.682,14.235,17.535L14.235,17.535z M10.665,18.973c0.44,0.127,0.902,0.195,1.376,0.202l0.019-1.198
	c-0.369-0.008-0.726-0.059-1.064-0.156L10.665,18.973L10.665,18.973z M20.113,16.879c0.347,0.068,0.684,0.188,1.003,0.352
	l0.551-1.065c-0.422-0.217-0.867-0.372-1.321-0.461L20.113,16.879L20.113,16.879z M17.609,15.896l0.361,1.144
	c0.365-0.115,0.729-0.188,1.077-0.216l-0.096-1.195C18.512,15.665,18.061,15.754,17.609,15.896L17.609,15.896L17.609,15.896z
	 M15.684,16.797c-0.135,0.085-0.267,0.163-0.397,0.234l0.584,1.048c0.147-0.083,0.296-0.17,0.447-0.263
	c0.206-0.127,0.409-0.241,0.605-0.342l-0.545-1.07C16.153,16.52,15.921,16.65,15.684,16.797L15.684,16.797L15.684,16.797z M19,9.32
	c0,0.49-0.117,0.954-0.326,1.361L16,15.919c0,0-2.696-5.282-2.707-5.304c-0.189-0.391-0.294-0.832-0.294-1.295c0-1.657,1.343-3,3-3
	C17.654,6.32,18.999,7.663,19,9.32L19,9.32L19,9.32z M17.8,9.32c0-0.994-0.806-1.8-1.8-1.8s-1.8,0.806-1.8,1.8
	c0,0.993,0.807,1.8,1.8,1.8S17.8,10.314,17.8,9.32L17.8,9.32z M22,12.32h-2.814l-0.612,1.201h2.563l1.295,3.886l-0.414,0.457
	c0.44,0.396,0.668,0.765,0.67,0.765l0.125-0.076l1.123,3.366H8.064l1.203-3.603c0.042,0.029,0.075,0.057,0.122,0.086l0.637-1.016
	c-0.143-0.09-0.26-0.179-0.363-0.262l1.203-3.605h2.564c-0.254-0.497-0.455-0.89-0.613-1.201h-2.815l-3.601,10.8h19.201L22,12.32
	L22,12.32z"/>
</svg>
