<?xml version="1.0" encoding="utf-8"?>
<!-- Generator: Adobe Illustrator 16.0.0, SVG Export Plug-In . SVG Version: 6.00 Build 0)  -->
<!DOCTYPE svg PUBLIC "-//W3C//DTD SVG 1.1//EN" "http://www.w3.org/Graphics/SVG/1.1/DTD/svg11.dtd">
<svg version="1.1" id="Layer_1" xmlns="http://www.w3.org/2000/svg" xmlns:xlink="http://www.w3.org/1999/xlink" x="0px" y="0px"
	 width="32px" height="32px" viewBox="0 0 32 32" enable-background="new 0 0 32 32" xml:space="preserve">
<title>merge</title>
<path fill="#64953B" d="M16,0C7.176,0,0,7.177,0,16s7.176,16,16,16c8.822,0,16-7.178,16-16C32,7.178,24.822,0,16,0z M16,31.359
	C7.53,31.359,0.64,24.471,0.64,16C0.64,7.53,7.53,0.64,16,0.64c8.471,0,15.359,6.89,15.359,15.36
	C31.359,24.471,24.471,31.359,16,31.359z M27.52,16.18c-1.168,0.884-2.338,1.765-3.506,2.653c-0.8,0.608-1.589,1.229-2.394,1.83
	c-0.125,0.094-0.313,0.108-0.472,0.159c-0.004-0.178-0.063-0.374-0.004-0.527c0.34-0.909,0.707-1.809,1.092-2.781
	c-0.215-0.012-0.385-0.027-0.553-0.027c-2.16-0.004-4.318,0.004-6.479-0.006c-0.604-0.004-1.059,0.307-1.472,0.681
	c-0.834,0.755-1.622,1.56-2.467,2.299c-1.938,1.698-4.208,2.546-6.786,2.562c0-0.99,0-1.98,0-2.972
	c0.765-0.11,1.554-0.146,2.294-0.35c2.11-0.591,3.386-2.313,4.957-3.707c-0.89-0.824-1.712-1.63-2.583-2.381
	c-1.334-1.15-2.906-1.689-4.668-1.662c0-0.99,0-1.98,0-2.97c3.05,0.004,5.554,1.242,7.679,3.366
	c0.635,0.634,1.292,1.253,2.004,1.796c0.319,0.243,0.796,0.385,1.204,0.392c2.216,0.036,4.433,0.017,6.651,0.015
	c0.056,0,0.108-0.016,0.215-0.033c-0.358-0.913-0.709-1.8-1.057-2.687c-0.044-0.11-0.109-0.221-0.119-0.336
	c-0.009-0.089,0.028-0.221,0.092-0.267c0.063-0.044,0.188-0.015,0.281,0.004c0.055,0.01,0.102,0.063,0.147,0.099
	c1.981,1.526,3.96,3.053,5.94,4.58C27.52,15.998,27.52,16.088,27.52,16.18L27.52,16.18z"/>
</svg>
