<?xml version="1.0" encoding="utf-8"?>
<!-- Generator: Adobe Illustrator 16.0.0, SVG Export Plug-In . SVG Version: 6.00 Build 0)  -->
<!DOCTYPE svg PUBLIC "-//W3C//DTD SVG 1.1//EN" "http://www.w3.org/Graphics/SVG/1.1/DTD/svg11.dtd">
<svg version="1.1" id="Layer_1" xmlns="http://www.w3.org/2000/svg" xmlns:xlink="http://www.w3.org/1999/xlink" x="0px" y="0px"
	 width="32px" height="32px" viewBox="0 0 32 32" enable-background="new 0 0 32 32" xml:space="preserve">
<title>message-notification</title>
<path fill="#3272A0" d="M24.32,32H7.68C3.413,32,0,28.588,0,24.32V7.68C0,3.413,3.413,0,7.68,0h16.64C28.587,0,32,3.413,32,7.68
	v16.64C32,28.588,28.587,32,24.32,32z M31.041,23.361V8.64c0-4.267-3.414-7.68-7.68-7.68H8.64c-4.267,0-7.68,3.413-7.68,7.68v14.721
	c0,4.266,3.413,7.68,7.68,7.68h14.721C27.627,31.041,31.041,27.627,31.041,23.361z M25.813,6.507H6.187
	c-0.533,0-0.853,0.427-0.853,0.853v13.867C5.333,21.761,5.76,22.08,6.187,22.08h10.879l4.268,3.094
	c0.533,0.426,1.066,0.215,1.066-0.533v-2.666h3.627c0.533,0,0.853-0.427,0.853-0.854V7.467C26.773,6.934,26.348,6.507,25.813,6.507z
	 M10.987,15.574c-0.747,0-1.387-0.641-1.387-1.387s0.64-1.387,1.387-1.387c0.747,0,1.387,0.64,1.387,1.387
	C12.373,14.933,11.84,15.574,10.987,15.574z M16,15.574c-0.747,0-1.387-0.641-1.387-1.387S15.253,12.8,16,12.8
	s1.387,0.64,1.387,1.387C17.387,14.933,16.747,15.574,16,15.574z M21.014,15.574c-0.746,0-1.388-0.641-1.388-1.387
	s0.642-1.387,1.388-1.387c0.748,0,1.387,0.64,1.387,1.387S21.762,15.574,21.014,15.574z"/>
</svg>
