<?xml version="1.0" encoding="utf-8"?>
<!-- Generator: Adobe Illustrator 16.0.0, SVG Export Plug-In . SVG Version: 6.00 Build 0)  -->
<!DOCTYPE svg PUBLIC "-//W3C//DTD SVG 1.1//EN" "http://www.w3.org/Graphics/SVG/1.1/DTD/svg11.dtd">
<svg version="1.1" id="Layer_1" xmlns="http://www.w3.org/2000/svg" xmlns:xlink="http://www.w3.org/1999/xlink" x="0px" y="0px"
	 width="32px" height="32px" viewBox="0 0 32 32" enable-background="new 0 0 32 32" xml:space="preserve">
<title>microsoft-azure</title>
<path fill="#3272A0" d="M16,0c8.822,0,16,7.177,16,16s-7.178,16-16,16C7.176,32,0,24.822,0,16C0,7.178,7.176,0,16,0z M16,31.359
	c8.471,0,15.359-6.889,15.359-15.359c0-8.47-6.889-15.36-15.359-15.36C7.53,0.64,0.64,7.53,0.64,16
	C0.64,24.471,7.53,31.359,16,31.359z M4.389,15.433c2.687-0.001,5.375-0.001,8.062-0.003c0.403,0,0.404-0.001,0.404-0.413
	c0-2.458,0-4.915,0-7.373c0-0.38-0.015-0.392-0.39-0.338c-0.015,0.002-0.031,0.006-0.047,0.008C10.73,7.546,9.042,7.776,7.354,8.01
	C6.365,8.147,5.378,8.292,4.389,8.434C4.389,10.766,4.389,13.099,4.389,15.433L4.389,15.433z M4.389,23.384
	c0.173,0.023,0.346,0.05,0.518,0.072c2.552,0.351,5.107,0.701,7.658,1.058c0.206,0.027,0.291-0.029,0.291-0.246
	c-0.004-2.506-0.004-5.012,0-7.519c0-0.207-0.08-0.276-0.282-0.276c-2.728,0.006-5.457,0.006-8.186,0.008
	C4.388,18.783,4.388,21.083,4.389,23.384L4.389,23.384z M25.003,26.24c0.015-0.064,0.045-0.126,0.045-0.191
	c0.003-3.189,0.003-6.38,0.003-9.568c-0.015,0.001-0.033,0.002-0.049,0.003C25.002,19.734,25.003,22.986,25.003,26.24z
	 M13.768,15.433c3.58-0.001,7.16-0.003,10.739-0.004c0.538-0.001,0.539-0.001,0.539-0.49c0-2.917,0-5.834,0-8.751
	c0-0.451-0.021-0.465-0.521-0.401c-0.02,0.002-0.041,0.007-0.062,0.01c-2.248,0.275-4.497,0.547-6.747,0.826
	c-1.316,0.163-2.633,0.335-3.948,0.504C13.769,9.895,13.769,12.664,13.768,15.433L13.768,15.433z M13.768,24.732
	c0.23,0.028,0.46,0.058,0.69,0.086c3.397,0.42,6.799,0.839,10.196,1.264c0.275,0.035,0.389-0.035,0.388-0.292
	c-0.004-2.996-0.004-5.993,0.001-8.989c0-0.246-0.107-0.329-0.377-0.328c-3.633,0.007-7.266,0.007-10.899,0.01
	c0.001,2.751,0.001,5.501,0.001,8.251V24.732z"/>
</svg>
