<?xml version="1.0" encoding="utf-8"?>
<!-- Generator: Adobe Illustrator 16.0.0, SVG Export Plug-In . SVG Version: 6.00 Build 0)  -->
<!DOCTYPE svg PUBLIC "-//W3C//DTD SVG 1.1//EN" "http://www.w3.org/Graphics/SVG/1.1/DTD/svg11.dtd">
<svg version="1.1" id="Layer_1" xmlns="http://www.w3.org/2000/svg" xmlns:xlink="http://www.w3.org/1999/xlink" x="0px" y="0px"
	 width="32px" height="32px" viewBox="0 0 32 32" enable-background="new 0 0 32 32" xml:space="preserve">
<title>model</title>
<path fill="#3272A0" d="M31.756,15.999L16.069,31.686L0.383,15.999L16.069,0.313L31.756,15.999z M16.069,0.941L1.01,16
	l15.059,15.059L31.128,16L16.069,0.941z M16.77,8.424c0.109-0.061,0.219-0.122,0.33-0.183c0.539,0.949,1.082,1.897,1.613,2.851
	c0.071,0.126,0.126,0.139,0.258,0.09c0.827-0.303,1.754,0.052,2.174,0.823c0.418,0.765,0.224,1.691-0.477,2.236
	c-0.094,0.073-0.107,0.12-0.046,0.226c0.511,0.893,1.017,1.788,1.517,2.686c0.06,0.104,0.107,0.121,0.223,0.087
	c1-0.302,2.041,0.284,2.268,1.269c0.238,1.025-0.425,2.003-1.475,2.174c-0.764,0.125-1.563-0.304-1.893-1.017
	c-0.334-0.72-0.146-1.572,0.471-2.084c0.115-0.095,0.131-0.156,0.055-0.289c-0.508-0.879-1.004-1.765-1.503-2.65
	c-0.05-0.09-0.087-0.141-0.216-0.099c-0.445,0.146-0.885,0.095-1.301-0.115c-0.108-0.055-0.152-0.05-0.207,0.068
	c-0.453,0.957-0.914,1.912-1.373,2.865c-0.047,0.096-0.043,0.147,0.043,0.224c0.559,0.495,0.766,1.116,0.556,1.833
	c-0.21,0.716-0.72,1.134-1.45,1.262c-0.777,0.139-1.589-0.314-1.909-1.049c-0.319-0.732-0.103-1.602,0.533-2.086
	c0.132-0.1,0.156-0.164,0.074-0.314c-0.491-0.913-0.969-1.829-1.448-2.746c-0.054-0.104-0.09-0.126-0.204-0.066
	c-0.42,0.216-0.865,0.272-1.318,0.124c-0.127-0.042-0.164,0.007-0.215,0.098c-0.503,0.897-1.008,1.793-1.517,2.687
	c-0.056,0.098-0.059,0.146,0.038,0.229c0.567,0.476,0.788,1.086,0.605,1.801c-0.184,0.721-0.672,1.158-1.404,1.31
	c-0.927,0.192-1.876-0.431-2.073-1.358c-0.203-0.953,0.389-1.896,1.327-2.105c0.325-0.073,0.649-0.069,0.965,0.04
	c0.099,0.034,0.143,0.019,0.194-0.072c0.509-0.909,1.021-1.815,1.537-2.719c0.051-0.09,0.043-0.132-0.04-0.198
	c-0.584-0.465-0.827-1.073-0.657-1.801c0.169-0.725,0.65-1.171,1.377-1.337c0.324-0.074,0.652-0.055,0.962,0.068
	c0.131,0.051,0.187,0.037,0.258-0.09c0.493-0.888,0.996-1.77,1.496-2.654c0.038-0.066,0.079-0.13,0.119-0.196
	c0.11,0.06,0.219,0.12,0.328,0.181c-0.54,0.957-1.079,1.914-1.619,2.869c-0.048,0.085-0.095,0.142,0.009,0.24
	c0.749,0.711,0.804,1.688,0.146,2.49c-0.06,0.072-0.065,0.12-0.023,0.2c0.514,0.97,1.025,1.942,1.534,2.915
	c0.046,0.088,0.087,0.114,0.191,0.086c0.34-0.098,0.685-0.096,1.019,0.022c0.136,0.048,0.191,0.028,0.255-0.104
	c0.452-0.956,0.911-1.911,1.373-2.864c0.056-0.114,0.046-0.184-0.038-0.284c-0.625-0.736-0.564-1.772,0.143-2.433
	c0.101-0.094,0.106-0.151,0.039-0.268c-0.545-0.953-1.084-1.911-1.623-2.866V8.424z M17.841,6.606
	c0.054,0.684-0.208,1.22-0.741,1.635c-0.111,0.061-0.221,0.121-0.332,0.183c-0.467,0.173-0.936,0.175-1.404-0.001
	c-0.109-0.06-0.218-0.12-0.328-0.181c-0.531-0.416-0.796-0.951-0.742-1.635c0.07-0.878,0.858-1.587,1.773-1.587
	C16.982,5.02,17.771,5.728,17.841,6.606z"/>
</svg>
