<?xml version="1.0" encoding="utf-8"?>
<!-- Generator: Adobe Illustrator 16.0.0, SVG Export Plug-In . SVG Version: 6.00 Build 0)  -->
<!DOCTYPE svg PUBLIC "-//W3C//DTD SVG 1.1//EN" "http://www.w3.org/Graphics/SVG/1.1/DTD/svg11.dtd">
<svg version="1.1" id="Layer_1" xmlns="http://www.w3.org/2000/svg" xmlns:xlink="http://www.w3.org/1999/xlink" x="0px" y="0px"
	 width="32px" height="32px" viewBox="0 0 32 32" enable-background="new 0 0 32 32" xml:space="preserve">
<title>mongo-db-deployment</title>
<path fill="#3272A0" d="M22.441,20.945c0.061,0.095,0.103,0.19,0.103,0.291v2.617c0.001,0.963-2.931,1.746-6.545,1.746
	c-3.615,0-6.545-0.783-6.545-1.746v-2.619c0-0.1,0.042-0.195,0.102-0.291c1.793,1.093,5.512,1.164,6.442,1.164
	C16.93,22.109,20.648,22.038,22.441,20.945L22.441,20.945z M16,17.745c-0.93,0-4.65-0.071-6.442-1.164
	c-0.06,0.095-0.102,0.192-0.102,0.291v2.619c0,0.964,2.93,1.745,6.545,1.745c3.615,0,6.545-0.781,6.545-1.745v-2.619
	c0-0.099-0.042-0.196-0.103-0.291C20.65,17.673,16.932,17.745,16,17.745z M16,13.382c-0.93,0-4.65-0.072-6.442-1.164
	c-0.06,0.095-0.102,0.192-0.102,0.292v2.618c0,0.964,2.93,1.745,6.545,1.745c3.615,0,6.545-0.781,6.545-1.745V12.51
	c0-0.1-0.042-0.196-0.103-0.292C20.65,13.31,16.932,13.382,16,13.382z M22.545,8.145v2.618c0,0.964-2.93,1.745-6.545,1.745
	s-6.545-0.781-6.545-1.745V8.145C9.455,7.181,12.385,6.4,16,6.4S22.545,7.181,22.545,8.145z M18.816,7.709
	c0-0.311-1.26-0.563-2.817-0.563c-1.557,0-2.817,0.253-2.817,0.563c0,0.311,1.261,0.563,2.817,0.563
	C17.557,8.273,18.816,8.02,18.816,7.709z M16,0C7.176,0,0,7.177,0,16s7.176,16,16,16c8.823,0,16-7.178,16-16C32,7.178,24.822,0,16,0
	z M16,31.359C7.53,31.359,0.64,24.471,0.64,16C0.64,7.53,7.53,0.64,16,0.64c8.471,0,15.359,6.89,15.359,15.36
	C31.359,24.471,24.471,31.359,16,31.359z"/>
</svg>
