<?xml version="1.0" encoding="utf-8"?>
<!-- Generator: Adobe Illustrator 16.0.0, SVG Export Plug-In . SVG Version: 6.00 Build 0)  -->
<!DOCTYPE svg PUBLIC "-//W3C//DTD SVG 1.1//EN" "http://www.w3.org/Graphics/SVG/1.1/DTD/svg11.dtd">
<svg version="1.1" id="Layer_1" xmlns="http://www.w3.org/2000/svg" xmlns:xlink="http://www.w3.org/1999/xlink" x="0px" y="0px"
	 width="32px" height="32px" viewBox="0 0 32 32" enable-background="new 0 0 32 32" xml:space="preserve">
<title>monitoring-services-deployment</title>
<path fill="#3272A0" d="M16,0c8.822,0,16,7.177,16,16s-7.178,16-16,16C7.176,32,0,24.822,0,16C0,7.178,7.176,0,16,0z M16,31.359
	c8.471,0,15.359-6.889,15.359-15.359c0-8.47-6.889-15.36-15.359-15.36C7.53,0.64,0.64,7.53,0.64,16
	C0.64,24.471,7.53,31.359,16,31.359z M24.536,8.769H7.464c-0.233,0-0.424,0.189-0.424,0.424v11.78c0,0.234,0.19,0.424,0.424,0.424
	h6.42v1.014c0,0.015,0.003,0.029,0.004,0.044h-0.922c-0.213,0-0.388,0.174-0.388,0.388c0,0.215,0.174,0.389,0.388,0.389h6.28
	c0.214,0,0.388-0.174,0.388-0.389s-0.174-0.388-0.388-0.388h-0.923c0.001-0.013,0.005-0.028,0.005-0.044v-1.014h6.209
	c0.234,0,0.423-0.189,0.423-0.424V9.192C24.959,8.958,24.77,8.768,24.536,8.769L24.536,8.769L24.536,8.769z M23.759,19.127
	c0,0.234-0.188,0.424-0.423,0.424H8.662c-0.234,0-0.423-0.189-0.423-0.424v-8.933c0-0.234,0.189-0.424,0.423-0.424h14.674
	c0.234,0,0.423,0.19,0.423,0.424V19.127z M19.596,14.152l-0.769-0.128c-0.056-0.228-0.138-0.447-0.243-0.651l0.491-0.611
	c0.106-0.129,0.1-0.314-0.011-0.439l-0.307-0.344c-0.109-0.124-0.294-0.15-0.435-0.062l-0.657,0.413
	c-0.289-0.202-0.616-0.351-0.971-0.438l-0.127-0.773c-0.027-0.164-0.169-0.284-0.335-0.284h-0.461c-0.166,0-0.308,0.12-0.334,0.284
	l-0.129,0.773c-0.292,0.072-0.567,0.187-0.817,0.339l-0.625-0.447c-0.134-0.095-0.319-0.081-0.437,0.037l-0.326,0.325
	c-0.117,0.118-0.132,0.303-0.036,0.438l0.447,0.626c-0.15,0.248-0.265,0.52-0.336,0.81l-0.777,0.13
	c-0.163,0.027-0.284,0.17-0.284,0.335v0.46c0,0.166,0.12,0.308,0.284,0.335l0.777,0.129c0.059,0.238,0.144,0.466,0.257,0.677
	l-0.49,0.607c-0.104,0.129-0.1,0.313,0.01,0.439l0.306,0.344c0.111,0.125,0.294,0.15,0.435,0.063l0.667-0.419
	c0.282,0.192,0.601,0.334,0.945,0.419l0.129,0.771c0.026,0.164,0.168,0.285,0.334,0.285h0.461c0.166,0,0.308-0.121,0.335-0.285
	l0.127-0.771c0.289-0.07,0.56-0.186,0.809-0.333l0.652,0.465c0.134,0.097,0.318,0.081,0.437-0.037l0.326-0.325
	c0.118-0.117,0.133-0.303,0.035-0.438l-0.463-0.65c0.151-0.248,0.267-0.522,0.337-0.812l0.77-0.129
	c0.164-0.028,0.283-0.169,0.283-0.335v-0.46c0-0.164-0.119-0.307-0.283-0.333l0,0H19.596z M16.012,16.173
	c-0.803,0-1.455-0.652-1.455-1.455c0-0.804,0.652-1.455,1.455-1.455c0.804,0,1.455,0.652,1.455,1.455
	C17.467,15.521,16.814,16.173,16.012,16.173L16.012,16.173z"/>
</svg>
