<?xml version="1.0" encoding="utf-8"?>
<!-- Generator: Adobe Illustrator 16.0.0, SVG Export Plug-In . SVG Version: 6.00 Build 0)  -->
<!DOCTYPE svg PUBLIC "-//W3C//DTD SVG 1.1//EN" "http://www.w3.org/Graphics/SVG/1.1/DTD/svg11.dtd">
<svg version="1.1" id="Layer_1" xmlns="http://www.w3.org/2000/svg" xmlns:xlink="http://www.w3.org/1999/xlink" x="0px" y="0px"
	 width="32px" height="32px" viewBox="0 0 32 32" enable-background="new 0 0 32 32" xml:space="preserve">
<title>monitoring-deployment</title>
<path fill="#3272A0" d="M16,0c8.822,0,16,7.177,16,16s-7.178,16-16,16C7.176,32,0,24.822,0,16C0,7.178,7.176,0,16,0z M16,31.359
	c8.471,0,15.359-6.889,15.359-15.359c0-8.47-6.889-15.36-15.359-15.36C7.53,0.64,0.64,7.53,0.64,16
	C0.64,24.471,7.53,31.359,16,31.359z M24.536,8.769H7.464c-0.234,0-0.424,0.189-0.424,0.424v11.782c0,0.233,0.19,0.422,0.424,0.422
	h6.42v1.014c0,0.016,0.003,0.031,0.004,0.044h-0.922c-0.213,0-0.387,0.175-0.387,0.388c0,0.215,0.174,0.389,0.387,0.389h6.28
	c0.214,0,0.387-0.174,0.387-0.389c0-0.213-0.173-0.388-0.387-0.388h-0.923c0.002-0.013,0.006-0.028,0.006-0.044v-1.014h6.207
	c0.233,0,0.424-0.189,0.424-0.422V9.192C24.959,8.958,24.77,8.769,24.536,8.769L24.536,8.769z M23.759,19.127
	c0,0.234-0.188,0.424-0.422,0.424H8.662c-0.234,0-0.422-0.189-0.422-0.424v-8.933c0-0.234,0.189-0.424,0.422-0.424h14.675
	c0.231,0,0.422,0.19,0.422,0.424V19.127z"/>
</svg>
