<?xml version="1.0" encoding="utf-8"?>
<!-- Generator: Adobe Illustrator 16.0.0, SVG Export Plug-In . SVG Version: 6.00 Build 0)  -->
<!DOCTYPE svg PUBLIC "-//W3C//DTD SVG 1.1//EN" "http://www.w3.org/Graphics/SVG/1.1/DTD/svg11.dtd">
<svg version="1.1" id="Layer_1" xmlns="http://www.w3.org/2000/svg" xmlns:xlink="http://www.w3.org/1999/xlink" x="0px" y="0px"
	 width="37px" height="32px" viewBox="0 0 37 32" enable-background="new 0 0 37 32" xml:space="preserve">
<title>mqtt-iot</title>
<path fill="#3272A0" d="M9.238,32L0,16L9.238,0h18.476l9.237,16l-9.237,16H9.238z M27.43,31.508l8.952-15.507L27.43,0.493H9.521
	L0.568,16.001l8.953,15.507H27.43z M14.97,30.336c0,0.018-0.005,0.034-0.014,0.047c-0.009,0.014-0.025,0.024-0.048,0.032
	c-0.023,0.008-0.052,0.015-0.088,0.021c-0.036,0.006-0.082,0.008-0.139,0.008c-0.053,0-0.098-0.002-0.135-0.008
	s-0.068-0.013-0.089-0.021c-0.022-0.008-0.037-0.019-0.047-0.032c-0.01-0.014-0.014-0.029-0.014-0.047v-3.754h-0.007l-1.519,3.771
	c-0.007,0.015-0.016,0.028-0.028,0.039c-0.012,0.012-0.03,0.021-0.053,0.028c-0.023,0.009-0.051,0.013-0.083,0.017
	c-0.032,0.004-0.07,0.006-0.115,0.006c-0.047,0-0.086-0.002-0.12-0.008c-0.034-0.004-0.061-0.011-0.083-0.018
	s-0.039-0.018-0.052-0.027c-0.013-0.012-0.02-0.023-0.025-0.037l-1.452-3.771h-0.003v3.754c0,0.019-0.005,0.034-0.014,0.047
	c-0.009,0.013-0.025,0.024-0.048,0.032s-0.052,0.014-0.089,0.02s-0.084,0.01-0.141,0.01c-0.055,0-0.101-0.004-0.137-0.01
	c-0.036-0.006-0.066-0.012-0.088-0.02s-0.036-0.018-0.045-0.032c-0.009-0.014-0.012-0.028-0.012-0.047v-3.964
	c0-0.094,0.024-0.16,0.074-0.2c0.05-0.04,0.105-0.06,0.166-0.06h0.352c0.072,0,0.135,0.007,0.189,0.02
	c0.054,0.014,0.101,0.035,0.142,0.063c0.041,0.029,0.074,0.065,0.102,0.111c0.028,0.045,0.051,0.096,0.071,0.155l1.232,3.121h0.017
	l1.282-3.11c0.024-0.068,0.052-0.123,0.081-0.171c0.029-0.047,0.061-0.084,0.097-0.11c0.036-0.027,0.074-0.049,0.117-0.061
	s0.093-0.018,0.149-0.018h0.369c0.034,0,0.066,0.005,0.096,0.015c0.03,0.011,0.057,0.026,0.078,0.047s0.039,0.048,0.052,0.08
	c0.013,0.032,0.02,0.072,0.02,0.118v3.965L14.97,30.336z M20.256,30.803c0,0.051-0.003,0.094-0.009,0.129
	c-0.006,0.033-0.015,0.061-0.024,0.079c-0.012,0.019-0.023,0.032-0.037,0.038c-0.013,0.006-0.026,0.01-0.039,0.01
	c-0.045,0-0.117-0.018-0.215-0.055c-0.1-0.037-0.214-0.09-0.343-0.16s-0.267-0.154-0.413-0.255c-0.146-0.1-0.289-0.217-0.426-0.35
	c-0.109,0.067-0.247,0.125-0.413,0.173s-0.36,0.072-0.58,0.072c-0.324,0-0.604-0.047-0.841-0.143
	c-0.237-0.095-0.432-0.234-0.586-0.42c-0.154-0.186-0.269-0.414-0.345-0.688c-0.076-0.274-0.113-0.59-0.113-0.944
	c0-0.342,0.041-0.651,0.123-0.929c0.082-0.276,0.205-0.512,0.369-0.705c0.164-0.194,0.369-0.344,0.616-0.45s0.534-0.158,0.863-0.158
	c0.309,0,0.58,0.048,0.815,0.144c0.235,0.095,0.431,0.234,0.59,0.418c0.159,0.183,0.277,0.408,0.357,0.678s0.121,0.578,0.121,0.926
	c0,0.18-0.012,0.352-0.033,0.516c-0.021,0.164-0.055,0.32-0.1,0.467c-0.045,0.146-0.103,0.281-0.172,0.406
	c-0.068,0.123-0.15,0.235-0.242,0.336c0.161,0.133,0.303,0.237,0.426,0.313c0.121,0.075,0.223,0.13,0.303,0.168
	s0.142,0.064,0.186,0.082c0.045,0.018,0.078,0.036,0.1,0.057c0.022,0.021,0.039,0.051,0.048,0.09s0.014,0.09,0.014,0.154
	L20.256,30.803z M19.123,28.254c0-0.244-0.021-0.471-0.064-0.679s-0.116-0.392-0.218-0.546c-0.102-0.153-0.236-0.274-0.405-0.361
	s-0.377-0.13-0.626-0.13s-0.458,0.046-0.626,0.138s-0.306,0.217-0.412,0.373s-0.181,0.338-0.226,0.545s-0.068,0.426-0.068,0.656
	c0,0.253,0.021,0.484,0.063,0.698c0.042,0.213,0.113,0.396,0.213,0.551s0.234,0.276,0.401,0.362s0.378,0.128,0.631,0.128
	c0.251,0,0.462-0.048,0.633-0.14c0.171-0.094,0.309-0.22,0.413-0.379c0.104-0.158,0.178-0.343,0.223-0.553
	S19.122,28.486,19.123,28.254L19.123,28.254z M23.25,26.359c0,0.041-0.002,0.078-0.007,0.109s-0.013,0.057-0.022,0.075
	s-0.021,0.033-0.035,0.041c-0.015,0.008-0.031,0.015-0.049,0.015h-1.213v3.736c0,0.018-0.005,0.034-0.013,0.047
	c-0.009,0.014-0.024,0.024-0.048,0.032c-0.022,0.008-0.051,0.015-0.088,0.021c-0.035,0.006-0.082,0.008-0.137,0.008
	c-0.054,0-0.1-0.002-0.137-0.008s-0.068-0.013-0.09-0.021s-0.038-0.019-0.047-0.032c-0.01-0.014-0.014-0.029-0.014-0.047V26.6
	h-1.213c-0.018,0-0.033-0.006-0.048-0.014c-0.014-0.008-0.026-0.023-0.034-0.041c-0.01-0.018-0.017-0.044-0.022-0.074
	c-0.007-0.031-0.009-0.068-0.009-0.111c0-0.041,0.002-0.08,0.009-0.11c0.006-0.031,0.012-0.06,0.022-0.078
	c0.01-0.019,0.02-0.035,0.034-0.043s0.031-0.013,0.048-0.013h2.998c0.018,0,0.033,0.005,0.047,0.013
	c0.015,0.008,0.027,0.022,0.037,0.043c0.008,0.021,0.016,0.046,0.021,0.078C23.247,26.281,23.249,26.318,23.25,26.359L23.25,26.359z
	 M26.668,26.359c0,0.041-0.002,0.078-0.007,0.109s-0.013,0.057-0.022,0.075s-0.021,0.033-0.035,0.041
	c-0.015,0.008-0.031,0.013-0.049,0.013h-1.213v3.737c0,0.019-0.005,0.034-0.013,0.047c-0.009,0.013-0.024,0.024-0.047,0.032
	c-0.023,0.008-0.052,0.014-0.089,0.02c-0.035,0.006-0.082,0.01-0.137,0.01c-0.054,0-0.1-0.004-0.137-0.01s-0.068-0.012-0.09-0.02
	s-0.038-0.018-0.047-0.032c-0.01-0.014-0.014-0.028-0.014-0.047v-3.737h-1.213c-0.018,0-0.033-0.005-0.048-0.013
	c-0.014-0.008-0.026-0.022-0.034-0.041c-0.01-0.019-0.017-0.044-0.022-0.075c-0.007-0.031-0.009-0.068-0.009-0.109
	c0-0.043,0.002-0.08,0.009-0.111c0.006-0.031,0.012-0.059,0.022-0.078c0.01-0.02,0.02-0.035,0.034-0.043s0.031-0.013,0.048-0.013
	h2.998c0.019,0,0.034,0.005,0.049,0.013c0.014,0.008,0.026,0.023,0.035,0.043c0.01,0.02,0.018,0.046,0.022,0.078
	C26.666,26.279,26.667,26.316,26.668,26.359L26.668,26.359z M18.48,5.105c2.463,0,4.926,0.001,7.39-0.001
	c0.319-0.001,0.622,0.069,0.914,0.186c0.302,0.122,0.571,0.297,0.812,0.521c0.422,0.396,0.682,0.878,0.793,1.442
	c0.022,0.114,0.034,0.231,0.034,0.347c0.002,4.826,0.001,9.653,0.002,14.479c0,0.345-0.085,0.669-0.219,0.981
	c-0.128,0.297-0.312,0.562-0.54,0.791c-0.26,0.26-0.563,0.461-0.907,0.594c-0.304,0.119-0.618,0.177-0.946,0.177
	c-4.926-0.002-9.853-0.001-14.779-0.002c-0.339,0-0.658-0.089-0.964-0.228c-0.268-0.119-0.506-0.283-0.721-0.486
	c-0.43-0.408-0.695-0.899-0.791-1.481c-0.021-0.129-0.029-0.261-0.029-0.391c-0.001-4.808-0.001-9.615-0.001-14.422
	c0-0.341,0.088-0.663,0.229-0.971C8.877,6.376,9.039,6.14,9.24,5.927c0.409-0.432,0.903-0.698,1.488-0.793
	c0.117-0.019,0.236-0.028,0.355-0.028C13.548,5.104,16.014,5.105,18.48,5.105L18.48,5.105z M8.969,12.469
	c0.097,0.035,0.194,0.066,0.288,0.105c0.498,0.205,0.999,0.401,1.491,0.621c0.337,0.151,0.659,0.331,0.985,0.505
	c0.496,0.264,0.971,0.562,1.435,0.879c0.49,0.334,0.968,0.685,1.415,1.076c0.318,0.278,0.634,0.558,0.945,0.845
	c0.171,0.159,0.329,0.331,0.489,0.502c0.21,0.225,0.422,0.45,0.624,0.684c0.216,0.25,0.431,0.502,0.628,0.767
	c0.287,0.387,0.562,0.782,0.832,1.18c0.358,0.528,0.667,1.084,0.951,1.654c0.188,0.377,0.358,0.765,0.526,1.151
	c0.238,0.543,0.434,1.103,0.604,1.67c0.018,0.061,0.041,0.078,0.103,0.078c1.446-0.002,2.894,0,4.341,0c0.027,0,0.053,0,0.088,0
	c-0.418-4.166-2.074-7.753-5.029-10.705c-2.957-2.953-6.549-4.603-10.715-5.017c0,1.341,0,2.673,0,4.007V12.469z M8.966,8.002
	c4.294,0.422,7.995,2.104,11.043,5.148s4.738,6.743,5.165,11.043c0.289-0.014,0.583-0.012,0.874-0.043
	c0.579-0.061,1.048-0.336,1.419-0.777c0.355-0.42,0.506-0.912,0.516-1.453c0.002-0.025-0.01-0.051-0.017-0.076
	c-0.009-0.031-0.022-0.064-0.024-0.098c-0.018-0.193-0.025-0.387-0.047-0.58c-0.035-0.294-0.067-0.587-0.117-0.878
	c-0.079-0.459-0.159-0.918-0.262-1.373c-0.158-0.709-0.367-1.407-0.633-2.083c-0.179-0.456-0.363-0.911-0.572-1.354
	c-0.203-0.43-0.434-0.846-0.666-1.263c-0.343-0.616-0.742-1.197-1.166-1.762c-0.358-0.478-0.744-0.936-1.148-1.375
	c-0.215-0.234-0.445-0.457-0.676-0.676c-0.223-0.214-0.449-0.423-0.682-0.625c-0.252-0.217-0.51-0.429-0.771-0.633
	c-0.583-0.451-1.194-0.863-1.832-1.234c-0.451-0.263-0.909-0.513-1.386-0.725c-0.405-0.18-0.815-0.354-1.226-0.518
	c-0.58-0.231-1.177-0.415-1.783-0.57c-0.718-0.184-1.443-0.329-2.18-0.412c-0.263-0.029-0.525-0.061-0.787-0.085
	c-0.237-0.02-0.474-0.031-0.712-0.044c-0.366-0.022-0.717,0.039-1.048,0.198C9.735,5.998,9.369,6.385,9.141,6.905
	C8.989,7.257,8.968,7.628,8.965,8L8.966,8.002z M27.984,18.839c0-0.022,0-0.044,0-0.065c-0.006-3.697-0.01-7.395-0.016-11.092
	c-0.001-0.118-0.012-0.239-0.035-0.354c-0.146-0.696-0.543-1.203-1.166-1.537c-0.334-0.178-0.697-0.243-1.069-0.244
	c-3.646-0.002-7.29-0.001-10.934-0.001c-0.026,0-0.051,0-0.077,0c3.286,0.796,6.14,2.369,8.532,4.759
	C25.613,12.696,27.189,15.551,27.984,18.839L27.984,18.839z M8.966,12.956c0,0.036,0,0.065,0,0.094c0,1.194,0,2.387,0,3.581
	c0,0.137-0.002,0.273,0.002,0.41c0.001,0.023,0.02,0.061,0.041,0.07c0.098,0.048,0.2,0.088,0.3,0.131
	c0.444,0.191,0.873,0.414,1.29,0.656c0.485,0.285,0.957,0.591,1.393,0.945c0.341,0.277,0.671,0.567,0.998,0.861
	c0.184,0.165,0.354,0.347,0.527,0.525c0.115,0.119,0.231,0.237,0.334,0.365c0.252,0.313,0.504,0.625,0.743,0.945
	c0.391,0.523,0.724,1.082,1.02,1.664c0.148,0.292,0.276,0.593,0.411,0.893c0.028,0.061,0.057,0.088,0.131,0.088
	c1.16-0.004,2.319-0.002,3.479-0.002c0.028,0,0.057,0,0.086,0c-0.328-1.121-1.066-2.985-2.352-4.817
	c-1.221-1.739-2.707-3.209-4.461-4.406C11.682,14.124,10.371,13.455,8.966,12.956L8.966,12.956z"/>
</svg>
