<?xml version="1.0" encoding="utf-8"?>
<!-- Generator: Adobe Illustrator 16.0.0, SVG Export Plug-In . SVG Version: 6.00 Build 0)  -->
<!DOCTYPE svg PUBLIC "-//W3C//DTD SVG 1.1//EN" "http://www.w3.org/Graphics/SVG/1.1/DTD/svg11.dtd">
<svg version="1.1" id="Layer_1" xmlns="http://www.w3.org/2000/svg" xmlns:xlink="http://www.w3.org/1999/xlink" x="0px" y="0px"
	 width="32px" height="32px" viewBox="0 0 32 32" enable-background="new 0 0 32 32" xml:space="preserve">
<title>mqtt-notification</title>
<path fill="#3272A0" d="M24.32,32H7.68C3.413,32,0,28.588,0,24.32V7.68C0,3.413,3.413,0,7.68,0h16.64C28.587,0,32,3.413,32,7.68
	v16.64C32,28.588,28.587,32,24.32,32z M31.041,23.361V8.64c0-4.267-3.414-7.68-7.68-7.68H8.64c-4.267,0-7.68,3.413-7.68,7.68v14.721
	c0,4.266,3.413,7.68,7.68,7.68h14.721C27.627,31.041,31.041,27.627,31.041,23.361z M9.173,16c-0.107-1.067-0.107-2.346-0.107-3.307
	l0,0c-0.213,0.854-0.533,1.814-0.96,2.881L6.72,19.2H6.08l-1.173-3.626c-0.32-1.067-0.64-2.027-0.853-2.987l0,0
	c0,0.96-0.107,2.24-0.107,3.307l-0.213,3.2H2.667L3.2,11.733h1.28l1.28,3.627c0.32,0.96,0.533,1.708,0.747,2.56l0,0
	c0.213-0.746,0.427-1.6,0.747-2.56l1.387-3.627h1.28l0.427,7.574h-0.96L9.173,16L9.173,16z M18.025,20.374
	C16.96,20.055,16,19.84,15.147,19.52c-0.107-0.105-0.32-0.105-0.427-0.105c-1.813-0.107-3.307-1.389-3.307-3.84
	c0-2.454,1.493-3.947,3.52-3.947s3.415,1.6,3.415,3.84c0,1.922-0.854,3.201-2.134,3.627l0,0c0.747,0.213,1.601,0.32,2.24,0.532
	L18.025,20.374z M17.279,15.467c0-1.493-0.746-3.093-2.346-3.093s-2.453,1.493-2.453,3.2c0,1.6,0.853,3.094,2.347,3.094
	C16.426,18.668,17.279,17.174,17.279,15.467z M20.693,12.587h-2.346v-0.854h5.545v0.854h-2.346v6.72h-0.96v-6.72H20.693z
	 M26.667,12.587H24.32v-0.854h5.547v0.854h-2.135v6.72h-1.065V12.587z"/>
</svg>
