<?xml version="1.0" encoding="utf-8"?>
<!-- Generator: Adobe Illustrator 16.0.0, SVG Export Plug-In . SVG Version: 6.00 Build 0)  -->
<!DOCTYPE svg PUBLIC "-//W3C//DTD SVG 1.1//EN" "http://www.w3.org/Graphics/SVG/1.1/DTD/svg11.dtd">
<svg version="1.1" id="Layer_1" xmlns="http://www.w3.org/2000/svg" xmlns:xlink="http://www.w3.org/1999/xlink" x="0px" y="0px"
	 width="32px" height="32px" viewBox="0 0 32 32" enable-background="new 0 0 32 32" xml:space="preserve">
<title>mssql</title>
<path fill="#3272A0" d="M16.077,0c8.821,0,16,7.177,16,16s-7.179,16-16,16c-8.824,0-16-7.178-16-16C0.077,7.178,7.253,0,16.077,0z
	 M16.077,31.359c8.47,0,15.36-6.889,15.36-15.359c0-8.47-6.891-15.36-15.36-15.36c-8.47,0-15.36,6.89-15.36,15.36
	C0.717,24.471,7.607,31.359,16.077,31.359z M19.652,15.521l-4.287,1.398l-3.727,1.646l-1.044,0.276
	c-0.265,0.252-0.545,0.507-0.845,0.767c-0.329,0.287-0.638,0.545-0.873,0.733c-0.262,0.209-0.651,0.595-0.85,0.843
	c-0.296,0.369-0.527,0.762-0.627,1.064c-0.179,0.544-0.092,1.094,0.253,1.604c0.441,0.648,1.32,1.309,2.341,1.758
	c0.521,0.229,1.4,0.523,2.06,0.69c1.099,0.278,3.222,0.579,4.392,0.623c0.237,0.009,0.553,0.009,0.569-0.001
	c0.025-0.018,0.207-0.361,0.418-0.793c0.719-1.468,1.238-2.845,1.52-4.02c0.17-0.713,0.301-1.661,0.387-2.786
	c0.023-0.316,0.033-1.366,0.014-1.724c-0.029-0.582-0.08-1.056-0.162-1.521c-0.013-0.068-0.018-0.128-0.01-0.134
	c0.012-0.01,0.051-0.023,0.578-0.176L19.652,15.521L19.652,15.521z M18.673,16.096c0.039,0,0.144,0.993,0.17,1.625
	c0.007,0.133,0.005,0.219-0.003,0.219c-0.025,0-0.549-0.307-0.92-0.539c-0.324-0.205-0.939-0.612-1.037-0.689
	c-0.031-0.023-0.027-0.025,0.237-0.115C17.57,16.439,18.639,16.097,18.673,16.096L18.673,16.096L18.673,16.096z M16.49,16.813
	c0.027,0,0.103,0.043,0.281,0.153c0.67,0.419,1.574,0.923,1.963,1.093c0.119,0.051,0.134,0.031-0.144,0.219
	c-0.591,0.402-1.325,0.797-2.227,1.197c-0.157,0.069-0.29,0.127-0.296,0.127c-0.006,0,0.012-0.08,0.038-0.179
	c0.218-0.808,0.342-1.623,0.345-2.276c0.002-0.323,0.002-0.326,0.033-0.334c0.002,0.002,0.004,0.002,0.006,0.002l0,0V16.813z
	 M16.04,16.984c0.019,0.019,0.005,0.744-0.019,0.94c-0.057,0.474-0.149,0.912-0.298,1.41c-0.035,0.119-0.068,0.222-0.074,0.228
	c-0.013,0.016-0.456-0.416-0.604-0.588c-0.252-0.291-0.451-0.582-0.596-0.867c-0.074-0.146-0.191-0.433-0.18-0.44
	c0.05-0.036,1.757-0.696,1.77-0.685l0,0L16.04,16.984z M13.923,17.818c0.004,0.002,0.007,0.002,0.009,0.004
	c0.006,0.007,0.029,0.06,0.05,0.117c0.103,0.279,0.335,0.696,0.537,0.963c0.22,0.291,0.507,0.601,0.747,0.806
	c0.077,0.065,0.149,0.128,0.159,0.138c0.02,0.018,0.028,0.014-0.501,0.215c-0.612,0.232-1.279,0.465-2.045,0.713
	c-0.292,0.094-0.539,0.174-0.548,0.178c-0.029,0.011-0.02-0.008,0.065-0.141c0.381-0.594,0.957-1.756,1.279-2.578
	c0.056-0.143,0.109-0.284,0.118-0.316c0.014-0.047,0.028-0.063,0.072-0.083C13.89,17.822,13.911,17.816,13.923,17.818L13.923,17.818
	L13.923,17.818z M13.274,18.086c0.008,0.008-0.156,0.355-0.317,0.67c-0.314,0.611-0.659,1.213-1.118,1.948
	c-0.079,0.127-0.152,0.243-0.162,0.257c-0.016,0.023-0.023,0.016-0.073-0.084c-0.11-0.218-0.202-0.494-0.25-0.751
	c-0.047-0.253-0.039-0.692,0.018-0.965c0.042-0.202,0.04-0.198,0.136-0.247C11.92,18.703,13.261,18.075,13.274,18.086z
	 M18.861,18.314v0.138c0,0.723-0.077,1.713-0.189,2.435c-0.02,0.127-0.035,0.231-0.038,0.232c-0.002,0.001-0.093-0.026-0.202-0.061
	c-0.486-0.15-1.015-0.375-1.49-0.637c-0.314-0.173-0.771-0.451-0.757-0.465c0.003-0.003,0.138-0.075,0.298-0.158
	c0.636-0.33,1.245-0.686,1.772-1.039c0.198-0.132,0.495-0.347,0.561-0.404l0.047-0.039V18.314z M10.828,19.271
	c0.013,0,0.01,0.024-0.011,0.145c-0.014,0.083-0.031,0.238-0.036,0.348c-0.026,0.475,0.051,0.823,0.286,1.303
	c0.065,0.133,0.116,0.244,0.114,0.246c-0.024,0.02-2.166,0.646-2.84,0.83c-0.2,0.055-0.374,0.104-0.388,0.107
	c-0.024,0.007-0.026,0.002-0.017-0.053c0.074-0.477,0.436-1.1,0.943-1.623c0.337-0.348,0.607-0.555,1.065-0.816
	c0.329-0.188,0.84-0.47,0.878-0.484C10.824,19.271,10.826,19.271,10.828,19.271L10.828,19.271z M15.882,20.177
	c0.002-0.003,0.081,0.04,0.176,0.095c0.692,0.4,1.658,0.776,2.481,0.965l0.074,0.017l-0.102,0.058
	c-0.43,0.238-1.846,0.828-3.292,1.371c-0.211,0.078-0.417,0.156-0.458,0.172c-0.041,0.017-0.073,0.027-0.073,0.024
	s0.06-0.118,0.133-0.255c0.406-0.76,0.812-1.682,1.02-2.323C15.861,20.234,15.88,20.18,15.882,20.177L15.882,20.177L15.882,20.177z
	 M15.366,20.346c0.002,0.002-0.023,0.07-0.056,0.15c-0.282,0.684-0.652,1.428-1.124,2.264c-0.12,0.213-0.221,0.387-0.225,0.387
	s-0.102-0.058-0.217-0.129c-0.687-0.42-1.295-0.938-1.694-1.441l-0.057-0.071l0.296-0.081c1.057-0.289,1.953-0.599,2.844-0.982
	C15.258,20.386,15.363,20.343,15.366,20.346L15.366,20.346z M18.566,21.462c0,0.001,0.002,0.001,0.002,0.003
	c0,0.072-0.164,0.739-0.301,1.221c-0.113,0.404-0.209,0.722-0.388,1.282c-0.079,0.248-0.146,0.45-0.149,0.449
	s-0.023-0.004-0.043-0.008c-0.963-0.175-1.825-0.417-2.631-0.742c-0.226-0.091-0.552-0.235-0.57-0.252
	c-0.006-0.006,0.189-0.099,0.433-0.204c1.475-0.645,3.004-1.377,3.526-1.691c0.063-0.037,0.109-0.059,0.119-0.057l0,0L18.566,21.462
	z M11.179,21.715c0.008,0.008-0.404,0.598-0.981,1.405c-0.2,0.28-0.436,0.61-0.523,0.733c-0.087,0.123-0.219,0.319-0.294,0.436
	l-0.136,0.21L9.1,24.377c-0.17-0.143-0.468-0.445-0.604-0.615c-0.278-0.347-0.467-0.712-0.541-1.046
	c-0.035-0.155-0.035-0.233-0.003-0.243c0.047-0.014,0.913-0.218,1.724-0.406c0.451-0.104,0.972-0.227,1.158-0.271
	S11.176,21.715,11.179,21.715L11.179,21.715L11.179,21.715z M11.594,21.874l0.104,0.116c0.467,0.52,0.941,0.908,1.521,1.242
	c0.102,0.06,0.18,0.111,0.173,0.115c-0.024,0.016-2.003,0.719-2.918,1.037c-0.516,0.18-0.94,0.326-0.942,0.326
	c-0.002,0-0.031-0.02-0.065-0.043l-0.06-0.042L9.5,24.491c0.303-0.44,0.685-0.925,1.52-1.929l0.572-0.688H11.594z M14.179,23.723
	c0.003-0.004,0.147,0.049,0.322,0.113c0.422,0.158,0.753,0.26,1.201,0.373c0.55,0.139,1.346,0.275,1.817,0.316
	c0.071,0.006,0.108,0.014,0.098,0.021c-0.021,0.014-0.499,0.174-0.85,0.284c-0.557,0.175-2.256,0.678-3.644,1.076
	c-0.257,0.073-0.477,0.136-0.489,0.139c-0.031,0.006-0.14-0.022-0.14-0.036c0-0.007,0.078-0.105,0.172-0.218
	c0.466-0.558,0.929-1.181,1.316-1.771C14.088,23.859,14.176,23.727,14.179,23.723L14.179,23.723L14.179,23.723z M13.606,23.738
	c0.004,0.004-0.226,0.371-0.63,1.009c-0.171,0.269-0.364,0.575-0.431,0.68c-0.067,0.105-0.163,0.265-0.216,0.356l-0.095,0.165
	l-0.048-0.013c-0.116-0.031-0.936-0.321-1.152-0.408c-0.268-0.105-0.548-0.234-0.754-0.346c-0.257-0.139-0.584-0.346-0.559-0.354
	c0.008-0.003,0.451-0.124,0.984-0.27c1.42-0.387,2.205-0.608,2.721-0.77C13.523,23.76,13.603,23.736,13.606,23.738L13.606,23.738
	L13.606,23.738z M17.639,24.684c0.004,0,0.004,0,0.004,0c0.014,0.033-0.512,1.489-0.705,1.951c-0.043,0.104-0.059,0.129-0.08,0.127
	c-0.055-0.003-0.817-0.109-1.278-0.179c-0.808-0.123-2.16-0.358-2.502-0.437l-0.079-0.018l0.484-0.109
	c1.037-0.233,1.536-0.358,2.041-0.514c0.637-0.195,1.268-0.438,1.907-0.734c0.103-0.047,0.188-0.082,0.209-0.086l0,0V24.684z
	 M15.235,5.532c-0.072-0.008-1.222,0.406-1.961,0.707c-1.002,0.407-1.779,0.797-2.259,1.133c-0.179,0.125-0.403,0.351-0.436,0.437
	c-0.012,0.033-0.018,0.07-0.019,0.109l0.435,0.411l1.032,0.33l2.46,0.439l2.812,0.483l0.028-0.241
	c-0.009-0.001-0.017-0.003-0.025-0.004l-0.37-0.058l-0.076-0.132c-0.381-0.674-0.804-1.508-1.049-2.073
	c-0.19-0.438-0.372-0.941-0.473-1.306c-0.06-0.217-0.067-0.231-0.1-0.235l0,0H15.235z M15.181,5.699
	c0.003-0.001,0.004-0.001,0.004,0C15.188,5.702,15.2,5.792,15.213,5.9c0.055,0.453,0.157,0.892,0.316,1.364
	c0.12,0.356,0.121,0.335-0.021,0.296c-0.331-0.092-1.812-0.346-2.883-0.495c-0.173-0.024-0.316-0.045-0.319-0.047
	c-0.013-0.013,0.772-0.426,1.121-0.588C13.874,6.221,15.092,5.714,15.181,5.699L15.181,5.699z M12.059,7.149l0.125,0.043
	c0.688,0.234,2.412,0.563,3.365,0.643c0.108,0.009,0.198,0.019,0.201,0.021s-0.088,0.051-0.203,0.108
	c-0.46,0.23-0.966,0.511-1.316,0.73c-0.103,0.065-0.197,0.116-0.209,0.115s-0.08-0.012-0.151-0.024l-0.129-0.021l-0.326-0.316
	c-0.572-0.553-1.017-0.98-1.19-1.142L12.059,7.149L12.059,7.149z M11.932,7.25l0.456,0.569c0.251,0.313,0.502,0.623,0.558,0.69
	c0.056,0.067,0.099,0.124,0.096,0.125c-0.013,0.01-0.66-0.116-1.004-0.195c-0.352-0.081-0.498-0.12-0.716-0.189l-0.178-0.057
	l0.001-0.044c0.003-0.218,0.278-0.541,0.745-0.87L11.932,7.25L11.932,7.25z M15.811,8.025c0.013,0.001,0.028,0.029,0.068,0.117
	c0.111,0.242,0.454,0.898,0.538,1.025c0.028,0.042,0.071,0.045-0.386-0.029c-1.097-0.177-1.452-0.237-1.452-0.243
	c0-0.004,0.033-0.026,0.073-0.048c0.34-0.189,0.683-0.427,0.988-0.684c0.073-0.061,0.143-0.12,0.156-0.131
	C15.802,8.028,15.807,8.025,15.811,8.025L15.811,8.025z M10.598,7.765c0,0-0.071,0.113-0.004,0.281
	c0.042,0.104,0.166,0.228,0.304,0.361c0,0,1.44,1.404,1.616,1.608c0.797,0.921,1.144,1.827,1.176,3.078
	c0.02,0.803-0.134,1.509-0.511,2.33c-0.674,1.472-2.095,3.093-4.289,4.896l0.322-0.106c0.207-0.155,0.488-0.321,1.151-0.685
	c1.527-0.834,3.242-1.603,5.348-2.395c3.03-1.139,8.016-2.475,10.852-2.909l0.297-0.045l-0.045-0.071
	c-0.26-0.403-0.437-0.652-0.65-0.915c-0.622-0.769-1.375-1.397-2.298-1.914c-1.269-0.71-2.913-1.261-4.992-1.675
	c-0.394-0.078-1.254-0.226-1.955-0.335c-1.484-0.231-2.441-0.387-3.498-0.572c-0.379-0.066-0.945-0.161-1.32-0.242
	c-0.196-0.042-0.568-0.131-0.857-0.23C11.006,8.128,10.67,8.037,10.598,7.765L10.598,7.765L10.598,7.765z M11.433,8.575
	c0.002-0.002,0.056,0.015,0.122,0.037c0.122,0.041,0.282,0.09,0.468,0.141c0.131,0.036,0.275,0.075,0.427,0.114
	c0.195,0.05,0.356,0.093,0.358,0.095c0.022,0.024,0.349,1.068,0.46,1.469c0.043,0.153,0.075,0.28,0.072,0.284
	s-0.039-0.053-0.08-0.125c-0.378-0.666-0.978-1.343-1.671-1.887C11.503,8.636,11.433,8.578,11.433,8.575L11.433,8.575z
	 M13.028,9.016c0.017-0.001,0.088,0.011,0.174,0.03c0.552,0.122,1.537,0.312,2.172,0.419c0.106,0.018,0.193,0.037,0.193,0.043
	c0,0.006-0.04,0.031-0.088,0.055c-0.106,0.054-0.537,0.311-0.68,0.408c-0.36,0.241-0.682,0.498-0.918,0.732
	c-0.095,0.094-0.173,0.171-0.176,0.171s-0.019-0.055-0.036-0.122c-0.118-0.451-0.361-1.117-0.579-1.586
	c-0.035-0.076-0.064-0.142-0.064-0.148C13.025,9.017,13.027,9.016,13.028,9.016L13.028,9.016L13.028,9.016z M15.834,9.549
	c0.019,0.006,0.053,0.115,0.115,0.36c0.118,0.469,0.173,0.995,0.156,1.483c-0.005,0.136-0.013,0.262-0.019,0.28l-0.01,0.034
	l-0.168-0.054c-0.345-0.11-0.909-0.276-1.393-0.41c-0.274-0.076-0.499-0.143-0.499-0.15c0-0.02,0.401-0.42,0.573-0.573
	C14.918,10.228,15.803,9.539,15.834,9.549L15.834,9.549L15.834,9.549z M16.057,9.581c0.01-0.01,1.341,0.221,1.946,0.337
	c0.451,0.086,1.103,0.223,1.142,0.239c0.02,0.008-0.049,0.045-0.265,0.142c-0.856,0.387-1.491,0.731-2.122,1.153
	c-0.166,0.111-0.304,0.202-0.307,0.202s-0.005-0.093-0.005-0.206c-0.001-0.615-0.124-1.236-0.348-1.761
	C16.073,9.631,16.055,9.582,16.057,9.581L16.057,9.581L16.057,9.581z M19.498,10.262c0.01,0.01-0.033,0.273-0.071,0.428
	c-0.118,0.483-0.43,1.199-0.815,1.872c-0.067,0.118-0.129,0.218-0.135,0.22c-0.008,0.002-0.096-0.044-0.195-0.102
	c-0.377-0.22-0.803-0.429-1.271-0.621c-0.131-0.054-0.242-0.102-0.248-0.107c-0.021-0.02,1.02-0.709,1.571-1.04
	c0.442-0.265,1.151-0.66,1.164-0.648L19.498,10.262z M19.745,10.3c0.03,0,0.62,0.161,0.925,0.252
	c0.76,0.227,1.637,0.548,2.206,0.806l0.237,0.107l-0.168,0.038c-1.391,0.32-2.584,0.689-3.733,1.155
	c-0.095,0.039-0.179,0.07-0.185,0.07c-0.004,0,0.025-0.074,0.068-0.164c0.346-0.734,0.567-1.504,0.627-2.158
	C19.727,10.348,19.736,10.299,19.745,10.3L19.745,10.3L19.745,10.3z M13.878,11.649c0.01-0.01,0.459,0.096,0.703,0.164
	c0.368,0.104,1.152,0.365,1.153,0.386c0,0.004-0.086,0.079-0.192,0.168c-0.424,0.355-0.833,0.725-1.322,1.198
	c-0.145,0.14-0.268,0.254-0.275,0.254c-0.007,0-0.009-0.02-0.005-0.045c0.074-0.544,0.058-1.243-0.045-1.955
	C13.882,11.729,13.875,11.652,13.878,11.649L13.878,11.649z M23.337,11.658c0.007,0.007-0.209,0.343-0.342,0.535
	c-0.195,0.28-0.479,0.648-1.124,1.459c-0.339,0.426-0.721,0.909-0.85,1.072s-0.237,0.297-0.24,0.297
	c-0.004,0-0.045-0.058-0.092-0.129c-0.364-0.543-0.797-1.021-1.312-1.45c-0.096-0.08-0.205-0.168-0.241-0.195
	c-0.035-0.027-0.066-0.052-0.066-0.056c0-0.009,0.551-0.244,0.971-0.415c0.73-0.298,1.73-0.653,2.477-0.883
	C22.913,11.772,23.331,11.652,23.337,11.658L23.337,11.658L23.337,11.658z M23.585,11.723c0.013-0.003,0.09,0.036,0.185,0.09
	c0.787,0.451,1.558,1.03,2.164,1.626c0.174,0.17,0.596,0.609,0.588,0.612c-0.002,0.001-0.146,0.012-0.323,0.026
	c-1.364,0.102-3.108,0.393-4.787,0.797c-0.114,0.028-0.212,0.05-0.22,0.05c-0.006,0,0.119-0.125,0.277-0.278
	c0.986-0.948,1.436-1.547,1.965-2.616c0.08-0.159,0.146-0.297,0.148-0.305c0,0.001,0.001,0,0.001,0l0,0L23.585,11.723z
	 M16.375,12.461c0.045,0.01,0.465,0.206,0.783,0.365c0.291,0.145,0.73,0.38,0.752,0.4c0.003,0.003-0.152,0.083-0.344,0.18
	c-0.609,0.305-1.13,0.592-1.674,0.925c-0.156,0.095-0.285,0.173-0.289,0.173c-0.013,0-0.008-0.012,0.079-0.171
	c0.29-0.531,0.524-1.165,0.659-1.784c0.012-0.055,0.026-0.089,0.036-0.087l0,0L16.375,12.461z M15.951,12.538
	c0.009,0.009-0.1,0.41-0.17,0.623c-0.132,0.411-0.356,0.927-0.572,1.315c-0.051,0.092-0.128,0.225-0.172,0.297l-0.08,0.131
	l-0.182-0.175c-0.211-0.205-0.383-0.332-0.603-0.445c-0.086-0.044-0.157-0.086-0.157-0.092c-0.001-0.027,0.552-0.529,0.979-0.89
	C15.3,13.044,15.942,12.53,15.951,12.538L15.951,12.538z M18.525,13.596l0.158,0.102c0.362,0.236,0.793,0.552,1.119,0.824
	c0.184,0.153,0.54,0.472,0.613,0.549l0.039,0.042l-0.262,0.073c-1.484,0.412-2.631,0.778-3.968,1.27
	c-0.148,0.054-0.276,0.101-0.285,0.101c-0.019,0-0.036,0.017,0.297-0.291c0.856-0.787,1.613-1.655,2.176-2.499l0.114-0.172
	L18.525,13.596z M17.85,13.766c0.008,0.008-0.438,0.633-0.703,0.986c-0.316,0.422-0.882,1.128-1.271,1.588
	c-0.163,0.192-0.301,0.352-0.309,0.354c-0.008,0.004-0.013-0.043-0.013-0.117c-0.001-0.392-0.1-0.811-0.275-1.166
	c-0.074-0.15-0.086-0.186-0.071-0.2c0.061-0.055,1.005-0.593,1.601-0.913c0.407-0.22,1.035-0.538,1.043-0.531l0,0H17.85z
	 M13.757,14.769c0.008,0,0.084,0.038,0.168,0.084c0.207,0.115,0.392,0.241,0.556,0.377c0.006,0.005-0.079,0.074-0.188,0.154
	c-0.307,0.221-0.774,0.574-1.045,0.79c-0.285,0.227-0.295,0.234-0.263,0.185c0.214-0.327,0.321-0.513,0.434-0.749
	c0.1-0.211,0.2-0.46,0.271-0.677C13.719,14.843,13.75,14.769,13.757,14.769L13.757,14.769z M14.848,15.624
	c0.015-0.002,0.036,0.026,0.124,0.157c0.185,0.276,0.326,0.644,0.363,0.943l0.008,0.064l-0.444,0.171
	c-0.795,0.308-1.526,0.612-2.02,0.838c-0.138,0.063-0.382,0.181-0.541,0.261c-0.159,0.08-0.289,0.143-0.289,0.139
	s0.1-0.079,0.222-0.168c0.97-0.704,1.806-1.475,2.436-2.245c0.067-0.083,0.129-0.154,0.136-0.159
	C14.845,15.624,14.847,15.624,14.848,15.624L14.848,15.624L14.848,15.624z M14.345,15.749c0.013,0.013-0.358,0.432-0.607,0.687
	c-0.625,0.637-1.244,1.137-2.012,1.625c-0.096,0.061-0.184,0.115-0.195,0.123c-0.021,0.012,0.007-0.02,0.344-0.388
	c0.212-0.231,0.375-0.423,0.559-0.663c0.122-0.158,0.145-0.18,0.323-0.308C13.236,16.479,14.333,15.736,14.345,15.749L14.345,15.749
	z"/>
</svg>
