<?xml version="1.0" encoding="utf-8"?>
<!-- Generator: Adobe Illustrator 16.0.0, SVG Export Plug-In . SVG Version: 6.00 Build 0)  -->
<!DOCTYPE svg PUBLIC "-//W3C//DTD SVG 1.1//EN" "http://www.w3.org/Graphics/SVG/1.1/DTD/svg11.dtd">
<svg version="1.1" id="Layer_1" xmlns="http://www.w3.org/2000/svg" xmlns:xlink="http://www.w3.org/1999/xlink" x="0px" y="0px"
	 width="32px" height="32px" viewBox="0 0 32 32" enable-background="new 0 0 32 32" xml:space="preserve">
<title>mysql</title>
<path fill="#3272A0" d="M16.077,0c8.821,0,16,7.177,16,16s-7.179,16-16,16c-8.824,0-16-7.178-16-16C0.077,7.178,7.253,0,16.077,0z
	 M16.077,31.359c8.47,0,15.36-6.889,15.36-15.359c0-8.47-6.891-15.36-15.36-15.36c-8.47,0-15.36,6.89-15.36,15.36
	C0.717,24.471,7.607,31.359,16.077,31.359z M24.338,20.85c-1.027-0.029-1.811,0.067-2.48,0.35c-0.191,0.08-0.494,0.083-0.525,0.32
	c0.105,0.11,0.121,0.274,0.204,0.408c0.159,0.26,0.43,0.606,0.671,0.788c0.264,0.199,0.535,0.412,0.816,0.584
	c0.502,0.308,1.063,0.481,1.547,0.788c0.285,0.182,0.568,0.409,0.848,0.613c0.139,0.101,0.23,0.258,0.408,0.32
	c0-0.01,0-0.019,0-0.028c-0.094-0.12-0.118-0.284-0.204-0.409c-0.127-0.127-0.253-0.253-0.38-0.38
	c-0.371-0.493-0.842-0.925-1.344-1.284c-0.398-0.287-1.293-0.674-1.459-1.139c-0.01-0.01-0.02-0.02-0.029-0.029
	c0.283-0.031,0.613-0.134,0.876-0.204c0.438-0.118,0.831-0.087,1.284-0.204c0.203-0.058,0.408-0.117,0.613-0.175
	c0-0.039,0-0.078,0-0.116c-0.229-0.234-0.393-0.546-0.644-0.759c-0.653-0.558-1.367-1.112-2.103-1.576
	c-0.408-0.257-0.91-0.424-1.342-0.643c-0.146-0.074-0.402-0.111-0.498-0.234c-0.227-0.289-0.35-0.655-0.524-0.993
	c-0.367-0.706-0.726-1.476-1.052-2.218c-0.221-0.506-0.365-1.005-0.642-1.46c-1.325-2.179-2.752-3.494-4.963-4.787
	C12.947,8.108,12.38,8,11.782,7.858C11.461,7.839,11.14,7.819,10.819,7.8c-0.196-0.082-0.4-0.322-0.584-0.438
	c-0.732-0.463-2.61-1.469-3.153-0.146C6.74,8.051,7.594,8.866,7.899,9.289c0.214,0.297,0.489,0.63,0.642,0.963
	c0.1,0.22,0.118,0.439,0.204,0.671c0.212,0.572,0.397,1.194,0.671,1.722c0.139,0.268,0.292,0.549,0.467,0.788
	c0.108,0.147,0.292,0.211,0.321,0.438c-0.18,0.252-0.191,0.644-0.292,0.963c-0.456,1.439-0.284,3.227,0.38,4.291
	c0.204,0.327,0.684,1.027,1.343,0.759c0.577-0.235,0.448-0.963,0.613-1.606c0.037-0.146,0.015-0.252,0.088-0.35
	c0,0.01,0,0.02,0,0.029c0.175,0.35,0.35,0.701,0.525,1.051c0.389,0.627,1.079,1.281,1.664,1.723
	c0.303,0.229,0.542,0.625,0.934,0.759c0-0.011,0-0.019,0-0.029c-0.01,0-0.019,0-0.029,0c-0.076-0.118-0.195-0.168-0.292-0.262
	c-0.228-0.224-0.483-0.503-0.671-0.759c-0.532-0.723-1.002-1.513-1.43-2.336c-0.205-0.393-0.382-0.826-0.555-1.226
	c-0.067-0.153-0.066-0.387-0.204-0.467c-0.189,0.293-0.467,0.53-0.613,0.876c-0.234,0.553-0.264,1.229-0.35,1.926
	c-0.051,0.02-0.029,0.006-0.058,0.029c-0.406-0.098-0.55-0.516-0.7-0.876c-0.382-0.908-0.453-2.37-0.117-3.416
	c0.087-0.27,0.48-1.122,0.321-1.372c-0.076-0.25-0.326-0.394-0.467-0.584c-0.173-0.236-0.347-0.545-0.467-0.817
	c-0.313-0.708-0.459-1.503-0.788-2.218C8.882,9.617,8.615,9.27,8.397,8.966C8.155,8.629,7.884,8.381,7.696,7.973
	C7.629,7.828,7.539,7.597,7.638,7.448c0.031-0.1,0.076-0.142,0.175-0.175c0.17-0.131,0.641,0.044,0.817,0.116
	c0.468,0.195,0.859,0.38,1.255,0.643c0.19,0.126,0.383,0.371,0.613,0.438c0.088,0,0.175,0,0.262,0
	c0.411,0.095,0.871,0.029,1.255,0.146c0.678,0.206,1.286,0.527,1.839,0.876c1.683,1.062,3.058,2.575,4,4.379
	c0.151,0.291,0.217,0.568,0.35,0.876c0.27,0.621,0.607,1.261,0.876,1.868c0.267,0.605,0.526,1.218,0.905,1.722
	c0.197,0.265,0.965,0.408,1.313,0.556c0.244,0.103,0.644,0.211,0.876,0.35c0.442,0.267,0.87,0.584,1.284,0.876
	c0.209,0.147,0.845,0.467,0.877,0.731H24.338z M11.29,9.727c-0.214-0.004-0.365,0.024-0.525,0.058c0,0.01,0,0.02,0,0.029
	c0.01,0,0.019,0,0.029,0c0.102,0.21,0.282,0.345,0.408,0.525c0.097,0.204,0.195,0.409,0.292,0.613
	c0.01-0.01,0.019-0.019,0.029-0.029c0.18-0.127,0.264-0.332,0.262-0.642c-0.072-0.076-0.083-0.172-0.146-0.263
	C11.556,9.896,11.395,9.827,11.29,9.727L11.29,9.727z"/>
</svg>
