<?xml version="1.0" encoding="utf-8"?>
<!-- Generator: Adobe Illustrator 16.0.0, SVG Export Plug-In . SVG Version: 6.00 Build 0)  -->
<!DOCTYPE svg PUBLIC "-//W3C//DTD SVG 1.1//EN" "http://www.w3.org/Graphics/SVG/1.1/DTD/svg11.dtd">
<svg version="1.1" id="Layer_1" xmlns="http://www.w3.org/2000/svg" xmlns:xlink="http://www.w3.org/1999/xlink" x="0px" y="0px"
	 width="32px" height="32px" viewBox="0 0 32 32" enable-background="new 0 0 32 32" xml:space="preserve">
<title>naive-bayes</title>
<path fill="#3272A0" d="M32,16L16,32L0,16L16,0L32,16z M16,0.64L0.64,16L16,31.359L31.359,16L16,0.64z M20.607,14.976
	c0,2.56-2.047,4.608-4.607,4.608c-2.56,0-4.608-2.048-4.608-4.608S13.44,10.368,16,10.368
	C18.561,10.368,20.607,12.416,20.607,14.976z M16.641,14.016c-0.385,0-0.641,0.256-0.641,0.64c0,0.384,0.256,0.64,0.641,0.64
	c0.383,0,0.639-0.256,0.639-0.64C17.279,14.272,17.023,14.016,16.641,14.016z M18.688,16c-0.383,0-0.64,0.256-0.64,0.641
	c0,0.383,0.257,0.639,0.64,0.639c0.385,0,0.641-0.256,0.641-0.639C19.328,16.256,19.072,16,18.688,16z M15.168,14.656
	c-0.384,0-0.64,0.256-0.64,0.64c0,0.384,0.256,0.64,0.64,0.64s0.64-0.256,0.64-0.64C15.808,14.912,15.552,14.656,15.168,14.656z
	 M17.279,17.279c-0.383,0-0.639,0.257-0.639,0.641c0,0.385,0.256,0.641,0.639,0.641c0.385,0,0.641-0.256,0.641-0.641
	C17.92,17.536,17.664,17.279,17.279,17.279z M14.208,12.352c-0.384,0-0.64,0.256-0.64,0.64c0,0.384,0.256,0.64,0.64,0.64
	s0.64-0.256,0.64-0.64C14.848,12.608,14.528,12.352,14.208,12.352z M19.968,14.016c-0.384,0-0.64,0.256-0.64,0.64
	c0,0.384,0.256,0.64,0.64,0.64s0.64-0.256,0.64-0.64C20.607,14.272,20.352,14.016,19.968,14.016z M18.048,11.712
	c-0.384,0-0.64,0.256-0.64,0.64c0,0.384,0.256,0.64,0.64,0.64s0.64-0.256,0.64-0.64C18.688,11.968,18.432,11.712,18.048,11.712z
	 M16.641,16C16.256,16,16,16.256,16,16.641c0,0.383,0.256,0.639,0.641,0.639c0.383,0,0.639-0.256,0.639-0.639
	C17.279,16.256,17.023,16,16.641,16z M13.568,13.632c-0.384,0-0.64,0.256-0.64,0.64c0,0.384,0.256,0.64,0.64,0.64
	c0.384,0,0.64-0.256,0.64-0.64C14.208,13.888,13.888,13.632,13.568,13.632z M14.208,17.279c-0.384,0-0.64,0.257-0.64,0.641
	c0,0.385,0.256,0.641,0.64,0.641s0.64-0.256,0.64-0.641C14.848,17.536,14.528,17.279,14.208,17.279z M18.688,14.656
	c-0.383,0-0.64,0.256-0.64,0.64c0,0.384,0.257,0.64,0.64,0.64c0.385,0,0.641-0.256,0.641-0.64
	C19.328,14.912,19.072,14.656,18.688,14.656z M16.641,12.352c-0.385,0-0.641,0.256-0.641,0.64c0,0.384,0.256,0.64,0.641,0.64
	c0.383,0,0.639-0.256,0.639-0.64C17.279,12.608,17.023,12.352,16.641,12.352z M13.376,15.296c-0.384,0-0.64,0.256-0.64,0.64
	c0,0.384,0.256,0.64,0.64,0.64s0.64-0.256,0.64-0.64C14.016,15.552,13.696,15.296,13.376,15.296z M17.92,13.376
	c-0.384,0-0.641,0.256-0.641,0.64c0,0.384,0.257,0.64,0.641,0.64c0.385,0,0.641-0.256,0.641-0.64
	C18.561,13.632,18.305,13.376,17.92,13.376z M15.488,16.641c-0.384,0-0.64,0.256-0.64,0.639c0,0.385,0.256,0.641,0.64,0.641
	c0.384,0,0.64-0.256,0.64-0.641C16.128,16.896,15.808,16.641,15.488,16.641z M15.488,11.072c-0.384,0-0.64,0.256-0.64,0.64
	c0,0.384,0.256,0.64,0.64,0.64c0.384,0,0.64-0.256,0.64-0.64C16.128,11.328,15.808,11.072,15.488,11.072z M7.872,16.641
	c-0.384,0-0.64,0.256-0.64,0.639c0,0.385,0.256,0.641,0.64,0.641c0.384,0,0.64-0.256,0.64-0.641
	C8.512,16.896,8.256,16.641,7.872,16.641z M15.168,21.057c-0.384,0-0.64,0.256-0.64,0.639c0,0.385,0.256,0.641,0.64,0.641
	s0.64-0.256,0.64-0.641C15.808,21.313,15.552,21.057,15.168,21.057z M21.248,20.288c-0.385,0-0.641,0.256-0.641,0.64
	c0,0.385,0.256,0.641,0.641,0.641c0.384,0,0.641-0.256,0.641-0.641C21.889,20.544,21.632,20.288,21.248,20.288z M21.889,16
	c-0.385,0-0.641,0.256-0.641,0.641c0,0.383,0.256,0.639,0.641,0.639c0.383,0,0.639-0.256,0.639-0.639
	C22.527,16.256,22.271,16,21.889,16z M22.527,11.648c-0.383,0-0.639,0.256-0.639,0.64c0,0.384,0.256,0.64,0.639,0.64
	c0.385,0,0.641-0.256,0.641-0.64C23.168,11.904,22.912,11.648,22.527,11.648z M18.368,7.936c-0.384,0-0.64,0.256-0.64,0.64
	c0,0.384,0.256,0.64,0.64,0.64s0.64-0.256,0.64-0.64C19.008,8.256,18.688,7.936,18.368,7.936z M11.264,9.856
	c-0.384,0-0.64,0.256-0.64,0.64c0,0.384,0.256,0.64,0.64,0.64c0.384,0,0.64-0.256,0.64-0.64
	C11.904,10.112,11.648,9.856,11.264,9.856z M15.168,7.232c-0.384,0-0.64,0.256-0.64,0.64c0,0.384,0.256,0.64,0.64,0.64
	s0.64-0.256,0.64-0.64C15.808,7.488,15.552,7.232,15.168,7.232z M10.304,16.641c-0.384,0-0.64,0.256-0.64,0.639
	c0,0.385,0.256,0.641,0.64,0.641c0.384,0,0.64-0.256,0.64-0.641C10.944,16.896,10.688,16.641,10.304,16.641z M12.544,19.52
	c-0.384,0-0.64,0.256-0.64,0.641c0,0.384,0.256,0.64,0.64,0.64c0.384,0,0.64-0.256,0.64-0.64
	C13.184,19.84,12.928,19.52,12.544,19.52z M18.368,20.16c-0.384,0-0.64,0.256-0.64,0.64s0.256,0.64,0.64,0.64s0.64-0.256,0.64-0.64
	C19.008,20.48,18.688,20.16,18.368,20.16z M21.248,18.688c-0.385,0-0.641,0.256-0.641,0.641c0,0.384,0.256,0.64,0.641,0.64
	c0.384,0,0.641-0.256,0.641-0.64C21.889,18.943,21.632,18.688,21.248,18.688z M21.889,13.632c-0.385,0-0.641,0.256-0.641,0.64
	c0,0.384,0.256,0.64,0.641,0.64c0.383,0,0.639-0.256,0.639-0.64C22.527,13.888,22.271,13.632,21.889,13.632z M21.248,11.136
	c-0.385,0-0.641,0.256-0.641,0.64c0,0.384,0.256,0.64,0.641,0.64c0.384,0,0.641-0.256,0.641-0.64
	C21.889,11.392,21.632,11.136,21.248,11.136z M13.184,8.576c-0.384,0-0.64,0.256-0.64,0.64c0,0.384,0.256,0.64,0.64,0.64
	c0.384,0,0.64-0.256,0.64-0.64C13.824,8.896,13.568,8.576,13.184,8.576z M9.664,14.272c-0.384,0-0.64,0.256-0.64,0.64
	c0,0.384,0.256,0.64,0.64,0.64c0.384,0,0.64-0.256,0.64-0.64C10.304,14.528,10.048,14.272,9.664,14.272z M9.664,11.776
	c-0.384,0-0.64,0.256-0.64,0.64s0.256,0.64,0.64,0.64c0.384,0,0.64-0.256,0.64-0.64S10.048,11.776,9.664,11.776z M20.607,9.216
	c-0.383,0-0.64,0.256-0.64,0.64c0,0.384,0.257,0.64,0.64,0.64c0.385,0,0.641-0.256,0.641-0.64
	C21.248,9.536,20.928,9.216,20.607,9.216z M17.216,6.464c-0.384,0-0.64,0.256-0.64,0.64s0.256,0.64,0.64,0.64s0.64-0.256,0.64-0.64
	S17.536,6.464,17.216,6.464z M13.824,6.464c-0.384,0-0.64,0.256-0.64,0.64s0.256,0.64,0.64,0.64c0.384,0,0.64-0.256,0.64-0.64
	S14.208,6.464,13.824,6.464z M9.664,9.856c-0.384,0-0.64,0.256-0.64,0.64c0,0.384,0.256,0.64,0.64,0.64
	c0.384,0,0.64-0.256,0.64-0.64C10.304,10.112,10.048,9.856,9.664,9.856z M8.512,13.632c-0.384,0-0.64,0.256-0.64,0.64
	c0,0.384,0.256,0.64,0.64,0.64c0.384,0,0.64-0.256,0.64-0.64C9.152,13.888,8.896,13.632,8.512,13.632z M19.648,21.695
	c-0.385,0-0.641,0.257-0.641,0.641c0,0.385,0.256,0.641,0.641,0.641c0.384,0,0.64-0.256,0.64-0.641
	C20.288,21.952,19.968,21.695,19.648,21.695z M10.944,19.648c-0.384,0-0.64,0.256-0.64,0.64s0.256,0.64,0.64,0.64
	c0.384,0,0.64-0.256,0.64-0.64C11.584,19.968,11.328,19.648,10.944,19.648z M13.824,22.208c-0.384,0-0.64,0.256-0.64,0.64
	c0,0.385,0.256,0.641,0.64,0.641c0.384,0,0.64-0.256,0.64-0.641C14.464,22.464,14.208,22.208,13.824,22.208z M16.576,22.336
	c-0.384,0-0.64,0.256-0.64,0.641c0,0.383,0.256,0.64,0.64,0.64c0.384,0,0.64-0.257,0.64-0.64
	C17.216,22.592,16.896,22.336,16.576,22.336z"/>
</svg>
