<?xml version="1.0" encoding="utf-8"?>
<!-- Generator: Adobe Illustrator 16.0.0, SVG Export Plug-In . SVG Version: 6.00 Build 0)  -->
<!DOCTYPE svg PUBLIC "-//W3C//DTD SVG 1.1//EN" "http://www.w3.org/Graphics/SVG/1.1/DTD/svg11.dtd">
<svg version="1.1" id="Layer_1" xmlns="http://www.w3.org/2000/svg" xmlns:xlink="http://www.w3.org/1999/xlink" x="0px" y="0px"
	 width="32px" height="32px" viewBox="0 0 32 32" enable-background="new 0 0 32 32" xml:space="preserve">
<title>ner</title>
<path fill="#3272A0" d="M32,16L16,32L0,16L16,0L32,16z M16,0.64L0.64,16L16,31.359L31.359,16L16,0.64z M22.721,12.48H22.4
	c-0.385,0-0.705-0.32-0.705-0.704v-0.192c0.129-0.192,0.257-0.384,0.32-0.64c0-0.064,0.064-0.064,0.064-0.064
	c0.128-0.128,0.128-0.32,0.064-0.512l-0.064-0.064c0-0.192,0-0.384,0-0.576c0-0.256-0.064-0.512-0.256-0.64
	c-0.129-0.128-0.32-0.256-0.512-0.256c-0.256-0.064-0.513-0.064-0.705,0c-0.191,0.064-0.383,0.192-0.512,0.384
	c-0.128,0.128-0.128,0.32-0.191,0.512c0,0.192,0,0.384,0,0.576c0,0.064,0,0.064-0.064,0.128c-0.064,0.192-0.064,0.384,0.064,0.512
	c0.063,0,0.063,0.064,0.063,0.128c0.064,0.192,0.192,0.384,0.32,0.576v0.256c0,0.384-0.32,0.704-0.704,0.704h-0.32
	c0,0-0.64,0.192-1.023,1.024v0.32c0,0.192,0.128,0.32,0.32,0.32h4.735c0.192,0,0.32-0.128,0.32-0.32v-0.32
	C23.296,12.672,22.721,12.48,22.721,12.48z M24.128,19.264l-2.688-2.367c-0.127-0.129-0.319-0.129-0.447,0l-2.688,2.367
	c-0.129,0.129-0.064,0.192,0.063,0.192H19.2v2.368c0,0.128,0.128,0.256,0.256,0.256h1.024v-1.6c0-0.129,0.127-0.256,0.256-0.256
	h1.023c0.129,0,0.256,0.127,0.256,0.256v1.6h1.024c0.128,0,0.256-0.128,0.256-0.256v-2.368h0.832
	C24.191,19.456,24.256,19.393,24.128,19.264z M14.464,9.536h-7.04V22.08h9.152V11.776L14.464,9.536z M14.336,10.496l1.344,1.408
	h-1.344V10.496z M15.808,21.313H8.192V10.368h5.312v2.368h2.304V21.313z M8.96,17.408h4.544v0.768H8.96V17.408L8.96,17.408z
	 M8.96,14.272h6.08v0.768H8.96V14.272z M8.96,15.808h6.08v0.833H8.96V15.808z"/>
</svg>
