<?xml version="1.0" encoding="utf-8"?>
<!-- Generator: Adobe Illustrator 16.0.0, SVG Export Plug-In . SVG Version: 6.00 Build 0)  -->
<!DOCTYPE svg PUBLIC "-//W3C//DTD SVG 1.1//EN" "http://www.w3.org/Graphics/SVG/1.1/DTD/svg11.dtd">
<svg version="1.1" id="Layer_1" xmlns="http://www.w3.org/2000/svg" xmlns:xlink="http://www.w3.org/1999/xlink" x="0px" y="0px"
	 width="32px" height="32px" viewBox="0 0 32 32" enable-background="new 0 0 32 32" xml:space="preserve">
<title>news</title>
<path fill="#3272A0" d="M29.25,0H9.75C8.233,0,7.001,1.289,7.001,2.875V23.5c0,0.275-0.225,0.5-0.5,0.5s-0.5-0.225-0.5-0.5V9.001
	c0-0.555-0.468-1.041-1.01-1c-0.113,0.001-2.232,0.01-2.24,0.001C1.233,8.003,0,9.294,0,10.878v16.121C0,29.755,2.243,32,5,32
	v-0.027C5.271,32,5.59,32,5.945,32H27c2.756,0,5-2.243,5-5V2.875C32,1.289,30.768,0,29.25,0z M30,27c0,1.654-1.346,3-3,3
	c0,0-21.805,0-22,0c-1.654,0-3-1.346-3-3.001V10.877c0-0.482,0.337-0.875,0.75-0.875H4v13.497c0,1.378,1.121,2.5,2.5,2.5
	s2.5-1.122,2.5-2.5V2.874c0-0.482,0.337-0.875,0.75-0.875h19.5c0.413,0,0.75,0.393,0.75,0.875V27L30,27z M12,14c0.553,0,1-0.447,1-1
	V8.486l3.152,5.043c0.033,0.054,0.076,0.098,0.116,0.142c0.013,0.014,0.022,0.03,0.036,0.044c0.081,0.08,0.176,0.14,0.276,0.187
	c0.023,0.012,0.049,0.02,0.072,0.029c0.111,0.041,0.227,0.068,0.344,0.068c0.002,0,0.002,0.001,0.003,0.001S17,14,17,14
	c0.116,0,0.229-0.028,0.342-0.068c0.033-0.013,0.063-0.025,0.094-0.041c0.029-0.016,0.063-0.022,0.094-0.041
	c0.029-0.021,0.051-0.053,0.076-0.076c0.059-0.043,0.104-0.086,0.147-0.139c0.041-0.05,0.074-0.1,0.104-0.155
	c0.031-0.056,0.057-0.111,0.076-0.173c0.02-0.065,0.032-0.131,0.041-0.198c0.004-0.039,0.021-0.07,0.021-0.109V5
	c0-0.553-0.447-1-1-1c-0.552,0.001-0.998,0.447-0.998,1v4.515l-3.152-5.044c-0.02-0.031-0.051-0.049-0.073-0.077
	c-0.043-0.056-0.088-0.106-0.142-0.15c-0.049-0.041-0.1-0.074-0.154-0.104c-0.056-0.031-0.111-0.056-0.172-0.076
	c-0.066-0.022-0.132-0.033-0.2-0.041C12.066,4.018,12.036,4,11.997,4c-0.026,0-0.049,0.014-0.074,0.016
	c-0.068,0.004-0.132,0.021-0.198,0.04c-0.064,0.018-0.126,0.038-0.185,0.068c-0.024,0.012-0.051,0.013-0.073,0.027
	c-0.032,0.02-0.051,0.052-0.079,0.076c-0.055,0.042-0.104,0.086-0.147,0.139c-0.041,0.05-0.074,0.1-0.104,0.155
	c-0.031,0.056-0.057,0.111-0.077,0.173c-0.021,0.065-0.032,0.131-0.04,0.198C11.016,4.93,10.997,4.962,10.997,5v8
	c0.001,0.554,0.447,1,1,1H12z M20,27h8v-6h-8V27z M27,4h-6c-0.552,0-1,0.447-1,1s0.447,1,1,1h6c0.552,0,1-0.447,1-1S27.552,4,27,4z
	 M27,8h-6c-0.552,0-1,0.447-1,1s0.447,1,1,1h6c0.552,0,1-0.447,1-1S27.552,8,27,8z M27,12h-6c-0.552,0-1,0.447-1,1s0.447,1,1,1h6
	c0.552,0,1-0.447,1-1S27.552,12,27,12z M17,21h-5c-0.553,0-1,0.448-1,1s0.447,1,1,1h5c0.552,0,1-0.447,1-1S17.552,21,17,21z M17,25
	h-5c-0.553,0-1,0.448-1,1s0.447,1,1,1h5c0.552,0,1-0.447,1-1S17.552,25,17,25z M27,16H12c-0.553,0-1,0.447-1,1v1
	c0,0.552,0.447,1,1,1h15c0.552,0,1-0.448,1-1v-1C27.999,16.446,27.552,16,27,16z"/>
</svg>
