<?xml version="1.0" encoding="utf-8"?>
<!-- Generator: Adobe Illustrator 16.0.0, SVG Export Plug-In . SVG Version: 6.00 Build 0)  -->
<!DOCTYPE svg PUBLIC "-//W3C//DTD SVG 1.1//EN" "http://www.w3.org/Graphics/SVG/1.1/DTD/svg11.dtd">
<svg version="1.1" id="Layer_1" xmlns="http://www.w3.org/2000/svg" xmlns:xlink="http://www.w3.org/1999/xlink" x="0px" y="0px"
	 width="32px" height="32px" viewBox="0 0 32 32" enable-background="new 0 0 32 32" xml:space="preserve">
<title>next</title>
<path fill="#3272A0" d="M14.08,7.232c-0.384-0.384-1.024-0.384-1.408,0c-0.384,0.384-0.384,1.024,0,1.408l7.232,7.232l-7.232,7.231
	c-0.384,0.385-0.384,1.024,0,1.408c0.192,0.192,0.448,0.32,0.704,0.32s0.512-0.128,0.704-0.32l7.936-7.936
	c0.129-0.128,0.192-0.256,0.256-0.384c0.129-0.384,0-0.768-0.256-1.024L14.08,7.232z M16,0C7.168,0,0,7.168,0,16s7.168,16,16,16
	s16-7.168,16-16S24.832,0,16,0z M16,30.016C8.256,30.016,1.984,23.744,1.984,16S8.256,1.984,16,1.984S30.016,8.256,30.016,16
	S23.744,30.016,16,30.016z"/>
</svg>
