<?xml version="1.0" encoding="utf-8"?>
<!-- Generator: Adobe Illustrator 16.0.0, SVG Export Plug-In . SVG Version: 6.00 Build 0)  -->
<!DOCTYPE svg PUBLIC "-//W3C//DTD SVG 1.1//EN" "http://www.w3.org/Graphics/SVG/1.1/DTD/svg11.dtd">
<svg version="1.1" id="Layer_1" xmlns="http://www.w3.org/2000/svg" xmlns:xlink="http://www.w3.org/1999/xlink" x="0px" y="0px"
	 width="32px" height="32px" viewBox="0 0 32 32" enable-background="new 0 0 32 32" xml:space="preserve">
<title>on-premises</title>
<path fill="#3272A0" d="M16-0.009c8.822,0,16,7.177,16,16s-7.178,16-16,16c-8.824,0-16-7.179-16-16C0,7.169,7.176-0.009,16-0.009z
	 M16,31.352c8.471,0,15.359-6.891,15.359-15.36c0-8.47-6.889-15.36-15.359-15.36c-8.47,0-15.36,6.89-15.36,15.36
	C0.64,24.461,7.53,31.352,16,31.352z M21.869,6.391H10.13c-0.211,0-0.382,0.171-0.382,0.381v3.47c0,0.211,0.172,0.381,0.382,0.381
	h11.739c0.211,0,0.382-0.172,0.382-0.381v-3.47C22.251,6.561,22.079,6.391,21.869,6.391L21.869,6.391z M16,9.412h-5.01V7.408H16
	V9.412z M21.869,11.509H10.13c-0.211,0-0.382,0.172-0.382,0.382v3.469c0,0.211,0.172,0.382,0.382,0.382h11.739
	c0.211,0,0.382-0.172,0.382-0.382v-3.469C22.251,11.68,22.079,11.509,21.869,11.509L21.869,11.509z M16,14.478h-5.01v-2.004H16
	V14.478z M21.869,16.577H10.13c-0.211,0-0.382,0.172-0.382,0.382v3.471c0,0.211,0.172,0.381,0.382,0.381h11.739
	c0.211,0,0.382-0.172,0.382-0.381v-3.471C22.251,16.748,22.079,16.577,21.869,16.577L21.869,16.577z M16,19.695h-5.01v-2.004H16
	V19.695z M18.648,24.395h2.994v0.547h-2.988v0.025c0,0.346-0.28,0.625-0.625,0.625h-4.056c-0.346,0-0.625-0.279-0.625-0.625v-0.025
	h-2.99v-0.547h2.995c0.028-0.32,0.293-0.574,0.621-0.574h1.244v-1.25c0-0.344,0.28-0.625,0.626-0.625h0.312
	c0.344,0,0.625,0.281,0.625,0.625v1.25h1.248c0.328,0.002,0.594,0.254,0.621,0.574l0,0H18.648z"/>
</svg>
