<?xml version="1.0" encoding="utf-8"?>
<!-- Generator: Adobe Illustrator 16.0.0, SVG Export Plug-In . SVG Version: 6.00 Build 0)  -->
<!DOCTYPE svg PUBLIC "-//W3C//DTD SVG 1.1//EN" "http://www.w3.org/Graphics/SVG/1.1/DTD/svg11.dtd">
<svg version="1.1" id="Layer_1" xmlns="http://www.w3.org/2000/svg" xmlns:xlink="http://www.w3.org/1999/xlink" x="0px" y="0px"
	 width="32px" height="32px" viewBox="0 0 32 32" enable-background="new 0 0 32 32" xml:space="preserve">
<title>oozie-deployment</title>
<path fill="#3272A0" d="M16,0c8.822,0,16,7.177,16,16s-7.178,16-16,16C7.176,32,0,24.822,0,16C0,7.178,7.176,0,16,0z M16,31.359
	c8.471,0,15.359-6.889,15.359-15.359c0-8.47-6.889-15.36-15.359-15.36C7.53,0.64,0.64,7.53,0.64,16
	C0.64,24.471,7.53,31.359,16,31.359z M8.46,19.21c-1.217,0.065-2.432,0.08-3.651,0.051c-0.034,0.394,0.029,0.745,0.119,1.125
	c1.249-0.086,2.49-0.22,3.727-0.409C8.547,19.725,8.483,19.466,8.46,19.21L8.46,19.21L8.46,19.21z M9.005,20.577
	c-1.208,0.294-2.422,0.526-3.651,0.712c0.265,0.406,0.594,0.744,0.946,1.072c1.142-0.313,2.266-0.672,3.374-1.088
	C9.426,21.066,9.198,20.835,9.005,20.577L9.005,20.577z M8.723,17.82c-1.041-0.137-2.074-0.307-3.103-0.514
	c-0.235,0.346-0.426,0.68-0.597,1.062c1.153,0.112,2.306,0.187,3.464,0.217C8.529,18.329,8.611,18.07,8.723,17.82L8.723,17.82
	L8.723,17.82z M10.399,21.779c-0.982,0.512-1.983,0.968-3.009,1.383c0.547,0.337,1.124,0.607,1.715,0.859
	c0.824-0.535,1.619-1.1,2.389-1.709C11.116,22.152,10.758,21.98,10.399,21.779L10.399,21.779z M10.737,24.576
	c0.74,0.197,1.481,0.354,2.237,0.476c0.324-0.696,0.628-1.399,0.916-2.11c-0.465-0.068-0.926-0.164-1.379-0.289
	C11.946,23.32,11.355,23.958,10.737,24.576L10.737,24.576L10.737,24.576z M27.189,19.261c-1.219,0.029-2.434,0.015-3.65-0.051
	c-0.021,0.257-0.087,0.515-0.195,0.767c1.238,0.189,2.479,0.323,3.727,0.409C27.161,20.006,27.225,19.654,27.189,19.261
	L27.189,19.261z M22.324,21.273c1.107,0.418,2.232,0.776,3.374,1.09c0.352-0.33,0.681-0.668,0.946-1.073
	c-1.229-0.187-2.443-0.419-3.65-0.712C22.8,20.837,22.573,21.068,22.324,21.273L22.324,21.273z M26.977,18.369
	c-0.172-0.383-0.363-0.715-0.599-1.061c-1.028,0.205-2.062,0.377-3.103,0.514c0.113,0.25,0.195,0.508,0.236,0.764
	C24.671,18.555,25.823,18.482,26.977,18.369L26.977,18.369z M20.505,22.313c0.769,0.609,1.565,1.174,2.39,1.709
	c0.59-0.252,1.166-0.522,1.715-0.859c-1.025-0.415-2.027-0.871-3.008-1.383C21.242,21.979,20.884,22.152,20.505,22.313
	L20.505,22.313z M18.109,22.941c0.287,0.713,0.593,1.414,0.916,2.111c0.756-0.123,1.496-0.279,2.236-0.476
	c-0.619-0.618-1.21-1.257-1.773-1.923c-0.454,0.125-0.915,0.22-1.379,0.289l0,0V22.941z M16,23.102
	c-0.253,0-0.686-0.025-0.938-0.039c-0.059,0.721-0.12,1.441-0.184,2.162c0,0,0.255,0.045,1.121,0.045s1.121-0.045,1.121-0.045
	c-0.063-0.721-0.124-1.442-0.183-2.162C16.684,23.076,16.253,23.102,16,23.102L16,23.102L16,23.102z M10.995,19.178l0.003,0.025
	c0.281,1.363,2.73,2.076,5.002,2.076c2.271,0,4.725-0.713,5.007-2.076l-0.001-1.229c0-0.371-0.156-0.701-0.427-0.986
	c0.22-0.225,0.369-0.477,0.428-0.755l-0.001-1.228c0-0.372-0.156-0.701-0.427-0.988c0.22-0.224,0.369-0.475,0.428-0.755
	l-0.001-1.228c0-0.372-0.156-0.701-0.427-0.987c0.22-0.225,0.369-0.476,0.428-0.755l-0.001-1.228c0-1.516-2.579-2.333-5.007-2.333
	c-2.428,0-5.007,0.817-5.007,2.333l0.001,1.202l0.003,0.026c0.058,0.278,0.206,0.529,0.424,0.752
	c-0.272,0.287-0.429,0.617-0.429,0.989l0.001,1.203l0.003,0.026c0.058,0.278,0.206,0.529,0.424,0.753
	c-0.272,0.287-0.429,0.617-0.429,0.989l0.001,1.202l0.003,0.026c0.058,0.278,0.206,0.529,0.424,0.752
	c-0.272,0.287-0.429,0.617-0.429,0.99l0.004,1.202L10.995,19.178z M15.999,7.834c2.421,0,3.903,0.797,3.903,1.231
	s-1.481,1.23-3.903,1.23s-3.903-0.797-3.903-1.23C12.096,8.631,13.578,7.834,15.999,7.834L15.999,7.834z M12.349,11.674
	c0.979,0.46,2.343,0.697,3.651,0.697c1.307,0,2.673-0.236,3.65-0.696c0.164,0.13,0.254,0.256,0.254,0.36
	c0,0.434-1.482,1.23-3.904,1.23s-3.903-0.796-3.903-1.23C12.097,11.931,12.185,11.805,12.349,11.674L12.349,11.674L12.349,11.674z
	 M12.349,14.643c0.979,0.46,2.343,0.698,3.651,0.698c1.307,0,2.673-0.236,3.65-0.697c0.164,0.131,0.254,0.256,0.254,0.361
	c0,0.434-1.482,1.231-3.904,1.231s-3.903-0.797-3.903-1.231C12.097,14.9,12.185,14.774,12.349,14.643L12.349,14.643L12.349,14.643z
	 M12.349,17.613c0.979,0.461,2.343,0.697,3.651,0.697c1.307,0,2.673-0.236,3.65-0.696c0.164,0.131,0.254,0.256,0.254,0.36
	c0,0.434-1.482,1.229-3.904,1.229s-3.903-0.796-3.903-1.229C12.097,17.87,12.185,17.743,12.349,17.613L12.349,17.613L12.349,17.613z
	"/>
</svg>
