<?xml version="1.0" encoding="utf-8"?>
<!-- Generator: Adobe Illustrator 16.0.0, SVG Export Plug-In . SVG Version: 6.00 Build 0)  -->
<!DOCTYPE svg PUBLIC "-//W3C//DTD SVG 1.1//EN" "http://www.w3.org/Graphics/SVG/1.1/DTD/svg11.dtd">
<svg version="1.1" id="Layer_1" xmlns="http://www.w3.org/2000/svg" xmlns:xlink="http://www.w3.org/1999/xlink" x="0px" y="0px"
	 width="32px" height="32px" viewBox="0 0 32 32" enable-background="new 0 0 32 32" xml:space="preserve">
<title>optimized-join</title>
<path fill="#64953B" d="M16,0c8.822,0,16,7.177,16,16s-7.178,16-16,16C7.176,32,0,24.822,0,16C0,7.178,7.176,0,16,0z M16,31.359
	c8.471,0,15.359-6.889,15.359-15.359c0-8.47-6.889-15.36-15.359-15.36C7.53,0.64,0.64,7.53,0.64,16
	C0.64,24.471,7.53,31.359,16,31.359z M22.193,12.975l0.035,3.01c0.01,0.832-0.654,1.51-1.486,1.517l-1.004,0.008l-0.012-1.004
	l1.004-0.008c0.275-0.003,0.498-0.228,0.496-0.506l-0.037-3.01c-0.002-0.276-0.23-0.5-0.508-0.498l-1.005,0.008
	c-0.274,0.003-0.497,0.229-0.495,0.506l0.014,1.075c-0.396,0.106-0.738,0.328-0.996,0.63l-0.02-1.697
	c-0.012-0.831,0.654-1.51,1.485-1.517l1.004-0.008C21.501,11.475,22.184,12.143,22.193,12.975L22.193,12.975z M21.249,17.928
	l0.013,1.074c0.004,0.277-0.219,0.504-0.494,0.506l-1.004,0.008c-0.277,0.004-0.505-0.221-0.509-0.498l-0.036-3.01
	c-0.003-0.276,0.221-0.504,0.495-0.506l1.004-0.008l-0.012-1.004l-1.004,0.008c-0.831,0.006-1.497,0.685-1.487,1.517l0.036,3.01
	c0.011,0.83,0.692,1.5,1.522,1.492l1.004-0.009c0.832-0.006,1.498-0.685,1.488-1.517l-0.021-1.696
	C21.986,17.598,21.645,17.82,21.249,17.928L21.249,17.928z M24.699,24.092c-1.719-0.764-3.432-1.537-5.149-2.3
	c-0.056-0.024-0.086-0.056-0.116-0.087l-2.229-0.977c0,0.012,0,0.021,0,0.031c-1.105-0.494-2.209-0.988-3.312-1.484l-0.378-0.166
	l0.001-0.002c-2.284-1.024-4.568-2.049-6.87-3.082c2.728-1.215,5.436-2.421,8.146-3.628l-0.02-0.048l6.716-2.912
	c1.07-0.474,2.141-0.948,3.211-1.42c0.125-0.054,0.18-0.114,0.178-0.259c-0.008-0.726-0.003-1.453-0.004-2.18
	c0-0.056-0.01-0.111-0.016-0.195C17.023,8.93,9.214,12.464,1.396,16.002c7.839,3.542,15.644,7.068,23.478,10.607
	c0-0.774-0.004-1.508,0.003-2.239C24.878,24.225,24.833,24.15,24.699,24.092L24.699,24.092z"/>
</svg>
