<?xml version="1.0" encoding="utf-8"?>
<!-- Generator: Adobe Illustrator 16.0.0, SVG Export Plug-In . SVG Version: 6.00 Build 0)  -->
<!DOCTYPE svg PUBLIC "-//W3C//DTD SVG 1.1//EN" "http://www.w3.org/Graphics/SVG/1.1/DTD/svg11.dtd">
<svg version="1.1" id="Layer_1" xmlns="http://www.w3.org/2000/svg" xmlns:xlink="http://www.w3.org/1999/xlink" x="0px" y="0px"
	 width="32px" height="32px" viewBox="0 0 32 32" enable-background="new 0 0 32 32" xml:space="preserve">
<title>oracle</title>
<path fill="#3272A0" d="M16.077,0c8.821,0,16,7.177,16,16s-7.179,16-16,16c-8.824,0-16-7.178-16-16C0.077,7.178,7.253,0,16.077,0z
	 M16.077,31.359c8.47,0,15.36-6.889,15.36-15.359c0-8.47-6.891-15.36-15.36-15.36c-8.47,0-15.36,6.89-15.36,15.36
	C0.717,24.471,7.607,31.359,16.077,31.359z M14.944,17.139h1.587l-0.839-1.351l-1.54,2.442h-0.701l1.874-2.933
	c0.081-0.118,0.217-0.19,0.368-0.19c0.146,0,0.282,0.069,0.36,0.185l1.88,2.938h-0.701l-0.33-0.545h-1.607l-0.351-0.545V17.139z
	 M22.227,17.684v-2.548h-0.596v2.798c0,0.076,0.029,0.149,0.086,0.207c0.057,0.057,0.133,0.088,0.217,0.088h2.713l0.352-0.545
	H22.227z M12.384,17.227c0.578,0,1.046-0.467,1.046-1.043c0-0.577-0.469-1.046-1.046-1.046H9.781v3.093h0.595v-2.548h1.969
	c0.276,0,0.499,0.225,0.499,0.501s-0.222,0.5-0.499,0.5l-1.677-0.002l1.776,1.547h0.864l-1.195-1.002H12.384L12.384,17.227z
	 M6.12,18.229c-0.854,0-1.547-0.69-1.547-1.545c0-0.855,0.693-1.549,1.547-1.549h1.798c0.854,0,1.546,0.694,1.546,1.549
	c0,0.854-0.692,1.545-1.546,1.545H6.12z M7.878,17.684c0.553,0,1.001-0.447,1.001-1s-0.448-1.001-1.001-1.001H6.16
	c-0.553,0-1.001,0.449-1.001,1.001s0.448,1,1.001,1H7.878z M19.175,18.229c-0.854,0-1.548-0.69-1.548-1.545
	c0-0.855,0.693-1.549,1.548-1.549h2.136l-0.349,0.545h-1.748c-0.553,0-1.002,0.449-1.002,1.001s0.449,1,1.002,1h2.146l-0.352,0.545
	h-1.834L19.175,18.229z M26.45,17.684c-0.457,0-0.845-0.306-0.964-0.728h2.543l0.352-0.545h-2.893
	c0.117-0.42,0.506-0.728,0.963-0.728h1.744l0.354-0.545h-2.138c-0.854,0-1.548,0.694-1.548,1.547c0,0.854,0.693,1.547,1.548,1.547
	h1.834l0.351-0.545H26.45V17.684z M28.867,15.464c0-0.15,0.121-0.271,0.271-0.271c0.152,0,0.273,0.121,0.273,0.271
	c0,0.153-0.121,0.274-0.273,0.274C28.988,15.738,28.867,15.617,28.867,15.464z M29.139,15.815c0.192,0,0.348-0.156,0.348-0.348
	c0-0.192-0.156-0.348-0.348-0.348c-0.19,0-0.347,0.156-0.347,0.348C28.792,15.659,28.948,15.815,29.139,15.815z M29.105,15.26
	c0.055,0,0.078,0.003,0.102,0.012c0.068,0.022,0.077,0.084,0.077,0.109c0,0.005,0,0.017-0.005,0.032
	c-0.004,0.015-0.012,0.044-0.047,0.067c-0.006,0.003-0.008,0.005-0.018,0.01l0.09,0.161h-0.087l-0.079-0.148h-0.054v0.148h-0.077
	v-0.39h0.1L29.105,15.26z M29.133,15.437c0.025-0.003,0.049-0.003,0.064-0.025c0.008-0.01,0.01-0.02,0.01-0.035
	c0-0.02-0.012-0.037-0.029-0.047c-0.017-0.008-0.035-0.008-0.072-0.008h-0.021v0.113h0.05L29.133,15.437z"/>
</svg>
