<?xml version="1.0" encoding="utf-8"?>
<!-- Generator: Adobe Illustrator 16.0.0, SVG Export Plug-In . SVG Version: 6.00 Build 0)  -->
<!DOCTYPE svg PUBLIC "-//W3C//DTD SVG 1.1//EN" "http://www.w3.org/Graphics/SVG/1.1/DTD/svg11.dtd">
<svg version="1.1" id="Layer_1" xmlns="http://www.w3.org/2000/svg" xmlns:xlink="http://www.w3.org/1999/xlink" x="0px" y="0px"
	 width="32px" height="32px" viewBox="0 0 32 32" enable-background="new 0 0 32 32" xml:space="preserve">
<title>parquet-sink</title>
<path fill="#3272A0" d="M22.982,17.902c0.276-0.273,0.336-0.454,0.016-0.732c-0.363-0.314-0.686-0.675-1.027-1.016
	c-0.643-0.643-0.676-0.635-1.246,0.072c-0.139,0.17-0.144,0.346-0.144,0.538c0.001,0.637,0.002,1.272-0.001,1.907
	c-0.001,0.172,0.035,0.354-0.111,0.49c-0.787,0.739-1.369,1.877-2.769,1.44c-0.155,0-0.312,0.021-0.462-0.004
	c-0.629-0.1-1.087,0.137-1.506,0.609c-0.561,0.632-1.191,1.205-1.787,1.807c-0.432,0.436-0.44,0.926-0.024,1.354
	c0.308,0.318,0.646,0.611,0.932,0.947c0.275,0.32,0.458,0.262,0.733-0.016c2.456-2.476,4.92-4.939,7.395-7.396H22.982z
	 M14.031,8.291c-0.093,0.109-0.173,0.216-0.264,0.31c-1.727,1.729-3.459,3.453-5.179,5.189c-0.234,0.236-0.378,0.233-0.6-0.004
	c-0.433-0.464-0.885-0.911-1.345-1.348c-0.221-0.21-0.274-0.364-0.028-0.608c1.764-1.747,3.515-3.506,5.271-5.261
	c0.123-0.124,0.236-0.269,0.426-0.076c0.525,0.536,1.059,1.063,1.587,1.596C13.951,8.142,13.983,8.214,14.031,8.291z M25.4,19.579
	c0.195,0.188,0.197,0.328,0.002,0.522c-1.773,1.765-3.539,3.535-5.31,5.303c-0.065,0.068-0.143,0.121-0.233,0.197
	c-0.088-0.07-0.168-0.121-0.232-0.186c-0.492-0.488-0.977-0.984-1.473-1.466c-0.195-0.188-0.196-0.328-0.002-0.522
	c1.773-1.764,3.541-3.533,5.307-5.307c0.17-0.172,0.292-0.198,0.473-0.012C24.412,18.607,24.902,19.098,25.4,19.579z M15.439,11.366
	c-1.188-0.003-2.376-0.001-3.725,0c1.687-1.687,3.256-3.25,4.817-4.82c0.182-0.183,0.303-0.163,0.472,0.011
	c0.483,0.498,0.972,0.99,1.472,1.471c0.209,0.202,0.158,0.342-0.022,0.522c-0.877,0.867-1.747,1.74-2.618,2.613
	C15.723,11.274,15.611,11.367,15.439,11.366L15.439,11.366z M20.291,12.04c1.041-1.151,1.041-1.151,2.134-0.058
	c0.921,0.921,0.921,0.92-0.017,1.859c-0.566,0.57-1.129,1.145-1.827,1.853c0-0.751,0-1.318,0-1.887
	c-0.001-0.471,0.095-0.968-0.396-1.296c-0.131-0.088-0.129-0.226-0.014-0.346C20.212,12.123,20.252,12.082,20.291,12.04z
	 M8.884,14.706c-0.113-0.115-0.296-0.218-0.093-0.42c0.826-0.824,1.645-1.653,2.468-2.481c0.048,0.017,0.095,0.035,0.142,0.052
	c0,0.913-0.013,1.827,0.004,2.739c0.012,0.586,0.035,1.14-0.527,1.544c-0.234,0.167-0.359,0.219-0.569-0.001
	C9.844,15.652,9.357,15.185,8.884,14.706z M11.379,20.094c-0.013,0.375-0.424,0.574-0.691,0.811
	c-0.162,0.144-0.276-0.051-0.378-0.151c-0.481-0.471-0.956-0.946-1.43-1.427c-0.116-0.116-0.286-0.221-0.086-0.42
	c0.828-0.82,1.649-1.646,2.6-2.596C11.394,17.689,11.422,18.893,11.379,20.094L11.379,20.094z M16.342,11.366
	c0.922-0.922,1.733-1.729,2.536-2.543c0.175-0.176,0.289-0.103,0.429,0.038c0.483,0.492,0.971,0.984,1.465,1.464
	c0.191,0.185,0.215,0.334,0.006,0.52c-0.213,0.192-0.424,0.392-0.608,0.611c-0.321,0.38-0.624,0.629-1,0.056
	c-0.12-0.183-0.338-0.147-0.528-0.147C17.93,11.365,17.221,11.365,16.342,11.366L16.342,11.366z M17.025,18.212
	c-0.062-0.044-0.115-0.101-0.166-0.155c-0.4-0.438-1.126-0.787-1.149-1.293c-0.021-0.471,0.71-0.827,1.103-1.241
	c0.453-0.479,0.924-0.94,1.39-1.409c0.044,0.023,0.088,0.046,0.132,0.068c0,1.2,0.033,2.401-0.016,3.599
	C18.298,18.297,17.486,18.536,17.025,18.212L17.025,18.212z M16.212,15.409c-0.827,0.818-1.65,1.64-2.568,2.554
	c0-1.316,0.002-2.499-0.001-3.681c-0.001-0.294,0.187-0.508,0.41-0.568c0.316-0.086,0.682-0.173,0.973,0.12
	c0.38,0.381,0.759,0.763,1.141,1.141C16.304,15.11,16.386,15.237,16.212,15.409z M15.578,20.602
	c-0.675,0.666-1.273,1.256-1.933,1.907c0-0.579,0.001-1.12,0-1.663c0-0.211,0.136-0.244,0.307-0.244
	C14.466,20.604,14.979,20.602,15.578,20.602z M16.924,14.7c-0.15,0.157-0.257,0.083-0.383-0.036
	c-0.305-0.287-0.62-0.564-0.931-0.845c0.03-0.046,0.06-0.092,0.089-0.138c0.701,0,1.402,0,2.222,0
	C17.547,14.062,17.232,14.379,16.924,14.7L16.924,14.7z M14.301,18.033c0.996-1.049,1.055-1.041,1.984,0.224
	c-0.72,0-1.407,0-2.168,0C14.208,18.146,14.251,18.085,14.301,18.033z M11.055,21.277c0.045-0.09,0.158-0.23,0.257-0.162
	c0.207,0.143,0.075,0.367,0.087,0.673C11.163,21.605,10.92,21.553,11.055,21.277z M16,0C7.176,0,0,7.177,0,16s7.176,16,16,16
	c8.822,0,16-7.178,16-16C32,7.178,24.822,0,16,0z M16,31.359C7.53,31.359,0.64,24.471,0.64,16C0.64,7.53,7.53,0.64,16,0.64
	c8.471,0,15.359,6.89,15.359,15.36C31.359,24.471,24.471,31.359,16,31.359z"/>
</svg>
