<?xml version="1.0" encoding="utf-8"?>
<!-- Generator: Adobe Illustrator 16.0.0, SVG Export Plug-In . SVG Version: 6.00 Build 0)  -->
<!DOCTYPE svg PUBLIC "-//W3C//DTD SVG 1.1//EN" "http://www.w3.org/Graphics/SVG/1.1/DTD/svg11.dtd">
<svg version="1.1" id="Layer_1" xmlns="http://www.w3.org/2000/svg" xmlns:xlink="http://www.w3.org/1999/xlink" x="0px" y="0px"
	 width="32px" height="32px" viewBox="0 0 32 32" enable-background="new 0 0 32 32" xml:space="preserve">
<title>pipeline2</title>
<path fill="#3272A0" d="M27.199,11.199c-2.09,0-3.859,1.336-4.52,3.199H11.863l5.269-5.269c0.628,0.297,1.329,0.473,2.067,0.473
	C21.852,9.602,24,7.449,24,4.801c0-2.654-2.148-4.802-4.801-4.802c-2.648,0-4.801,2.148-4.801,4.801
	c0,0.738,0.176,1.437,0.473,2.063l-6.242,6.245c-0.875-1.16-2.266-1.91-3.828-1.91C2.148,11.199,0,13.347,0,15.999
	C0,18.65,2.148,20.8,4.801,20.8c1.566,0,2.953-0.75,3.828-1.909l6.242,6.241c-0.297,0.629-0.473,1.329-0.473,2.067
	c0,2.648,2.153,4.801,4.801,4.801C21.852,32,24,29.848,24,27.199c0-2.653-2.148-4.801-4.801-4.801c-0.738,0-1.438,0.175-2.067,0.472
	L11.863,17.6H22.68c0.66,1.864,2.43,3.2,4.521,3.2c2.653,0,4.801-2.147,4.801-4.801C32.001,13.346,29.854,11.198,27.199,11.199
	L27.199,11.199L27.199,11.199z M19.199,3.199c0.883,0,1.601,0.715,1.601,1.602c0,0.883-0.719,1.597-1.601,1.597
	c-0.883,0-1.598-0.714-1.598-1.597C17.602,3.914,18.316,3.199,19.199,3.199L19.199,3.199z M4.801,17.602
	c-0.883,0-1.602-0.72-1.602-1.602s0.719-1.602,1.602-1.602c0.883,0,1.597,0.719,1.597,1.602S5.684,17.602,4.801,17.602L4.801,17.602
	z M19.199,25.602c0.883,0,1.601,0.715,1.601,1.598s-0.719,1.602-1.601,1.602c-0.883,0-1.598-0.719-1.598-1.602
	S18.316,25.602,19.199,25.602L19.199,25.602z M27.199,17.602c-0.883,0-1.598-0.72-1.598-1.602s0.715-1.602,1.598-1.602
	S28.8,15.117,28.8,16S28.081,17.602,27.199,17.602L27.199,17.602z"/>
</svg>
