<?xml version="1.0" encoding="utf-8"?>
<!-- Generator: Adobe Illustrator 16.0.0, SVG Export Plug-In . SVG Version: 6.00 Build 0)  -->
<!DOCTYPE svg PUBLIC "-//W3C//DTD SVG 1.1//EN" "http://www.w3.org/Graphics/SVG/1.1/DTD/svg11.dtd">
<svg version="1.1" id="Layer_1" xmlns="http://www.w3.org/2000/svg" xmlns:xlink="http://www.w3.org/1999/xlink" x="0px" y="0px"
	 width="32px" height="32px" viewBox="0 0 32 32" enable-background="new 0 0 32 32" xml:space="preserve">
<title>pipeline</title>
<path fill="#3272A0" d="M15.999,0C7.177,0,0,7.178,0,16c0,8.822,7.177,16,15.999,16C24.82,32,32,24.822,32,16
	C32,7.178,24.822,0,15.999,0L15.999,0z M15.999,29.9C8.334,29.9,2.098,23.665,2.098,16S8.333,2.099,15.999,2.099
	C23.666,2.099,29.9,8.335,29.9,16S23.665,29.9,15.999,29.9L15.999,29.9z M23.68,6.608c0,0.188,0,0.377,0,0.566
	c-0.015,0.088-0.031,0.175-0.046,0.263c-0.227,1.374-1.349,2.456-2.731,2.634c-1.391,0.178-2.74-0.564-3.315-1.828
	c-0.088-0.192-0.149-0.395-0.228-0.602c-0.033,0-0.074,0-0.115,0c-0.778,0-1.557,0-2.335,0c-0.328,0-0.463,0.134-0.463,0.462
	c-0.001,2.38-0.001,4.76,0,7.141c0,0.044,0.004,0.087,0.007,0.138c0.054,0,0.094,0,0.135,0c0.884,0,1.77-0.003,2.654,0.003
	c0.109,0.001,0.143-0.039,0.17-0.135c0.367-1.323,1.583-2.276,2.922-2.327c1.484-0.057,2.749,0.876,3.174,2.168
	c0.079,0.239,0.116,0.492,0.174,0.739c0,0.188,0,0.377,0,0.566c-0.009,0.031-0.019,0.062-0.022,0.094
	c-0.192,1.545-1.405,2.699-2.959,2.813c-1.313,0.096-2.573-0.652-3.114-1.853c-0.085-0.189-0.146-0.388-0.221-0.582
	c-0.966,0-1.935,0-2.909,0c-0.003,0.039-0.008,0.071-0.008,0.103c0,2.572-0.001,5.146,0,7.719c0.001,0.297,0.143,0.438,0.438,0.438
	c0.758,0,1.516,0,2.274,0c0.04,0,0.08,0,0.119,0c0.019-0.186,0.029-0.361,0.058-0.535c0.235-1.479,1.427-2.57,2.968-2.676
	c1.463-0.102,2.764,0.822,3.207,2.164c0.08,0.243,0.116,0.5,0.172,0.75c0,0.189,0,0.376,0,0.564
	c-0.008,0.028-0.018,0.055-0.021,0.082c-0.194,1.297-0.905,2.182-2.131,2.643c-0.238,0.089-0.497,0.119-0.748,0.177
	c-0.188,0-0.377,0-0.566,0c-0.027-0.006-0.054-0.017-0.083-0.021c-1.056-0.135-1.858-0.662-2.407-1.571
	c-0.047-0.079-0.097-0.101-0.185-0.101c-0.89,0.002-1.779,0-2.668,0.002c-0.283,0.002-0.557-0.039-0.812-0.164
	c-0.731-0.358-1.091-0.953-1.091-1.762c-0.003-2.549-0.001-5.097-0.001-7.646c0-0.056,0-0.11,0-0.166c-1.167,0-2.313,0-3.462,0
	c-0.013,0.046-0.026,0.089-0.038,0.131c-0.378,1.343-1.597,2.282-3.007,2.319c-1.382,0.035-2.653-0.853-3.087-2.172
	c-0.08-0.244-0.116-0.5-0.173-0.75c0-0.188,0-0.377,0-0.566c0.018-0.104,0.036-0.209,0.055-0.312
	c0.271-1.429,1.525-2.528,2.95-2.587c1.53-0.064,2.86,0.878,3.26,2.316c0.03,0.106,0.068,0.141,0.179,0.14
	c1.061-0.004,2.122-0.003,3.184-0.003c0.043,0,0.087,0,0.141,0c0-0.07,0-0.123,0-0.176c0-2.36-0.001-4.72,0.001-7.08
	c0-0.143,0.005-0.288,0.031-0.428c0.172-0.918,0.91-1.53,1.847-1.533c0.795-0.003,1.59-0.001,2.385-0.001c0.047,0,0.095,0,0.14,0
	c0.015-0.051,0.026-0.086,0.037-0.121c0.325-1.081,1.022-1.809,2.088-2.177c0.229-0.079,0.478-0.108,0.716-0.159
	c0.189,0,0.379,0,0.566,0c0.027,0.008,0.053,0.018,0.08,0.022c1.299,0.194,2.183,0.905,2.644,2.131
	c0.087,0.236,0.118,0.495,0.177,0.745H23.68z M6.391,14.401c-0.943,0.001-1.713,0.769-1.715,1.71
	c-0.003,0.948,0.769,1.724,1.715,1.726c0.944,0.003,1.722-0.774,1.723-1.72C8.115,15.171,7.341,14.4,6.391,14.401z M20.486,5.183
	c-0.947,0-1.723,0.776-1.721,1.721c0.002,0.94,0.774,1.713,1.715,1.717c0.944,0.003,1.723-0.772,1.724-1.717
	C22.205,5.957,21.434,5.183,20.486,5.183L20.486,5.183z M20.471,17.834c0.928,0.014,1.721-0.755,1.732-1.683
	c0.013-0.95-0.739-1.737-1.674-1.751c-0.963-0.015-1.747,0.734-1.764,1.686C18.75,17.038,19.512,17.82,20.471,17.834z
	 M22.204,25.107c0.004-0.947-0.767-1.726-1.712-1.729c-0.944-0.004-1.725,0.772-1.727,1.716c-0.002,0.94,0.77,1.719,1.709,1.721
	c0.949,0.004,1.727-0.764,1.73-1.709L22.204,25.107z"/>
</svg>
