<?xml version="1.0" encoding="utf-8"?>
<!-- Generator: Adobe Illustrator 16.0.0, SVG Export Plug-In . SVG Version: 6.00 Build 0)  -->
<!DOCTYPE svg PUBLIC "-//W3C//DTD SVG 1.1//EN" "http://www.w3.org/Graphics/SVG/1.1/DTD/svg11.dtd">
<svg version="1.1" id="Layer_1" xmlns="http://www.w3.org/2000/svg" xmlns:xlink="http://www.w3.org/1999/xlink" x="0px" y="0px"
	 width="32px" height="32px" viewBox="0 0 32 32" enable-background="new 0 0 32 32" xml:space="preserve">
<title>platalytics-web-services-deployment</title>
<path fill="#3272A0" d="M16,0c8.822,0,16,7.177,16,16s-7.178,16-16,16C7.176,32,0,24.822,0,16C0,7.178,7.176,0,16,0z M16,31.359
	c8.471,0,15.359-6.889,15.359-15.359c0-8.47-6.889-15.36-15.359-15.36C7.53,0.64,0.64,7.53,0.64,16
	C0.64,24.471,7.53,31.359,16,31.359z M14.46,13.878v-1.38h6.701v1.367l-0.036-0.007l-2.781,3.261l2.817,3.18v1.43H14.46v-1.381
	h4.612l-2.745-3.234l2.786-3.234L14.46,13.878L14.46,13.878z M11.345,17.75l2.787,3.234l-2.745,3.234H16V25.6H9.299v-1.43
	l2.818-3.18l-2.782-3.262l-0.036,0.008V16.37h6.702v1.381L11.345,17.75L11.345,17.75z M24.168,12.188
	c-0.652-1.733-2.33-2.971-4.291-2.971c-0.451,0-0.889,0.065-1.301,0.19c-1.119-1.808-3.115-3.008-5.393-3.008
	c-3.459,0-6.273,2.768-6.345,6.205c-1.266,0.733-2.116,2.1-2.116,3.663c0,2.333,1.896,4.23,4.23,4.23H8.6v-1.411h0.348
	c-1.552,0-2.814-1.26-2.814-2.819c0-1.332,0.924-2.454,2.173-2.747c-0.041-0.252-0.061-0.513-0.061-0.778
	c0-2.726,2.211-4.931,4.937-4.931c2.227,0,4.109,1.475,4.721,3.502c0.544-0.429,1.225-0.684,1.972-0.684
	c1.634,0,2.976,1.231,3.151,2.819h0.021c1.556,0,2.819,1.263,2.819,2.819s-1.26,2.819-2.819,2.819H23.4v1.411h-0.353
	c2.333,0,4.229-1.899,4.229-4.23C27.277,14.318,25.96,12.677,24.168,12.188L24.168,12.188L24.168,12.188z"/>
</svg>
