<?xml version="1.0" encoding="utf-8"?>
<!-- Generator: Adobe Illustrator 16.0.0, SVG Export Plug-In . SVG Version: 6.00 Build 0)  -->
<!DOCTYPE svg PUBLIC "-//W3C//DTD SVG 1.1//EN" "http://www.w3.org/Graphics/SVG/1.1/DTD/svg11.dtd">
<svg version="1.1" id="Layer_1" xmlns="http://www.w3.org/2000/svg" xmlns:xlink="http://www.w3.org/1999/xlink" x="0px" y="0px"
	 width="32px" height="32px" viewBox="0 0 32 32" enable-background="new 0 0 32 32" xml:space="preserve">
<title>plus</title>
<path fill="#3272A0" d="M15.423-0.015h1.427c0.137,0.045,0.34,0.136,0.611,0.272c0.635,0.317,1.109,0.815,1.428,1.494
	c0.227,0.408,0.34,1.359,0.34,2.854c0,0.136,0,1.155,0,3.057v5.027h4.959c3.261,0,4.981,0.022,5.162,0.067
	c1.404,0.272,2.266,1.064,2.582,2.378c0.045,0.272,0.067,0.544,0.067,0.815c0,1.402-0.634,2.377-1.903,2.92
	c-0.227,0.136-0.476,0.227-0.748,0.273c-0.181,0.045-1.902,0.066-5.162,0.066h-4.959v5.027c0,3.533-0.115,5.504-0.34,5.91
	c-0.318,0.68-0.793,1.179-1.428,1.494c-0.634,0.317-1.245,0.432-1.834,0.34c-0.227-0.045-0.476-0.112-0.747-0.203
	c-0.408-0.137-0.793-0.385-1.155-0.748c-0.362-0.363-0.612-0.748-0.748-1.155c-0.136-0.407-0.204-2.333-0.204-5.774v-4.893H7.675
	l-5.027-0.066l-0.272-0.067c-1.494-0.452-2.287-1.495-2.378-3.124c0-1.54,0.792-2.582,2.378-3.126l0.272-0.136h10.123V7.795
	c0-3.443,0.068-5.368,0.204-5.775c0.136-0.362,0.385-0.748,0.748-1.155c0.499-0.453,1.065-0.748,1.699-0.883L15.423-0.015z"/>
</svg>
