<?xml version="1.0" encoding="utf-8"?>
<!-- Generator: Adobe Illustrator 16.0.0, SVG Export Plug-In . SVG Version: 6.00 Build 0)  -->
<!DOCTYPE svg PUBLIC "-//W3C//DTD SVG 1.1//EN" "http://www.w3.org/Graphics/SVG/1.1/DTD/svg11.dtd">
<svg version="1.1" id="Layer_1" xmlns="http://www.w3.org/2000/svg" xmlns:xlink="http://www.w3.org/1999/xlink" x="0px" y="0px"
	 width="32px" height="32px" viewBox="0 0 32 32" enable-background="new 0 0 32 32" xml:space="preserve">
<title>predictor</title>
<path fill="#3272A0" d="M31.939,16L16.035,31.904L0.131,16L16.035,0.096L31.939,16z M16.035,0.732L0.767,16l15.268,15.27L31.303,16
	L16.035,0.732z M9.529,9.298c1.347-1.411,2.951-2.348,4.877-2.741c4.722-0.962,9.591,2.429,10.26,7.16
	c0.636,4.502-1.771,8.383-6.079,9.803c-0.067,0.021-0.135,0.049-0.203,0.074c-2.664,0.652-5.151,0.271-7.403-1.326
	C6.79,19.294,6.068,13.37,9.403,9.471C9.449,9.417,9.487,9.356,9.529,9.298z M18.318,22.711c0.07-0.014,0.145-0.018,0.214-0.041
	c3.862-1.248,6.171-5.363,5.227-9.315c-0.946-3.963-4.6-6.531-8.676-6.055c-1.874,0.218-3.483,1.017-4.769,2.424
	C10.28,9.75,10.24,9.771,10.212,9.802c-3.203,3.483-2.646,9.027,1.218,11.772C13.525,23.063,15.838,23.453,18.318,22.711
	L18.318,22.711z M12.519,24.939c-0.406-0.285-0.899-0.434-1.256-0.797c3.021,0.004,6.042,0.008,9.064,0.01
	c0.149,0,0.302,0,0.462,0.05c-0.77,0.368-1.366,1.086-2.307,1.05c-1.621-0.007-3.241-0.023-4.862-0.014
	C13.214,25.24,12.854,25.176,12.519,24.939z M13.998,25.854c0.011-0.024,0.022-0.047,0.034-0.072c1.347,0,2.692,0,4.04,0
	c0.009,0.023,0.018,0.046,0.027,0.07c-0.66,0.33-1.32,0.664-1.981,0.989c-0.044,0.021-0.119,0.015-0.164-0.008
	C15.3,26.509,14.649,26.182,13.998,25.854L13.998,25.854z M21.703,17.752c0.404-0.005,0.779,0.366,0.775,0.775
	c-0.002,0.414-0.369,0.771-0.785,0.763s-0.773-0.383-0.758-0.793C20.953,18.102,21.305,17.759,21.703,17.752L21.703,17.752z
	 M20.938,11.962c0.002-0.414,0.367-0.762,0.789-0.753c0.424,0.009,0.77,0.373,0.752,0.789c-0.017,0.394-0.373,0.742-0.765,0.745
	C21.314,12.746,20.936,12.364,20.938,11.962z M16.818,9.141c0.002,0.411-0.366,0.767-0.784,0.758
	c-0.417-0.007-0.776-0.38-0.757-0.786C15.294,8.72,15.65,8.375,16.04,8.37C16.449,8.365,16.818,8.731,16.818,9.141L16.818,9.141z
	 M18.295,14.249c-0.438,0.011-0.766-0.308-0.768-0.749c-0.004-0.425,0.34-0.785,0.748-0.783c0.41,0.002,0.757,0.364,0.752,0.786
	C19.021,13.925,18.713,14.24,18.295,14.249L18.295,14.249z M19.003,17.195c-0.094,0.453-0.493,0.628-1.106,0.49
	c-0.405-0.309-0.469-0.694-0.26-1.142c0.293-0.29,0.633-0.407,1.016-0.2c0.336,0.184,0.425,0.494,0.351,0.854V17.195z
	 M13.941,12.719c0.409,0.002,0.775,0.377,0.768,0.783c-0.009,0.421-0.367,0.758-0.791,0.747c-0.427-0.011-0.757-0.366-0.738-0.793
	C13.197,13.057,13.549,12.716,13.941,12.719L13.941,12.719z M16.818,15.148c0.005,0.414-0.354,0.763-0.777,0.76
	c-0.424-0.003-0.777-0.36-0.763-0.773c0.012-0.4,0.352-0.732,0.756-0.74c0.422-0.006,0.782,0.338,0.786,0.753H16.818z
	 M10.502,17.754c0.412-0.003,0.762,0.354,0.758,0.775c-0.002,0.427-0.347,0.767-0.769,0.759c-0.425-0.007-0.748-0.354-0.735-0.791
	C9.768,18.088,10.1,17.757,10.502,17.754z M13.912,16.25c0.436-0.013,0.793,0.32,0.797,0.744c0.003,0.408-0.329,0.748-0.741,0.761
	c-0.437,0.013-0.785-0.317-0.788-0.748C13.176,16.59,13.494,16.263,13.912,16.25z M16.053,20.24
	c0.422,0.003,0.776,0.361,0.765,0.773c-0.012,0.422-0.37,0.754-0.798,0.74c-0.424-0.014-0.767-0.382-0.743-0.794
	c0.024-0.399,0.372-0.724,0.775-0.72H16.053z M9.756,11.934c0.016-0.42,0.344-0.732,0.764-0.725
	c0.433,0.007,0.758,0.353,0.741,0.793c-0.015,0.404-0.37,0.747-0.765,0.738C10.078,12.731,9.739,12.364,9.756,11.934z"/>
</svg>
