<?xml version="1.0" encoding="utf-8"?>
<!-- Generator: Adobe Illustrator 16.0.0, SVG Export Plug-In . SVG Version: 6.00 Build 0)  -->
<!DOCTYPE svg PUBLIC "-//W3C//DTD SVG 1.1//EN" "http://www.w3.org/Graphics/SVG/1.1/DTD/svg11.dtd">
<svg version="1.1" id="Layer_1" xmlns="http://www.w3.org/2000/svg" xmlns:xlink="http://www.w3.org/1999/xlink" x="0px" y="0px"
	 width="50px" height="50px" viewBox="0 0 50 50" enable-background="new 0 0 50 50" xml:space="preserve">
<path fill="#64953B" d="M25,0c13.785,0,25,11.214,25,25c0,13.785-11.215,25-25,25C11.213,50,0,38.785,0,25C0,11.214,11.213,0,25,0
	 M25,49c13.234,0,24-10.766,24-24C49,11.767,38.234,1,25,1C11.766,1,1,11.767,1,25C1,38.234,11.766,49,25,49 M16.75,15.656h15v1.874
	h-15V15.656z M16.7,19.426h15.001v1.873H16.7V19.426z M12.999,11.876H35.5v15h1.876v-15c0-1.035-0.842-1.876-1.876-1.876H12.999
	c-1.035,0-1.874,0.841-1.874,1.876v26.248c0,1.037,0.838,1.876,1.874,1.876h13.126v-1.876H12.999V11.876z M16.738,26.924v1.877h4.56
	c0-0.652,0.097-1.283,0.272-1.877H16.738z M24.402,23.173H16.7v1.875h5.699C22.929,24.294,23.612,23.651,24.402,23.173z
	 M38.6,38.268l-4.298-4.252c0.988-1.146,1.585-2.641,1.585-4.276c0-3.624-2.936-6.561-6.56-6.561c-3.626,0-6.566,2.937-6.566,6.561
	c0,3.625,2.94,6.563,6.566,6.563c1.31,0,2.532-0.384,3.558-1.047l4.389,4.338c0.369,0.365,0.961,0.365,1.326,0
	C38.966,39.225,38.966,38.631,38.6,38.268z M24.637,29.738c0-2.59,2.099-4.688,4.69-4.688c2.587,0,4.685,2.098,4.685,4.688
	s-2.098,4.688-4.685,4.688C26.736,34.426,24.637,32.328,24.637,29.738z"/>
</svg>
