<?xml version="1.0" encoding="utf-8"?>
<!-- Generator: Adobe Illustrator 16.0.0, SVG Export Plug-In . SVG Version: 6.00 Build 0)  -->
<!DOCTYPE svg PUBLIC "-//W3C//DTD SVG 1.1//EN" "http://www.w3.org/Graphics/SVG/1.1/DTD/svg11.dtd">
<svg version="1.1" id="Layer_1" xmlns="http://www.w3.org/2000/svg" xmlns:xlink="http://www.w3.org/1999/xlink" x="0px" y="0px"
	 width="32px" height="32px" viewBox="0 0 32 32" enable-background="new 0 0 32 32" xml:space="preserve">
<title>radius-pin</title>
<path fill="#3272A0" d="M16,0c8.822,0,16,7.177,16,16s-7.178,16-16,16C7.176,32,0,24.822,0,16C0,7.178,7.176,0,16,0z M16,31.359
	c8.471,0,15.359-6.889,15.359-15.359c0-8.47-6.889-15.36-15.359-15.36C7.53,0.64,0.64,7.53,0.64,16
	C0.64,24.471,7.53,31.359,16,31.359z M16,3.2c-4.274,0-7.738,3.466-7.738,7.738c0,1.134,0.518,2.674,0.518,2.674
	c2.054,5.268,6.993,14.99,6.993,14.99c0.062,0.131,0.145,0.197,0.227,0.197s0.165-0.066,0.227-0.197c0,0,4.939-9.722,6.994-14.99
	c0,0,0.518-1.539,0.518-2.674C23.738,6.665,20.273,3.2,16,3.2z M16,14.47c-1.951,0-3.532-1.581-3.532-3.532S14.049,7.406,16,7.406
	s3.532,1.581,3.532,3.532S17.951,14.47,16,14.47z"/>
</svg>
