<?xml version="1.0" encoding="utf-8"?>
<!-- Generator: Adobe Illustrator 16.0.0, SVG Export Plug-In . SVG Version: 6.00 Build 0)  -->
<!DOCTYPE svg PUBLIC "-//W3C//DTD SVG 1.1//EN" "http://www.w3.org/Graphics/SVG/1.1/DTD/svg11.dtd">
<svg version="1.1" id="Layer_1" xmlns="http://www.w3.org/2000/svg" xmlns:xlink="http://www.w3.org/1999/xlink" x="0px" y="0px"
	 width="32px" height="32px" viewBox="0 0 32 32" enable-background="new 0 0 32 32" xml:space="preserve">
<title>ram</title>
<path fill="#3272A0" d="M31.298,10.616l-2.394-2.374c-0.709,0.709-1.569,1.063-2.582,1.063c-1.014,0-1.874-0.354-2.584-1.063
	c-0.709-0.71-1.063-1.57-1.063-2.583c0-1.013,0.354-1.874,1.063-2.583l-2.373-2.374c-0.469-0.469-1.042-0.703-1.719-0.703
	c-0.678,0-1.25,0.234-1.719,0.703L0.703,17.908C0.234,18.377,0,18.95,0,19.627c0,0.678,0.235,1.25,0.703,1.719l2.374,2.393
	c0.709-0.709,1.57-1.063,2.583-1.063c1.013,0,1.874,0.354,2.583,1.063c0.71,0.709,1.063,1.57,1.063,2.582
	c0,1.013-0.354,1.873-1.063,2.584l2.393,2.392c0.469,0.47,1.042,0.703,1.719,0.703c0.677,0,1.251-0.233,1.719-0.703l17.225-17.244
	c0.469-0.469,0.703-1.041,0.703-1.719c0-0.678-0.234-1.251-0.703-1.719L31.298,10.616z M26.15,14.414L14.415,26.15
	c-0.227,0.228-0.512,0.342-0.854,0.342c-0.342,0-0.627-0.114-0.854-0.342l-6.875-6.875c-0.241-0.24-0.361-0.525-0.361-0.854
	s0.12-0.612,0.361-0.854L17.568,5.83c0.228-0.228,0.513-0.343,0.854-0.343c0.343,0,0.627,0.114,0.854,0.343l6.875,6.874
	c0.242,0.241,0.361,0.526,0.361,0.855s-0.119,0.614-0.361,0.855H26.15z M18.422,7.559l6.002,6.001L13.561,24.423L7.56,18.422
	L18.422,7.559L18.422,7.559z"/>
</svg>
