<?xml version="1.0" encoding="utf-8"?>
<!-- Generator: Adobe Illustrator 16.0.0, SVG Export Plug-In . SVG Version: 6.00 Build 0)  -->
<!DOCTYPE svg PUBLIC "-//W3C//DTD SVG 1.1//EN" "http://www.w3.org/Graphics/SVG/1.1/DTD/svg11.dtd">
<svg version="1.1" id="Layer_1" xmlns="http://www.w3.org/2000/svg" xmlns:xlink="http://www.w3.org/1999/xlink" x="0px" y="0px"
	 width="32px" height="32px" viewBox="0 0 32 32" enable-background="new 0 0 32 32" xml:space="preserve">
<title>randomforest</title>
<path fill="#3272A0" d="M32,16L16,32L0,16L16,0L32,16z M16,0.64L0.64,16L16,31.359L31.359,16L16,0.64z M13.888,15.104
	C15.04,15.104,16,16,16,17.344c0,1.152-0.96,2.112-2.112,2.112c-1.152,0-2.112-0.96-2.112-2.112c0-0.703,0.32-1.28,0.832-1.664
	l-2.048-2.688c-0.256,0.128-0.576,0.192-0.896,0.192c-0.256,0-0.512-0.064-0.704-0.128l-1.984,2.56
	c0.512,0.384,0.832,0.96,0.832,1.663c0,1.152-0.96,2.113-2.112,2.113c-1.152,0-2.112-0.961-2.112-2.113
	c0-1.151,0.96-2.111,2.112-2.111c0.128,0,0.32,0,0.448,0.064l2.048-2.688c-0.384-0.384-0.64-0.96-0.64-1.536
	c0-1.152,0.96-2.112,2.112-2.112s2.112,0.96,2.112,2.112c0,0.512-0.192,0.96-0.512,1.344l2.176,2.816
	C13.568,15.104,13.696,15.104,13.888,15.104z M26.624,15.104c1.151,0,2.112,0.896,2.112,2.24c0,1.152-0.961,2.112-2.112,2.112
	s-2.112-0.96-2.112-2.112c0-0.703,0.32-1.28,0.832-1.664l-2.048-2.688c-0.256,0.128-0.575,0.192-0.896,0.192
	c-0.256,0-0.512-0.064-0.705-0.128l-1.983,2.56c0.513,0.384,0.832,0.96,0.832,1.663c0,1.152-0.96,2.113-2.112,2.113
	s-2.112-0.961-2.112-2.113c0-1.151,0.959-2.111,2.112-2.111c0.129,0,0.32,0,0.448,0.064l2.048-2.688
	c-0.384-0.384-0.64-0.96-0.64-1.536c0-1.152,0.96-2.112,2.112-2.112c1.151,0,2.111,0.96,2.111,2.112c0,0.512-0.191,0.96-0.512,1.344
	l2.176,2.816C26.305,15.104,26.432,15.104,26.624,15.104L26.624,15.104z"/>
</svg>
