<?xml version="1.0" encoding="utf-8"?>
<!-- Generator: Adobe Illustrator 16.0.0, SVG Export Plug-In . SVG Version: 6.00 Build 0)  -->
<!DOCTYPE svg PUBLIC "-//W3C//DTD SVG 1.1//EN" "http://www.w3.org/Graphics/SVG/1.1/DTD/svg11.dtd">
<svg version="1.1" id="Layer_1" xmlns="http://www.w3.org/2000/svg" xmlns:xlink="http://www.w3.org/1999/xlink" x="0px" y="0px"
	 width="32px" height="32px" viewBox="0 0 32 32" enable-background="new 0 0 32 32" xml:space="preserve">
<title>recommender</title>
<path fill="#3272A0" d="M31.628,16L16.036,31.593L0.443,16L16.036,0.408L31.628,16L31.628,16z M16.036,1.031L1.067,16l14.969,14.969
	L31.004,16L16.036,1.031z M7.304,20.375L7.304,20.375c-0.012-0.264,0.15-0.504,0.399-0.593l1.066-0.386l4.813,1.276
	c0.236,0.062,0.479,0.095,0.722,0.095c0.314,0,0.623-0.053,0.919-0.153l6.772-2.33l1.052,0.235c0.264,0.061,0.456,0.287,0.471,0.557
	c0.016,0.27-0.15,0.516-0.406,0.604l-8.243,2.838c-0.183,0.062-0.373,0.094-0.564,0.094c-0.147,0-0.296-0.02-0.442-0.057
	l-6.11-1.619c-0.256-0.069-0.437-0.295-0.448-0.559V20.375z M7.304,17.439L7.304,17.439c-0.012-0.264,0.15-0.504,0.397-0.594
	l1.066-0.384l4.814,1.274c0.236,0.063,0.479,0.096,0.722,0.096c0.314,0,0.623-0.053,0.919-0.154l6.772-2.329l1.052,0.236
	c0.265,0.059,0.456,0.285,0.47,0.556c0.017,0.269-0.149,0.516-0.406,0.603l-8.242,2.837c-0.183,0.062-0.373,0.094-0.564,0.094
	c-0.147,0-0.296-0.019-0.442-0.057l-6.11-1.619c-0.256-0.069-0.438-0.294-0.449-0.558L7.304,17.439z M15.224,14.742l6.771-2.329
	l1.052,0.236c0.264,0.059,0.456,0.285,0.471,0.556c0.016,0.269-0.15,0.515-0.406,0.604l-8.243,2.837
	c-0.183,0.062-0.373,0.094-0.564,0.094c-0.147,0-0.296-0.02-0.442-0.057l-6.11-1.62c-0.256-0.069-0.438-0.294-0.449-0.558
	c-0.011-0.264,0.15-0.505,0.398-0.594l1.066-0.385l4.814,1.275c0.236,0.063,0.479,0.094,0.722,0.094
	c0.314,0,0.623-0.051,0.919-0.153L15.224,14.742z M7.753,12.125L7.753,12.125c-0.256-0.067-0.437-0.293-0.449-0.557
	c-0.012-0.264,0.15-0.504,0.398-0.594l7.574-2.729c0.188-0.067,0.386-0.102,0.586-0.102c0.127,0,0.253,0.014,0.379,0.042
	l6.808,1.526c0.264,0.06,0.456,0.286,0.471,0.556c0.016,0.27-0.15,0.516-0.406,0.604l-8.243,2.837
	c-0.183,0.062-0.373,0.094-0.564,0.094c-0.147,0-0.296-0.019-0.442-0.057L7.753,12.125L7.753,12.125z"/>
</svg>
