<?xml version="1.0" encoding="utf-8"?>
<!-- Generator: Adobe Illustrator 16.0.0, SVG Export Plug-In . SVG Version: 6.00 Build 0)  -->
<!DOCTYPE svg PUBLIC "-//W3C//DTD SVG 1.1//EN" "http://www.w3.org/Graphics/SVG/1.1/DTD/svg11.dtd">
<svg version="1.1" id="Layer_1" xmlns="http://www.w3.org/2000/svg" xmlns:xlink="http://www.w3.org/1999/xlink" x="0px" y="0px"
	 width="32px" height="32px" viewBox="0 0 32 32" enable-background="new 0 0 32 32" xml:space="preserve">
<title>redshift-source</title>
<path fill="#3272A0" d="M16,0c8.822,0,16,7.177,16,16s-7.178,16-16,16C7.176,32,0,24.822,0,16C0,7.178,7.176,0,16,0z M16,31.359
	c8.471,0,15.359-6.889,15.359-15.359c0-8.47-6.889-15.36-15.359-15.36C7.53,0.64,0.64,7.53,0.64,16
	C0.64,24.471,7.53,31.359,16,31.359z M24.891,22.652H7.922c-3.006,0-5.362-2.498-5.362-5.686c0-3.081,2.651-5.685,5.787-5.685
	c0.18,0,0.364,0.013,0.558,0.038c1.283-2.759,4.066-4.533,7.137-4.533c2.726,0,5.267,1.42,6.676,3.718
	c0.144-0.036,0.319-0.054,0.532-0.054c1.537,0,2.789,1.252,2.789,2.79c0,0.106-0.01,0.23-0.025,0.353
	c1.965,0.44,3.363,2.225,3.426,4.42C29.441,20.529,27.355,22.652,24.891,22.652L24.891,22.652z M8.694,11.856
	c-2.719,0-5.106,2.34-5.106,5.009c0,2.809,2.065,5.009,4.7,5.009h16.196c2.127,0,3.926-1.834,3.926-4.004
	c-0.057-1.961-1.346-3.548-3.131-3.852l-0.217-0.036l0.047-0.215c0.033-0.146,0.055-0.325,0.055-0.458
	c0-1.238-1.007-2.245-2.244-2.245c-0.295,0-0.439,0.04-0.508,0.075l-0.176,0.088l-0.098-0.17c-1.269-2.186-3.549-3.491-6.1-3.491
	c-2.819,0-5.369,1.658-6.496,4.223l-0.065,0.149l-0.161-0.027C9.092,11.875,8.894,11.857,8.694,11.856L8.694,11.856z M15.636,15.004
	l-4.734-2.589c0.144-0.058,0.285-0.095,0.428-0.154l4.992-2.213l4.997,2.462L15.636,15.004z M16.109,20.604h-0.102v-4.97l5.433-2.42
	l-0.084,5.083l-5.134,2.207L16.109,20.604L16.109,20.604z M15.293,20.673l0.045-5.129l-4.779-2.619l0.084,5.394L15.293,20.673z"/>
</svg>
