<?xml version="1.0" encoding="utf-8"?>
<!-- Generator: Adobe Illustrator 16.0.0, SVG Export Plug-In . SVG Version: 6.00 Build 0)  -->
<!DOCTYPE svg PUBLIC "-//W3C//DTD SVG 1.1//EN" "http://www.w3.org/Graphics/SVG/1.1/DTD/svg11.dtd">
<svg version="1.1" id="Layer_1" xmlns="http://www.w3.org/2000/svg" xmlns:xlink="http://www.w3.org/1999/xlink" x="0px" y="0px"
	 width="32px" height="32px" viewBox="0 0 32 32" enable-background="new 0 0 32 32" xml:space="preserve">
<title>regression</title>
<path fill="#3272A0" d="M31.628,16L16.036,31.593L0.443,16L16.036,0.408L31.628,16L31.628,16z M16.036,1.031L1.067,16l14.969,14.969
	L31.004,16L16.036,1.031z M15.75,21.549c-0.53,0-0.959-0.43-0.959-0.96s0.43-0.959,0.959-0.959c2.002,0,3.631-1.628,3.631-3.631
	s-1.629-3.631-3.631-3.631c-0.53,0-0.959-0.429-0.959-0.959c0-0.53,0.43-0.959,0.959-0.959c3.061,0,5.55,2.489,5.55,5.549
	C21.3,19.059,18.811,21.548,15.75,21.549L15.75,21.549z M16.308,17.914c-0.374-0.375-0.375-0.982-0.001-1.357
	c0.15-0.148,0.231-0.347,0.231-0.558c0-0.435-0.354-0.789-0.788-0.789c-0.53,0-0.959-0.429-0.959-0.959
	c0-0.53,0.43-0.959,0.959-0.959c1.492,0,2.707,1.213,2.707,2.706c0,0.723-0.282,1.402-0.793,1.913
	c-0.188,0.187-0.432,0.28-0.68,0.28c-0.244,0-0.49-0.092-0.677-0.279L16.308,17.914z M15.75,7.608c4.628,0,8.393,3.765,8.393,8.392
	s-3.765,8.393-8.393,8.393c-2.241,0-4.349-0.873-5.934-2.457c-0.375-0.375-0.375-0.983,0-1.358c0.375-0.374,0.982-0.374,1.357,0
	c1.224,1.222,2.849,1.897,4.577,1.897c3.57,0,6.473-2.904,6.473-6.475c0-3.57-2.902-6.474-6.473-6.474
	c-0.53,0-0.959-0.428-0.959-0.959C14.791,8.036,15.221,7.607,15.75,7.608L15.75,7.608z M14.567,20.027
	c-0.082,0.172-0.131,0.359-0.132,0.563c0,0.074,0.01,0.145,0.021,0.215c-2.119-0.57-3.687-2.506-3.687-4.804
	s1.568-4.232,3.687-4.804c-0.011,0.07-0.021,0.14-0.021,0.213c0,0.203,0.05,0.392,0.132,0.564c-1.741,0.513-3.017,2.122-3.017,4.027
	C11.55,17.906,12.825,19.516,14.567,20.027L14.567,20.027z M14.442,14.321c0.016,0.294,0.128,0.56,0.307,0.772
	c-0.218,0.241-0.355,0.557-0.355,0.906c0,0.724,0.574,1.313,1.289,1.349c0.024,0.276,0.133,0.543,0.329,0.764
	c-0.087,0.011-0.172,0.025-0.263,0.025c-1.178,0-2.138-0.959-2.138-2.137C13.611,15.316,13.94,14.713,14.442,14.321L14.442,14.321z
	 M9.565,20.325c-0.067,0.067-0.123,0.14-0.173,0.216C8.473,19.259,7.927,17.693,7.927,16c0-3.876,2.835-7.093,6.539-7.709
	c-0.019,0.088-0.03,0.181-0.03,0.276c0,0.178,0.036,0.347,0.101,0.503c-3.306,0.578-5.829,3.462-5.829,6.929
	c0,1.504,0.478,2.896,1.284,4.04C9.834,20.104,9.689,20.201,9.565,20.325L9.565,20.325z"/>
</svg>
