<?xml version="1.0" encoding="utf-8"?>
<!-- Generator: Adobe Illustrator 16.0.0, SVG Export Plug-In . SVG Version: 6.00 Build 0)  -->
<!DOCTYPE svg PUBLIC "-//W3C//DTD SVG 1.1//EN" "http://www.w3.org/Graphics/SVG/1.1/DTD/svg11.dtd">
<svg version="1.1" id="Layer_1" xmlns="http://www.w3.org/2000/svg" xmlns:xlink="http://www.w3.org/1999/xlink" x="0px" y="0px"
	 width="32px" height="32px" viewBox="0 0 32 32" enable-background="new 0 0 32 32" xml:space="preserve">
<title>rename</title>
<path fill="#64953B" d="M16,0C7.176,0,0,7.177,0,16s7.176,16,16,16c8.823,0,16-7.178,16-16C32,7.178,24.822,0,16,0z M16,31.359
	C7.53,31.359,0.64,24.471,0.64,16C0.64,7.532,7.53,0.64,16,0.64c8.471,0,15.359,6.892,15.359,15.36
	C31.359,24.471,24.471,31.359,16,31.359z M9.034,27.52c-0.418-0.26-0.556-0.635-0.556-1.123c0.01-6.932,0.01-13.861,0-20.792
	c0-0.49,0.137-0.865,0.556-1.123c3.789,0,7.577,0,11.366,0c0.414,0.262,0.564,0.637,0.554,1.126c-0.022,0.954-0.017,1.91,0,2.865
	c0.006,0.335-0.097,0.586-0.341,0.811c-0.338,0.31-0.648,0.653-0.979,0.972c-0.13,0.125-0.247,0.374-0.432,0.305
	c-0.187-0.071-0.12-0.332-0.12-0.515c-0.004-0.989-0.003-1.978-0.004-2.967C19.077,6.33,19.07,6.323,18.35,6.322
	c-2.439-0.002-4.878-0.002-7.317,0c-0.642,0-0.675,0.03-0.675,0.657c-0.001,6.019,0.003,12.041-0.01,18.061
	c-0.001,0.493,0.165,0.651,0.652,0.646c2.49-0.019,4.98-0.017,7.47,0c0.477,0.004,0.625-0.172,0.614-0.631
	c-0.022-1.074,0.001-2.146-0.009-3.223c-0.004-0.365,0.117-0.648,0.38-0.907c0.446-0.44,0.86-0.913,1.276-1.36
	c0.285,0.192,0.213,0.381,0.213,0.535c0.006,2.096-0.006,4.194,0.01,6.293c0.005,0.489-0.139,0.863-0.555,1.125
	c-3.789,0-7.578,0-11.365,0L9.034,27.52z M14.342,21.327c-0.436,0.01-0.675-0.246-0.563-0.652c0.347-1.249,0.719-2.489,1.09-3.731
	c0.065-0.219,0.248-0.363,0.404-0.521c1.528-1.535,3.066-3.061,4.579-4.614c0.319-0.328,0.504-0.317,0.813,0.004
	c0.858,0.9,1.746,1.777,2.642,2.644c0.284,0.277,0.293,0.457,0.004,0.742c-1.595,1.568-3.166,3.154-4.746,4.736
	c-0.146,0.146-0.297,0.279-0.502,0.338c-1.164,0.336-2.326,0.677-3.489,1.014C14.491,21.309,14.406,21.316,14.342,21.327
	L14.342,21.327z M17.637,19.052c-0.082-0.364-0.16-0.729-0.242-1.093c-0.021-0.105-0.082-0.195-0.188-0.22
	c-0.443-0.101-0.905-0.341-1.336-0.204c-0.296,0.093-0.237,0.561-0.35,0.855c-0.095,0.254-0.166,0.518-0.232,0.779
	c-0.12,0.482,0.149,0.76,0.633,0.637c0.476-0.121,0.945-0.274,1.417-0.412C17.51,19.346,17.672,19.289,17.637,19.052L17.637,19.052z
	"/>
</svg>
