<?xml version="1.0" encoding="utf-8"?>
<!-- Generator: Adobe Illustrator 16.0.0, SVG Export Plug-In . SVG Version: 6.00 Build 0)  -->
<!DOCTYPE svg PUBLIC "-//W3C//DTD SVG 1.1//EN" "http://www.w3.org/Graphics/SVG/1.1/DTD/svg11.dtd">
<svg version="1.1" id="Layer_1" xmlns="http://www.w3.org/2000/svg" xmlns:xlink="http://www.w3.org/1999/xlink" x="0px" y="0px"
	 width="32px" height="32px" viewBox="0 0 32 32" enable-background="new 0 0 32 32" xml:space="preserve">
<title>restart</title>
<path fill="#3272A0" d="M16,0c8.822,0,16,7.177,16,16s-7.178,16-16,16C7.176,32,0,24.822,0,16C0,7.178,7.176,0,16,0z M16,30.721
	c8.117,0,14.721-6.604,14.721-14.721S24.117,1.28,16,1.28S1.28,7.883,1.28,16S7.883,30.721,16,30.721z M25.162,20.279L24.454,19.8
	c-0.388-0.263-0.868-0.241-1.067,0.052s-0.791,1.107-0.968,1.31c-1.718,1.987-3.882,2.627-5.849,2.606
	c-1.942-0.019-3.896-0.785-5.357-2.246c-1.462-1.463-2.25-3.476-2.25-5.444c-0.004-1.565,0.458-3.145,1.444-4.508
	c2.394-3.313,6.942-4.163,10.379-1.954l-1.237,1.711c-0.137,0.188-0.058,0.342,0.178,0.337l5.556-0.096
	c0.233-0.004,0.368-0.191,0.3-0.415l-1.646-5.307c-0.069-0.224-0.24-0.252-0.377-0.061l-1.265,1.748l-0.051-0.034
	c-4.591-3-10.703-1.873-13.914,2.568C7.014,11.883,6.4,14.048,6.4,16.076c0,2.027,0.641,4.913,3,7.271
	c1.978,1.979,4.57,2.976,7.168,2.995c2.504,0.019,5.774-1.079,7.773-3.489c0.229-0.275,0.973-1.273,1.17-1.565
	S25.553,20.541,25.162,20.279L25.162,20.279z"/>
</svg>
