<?xml version="1.0" encoding="utf-8"?>
<!-- Generator: Adobe Illustrator 16.0.0, SVG Export Plug-In . SVG Version: 6.00 Build 0)  -->
<!DOCTYPE svg PUBLIC "-//W3C//DTD SVG 1.1//EN" "http://www.w3.org/Graphics/SVG/1.1/DTD/svg11.dtd">
<svg version="1.1" id="Layer_1" xmlns="http://www.w3.org/2000/svg" xmlns:xlink="http://www.w3.org/1999/xlink" x="0px" y="0px"
	 width="32px" height="32px" viewBox="0 0 32 32" enable-background="new 0 0 32 32" xml:space="preserve">
<title>ridge</title>
<path fill="#3272A0" d="M32,16L16,32L0,16L16,0L32,16z M16,0.64L0.64,16L16,31.359L31.359,16L16,0.64z M8.384,8.256
	C20.8,29.439,27.904,18.368,27.904,18.368v-0.64C19.393,27.648,8.96,7.68,8.96,7.68L8.384,8.256z M12.8,10.56
	c-0.512,0-0.96,0.448-0.96,0.96s0.448,0.96,0.96,0.96c0.512,0,0.96-0.448,0.96-0.96S13.376,10.56,12.8,10.56z M13.12,16
	c-0.512,0-0.96,0.448-0.96,0.96c0,0.513,0.448,0.96,0.96,0.96c0.512,0,0.96-0.447,0.96-0.96C14.08,16.448,13.632,16,13.12,16z
	 M22.145,17.729c-0.513,0-0.961,0.447-0.961,0.959c0,0.513,0.448,0.961,0.961,0.961c0.512,0,0.959-0.448,0.959-0.961
	C23.104,18.176,22.721,17.729,22.145,17.729z M17.216,16c-0.512,0-0.96,0.448-0.96,0.96c0,0.513,0.448,0.96,0.96,0.96
	c0.513,0,0.96-0.447,0.96-0.96C18.176,16.448,17.792,16,17.216,16z M9.92,11.648c-0.512,0-0.96,0.448-0.96,0.96
	c0,0.512,0.448,0.96,0.96,0.96c0.512,0,0.96-0.448,0.96-0.96C10.88,12.096,10.496,11.648,9.92,11.648z M15.296,17.92
	c-0.512,0-0.96,0.448-0.96,0.96c0,0.513,0.448,0.96,0.96,0.96c0.512,0,0.96-0.447,0.96-0.96
	C16.256,18.368,15.872,17.92,15.296,17.92z M10.88,7.68c-0.512,0-0.96,0.448-0.96,0.96c0,0.512,0.448,0.96,0.96,0.96
	c0.512,0,0.96-0.448,0.96-0.96C11.84,8.128,11.456,7.68,10.88,7.68z M21.184,21.248c-0.512,0-0.959,0.447-0.959,0.96
	s0.447,0.96,0.959,0.96s0.961-0.447,0.961-0.96S21.76,21.248,21.184,21.248z M26.111,18.688c-0.512,0-0.959,0.448-0.959,0.961
	c0,0.512,0.447,0.959,0.959,0.959c0.513,0,0.961-0.447,0.961-0.959C27.072,19.136,26.624,18.688,26.111,18.688z M18.816,19.648
	c-0.512,0-0.961,0.447-0.961,0.959c0,0.513,0.449,0.961,0.961,0.961s0.959-0.448,0.959-0.961
	C19.775,20.096,19.393,19.648,18.816,19.648z M14.08,13.568c-0.512,0-0.96,0.448-0.96,0.96c0,0.512,0.448,0.96,0.96,0.96
	c0.512,0,0.96-0.448,0.96-0.96C15.04,14.016,14.592,13.568,14.08,13.568z M9.344,9.6c-0.512,0-0.96,0.448-0.96,0.96
	c0,0.512,0.448,0.96,0.96,0.96c0.512,0,0.96-0.448,0.96-0.96C10.304,10.048,9.856,9.6,9.344,9.6z M11.84,13.568
	c-0.512,0-0.96,0.448-0.96,0.96c0,0.512,0.448,0.96,0.96,0.96c0.512,0,0.96-0.448,0.96-0.96C12.8,14.016,12.416,13.568,11.84,13.568
	z M20.225,16.768c-0.513,0-0.961,0.448-0.961,0.961c0,0.512,0.448,0.959,0.961,0.959c0.512,0,0.959-0.447,0.959-0.959
	C21.184,17.216,20.8,16.768,20.225,16.768z"/>
</svg>
