<?xml version="1.0" encoding="utf-8"?>
<!-- Generator: Adobe Illustrator 16.0.0, SVG Export Plug-In . SVG Version: 6.00 Build 0)  -->
<!DOCTYPE svg PUBLIC "-//W3C//DTD SVG 1.1//EN" "http://www.w3.org/Graphics/SVG/1.1/DTD/svg11.dtd">
<svg version="1.1" id="Layer_1" xmlns="http://www.w3.org/2000/svg" xmlns:xlink="http://www.w3.org/1999/xlink" x="0px" y="0px"
	 width="32px" height="32px" viewBox="0 0 32 32" enable-background="new 0 0 32 32" xml:space="preserve">
<title>rssfeeds-source</title>
<path fill="#3272A0" d="M16,0C7.176,0,0,7.177,0,16s7.176,16,16,16c8.822,0,16-7.178,16-16C32,7.178,24.822,0,16,0z M16,31.359
	C7.53,31.359,0.64,24.471,0.64,16C0.64,7.53,7.53,0.64,16,0.64c8.471,0,15.359,6.89,15.359,15.36
	C31.359,24.471,24.471,31.359,16,31.359z M27.52,22.998c0,0.227,0,0.455,0,0.682c-1.365,0-2.73,0-4.096,0
	c-0.083-0.182-0.212-0.357-0.236-0.548c-0.061-0.448-0.051-0.905-0.103-1.356c-0.428-3.812-2.112-6.974-5.008-9.469
	C15.53,10.11,12.553,8.949,9.184,8.81C8.895,8.798,8.609,8.713,8.321,8.662c0-1.394,0-2.787,0-4.181c0.427,0,0.853,0,1.28,0
	c0.547,0.063,1.098,0.109,1.642,0.191c4.38,0.659,8.112,2.577,11.142,5.811c2.686,2.867,4.328,6.255,4.891,10.151
	c0.111,0.783,0.166,1.574,0.246,2.363L27.52,22.998z M8.32,14.805c0-1.279,0-2.56,0-3.84c0.175-0.063,0.349-0.179,0.524-0.18
	c1.832-0.004,3.59,0.386,5.21,1.222c4.551,2.351,6.952,6.103,7.156,11.235c0.006,0.143-0.114,0.291-0.176,0.438
	c-1.28,0-2.562,0-3.841,0c-0.057-0.168-0.162-0.334-0.166-0.504c-0.104-4.551-3.848-8.145-8.197-8.216
	C8.659,14.957,8.49,14.858,8.32,14.805L8.32,14.805z M8.32,20.438c0.227-0.48,0.38-1.018,0.695-1.43
	c0.746-0.979,2.096-1.277,3.227-0.806c1.153,0.481,1.86,1.63,1.747,2.84c-0.118,1.276-0.988,2.285-2.198,2.556
	c-0.079,0.017-0.153,0.055-0.228,0.082c-0.256,0-0.512,0-0.769,0c-0.436-0.188-0.904-0.324-1.3-0.574
	c-0.683-0.433-0.995-1.133-1.174-1.899C8.32,20.949,8.32,20.693,8.32,20.438z"/>
</svg>
