<?xml version="1.0" encoding="utf-8"?>
<!-- Generator: Adobe Illustrator 16.0.0, SVG Export Plug-In . SVG Version: 6.00 Build 0)  -->
<!DOCTYPE svg PUBLIC "-//W3C//DTD SVG 1.1//EN" "http://www.w3.org/Graphics/SVG/1.1/DTD/svg11.dtd">
<svg version="1.1" id="Layer_1" xmlns="http://www.w3.org/2000/svg" xmlns:xlink="http://www.w3.org/1999/xlink" x="0px" y="0px"
	 width="32px" height="32px" viewBox="0 0 32 32" enable-background="new 0 0 32 32" xml:space="preserve">
<title>sensor-sink</title>
<path fill="#64953B" d="M16,0c8.822,0,16,7.177,16,16s-7.178,16-16,16C7.176,32,0,24.822,0,16C0,7.178,7.176,0,16,0z M16,31.359
	c8.471,0,15.359-6.889,15.359-15.359c0-8.47-6.889-15.36-15.359-15.36C7.53,0.64,0.64,7.53,0.64,16
	C0.64,24.471,7.53,31.359,16,31.359z M13.133,29.548c2.018,0,4.02,0,6.016,0c0-3.032,0-6.045,0-9.091c-0.637,0-1.254,0-1.871,0
	c0-1.736,0-3.439,0-5.171c1.146,0,2.27,0,3.394,0c0-0.756,0-1.484,0-2.208c-3.038,0-6.051,0-9.062,0c0,0.748,0,1.476,0,2.229
	c1.147,0,2.27,0,3.397,0c0,1.729,0,3.432,0,5.16c-0.63,0-1.242,0-1.872,0C13.133,23.523,13.133,26.535,13.133,29.548L13.133,29.548z
	 M26.04,9.757c1.28,2.453,1.341,4.969,0.282,7.511c-0.404,0.972-1.016,1.797-1.934,2.356c-0.1,0.06-0.199,0.116-0.312,0.183
	c0.313,0.502,0.61,0.985,0.916,1.477c0.106-0.059,0.19-0.102,0.271-0.148c1.139-0.676,1.936-1.664,2.512-2.835
	c0.943-1.912,1.201-3.937,0.91-6.035c-0.233-1.698-0.836-3.251-1.959-4.573c-0.49-0.577-1.06-1.053-1.761-1.4
	c-0.313,0.494-0.618,0.974-0.938,1.48C24.951,8.209,25.592,8.9,26.04,9.757L26.04,9.757z M6.772,6.431
	c-1.065,0.621-1.841,1.52-2.41,2.595c-1.185,2.239-1.417,4.613-0.905,7.067c0.332,1.585,1.009,3.007,2.164,4.171
	c0.404,0.405,0.854,0.75,1.391,1.019c0.307-0.499,0.607-0.983,0.914-1.48c-1.216-0.628-1.92-1.665-2.396-2.88
	c-0.592-1.508-0.713-3.072-0.443-4.66c0.223-1.317,0.69-2.544,1.619-3.535c0.355-0.379,0.8-0.675,1.224-1.025
	c-0.276-0.436-0.582-0.916-0.897-1.41C6.934,6.344,6.851,6.385,6.772,6.431z M6.781,14.129c0.077,1.675,0.7,3.12,2.035,4.236
	c0.291-0.471,0.564-0.904,0.82-1.348c0.034-0.059,0.008-0.194-0.041-0.25c-0.945-1.102-1.223-2.379-1.009-3.784
	c0.14-0.91,0.527-1.707,1.203-2.359C9.485,10.149,9.187,9.681,8.86,9.167C7.311,10.491,6.691,12.176,6.781,14.129L6.781,14.129z
	 M23.122,9.199c-0.302,0.474-0.603,0.946-0.905,1.422c0.127,0.145,0.254,0.273,0.362,0.413c1.274,1.62,1.194,4.175-0.173,5.731
	c-0.049,0.055-0.09,0.18-0.061,0.228c0.268,0.455,0.551,0.899,0.828,1.349C25.93,16.256,25.907,11.248,23.122,9.199L23.122,9.199z"
	/>
</svg>
