<?xml version="1.0" encoding="utf-8"?>
<!-- Generator: Adobe Illustrator 16.0.0, SVG Export Plug-In . SVG Version: 6.00 Build 0)  -->
<!DOCTYPE svg PUBLIC "-//W3C//DTD SVG 1.1//EN" "http://www.w3.org/Graphics/SVG/1.1/DTD/svg11.dtd">
<svg version="1.1" id="Layer_1" xmlns="http://www.w3.org/2000/svg" xmlns:xlink="http://www.w3.org/1999/xlink" x="0px" y="0px"
	 width="32px" height="32px" viewBox="0 0 32 32" enable-background="new 0 0 32 32" xml:space="preserve">
<title>sentiment-predictor</title>
<path fill="#3272A0" d="M32,16L16,32L0,16L16,0L32,16z M16,0.64L0.64,16L16,31.359L31.359,16L16,0.64z M13.76,10.176
	c-0.192-1.536,0.576-2.944,1.984-3.584c0.192-0.064,0.384,0,0.448,0.192c0.064,0.192,0,0.384-0.192,0.448
	c-1.088,0.512-1.728,1.664-1.536,2.816c0.192,1.216,1.088,2.112,2.304,2.304c0.192,0,0.32,0.192,0.32,0.384
	c0,0.192-0.191,0.32-0.384,0.32C15.168,12.928,13.952,11.712,13.76,10.176z M17.984,8.512c0.063,0.256-0.129,0.512-0.385,0.512
	c-0.256,0.064-0.512-0.128-0.512-0.384c-0.064-0.256,0.128-0.512,0.385-0.512C17.729,8.128,17.92,8.256,17.984,8.512z M18.24,10.688
	c0.064,0.256-0.129,0.512-0.385,0.512c-0.256,0.064-0.512-0.128-0.512-0.384s0.129-0.512,0.385-0.512
	C17.984,10.24,18.24,10.432,18.24,10.688z M17.6,19.648c0,0.191,0.064,0.384,0.256,0.512c0.32,0.256,0.769,0.256,1.024-0.064
	c0.128-0.128,0.192-0.32,0.192-0.512s-0.064-0.384-0.256-0.512c-0.32-0.256-0.769-0.256-1.024,0.063
	C17.664,19.264,17.6,19.456,17.6,19.648z M17.855,23.232c0,0.191,0.064,0.384,0.256,0.512C18.432,24,18.88,24,19.137,23.68
	c0.127-0.128,0.191-0.32,0.191-0.512s-0.064-0.384-0.256-0.512c-0.32-0.256-0.768-0.256-1.024,0.064
	C17.855,22.848,17.792,23.04,17.855,23.232z M14.08,19.648c0.064,0,1.024,0.256,1.152,1.92c0.064,1.728-0.896,2.24-0.96,2.24
	c-0.192,0.063-0.256,0.256-0.256,0.447c0,0.064,0,0.128,0.064,0.192c0.128,0.256,0.384,0.319,0.576,0.192
	c0.064-0.064,1.6-0.769,1.472-3.137s-1.792-2.752-1.856-2.752L14.208,19.2L14.08,19.648z M12.224,12.928
	c0.64,0.32,0.576-0.384,0.576-0.384L12.224,12.928z M17.473,16.128l-0.576,0.448c1.472,1.023,4.352,3.264,4.416,5.248
	c0.063,2.688-2.049,4.928-4.736,4.992c-2.688,0.063-4.928-2.049-4.992-4.736c-0.064-2.368,3.84-5.313,4.736-5.952l0,0l0.577-0.448
	l0,0c1.279-0.96,4.863-3.84,4.799-6.336c-0.063-3.072-2.623-5.504-5.759-5.376c-3.072,0.064-5.504,2.624-5.44,5.696
	c0,1.088,0.768,2.24,1.664,3.264c0.896,0.96,1.984,1.856,2.816,2.432l0.576-0.448c-1.472-1.024-4.352-3.264-4.416-5.248
	c-0.064-2.688,2.048-4.928,4.736-4.992c2.688-0.064,4.928,2.048,4.991,4.736c0.064,2.048-2.943,4.544-4.287,5.568l0,0l-1.28,0.96
	c-1.408,1.087-4.608,3.776-4.544,6.208c0.064,3.071,2.624,5.504,5.76,5.375c3.072-0.063,5.504-2.623,5.44-5.695
	C22.016,19.648,19.072,17.279,17.473,16.128z"/>
</svg>
