<?xml version="1.0" encoding="utf-8"?>
<!-- Generator: Adobe Illustrator 16.0.0, SVG Export Plug-In . SVG Version: 6.00 Build 0)  -->
<!DOCTYPE svg PUBLIC "-//W3C//DTD SVG 1.1//EN" "http://www.w3.org/Graphics/SVG/1.1/DTD/svg11.dtd">
<svg version="1.1" id="Layer_1" xmlns="http://www.w3.org/2000/svg" xmlns:xlink="http://www.w3.org/1999/xlink" x="0px" y="0px"
	 width="32px" height="32px" viewBox="0 0 32 32" enable-background="new 0 0 32 32" xml:space="preserve">
<title>shared-by-me</title>
<path fill="#3272A0" d="M21.227,15.851c2.976,0,5.387-2.411,5.387-5.387s-2.411-5.387-5.387-5.387c-2.977,0-5.388,2.411-5.388,5.387
	S18.25,15.851,21.227,15.851z M21.227,18.544c-3.597,0-10.774,1.806-10.774,5.388v2.692H32v-2.692
	C32,20.35,24.822,18.544,21.227,18.544z M5.229,14.947l1.236-1.168l-3.124-2.944h7.983v8.226h1.741V9.19H3.341l3.125-2.945
	L5.23,5.078l-5.223,4.934L5.229,14.947L5.229,14.947z"/>
</svg>
