<?xml version="1.0" encoding="utf-8"?>
<!-- Generator: Adobe Illustrator 16.0.0, SVG Export Plug-In . SVG Version: 6.00 Build 0)  -->
<!DOCTYPE svg PUBLIC "-//W3C//DTD SVG 1.1//EN" "http://www.w3.org/Graphics/SVG/1.1/DTD/svg11.dtd">
<svg version="1.1" id="Layer_1" xmlns="http://www.w3.org/2000/svg" xmlns:xlink="http://www.w3.org/1999/xlink" x="0px" y="0px"
	 width="32px" height="32px" viewBox="0 0 32 32" enable-background="new 0 0 32 32" xml:space="preserve">
<title>shared-with-me</title>
<path fill="#3272A0" d="M21.277,15.782c2.975,0,5.386-2.41,5.386-5.386s-2.41-5.386-5.386-5.386c-2.977,0-5.386,2.41-5.386,5.386
	S18.301,15.782,21.277,15.782z M21.277,18.475c-3.596,0-10.771,1.803-10.771,5.385v2.693h21.543v-2.693
	C32.049,20.279,24.872,18.475,21.277,18.475z M7.892,15.361l-1.233-1.233l3.119-3.11H1.812v8.687H0.075V9.281h9.703l-3.119-3.11
	l1.233-1.233l5.212,5.212L7.892,15.361L7.892,15.361z"/>
</svg>
