<?xml version="1.0" encoding="utf-8"?>
<!-- Generator: Adobe Illustrator 16.0.0, SVG Export Plug-In . SVG Version: 6.00 Build 0)  -->
<!DOCTYPE svg PUBLIC "-//W3C//DTD SVG 1.1//EN" "http://www.w3.org/Graphics/SVG/1.1/DTD/svg11.dtd">
<svg version="1.1" id="Layer_1" xmlns="http://www.w3.org/2000/svg" xmlns:xlink="http://www.w3.org/1999/xlink" x="0px" y="0px"
	 width="32px" height="32px" viewBox="0 0 32 32" enable-background="new 0 0 32 32" xml:space="preserve">
<title>share</title>
<path fill="#3272A0" d="M27,22c-1.411,0-2.686,0.585-3.594,1.525L9.937,16.791C9.978,16.533,10,16.269,10,16
	s-0.022-0.534-0.063-0.791l13.469-6.735C24.314,9.415,25.589,10,27,10c2.762,0,5-2.239,5-5s-2.238-5-5-5s-5,2.239-5,5
	c0,0.269,0.021,0.534,0.063,0.792L8.594,12.526C7.685,11.585,6.411,11,5,11c-2.761,0-5,2.239-5,5s2.239,5,5,5
	c1.411,0,2.685-0.585,3.594-1.525l13.469,6.734C22.021,26.467,22,26.73,22,27c0,2.761,2.238,5,5,5s5-2.239,5-5S29.762,22,27,22z"/>
</svg>
