<?xml version="1.0" encoding="utf-8"?>
<!-- Generator: Adobe Illustrator 16.0.0, SVG Export Plug-In . SVG Version: 6.00 Build 0)  -->
<!DOCTYPE svg PUBLIC "-//W3C//DTD SVG 1.1//EN" "http://www.w3.org/Graphics/SVG/1.1/DTD/svg11.dtd">
<svg version="1.1" id="Layer_1" xmlns="http://www.w3.org/2000/svg" xmlns:xlink="http://www.w3.org/1999/xlink" x="0px" y="0px"
	 width="32px" height="32px" viewBox="0 0 32 32" enable-background="new 0 0 32 32" xml:space="preserve">
<title>shutdown</title>
<path fill="#3272A0" d="M16,0c8.822,0,16,7.177,16,16s-7.178,16-16,16C7.176,32,0,24.822,0,16C0,7.178,7.176,0,16,0z M16,30.721
	c8.117,0,14.721-6.604,14.721-14.721S24.117,1.28,16,1.28S1.28,7.883,1.28,16S7.883,30.721,16,30.721z M17.039,14.96h-2.08V6.641
	h2.08V14.96z M24.32,17.04c0,4.59-3.733,8.319-8.321,8.319S7.68,21.63,7.68,17.04c0-3.477,2.162-6.422,5.199-7.661v2.3
	c-1.857,1.08-3.119,3.063-3.119,5.362c0,3.441,2.799,6.24,6.239,6.24c3.442,0,6.241-2.799,6.241-6.24
	c0-2.295-1.264-4.282-3.12-5.362v-2.3c3.039,1.239,5.198,4.184,5.198,7.661l0,0H24.32z"/>
</svg>
