<?xml version="1.0" encoding="utf-8"?>
<!-- Generator: Adobe Illustrator 16.0.0, SVG Export Plug-In . SVG Version: 6.00 Build 0)  -->
<!DOCTYPE svg PUBLIC "-//W3C//DTD SVG 1.1//EN" "http://www.w3.org/Graphics/SVG/1.1/DTD/svg11.dtd">
<svg version="1.1" id="Layer_1" xmlns="http://www.w3.org/2000/svg" xmlns:xlink="http://www.w3.org/1999/xlink" x="0px" y="0px"
	 width="32px" height="32px" viewBox="0 0 32 32" enable-background="new 0 0 32 32" xml:space="preserve">
<title>sink</title>
<path fill="#3272A0" d="M32,15.834v0.469c0,3.86-3.141,7.001-7,7.001h-5.566c0,0,1.291-0.878,1.01-2.734h4.558
	c2.354,0,4.269-1.914,4.269-4.269v-0.468c0-2.355-1.914-4.269-4.269-4.269h-7.922l0.966,2.442c0.033,0.085,0.006,0.184-0.066,0.24
	c-0.074,0.056-0.178,0.056-0.25-0.002l-5.053-3.882c-0.052-0.04-0.081-0.101-0.081-0.165c0-0.064,0.029-0.125,0.081-0.163
	l5.053-3.884c0.037-0.029,0.082-0.044,0.125-0.044c0.045,0,0.088,0.014,0.125,0.042c0.073,0.055,0.102,0.154,0.066,0.239
	l-0.964,2.443h7.92c3.86,0.001,7.001,3.141,7.001,7.002l0,0L32,15.834z M14.276,17.752c-0.074-0.055-0.175-0.057-0.25,0
	c-0.074,0.057-0.102,0.154-0.067,0.239l0.964,2.442H7c-2.352,0-4.268-1.916-4.268-4.269v-0.469c0-2.353,1.916-4.269,4.268-4.269
	h4.557c-0.281-1.857,1.011-2.733,1.011-2.733H7.001c-3.859,0.001-7,3.14-7,7.002v0.469c0,3.86,3.142,7.001,7,7.001h7.922
	l-0.966,2.441c-0.033,0.086-0.005,0.185,0.067,0.24c0.038,0.028,0.081,0.043,0.125,0.043s0.088-0.014,0.126-0.045l5.053-3.883
	c0.05-0.038,0.079-0.099,0.079-0.163c0-0.063-0.029-0.125-0.079-0.163L14.276,17.752z"/>
</svg>
