<?xml version="1.0" encoding="utf-8"?>
<!-- Generator: Adobe Illustrator 16.0.0, SVG Export Plug-In . SVG Version: 6.00 Build 0)  -->
<!DOCTYPE svg PUBLIC "-//W3C//DTD SVG 1.1//EN" "http://www.w3.org/Graphics/SVG/1.1/DTD/svg11.dtd">
<svg version="1.1" id="Layer_1" xmlns="http://www.w3.org/2000/svg" xmlns:xlink="http://www.w3.org/1999/xlink" x="0px" y="0px"
	 width="32px" height="32px" viewBox="0 0 32 32" enable-background="new 0 0 32 32" xml:space="preserve">
<title>smart-sink</title>
<path fill="#64953B" d="M13.6,19.6h3.2l-5.2,5.2l-5.2-5.2h3.2V8.4c0-0.44,0.36-0.8,0.8-0.8h2.4c0.44,0,0.8,0.36,0.8,0.8V19.6z
	 M20.4,7.2l-5.2,5.2h3.2v11.2c0,0.44,0.358,0.801,0.8,0.801H21.6c0.44,0,0.801-0.359,0.801-0.801V12.4H25.6L20.4,7.2z M16,0
	C7.176,0,0,7.177,0,16s7.176,16,16,16c8.822,0,16-7.178,16-16C32,7.178,24.822,0,16,0z M16,31.359C7.53,31.359,0.64,24.471,0.64,16
	C0.64,7.53,7.53,0.64,16,0.64c8.471,0,15.359,6.89,15.359,15.36C31.359,24.471,24.471,31.359,16,31.359z"/>
</svg>
