<?xml version="1.0" encoding="utf-8"?>
<!-- Generator: Adobe Illustrator 16.0.0, SVG Export Plug-In . SVG Version: 6.00 Build 0)  -->
<!DOCTYPE svg PUBLIC "-//W3C//DTD SVG 1.1//EN" "http://www.w3.org/Graphics/SVG/1.1/DTD/svg11.dtd">
<svg version="1.1" id="Layer_1" xmlns="http://www.w3.org/2000/svg" xmlns:xlink="http://www.w3.org/1999/xlink" x="0px" y="0px"
	 width="50px" height="50px" viewBox="0 0 50 50" enable-background="new 0 0 50 50" xml:space="preserve">
<path fill="#64953B" d="M25,0c13.785,0,25,11.214,25,25c0,13.785-11.215,25-25,25C11.213,50,0,38.785,0,25C0,11.214,11.213,0,25,0
	 M25,49c13.234,0,24-10.766,24-24C49,11.766,38.234,1,25,1C11.766,1,1,11.766,1,25C1,38.234,11.766,49,25,49 M36.412,14.748
	c0,0.139,0,0.277,0,0.416c0,3.096-0.001,6.191,0.001,9.286c0.001,0.854,0.565,1.479,1.33,1.47c0.764-0.011,1.333-0.659,1.325-1.473
	c-0.03-3.095-0.012-6.19-0.012-9.285c0-0.146,0-0.291,0-0.526c0.586,0.586,1.092,1.09,1.598,1.595
	c0.341,0.338,0.736,0.541,1.228,0.45c0.529-0.097,0.9-0.407,1.058-0.924c0.16-0.534-0.002-0.994-0.394-1.385
	c-1.28-1.275-2.556-2.558-3.838-3.832c-0.576-0.572-1.358-0.567-1.944,0.013c-1.283,1.273-2.561,2.553-3.834,3.835
	c-0.566,0.568-0.584,1.39-0.06,1.916c0.555,0.555,1.34,0.533,1.94-0.064c0.506-0.505,1.004-1.019,1.504-1.528
	C36.348,14.724,36.38,14.735,36.412,14.748z M10.581,35.003c-0.452-0.448-0.89-0.913-1.355-1.349
	C8.68,33.146,7.87,33.184,7.369,33.71c-0.489,0.515-0.497,1.315,0.014,1.832c1.298,1.313,2.604,2.62,3.917,3.917
	c0.588,0.58,1.352,0.563,1.943-0.021c0.806-0.793,1.602-1.598,2.401-2.397c0.487-0.487,0.98-0.97,1.46-1.464
	c0.545-0.563,0.549-1.352,0.023-1.887c-0.521-0.53-1.325-0.529-1.886,0.015c-0.458,0.442-0.902,0.899-1.354,1.351
	c-0.076,0.075-0.163,0.141-0.296,0.254c0-0.979,0-1.888,0-2.795c-0.001-2.341,0.004-4.682-0.004-7.021
	c-0.003-0.999-0.867-1.646-1.763-1.338c-0.537,0.185-0.877,0.669-0.878,1.293c-0.003,2.51-0.001,5.02,0,7.53c0,0.76,0,1.521,0,2.36
	C10.783,35.188,10.679,35.1,10.581,35.003z M25.043,31.549c2.003,0,4.005,0,6.008-0.001c0.926,0,1.537-0.56,1.533-1.394
	s-0.622-1.394-1.54-1.394c-0.897,0-1.795,0-2.692,0c-3.146,0-6.292-0.003-9.438,0c-0.896,0.001-1.536,0.655-1.482,1.497
	c0.049,0.756,0.654,1.288,1.489,1.29C20.961,31.553,23.003,31.55,25.043,31.549C25.043,31.55,25.043,31.549,25.043,31.549z
	 M31.068,26.163c0.898-0.001,1.509-0.558,1.516-1.371c0.007-0.824-0.588-1.406-1.482-1.407c-4.057-0.006-8.113-0.006-12.168,0.005
	c-0.252,0-0.522,0.059-0.75,0.165c-0.573,0.267-0.867,0.932-0.722,1.535c0.152,0.631,0.691,1.069,1.36,1.071
	c2.055,0.007,4.108,0.003,6.163,0.003C27.012,26.164,29.04,26.166,31.068,26.163z M31.16,20.777c0.141,0,0.287-0.014,0.422-0.053
	c0.699-0.205,1.089-0.827,0.988-1.559c-0.096-0.702-0.687-1.162-1.521-1.162c-4.029-0.002-8.061-0.001-12.091,0.007
	c-0.217,0-0.446,0.029-0.647,0.104c-0.628,0.233-0.987,0.892-0.865,1.531c0.126,0.663,0.688,1.132,1.39,1.133
	c2.055,0.005,4.108,0.002,6.163,0.002C27.052,20.779,29.105,20.78,31.16,20.777z"/>
</svg>
