<?xml version="1.0" encoding="utf-8"?>
<!-- Generator: Adobe Illustrator 16.0.0, SVG Export Plug-In . SVG Version: 6.00 Build 0)  -->
<!DOCTYPE svg PUBLIC "-//W3C//DTD SVG 1.1//EN" "http://www.w3.org/Graphics/SVG/1.1/DTD/svg11.dtd">
<svg version="1.1" id="Layer_1" xmlns="http://www.w3.org/2000/svg" xmlns:xlink="http://www.w3.org/1999/xlink" x="0px" y="0px"
	 width="32px" height="32px" viewBox="0 0 32 32" enable-background="new 0 0 32 32" xml:space="preserve">
<title>spark-deployment</title>
<path fill="#3272A0" d="M16,0c8.822,0,16,7.177,16,16s-7.178,16-16,16C7.176,32,0,24.822,0,16C0,7.178,7.176,0,16,0z M16,31.359
	c8.471,0,15.359-6.889,15.359-15.359c0-8.47-6.889-15.36-15.359-15.36C7.53,0.64,0.64,7.53,0.64,16
	C0.64,24.471,7.53,31.359,16,31.359z M25.529,13.634c-0.168-0.48-0.592-0.831-1.107-0.908l-4.995-0.741l-2.172-4.509
	C17.027,7.001,16.537,6.7,16.002,6.7c-0.54,0-1.028,0.301-1.257,0.776l-2.172,4.509l-4.995,0.741
	c-0.512,0.077-0.941,0.428-1.107,0.908c-0.164,0.481-0.038,1.011,0.322,1.372l3.663,3.652l-0.85,5.072
	c-0.084,0.514,0.135,1.022,0.572,1.322c0.238,0.164,0.516,0.249,0.797,0.249c0.231,0,0.463-0.056,0.671-0.171l4.356-2.343
	l4.355,2.343c0.209,0.115,0.44,0.171,0.668,0.171c0.281,0,0.563-0.084,0.801-0.249c0.433-0.3,0.652-0.81,0.568-1.322l-0.85-5.072
	l3.662-3.652C25.568,14.642,25.693,14.115,25.529,13.634L25.529,13.634z M20.555,17.718c-0.308,0.306-0.447,0.736-0.379,1.16
	l0.85,5.073l-4.356-2.344c-0.208-0.115-0.436-0.172-0.671-0.172c-0.228,0-0.46,0.057-0.668,0.172l-4.356,2.344l0.849-5.073
	c0.07-0.424-0.067-0.854-0.375-1.16l-3.661-3.656l4.995-0.744c0.456-0.067,0.85-0.352,1.045-0.762l2.175-4.506l2.171,4.509
	c0.196,0.406,0.589,0.691,1.046,0.758l4.995,0.744L20.555,17.718L20.555,17.718z"/>
</svg>
