<?xml version="1.0" encoding="utf-8"?>
<!-- Generator: Adobe Illustrator 16.0.0, SVG Export Plug-In . SVG Version: 6.00 Build 0)  -->
<!DOCTYPE svg PUBLIC "-//W3C//DTD SVG 1.1//EN" "http://www.w3.org/Graphics/SVG/1.1/DTD/svg11.dtd">
<svg version="1.1" id="Layer_1" xmlns="http://www.w3.org/2000/svg" xmlns:xlink="http://www.w3.org/1999/xlink" x="0px" y="0px"
	 width="32px" height="32px" viewBox="0 0 32 32" enable-background="new 0 0 32 32" xml:space="preserve">
<title>split</title>
<path fill="#64953B" d="M16,0C7.176,0,0,7.177,0,16s7.176,16,16,16c8.822,0,16-7.178,16-16C32,7.178,24.822,0,16,0z M16,31.359
	C7.53,31.359,0.64,24.471,0.64,16C0.64,7.53,7.53,0.64,16,0.64c8.471,0,15.359,6.89,15.359,15.36
	C31.359,24.471,24.471,31.359,16,31.359z M4.48,14.472c2.115,0,4.23-0.033,6.344,0.014c1.087,0.024,1.96-0.352,2.701-1.096
	c0.624-0.627,1.223-1.278,1.832-1.92c0.888-0.936,1.852-1.77,3.028-2.334c0.805-0.387,1.654-0.612,2.567-0.697
	c0-0.758,0-1.509,0-2.305c2.2,1.271,4.364,2.52,6.565,3.791c-2.197,1.269-4.359,2.517-6.557,3.787c0-0.758,0-1.479,0-2.22
	c-0.582,0.059-1.105,0.217-1.561,0.529c-0.502,0.348-1.002,0.718-1.438,1.146c-0.939,0.924-1.838,1.89-2.762,2.848
	c0.18,0.167,0.397,0.35,0.594,0.553c0.732,0.752,1.451,1.519,2.188,2.268c0.586,0.598,1.226,1.131,2.022,1.428
	c0.293,0.108,0.603,0.174,0.937,0.271c0-0.755,0-1.468,0-2.245c2.209,1.275,4.375,2.523,6.578,3.795
	c-2.199,1.271-4.361,2.52-6.562,3.786c0-0.79,0-1.543,0-2.259c-0.577-0.135-1.132-0.229-1.665-0.394
	c-1.268-0.389-2.337-1.114-3.267-2.042c-0.744-0.74-1.443-1.527-2.184-2.269c-0.349-0.347-0.737-0.658-1.135-0.949
	c-0.435-0.317-0.943-0.444-1.483-0.444c-2.198,0.002-4.394,0.002-6.592,0.002c-0.051,0-0.104,0.014-0.155,0.02
	c0-1.021,0-2.042,0-3.062L4.48,14.472L4.48,14.472z"/>
</svg>
