<?xml version="1.0" encoding="utf-8"?>
<!-- Generator: Adobe Illustrator 16.0.0, SVG Export Plug-In . SVG Version: 6.00 Build 0)  -->
<!DOCTYPE svg PUBLIC "-//W3C//DTD SVG 1.1//EN" "http://www.w3.org/Graphics/SVG/1.1/DTD/svg11.dtd">
<svg version="1.1" id="Layer_1" xmlns="http://www.w3.org/2000/svg" xmlns:xlink="http://www.w3.org/1999/xlink" x="0px" y="0px"
	 width="32px" height="32px" viewBox="0 0 32 32" enable-background="new 0 0 32 32" xml:space="preserve">
<title>sql-source</title>
<path fill="#3272A0" d="M16,0c8.822,0,16,7.177,16,16s-7.178,16-16,16C7.176,32,0,24.822,0,16C0,7.178,7.176,0,16,0z M16,31.359
	c8.471,0,15.359-6.889,15.359-15.359c0-8.47-6.889-15.36-15.359-15.36C7.53,0.64,0.64,7.53,0.64,16
	C0.64,24.471,7.53,31.359,16,31.359z M18.111,23.941c0.025,0.002,0.051,0.004,0.076,0.004h5.812c0.681,0,1.233-0.553,1.233-1.232
	V9.238c0-0.68-0.553-1.233-1.233-1.233h-5.812c-0.026,0-0.051,0.003-0.076,0.003V6.4L6.765,7.914v16.133L18.111,25.6V23.941z
	 M18.111,8.717c0.025-0.003,0.051-0.008,0.076-0.008h5.812c0.292,0,0.528,0.237,0.528,0.529v13.475c0,0.291-0.236,0.527-0.528,0.527
	h-5.812c-0.026,0-0.051-0.004-0.076-0.008V8.717L18.111,8.717z M8.598,17.152c-0.383-0.01-0.758-0.127-0.943-0.242l0.15-0.668
	c0.201,0.116,0.513,0.233,0.837,0.239c0.353,0.006,0.541-0.148,0.541-0.387c0-0.228-0.163-0.359-0.571-0.518
	c-0.557-0.211-0.915-0.54-0.915-1.061c0-0.612,0.471-1.092,1.267-1.112c0.387-0.01,0.675,0.069,0.881,0.163L9.67,14.243
	c-0.139-0.07-0.386-0.168-0.721-0.163c-0.332,0.005-0.492,0.17-0.492,0.357c0,0.232,0.19,0.332,0.628,0.508
	c0.609,0.239,0.899,0.578,0.899,1.099C9.985,16.663,9.535,17.178,8.598,17.152L8.598,17.152L8.598,17.152z M13.704,17.9
	c-0.548-0.18-1-0.359-1.501-0.59c-0.083-0.035-0.171-0.056-0.259-0.063c-0.826-0.079-1.581-0.716-1.581-1.929
	c0-1.115,0.68-1.971,1.773-2.001c1.156-0.03,1.804,0.856,1.804,1.921c0,0.886-0.409,1.503-0.916,1.723v0.021
	c0.296,0.094,0.628,0.172,0.934,0.242L13.704,17.9z M17.085,17.318l-2.559-0.066v-3.933l0.911-0.024v3.225l1.649,0.025
	L17.085,17.318L17.085,17.318z M12.115,14.003c-0.57,0.01-0.894,0.585-0.894,1.288c-0.006,0.715,0.33,1.268,0.888,1.277
	c0.573,0.011,0.911-0.541,0.911-1.294C13.019,14.57,12.694,13.991,12.115,14.003L12.115,14.003L12.115,14.003z M21.005,19.195
	c1.368,0,2.438-0.487,2.438-1.11v-0.702c0-0.1-0.029-0.201-0.088-0.301l-0.002-0.004c0.056-0.096,0.09-0.196,0.09-0.301v-0.701
	c0-0.1-0.029-0.202-0.088-0.301l-0.008-0.013c0.062-0.098,0.096-0.202,0.096-0.31V14.75c0-0.094-0.027-0.191-0.078-0.287
	l-0.008-0.012c0.015-0.043,0.026-0.086,0.026-0.132c0-0.567-1.226-0.873-2.379-0.873c-1.151,0-2.378,0.307-2.378,0.873
	c0,0.046,0.012,0.09,0.027,0.132l-0.006,0.012c-0.053,0.095-0.08,0.193-0.08,0.287v0.702c0,0.108,0.035,0.212,0.095,0.31
	l-0.007,0.015c-0.059,0.1-0.086,0.2-0.086,0.3v0.7c0,0.104,0.033,0.205,0.09,0.302l-0.003,0.004c-0.058,0.099-0.087,0.2-0.087,0.3
	v0.702c0.002,0.622,1.072,1.11,2.437,1.11l0,0H21.005z M18.831,14.868c0.39,0.332,1.297,0.502,2.174,0.502
	c0.879,0,1.786-0.171,2.177-0.503v0.584c0,0.403-0.893,0.852-2.177,0.852c-1.282,0-2.174-0.449-2.174-0.852V14.868z M18.831,16.118
	c0.399,0.366,1.222,0.6,2.174,0.6c0.954,0,1.777-0.234,2.177-0.6v0.659c0,0.404-0.893,0.852-2.177,0.852
	c-1.282,0-2.174-0.449-2.174-0.852V16.118z M18.831,17.424c0.399,0.366,1.222,0.6,2.174,0.6c0.954,0,1.777-0.233,2.177-0.6v0.66
	c0,0.402-0.893,0.852-2.177,0.852c-1.282,0-2.174-0.447-2.174-0.852V17.424z"/>
</svg>
