<?xml version="1.0" encoding="utf-8"?>
<!-- Generator: Adobe Illustrator 16.0.0, SVG Export Plug-In . SVG Version: 6.00 Build 0)  -->
<!DOCTYPE svg PUBLIC "-//W3C//DTD SVG 1.1//EN" "http://www.w3.org/Graphics/SVG/1.1/DTD/svg11.dtd">
<svg version="1.1" id="Layer_1" xmlns="http://www.w3.org/2000/svg" xmlns:xlink="http://www.w3.org/1999/xlink" x="0px" y="0px"
	 width="32px" height="32px" viewBox="0 0 32 32" enable-background="new 0 0 32 32" xml:space="preserve">
<title>sql-server-sink</title>
<path fill="#64953B" d="M16,0c8.822,0,16,7.177,16,16s-7.178,16-16,16C7.176,32,0,24.822,0,16C0,7.178,7.176,0,16,0z M16,31.359
	c8.471,0,15.359-6.889,15.359-15.359c0-8.47-6.889-15.36-15.359-15.36C7.53,0.64,0.64,7.53,0.64,16
	C0.64,24.471,7.53,31.359,16,31.359z M14.607,28.059c-0.7-0.099-1.401-0.188-2.099-0.298c-1.76-0.276-3.474-0.712-5.056-1.56
	c-0.679-0.364-1.297-0.817-1.805-1.404c-0.791-0.916-0.869-1.831-0.257-2.87c0.43-0.731,1.034-1.301,1.674-1.839
	c1.387-1.165,2.712-2.393,3.807-3.846c0.702-0.932,1.304-1.926,1.56-3.073c0.467-2.095,0.04-3.966-1.512-5.517
	C10.353,7.087,9.781,6.528,9.21,5.968C8.751,5.519,8.746,5.332,9.237,4.924c0.55-0.456,1.196-0.754,1.839-1.05
	c1.044-0.48,2.12-0.883,3.208-1.251c0.044-0.014,0.103-0.002,0.123-0.064c0.017,0,0.033,0,0.05,0
	c0.102,0.164,0.131,0.354,0.187,0.534c0.424,1.35,1.08,2.593,1.758,3.827c0.069,0.125,0.168,0.141,0.286,0.159
	c1.57,0.248,3.133,0.529,4.662,0.983c1.457,0.433,2.864,0.979,4.139,1.828c1.13,0.751,2.029,1.718,2.756,2.857
	c0.104,0.159,0.051,0.183-0.104,0.207c-2.973,0.465-5.875,1.235-8.765,2.061c-0.175,0.05-0.204,0.113-0.175,0.292
	c0.292,1.807,0.218,3.615-0.008,5.423c-0.321,2.588-1.321,4.937-2.5,7.227c-0.036,0.072-0.09,0.136-0.133,0.204
	c-0.417,0-0.833,0-1.25,0c-0.146,0.001-0.662-0.101-0.701-0.101L14.607,28.059z M10.82,4.597c-0.018-0.006-0.036-0.012-0.054-0.018
	c-0.01,0.034,0.016,0.031,0.035,0.036c0.604,0.592,1.199,1.194,1.82,1.768C12.768,6.519,13,6.525,13.203,6.396
	c0.483-0.309,0.988-0.581,1.498-0.844c0.099-0.051,0.216-0.078,0.296-0.182c-0.371-0.047-0.725-0.088-1.078-0.137
	C12.873,5.085,11.842,4.866,10.82,4.597L10.82,4.597z M21.646,13.782c2.068-0.493,4.137-0.868,6.272-1.025
	c-0.978-1.095-2.063-1.965-3.282-2.671c-0.166-0.097-0.229-0.076-0.307,0.097c-0.574,1.291-1.43,2.376-2.463,3.329
	C21.792,13.582,21.7,13.644,21.646,13.782L21.646,13.782z M21.08,13.929c1.014-1.348,2.122-2.569,3.029-3.98
	c-0.656,0.062-4.162,1.314-5.06,1.798C19.844,12.354,20.521,13.058,21.08,13.929z M18.441,21.613
	c-1.603,0.884-3.227,1.585-4.881,2.332c1.23,0.572,2.462,0.93,3.732,1.17c0.164,0.031,0.177-0.068,0.21-0.17
	c0.25-0.776,0.494-1.553,0.7-2.342c0.081-0.311,0.153-0.623,0.241-0.989L18.441,21.613z M9.173,19.055
	c-1.627,0.549-3.434,2.396-3.407,3.471c0.015,0.002,0.031,0.01,0.044,0.004c1.215-0.348,2.428-0.7,3.644-1.047
	c0.149-0.041,0.133-0.107,0.081-0.211c-0.19-0.371-0.346-0.754-0.397-1.176c-0.042-0.348,0.019-0.691,0.035-1.043V19.055z
	 M17.188,25.311c-1.29-0.172-2.545-0.432-3.75-0.912c-0.201-0.08-0.287-0.026-0.393,0.14c-0.513,0.812-1.09,1.571-1.702,2.31
	c-0.05,0.061-0.13,0.107-0.114,0.271c2.004-0.573,3.996-1.138,5.96-1.806L17.188,25.311z M20.65,14.041
	c-0.021-0.04-0.026-0.067-0.041-0.082c-0.646-0.617-1.348-1.163-2.096-1.653c-0.125-0.082-0.164-0.026-0.228,0.068
	c-0.397,0.605-0.849,1.173-1.331,1.715c-0.485,0.546-1.006,1.055-1.531,1.58C17.148,15.074,18.88,14.514,20.65,14.041L20.65,14.041z
	 M12.268,23.861c-0.828-0.453-1.502-0.989-2.073-1.65c-0.106-0.122-0.149-0.025-0.205,0.042c-0.788,0.956-1.604,1.892-2.322,2.904
	c-0.054,0.077-0.195,0.149-0.109,0.267c0.083,0.114,0.198,0.026,0.296-0.009c0.659-0.228,1.319-0.458,1.977-0.69
	C10.622,24.448,11.41,24.166,12.268,23.861L12.268,23.861z M23.805,9.684c-0.053-0.044-0.063-0.058-0.078-0.064
	c-1.205-0.548-2.459-0.958-3.735-1.3c-0.134-0.036-0.171,0.004-0.185,0.138c-0.084,0.878-0.361,1.702-0.723,2.501
	c-0.025,0.058-0.1,0.115-0.044,0.204c1.53-0.637,3.11-1.103,4.763-1.48L23.805,9.684z M9.589,21.96
	c-0.069-0.004-0.095-0.012-0.118-0.006c-1.199,0.28-2.397,0.563-3.597,0.84c-0.121,0.028-0.149,0.09-0.131,0.192
	c0.019,0.105,0.039,0.214,0.074,0.314c0.257,0.771,0.791,1.34,1.388,1.856c0.085,0.073,0.122,0.036,0.17-0.038
	c0.111-0.176,0.226-0.352,0.346-0.521C8.335,23.73,8.952,22.863,9.589,21.96L9.589,21.96z M18.411,21.384
	c-1.077-0.294-2.101-0.68-3.057-1.235c-0.103-0.06-0.14-0.032-0.174,0.07c-0.342,1.036-0.81,2.018-1.302,3.016
	C15.421,22.7,16.943,22.118,18.411,21.384z M10.612,21.663c0.017,0.035,0.024,0.06,0.038,0.078c0.6,0.751,1.352,1.321,2.167,1.817
	c0.15,0.092,0.168-0.027,0.212-0.104c0.511-0.886,0.99-1.788,1.395-2.728c0.056-0.131,0.108-0.264,0.186-0.449
	C13.274,20.873,11.958,21.303,10.612,21.663L10.612,21.663z M17.35,25.438c-1.77,0.892-3.597,1.334-5.462,1.729
	c0.045,0.032,0.057,0.046,0.072,0.049c1.433,0.292,2.877,0.521,4.327,0.711c0.138,0.019,0.174-0.063,0.211-0.159
	c0.142-0.365,0.278-0.729,0.414-1.095C17.052,26.286,17.188,25.898,17.35,25.438L17.35,25.438z M14.692,19.702
	c-0.78-0.659-1.389-1.396-1.747-2.316c-0.049-0.127-0.129-0.085-0.188-0.016c-0.041,0.048-0.059,0.116-0.083,0.179
	c-0.4,1.051-0.892,2.059-1.45,3.032c-0.071,0.124-0.148,0.245-0.253,0.42C12.254,20.602,13.46,20.189,14.692,19.702z M18.76,17.891
	c-0.998,0.76-2.06,1.353-3.159,1.924c0.07,0.055,0.113,0.09,0.161,0.121c0.782,0.494,1.604,0.903,2.488,1.188
	c0.206,0.065,0.279,0.051,0.311-0.183c0.084-0.633,0.149-1.27,0.19-1.906c0.022-0.368,0.044-0.738,0.011-1.145H18.76z M7.885,25.639
	c0.084,0.064,0.132,0.107,0.185,0.141c0.825,0.537,1.752,0.838,2.671,1.156c0.124,0.043,0.16-0.021,0.211-0.104
	c0.216-0.354,0.435-0.708,0.655-1.063c0.287-0.459,0.577-0.92,0.9-1.432c-1.558,0.477-3.068,0.87-4.621,1.301H7.885z M18.742,17.609
	c-0.932-0.438-1.773-0.938-2.606-1.451c-0.177-0.109-0.236-0.047-0.23,0.145c0.014,0.441-0.028,0.88-0.087,1.318
	c-0.079,0.582-0.218,1.152-0.369,1.766C16.609,18.887,17.701,18.352,18.742,17.609L18.742,17.609z M10.969,4.358
	c1.352,0.203,2.644,0.39,3.956,0.672c-0.251-0.719-0.442-1.406-0.515-2.121c-0.015-0.152-0.102-0.09-0.175-0.06
	c-0.4,0.163-0.801,0.326-1.2,0.492C12.346,3.627,11.675,3.953,10.969,4.358z M16.271,10.249c0.694,0.288,1.333,0.571,1.93,0.935
	c0.115,0.07,0.164,0.01,0.212-0.08c0.122-0.227,0.257-0.447,0.371-0.679c0.313-0.635,0.618-1.274,0.731-1.983
	C19.523,8.39,19.568,8.32,19.5,8.288c-0.033-0.014-0.093,0.019-0.134,0.042c-0.284,0.156-0.569,0.312-0.849,0.475
	C17.759,9.243,17.027,9.72,16.271,10.249L16.271,10.249z M15.91,9.907c1.023-0.734,2.086-1.272,3.242-1.786
	c-1.27-0.28-2.471-0.495-3.717-0.692C15.789,8.231,15.915,9.027,15.91,9.907L15.91,9.907z M14.948,19.346
	c0.318-1,0.534-1.984,0.45-3.044c-0.666,0.259-1.306,0.511-1.948,0.757c-0.11,0.043-0.13,0.094-0.085,0.203
	C13.7,18.091,14.262,18.743,14.948,19.346z M15.489,9.452c0.007-0.707-0.088-1.297-0.248-1.877
	c-0.029-0.107-0.049-0.223-0.205-0.103c-0.661,0.507-1.326,1.007-1.907,1.611c-0.145,0.15-0.06,0.173,0.074,0.211
	c0.568,0.161,1.137,0.321,1.702,0.491C15.491,9.96,15.489,9.965,15.489,9.452z M10.188,21.035c0.698-1.108,1.347-2.193,1.901-3.4
	c-0.748,0.319-1.428,0.637-2.103,0.973c-0.076,0.037-0.109,0.095-0.125,0.172C9.71,19.557,9.78,20.299,10.188,21.035L10.188,21.035z
	 M14.847,15.926c0.96-1.132,1.848-2.214,2.609-3.4c-1.026,0.46-1.995,1-2.95,1.567c-0.082,0.049-0.094,0.101-0.051,0.182
	C14.715,14.768,14.831,15.298,14.847,15.926z M14.842,7.341c-1.039-0.2-2.013-0.387-3.027-0.581
	c0.345,0.724,0.595,1.439,0.816,2.202C13.281,8.283,14.02,7.798,14.842,7.341L14.842,7.341z M12.906,12.5
	c0.712-0.698,1.4-1.327,2.141-1.951c-0.655-0.24-1.275-0.444-1.913-0.589c-0.303-0.069-0.307-0.07-0.266,0.225
	C12.97,10.929,13,11.674,12.906,12.5z M11.013,17.445c0.09,0.031,0.163,0.009,0.239-0.027c1.028-0.49,2.085-0.915,3.152-1.313
	c0.158-0.059,0.174-0.145,0.144-0.281c-0.08-0.361-0.224-0.694-0.42-1.007c-0.094-0.15-0.152-0.173-0.277-0.017
	c-0.819,1.012-1.786,1.871-2.838,2.647V17.445z M18.755,17.406c0.011-0.566-0.054-1.076-0.098-1.587
	c-0.05-0.571-0.05-0.574-0.599-0.401c-0.524,0.166-1.051,0.339-1.625,0.525C17.204,16.479,17.941,16.951,18.755,17.406
	L18.755,17.406z M14.973,13.211c0.871-0.499,1.748-0.97,2.673-1.431c-0.584-0.326-1.144-0.601-1.708-0.861
	c-0.097-0.045-0.151-0.032-0.175,0.081C15.603,11.769,15.319,12.494,14.973,13.211L14.973,13.211z M13.016,12.952
	c0.432,0.188,0.776,0.486,1.102,0.826c0.514-0.813,0.883-1.655,1.124-2.552c0.014-0.052,0.053-0.122-0.01-0.159
	s-0.105,0.03-0.148,0.065c-0.578,0.45-1.14,0.919-1.68,1.414C13.271,12.668,13.122,12.776,13.016,12.952L13.016,12.952z
	 M11.818,6.28c-0.447-0.557-0.851-1.059-1.254-1.561c-0.035-0.043-0.068-0.067-0.124-0.026c-0.321,0.239-0.639,0.48-0.824,0.848
	C9.55,5.672,9.56,5.764,9.733,5.818C10.391,6.024,11.065,6.152,11.818,6.28z M15.86,6.952c-0.176-0.336-0.336-0.636-0.491-0.94
	c-0.223-0.438-0.221-0.436-0.598-0.143c-0.157,0.123-0.319,0.241-0.484,0.354c-0.18,0.123-0.367,0.237-0.592,0.381
	C14.437,6.724,15.126,6.834,15.86,6.952L15.86,6.952z M13.218,15.003c-0.018-0.025-0.036-0.049-0.054-0.074
	c-0.527,0.363-1.055,0.726-1.584,1.089c-0.548,0.375-0.836,0.984-1.292,1.449C11.418,16.823,12.374,15.979,13.218,15.003
	L13.218,15.003z M10.072,6.293c0.754,0.637,1.407,1.35,1.943,2.178c0.069-0.072,0.058-0.131,0.042-0.183
	c-0.153-0.499-0.308-0.998-0.464-1.496c-0.017-0.056-0.044-0.106-0.109-0.124c-0.471-0.124-0.941-0.25-1.411-0.375H10.072z
	 M11.876,15.359c0.067,0,0.097,0.01,0.112-0.001c0.492-0.367,0.982-0.737,1.473-1.106c0.098-0.074,0.042-0.118-0.023-0.168
	c-0.191-0.147-0.398-0.268-0.605-0.391c-0.127-0.075-0.175-0.027-0.212,0.09C12.447,14.331,12.206,14.848,11.876,15.359
	L11.876,15.359z"/>
</svg>
