<?xml version="1.0" encoding="utf-8"?>
<!-- Generator: Adobe Illustrator 16.0.0, SVG Export Plug-In . SVG Version: 6.00 Build 0)  -->
<!DOCTYPE svg PUBLIC "-//W3C//DTD SVG 1.1//EN" "http://www.w3.org/Graphics/SVG/1.1/DTD/svg11.dtd">
<svg version="1.1" id="Layer_1" xmlns="http://www.w3.org/2000/svg" xmlns:xlink="http://www.w3.org/1999/xlink" x="0px" y="0px"
	 width="32px" height="32px" viewBox="0 0 32 32" enable-background="new 0 0 32 32" xml:space="preserve">
<title>start</title>
<path fill="#3272A0" d="M16,0c8.822,0,16,7.177,16,16s-7.178,16-16,16C7.176,32,0,24.822,0,16C0,7.178,7.176,0,16,0z M16,30.721
	c8.117,0,14.721-6.604,14.721-14.721S24.117,1.28,16,1.28S1.28,7.883,1.28,16S7.883,30.721,16,30.721z M22.668,15.079l-9.446-6.858
	c-0.346-0.252-0.806-0.295-1.182-0.096c-0.385,0.193-0.621,0.585-0.621,1.014v13.725c0,0.426,0.237,0.817,0.621,1.02
	c0.163,0.081,0.339,0.117,0.518,0.117c0.228,0,0.465-0.071,0.664-0.22l9.446-6.859c0.303-0.221,0.473-0.554,0.473-0.916
	C23.141,15.634,22.963,15.302,22.668,15.079L22.668,15.079L22.668,15.079z"/>
</svg>
