<?xml version="1.0" encoding="utf-8"?>
<!-- Generator: Adobe Illustrator 16.0.0, SVG Export Plug-In . SVG Version: 6.00 Build 0)  -->
<!DOCTYPE svg PUBLIC "-//W3C//DTD SVG 1.1//EN" "http://www.w3.org/Graphics/SVG/1.1/DTD/svg11.dtd">
<svg version="1.1" id="Layer_1" xmlns="http://www.w3.org/2000/svg" xmlns:xlink="http://www.w3.org/1999/xlink" x="0px" y="0px"
	 width="32px" height="32px" viewBox="0 0 32 32" enable-background="new 0 0 32 32" xml:space="preserve">
<title>stats</title>
<path fill="#3272A0" d="M21.25,32c-0.167,0-0.333,0-0.5,0c-0.391-0.172-0.611-0.493-0.816-0.852
	c-0.937-1.645-1.891-3.278-2.83-4.922c-0.102-0.179-0.213-0.244-0.416-0.235c-0.446,0.015-0.895,0.018-1.341,0
	c-0.227-0.011-0.35,0.065-0.464,0.264c-0.932,1.636-1.884,3.259-2.815,4.894c-0.204,0.358-0.426,0.681-0.816,0.852
	c-0.166,0-0.333,0-0.5,0c-0.845-0.504-0.947-0.915-0.445-1.784c0.749-1.298,1.498-2.596,2.246-3.894
	c0.054-0.094,0.1-0.193,0.169-0.326c-0.18,0-0.305,0-0.428,0c-3.406,0-6.812,0.001-10.218-0.001c-1.01-0.001-1.745-0.568-2.014-1.54
	C0.047,24.406,0.021,24.359,0,24.313c0-6.875,0-13.75,0-20.625c0.016-0.026,0.039-0.051,0.047-0.079
	c0.302-1.077,0.995-1.604,2.115-1.604c4.161,0,8.321,0,12.482,0c0.111,0,0.222,0,0.356,0C15.032,1.232,14.797,0.382,15.751,0
	c0.166,0,0.333,0,0.5,0c0.968,0.383,0.703,1.259,0.759,2.004c0.162,0,0.286,0,0.411,0c4.172,0,8.343-0.001,12.515,0.001
	c1.002,0,1.75,0.58,2.006,1.543c0.013,0.049,0.039,0.093,0.06,0.14c0,6.875,0,13.75,0,20.625c-0.013,0.017-0.03,0.031-0.037,0.049
	c-0.356,1.164-0.995,1.636-2.22,1.636c-3.36,0-6.721,0-10.08,0c-0.116,0-0.232,0-0.4,0c0.098,0.173,0.159,0.28,0.221,0.387
	c0.779,1.351,1.56,2.7,2.336,4.052c0.353,0.612,0.164,1.191-0.475,1.498C21.313,31.949,21.283,31.979,21.25,32L21.25,32z
	 M16.033,3.996c-4.311,0-8.622,0-12.933,0.001c-0.689,0-1.103,0.4-1.103,1.073c-0.001,5.946-0.001,11.892,0.001,17.838
	c0,0.685,0.404,1.096,1.081,1.096c8.612,0.002,17.224,0.001,25.836,0.001c0.681-0.001,1.089-0.409,1.089-1.091
	c0.001-5.936,0.001-11.871-0.001-17.807c-0.001-0.721-0.399-1.11-1.13-1.11C24.594,3.996,20.314,3.997,16.033,3.996L16.033,3.996z
	 M4.118,8.552c7.891,0,15.776,0,23.786,0c0,0.73,0,1.368,0,2.072c-7.946,0-15.833,0-23.786,0C4.118,9.921,4.118,9.284,4.118,8.552z
	 M27.871,14.724c-7.876,0-15.756,0-23.774,0c0-0.707,0-1.303,0-1.988c7.924,0,15.803,0,23.774,0
	C27.871,13.37,27.871,13.999,27.871,14.724z M4.155,19.323c0-0.62,0-1.289,0-2.081c7.943,0,15.796,0,23.729,0
	c0,0.691,0,1.33,0,2.081C20.033,19.323,12.147,19.323,4.155,19.323z"/>
</svg>
