<?xml version="1.0" encoding="utf-8"?>
<!-- Generator: Adobe Illustrator 16.0.0, SVG Export Plug-In . SVG Version: 6.00 Build 0)  -->
<!DOCTYPE svg PUBLIC "-//W3C//DTD SVG 1.1//EN" "http://www.w3.org/Graphics/SVG/1.1/DTD/svg11.dtd">
<svg version="1.1" id="Layer_1" xmlns="http://www.w3.org/2000/svg" xmlns:xlink="http://www.w3.org/1999/xlink" x="0px" y="0px"
	 width="32px" height="32px" viewBox="0 0 32 32" enable-background="new 0 0 32 32" xml:space="preserve">
<title>status</title>
<path fill="#3272A0" d="M16,0c8.822,0,16,7.177,16,16s-7.178,16-16,16C7.176,32,0,24.822,0,16C0,7.178,7.176,0,16,0z M16,30.721
	c8.117,0,14.721-6.604,14.721-14.721S24.117,1.28,16,1.28S1.28,7.883,1.28,16S7.883,30.721,16,30.721z M17.759,21.682l-1.306,0.588
	l1.697-8.685c0.197-0.915-0.783-1.894-1.827-1.306l-3.2,1.764c-0.588,0.326-0.784,1.11-0.457,1.697
	c0.327,0.587,1.11,0.783,1.697,0.458l0.784-0.392L13.514,24.1c-0.131,0.717,0.458,1.502,1.241,1.502
	c0.196,0,0.392-0.065,0.523-0.131l3.46-1.503c0.652-0.261,0.914-0.979,0.652-1.633S18.412,21.421,17.759,21.682L17.759,21.682
	L17.759,21.682z M16.911,9.926c0.979,0,1.763-0.783,1.763-1.763S17.891,6.4,16.911,6.4c-0.98,0-1.764,0.784-1.764,1.763
	S15.931,9.926,16.911,9.926L16.911,9.926z"/>
</svg>
