<?xml version="1.0" encoding="utf-8"?>
<!-- Generator: Adobe Illustrator 16.0.0, SVG Export Plug-In . SVG Version: 6.00 Build 0)  -->
<!DOCTYPE svg PUBLIC "-//W3C//DTD SVG 1.1//EN" "http://www.w3.org/Graphics/SVG/1.1/DTD/svg11.dtd">
<svg version="1.1" id="Layer_1" xmlns="http://www.w3.org/2000/svg" xmlns:xlink="http://www.w3.org/1999/xlink" x="0px" y="0px"
	 width="32px" height="32px" viewBox="0 0 32 32" enable-background="new 0 0 32 32" xml:space="preserve">
<title>stomp-iot</title>
<path fill="#3272A0" d="M7.975,29.857L0,16.024L7.975,2.142h16L32,16.024l-7.975,13.833H7.975z M23.779,29.416l7.729-13.391
	l-7.729-13.44H8.271l-7.779,13.44l7.779,13.44L23.779,29.416z M11.619,10.067c1.722-0.886,2.166-0.787,3.396,0.591
	c0.345,0.394,0.64,0.886,1.33,0.689c0.295,0.886,1.329,0.345,1.721,0.837c0.494,0.689,1.281,0.886,1.97,1.182
	c0.196,0.098,0.444,0.196,0.444,0.541c0,0.296-0.246,0.344-0.443,0.394c-0.592,0.196-0.443,0.787-0.592,1.181
	c-0.098,0.246,0.494,0.344,0.787,0.394c0.74,0.099,1.478,0.049,2.217-0.049c2.117-0.394,4.381,1.871,4.037,3.987
	c-0.049,0.346-0.246,0.592-0.541,0.838c-1.034,0.886-2.217,1.428-3.594,1.525c-1.724,0.147-3.496,0.198-5.219,0.246
	c-0.492,0-1.182,0.297-1.478-0.541c0-0.049-0.196-0.099-0.344-0.099c-0.886-0.05-1.772-0.099-2.658-0.147
	c-0.147,0-0.493-0.049-0.493,0.1c-0.099,0.984-0.886,0.688-1.379,0.738c-1.575,0.147-3.101,0-4.628-0.443
	c-0.443-0.147-0.689-0.295-0.64-0.787c0.148-2.067,0.296-4.186,0.443-6.253c0.099-0.985,0.246-1.92-0.049-2.904
	c-0.296-1.034,0.147-1.477,1.231-1.526c1.329-0.049,2.708,0.147,4.037-0.246c0.148,0.099,0.345,0.197,0.394,0.345
	c0.64,1.526,1.624,2.757,2.856,3.839c0.738,0.64,1.427,1.478,2.511,1.576c0.394,0.737,1.133,0.837,1.772,0.837
	c0.345,0,0.64-0.443,0.64-0.985c-0.64,0.937-1.279,0.493-1.969,0.198c-0.148-0.049-0.296-0.049-0.443-0.099
	c-0.493-0.739-1.33-1.082-2.019-1.674C13.538,13.169,12.504,11.693,11.619,10.067L11.619,10.067z M25.402,18.684
	c-0.344-0.05-0.59,0.099-0.836,0.246c-2.166,1.081-4.432,1.82-6.894,1.574c-0.786-0.395-1.575-0.1-2.413-0.1
	c0.788,0.051,1.576,0.297,2.413,0.1c0.099,0.198,0.296,0.198,0.493,0.198C20.825,20.947,23.188,20.063,25.402,18.684
	c0.05-0.05,0.099-0.147,0.147-0.199l-0.049-0.049c-0.048,0.1-0.048,0.148-0.099,0.246V18.684z M8.32,21.686
	c0.788-0.344,1.526-0.146,2.314-0.195c0.246,0,0.443-0.1,0.394-0.395c-0.049-0.147,0.049-0.541-0.443-0.394
	c-0.148,0.049-0.345-0.099-0.591,0c-0.984,0.295-1.871-0.05-2.806-0.345c-0.148-0.049-0.345-0.246-0.443-0.1
	C6.597,20.504,6.499,20.8,6.45,21.096c-0.051,0.196,0.147,0.344,0.343,0.344C7.286,21.439,7.827,21.342,8.32,21.686L8.32,21.686z
	 M19.15,17.994c-0.688,0.197-1.426,0.197-2.066,0.098c-1.28-0.146-2.511-0.394-3.742-0.59c-0.196-0.05-0.442-0.246-0.492,0.098
	c-0.049,0.246,0.246,0.297,0.443,0.344c1.28,0.199,2.511,0.443,3.791,0.541c0.641,0.052,1.428,0.052,2.068-0.491L19.15,17.994z
	 M24.861,20.063c-0.984,0-1.772,0.295-2.561,0.737c-0.195,0.099-0.441,0.246-0.295,0.492c0.1,0.246,0.395,0.147,0.592,0.099
	C23.434,21.243,24.221,20.85,24.861,20.063z M17.575,21.096c-0.345,0.147-0.984-0.246-1.034,0.295c0,0.493,0.641,0.443,1.034,0.395
	c0.444-0.049,1.182,0.246,1.182-0.246c0.099-0.641-0.69-0.395-1.182-0.441V21.096z M16.295,11.791c-0.689,0-1.181,0.394-1.526,0.985
	c-0.049,0.098-0.099,0.246,0.049,0.344c0.148,0.098,0.295,0.049,0.442-0.049C15.704,12.776,15.999,12.283,16.295,11.791
	L16.295,11.791z M19.2,14.942c-0.739-0.345-0.935,0.196-1.28,0.492c-0.197,0.148-0.395,0.394-0.1,0.591
	c0.246,0.198,0.494-0.049,0.641-0.197C18.658,15.532,18.807,15.187,19.2,14.942z M16.887,13.662
	c-0.346,0.049-0.542,0.295-0.69,0.689c-0.098,0.197,0,0.345,0.197,0.295c0.443-0.049,0.739-0.295,0.885-0.689
	C17.279,13.76,17.132,13.711,16.887,13.662z M19.889,13.858c-0.394-0.344-0.787-0.442-1.133-0.541
	c-0.146-0.049-0.296-0.147-0.344,0.099c-0.049,0.147,0.049,0.295,0.197,0.394C18.953,13.958,19.348,13.909,19.889,13.858
	L19.889,13.858z M17.969,12.677c-0.738-0.443-0.837-0.443-1.279,0.345C17.133,12.874,17.525,12.776,17.969,12.677z M21.366,21.243
	c0-0.147-0.05-0.246-0.197-0.246c-0.246,0-0.344,0.196-0.394,0.394c-0.049,0.147,0.05,0.197,0.197,0.197
	C21.169,21.588,21.316,21.441,21.366,21.243L21.366,21.243z M17.773,13.219c-0.049-0.049-0.1-0.099-0.147-0.099
	c-0.05,0-0.099,0.049-0.147,0.099c0.049,0.049,0.098,0.098,0.196,0.098C17.674,13.318,17.723,13.268,17.773,13.219z"/>
</svg>
