<?xml version="1.0" encoding="utf-8"?>
<!-- Generator: Adobe Illustrator 16.0.0, SVG Export Plug-In . SVG Version: 6.00 Build 0)  -->
<!DOCTYPE svg PUBLIC "-//W3C//DTD SVG 1.1//EN" "http://www.w3.org/Graphics/SVG/1.1/DTD/svg11.dtd">
<svg version="1.1" id="Layer_1" xmlns="http://www.w3.org/2000/svg" xmlns:xlink="http://www.w3.org/1999/xlink" x="0px" y="0px"
	 width="50px" height="50px" viewBox="0 0 50 50" enable-background="new 0 0 50 50" xml:space="preserve">
<path fill="#64953B" d="M25,0c13.785,0,25,11.214,25,25c0,13.785-11.215,25-25,25C11.213,50,0,38.785,0,25C0,11.214,11.213,0,25,0
	 M25,49c13.234,0,24-10.766,24-24C49,11.766,38.234,1,25,1C11.766,1,1,11.766,1,25C1,38.234,11.766,49,25,49 M24.69,42.977
	c-0.717-1.106-1.703-1.99-2.492-3.037c-0.192-0.254-0.481-0.479-0.307-0.844c0.155-0.32,0.489-0.3,0.779-0.289
	c0.569,0.016,0.751-0.281,0.735-0.802c-0.015-0.427-0.003-0.856,0.018-1.284c0.012-0.271,0.15-0.455,0.449-0.46
	c0.299-0.006,0.46,0.169,0.464,0.442c0.012,0.802,0.008,1.604-0.008,2.408c-0.004,0.255-0.145,0.481-0.39,0.563
	c-0.527,0.178-0.456,0.426-0.125,0.734c0.058,0.056,0.104,0.124,0.166,0.173c0.391,0.306,0.536,1.089,1.076,0.956
	c0.64-0.155,1.007-0.833,1.411-1.365c0.14-0.186,0.179-0.354-0.104-0.413c-0.534-0.108-0.547-0.512-0.545-0.928
	c0-0.669-0.002-1.34,0.008-2.008c0.004-0.288,0.078-0.55,0.439-0.55c0.336,0,0.469,0.23,0.484,0.524
	c0.021,0.4,0.034,0.804,0.021,1.204c-0.019,0.521,0.172,0.814,0.736,0.805c0.296-0.006,0.619,0.023,0.745,0.355
	c0.14,0.365-0.144,0.595-0.351,0.834c-0.854,0.994-1.711,1.984-2.566,2.979C25.119,42.977,24.905,42.977,24.69,42.977z M7,25.125
	c1.025,1.059,2.208,1.936,3.322,2.893c0.379,0.323,0.686,0.244,0.829-0.265c0.329-1.163,0.329-1.163,1.542-1.174
	c0.161-0.001,0.322,0,0.481-0.011c0.252-0.019,0.511-0.063,0.522-0.377c0.011-0.369-0.281-0.414-0.558-0.422
	c-0.588-0.012-1.177-0.006-1.765-0.009c-0.457-0.002-0.916-0.04-1.152,0.505c-0.125,0.289-0.345,0.176-0.519,0.018
	c-0.197-0.182-0.385-0.372-0.579-0.557c-0.8-0.767-0.805-0.771,0.02-1.544c0.426-0.4,0.833-1.154,1.4-0.127
	c0.029,0.053,0.143,0.081,0.219,0.083c0.854,0.005,1.709,0.011,2.564,0c0.203-0.002,0.359-0.123,0.375-0.347
	c0.016-0.268-0.156-0.395-0.394-0.41c-0.426-0.024-0.854-0.042-1.282-0.024c-0.553,0.021-0.871-0.161-0.845-0.772
	c0.012-0.289,0.018-0.618-0.322-0.756c-0.333-0.135-0.55,0.099-0.773,0.292C9.057,23.015,8.028,23.909,7,24.804
	C7,24.911,7,25.018,7,25.125z M18.077,29.936c-0.063,1.233,0.505,1.885,1.564,2.312c1.234,0.496,2.528,0.718,3.833,0.843
	c2.486,0.237,4.922,0.014,7.239-1.006c0.475-0.209,0.898-0.488,1.107-0.996c0.094-0.227,0.172-0.486-0.051-0.669
	c-0.258-0.211-0.531-0.081-0.713,0.126c-0.308,0.354-0.666,0.626-1.098,0.788c-3.327,1.248-6.654,1.178-9.968-0.054
	c-0.525-0.195-0.789-0.565-0.785-1.17c0.019-2.895,0.015-5.788,0.001-8.681c-0.002-0.555,0.135-0.696,0.703-0.506
	c3.383,1.133,6.785,1.11,10.186,0.062c0.471-0.146,0.85-0.238,0.881,0.449c0.015,0.277,0.174,0.442,0.472,0.435
	c0.247-0.004,0.378-0.132,0.454-0.37c0.65-2.049-0.067-3.463-2.106-4.125c-0.179-0.057-0.36-0.102-0.543-0.15
	c-1.94-0.512-3.922-0.558-5.905-0.428c-1.337,0.086-2.657,0.353-3.896,0.907c-0.868,0.388-1.414,0.957-1.374,2.028
	c0.065,1.711,0.018,3.429,0.018,5.144C18.099,26.561,18.162,28.252,18.077,29.936z M25.846,13.265
	c0.016,0.285,0.203,0.426,0.49,0.41c0.254-0.015,0.395-0.173,0.408-0.413c0.023-0.4,0.048-0.804,0.023-1.203
	c-0.039-0.625,0.166-0.928,0.854-0.942c0.773-0.018,0.916-0.346,0.424-0.955c-0.788-0.978-1.629-1.914-2.455-2.86
	c-0.339-0.391-0.695-0.353-1.023,0.018c-0.851,0.961-1.709,1.916-2.537,2.896c-0.329,0.388-0.28,0.887,0.278,0.864
	c1.176-0.047,1.14,0.663,1.095,1.454c-0.009,0.187,0,0.375,0.007,0.563c0.014,0.327,0.111,0.594,0.506,0.575
	c0.353-0.016,0.431-0.276,0.434-0.563c0.007-0.722,0.004-1.445-0.003-2.167c-0.002-0.219-0.041-0.485-0.243-0.565
	c-0.784-0.31-0.38-0.677-0.073-1.036c0.208-0.243,0.445-0.464,0.663-0.7c0.231-0.252,0.464-0.363,0.74-0.059
	c0.419,0.465,0.958,0.841,1.114,1.501c0.004,0.014-0.03,0.047-0.053,0.056c-1.031,0.357-0.558,1.247-0.657,1.713
	C25.838,12.463,25.822,12.866,25.846,13.265z M13.813,13.112c0.523-0.037,1.087,0.023,1.578,0.193
	c0.389,0.135-0.081,0.513,0.018,0.779c0.044,0.123,0.079,0.268,0.165,0.357c0.576,0.595,1.16,1.183,1.751,1.765
	c0.212,0.209,0.43,0.157,0.633-0.043c0.226-0.223,0.165-0.424-0.033-0.622c-0.226-0.229-0.435-0.476-0.683-0.678
	c-0.606-0.495-0.879-0.942-0.119-1.586c0.475-0.403,0.323-0.773-0.301-0.842c-1.247-0.135-2.498-0.234-3.75-0.319
	c-0.631-0.042-0.948,0.288-0.895,0.933c0.094,1.144,0.193,2.287,0.288,3.43c0.026,0.295,0.023,0.62,0.334,0.766
	c0.353,0.166,0.55-0.139,0.73-0.348c0.4-0.465,0.741-0.41,1.118,0.026c0.261,0.303,0.563,0.57,0.852,0.849
	c0.238,0.229,0.502,0.331,0.767,0.046c0.254-0.274,0.066-0.491-0.128-0.688c-0.451-0.457-0.909-0.906-1.359-1.363
	c-0.294-0.299-0.592-0.545-1.055-0.33c-0.343,0.16-0.426-0.073-0.439-0.346c-0.012-0.24-0.003-0.481-0.003-0.822
	C13.416,13.929,12.928,13.173,13.813,13.112z M16.529,37.572c0.3-0.051,0.693,0.001,0.816-0.387c0.11-0.345-0.185-0.545-0.397-0.729
	c-0.466-0.4-0.411-0.739,0.024-1.119c0.322-0.281,0.61-0.602,0.902-0.916c0.214-0.229,0.231-0.48-0.009-0.707
	c-0.237-0.223-0.445-0.099-0.629,0.084c-0.533,0.527-1.062,1.059-1.589,1.594c-0.154,0.154-0.322,0.362-0.235,0.565
	c0.332,0.784-0.177,0.729-0.687,0.767c-1.551,0.112-1.55,0.123-1.462-1.449c0.027-0.465-0.111-1.077,0.738-0.709
	c0.206,0.088,0.417-0.062,0.573-0.217c0.536-0.524,1.067-1.055,1.596-1.586c0.208-0.209,0.331-0.439,0.057-0.688
	c-0.255-0.233-0.495-0.136-0.708,0.067c-0.291,0.277-0.589,0.549-0.854,0.851c-0.365,0.413-0.707,0.543-1.121,0.062
	c-0.192-0.226-0.44-0.435-0.769-0.281c-0.326,0.15-0.288,0.48-0.314,0.771c-0.085,0.984-0.15,1.973-0.261,2.954
	c-0.121,1.075,0.107,1.343,1.41,1.321C14.442,37.625,15.499,37.741,16.529,37.572z M37.9,13.077
	c0.022-0.809-0.186-1.014-0.976-0.949c-1.146,0.096-2.29,0.196-3.437,0.295c-0.24,0.02-0.506,0.009-0.635,0.261
	c-0.154,0.306,0.066,0.515,0.264,0.69c0.503,0.447,0.421,0.871-0.01,1.302c-0.303,0.304-0.604,0.61-0.898,0.919
	c-0.146,0.15-0.193,0.322-0.042,0.502c0.123,0.147,0.261,0.271,0.476,0.232c0.277-0.047,2.105-1.967,2.127-2.241
	c0.008-0.078,0.014-0.176-0.026-0.235c-0.396-0.611-0.019-0.648,0.456-0.632c0.268,0.008,0.537,0.023,0.803-0.006
	c0.881-0.102,1.014,0.445,0.896,1.098c-0.078,0.442,0.461,1.435-0.781,1.051c-0.186-0.057-0.365,0.072-0.502,0.206
	c-0.553,0.546-1.104,1.094-1.649,1.646c-0.188,0.193-0.262,0.411-0.034,0.631c0.211,0.204,0.441,0.191,0.646,0.007
	c0.299-0.268,0.605-0.534,0.859-0.841c0.438-0.528,0.838-0.607,1.293-0.028c0.145,0.183,0.33,0.39,0.609,0.281
	c0.297-0.112,0.342-0.389,0.361-0.664c0.066-0.933,0.128-1.868,0.197-2.879C37.898,13.558,37.895,13.317,37.9,13.077z
	 M37.703,33.535c-0.004-0.055-0.005-0.108-0.014-0.161c-0.1-0.615-0.492-0.876-0.836-0.487c-0.767,0.868-1.262,0.41-1.797-0.215
	c-0.156-0.183-0.34-0.341-0.513-0.508c-0.228-0.225-0.454-0.252-0.698-0.016c-0.271,0.267-0.132,0.474,0.077,0.681
	c0.513,0.508,1.021,1.021,1.536,1.526c0.27,0.268,0.566,0.4,0.936,0.183c0.238-0.142,0.387-0.08,0.48,0.196
	c0.544,1.586-0.07,2.345-1.68,2.058c-0.385-0.069-0.875-0.052-0.473-0.688c0.125-0.201-0.041-0.412-0.193-0.569
	c-0.564-0.572-1.135-1.14-1.7-1.706c-0.194-0.195-0.394-0.268-0.623-0.042c-0.241,0.237-0.226,0.465,0.001,0.696
	c0.264,0.268,0.512,0.55,0.793,0.795c0.48,0.418,0.633,0.793,0.096,1.324c-0.505,0.5-0.384,0.888,0.316,0.969
	c1.245,0.144,2.503,0.186,3.756,0.25c0.45,0.022,0.698-0.223,0.706-0.684c0.004-0.268,0.002-0.535,0.002-0.932
	C37.824,35.4,37.766,34.468,37.703,33.535z M38.051,25.79c-0.455,0-0.91-0.017-1.363,0.007c-0.25,0.012-0.379,0.188-0.369,0.439
	c0.013,0.268,0.179,0.369,0.43,0.363c0.27-0.007,0.536-0.016,0.804-0.018c1.191-0.005,1.202-0.007,1.438,1.159
	c0.105,0.524,0.385,0.655,0.781,0.335c1.021-0.821,2.051-1.637,2.967-2.583c0.308-0.319,0.378-0.688,0.037-0.99
	c-0.979-0.871-1.976-1.723-2.993-2.547c-0.376-0.304-0.757-0.224-0.776,0.326c-0.033,0.949-0.559,1.173-1.382,1.073
	c-0.211-0.025-0.429-0.002-0.642,0.01c-0.299,0.016-0.526,0.13-0.521,0.477c0.007,0.352,0.253,0.45,0.544,0.455
	c0.696,0.008,1.394,0.008,2.089-0.007c0.348-0.008,0.621-0.147,0.721-0.522c0.093-0.362,0.293-0.322,0.522-0.122
	c0.162,0.141,0.317,0.289,0.483,0.424c1.063,0.863,1.078,0.876,0.068,1.813c-0.369,0.344-0.789,1.274-1.279,0.057
	c-0.066-0.168-0.323-0.168-0.514-0.17c-0.348-0.006-0.695-0.002-1.044-0.002C38.051,25.775,38.051,25.783,38.051,25.79z
	 M30.65,29.093c0.639-0.429,1.313-0.573,2.056-0.284c0.297,0.116,0.657,0.295,0.834-0.117c0.192-0.451-0.216-0.599-0.526-0.744
	c-1.017-0.479-1.938-0.174-2.793,0.41c-0.855,0.586-1.681,0.608-2.527,0.008c-0.352-0.249-0.74-0.428-1.153-0.553
	c-0.716-0.215-1.378-0.073-1.989,0.323c-0.211,0.138-0.369,0.345-0.212,0.609c0.134,0.229,0.366,0.211,0.569,0.118
	c0.917-0.428,1.718-0.127,2.494,0.373c0.465,0.3,0.978,0.423,1.598,0.394C29.582,29.71,30.129,29.441,30.65,29.093z M30.468,27.109
	c0.755-0.533,1.542-0.703,2.421-0.355c0.258,0.104,0.553,0.154,0.676-0.186c0.117-0.321-0.123-0.49-0.364-0.625
	c-0.912-0.507-1.837-0.42-2.661,0.135c-1.114,0.747-2.121,0.792-3.236-0.018c-0.779-0.567-1.699-0.609-2.583-0.127
	c-0.262,0.145-0.55,0.325-0.397,0.681c0.145,0.333,0.443,0.217,0.695,0.118c0.759-0.301,1.46-0.172,2.14,0.246
	c0.551,0.338,1.119,0.637,1.828,0.554C29.521,27.604,30.023,27.425,30.468,27.109z M24.552,23.947
	c-0.207,0.143-0.369,0.341-0.219,0.61c0.131,0.231,0.372,0.234,0.563,0.122c0.909-0.531,1.677-0.187,2.458,0.318
	c0.957,0.619,1.985,0.646,2.967,0.096c0.859-0.482,1.666-0.994,2.678-0.404c0.191,0.112,0.429,0.073,0.549-0.166
	c0.116-0.234,0.014-0.425-0.177-0.553c-0.177-0.118-0.372-0.209-0.569-0.287c-0.984-0.392-1.846,0.004-2.65,0.496
	c-0.906,0.556-1.733,0.564-2.599-0.078c-0.475-0.354-1.036-0.549-1.643-0.575C25.419,23.541,24.958,23.667,24.552,23.947z"/>
</svg>
