<?xml version="1.0" encoding="utf-8"?>
<!-- Generator: Adobe Illustrator 16.0.0, SVG Export Plug-In . SVG Version: 6.00 Build 0)  -->
<!DOCTYPE svg PUBLIC "-//W3C//DTD SVG 1.1//EN" "http://www.w3.org/Graphics/SVG/1.1/DTD/svg11.dtd">
<svg version="1.1" id="Layer_1" xmlns="http://www.w3.org/2000/svg" xmlns:xlink="http://www.w3.org/1999/xlink" x="0px" y="0px"
	 width="32px" height="32px" viewBox="0 0 32 32" enable-background="new 0 0 32 32" xml:space="preserve">
<title>svm</title>
<path fill="#3272A0" d="M32,16L16,32L0,16L16,0L32,16z M16,0.64L0.64,16L16,31.359L31.359,16L16,0.64z M23.168,9.024L8.512,22.848
	L8.32,22.656L22.977,8.832L23.168,9.024z M5.824,12.48c0.64,0,1.088,0.576,1.088,1.152c0,0.576-0.512,1.088-1.088,1.088
	c-0.576,0-1.088-0.576-1.088-1.152C4.736,12.992,5.248,12.48,5.824,12.48z M10.304,12.48c0.64,0,1.088,0.512,1.088,1.088
	c0,0.576-0.512,1.088-1.088,1.088c-0.576,0-1.088-0.512-1.088-1.088C9.216,12.992,9.728,12.48,10.304,12.48z M11.584,8
	c0.64,0,1.152,0.512,1.088,1.088c0,0.576-0.512,1.088-1.088,1.088s-1.088-0.512-1.088-1.088C10.496,8.512,11.008,8,11.584,8z
	 M15.424,10.56c0.64,0,1.088,0.512,1.088,1.088S16,12.736,15.424,12.736c-0.576,0-1.088-0.512-1.088-1.088
	S14.848,10.56,15.424,10.56z M17.344,6.08c0.641,0,1.152,0.512,1.088,1.088c0,0.576-0.512,1.088-1.088,1.088
	s-1.088-0.512-1.088-1.088S16.768,6.08,17.344,6.08z M7.744,16.32c0.64,0,1.088,0.512,1.088,1.088s-0.512,1.088-1.088,1.088
	c-0.576,0-1.088-0.512-1.088-1.088S7.168,16.32,7.744,16.32z M13.184,22.4v1.92h-1.792V22.4H13.184z M21.76,13.44v1.92h-1.792v-1.92
	H21.76z M21.248,21.439v1.92h-1.792v-1.92H21.248z M26.305,15.36v1.919h-1.793V15.36H26.305z M20.863,17.6v1.92h-1.791V17.6H20.863z
	 M17.152,17.6v1.92H15.36V17.6H17.152z M17.408,23.359v1.92h-1.792v-1.92H17.408z"/>
</svg>
