<?xml version="1.0" encoding="utf-8"?>
<!-- Generator: Adobe Illustrator 16.0.0, SVG Export Plug-In . SVG Version: 6.00 Build 0)  -->
<!DOCTYPE svg PUBLIC "-//W3C//DTD SVG 1.1//EN" "http://www.w3.org/Graphics/SVG/1.1/DTD/svg11.dtd">
<svg version="1.1" id="Layer_1" xmlns="http://www.w3.org/2000/svg" xmlns:xlink="http://www.w3.org/1999/xlink" x="0px" y="0px"
	 width="32px" height="32px" viewBox="0 0 32 32" enable-background="new 0 0 32 32" xml:space="preserve">
<title>tag</title>
<path fill="#64953B" d="M16,0C7.176,0,0,7.177,0,16s7.176,16,16,16c8.822,0,16-7.178,16-16C32,7.178,24.822,0,16,0z M16,31.359
	C7.53,31.359,0.64,24.471,0.64,16C0.64,7.53,7.53,0.64,16,0.64c8.471,0,15.359,6.89,15.359,15.36
	C31.359,24.471,24.471,31.359,16,31.359z M26.979,18.2l-6.724,6.723c-0.146,0.147-0.392,0.084-0.54-0.062l-1.207-1.215l5.444-5.445
	c0.399-0.399,0.368-0.701,0-1.069L13.806,6.994h2.275c0.209,0,0.687,0.061,0.806,0.134c0.119,0.074,0.34,0.255,0.486,0.401
	l9.605,9.603c0.271,0.271,0.316,0.751-0.002,1.069L26.979,18.2z M22.703,17.398L12.562,7.26c-0.147-0.147-0.438-0.268-0.646-0.268
	H5.179C4.97,6.992,4.8,7.162,4.8,7.37v6.739c0,0.208,0.12,0.5,0.268,0.646l10.137,10.138c0.15,0.147,0.39,0.147,0.537,0l6.962-6.961
	C22.85,17.787,22.85,17.546,22.703,17.398L22.703,17.398z M9.657,11.85c-0.592,0.592-1.551,0.592-2.142,0
	c-0.591-0.592-0.591-1.55,0-2.142c0.591-0.591,1.55-0.591,2.142,0C10.249,10.299,10.249,11.258,9.657,11.85z"/>
</svg>
