<?xml version="1.0" encoding="utf-8"?>
<!-- Generator: Adobe Illustrator 16.0.0, SVG Export Plug-In . SVG Version: 6.00 Build 0)  -->
<!DOCTYPE svg PUBLIC "-//W3C//DTD SVG 1.1//EN" "http://www.w3.org/Graphics/SVG/1.1/DTD/svg11.dtd">
<svg version="1.1" id="Layer_1" xmlns="http://www.w3.org/2000/svg" xmlns:xlink="http://www.w3.org/1999/xlink" x="0px" y="0px"
	 width="32px" height="32px" viewBox="0 0 32 32" enable-background="new 0 0 32 32" xml:space="preserve">
<title>tick-circle</title>
<path fill="#3272A0" d="M16.001,0.003c-8.836,0-15.997,7.163-15.997,15.996c0,8.838,7.161,15.998,15.997,15.998
	s15.996-7.16,15.996-15.998C31.997,7.166,24.836,0.003,16.001,0.003z M16,30.396c-7.953,0-14.397-6.443-14.397-14.398
	C1.603,8.049,8.048,1.602,16,1.602c7.951,0,14.396,6.447,14.396,14.396C30.396,23.953,23.952,30.396,16,30.396z M14.089,22.938
	c-0.286,0.281-0.746,0.281-1.03,0l-0.227-0.229l-0.248-0.246l-1.066-1.066l-0.017-0.023l-4.888-4.926
	c-0.284-0.282-0.284-0.746,0-1.027l1.54-1.54c0.286-0.285,0.743-0.285,1.028,0l4.397,4.431l9.24-9.246
	c0.283-0.284,0.744-0.284,1.027,0l1.541,1.542c0.284,0.283,0.284,0.745,0,1.028L14.089,22.938z"/>
</svg>
