<?xml version="1.0" encoding="utf-8"?>
<!-- Generator: Adobe Illustrator 16.0.0, SVG Export Plug-In . SVG Version: 6.00 Build 0)  -->
<!DOCTYPE svg PUBLIC "-//W3C//DTD SVG 1.1//EN" "http://www.w3.org/Graphics/SVG/1.1/DTD/svg11.dtd">
<svg version="1.1" id="Layer_1" xmlns="http://www.w3.org/2000/svg" xmlns:xlink="http://www.w3.org/1999/xlink" x="0px" y="0px"
	 width="32px" height="32px" viewBox="0 0 32 32" enable-background="new 0 0 32 32" xml:space="preserve">
<title>timezone</title>
<path fill="#64953B" d="M16,0C7.177,0,0,7.177,0,16s7.177,16,16,16c8.822,0,16-7.178,16-16C32,7.178,24.822,0,16,0z M16,31.359
	C7.53,31.359,0.64,24.471,0.64,16C0.64,7.53,7.53,0.64,16,0.64c8.471,0,15.359,6.89,15.359,15.36
	C31.359,24.471,24.471,31.359,16,31.359z M16,3.2C8.949,3.2,3.213,8.942,3.213,15.999C3.213,23.059,8.949,28.8,16,28.8
	c7.053,0,12.787-5.741,12.787-12.801C28.787,8.942,23.053,3.2,16,3.2z M21.547,11.253c0.209,0.207,0.209,0.547,0,0.755l-3.482,3.487
	c0.041,0.164,0.067,0.336,0.067,0.511c0,1.178-0.954,2.139-2.132,2.139c-0.797,0-1.484-0.545-1.851-1.078h-2.945
	c-0.293,0-0.532-0.266-0.532-0.56v-1.015c0-0.293,0.239-0.559,0.532-0.559h2.945c0.367-0.533,1.053-1.078,1.851-1.078
	c0.211,0,0.411,0.052,0.602,0.109l3.453-3.453c0.205-0.207,0.547-0.207,0.754,0l0.738,0.744V11.253z M16,25.6
	c-5.297,0-9.59-4.298-9.59-9.601c0-5.303,4.294-9.6,9.59-9.6s9.59,4.298,9.59,9.6C25.59,21.301,21.296,25.6,16,25.6z"/>
</svg>
