<?xml version="1.0" encoding="utf-8"?>
<!-- Generator: Adobe Illustrator 16.0.0, SVG Export Plug-In . SVG Version: 6.00 Build 0)  -->
<!DOCTYPE svg PUBLIC "-//W3C//DTD SVG 1.1//EN" "http://www.w3.org/Graphics/SVG/1.1/DTD/svg11.dtd">
<svg version="1.1" id="Layer_1" xmlns="http://www.w3.org/2000/svg" xmlns:xlink="http://www.w3.org/1999/xlink" x="0px" y="0px"
	 width="32px" height="32px" viewBox="0 0 32 32" enable-background="new 0 0 32 32" xml:space="preserve">
<title>twitter-source</title>
<path fill="#3272A0" d="M23.635,12.084c0.008,0.169,0.012,0.339,0.012,0.51c0,5.206-3.961,11.207-11.208,11.207
	c-2.225,0-4.295-0.65-6.038-1.77c0.308,0.035,0.622,0.056,0.94,0.056c1.845,0,3.544-0.63,4.892-1.687
	c-1.724-0.03-3.178-1.17-3.68-2.734c0.241,0.047,0.488,0.068,0.742,0.068c0.359,0,0.707-0.051,1.038-0.139
	c-1.803-0.359-3.16-1.953-3.16-3.863c0-0.017,0-0.031,0.001-0.049c0.531,0.294,1.138,0.473,1.784,0.491
	c-1.057-0.705-1.752-1.911-1.752-3.277c0-0.723,0.195-1.4,0.533-1.98c1.942,2.382,4.845,3.951,8.12,4.115
	c-0.068-0.289-0.102-0.589-0.102-0.899c0-2.173,1.765-3.937,3.938-3.937c1.134,0,2.158,0.477,2.877,1.243
	c0.896-0.177,1.74-0.504,2.5-0.957c-0.295,0.921-0.92,1.692-1.732,2.179c0.797-0.093,1.557-0.305,2.262-0.62
	c-0.528,0.789-1.195,1.482-1.965,2.039L23.635,12.084z M16,0C7.176,0,0,7.177,0,16s7.176,16,16,16c8.822,0,16-7.178,16-16
	C32,7.178,24.822,0,16,0z M16,31.359C7.53,31.359,0.64,24.471,0.64,16C0.64,7.53,7.53,0.64,16,0.64
	c8.471,0,15.359,6.89,15.359,15.36C31.359,24.471,24.471,31.359,16,31.359z"/>
</svg>
