<?xml version="1.0" encoding="utf-8"?>
<!-- Generator: Adobe Illustrator 16.0.0, SVG Export Plug-In . SVG Version: 6.00 Build 0)  -->
<!DOCTYPE svg PUBLIC "-//W3C//DTD SVG 1.1//EN" "http://www.w3.org/Graphics/SVG/1.1/DTD/svg11.dtd">
<svg version="1.1" id="Layer_1" xmlns="http://www.w3.org/2000/svg" xmlns:xlink="http://www.w3.org/1999/xlink" x="0px" y="0px"
	 width="32px" height="32px" viewBox="0 0 32 32" enable-background="new 0 0 32 32" xml:space="preserve">
<title>twitter-notification</title>
<path fill="#3272A0" d="M24.32,32H7.68C3.413,32,0,28.588,0,24.32V7.68C0,3.413,3.413,0,7.68,0h16.64C28.587,0,32,3.413,32,7.68
	v16.64C32,28.588,28.587,32,24.32,32z M31.041,23.361V8.64c0-4.267-3.414-7.68-7.68-7.68H8.64c-4.267,0-7.68,3.413-7.68,7.68v14.721
	c0,4.266,3.413,7.68,7.68,7.68h14.721C27.627,31.041,31.041,27.627,31.041,23.361z M27.093,9.067
	c-0.853,0.427-1.706,0.64-2.666,0.747c0.96-0.533,1.706-1.493,2.027-2.56c-0.854,0.533-1.813,0.853-2.88,1.066
	c-0.747-0.853-2.027-1.493-3.307-1.493c-2.562,0-4.587,2.027-4.587,4.587c0,0.427,0.107,0.747,0.107,1.067
	C12.053,12.267,8.64,10.453,6.4,7.68c-0.427,0.747-0.64,1.493-0.64,2.347c0,1.6,0.853,2.987,2.027,3.84
	c-0.747,0-1.494-0.214-2.027-0.534v0.107c0,2.24,1.6,4.054,3.627,4.48c-0.427,0.105-0.747,0.214-1.174,0.214
	c-0.32,0-0.533,0-0.853-0.108c0.533,1.814,2.347,3.095,4.267,3.201c-1.493,1.174-3.52,2.027-5.653,2.027
	c-0.427,0-0.747,0-1.067-0.105c2.027,1.279,4.373,2.025,7.04,2.025c8.427,0,13.014-6.934,13.014-13.014v-0.533
	C25.813,10.773,26.561,10.027,27.093,9.067z"/>
</svg>
