<?xml version="1.0" encoding="utf-8"?>
<!-- Generator: Adobe Illustrator 16.0.0, SVG Export Plug-In . SVG Version: 6.00 Build 0)  -->
<!DOCTYPE svg PUBLIC "-//W3C//DTD SVG 1.1//EN" "http://www.w3.org/Graphics/SVG/1.1/DTD/svg11.dtd">
<svg version="1.1" id="Layer_1" xmlns="http://www.w3.org/2000/svg" xmlns:xlink="http://www.w3.org/1999/xlink" x="0px" y="0px"
	 width="32px" height="32px" viewBox="0 0 32 32" enable-background="new 0 0 32 32" xml:space="preserve">
<title>union</title>
<path fill="#64953B" d="M18.701,22.07c-0.749,0.748-1.618,1.332-2.56,1.744c-0.973,0.398-2.038,0.625-3.156,0.625
	c-4.616,0-8.358-3.741-8.358-8.359c0-3.451,2.093-6.413,5.078-7.688c0.97-0.384,2.011-0.59,3.084-0.59
	c1.499,0,2.932,0.399,4.193,1.133c-0.057,0.052-0.115,0.1-0.17,0.155c-2.508,2.506-2.508,6.586,0,9.092
	c0.943,0.945,2.131,1.555,3.42,1.78C19.84,20.73,19.329,21.441,18.701,22.07L18.701,22.07z M18.932,10.022
	c2.615,2.615,3.2,6.496,1.773,9.687c0.216,0.021,0.436,0.036,0.654,0.036c0.608,0,1.205-0.089,1.772-0.261
	c2.458-0.789,4.238-3.092,4.238-5.813c0-3.373-2.733-6.108-6.106-6.108c-0.693,0-1.357,0.12-1.979,0.332
	c-0.071,0.026-0.146,0.048-0.216,0.077c-0.036,0.015-0.073,0.032-0.111,0.047c-0.516,0.219-0.997,0.509-1.438,0.865
	c0.504,0.327,0.977,0.705,1.41,1.138H18.932z M17.039,17.956c0.92,0.918,2.08,1.501,3.338,1.704c0.5-1.084,0.773-2.27,0.773-3.5
	c0-2.233-0.869-4.333-2.448-5.912c-0.438-0.438-0.92-0.815-1.433-1.141c-0.076,0.07-0.156,0.135-0.229,0.209
	C14.657,11.697,14.657,15.573,17.039,17.956L17.039,17.956z M16,0c8.823,0,16,7.177,16,16s-7.178,16-16,16C7.176,32,0,24.822,0,16
	C0,7.178,7.176,0,16,0z M16,31.359c8.471,0,15.359-6.889,15.359-15.359c0-8.47-6.889-15.36-15.359-15.36
	C7.53,0.64,0.64,7.53,0.64,16C0.64,24.471,7.53,31.359,16,31.359z"/>
</svg>
