<?xml version="1.0" encoding="utf-8"?>
<!-- Generator: Adobe Illustrator 16.0.0, SVG Export Plug-In . SVG Version: 6.00 Build 0)  -->
<!DOCTYPE svg PUBLIC "-//W3C//DTD SVG 1.1//EN" "http://www.w3.org/Graphics/SVG/1.1/DTD/svg11.dtd">
<svg version="1.1" id="Layer_1" xmlns="http://www.w3.org/2000/svg" xmlns:xlink="http://www.w3.org/1999/xlink" x="0px" y="0px"
	 width="32px" height="32px" viewBox="0 0 32 32" enable-background="new 0 0 32 32" xml:space="preserve">
<title>upload</title>
<path fill="#3272A0" d="M26.025,8.773c3.447,0.956,5.968,4.413,5.975,8.299c0,2.148-0.757,4.212-2.145,5.818
	c-1.396,1.621-3.271,2.592-5.277,2.743H19.63c-0.493,0-0.888-0.416-0.888-0.935c0-0.52,0.395-0.936,0.888-0.936h4.851
	c3.172-0.256,5.744-3.248,5.744-6.691c0-3.249-2.211-6.096-5.139-6.623c-0.395-0.069-0.697-0.409-0.736-0.831
	c-0.369-4.06-3.574-7.122-7.455-7.122c-2.89,0-5.547,1.773-6.778,4.524C9.919,7.456,9.438,7.664,9.004,7.498
	C8.649,7.359,8.267,7.29,7.879,7.29c-1.816,0-3.297,1.559-3.297,3.471c0,0.423,0.066,0.817,0.197,1.192
	c0.145,0.43-0.013,0.908-0.388,1.136c-1.612,0.991-2.612,2.82-2.612,4.78c0,3.033,2.264,5.729,4.955,5.902h5.633
	c0.494,0,0.888,0.416,0.888,0.935s-0.395,0.935-0.888,0.935H6.655c-1.79-0.104-3.468-0.998-4.738-2.508
	c-1.237-1.476-1.915-3.339-1.915-5.258c0-2.376,1.099-4.607,2.909-5.992c-0.066-0.36-0.105-0.727-0.105-1.108
	c0-2.944,2.277-5.341,5.073-5.341c0.329,0,0.658,0.035,0.974,0.097c0.73-1.344,1.764-2.487,3.007-3.332
	c1.494-1.018,3.238-1.559,5.027-1.559c2.316,0,4.54,0.908,6.252,2.556c1.539,1.482,2.547,3.436,2.889,5.577H26.025z M21.333,18.764
	c-0.349,0.366-0.908,0.366-1.25,0l-3.19-3.361v15.443c0,0.52-0.396,0.934-0.889,0.934c-0.493,0-0.888-0.415-0.888-0.934V15.403
	l-3.191,3.361c-0.171,0.187-0.401,0.276-0.625,0.276c-0.224,0-0.454-0.097-0.625-0.276c-0.349-0.367-0.349-0.957,0-1.324
	l4.705-4.953c0.165-0.18,0.395-0.277,0.625-0.277s0.461,0.104,0.625,0.277l4.705,4.953c0.349,0.367,0.349,0.957,0,1.324H21.333z"/>
</svg>
