<?xml version="1.0" encoding="utf-8"?>
<!-- Generator: Adobe Illustrator 16.0.0, SVG Export Plug-In . SVG Version: 6.00 Build 0)  -->
<!DOCTYPE svg PUBLIC "-//W3C//DTD SVG 1.1//EN" "http://www.w3.org/Graphics/SVG/1.1/DTD/svg11.dtd">
<svg version="1.1" id="Layer_1" xmlns="http://www.w3.org/2000/svg" xmlns:xlink="http://www.w3.org/1999/xlink" x="0px" y="0px"
	 width="32px" height="32px" viewBox="0 0 32 32" enable-background="new 0 0 32 32" xml:space="preserve">
<title>url-source</title>
<path fill="#3272A0" d="M16,0C7.176,0,0,7.177,0,16s7.176,16,16,16c8.822,0,16-7.178,16-16C32,7.178,24.822,0,16,0z M16,31.359
	C7.53,31.359,0.64,24.471,0.64,16C0.64,7.53,7.53,0.64,16,0.64c8.471,0,15.359,6.89,15.359,15.36
	C31.359,24.471,24.471,31.359,16,31.359z M24.471,14.22l-2.007,2.005c-0.26-0.904-0.749-1.773-1.465-2.524l1.479-1.478
	c0.529-0.527,0.287-1.43-0.244-1.961L20.702,8.72c-0.488-0.487-1.259-0.744-1.847-0.156l-4.893,4.933
	c-0.562,0.563-0.506,1.358,0.219,1.86v-0.001c0,0.008-0.067,0.017-0.061,0.024l2.557,2.64l-1.996,1.996l-2.648-2.648
	c-0.003-0.004-0.004-0.006-0.007-0.01c-0.002-0.002-0.003-0.004-0.005-0.004c-1.672-1.687-1.734-4.253-0.136-5.853l4.934-4.934
	c1.599-1.599,4.173-1.531,5.856,0.154l1.544,1.544c1.739,1.738,1.85,4.353,0.252,5.953L24.471,14.22z M19.895,14.586
	c1.74,1.74,1.851,4.355,0.252,5.954l-4.935,4.935c-1.575,1.575-4.251,1.465-5.961-0.244l-1.542-1.543
	c-1.685-1.685-1.75-4.261-0.147-5.864l1.973-1.973c0.264,0.905,0.757,1.768,1.488,2.503L9.557,19.82
	c-0.566,0.566-0.355,1.371,0.147,1.873l1.543,1.541c0.531,0.533,1.436,0.776,1.969,0.244l4.935-4.934
	c0.527-0.529,0.281-1.428-0.252-1.962l-2.54-2.54c-0.004-0.004-0.009-0.008-0.013-0.013l1.996-1.995
	c0.004,0.004,0.01,0.007,0.014,0.012l2.541,2.541L19.895,14.586z"/>
</svg>
