<?xml version="1.0" encoding="utf-8"?>
<!-- Generator: Adobe Illustrator 16.0.0, SVG Export Plug-In . SVG Version: 6.00 Build 0)  -->
<!DOCTYPE svg PUBLIC "-//W3C//DTD SVG 1.1//EN" "http://www.w3.org/Graphics/SVG/1.1/DTD/svg11.dtd">
<svg version="1.1" id="Layer_1" xmlns="http://www.w3.org/2000/svg" xmlns:xlink="http://www.w3.org/1999/xlink" x="0px" y="0px"
	 width="32px" height="32px" viewBox="0 0 32 32" enable-background="new 0 0 32 32" xml:space="preserve">
<title>url-notification</title>
<path fill="#3272A0" d="M24.32,32H7.68C3.413,32,0,28.588,0,24.32V7.68C0,3.413,3.413,0,7.68,0h16.64C28.587,0,32,3.413,32,7.68
	v16.64C32,28.588,28.587,32,24.32,32z M31.041,23.361V8.64c0-4.267-3.414-7.68-7.68-7.68H8.64c-4.267,0-7.68,3.413-7.68,7.68v14.721
	c0,4.266,3.413,7.68,7.68,7.68h14.721C27.627,31.041,31.041,27.627,31.041,23.361z M7.467,11.093v5.121
	c0,1.92,0.853,2.774,2.027,2.774c1.28,0,2.133-0.854,2.133-2.774v-5.121H12.8v5.014c0,2.667-1.387,3.733-3.307,3.733
	c-1.813,0-3.093-0.96-3.093-3.733v-5.12h1.067V11.093z M14.613,11.2c0.533-0.107,1.387-0.213,2.134-0.213
	c1.173,0,1.92,0.213,2.453,0.746c0.426,0.427,0.64,0.96,0.64,1.6c0,1.174-0.747,1.921-1.6,2.241l0,0
	c0.64,0.213,1.066,0.852,1.279,1.705c0.32,1.175,0.533,2.027,0.642,2.347h-1.175c-0.106-0.212-0.319-0.959-0.533-2.026
	c-0.213-1.174-0.747-1.6-1.706-1.706H15.68v3.732h-1.067V11.2z M15.787,15.147h1.173c1.174,0,1.92-0.64,1.92-1.6
	c0-1.067-0.854-1.6-2.026-1.6c-0.534,0-0.96,0-1.067,0.107L15.787,15.147L15.787,15.147z M21.547,11.093h1.066v7.681h3.734v0.961
	h-4.801V11.093z"/>
</svg>
