<?xml version="1.0" encoding="utf-8"?>
<!-- Generator: Adobe Illustrator 16.0.0, SVG Export Plug-In . SVG Version: 6.00 Build 0)  -->
<!DOCTYPE svg PUBLIC "-//W3C//DTD SVG 1.1//EN" "http://www.w3.org/Graphics/SVG/1.1/DTD/svg11.dtd">
<svg version="1.1" id="Layer_1" xmlns="http://www.w3.org/2000/svg" xmlns:xlink="http://www.w3.org/1999/xlink" x="0px" y="0px"
	 width="32px" height="32px" viewBox="0 0 32 32" enable-background="new 0 0 32 32" xml:space="preserve">
<title>wrangler</title>
<path fill="#64953B" d="M16,0C7.176,0,0,7.177,0,16s7.176,16,16,16c8.823,0,16-7.178,16-16C32,7.178,24.822,0,16,0z M16,31.359
	C7.53,31.359,0.64,24.471,0.64,16C0.64,7.53,7.53,0.64,16,0.64c8.471,0,15.359,6.891,15.359,15.36S24.471,31.359,16,31.359z
	 M23.895,16.34c-0.205,0.327-0.449,0.524-0.707,0.703c-0.944,0.659-2.016,1.023-3.129,1.255c-3.063,0.64-6.102,0.568-9.127-0.287
	c-1.283-0.362-2.177-1.142-2.872-2.227c-0.184-0.286-0.271-0.573-0.266-0.915c0.017-1.036,0.01-2.07,0.004-3.107
	c-0.003-0.534,0.186-0.989,0.52-1.397c0.116-0.141,0.235-0.209,0.42-0.142c0.198,0.072,0.403,0.121,0.604,0.185
	c0.061,0.019,0.147,0.025,0.163,0.098c0.018,0.081-0.07,0.106-0.121,0.143c-0.218,0.159-0.417,0.337-0.573,0.56
	c-0.219,0.31-0.215,0.621-0.003,0.936C9,12.43,9.265,12.634,9.55,12.813c0.924,0.582,1.953,0.88,3.011,1.091
	c0.989,0.198,1.99,0.31,2.998,0.306c0.294-0.001,0.538,0.074,0.772,0.246c1.092,0.801,2.278,1.413,3.601,1.746
	c1.241,0.312,2.493,0.403,3.762,0.163C23.738,16.356,23.784,16.353,23.895,16.34L23.895,16.34z M22.826,22.693
	c-0.186,0.1-0.378,0.188-0.573,0.268c-1.823,0.734-3.744,0.947-5.687,1.005c-1.313,0.04-2.625-0.045-3.922-0.265
	c-0.211-0.036-0.293,0.008-0.267,0.246c0.054,0.484,0.099,0.973,0.108,1.46c0.009,0.469-0.284,0.845-0.705,0.979
	c-0.684,0.222-1.327-0.26-1.347-1.024c-0.018-0.652-0.105-1.295-0.221-1.938c-0.049-0.271-0.168-0.426-0.425-0.509
	c-0.172-0.057-0.333-0.146-0.493-0.232c-0.649-0.35-1.211-0.787-1.475-1.521c-0.02,0.888-0.009,1.759-0.025,2.632
	c-0.012,0.688,0.246,1.249,0.739,1.711c0.6,0.563,1.321,0.922,2.092,1.172c3.258,1.057,6.557,1.079,9.869,0.303
	c1.068-0.25,2.092-0.639,2.956-1.352c0.5-0.412,0.856-0.923,0.872-1.589c0.023-0.938,0.006-1.877,0.006-2.894
	C23.912,21.955,23.582,22.291,22.826,22.693L22.826,22.693z M22.906,18.25c-0.268,0.146-0.549,0.275-0.834,0.386
	c-1.043,0.403-2.131,0.63-3.238,0.761c-2.23,0.262-4.454,0.24-6.668-0.174c-0.562-0.104-1.114-0.255-1.667-0.416
	c-0.029,0.139,0.056,0.203,0.105,0.279c0.653,1.037,1.157,2.141,1.467,3.327c0.06,0.228,0.165,0.329,0.397,0.372
	c2.548,0.47,5.091,0.451,7.622-0.098c1.131-0.246,2.225-0.604,3.167-1.306c0.562-0.417,1.028-0.927,1.054-1.669
	c0.031-0.955,0.006-1.912,0.006-2.867c-0.293,0.661-0.813,1.075-1.412,1.403L22.906,18.25L22.906,18.25z M10.798,20.573
	c-0.65-1.353-1.564-2.519-2.549-3.636c-0.972-1.104-1.564-2.376-1.706-3.852c-0.021-0.226,0.028-0.316,0.26-0.236
	c0.484,0.166,0.436,0.079,0.559-0.319c0.023-0.074,0.035-0.15,0.063-0.221c0.067-0.173,0.017-0.26-0.168-0.309
	c-0.556-0.147-1.109-0.303-1.66-0.465C5.025,11.368,5.116,11.4,4.97,11.894c-0.119,0.406-0.119,0.412,0.287,0.518
	c0.2,0.052,0.335,0.111,0.34,0.369c0.033,1.672,0.636,3.14,1.665,4.438c0.553,0.697,1.17,1.344,1.683,2.074
	c0.874,1.246,1.522,2.591,1.817,4.094c0.127,0.65,0.189,1.307,0.228,1.967c0.021,0.357,0.174,0.521,0.477,0.52
	c0.305-0.003,0.451-0.174,0.454-0.532c0.001-0.086,0-0.172,0-0.258c-0.068-1.58-0.441-3.084-1.126-4.511L10.798,20.573
	L10.798,20.573z M7.851,18.855c-0.344,1.14,0.623,2.711,1.836,2.98C9.549,21.169,8.316,19.166,7.851,18.855z M26.568,9.32
	c-0.752-1.564-2.028-2.595-3.569-3.277c-3.33-1.475-6.82-1.89-10.405-1.31c-2.404,0.389-4.575,1.33-6.336,3.08
	c-0.04,0.04-0.09,0.076-0.141,0.097C5.631,8.098,5.393,8.455,5.39,8.971c0,0.082,0.001,0.171-0.118,0.138
	c-0.17-0.047-0.195,0.069-0.227,0.182C5.003,9.439,4.97,9.589,4.92,9.733c-0.064,0.18,0.001,0.26,0.177,0.307
	c0.5,0.133,0.997,0.276,1.494,0.419c0.723,0.207,0.737,0.198,0.851-0.557c0.01-0.065,0.04-0.132-0.036-0.18
	c-0.065-0.04-0.19-0.043-0.125-0.173C7.339,9.433,7.419,9.35,7.569,9.352c0.308,0.003,0.612,0.041,0.913,0.102
	c1.45,0.291,2.746,0.954,4.013,1.681c1.681,0.965,3.247,2.109,4.864,3.173c1.471,0.968,3.093,1.458,4.791,1.489
	c0.845-0.01,1.613-0.109,2.346-0.392c1.279-0.493,2.177-1.347,2.484-2.722c0.26-1.164,0.102-2.291-0.414-3.36L26.568,9.32z
	 M26.122,12.143c-0.146,1.27-0.978,2.159-2.353,2.514c-1.463,0.376-2.892,0.195-4.291-0.316c-0.883-0.322-1.651-0.842-2.422-1.367
	c-1.679-1.144-3.345-2.312-5.158-3.242c-1.383-0.708-2.813-1.271-4.392-1.338C7.402,8.389,7.319,8.357,7.276,8.257
	C7.222,8.13,7.339,8.089,7.406,8.032c1.21-1.036,2.614-1.696,4.14-2.113c1.275-0.349,2.575-0.5,3.898-0.488
	c2.424,0.052,4.792,0.392,7.027,1.398c1.115,0.502,2.108,1.177,2.834,2.189c0.672,0.936,0.948,1.981,0.819,3.124L26.122,12.143z
	 M20.777,13.992c1.098,0.228,2.184,0.25,3.252-0.159c0.217-0.082,0.316-0.202,0.309-0.447c-0.018-0.497-0.01-0.996-0.004-1.494
	c0.009-0.772-0.303-1.387-0.893-1.876c-0.676-0.563-1.461-0.913-2.291-1.164c-2.77-0.835-5.583-0.886-8.417-0.43
	c-0.408,0.065-0.818,0.138-1.268,0.305c0.416,0.213,0.774,0.39,1.126,0.579c0.125,0.067,0.245,0.088,0.385,0.064
	c0.576-0.098,1.156-0.165,1.74-0.2c2.14-0.129,4.252-0.004,6.306,0.66c0.762,0.246,1.494,0.556,2.078,1.129
	c0.5,0.492,0.494,0.918,0.012,1.416c-0.401,0.415-0.904,0.669-1.424,0.897c-0.475,0.207-0.974,0.344-1.545,0.518
	C20.389,13.923,20.586,13.953,20.777,13.992L20.777,13.992z"/>
</svg>
