<?xml version="1.0" encoding="utf-8"?>
<!-- Generator: Adobe Illustrator 16.0.0, SVG Export Plug-In . SVG Version: 6.00 Build 0)  -->
<!DOCTYPE svg PUBLIC "-//W3C//DTD SVG 1.1//EN" "http://www.w3.org/Graphics/SVG/1.1/DTD/svg11.dtd">
<svg version="1.1" id="Layer_1" xmlns="http://www.w3.org/2000/svg" xmlns:xlink="http://www.w3.org/1999/xlink" x="0px" y="0px"
	 width="37px" height="32px" viewBox="0 0 37 32" enable-background="new 0 0 37 32" xml:space="preserve">
<title>xmpp-iot</title>
<path fill="#3272A0" d="M9.238,32L0,16L9.238,0h18.476l9.237,16l-9.237,16H9.238z M27.43,31.508l8.952-15.507L27.43,0.493H9.521
	L0.568,16.001l8.953,15.507H27.43z M29.822,7.637c-0.004,0.013-0.018,0.014-0.027,0.019c-0.648,0.252-1.298,0.504-1.945,0.756
	c-0.16,0.062-0.32,0.125-0.48,0.188c-0.166,0.064-0.333,0.128-0.499,0.192c-0.339,0.114-0.679,0.227-1.017,0.34
	c-0.363,0.107-0.728,0.214-1.092,0.321c-0.596,0.176-1.191,0.352-1.785,0.528c-0.033,0.009-0.062,0.012-0.06,0.061
	c0.022,0.345,0.017,0.69-0.002,1.035c-0.03,0.559-0.106,1.113-0.215,1.661c-0.235,1.161-0.615,2.276-1.114,3.349
	c-0.77,1.649-1.771,3.14-3.036,4.451c-0.011-0.011-0.023-0.021-0.034-0.031c-0.266-0.288-0.524-0.582-0.77-0.887
	c-0.802-0.998-1.477-2.075-2.029-3.23c-0.496-1.037-0.883-2.112-1.135-3.235c-0.135-0.601-0.23-1.207-0.27-1.823
	c-0.025-0.381-0.031-0.762-0.01-1.144c0.002-0.047-0.013-0.068-0.059-0.081c-0.614-0.18-1.227-0.363-1.841-0.545
	c-0.349-0.103-0.699-0.206-1.049-0.308c-0.177-0.064-0.354-0.128-0.53-0.192c-0.155-0.055-0.311-0.11-0.466-0.164
	c-0.016-0.007-0.032-0.015-0.047-0.021C9.808,8.682,9.306,8.488,8.804,8.294C8.76,8.277,8.718,8.253,8.669,8.247
	C8.586,8.216,8.503,8.185,8.421,8.153C8.134,8.039,7.849,7.926,7.562,7.811C7.415,7.752,7.266,7.694,7.119,7.635
	C7.1,7.631,7.108,7.645,7.108,7.652c-0.001,0.06,0,0.119,0,0.179c0.016,0.02,0.009,0.044,0.011,0.066
	c0.008,0.117,0.008,0.234,0.025,0.35c0.014,0.221,0.042,0.441,0.074,0.66c0.015,0.1,0.022,0.202,0.051,0.3
	c0.01,0.111,0.036,0.22,0.058,0.329c0.047,0.227,0.094,0.455,0.16,0.678c0.001,0.006-0.001,0.012,0.001,0.017
	c0.102,0.389,0.221,0.774,0.361,1.151c0.125,0.359,0.269,0.709,0.428,1.053c0.14,0.323,0.297,0.638,0.464,0.948
	c0.178,0.344,0.372,0.679,0.578,1.007c0.084,0.149,0.179,0.29,0.273,0.433c0.138,0.21,0.277,0.42,0.428,0.621
	c0.01,0.017,0.019,0.034,0.03,0.049c0.416,0.582,0.862,1.139,1.335,1.675c0.132,0.15,0.262,0.303,0.405,0.443
	c0.012,0.016,0.024,0.035,0.039,0.049c0.211,0.216,0.421,0.433,0.634,0.648c0.117,0.116,0.231,0.235,0.358,0.342
	c0.109,0.121,0.234,0.224,0.354,0.332c0.262,0.238,0.528,0.475,0.804,0.697c0.173,0.153,0.355,0.293,0.537,0.436
	c0.21,0.164,0.421,0.33,0.641,0.482c0.013,0.01,0.026,0.022,0.04,0.032c0.296,0.216,0.596,0.425,0.903,0.624
	c0.224,0.146,0.447,0.294,0.679,0.426c0.093,0.066,0.194,0.117,0.29,0.176c-0.011,0.024-0.035,0.037-0.054,0.052
	c-0.217,0.165-0.437,0.323-0.663,0.475c-1.019,0.679-2.112,1.195-3.298,1.507c-0.095,0.025-0.095,0.025-0.093,0.127
	c0,0.002,0,0.002,0,0.006c-0.001,0.041-0.004,0.084-0.003,0.127c0.001,0.097-0.016,0.092,0.092,0.078
	c0.474-0.063,0.944-0.149,1.41-0.25c1.363-0.295,2.674-0.742,3.934-1.338c0.049-0.023,0.085-0.023,0.133,0
	c0.254,0.125,0.509,0.248,0.771,0.355c0.007,0.004,0.013,0.009,0.021,0.012c0.56,0.243,1.119,0.488,1.697,0.684
	c0.848,0.283,1.715,0.488,2.602,0.607c0.199,0.027,0.396,0.044,0.597,0.064c0.021,0.004,0.048,0.01,0.048-0.023
	c0.004-0.064,0.016-0.128-0.002-0.189c0-0.127,0.008-0.102-0.103-0.133c-0.003-0.002-0.005-0.002-0.007-0.002
	c-0.659-0.174-1.295-0.414-1.907-0.713c-0.8-0.389-1.543-0.869-2.239-1.424c-0.02-0.016-0.044-0.027-0.05-0.054
	c0.135-0.08,0.272-0.155,0.403-0.246c0.023-0.002,0.039-0.017,0.058-0.028c0.296-0.184,0.592-0.367,0.875-0.57
	c0.175-0.125,0.354-0.242,0.526-0.373c0.009-0.002,0.017-0.002,0.022-0.006c0.279-0.203,0.558-0.408,0.824-0.627
	c0.019-0.014,0.037-0.027,0.056-0.041c0.299-0.234,0.584-0.484,0.868-0.738c0.054-0.026,0.093-0.073,0.138-0.113
	c0.213-0.191,0.426-0.385,0.629-0.588c0.139-0.127,0.272-0.26,0.403-0.395c0.147-0.156,0.292-0.312,0.438-0.467
	c0.011-0.009,0.021-0.015,0.031-0.025c0.602-0.651,1.164-1.337,1.681-2.06c0.129-0.18,0.26-0.359,0.374-0.549
	c0.085-0.115,0.158-0.236,0.234-0.357c0.188-0.296,0.369-0.596,0.534-0.906c0.142-0.249,0.273-0.503,0.398-0.761
	c0.083-0.173,0.171-0.344,0.241-0.523c0.099-0.21,0.187-0.426,0.271-0.643c0.082-0.211,0.166-0.422,0.229-0.64
	c0.061-0.156,0.107-0.317,0.154-0.476c0.08-0.271,0.156-0.543,0.213-0.82c0.043-0.177,0.079-0.356,0.111-0.536
	c0.044-0.248,0.084-0.497,0.107-0.748c0.009-0.076,0.018-0.151,0.025-0.226c0.025-0.24,0.033-0.482,0.047-0.723
	c-0.008-0.002-0.016-0.002-0.022-0.002L29.822,7.637z M13.651,30.188c0.029,0.049,0.045,0.088,0.051,0.117
	c0.006,0.028-0.001,0.051-0.021,0.067s-0.053,0.028-0.099,0.034s-0.106,0.009-0.181,0.009c-0.071,0-0.127-0.002-0.167-0.005
	s-0.072-0.01-0.095-0.018c-0.023-0.009-0.041-0.02-0.053-0.033c-0.012-0.012-0.022-0.027-0.031-0.047l-0.959-1.717l-0.969,1.717
	c-0.011,0.02-0.023,0.035-0.036,0.049c-0.013,0.015-0.032,0.025-0.056,0.033s-0.055,0.013-0.094,0.017s-0.093,0.005-0.16,0.005
	c-0.073,0-0.131-0.003-0.173-0.009c-0.042-0.007-0.072-0.017-0.089-0.034s-0.022-0.039-0.017-0.068s0.023-0.068,0.052-0.117
	l1.176-1.981l-1.123-1.915c-0.027-0.049-0.044-0.088-0.052-0.118c-0.008-0.03-0.002-0.053,0.015-0.069
	c0.017-0.018,0.049-0.027,0.093-0.033c0.044-0.004,0.106-0.006,0.183-0.006c0.066,0,0.121,0.002,0.163,0.004
	c0.042,0.004,0.076,0.01,0.1,0.018s0.042,0.02,0.053,0.034c0.011,0.015,0.023,0.03,0.036,0.048l0.926,1.611l0.919-1.611
	c0.011-0.018,0.022-0.034,0.034-0.048c0.012-0.015,0.027-0.026,0.048-0.034s0.051-0.013,0.089-0.018
	c0.038-0.004,0.089-0.004,0.153-0.004c0.069,0,0.124,0.002,0.168,0.009c0.044,0.006,0.074,0.016,0.093,0.032
	c0.019,0.016,0.027,0.037,0.022,0.067s-0.02,0.069-0.047,0.118l-1.119,1.902L13.651,30.188L13.651,30.188z M19.133,30.307
	c0,0.018-0.005,0.033-0.013,0.047c-0.009,0.013-0.026,0.023-0.048,0.031c-0.023,0.008-0.053,0.014-0.088,0.02
	c-0.036,0.007-0.082,0.01-0.139,0.01c-0.053,0-0.097-0.003-0.135-0.01c-0.038-0.006-0.068-0.012-0.09-0.02
	c-0.021-0.008-0.036-0.018-0.046-0.031c-0.01-0.015-0.014-0.029-0.014-0.047v-3.755h-0.007l-1.518,3.771
	c-0.007,0.015-0.017,0.028-0.029,0.04c-0.012,0.011-0.03,0.02-0.053,0.027s-0.051,0.014-0.083,0.018
	c-0.032,0.004-0.07,0.005-0.114,0.005c-0.047,0-0.086-0.002-0.12-0.007c-0.034-0.006-0.061-0.012-0.083-0.018
	c-0.022-0.008-0.04-0.018-0.052-0.029c-0.012-0.01-0.02-0.022-0.024-0.035l-1.452-3.771h-0.003v3.754
	c0,0.019-0.005,0.034-0.014,0.047c-0.009,0.014-0.024,0.024-0.048,0.032c-0.023,0.009-0.052,0.015-0.089,0.021
	s-0.084,0.009-0.141,0.009c-0.055,0-0.101-0.003-0.137-0.009c-0.036-0.006-0.066-0.012-0.087-0.021
	c-0.022-0.008-0.036-0.018-0.045-0.032c-0.009-0.014-0.012-0.028-0.012-0.047v-3.964c0-0.093,0.024-0.159,0.074-0.2
	c0.05-0.039,0.105-0.06,0.165-0.06h0.352c0.072,0,0.135,0.007,0.189,0.021c0.054,0.013,0.102,0.035,0.142,0.063
	c0.041,0.029,0.075,0.064,0.102,0.109c0.027,0.045,0.051,0.098,0.071,0.156l1.232,3.121h0.017l1.282-3.111
	c0.024-0.066,0.052-0.123,0.081-0.17c0.029-0.047,0.061-0.084,0.097-0.11c0.035-0.028,0.073-0.048,0.117-0.06
	c0.044-0.013,0.092-0.019,0.149-0.019h0.369c0.034,0,0.065,0.005,0.097,0.015c0.031,0.01,0.057,0.026,0.078,0.047
	c0.021,0.021,0.039,0.049,0.053,0.08c0.013,0.032,0.02,0.072,0.02,0.118v3.966L19.133,30.307z M22.927,27.346
	c0,0.215-0.036,0.409-0.106,0.582c-0.071,0.174-0.172,0.321-0.305,0.443c-0.132,0.122-0.293,0.217-0.486,0.283
	c-0.191,0.066-0.422,0.1-0.688,0.1h-0.488v1.553c0,0.018-0.006,0.033-0.015,0.047c-0.009,0.013-0.026,0.023-0.047,0.031
	s-0.05,0.014-0.086,0.02c-0.036,0.007-0.083,0.01-0.14,0.01c-0.055,0-0.101-0.003-0.137-0.01c-0.037-0.006-0.068-0.012-0.09-0.02
	s-0.038-0.018-0.047-0.031c-0.009-0.015-0.014-0.029-0.014-0.047v-3.978c0-0.089,0.023-0.152,0.07-0.19
	c0.047-0.037,0.1-0.057,0.156-0.057h0.924c0.092,0,0.182,0.004,0.269,0.012c0.086,0.008,0.186,0.024,0.303,0.051
	c0.117,0.025,0.235,0.072,0.356,0.143s0.223,0.156,0.308,0.258s0.149,0.221,0.196,0.355C22.907,27.034,22.928,27.184,22.927,27.346
	L22.927,27.346z M22.325,27.393c0-0.177-0.032-0.322-0.099-0.439c-0.065-0.117-0.146-0.205-0.242-0.264
	c-0.096-0.058-0.197-0.094-0.301-0.109c-0.103-0.016-0.203-0.023-0.302-0.023h-0.53v1.729h0.517c0.173,0,0.317-0.022,0.432-0.067
	s0.21-0.105,0.288-0.185s0.137-0.173,0.178-0.283S22.325,27.521,22.325,27.393z M26.451,27.346c0,0.215-0.036,0.409-0.107,0.582
	c-0.07,0.174-0.172,0.321-0.304,0.443s-0.294,0.217-0.485,0.283c-0.193,0.066-0.423,0.1-0.688,0.1h-0.489v1.553
	c0,0.018-0.005,0.033-0.014,0.047c-0.01,0.013-0.026,0.023-0.047,0.031c-0.021,0.008-0.051,0.014-0.086,0.02
	c-0.037,0.007-0.084,0.01-0.14,0.01s-0.101-0.003-0.138-0.01c-0.037-0.006-0.066-0.012-0.09-0.02
	c-0.021-0.008-0.037-0.018-0.047-0.031c-0.008-0.015-0.012-0.029-0.012-0.047v-3.978c0-0.089,0.022-0.152,0.069-0.19
	c0.047-0.037,0.099-0.057,0.155-0.057h0.924c0.093,0,0.184,0.004,0.27,0.012s0.186,0.024,0.303,0.051
	c0.117,0.025,0.234,0.072,0.355,0.143s0.223,0.156,0.309,0.258c0.084,0.102,0.149,0.221,0.195,0.355
	C26.432,27.034,26.452,27.184,26.451,27.346L26.451,27.346z M25.85,27.393c0-0.177-0.033-0.322-0.099-0.439
	s-0.147-0.205-0.243-0.264c-0.096-0.058-0.197-0.094-0.3-0.109s-0.204-0.023-0.302-0.023h-0.53v1.729h0.517
	c0.172,0,0.317-0.022,0.432-0.067c0.113-0.045,0.21-0.105,0.287-0.185c0.078-0.079,0.137-0.173,0.178-0.283
	S25.85,27.521,25.85,27.393z"/>
</svg>
