<?xml version="1.0" encoding="utf-8"?>
<!-- Generator: Adobe Illustrator 16.0.0, SVG Export Plug-In . SVG Version: 6.00 Build 0)  -->
<!DOCTYPE svg PUBLIC "-//W3C//DTD SVG 1.1//EN" "http://www.w3.org/Graphics/SVG/1.1/DTD/svg11.dtd">
<svg version="1.1" id="Layer_1" xmlns="http://www.w3.org/2000/svg" xmlns:xlink="http://www.w3.org/1999/xlink" x="0px" y="0px"
	 width="32px" height="32px" viewBox="0 0 32 32" enable-background="new 0 0 32 32" xml:space="preserve">
<title>yarn-deployment</title>
<path fill="#3272A0" d="M16,0c8.823,0,16,7.177,16,16s-7.178,16-16,16C7.176,32,0,24.822,0,16C0,7.178,7.176,0,16,0z M16,31.359
	c8.471,0,15.359-6.889,15.359-15.359c0-8.47-6.889-15.36-15.359-15.36C7.53,0.64,0.64,7.53,0.64,16
	C0.64,24.471,7.53,31.359,16,31.359z M24.6,9.151c0-1.376-2.045-1.533-2.045-1.533L17.754,7.31c0,0-0.1-1.329-1.072-1.789
	c-0.547-0.26-2.241-0.289-3.83-0.265c-0.366,0.004-0.66,0.303-0.66,0.669V8.98c0,0.498-0.403,0.902-0.9,0.902H8.393
	c-0.758,0-1.353,0.294-1.353,0.92c0,0.626,0.893,7.345,2.125,8.573c0.712,0.711,5.072,1.261,5.992,1.261
	c0.92,0,0.612-2.733,0.868-2.733c0.256,0,0.536,1.57,1.984,1.936c1.446,0.365,3.378,0.305,3.478,1.352
	c0.133,1.381,0.257,3.17-0.641,3.293l-2.021,0.086c-0.599,0-0.526-1.642-0.403-1.642c0.204,0,0.374-0.004,0.514-0.004
	c0.228-0.006,0.412-0.19,0.422-0.418l0.037-0.854c0.01-0.246-0.184-0.455-0.431-0.455c-0.883-0.016-2.758,0.16-2.856,1.822
	c-0.124,1.991,0.214,2.926,0.46,3.131c0.246,0.205,0.674,0.603,4.56,0.603c5.483,0,3.474-16.225,3.474-17.601l0,0L24.6,9.151z
	 M21.939,15.768c-0.139,0.129-0.733-0.375-1.201-0.375c-0.471,0-0.873,0.385-0.997,0.238c-0.118-0.143,0.108-1.31,0.997-1.31
	C21.625,14.321,22.075,15.64,21.939,15.768L21.939,15.768z M10.523,5.81L8.122,8.277C7.933,8.472,8.07,8.794,8.34,8.794h2.4
	c0.172,0,0.305-0.138,0.305-0.303V6.024C11.05,5.748,10.717,5.611,10.523,5.81L10.523,5.81z"/>
</svg>
