<?xml version="1.0" encoding="utf-8"?>
<!-- Generator: Adobe Illustrator 16.0.0, SVG Export Plug-In . SVG Version: 6.00 Build 0)  -->
<!DOCTYPE svg PUBLIC "-//W3C//DTD SVG 1.1//EN" "http://www.w3.org/Graphics/SVG/1.1/DTD/svg11.dtd">
<svg version="1.1" id="Layer_1" xmlns="http://www.w3.org/2000/svg" xmlns:xlink="http://www.w3.org/1999/xlink" x="0px" y="0px"
	 width="29px" height="32px" viewBox="0 0 29 32" enable-background="new 0 0 29 32" xml:space="preserve">
<title>yarn-worker-deployment</title>
<path fill="#3272A0" d="M28.57,14.286C28.57,6.408,22.162,0,14.285,0C6.407,0-0.001,6.408-0.001,14.286
	c0,6.239,4.021,11.553,9.607,13.495C9.848,30.15,11.85,32,14.284,32c2.434,0,4.437-1.85,4.679-4.219
	C24.548,25.839,28.57,20.525,28.57,14.286L28.57,14.286z M18.982,27.171c-0.066-2.539-2.142-4.578-4.696-4.578
	c-2.555,0-4.63,2.038-4.697,4.578c-5.256-1.922-9.018-6.972-9.018-12.886c0-7.562,6.152-13.714,13.714-13.714
	c7.563,0,13.714,6.152,13.714,13.714C27.999,20.199,24.236,25.249,18.982,27.171L18.982,27.171z M21.143,6.856
	c0-1.097-1.631-1.222-1.631-1.222l-3.828-0.246c0,0-0.078-1.059-0.854-1.427c-0.436-0.208-1.786-0.23-3.053-0.211
	c-0.292,0.003-0.526,0.242-0.526,0.534v2.435c0,0.397-0.322,0.719-0.718,0.719H8.222c-0.605,0-1.078,0.235-1.078,0.734
	s0.712,5.855,1.694,6.834c0.567,0.567,4.043,1.006,4.777,1.006c0.734,0,0.488-2.179,0.692-2.179s0.427,1.251,1.582,1.543
	c1.153,0.292,2.692,0.242,2.772,1.078c0.106,1.101,0.204,2.526-0.511,2.625l-1.61,0.069c-0.478,0-0.42-1.31-0.322-1.31
	c0.162,0,0.298-0.003,0.409-0.003c0.182-0.005,0.329-0.152,0.337-0.333l0.03-0.681c0.008-0.197-0.146-0.363-0.344-0.363
	c-0.703-0.012-2.198,0.128-2.277,1.452c-0.098,1.589,0.171,2.334,0.367,2.497c0.196,0.162,0.537,0.479,3.635,0.479
	c4.372,0.002,2.77-12.934,2.77-14.03l0,0L21.143,6.856z M19.02,12.131c-0.109,0.102-0.582-0.299-0.957-0.299
	s-0.696,0.307-0.795,0.19c-0.094-0.114,0.086-1.045,0.795-1.045C18.77,10.978,19.129,12.029,19.02,12.131L19.02,12.131z
	 M9.919,4.193L8.005,6.16C7.854,6.315,7.963,6.572,8.179,6.572h1.914c0.137,0,0.242-0.11,0.242-0.242V4.363
	C10.34,4.143,10.074,4.033,9.919,4.193L9.919,4.193L9.919,4.193z M12.822,29.621l-1.041-4.102h0.56l0.487,2.074
	c0.122,0.512,0.231,1.022,0.305,1.418h0.012c0.067-0.406,0.195-0.894,0.335-1.424l0.547-2.068h0.554l0.499,2.082
	c0.115,0.486,0.225,0.974,0.286,1.405h0.012c0.085-0.45,0.201-0.907,0.328-1.418l0.542-2.069h0.541l-1.162,4.103h-0.554
	l-0.517-2.136c-0.128-0.523-0.213-0.926-0.268-1.34h-0.012c-0.073,0.408-0.165,0.81-0.317,1.34l-0.584,2.136L12.822,29.621
	L12.822,29.621z"/>
</svg>
