<?xml version="1.0" encoding="utf-8"?>
<!-- Generator: Adobe Illustrator 16.0.0, SVG Export Plug-In . SVG Version: 6.00 Build 0)  -->
<!DOCTYPE svg PUBLIC "-//W3C//DTD SVG 1.1//EN" "http://www.w3.org/Graphics/SVG/1.1/DTD/svg11.dtd">
<svg version="1.1" id="Capa_1" xmlns="http://www.w3.org/2000/svg" xmlns:xlink="http://www.w3.org/1999/xlink" x="0px" y="0px"
	 width="50px" height="50px" viewBox="0 0 50 50" enable-background="new 0 0 50 50" xml:space="preserve">
<g>
	<path fill="#64953B" stroke="#64953B" stroke-miterlimit="10" d="M0.5,20.159c0.039-0.178,0.065-0.358,0.117-0.533
		c0.682-2.3,3.028-2.512,4.424-1.421c0.914,0.714,1.145,1.701,0.896,2.807c-0.041,0.183,0.004,0.253,0.147,0.352
		c0.857,0.593,1.706,1.198,2.555,1.801c0.691,0.491,1.423,0.896,2.248,1.116c0.036,0.009,0.072,0.017,0.118,0.027
		c0.471-1.508,1.503-2.19,3.061-2.052c1.055,0.093,2.075,0.799,2.361,2.312c0.069,0,0.142,0,0.215,0
		c1.193,0.005,2.386,0.011,3.579,0.014c0.319,0,0.638-0.014,0.957-0.013c0.278,0,0.555,0.016,0.833,0.01
		c0.054-0.001,0.144-0.06,0.154-0.104c0.26-1.251,0.259-1.251,0.852-2.322c-0.995-0.903-1.993-1.809-2.982-2.707
		c-1.2,0.74-2.381,0.811-3.543-0.032c-0.368-0.266-0.609-0.646-0.777-1.068c-0.17-0.428-0.238-0.872-0.205-1.33
		c0.033-0.449,0.166-0.872,0.39-1.273c-0.545-0.298-1.112-0.48-1.698-0.592c-0.851-0.163-1.712-0.273-2.555-0.466
		c-0.664-0.153-1.308-0.391-1.956-0.605c-0.117-0.039-0.179-0.04-0.273,0.047c-1.046,0.974-2.78,1.017-3.77,0.1
		c-0.895-0.829-1.176-2.166-0.696-3.308C5.384,9.887,6.47,9.263,7.708,9.331c1.379,0.076,2.461,1.215,2.52,2.647
		c0.018,0.438-0.05,0.861-0.215,1.297c0.265,0.098,0.51,0.217,0.768,0.28c0.713,0.171,1.428,0.339,2.149,0.47
		c0.974,0.177,1.956,0.309,2.888,0.706c-0.097-0.337-0.201-0.651-0.275-0.972c-0.176-0.752-0.149-1.521-0.17-2.287
		c-0.017-0.627-0.065-1.254-0.102-1.88c-0.003-0.055-0.018-0.11-0.024-0.146c-0.327-0.028-0.647-0.019-0.947-0.09
		c-1.126-0.269-1.764-1.027-2.018-2.127c-0.285-1.24,0.275-2.476,1.357-3.034c1.189-0.614,2.646-0.352,3.431,0.618
		c0.86,1.063,0.88,2.614,0.046,3.645c-0.237,0.292-0.532,0.511-0.871,0.677c-0.057,0.028-0.128,0.112-0.125,0.168
		c0.041,0.997,0.097,1.993,0.137,2.99c0.031,0.803,0.133,1.589,0.496,2.32c0.031,0.06,0.063,0.119,0.1,0.189
		c0.692-0.355,1.41-0.421,2.149-0.25c0.516,0.12,0.955,0.383,1.305,0.778c0.782,0.882,0.953,2.269,0.287,3.435
		c1.003,0.911,2.01,1.826,3.024,2.747c0.043-0.033,0.082-0.062,0.12-0.091c1.328-0.992,2.8-1.383,4.419-0.95
		c1.369,0.366,2.298,1.288,2.854,2.569c0.611,1.412,0.655,2.839-0.057,4.238c-0.507,0.997-1.331,1.65-2.364,2.048
		c-1.171,0.452-2.354,0.534-3.545,0.063c-0.466-0.185-0.881-0.452-1.256-0.784c-0.045-0.042-0.093-0.08-0.151-0.131
		c-1.017,0.924-2.03,1.842-3.043,2.762c0.549,1.063,0.607,2.133-0.071,3.132c-0.818,1.204-2.005,1.361-3.362,1.002
		c-0.087,0.28-0.209,0.563-0.261,0.861c-0.131,0.753-0.231,1.513-0.345,2.27c-0.106,0.714-0.21,1.428-0.328,2.141
		c-0.023,0.139-0.004,0.207,0.124,0.28c1.673,0.968,1.852,3.544,0.295,4.656c-0.944,0.674-2.007,0.792-3.042,0.226
		c-1.031-0.563-1.461-1.521-1.392-2.668c0.092-1.524,1.194-2.529,2.729-2.554c0.131-0.002,0.262,0,0.422,0
		c0.083-0.517,0.17-1.028,0.246-1.543c0.144-0.98,0.261-1.966,0.426-2.942c0.069-0.405,0.233-0.793,0.357-1.198
		c-0.019,0.003-0.05,0-0.073,0.011c-1.002,0.521-2.092,0.728-3.195,0.892c-0.97,0.144-1.938,0.294-2.85,0.679
		c-0.093,0.039-0.184,0.081-0.275,0.122c-0.016,0.008-0.029,0.021-0.055,0.042c0.367,0.868,0.395,1.74-0.031,2.599
		c-0.277,0.556-0.715,0.948-1.288,1.186c-1.378,0.569-2.768,0.156-3.5-1.037c-0.715-1.167-0.494-2.766,0.496-3.617
		c0.834-0.717,2.623-1.068,3.803,0.111c0.362-0.142,0.719-0.294,1.084-0.419c0.883-0.307,1.806-0.429,2.724-0.57
		c0.852-0.132,1.696-0.291,2.482-0.667c0.034-0.017,0.066-0.034,0.099-0.052c-0.564-1.431-0.47-2.756,0.853-3.697
		c1.077-0.766,2.238-0.627,3.359,0.088c1.003-0.911,2.02-1.834,3.045-2.765c-0.494-0.714-0.784-1.496-0.892-2.361
		c-1.922,0-3.833,0-5.759,0c-0.138,0.77-0.481,1.416-1.131,1.866c-0.48,0.333-1.022,0.462-1.603,0.466
		c-1.025,0.006-2.207-0.482-2.672-2.045c-0.063,0.015-0.127,0.027-0.19,0.045c-0.968,0.266-1.796,0.795-2.604,1.367
		c-0.738,0.522-1.482,1.033-2.23,1.542c-0.106,0.071-0.093,0.136-0.07,0.232c0.2,0.841,0.104,1.638-0.392,2.359
		c-0.508,0.74-1.253,1.062-2.119,1.125c-1.468,0.104-2.634-0.854-2.87-2.335c-0.01-0.06-0.027-0.12-0.042-0.181
		c0-0.2,0-0.401,0-0.603c0.014-0.048,0.032-0.093,0.04-0.142c0.308-1.858,2.396-2.876,4.061-1.978
		c0.36,0.194,0.646,0.472,0.897,0.801c0.071-0.044,0.137-0.079,0.198-0.121c0.466-0.319,0.926-0.646,1.396-0.96
		c0.74-0.491,1.48-0.987,2.237-1.455c0.281-0.173,0.609-0.271,0.939-0.414c-0.071-0.026-0.123-0.041-0.17-0.064
		c-0.437-0.21-0.898-0.382-1.302-0.643c-0.727-0.468-1.417-0.992-2.126-1.49c-0.384-0.27-0.772-0.531-1.162-0.798
		c-0.048,0.056-0.077,0.087-0.104,0.121c-0.592,0.737-1.361,1.082-2.299,0.993c-1.031-0.097-1.869-0.538-2.33-1.512
		C0.64,21.33,0.59,20.999,0.5,20.687C0.5,20.511,0.5,20.334,0.5,20.159z M30.591,25.156c-0.004-1.163-0.475-2.31-1.254-3.032
		c-1.009-0.934-2.189-1.129-3.487-0.793c-1.702,0.439-2.773,1.736-2.815,3.405c-0.027,1.094,0.298,2.075,1.024,2.895
		c1.007,1.137,2.277,1.415,3.717,1.043C29.517,28.224,30.596,26.873,30.591,25.156z M13.708,23.108
		c-1.118-0.005-1.885,0.754-1.889,1.874c-0.005,1.149,0.743,1.91,1.883,1.917c1.097,0.006,1.863-0.763,1.87-1.875
		C15.579,23.882,14.831,23.113,13.708,23.108z M18.242,34.666c1.125,0.001,1.893-0.771,1.89-1.899
		c-0.003-1.114-0.764-1.89-1.859-1.894c-1.127-0.004-1.896,0.763-1.897,1.892C16.373,33.895,17.13,34.665,18.242,34.666z
		 M20.134,17.235c-0.002-1.126-0.762-1.896-1.874-1.897c-1.115-0.001-1.881,0.767-1.881,1.889c0,1.14,0.76,1.91,1.882,1.905
		C19.378,19.128,20.135,18.36,20.134,17.235z M14.883,8.55c1.173,0.004,1.968-0.747,1.971-1.863c0.003-1.106-0.781-1.938-1.826-1.94
		c-1.132-0.002-1.939,0.762-1.938,1.837C13.089,7.719,13.846,8.547,14.883,8.55z M9.358,12.165c0.002-1.128-0.76-1.958-1.799-1.96
		c-1.167-0.002-1.961,0.746-1.964,1.849C5.592,13.157,6.365,14,7.387,14.007C8.55,14.015,9.356,13.261,9.358,12.165z M1.385,20.414
		c-0.005,1.077,0.803,1.847,1.947,1.855c1.031,0.007,1.819-0.842,1.824-1.967c0.004-1.074-0.805-1.837-1.955-1.846
		C2.19,18.448,1.39,19.31,1.385,20.414z M7.401,39.795c1.159-0.005,1.955-0.766,1.95-1.865c-0.004-1.12-0.789-1.944-1.844-1.938
		c-1.139,0.007-1.928,0.777-1.919,1.874C5.597,38.974,6.372,39.797,7.401,39.795z M13.079,43.302
		c-0.002,1.12,0.763,1.949,1.804,1.954c1.15,0.006,1.943-0.744,1.949-1.841c0.005-1.125-0.757-1.959-1.793-1.961
		C13.871,41.451,13.082,42.195,13.079,43.302z M5.142,29.675c-0.004-1.125-0.772-1.946-1.814-1.942
		c-1.157,0.005-1.94,0.751-1.943,1.848c-0.002,1.125,0.772,1.957,1.824,1.955C4.355,31.531,5.146,30.771,5.142,29.675z"/>
	<path fill="#64953B" stroke="#64953B" stroke-miterlimit="10" d="M49.5,25.925c-0.036,0.457-0.065,0.913-0.107,1.37
		c-0.311,3.354-1.313,6.483-3.05,9.373c-1.49,2.479-3.409,4.573-5.702,6.329c-2.928,2.245-6.204,3.705-9.838,4.358
		c-1.418,0.256-2.851,0.359-4.293,0.352c-0.036,0-0.074-0.008-0.129-0.012c-0.003-0.063-0.01-0.124-0.01-0.186
		c-0.003-4.253-0.008-8.504-0.008-12.758c0-0.446,0.01-0.891,0.034-1.337c0.024-0.401,0.216-0.554,0.614-0.527
		c0.025,0.002,0.051,0.002,0.076,0c1.951-0.089,3.665-0.773,5.086-2.115c1.768-1.667,2.605-3.734,2.509-6.165
		c-0.152-3.8-3.158-7.016-6.937-7.431c-0.448-0.05-0.898-0.059-1.374-0.088c0-0.066,0-0.14,0-0.214c0-4.793,0-9.585,0-14.379
		c0-0.067,0.015-0.135,0.022-0.203c0.364,0,0.729,0,1.093,0c0.067,0.009,0.136,0.023,0.204,0.026
		c2.043,0.074,4.047,0.393,6.004,0.99c3.59,1.094,6.691,2.989,9.3,5.682c2.343,2.418,4.039,5.238,5.156,8.412
		c0.064,0.184,0.178,0.351,0.263,0.529c0.021,0.041,0.02,0.093,0.022,0.14c0.008,0.085-0.002,0.175,0.021,0.255
		c0.469,1.582,0.8,3.189,0.938,4.835c0.037,0.444,0.068,0.888,0.104,1.332C49.5,24.972,49.5,25.448,49.5,25.925z M27.262,3.19
		c0,4.367,0,8.705,0,13.059c1.569,0.086,3.01,0.551,4.339,1.41c2.588-3.562,5.167-7.113,7.751-10.67
		c-2.025-1.459-4.247-2.455-6.623-3.083C30.948,3.437,29.125,3.197,27.262,3.19z M32.322,18.167
		c0.029,0.033,0.047,0.059,0.069,0.078c1.134,0.955,1.998,2.105,2.536,3.492c0.048,0.125,0.119,0.16,0.247,0.111
		c0.239-0.092,0.48-0.18,0.724-0.26c3.639-1.183,7.277-2.365,10.916-3.548c0.184-0.06,0.366-0.124,0.567-0.193
		c-1.474-4.145-3.853-7.615-7.316-10.343C37.473,11.075,34.898,14.619,32.322,18.167z M32.313,31.826
		c2.564,3.531,5.116,7.043,7.676,10.569c3.499-2.685,6.007-6.057,7.47-10.219c-4.166-1.353-8.307-2.699-12.459-4.049
		C34.418,29.603,33.528,30.823,32.313,31.826z M39.271,42.911c-2.561-3.528-5.113-7.043-7.671-10.568
		c-1.333,0.862-2.774,1.325-4.337,1.416c0,4.363,0,8.706,0,13.061c2.451-0.048,4.809-0.489,7.09-1.332
		C36.099,44.844,37.733,43.987,39.271,42.911z M47.731,31.338c1.228-4.234,1.156-8.433-0.079-12.643
		c-4.144,1.347-8.257,2.684-12.378,4.024c0.397,1.537,0.389,3.051,0.001,4.571C39.43,28.64,43.563,29.983,47.731,31.338z"/>
</g>
</svg>
