<?xml version="1.0" encoding="utf-8"?>
<!-- Generator: Adobe Illustrator 16.0.0, SVG Export Plug-In . SVG Version: 6.00 Build 0)  -->
<!DOCTYPE svg PUBLIC "-//W3C//DTD SVG 1.1//EN" "http://www.w3.org/Graphics/SVG/1.1/DTD/svg11.dtd">
<svg version="1.1" id="Layer_1" xmlns="http://www.w3.org/2000/svg" xmlns:xlink="http://www.w3.org/1999/xlink" x="0px" y="0px"
	 width="150px" height="150px" viewBox="0 0 150 150" enable-background="new 0 0 150 150" xml:space="preserve">
<g>
	<path fill="#64953B" stroke="#64953B" stroke-miterlimit="10" d="M1,60.378c0.116-0.536,0.197-1.082,0.353-1.607
		c2.061-6.948,9.147-7.587,13.362-4.295c2.762,2.157,3.457,5.139,2.709,8.478c-0.124,0.553,0.014,0.764,0.446,1.063
		c2.588,1.79,5.15,3.62,7.716,5.442c2.086,1.481,4.298,2.704,6.789,3.369c0.107,0.029,0.217,0.049,0.357,0.08
		c1.421-4.553,4.541-6.614,9.244-6.198c3.187,0.282,6.267,2.413,7.132,6.982c0.207,0,0.429-0.001,0.65,0
		c3.604,0.015,7.207,0.033,10.811,0.041c0.964,0.002,1.927-0.04,2.89-0.039c0.838,0,1.676,0.048,2.514,0.032
		c0.162-0.003,0.435-0.181,0.463-0.318c0.788-3.779,0.784-3.78,2.575-7.013c-3.005-2.728-6.019-5.465-9.006-8.177
		c-3.624,2.235-7.193,2.448-10.702-0.096c-1.11-0.805-1.839-1.953-2.348-3.229c-0.515-1.291-0.719-2.632-0.618-4.014
		c0.099-1.357,0.501-2.634,1.177-3.845c-1.648-0.901-3.358-1.45-5.129-1.789c-2.569-0.491-5.172-0.825-7.719-1.41
		c-2.004-0.46-3.95-1.18-5.907-1.827c-0.354-0.117-0.542-0.122-0.827,0.143c-3.156,2.941-8.396,3.07-11.386,0.3
		c-2.703-2.504-3.552-6.54-2.102-9.989c1.308-3.108,4.587-4.994,8.327-4.789c4.166,0.228,7.433,3.668,7.61,7.995
		c0.054,1.324-0.15,2.601-0.649,3.919c0.801,0.297,1.54,0.656,2.32,0.844c2.154,0.517,4.313,1.026,6.492,1.421
		c2.941,0.534,5.907,0.933,8.722,2.133c-0.292-1.02-0.606-1.966-0.831-2.934c-0.53-2.274-0.45-4.596-0.512-6.909
		c-0.051-1.895-0.198-3.787-0.307-5.679c-0.01-0.167-0.053-0.333-0.072-0.442c-0.987-0.086-1.954-0.055-2.861-0.272
		c-3.402-0.812-5.328-3.103-6.092-6.425c-0.862-3.745,0.831-7.477,4.099-9.164c3.591-1.855,7.992-1.062,10.362,1.868
		c2.597,3.209,2.659,7.895,0.138,11.007c-0.715,0.883-1.607,1.543-2.628,2.045c-0.174,0.085-0.387,0.34-0.38,0.508
		c0.121,3.011,0.292,6.02,0.412,9.03c0.096,2.427,0.403,4.8,1.5,7.008c0.091,0.183,0.19,0.361,0.301,0.571
		c2.091-1.074,4.259-1.271,6.494-0.754c1.557,0.36,2.883,1.155,3.94,2.348c2.36,2.663,2.878,6.853,0.866,10.375
		c3.029,2.751,6.07,5.514,9.134,8.296c0.132-0.1,0.247-0.188,0.363-0.275c4.011-2.995,8.458-4.179,13.347-2.87
		c4.134,1.106,6.939,3.891,8.618,7.76c1.848,4.264,1.981,8.577-0.169,12.801c-1.533,3.015-4.023,4.987-7.143,6.188
		c-3.539,1.363-7.113,1.611-10.707,0.19c-1.407-0.556-2.662-1.364-3.792-2.368c-0.139-0.125-0.281-0.244-0.456-0.396
		c-3.073,2.79-6.131,5.564-9.192,8.344c1.659,3.211,1.835,6.439-0.215,9.458c-2.472,3.638-6.056,4.114-10.155,3.026
		c-0.263,0.847-0.631,1.705-0.788,2.602c-0.397,2.275-0.697,4.569-1.04,6.855c-0.323,2.156-0.635,4.313-0.991,6.464
		c-0.069,0.42-0.014,0.626,0.373,0.849c5.054,2.922,5.595,10.703,0.892,14.063c-2.852,2.035-6.063,2.392-9.191,0.682
		c-3.114-1.7-4.414-4.592-4.203-8.059c0.28-4.604,3.608-7.639,8.241-7.715c0.396-0.006,0.792,0,1.277,0
		c0.249-1.558,0.515-3.104,0.742-4.656c0.433-2.963,0.789-5.938,1.289-8.891c0.207-1.221,0.704-2.392,1.078-3.617
		c-0.059,0.008-0.151-0.002-0.22,0.033c-3.028,1.575-6.32,2.196-9.65,2.69c-2.928,0.435-5.852,0.89-8.607,2.05
		c-0.28,0.118-0.555,0.244-0.831,0.37c-0.049,0.022-0.087,0.065-0.167,0.129c1.11,2.621,1.195,5.254-0.094,7.847
		c-0.835,1.68-2.161,2.866-3.889,3.582c-4.161,1.719-8.36,0.469-10.569-3.134c-2.162-3.524-1.493-8.354,1.498-10.924
		c2.52-2.166,7.921-3.229,11.488,0.336c1.093-0.427,2.171-0.888,3.275-1.269c2.667-0.924,5.454-1.293,8.227-1.721
		c2.572-0.396,5.123-0.879,7.498-2.013c0.102-0.048,0.2-0.104,0.299-0.156c-1.704-4.323-1.42-8.325,2.574-11.166
		c3.252-2.313,6.762-1.894,10.148,0.265c3.031-2.754,6.1-5.541,9.196-8.354c-1.493-2.155-2.367-4.517-2.693-7.131
		c-5.806,0-11.576,0-17.396,0c-0.417,2.328-1.452,4.276-3.414,5.637c-1.45,1.007-3.089,1.396-4.84,1.407
		c-3.097,0.02-6.665-1.457-8.072-6.177c-0.189,0.044-0.384,0.083-0.575,0.137c-2.923,0.801-5.424,2.399-7.865,4.128
		c-2.228,1.577-4.478,3.124-6.735,4.657c-0.32,0.218-0.282,0.411-0.212,0.704c0.601,2.539,0.316,4.945-1.184,7.127
		c-1.536,2.232-3.787,3.206-6.402,3.395c-4.431,0.316-7.956-2.576-8.668-7.05C1.098,90.114,1.043,89.934,1,89.751
		c0-0.606,0-1.214,0-1.821c0.041-0.143,0.096-0.281,0.121-0.427c0.93-5.614,7.238-8.687,12.265-5.974
		c1.089,0.588,1.953,1.423,2.71,2.419c0.215-0.132,0.414-0.239,0.599-0.366c1.406-0.965,2.797-1.954,4.217-2.898
		c2.238-1.486,4.472-2.984,6.758-4.397c0.849-0.524,1.84-0.818,2.838-1.249c-0.215-0.079-0.371-0.123-0.515-0.192
		c-1.318-0.635-2.712-1.153-3.933-1.94c-2.195-1.416-4.282-2.999-6.422-4.501c-1.158-0.813-2.331-1.604-3.508-2.411
		c-0.144,0.167-0.232,0.264-0.313,0.365c-1.787,2.224-4.111,3.265-6.944,2.998c-3.116-0.293-5.646-1.623-7.038-4.567
		C1.421,63.913,1.271,62.914,1,61.973C1,61.441,1,60.91,1,60.378z M91.885,75.471c-0.011-3.512-1.432-6.975-3.787-9.156
		c-3.047-2.82-6.613-3.41-10.533-2.397c-5.138,1.327-8.377,5.245-8.503,10.285c-0.082,3.306,0.901,6.27,3.094,8.744
		c3.042,3.434,6.878,4.273,11.226,3.15C88.645,84.739,91.902,80.659,91.885,75.471z M40.895,69.285
		c-3.377-0.016-5.693,2.28-5.706,5.658c-0.014,3.474,2.244,5.772,5.687,5.792c3.313,0.017,5.627-2.303,5.648-5.66
		C46.545,71.624,44.286,69.302,40.895,69.285z M54.588,104.198c3.399,0.002,5.718-2.328,5.708-5.737
		c-0.01-3.368-2.308-5.71-5.616-5.722c-3.404-0.013-5.726,2.303-5.73,5.716C48.944,101.866,51.231,104.195,54.588,104.198z
		 M60.301,51.548c-0.005-3.401-2.302-5.728-5.657-5.73c-3.369-0.003-5.682,2.318-5.682,5.705c0,3.442,2.297,5.768,5.686,5.754
		C58.02,57.264,60.306,54.947,60.301,51.548z M44.443,25.315c3.544,0.011,5.943-2.258,5.951-5.628
		c0.008-3.339-2.359-5.854-5.513-5.86c-3.422-0.006-5.858,2.302-5.856,5.55C39.026,22.804,41.31,25.306,44.443,25.315z
		 M27.756,36.232c0.006-3.405-2.296-5.913-5.435-5.92c-3.522-0.008-5.922,2.251-5.932,5.583c-0.01,3.335,2.326,5.881,5.413,5.901
		C25.316,41.82,27.749,39.545,27.756,36.232z M3.672,61.149c-0.016,3.253,2.425,5.578,5.883,5.602
		c3.115,0.022,5.494-2.544,5.508-5.94c0.012-3.244-2.428-5.549-5.903-5.575C6.104,55.212,3.688,57.815,3.672,61.149z
		 M21.846,119.688c3.498-0.013,5.903-2.313,5.89-5.633c-0.014-3.384-2.383-5.873-5.571-5.854c-3.439,0.021-5.823,2.349-5.796,5.662
		C16.394,117.207,18.736,119.695,21.846,119.688z M38.994,130.281c-0.007,3.383,2.305,5.889,5.449,5.902
		c3.472,0.019,5.869-2.248,5.884-5.561c0.015-3.398-2.285-5.916-5.416-5.924C41.386,124.691,39.001,126.939,38.994,130.281z
		 M15.019,89.121c-0.013-3.396-2.333-5.88-5.478-5.865c-3.494,0.016-5.862,2.268-5.869,5.579c-0.008,3.399,2.334,5.911,5.511,5.904
		C12.645,94.73,15.032,92.434,15.019,89.121z"/>
	<path fill="#64953B" stroke="#64953B" stroke-miterlimit="10" d="M149,77.797c-0.107,1.378-0.197,2.758-0.324,4.135
		c-0.938,10.131-3.963,19.584-9.212,28.311c-4.503,7.486-10.298,13.813-17.223,19.119c-8.845,6.779-18.739,11.189-29.714,13.164
		c-4.285,0.771-8.612,1.084-12.967,1.059c-0.111-0.001-0.224-0.02-0.389-0.034c-0.012-0.192-0.031-0.376-0.031-0.56
		c-0.01-12.846-0.021-25.688-0.021-38.534c-0.001-1.347,0.028-2.692,0.104-4.038c0.07-1.212,0.649-1.673,1.854-1.593
		c0.074,0.005,0.152,0.004,0.229,0c5.896-0.267,11.07-2.337,15.363-6.39c5.338-5.035,7.87-11.281,7.576-18.622
		c-0.458-11.476-9.537-21.189-20.949-22.445c-1.354-0.149-2.718-0.175-4.154-0.264c0-0.202,0-0.424,0-0.647
		c0-14.476,0-28.953,0.002-43.429c0-0.205,0.045-0.409,0.068-0.614c1.1,0,2.2,0,3.301,0c0.205,0.027,0.409,0.072,0.616,0.08
		c6.172,0.224,12.222,1.188,18.134,2.99c10.842,3.303,20.209,9.028,28.09,17.161c7.076,7.304,12.201,15.821,15.573,25.408
		c0.196,0.556,0.537,1.06,0.794,1.597c0.061,0.124,0.057,0.28,0.068,0.422c0.025,0.257-0.006,0.529,0.066,0.771
		c1.414,4.778,2.416,9.634,2.834,14.605c0.111,1.34,0.207,2.681,0.311,4.022C149,74.913,149,76.354,149,77.797z M81.833,9.127
		c0,13.189,0,26.292,0,39.444c4.737,0.258,9.089,1.665,13.103,4.257c7.816-10.759,15.607-21.484,23.412-32.227
		c-6.119-4.409-12.826-7.417-20.005-9.313C92.968,9.87,87.461,9.145,81.833,9.127z M97.115,54.362c0.09,0.1,0.144,0.176,0.213,0.235
		c3.424,2.883,6.033,6.358,7.658,10.546c0.147,0.378,0.359,0.484,0.746,0.336c0.723-0.278,1.449-0.544,2.186-0.784
		c10.989-3.575,21.98-7.145,32.971-10.717c0.555-0.18,1.103-0.374,1.713-0.583c-4.449-12.518-11.636-23-22.099-31.24
		C112.671,32.942,104.896,43.646,97.115,54.362z M97.088,95.618c7.749,10.667,15.455,21.274,23.188,31.924
		c10.567-8.106,18.14-18.292,22.56-30.862c-12.582-4.089-25.092-8.154-37.63-12.229C103.445,88.904,100.759,92.588,97.088,95.618z
		 M118.107,129.102c-7.736-10.66-15.444-21.275-23.172-31.92c-4.026,2.604-8.379,4.002-13.097,4.274c0,13.181,0,26.297,0,39.448
		c7.402-0.143,14.522-1.478,21.414-4.021C108.523,134.938,113.461,132.352,118.107,129.102z M143.658,94.145
		c3.707-12.791,3.492-25.472-0.238-38.188c-12.518,4.068-24.939,8.106-37.388,12.152c1.198,4.644,1.175,9.218,0.004,13.809
		C118.583,85.995,131.066,90.053,143.658,94.145z"/>
</g>
</svg>
