<?xml version="1.0" encoding="utf-8"?>
<!-- Generator: Adobe Illustrator 16.0.0, SVG Export Plug-In . SVG Version: 6.00 Build 0)  -->
<!DOCTYPE svg PUBLIC "-//W3C//DTD SVG 1.1//EN" "http://www.w3.org/Graphics/SVG/1.1/DTD/svg11.dtd">
<svg version="1.1" id="Layer_1" xmlns="http://www.w3.org/2000/svg" xmlns:xlink="http://www.w3.org/1999/xlink" x="0px" y="0px"
	 width="50px" height="50px" viewBox="0 0 50 50" enable-background="new 0 0 50 50" xml:space="preserve">
<g>
	<path fill="#649540" d="M35.417,18.333H14.584c-0.46,0-0.834,0.373-0.834,0.833c0,0.461,0.374,0.833,0.834,0.833h20.833
		c0.459,0,0.833-0.373,0.833-0.833C36.25,18.706,35.876,18.333,35.417,18.333z"/>
	<path fill="#649540" d="M14.584,13.333h8.333c0.46,0,0.833-0.373,0.833-0.833s-0.373-0.833-0.833-0.833h-8.333
		c-0.46,0-0.834,0.373-0.834,0.833S14.124,13.333,14.584,13.333z"/>
	<path fill="#649540" d="M35.417,25H14.584c-0.46,0-0.834,0.373-0.834,0.833c0,0.46,0.374,0.833,0.834,0.833h20.833
		c0.459,0,0.833-0.373,0.833-0.833C36.25,25.373,35.876,25,35.417,25z"/>
	<path fill="#649540" d="M35.417,31.667H14.584c-0.46,0-0.834,0.372-0.834,0.833s0.374,0.833,0.834,0.833h20.833
		c0.459,0,0.833-0.372,0.833-0.833S35.876,31.667,35.417,31.667z"/>
	<path fill="#649540" d="M35.417,38.333H14.584c-0.46,0-0.834,0.373-0.834,0.834c0,0.46,0.374,0.833,0.834,0.833h20.833
		c0.459,0,0.833-0.373,0.833-0.833C36.25,38.706,35.876,38.333,35.417,38.333z"/>
	<path fill="#649540" d="M32.429,0H5.417v50h39.166V12.155L32.429,0z M32.917,2.845l8.821,8.821h-8.821V2.845z M7.084,48.333V1.667
		H31.25v11.667h11.667v35H7.084z"/>
</g>
</svg>
