<?xml version="1.0" encoding="utf-8"?>
<!-- Generator: Adobe Illustrator 16.0.0, SVG Export Plug-In . SVG Version: 6.00 Build 0)  -->
<!DOCTYPE svg PUBLIC "-//W3C//DTD SVG 1.1//EN" "http://www.w3.org/Graphics/SVG/1.1/DTD/svg11.dtd">
<svg version="1.1" id="Capa_1" xmlns="http://www.w3.org/2000/svg" xmlns:xlink="http://www.w3.org/1999/xlink" x="0px" y="0px"
	 width="50px" height="50px" viewBox="0 0 50 50" enable-background="new 0 0 50 50" xml:space="preserve">
<g>
	<path fill="#64953B" d="M22.104,8.75l-3.848-5.376l-0.327-0.458H0v44.167h50V8.75H22.104z M48.334,10.417v4.167H26.279
		l-2.982-4.167H48.334z M1.667,45.416V4.583h15.404l4.167,5.833h0.01l3.908,5.459c0.163,0.227,0.417,0.347,0.678,0.348v0.026h22.5
		v29.166H1.667z"/>
	<path fill="#64953B" d="M15.833,25.417H27.5c0.46,0,0.834-0.373,0.834-0.833c0-0.461-0.374-0.833-0.834-0.833H15.833
		c-0.46,0-0.833,0.373-0.833,0.833C15,25.044,15.374,25.417,15.833,25.417z"/>
	<path fill="#64953B" d="M34.166,28.75H15.833c-0.46,0-0.833,0.373-0.833,0.834c0,0.46,0.374,0.832,0.833,0.832h18.333
		c0.461,0,0.834-0.372,0.834-0.832C35,29.123,34.627,28.75,34.166,28.75z"/>
	<path fill="#64953B" d="M34.166,33.75H15.833c-0.46,0-0.833,0.373-0.833,0.834c0,0.46,0.374,0.832,0.833,0.832h18.333
		c0.461,0,0.834-0.372,0.834-0.832C35,34.123,34.627,33.75,34.166,33.75z"/>
</g>
</svg>
