<?xml version="1.0" encoding="utf-8"?>
<!-- Generator: Adobe Illustrator 16.0.0, SVG Export Plug-In . SVG Version: 6.00 Build 0)  -->
<!DOCTYPE svg PUBLIC "-//W3C//DTD SVG 1.1//EN" "http://www.w3.org/Graphics/SVG/1.1/DTD/svg11.dtd">
<svg version="1.1" id="Layer_1" xmlns="http://www.w3.org/2000/svg" xmlns:xlink="http://www.w3.org/1999/xlink" x="0px" y="0px"
	 width="150px" height="150px" viewBox="0 0 150 150" enable-background="new 0 0 150 150" xml:space="preserve">
<g>
	<path fill="#3272A0" d="M34.891,76.445c0-13.339,0-25.89,0-38.912c-1.088,0-2.182,0-3.276,0
		c-9.057,0.003-18.114,0.016-27.171,0.004c-3.933-0.005-4.386-0.442-4.4-4.251C0.023,27.664,0.126,22.04,0.01,16.421
		c-0.057-2.807,1.025-3.935,3.857-3.909c9.264,0.085,18.53,0.025,27.796,0.021c1.015,0,2.03,0,3.366,0
		c0-2.943-0.013-5.62,0.003-8.298c0.022-3.67,0.499-4.177,4.143-4.18C58.018,0.043,76.861,0.051,95.704,0.05
		c8.224,0,16.45,0.074,24.672-0.049c2.285-0.035,3.894,0.696,5.47,2.302c7.297,7.426,14.758,14.689,21.994,22.171
		c1.151,1.191,2.059,3.202,2.063,4.836c0.113,38.831,0.091,77.665,0.082,116.495c0,3.67-0.514,4.188-4.137,4.189
		c-47.16,0.007-94.321,0.007-141.48,0c-3.851,0-4.323-0.475-4.324-4.318C0.036,113.508,0.019,81.339,0.11,49.171
		c0.004-1.328,1.063-2.652,1.631-3.978c1.235,0.579,2.749,0.877,3.663,1.781C15.102,56.555,24.703,66.233,34.891,76.445z
		 M40.023,37.533c0,14.468-0.034,28.417,0.067,42.365c0.008,1.063,0.74,2.352,1.528,3.144
		c20.054,20.138,40.144,40.241,60.309,60.269c0.96,0.95,2.663,1.609,4.028,1.623c12.074,0.125,24.152,0.077,36.229,0.064
		c0.894-0.001,1.785-0.116,2.56-0.17c0-38.422,0-76.56,0-114.794c-7.235,0-14.21-0.042-21.183,0.022
		c-2.506,0.022-3.607-1.017-3.576-3.542c0.065-5.413,0.02-10.827,0.02-16.24c0-1.715,0-3.43,0-5.048c-26.917,0-53.321,0-79.763,0
		c0,2.509,0,4.83,0,7.314c8.326,0,16.483,0.563,24.531-0.13c12.523-1.077,23.865,1.234,33.914,8.981
		c0.326,0.251,0.722,0.414,1.08,0.624c3.672,2.144,3.738,3.911,0.131,5.969c-5.598,3.193-10.92,7.44-16.949,9.132
		c-5.604,1.573-11.979,0.397-18.017,0.414c-5.309,0.014-10.618,0.003-15.928,0.003C46.114,37.533,43.226,37.533,40.023,37.533z
		 M95.216,144.882c-4.343-4.344-8.772-8.774-13.78-13.786c-1.314,1.672-2.852,3.627-3.926,4.993
		c-1.566-1.079-2.809-1.933-4.768-3.28c2.386-1.824,4.359-3.336,6.34-4.849c-2.486-2.491-4.514-4.521-6.672-6.681
		c-1.85,1.748-3.706,3.504-5.754,5.439c-1.176-1.179-2.182-2.187-3.362-3.369c1.938-2.039,3.695-3.891,5.323-5.604
		c-2.183-2.178-4.21-4.201-6.351-6.338c-1.738,1.648-3.594,3.406-5.428,5.146c-1.279-1.131-2.348-2.072-4.064-3.589
		c2.349-1.852,4.367-3.442,6.237-4.918c-2.575-2.509-4.631-4.51-7.464-7.271c-1.361,1.979-2.831,4.113-4.172,6.062
		c-1.783-1.483-2.878-2.396-4.697-3.909c2.414-1.89,4.438-3.473,6.209-4.856c-2.525-2.491-4.565-4.503-7.402-7.3
		c-1.355,1.969-2.822,4.1-4.051,5.884c-1.79-1.394-2.915-2.271-4.857-3.783c2.493-1.901,4.538-3.462,6.158-4.699
		c-2.383-2.62-4.315-4.747-6.3-6.931c-1.968,1.881-3.802,3.635-5.196,4.966c-1.455-1.157-2.565-2.042-3.767-2.997
		c1.894-2.01,3.639-3.863,4.905-5.206c-2.101-2.436-3.978-4.613-6.324-7.333c-1.841,2.14-3.46,4.02-4.698,5.459
		c-1.412-1.053-2.613-1.948-3.904-2.91c1.933-2.039,3.679-3.88,4.891-5.159c-4.575-4.701-8.878-9.124-13.124-13.486
		c0,29.947,0,60.063,0,90.304C35.464,144.882,65.52,144.882,95.216,144.882z M22.729,17.704c0,4.999,0,9.818,0,14.621
		c19.176,0,38.146,0,57.128,0c0-4.966,0-9.709,0-14.621C60.804,17.704,41.91,17.704,22.729,17.704z M17.318,32.399
		c0-5.063,0-9.88,0-14.615c-4.209,0-8.195,0-12.125,0c0,4.993,0,9.735,0,14.615C9.268,32.399,13.178,32.399,17.318,32.399z
		 M140.029,24.916c-4.92-4.932-10.028-10.053-14.84-14.875c0,4.514,0,9.632,0,14.875C130.438,24.916,135.488,24.916,140.029,24.916z
		 M85.157,30.621c3.349-1.906,6.364-3.624,9.834-5.599c-3.664-2.052-6.65-3.726-9.834-5.509
		C85.157,23.389,85.157,26.755,85.157,30.621z"/>
	<path fill="#3272A0" d="M91.598,105.234c-1.398,1.34-2.854,2.623-4.18,4.029c-1.682,1.778-3.246,1.983-5.039,0.141
		c-3.049-3.137-6.146-6.225-9.277-9.277c-1.842-1.795-1.619-3.363,0.165-5.039c1.405-1.316,2.681-2.771,4.014-4.167
		c-0.086-0.302-0.172-0.604-0.258-0.903c-1.989,0-3.979-0.059-5.966,0.015c-2.516,0.09-3.6-1.046-3.557-3.56
		c0.074-4.373,0.053-8.748,0.009-13.122c-0.023-2.39,1.123-3.407,3.452-3.344c1.958,0.053,3.92,0.011,5.879,0.011
		c0.188-0.252,0.375-0.503,0.563-0.755c-1.192-1.269-2.364-2.559-3.583-3.803c-2.786-2.843-2.795-3.463,0.07-6.342
		c2.792-2.805,5.628-5.564,8.382-8.405c1.724-1.778,3.297-1.885,5.047-0.042c1.38,1.455,2.893,2.784,4.346,4.17
		c0.284-0.117,0.566-0.233,0.852-0.349c0-2.123,0.008-4.245-0.002-6.367c-0.008-2.049,0.99-3.087,3.051-3.085
		c4.686,0.001,9.371-0.012,14.057,0.012c1.91,0.01,2.855,1.054,2.871,2.938c0.017,2.144,0.004,4.289,0.004,6.433
		c0.273,0.156,0.549,0.312,0.822,0.468c1.359-1.3,2.804-2.524,4.06-3.917c1.849-2.048,3.522-2.208,5.5-0.129
		c2.94,3.093,5.996,6.079,9.042,9.07c1.662,1.632,1.752,3.148,0.027,4.806c-1.467,1.408-2.824,2.928-4.23,4.398
		c0.084,0.299,0.169,0.598,0.253,0.897c1.988,0,3.979,0.053,5.964-0.013c2.496-0.083,3.623,1.02,3.58,3.547
		c-0.07,4.373-0.053,8.748-0.007,13.121c0.024,2.381-1.092,3.423-3.435,3.358c-1.961-0.055-3.926-0.012-5.889-0.012
		c-0.197,0.267-0.396,0.533-0.592,0.799c1.276,1.33,2.473,2.752,3.852,3.963c2.188,1.924,2.334,3.658,0.132,5.726
		c-3.035,2.851-5.95,5.829-8.851,8.819c-1.731,1.785-3.3,1.871-5.035,0.021c-1.375-1.464-2.877-2.809-4.32-4.205
		c-0.285,0.139-0.57,0.277-0.855,0.416c0,2.021-0.037,4.043,0.01,6.063c0.056,2.354-1.033,3.43-3.396,3.403
		c-4.478-0.047-8.956-0.026-13.435-0.008c-2.225,0.01-3.226-1.099-3.196-3.279c0.026-2.043,0.006-4.088,0.006-6.135
		C92.199,105.479,91.898,105.357,91.598,105.234z M126.936,97.629c-1.721-2.891-5.922-4.061-3.879-9.145
		c2.109-5.256,6.33-2.487,9.283-3.783c0-3.243,0-6.326,0-9.414c-3.234-1.006-7.104,1.336-9.266-3.697
		c-2.24-5.211,2.461-6.332,3.551-8.615c-2.414-2.563-4.584-4.867-6.734-7.148c-2.609,0.926-3.146,5.248-7.486,4.14
		c-5.631-1.437-5.109-5.548-4.877-9.756c-3.473,0-6.631,0-9.777,0c-0.948,3.287,1.329,7.124-3.729,9.275
		c-5.209,2.216-6.283-2.589-9.119-3.828c-2.377,2.28-4.612,4.425-6.842,6.564c1.369,3.059,6.015,4.013,3.961,9.166
		c-2.086,5.24-6.106,2.924-9.303,3.862c0,3.285,0,6.441,0,9.578c7.723,0.669,7.434,0.861,8.633,2.652
		c3.27,4.879-0.664,7.266-3.215,9.875c2.325,2.479,4.49,4.791,6.688,7.139c2.929-1.635,4.043-5.979,9.136-3.951
		c5.239,2.086,2.723,6.213,3.79,9.232c3.338,0,6.498,0,9.449,0c1.18-2.879-1.274-6.19,2.254-8.441
		c4.969-3.171,7.771,0.02,10.474,3.218C122.367,102.143,124.572,99.962,126.936,97.629z"/>
	<path fill="#3272A0" d="M119.752,139.954c-1.598,0-2.938,0-4.514,0c0-1.535,0-3.026,0-4.74c1.412,0,2.898,0,4.514,0
		C119.752,136.801,119.752,138.357,119.752,139.954z"/>
	<path fill="#3272A0" d="M129.789,139.859c-1.658,0-3.073,0-4.637,0c0-1.553,0-2.967,0-4.616c1.447,0,2.937,0,4.637,0
		C129.789,136.664,129.789,138.15,129.789,139.859z"/>
	<path fill="#3272A0" d="M139.887,135.25c0,1.553,0,2.967,0,4.566c-1.588,0-3.078,0-4.729,0c0-1.496,0-2.91,0-4.566
		C136.582,135.25,138.066,135.25,139.887,135.25z"/>
	<path fill="#3272A0" d="M38.523,130.004c-4.987-0.003-9.975-0.055-14.961,0.02c-2.518,0.037-3.558-1.051-3.546-3.555
		c0.048-9.869-0.04-19.74,0.083-29.607c0.014-1.122,0.779-2.674,1.678-3.196c0.65-0.377,2.4,0.317,3.146,1.056
		c10.206,10.068,20.345,20.207,30.415,30.414c0.734,0.744,1.42,2.504,1.039,3.148c-0.527,0.893-2.071,1.607-3.208,1.648
		C48.293,130.105,43.406,130.006,38.523,130.004z M25.259,102.775c0,7.266,0,14.664,0,22.054c7.554,0,14.867,0,22.005,0
		C39.942,117.492,32.628,110.162,25.259,102.775z"/>
	<path fill="#3272A0" d="M102.469,65.029c8.297-0.026,15.039,6.76,15.022,15.118c-0.017,8.15-6.751,14.849-14.947,14.865
		c-8.201,0.018-14.987-6.66-15.03-14.791C87.467,71.86,94.167,65.054,102.469,65.029z M102.589,90.018
		c5.445-0.043,9.91-4.545,9.911-9.994c0.001-5.418-4.506-9.958-9.922-9.995c-5.553-0.037-10.151,4.604-10.064,10.159
		C92.596,85.624,97.143,90.059,102.589,90.018z"/>
</g>
</svg>
