<?xml version="1.0" encoding="utf-8"?>
<!-- Generator: Adobe Illustrator 16.0.0, SVG Export Plug-In . SVG Version: 6.00 Build 0)  -->
<!DOCTYPE svg PUBLIC "-//W3C//DTD SVG 1.1//EN" "http://www.w3.org/Graphics/SVG/1.1/DTD/svg11.dtd">
<svg version="1.1" id="Capa_1" xmlns="http://www.w3.org/2000/svg" xmlns:xlink="http://www.w3.org/1999/xlink" x="0px" y="0px"
	 width="50px" height="50px" viewBox="0 0 50 50" enable-background="new 0 0 50 50" xml:space="preserve">
<g>
	<path fill="#3272A0" d="M11.63,25.482c0-4.446,0-8.63,0-12.971c-0.362,0-0.727,0-1.092,0C7.52,12.512,4.5,12.517,1.481,12.513
		c-1.311-0.001-1.462-0.147-1.467-1.417C0.008,9.221,0.042,7.347,0.003,5.474c-0.019-0.936,0.342-1.312,1.286-1.303
		c3.088,0.028,6.177,0.008,9.266,0.007c0.338,0,0.676,0,1.122,0c0-0.98-0.004-1.873,0.001-2.766c0.007-1.224,0.167-1.393,1.38-1.394
		c6.281-0.004,12.563-0.001,18.844-0.002c2.74,0,5.482,0.025,8.223-0.016c0.762-0.012,1.298,0.232,1.823,0.768
		c2.433,2.475,4.92,4.896,7.331,7.39c0.384,0.397,0.687,1.067,0.688,1.612c0.038,12.944,0.031,25.889,0.027,38.833
		c0,1.223-0.171,1.396-1.378,1.396c-15.721,0.003-31.44,0.003-47.16,0c-1.284,0-1.441-0.158-1.441-1.438
		C0.012,37.837,0.006,27.113,0.037,16.391c0.001-0.443,0.354-0.884,0.544-1.326c0.412,0.193,0.917,0.292,1.221,0.594
		C5.034,18.852,8.234,22.078,11.63,25.482z M13.341,12.511c0,4.823-0.011,9.473,0.022,14.123c0.003,0.354,0.247,0.783,0.509,1.047
		c6.685,6.713,13.382,13.414,20.103,20.091c0.32,0.316,0.888,0.536,1.343,0.541c4.025,0.041,8.051,0.025,12.076,0.021
		c0.299-0.001,0.596-0.039,0.854-0.057c0-12.808,0-25.521,0-38.266c-2.411,0-4.736-0.014-7.062,0.007
		c-0.835,0.007-1.202-0.339-1.192-1.181c0.022-1.804,0.007-3.609,0.007-5.413c0-0.571,0-1.143,0-1.683c-8.972,0-17.772,0-26.587,0
		c0,0.836,0,1.61,0,2.438c2.775,0,5.494,0.188,8.177-0.043c4.174-0.359,7.956,0.411,11.304,2.994
		c0.109,0.083,0.241,0.138,0.36,0.208c1.224,0.714,1.246,1.303,0.044,1.989c-1.866,1.064-3.64,2.48-5.65,3.044
		c-1.867,0.524-3.993,0.132-6.005,0.138c-1.77,0.005-3.54,0.001-5.31,0.001C15.372,12.511,14.409,12.511,13.341,12.511z
		 M31.739,48.295c-1.448-1.448-2.925-2.925-4.594-4.596c-0.438,0.558-0.95,1.209-1.309,1.664c-0.522-0.359-0.937-0.644-1.589-1.093
		c0.795-0.608,1.454-1.112,2.114-1.617c-0.829-0.83-1.505-1.507-2.225-2.227c-0.617,0.583-1.235,1.168-1.917,1.813
		c-0.392-0.393-0.728-0.729-1.121-1.122c0.646-0.68,1.232-1.298,1.774-1.868c-0.727-0.726-1.403-1.4-2.117-2.112
		c-0.579,0.549-1.198,1.135-1.81,1.715c-0.426-0.377-0.783-0.69-1.354-1.196c0.783-0.617,1.455-1.147,2.079-1.64
		c-0.858-0.836-1.544-1.503-2.488-2.423c-0.454,0.659-0.944,1.371-1.391,2.021c-0.595-0.495-0.959-0.799-1.566-1.304
		c0.805-0.63,1.479-1.157,2.07-1.618c-0.842-0.831-1.522-1.502-2.468-2.434c-0.452,0.656-0.94,1.366-1.35,1.961
		c-0.597-0.465-0.972-0.757-1.619-1.261c0.831-0.634,1.513-1.153,2.052-1.566c-0.794-0.873-1.438-1.582-2.1-2.31
		c-0.656,0.626-1.268,1.211-1.732,1.654c-0.485-0.386-0.855-0.681-1.255-0.999c0.631-0.669,1.213-1.287,1.635-1.734
		c-0.7-0.813-1.326-1.539-2.107-2.445c-0.614,0.713-1.154,1.34-1.566,1.82c-0.471-0.351-0.871-0.649-1.301-0.97
		c0.644-0.68,1.226-1.294,1.63-1.72c-1.525-1.566-2.959-3.041-4.375-4.495c0,9.982,0,20.022,0,30.103
		C11.822,48.295,21.84,48.295,31.739,48.295z M7.577,5.901c0,1.667,0,3.272,0,4.874c6.392,0,12.715,0,19.043,0
		c0-1.656,0-3.236,0-4.874C20.268,5.901,13.97,5.901,7.577,5.901z M5.773,10.8c0-1.688,0-3.293,0-4.872c-1.403,0-2.731,0-4.042,0
		c0,1.665,0,3.245,0,4.872C3.09,10.8,4.393,10.8,5.773,10.8z M46.677,8.305c-1.641-1.644-3.343-3.351-4.947-4.958
		c0,1.505,0,3.211,0,4.958C43.479,8.305,45.163,8.305,46.677,8.305z M28.386,10.207c1.116-0.635,2.122-1.208,3.278-1.866
		c-1.222-0.684-2.217-1.242-3.278-1.836C28.386,7.797,28.386,8.918,28.386,10.207z"/>
	<path fill="#3272A0" d="M30.533,35.079c-0.466,0.446-0.951,0.874-1.394,1.343c-0.561,0.593-1.082,0.661-1.68,0.047
		c-1.016-1.046-2.049-2.075-3.093-3.093c-0.614-0.599-0.54-1.121,0.055-1.68c0.468-0.438,0.894-0.924,1.338-1.389
		c-0.028-0.101-0.058-0.202-0.086-0.302c-0.663,0-1.327-0.02-1.989,0.006c-0.839,0.029-1.2-0.349-1.185-1.188
		c0.024-1.457,0.018-2.915,0.003-4.374c-0.008-0.797,0.374-1.136,1.15-1.115c0.652,0.018,1.307,0.004,1.959,0.004
		c0.063-0.084,0.125-0.167,0.188-0.251c-0.397-0.423-0.788-0.853-1.194-1.268c-0.928-0.948-0.932-1.154,0.023-2.114
		c0.931-0.935,1.877-1.854,2.794-2.801c0.575-0.593,1.1-0.628,1.683-0.014c0.46,0.485,0.965,0.928,1.449,1.39
		c0.095-0.039,0.188-0.078,0.284-0.116c0-0.708,0.002-1.415-0.001-2.122c-0.003-0.683,0.33-1.029,1.018-1.028
		c1.561,0,3.123-0.004,4.685,0.004c0.637,0.003,0.952,0.351,0.957,0.979c0.006,0.714,0.002,1.43,0.002,2.144
		c0.091,0.052,0.183,0.104,0.273,0.156c0.453-0.433,0.936-0.841,1.354-1.305c0.615-0.683,1.174-0.736,1.833-0.043
		c0.98,1.031,1.999,2.026,3.014,3.023c0.555,0.544,0.584,1.05,0.01,1.603c-0.489,0.469-0.941,0.976-1.41,1.465
		c0.027,0.1,0.057,0.199,0.084,0.299c0.663,0,1.326,0.018,1.988-0.004c0.832-0.028,1.208,0.34,1.193,1.182
		c-0.023,1.458-0.018,2.916-0.002,4.374c0.008,0.794-0.364,1.141-1.146,1.119c-0.653-0.018-1.309-0.004-1.963-0.004
		c-0.065,0.089-0.132,0.178-0.197,0.267c0.425,0.443,0.824,0.917,1.284,1.321c0.729,0.641,0.777,1.219,0.044,1.908
		c-1.012,0.95-1.983,1.943-2.951,2.94c-0.577,0.595-1.1,0.624-1.677,0.007c-0.459-0.488-0.96-0.937-1.44-1.401
		c-0.096,0.046-0.19,0.092-0.285,0.139c0,0.673-0.013,1.348,0.003,2.021c0.019,0.785-0.344,1.144-1.132,1.135
		c-1.493-0.016-2.985-0.009-4.478-0.003c-0.742,0.003-1.076-0.366-1.066-1.093c0.009-0.682,0.002-1.363,0.002-2.046
		C30.733,35.16,30.633,35.12,30.533,35.079z M42.312,32.543c-0.573-0.963-1.974-1.354-1.293-3.048
		c0.703-1.752,2.11-0.829,3.095-1.261c0-1.081,0-2.108,0-3.139c-1.078-0.335-2.368,0.445-3.089-1.232
		c-0.747-1.737,0.82-2.11,1.184-2.871c-0.805-0.854-1.528-1.623-2.245-2.383c-0.868,0.309-1.047,1.75-2.494,1.38
		c-1.877-0.479-1.703-1.85-1.626-3.252c-1.158,0-2.211,0-3.259,0c-0.316,1.095,0.442,2.375-1.243,3.091
		c-1.736,0.739-2.094-0.863-3.04-1.276c-0.792,0.76-1.536,1.475-2.28,2.188c0.457,1.02,2.005,1.338,1.32,3.055
		c-0.695,1.747-2.035,0.975-3.101,1.288c0,1.095,0,2.148,0,3.193c2.575,0.223,2.478,0.287,2.878,0.884
		c1.09,1.627-0.222,2.422-1.072,3.292c0.775,0.826,1.496,1.598,2.229,2.38c0.977-0.545,1.348-1.993,3.046-1.317
		c1.745,0.695,0.907,2.071,1.263,3.078c1.112,0,2.166,0,3.149,0c0.394-0.96-0.425-2.063,0.752-2.814
		c1.656-1.057,2.59,0.007,3.49,1.073C40.789,34.048,41.523,33.321,42.312,32.543z"/>
	<path fill="#3272A0" d="M39.917,46.652c-0.531,0-0.979,0-1.504,0c0-0.512,0-1.009,0-1.58c0.471,0,0.967,0,1.504,0
		C39.917,45.601,39.917,46.12,39.917,46.652z"/>
	<path fill="#3272A0" d="M43.263,46.621c-0.553,0-1.024,0-1.546,0c0-0.519,0-0.989,0-1.539c0.483,0,0.979,0,1.546,0
		C43.263,45.556,43.263,46.051,43.263,46.621z"/>
	<path fill="#3272A0" d="M46.629,45.084c0,0.518,0,0.989,0,1.522c-0.529,0-1.025,0-1.576,0c0-0.499,0-0.971,0-1.522
		C45.527,45.084,46.022,45.084,46.629,45.084z"/>
	<path fill="#3272A0" d="M12.841,43.335c-1.663-0.001-3.325-0.018-4.987,0.007c-0.839,0.013-1.187-0.351-1.182-1.186
		c0.016-3.289-0.014-6.579,0.027-9.869c0.005-0.373,0.26-0.891,0.56-1.064c0.217-0.126,0.8,0.105,1.048,0.352
		c3.402,3.356,6.782,6.736,10.138,10.138c0.245,0.248,0.474,0.835,0.347,1.05c-0.176,0.298-0.69,0.536-1.069,0.55
		C16.098,43.369,14.469,43.336,12.841,43.335z M8.419,34.259c0,2.423,0,4.889,0,7.352c2.519,0,4.956,0,7.335,0
		C13.314,39.165,10.876,36.722,8.419,34.259z"/>
	<path fill="#3272A0" d="M34.156,21.677c2.766-0.009,5.014,2.253,5.008,5.039c-0.005,2.717-2.25,4.95-4.982,4.955
		c-2.733,0.006-4.996-2.22-5.01-4.93C29.156,23.953,31.39,21.685,34.156,21.677z M34.196,30.006
		c1.815-0.014,3.304-1.515,3.304-3.331c0.001-1.806-1.502-3.319-3.308-3.332c-1.851-0.012-3.383,1.535-3.354,3.387
		C30.865,28.542,32.381,30.02,34.196,30.006z"/>
</g>
</svg>
